<svg version="1.1" viewBox="0.0 0.0 342.15223097112863 349.3097112860892" fill="none" stroke="none" stroke-linecap="square" stroke-miterlimit="10" xmlns:xlink="http://www.w3.org/1999/xlink" xmlns="http://www.w3.org/2000/svg"><clipPath id="p.0"><path d="m0 0l342.15222 0l0 349.30972l-342.15222 0l0 -349.30972z" clip-rule="nonzero"/></clipPath><g clip-path="url(#p.0)"><path fill="#000000" fill-opacity="0.0" d="m0 0l342.15222 0l0 349.30972l-342.15222 0z" fill-rule="evenodd"/><path fill="#f4cccc" d="m3.335958 236.82756l0 0c0 -4.8158875 3.9040546 -8.719955 8.71995 -8.719955l314.87506 0c2.312683 0 4.5306396 0.91871643 6.165924 2.554016c1.635315 1.635315 2.554016 3.8532715 2.554016 6.1659393l0 97.205765c0 4.8158875 -3.9040527 8.719971 -8.71994 8.719971l-314.87506 0c-4.8158946 0 -8.71995 -3.9040833 -8.71995 -8.719971z" fill-rule="evenodd"/><path stroke="#ff9900" stroke-width="2.0" stroke-linejoin="round" stroke-linecap="butt" stroke-dasharray="2.0,6.0" d="m3.335958 236.82756l0 0c0 -4.8158875 3.9040546 -8.719955 8.71995 -8.719955l314.87506 0c2.312683 0 4.5306396 0.91871643 6.165924 2.554016c1.635315 1.635315 2.554016 3.8532715 2.554016 6.1659393l0 97.205765c0 4.8158875 -3.9040527 8.719971 -8.71994 8.719971l-314.87506 0c-4.8158946 0 -8.71995 -3.9040833 -8.71995 -8.719971z" fill-rule="evenodd"/><path fill="#000000" d="m133.08719 327.5593l0 -11.453125l2.109375 0l0 11.453125l-2.109375 0zm4.640625 0l0 -11.453125l2.25 0q0.609375 0.953125 2.46875 3.84375q1.875 2.890625 2.28125 3.515625q0.125 0.1875 0.40625 0.609375q0.28125 0.421875 0.40625 0.609375q-0.0625 -2.6875 -0.0625 -2.78125l0 -5.796875l1.9375 0l0 11.453125l-2.28125 0l-5.171875 -8.046875l-0.375 -0.625q0.0625 2.0625 0.0625 2.90625l0 5.765625l-1.921875 0zm12.140625 0l0 -11.453125l6.78125 0l-0.078125 1.6875l-4.59375 0l0 3.25l4.359375 0l0 1.65625l-4.359375 0l0 4.859375l-2.109375 0zm8.6171875 0l0 -11.453125l2.125 0l0 9.765625l4.78125 0l-0.0625 1.6875l-6.84375 0zm12.8359375 0.171875q-2.25 0 -3.421875 -1.125q-1.15625 -1.125 -1.15625 -3.171875l0 -7.328125l2.125 0l0 7.15625q0 1.421875 0.578125 2.078125q0.59375 0.65625 1.921875 0.65625q1.296875 0 1.875 -0.65625q0.59375 -0.65625 0.59375 -2.09375l0 -7.140625l2.125 0l0 7.34375q0 2.03125 -1.1875 3.15625q-1.1875 1.125 -3.453125 1.125zm5.671875 -0.171875l4.015625 -5.859375l-3.703125 -5.59375l2.375 0l2.703125 4.265625l2.765625 -4.265625l2.265625 0l-3.796875 5.625l4.0 5.828125l-2.453125 0l-2.890625 -4.453125l-2.953125 4.453125l-2.328125 0zm14.7734375 0.171875q-1.671875 0 -2.640625 -1.234375q-0.953125 -1.25 -0.953125 -3.3125q0 -2.0 0.953125 -3.203125q0.953125 -1.21875 2.640625 -1.21875q1.828125 0 2.578125 1.296875q-0.078125 -0.765625 -0.078125 -1.484375l0 -2.765625l2.046875 -0.140625l0 11.890625l-1.765625 0l-0.234375 -1.171875q-0.125 0.203125 -0.25 0.359375q-0.109375 0.15625 -0.328125 0.359375q-0.21875 0.1875 -0.46875 0.3125q-0.25 0.125 -0.640625 0.21875q-0.390625 0.09375 -0.859375 0.09375zm0.484375 -1.5625q2.0625 0 2.09375 -2.8125q0 -1.578125 -0.53125 -2.296875q-0.53125 -0.734375 -1.578125 -0.734375q-0.921875 0 -1.484375 0.734375q-0.546875 0.734375 -0.546875 2.171875q0 1.4375 0.546875 2.1875q0.5625 0.75 1.5 0.75zm10.7578125 1.5625q-0.875 0 -1.59375 -0.390625q-0.703125 -0.390625 -1.03125 -0.890625l-0.203125 1.09375l-1.765625 0l0 -11.734375l2.046875 -0.140625l0 2.65625q0 0.78125 -0.046875 1.765625q1.015625 -1.328125 2.640625 -1.328125q1.640625 0 2.578125 1.21875q0.9375 1.21875 0.9375 3.1875q0 2.046875 -0.96875 3.3125q-0.96875 1.25 -2.59375 1.25zm-0.484375 -1.5625q0.90625 0 1.453125 -0.765625q0.546875 -0.78125 0.546875 -2.203125q0 -1.4375 -0.53125 -2.171875q-0.53125 -0.734375 -1.453125 -0.734375q-2.078125 0 -2.09375 2.8125q0 1.578125 0.515625 2.328125q0.53125 0.734375 1.5625 0.734375z" fill-rule="nonzero"/><path fill="#cfe2f3" d="m43.802307 253.51312l0 0c0 4.937958 18.190636 8.9409485 40.62992 8.9409485c22.439285 0 40.62992 -4.0029907 40.62992 -8.9409485l0 53.64566c0 4.937958 -18.190636 8.9409485 -40.62992 8.9409485c-22.439285 0 -40.62992 -4.0029907 -40.62992 -8.9409485z" fill-rule="evenodd"/><path fill="#e2edf7" d="m43.802307 253.51312l0 0c0 -4.9379425 18.190636 -8.9409485 40.62992 -8.9409485c22.439285 0 40.62992 4.003006 40.62992 8.9409485l0 0c0 4.937958 -18.190636 8.9409485 -40.62992 8.9409485c-22.439285 0 -40.62992 -4.0029907 -40.62992 -8.9409485z" fill-rule="evenodd"/><path fill="#000000" fill-opacity="0.0" d="m125.06215 253.51312l0 0c0 4.937958 -18.190636 8.9409485 -40.62992 8.9409485c-22.439285 0 -40.62992 -4.0029907 -40.62992 -8.9409485l0 0c0 -4.9379425 18.190636 -8.9409485 40.62992 -8.9409485c22.439285 0 40.62992 4.003006 40.62992 8.9409485l0 53.64566c0 4.937958 -18.190636 8.9409485 -40.62992 8.9409485c-22.439285 0 -40.62992 -4.0029907 -40.62992 -8.9409485l0 -53.64566" fill-rule="evenodd"/><path stroke="#000000" stroke-width="1.0" stroke-linejoin="round" stroke-linecap="butt" d="m125.06215 253.51312l0 0c0 4.937958 -18.190636 8.9409485 -40.62992 8.9409485c-22.439285 0 -40.62992 -4.0029907 -40.62992 -8.9409485l0 0c0 -4.9379425 18.190636 -8.9409485 40.62992 -8.9409485c22.439285 0 40.62992 4.003006 40.62992 8.9409485l0 53.64566c0 4.937958 -18.190636 8.9409485 -40.62992 8.9409485c-22.439285 0 -40.62992 -4.0029907 -40.62992 -8.9409485l0 -53.64566" fill-rule="evenodd"/><path fill="#000000" d="m62.430626 278.5439l1.203125 -0.109375q0.078125 0.71875 0.390625 1.1875q0.3125 0.453125 0.953125 0.734375q0.65625 0.28125 1.46875 0.28125q0.71875 0 1.265625 -0.21875q0.5625 -0.21875 0.828125 -0.578125q0.265625 -0.375 0.265625 -0.828125q0 -0.453125 -0.265625 -0.78125q-0.25 -0.328125 -0.84375 -0.5625q-0.390625 -0.15625 -1.703125 -0.46875q-1.3125 -0.3125 -1.84375 -0.59375q-0.671875 -0.359375 -1.015625 -0.890625q-0.328125 -0.53125 -0.328125 -1.1875q0 -0.71875 0.40625 -1.34375q0.40625 -0.625 1.1875 -0.953125q0.796875 -0.328125 1.765625 -0.328125q1.046875 0 1.859375 0.34375q0.8125 0.34375 1.25 1.015625q0.4375 0.65625 0.46875 1.484375l-1.203125 0.09375q-0.109375 -0.90625 -0.671875 -1.359375q-0.5625 -0.46875 -1.65625 -0.46875q-1.140625 0 -1.671875 0.421875q-0.515625 0.421875 -0.515625 1.015625q0 0.515625 0.359375 0.84375q0.375 0.328125 1.90625 0.6875q1.546875 0.34375 2.109375 0.59375q0.84375 0.390625 1.234375 0.984375q0.390625 0.578125 0.390625 1.359375q0 0.75 -0.4375 1.4375q-0.421875 0.671875 -1.25 1.046875q-0.8125 0.359375 -1.828125 0.359375q-1.296875 0 -2.171875 -0.375q-0.875 -0.375 -1.375 -1.125q-0.5 -0.765625 -0.53125 -1.71875zm13.90538 0.84375l1.203125 0.140625q-0.28125 1.0625 -1.0625 1.65625q-0.765625 0.578125 -1.96875 0.578125q-1.515625 0 -2.40625 -0.9375q-0.890625 -0.9375 -0.890625 -2.609375q0 -1.75 0.890625 -2.703125q0.90625 -0.96875 2.34375 -0.96875q1.390625 0 2.265625 0.9375q0.875 0.9375 0.875 2.65625q0 0.109375 0 0.3125l-5.15625 0q0.0625 1.140625 0.640625 1.75q0.578125 0.59375 1.4375 0.59375q0.65625 0 1.109375 -0.328125q0.453125 -0.34375 0.71875 -1.078125zm-3.84375 -1.90625l3.859375 0q-0.078125 -0.859375 -0.4375 -1.296875q-0.5625 -0.6875 -1.453125 -0.6875q-0.8125 0 -1.359375 0.546875q-0.546875 0.53125 -0.609375 1.4375zm6.5218506 4.125l0 -6.90625l1.0625 0l0 0.984375q0.75 -1.140625 2.1875 -1.140625q0.625 0 1.15625 0.21875q0.53125 0.21875 0.78125 0.59375q0.265625 0.359375 0.375 0.859375q0.0625 0.328125 0.0625 1.140625l0 4.25l-1.171875 0l0 -4.203125q0 -0.71875 -0.140625 -1.0625q-0.140625 -0.359375 -0.484375 -0.5625q-0.34375 -0.21875 -0.8125 -0.21875q-0.75 0 -1.296875 0.46875q-0.546875 0.46875 -0.546875 1.796875l0 3.78125l-1.171875 0zm6.9437256 -2.0625l1.15625 -0.1875q0.109375 0.703125 0.546875 1.078125q0.453125 0.359375 1.25 0.359375q0.8125 0 1.203125 -0.328125q0.390625 -0.328125 0.390625 -0.765625q0 -0.390625 -0.359375 -0.625q-0.234375 -0.15625 -1.1875 -0.390625q-1.296875 -0.328125 -1.796875 -0.5625q-0.484375 -0.25 -0.75 -0.65625q-0.25 -0.421875 -0.25 -0.9375q0 -0.453125 0.203125 -0.84375q0.21875 -0.40625 0.578125 -0.671875q0.28125 -0.1875 0.75 -0.328125q0.46875 -0.140625 1.015625 -0.140625q0.8125 0 1.421875 0.234375q0.609375 0.234375 0.90625 0.640625q0.296875 0.390625 0.40625 1.0625l-1.140625 0.15625q-0.078125 -0.53125 -0.453125 -0.828125q-0.375 -0.3125 -1.0625 -0.3125q-0.8125 0 -1.15625 0.265625q-0.34375 0.265625 -0.34375 0.625q0 0.234375 0.140625 0.421875q0.15625 0.1875 0.453125 0.3125q0.171875 0.0625 1.03125 0.296875q1.25 0.328125 1.734375 0.546875q0.5 0.203125 0.78125 0.609375q0.28125 0.40625 0.28125 1.0q0 0.59375 -0.34375 1.109375q-0.34375 0.515625 -1.0 0.796875q-0.640625 0.28125 -1.453125 0.28125q-1.34375 0 -2.046875 -0.5625q-0.703125 -0.5625 -0.90625 -1.65625zm6.6953125 -1.390625q0 -1.921875 1.078125 -2.84375q0.890625 -0.765625 2.171875 -0.765625q1.421875 0 2.328125 0.9375q0.90625 0.921875 0.90625 2.578125q0 1.328125 -0.40625 2.09375q-0.390625 0.765625 -1.15625 1.1875q-0.765625 0.421875 -1.671875 0.421875q-1.453125 0 -2.359375 -0.921875q-0.890625 -0.9375 -0.890625 -2.6875zm1.203125 0q0 1.328125 0.578125 1.984375q0.59375 0.65625 1.46875 0.65625q0.875 0 1.453125 -0.65625q0.578125 -0.671875 0.578125 -2.03125q0 -1.28125 -0.59375 -1.9375q-0.578125 -0.65625 -1.4375 -0.65625q-0.875 0 -1.46875 0.65625q-0.578125 0.65625 -0.578125 1.984375zm6.6312256 3.453125l0 -6.90625l1.0625 0l0 1.046875q0.40625 -0.734375 0.734375 -0.96875q0.34375 -0.234375 0.765625 -0.234375q0.59375 0 1.203125 0.375l-0.40625 1.078125q-0.4375 -0.25 -0.859375 -0.25q-0.390625 0 -0.703125 0.234375q-0.296875 0.234375 -0.421875 0.640625q-0.203125 0.625 -0.203125 1.359375l0 3.625l-1.171875 0zm4.4696198 -8.1875l0 -1.359375l1.171875 0l0 1.359375l-1.171875 0zm0 8.1875l0 -6.90625l1.171875 0l0 6.90625l-1.171875 0z" fill-rule="nonzero"/><path fill="#000000" d="m67.31221 298.18454l1.140625 0.15625q0.078125 0.53125 0.40625 0.78125q0.4375 0.3125 1.1875 0.3125q0.8125 0 1.25 -0.328125q0.453125 -0.3125 0.609375 -0.90625q0.09375 -0.359375 0.078125 -1.5q-0.765625 0.90625 -1.90625 0.90625q-1.4375 0 -2.21875 -1.03125q-0.78125 -1.03125 -0.78125 -2.46875q0 -0.984375 0.359375 -1.8125q0.359375 -0.84375 1.03125 -1.296875q0.6875 -0.453125 1.609375 -0.453125q1.21875 0 2.015625 0.984375l0 -0.828125l1.078125 0l0 5.96875q0 1.609375 -0.328125 2.28125q-0.328125 0.6875 -1.046875 1.078125q-0.703125 0.390625 -1.75 0.390625q-1.234375 0 -2.0 -0.5625q-0.75 -0.5625 -0.734375 -1.671875zm0.984375 -4.15625q0 1.359375 0.53125 1.984375q0.546875 0.625 1.359375 0.625q0.796875 0 1.34375 -0.625q0.546875 -0.625 0.546875 -1.953125q0 -1.265625 -0.5625 -1.90625q-0.5625 -0.640625 -1.359375 -0.640625q-0.765625 0 -1.3125 0.640625q-0.546875 0.625 -0.546875 1.875zm6.6312256 3.578125l0 -6.90625l1.0625 0l0 1.046875q0.40625 -0.734375 0.734375 -0.96875q0.34375 -0.234375 0.765625 -0.234375q0.59375 0 1.203125 0.375l-0.40625 1.078125q-0.4375 -0.25 -0.859375 -0.25q-0.390625 0 -0.703125 0.234375q-0.296875 0.234375 -0.421875 0.640625q-0.203125 0.625 -0.203125 1.359375l0 3.625l-1.171875 0zm9.18837 -2.21875l1.203125 0.140625q-0.28125 1.0625 -1.0625 1.65625q-0.765625 0.578125 -1.96875 0.578125q-1.515625 0 -2.40625 -0.9375q-0.890625 -0.9375 -0.890625 -2.609375q0 -1.75 0.890625 -2.703125q0.90625 -0.96875 2.34375 -0.96875q1.390625 0 2.265625 0.9375q0.875 0.9375 0.875 2.65625q0 0.109375 0 0.3125l-5.15625 0q0.0625 1.140625 0.640625 1.75q0.578125 0.59375 1.4375 0.59375q0.65625 0 1.109375 -0.328125q0.453125 -0.34375 0.71875 -1.078125zm-3.84375 -1.90625l3.859375 0q-0.078125 -0.859375 -0.4375 -1.296875q-0.5625 -0.6875 -1.453125 -0.6875q-0.8125 0 -1.359375 0.546875q-0.546875 0.53125 -0.609375 1.4375zm5.9124756 4.125l0 -0.953125l4.390625 -5.046875q-0.75 0.03125 -1.3125 0.03125l-2.828125 0l0 -0.9375l5.65625 0l0 0.765625l-3.75 4.390625l-0.71875 0.796875q0.796875 -0.0625 1.484375 -0.0625l3.1875 0l0 1.015625l-6.109375 0zm6.6640625 0l0 -0.953125l4.390625 -5.046875q-0.75 0.03125 -1.3125 0.03125l-2.828125 0l0 -0.9375l5.65625 0l0 0.765625l-3.75 4.390625l-0.71875 0.796875q0.796875 -0.0625 1.484375 -0.0625l3.1875 0l0 1.015625l-6.109375 0zm7.2890625 -8.1875l0 -1.359375l1.171875 0l0 1.359375l-1.171875 0zm0 8.1875l0 -6.90625l1.171875 0l0 6.90625l-1.171875 0z" fill-rule="nonzero"/><path fill="#cfe2f3" d="m201.5894 253.51312l0 0c0 4.937958 18.190628 8.9409485 40.629913 8.9409485c22.439285 0 40.62993 -4.0029907 40.62993 -8.9409485l0 53.64566c0 4.937958 -18.190643 8.9409485 -40.62993 8.9409485c-22.439285 0 -40.629913 -4.0029907 -40.629913 -8.9409485z" fill-rule="evenodd"/><path fill="#e2edf7" d="m201.5894 253.51312l0 0c0 -4.9379425 18.190628 -8.9409485 40.629913 -8.9409485c22.439285 0 40.62993 4.003006 40.62993 8.9409485l0 0c0 4.937958 -18.190643 8.9409485 -40.62993 8.9409485c-22.439285 0 -40.629913 -4.0029907 -40.629913 -8.9409485z" fill-rule="evenodd"/><path fill="#000000" fill-opacity="0.0" d="m282.84924 253.51312l0 0c0 4.937958 -18.190643 8.9409485 -40.62993 8.9409485c-22.439285 0 -40.629913 -4.0029907 -40.629913 -8.9409485l0 0c0 -4.9379425 18.190628 -8.9409485 40.629913 -8.9409485c22.439285 0 40.62993 4.003006 40.62993 8.9409485l0 53.64566c0 4.937958 -18.190643 8.9409485 -40.62993 8.9409485c-22.439285 0 -40.629913 -4.0029907 -40.629913 -8.9409485l0 -53.64566" fill-rule="evenodd"/><path stroke="#000000" stroke-width="1.0" stroke-linejoin="round" stroke-linecap="butt" d="m282.84924 253.51312l0 0c0 4.937958 -18.190643 8.9409485 -40.62993 8.9409485c-22.439285 0 -40.629913 -4.0029907 -40.629913 -8.9409485l0 0c0 -4.9379425 18.190628 -8.9409485 40.629913 -8.9409485c22.439285 0 40.62993 4.003006 40.62993 8.9409485l0 53.64566c0 4.937958 -18.190643 8.9409485 -40.62993 8.9409485c-22.439285 0 -40.629913 -4.0029907 -40.629913 -8.9409485l0 -53.64566" fill-rule="evenodd"/><path fill="#000000" d="m224.68227 281.6064l0 -9.546875l1.90625 0l2.25 6.765625q0.3125 0.9375 0.46875 1.40625q0.15625 -0.515625 0.5 -1.53125l2.28125 -6.640625l1.703125 0l0 9.546875l-1.21875 0l0 -7.984375l-2.765625 7.984375l-1.140625 0l-2.765625 -8.125l0 8.125l-1.21875 0zm15.727432 -2.21875l1.203125 0.140625q-0.28125 1.0625 -1.0625 1.65625q-0.765625 0.578125 -1.96875 0.578125q-1.515625 0 -2.40625 -0.9375q-0.890625 -0.9375 -0.890625 -2.609375q0 -1.75 0.890625 -2.703125q0.90625 -0.96875 2.34375 -0.96875q1.390625 0 2.265625 0.9375q0.875 0.9375 0.875 2.65625q0 0.109375 0 0.3125l-5.15625 0q0.0625 1.140625 0.640625 1.75q0.578125 0.59375 1.4375 0.59375q0.65625 0 1.109375 -0.328125q0.453125 -0.34375 0.71875 -1.078125zm-3.84375 -1.90625l3.859375 0q-0.078125 -0.859375 -0.4375 -1.296875q-0.5625 -0.6875 -1.453125 -0.6875q-0.8125 0 -1.359375 0.546875q-0.546875 0.53125 -0.609375 1.4375zm9.084351 3.078125l0.171875 1.03125q-0.5 0.109375 -0.890625 0.109375q-0.640625 0 -1.0 -0.203125q-0.34375 -0.203125 -0.484375 -0.53125q-0.140625 -0.328125 -0.140625 -1.390625l0 -3.96875l-0.859375 0l0 -0.90625l0.859375 0l0 -1.71875l1.171875 -0.703125l0 2.421875l1.171875 0l0 0.90625l-1.171875 0l0 4.046875q0 0.5 0.046875 0.640625q0.0625 0.140625 0.203125 0.234375q0.140625 0.078125 0.40625 0.078125q0.203125 0 0.515625 -0.046875zm5.8748627 -1.171875l1.203125 0.140625q-0.28125 1.0625 -1.0625 1.65625q-0.765625 0.578125 -1.96875 0.578125q-1.515625 0 -2.40625 -0.9375q-0.890625 -0.9375 -0.890625 -2.609375q0 -1.75 0.890625 -2.703125q0.90625 -0.96875 2.34375 -0.96875q1.390625 0 2.265625 0.9375q0.875 0.9375 0.875 2.65625q0 0.109375 0 0.3125l-5.15625 0q0.0625 1.140625 0.640625 1.75q0.578125 0.59375 1.4375 0.59375q0.65625 0 1.109375 -0.328125q0.453125 -0.34375 0.71875 -1.078125zm-3.84375 -1.90625l3.859375 0q-0.078125 -0.859375 -0.4375 -1.296875q-0.5625 -0.6875 -1.453125 -0.6875q-0.8125 0 -1.359375 0.546875q-0.546875 0.53125 -0.609375 1.4375zm6.0843506 0.671875q0 -1.921875 1.078125 -2.84375q0.890625 -0.765625 2.1718903 -0.765625q1.421875 0 2.328125 0.9375q0.90625 0.921875 0.90625 2.578125q0 1.328125 -0.40625 2.09375q-0.390625 0.765625 -1.15625 1.1875q-0.765625 0.421875 -1.671875 0.421875q-1.4531403 0 -2.3593903 -0.921875q-0.890625 -0.9375 -0.890625 -2.6875zm1.203125 0q0 1.328125 0.578125 1.984375q0.59376526 0.65625 1.4687653 0.65625q0.875 0 1.453125 -0.65625q0.578125 -0.671875 0.578125 -2.03125q0 -1.28125 -0.59375 -1.9375q-0.578125 -0.65625 -1.4375 -0.65625q-0.875 0 -1.4687653 0.65625q-0.578125 0.65625 -0.578125 1.984375z" fill-rule="nonzero"/><path fill="#000000" d="m222.87361 298.18454l1.140625 0.15625q0.078125 0.53125 0.40625 0.78125q0.4375 0.3125 1.1875 0.3125q0.8125 0 1.25 -0.328125q0.453125 -0.3125 0.609375 -0.90625q0.09375 -0.359375 0.078125 -1.5q-0.765625 0.90625 -1.90625 0.90625q-1.4375 0 -2.21875 -1.03125q-0.78125 -1.03125 -0.78125 -2.46875q0 -0.984375 0.359375 -1.8125q0.359375 -0.84375 1.03125 -1.296875q0.6875 -0.453125 1.609375 -0.453125q1.21875 0 2.015625 0.984375l0 -0.828125l1.078125 0l0 5.96875q0 1.609375 -0.328125 2.28125q-0.328125 0.6875 -1.046875 1.078125q-0.703125 0.390625 -1.75 0.390625q-1.234375 0 -2.0 -0.5625q-0.75 -0.5625 -0.734375 -1.671875zm0.984375 -4.15625q0 1.359375 0.53125 1.984375q0.546875 0.625 1.359375 0.625q0.796875 0 1.34375 -0.625q0.546875 -0.625 0.546875 -1.953125q0 -1.265625 -0.5625 -1.90625q-0.5625 -0.640625 -1.359375 -0.640625q-0.765625 0 -1.3125 0.640625q-0.546875 0.625 -0.546875 1.875zm6.6312256 3.578125l0 -6.90625l1.0625 0l0 1.046875q0.40625 -0.734375 0.734375 -0.96875q0.34375 -0.234375 0.765625 -0.234375q0.59375 0 1.203125 0.375l-0.40625 1.078125q-0.4375 -0.25 -0.859375 -0.25q-0.390625 0 -0.703125 0.234375q-0.296875 0.234375 -0.421875 0.640625q-0.203125 0.625 -0.203125 1.359375l0 3.625l-1.171875 0zm9.18837 -2.21875l1.203125 0.140625q-0.28125 1.0625 -1.0625 1.65625q-0.765625 0.578125 -1.96875 0.578125q-1.515625 0 -2.40625 -0.9375q-0.890625 -0.9375 -0.890625 -2.609375q0 -1.75 0.890625 -2.703125q0.90625 -0.96875 2.34375 -0.96875q1.390625 0 2.265625 0.9375q0.875 0.9375 0.875 2.65625q0 0.109375 0 0.3125l-5.15625 0q0.0625 1.140625 0.640625 1.75q0.578125 0.59375 1.4375 0.59375q0.65625 0 1.109375 -0.328125q0.453125 -0.34375 0.71875 -1.078125zm-3.84375 -1.90625l3.859375 0q-0.078125 -0.859375 -0.4375 -1.296875q-0.5625 -0.6875 -1.453125 -0.6875q-0.8125 0 -1.359375 0.546875q-0.546875 0.53125 -0.609375 1.4375zm5.9124756 4.125l0 -0.953125l4.390625 -5.046875q-0.75 0.03125 -1.3125 0.03125l-2.828125 0l0 -0.9375l5.65625 0l0 0.765625l-3.75 4.390625l-0.71875 0.796875q0.796875 -0.0625 1.484375 -0.0625l3.1875 0l0 1.015625l-6.109375 0zm6.6640625 0l0 -0.953125l4.390625 -5.046875q-0.75 0.03125 -1.3125 0.03125l-2.828125 0l0 -0.9375l5.65625 0l0 0.765625l-3.75 4.390625l-0.71875 0.796875q0.796875 -0.0625 1.484375 -0.0625l3.1875 0l0 1.015625l-6.109375 0zm6.8359375 -3.453125q0 -1.921875 1.078125 -2.84375q0.890625 -0.765625 2.171875 -0.765625q1.421875 0 2.328125 0.9375q0.90625 0.921875 0.90625 2.578125q0 1.328125 -0.40625 2.09375q-0.390625 0.765625 -1.15625 1.1875q-0.765625 0.421875 -1.671875 0.421875q-1.453125 0 -2.359375 -0.921875q-0.890625 -0.9375 -0.890625 -2.6875zm1.203125 0q0 1.328125 0.578125 1.984375q0.59375 0.65625 1.46875 0.65625q0.875 0 1.453125 -0.65625q0.578125 -0.671875 0.578125 -2.03125q0 -1.28125 -0.59375 -1.9375q-0.578125 -0.65625 -1.4375 -0.65625q-0.875 0 -1.46875 0.65625q-0.578125 0.65625 -0.578125 1.984375z" fill-rule="nonzero"/><path fill="#b6d7a8" d="m2.7144105 114.04305l0 0c0 -5.2235794 4.2345476 -9.458122 9.458126 -9.458122l313.3987 0c2.5084229 0 4.914154 0.9964752 6.6878967 2.770218c1.7737427 1.7737427 2.7702026 4.179451 2.7702026 6.6879044l0 98.942024c0 5.223572 -4.2345276 9.458115 -9.458099 9.458115l-313.3987 0c-5.223579 0 -9.458126 -4.234543 -9.458126 -9.458115z" fill-rule="evenodd"/><path stroke="#ff9900" stroke-width="2.0" stroke-linejoin="round" stroke-linecap="butt" stroke-dasharray="2.0,6.0" d="m2.7144105 114.04305l0 0c0 -5.2235794 4.2345476 -9.458122 9.458126 -9.458122l313.3987 0c2.5084229 0 4.914154 0.9964752 6.6878967 2.770218c1.7737427 1.7737427 2.7702026 4.179451 2.7702026 6.6879044l0 98.942024c0 5.223572 -4.2345276 9.458115 -9.458099 9.458115l-313.3987 0c-5.223579 0 -9.458126 -4.234543 -9.458126 -9.458115z" fill-rule="evenodd"/><path fill="#000000" d="m151.46954 207.18925q-2.078125 0 -3.71875 -0.953125l0.515625 -1.6875q0.734375 0.40625 1.59375 0.65625q0.875 0.25 1.6875 0.25q1.015625 0 1.53125 -0.421875q0.515625 -0.4375 0.515625 -1.25q0 -1.078125 -1.4375 -1.5q-0.109375 -0.03125 -0.578125 -0.15625q-0.46875 -0.140625 -0.875 -0.265625q-0.40625 -0.140625 -0.59375 -0.203125q-2.296875 -0.8125 -2.296875 -3.03125q0 -1.5625 1.09375 -2.40625q1.109375 -0.84375 2.9375 -0.84375q2.078125 0 3.578125 0.859375l-0.640625 1.546875q-1.53125 -0.6875 -2.84375 -0.6875q-0.953125 0 -1.4375 0.328125q-0.46875 0.328125 -0.5 1.109375q0 0.953125 0.9375 1.234375q0.1875 0.078125 0.921875 0.3125q0.734375 0.234375 0.953125 0.296875q1.578125 0.515625 2.25 1.28125q0.671875 0.765625 0.671875 2.140625q0 1.625 -1.15625 2.515625q-1.15625 0.875 -3.109375 0.875zm9.6328125 0.015625q-1.96875 0 -3.0625 -1.171875q-1.09375 -1.1875 -1.09375 -3.359375q0 -2.109375 1.140625 -3.265625q1.15625 -1.171875 3.046875 -1.171875q1.5 0 2.546875 0.640625l-0.484375 1.46875q-1.0625 -0.5625 -1.984375 -0.5625q-1.03125 0 -1.640625 0.75q-0.59375 0.734375 -0.59375 2.15625q0 1.4375 0.59375 2.1875q0.59375 0.75 1.671875 0.75q1.125 0 2.15625 -0.65625l0.203125 1.546875q-0.546875 0.359375 -1.125 0.515625q-0.578125 0.171875 -1.375 0.171875zm4.125 -0.171875l0 -8.59375l1.71875 0l0.265625 1.3125q0.84375 -1.34375 2.453125 -1.34375q0.328125 0 0.546875 0.03125l-0.03125 1.703125q-0.3125 -0.046875 -0.65625 -0.046875q-1.125 0 -1.6875 0.609375q-0.5625 0.59375 -0.5625 1.671875l0 4.65625l-2.046875 0zm6.28125 0l0 -8.59375l2.046875 0l0 8.59375l-2.046875 0zm0 -9.84375l0 -1.75l2.046875 0l0 1.75l-2.046875 0zm4.1796875 13.421875l0 -12.171875l1.75 0l0.21875 1.203125q0.421875 -0.671875 1.125 -1.046875q0.703125 -0.375 1.5625 -0.375q1.046875 0 1.84375 0.59375q0.8125 0.578125 1.21875 1.59375q0.421875 1.015625 0.421875 2.28125q0 2.0 -0.96875 3.265625q-0.96875 1.25 -2.609375 1.25q-0.8125 0 -1.484375 -0.328125q-0.65625 -0.328125 -1.09375 -0.890625q0.0625 1.140625 0.0625 1.28125l0 3.234375l-2.046875 0.109375zm4.125 -4.984375q0.90625 0 1.4375 -0.765625q0.53125 -0.765625 0.53125 -2.1875q0 -1.4375 -0.53125 -2.15625q-0.53125 -0.734375 -1.484375 -0.734375q-2.03125 0 -2.046875 2.765625q0 1.59375 0.515625 2.34375q0.53125 0.734375 1.578125 0.734375zm9.109375 1.53125q-0.875 0 -1.453125 -0.203125q-0.578125 -0.21875 -0.90625 -0.65625q-0.328125 -0.453125 -0.46875 -1.0625q-0.140625 -0.609375 -0.140625 -1.5l0 -4.046875l-1.40625 0l0.078125 -1.109375l1.46875 -0.140625l0.65625 -2.328125l1.25 0l0 2.328125l2.140625 0l0 1.25l-2.140625 0l0 4.09375q0 0.96875 0.28125 1.390625q0.28125 0.40625 1.046875 0.40625q0.4375 0 0.953125 -0.078125l0.046875 1.46875q-0.015625 0 -0.1875 0.046875q-0.171875 0.03125 -0.34375 0.0625q-0.15625 0.03125 -0.40625 0.046875q-0.25 0.03125 -0.46875 0.03125z" fill-rule="nonzero"/><path fill="#ffe599" d="m166.00426 146.77963l0 0c0 -4.6560974 3.7745209 -8.430618 8.430618 -8.430618l134.88681 0c2.2359314 0 4.3802795 0.88822937 5.961334 2.4692688c1.5810547 1.5810547 2.4692688 3.725418 2.4692688 5.9613495l0 33.72145c0 4.6560974 -3.7745056 8.430618 -8.430603 8.430618l-134.88681 0c-4.6560974 0 -8.430618 -3.7745209 -8.430618 -8.430618z" fill-rule="evenodd"/><path stroke="#ff9900" stroke-width="2.0" stroke-linejoin="round" stroke-linecap="butt" d="m166.00426 146.77963l0 0c0 -4.6560974 3.7745209 -8.430618 8.430618 -8.430618l134.88681 0c2.2359314 0 4.3802795 0.88822937 5.961334 2.4692688c1.5810547 1.5810547 2.4692688 3.725418 2.4692688 5.9613495l0 33.72145c0 4.6560974 -3.7745056 8.430618 -8.430603 8.430618l-134.88681 0c-4.6560974 0 -8.430618 -3.7745209 -8.430618 -8.430618z" fill-rule="evenodd"/><path fill="#000000" d="m186.37437 160.00035l0 -11.625l1.40625 0l4.3125 9.8125l4.1875 -9.8125l1.34375 0l0 11.625l-0.984375 0l0 -7.828125l0.046875 -2.640625l-0.28125 0.9375l-3.828125 8.859375l-1.09375 0l-3.859375 -8.875l-0.3125 -0.9375l0.0625 2.703125l0 7.78125l-1.0 0zm17.296875 0.1875q-1.78125 0 -2.828125 -1.1875q-1.03125 -1.1875 -1.03125 -3.21875q0 -1.96875 1.015625 -3.21875q1.015625 -1.25 2.640625 -1.28125q1.5 0 2.40625 1.078125q0.921875 1.078125 0.921875 2.890625q0 0.0625 0 0.28125q0 0.21875 0 0.296875l-5.96875 0q0.015625 1.65625 0.796875 2.625q0.78125 0.953125 2.0625 0.953125q0.84375 0 1.453125 -0.1875q0.625 -0.203125 1.296875 -0.5625l0.15625 0.734375q-1.296875 0.796875 -2.921875 0.796875zm-2.796875 -5.140625l4.875 0q0 -1.421875 -0.625 -2.1875q-0.609375 -0.765625 -1.6875 -0.765625q-1.09375 0 -1.765625 0.8125q-0.671875 0.8125 -0.796875 2.140625zm10.2734375 5.140625q-1.078125 0 -1.578125 -0.484375q-0.5 -0.5 -0.5 -1.609375l0 -5.953125l-1.203125 0l0.0625 -0.578125l1.15625 -0.109375l0.265625 -1.96875l0.671875 -0.046875l0 2.0l2.5 0l0 0.703125l-2.5 0l0 5.75q0 0.90625 0.296875 1.21875q0.296875 0.3125 1.046875 0.3125q0.484375 0 1.203125 -0.1875l0.046875 0.75q-0.953125 0.203125 -1.46875 0.203125zm6.34375 0q-1.78125 0 -2.828125 -1.1875q-1.03125 -1.1875 -1.03125 -3.21875q0 -1.96875 1.015625 -3.21875q1.015625 -1.25 2.640625 -1.28125q1.5 0 2.40625 1.078125q0.921875 1.078125 0.921875 2.890625q0 0.0625 0 0.28125q0 0.21875 0 0.296875l-5.96875 0q0.015625 1.65625 0.796875 2.625q0.78125 0.953125 2.0625 0.953125q0.84375 0 1.453125 -0.1875q0.625 -0.203125 1.296875 -0.5625l0.15625 0.734375q-1.296875 0.796875 -2.921875 0.796875zm-2.796875 -5.140625l4.875 0q0 -1.421875 -0.625 -2.1875q-0.609375 -0.765625 -1.6875 -0.765625q-1.09375 0 -1.765625 0.8125q-0.671875 0.8125 -0.796875 2.140625zm11.2890625 4.359375q0.9375 0 1.578125 -0.484375q0.640625 -0.5 0.9375 -1.3125q0.296875 -0.8125 0.296875 -1.875q0 -1.65625 -0.703125 -2.65625q-0.703125 -1.015625 -2.140625 -1.015625q-0.9375 0 -1.609375 0.515625q-0.65625 0.5 -0.96875 1.3125q-0.296875 0.8125 -0.296875 1.875q0 1.59375 0.75 2.625q0.75 1.015625 2.15625 1.015625zm-0.078125 0.78125q-1.15625 0 -2.046875 -0.578125q-0.890625 -0.59375 -1.359375 -1.59375q-0.453125 -1.015625 -0.453125 -2.28125q0 -0.953125 0.265625 -1.765625q0.265625 -0.8125 0.765625 -1.40625q0.5 -0.609375 1.234375 -0.9375q0.75 -0.34375 1.65625 -0.34375q1.203125 0 2.078125 0.59375q0.890625 0.578125 1.328125 1.578125q0.453125 1.0 0.453125 2.265625q0 1.28125 -0.453125 2.28125q-0.453125 1.0 -1.359375 1.59375q-0.890625 0.59375 -2.109375 0.59375zm9.5390625 -0.1875l0 -8.5625l0.984375 0l0 8.5625l-0.984375 0zm0 -10.3125l0 -1.3125l0.96875 0l0 1.3125l-0.96875 0zm3.3828125 10.3125l0 -8.5625l0.84375 0l0.125 1.3125q0.46875 -0.6875 1.234375 -1.078125q0.78125 -0.390625 1.6875 -0.390625q1.46875 0 2.15625 0.8125q0.703125 0.8125 0.703125 2.59375l0 5.3125l-0.96875 0l0 -5.75q-0.046875 -1.140625 -0.5 -1.640625q-0.4375 -0.5 -1.453125 -0.5q-1.15625 0 -1.90625 0.59375q-0.734375 0.578125 -0.921875 1.5q-0.03125 0.375 -0.03125 0.765625l0 5.03125l-0.96875 0zm10.3125 3.984375l-0.109375 -0.875l1.8125 0q0.59375 0 1.046875 -0.109375q0.46875 -0.09375 0.78125 -0.265625q0.328125 -0.171875 0.546875 -0.46875q0.21875 -0.296875 0.34375 -0.59375q0.125 -0.296875 0.1875 -0.78125q0.078125 -0.46875 0.09375 -0.875q0.015625 -0.390625 0.015625 -0.984375q0 0.078125 -0.015625 -0.046875q-0.046875 -0.53125 -0.046875 -0.53125q-0.484375 0.734375 -1.15625 1.140625q-0.671875 0.40625 -1.640625 0.40625q-0.765625 0 -1.40625 -0.265625q-0.625 -0.28125 -1.03125 -0.71875q-0.390625 -0.4375 -0.671875 -1.0q-0.265625 -0.5625 -0.390625 -1.125q-0.109375 -0.5625 -0.109375 -1.109375q0 -0.6875 0.109375 -1.296875q0.109375 -0.625 0.390625 -1.21875q0.28125 -0.59375 0.703125 -1.03125q0.421875 -0.4375 1.078125 -0.6875q0.671875 -0.265625 1.515625 -0.265625q0.8125 0 1.4375 0.328125q0.640625 0.3125 1.171875 1.03125l0.09375 -1.203125l0.859375 0l0 7.9375q0 0.515625 -0.015625 0.828125q0 0.328125 -0.09375 0.859375q-0.078125 0.546875 -0.21875 0.890625q-0.140625 0.359375 -0.4375 0.78125q-0.296875 0.421875 -0.71875 0.65625q-0.421875 0.25 -1.078125 0.421875q-0.640625 0.171875 -1.46875 0.171875l-1.578125 0zm1.984375 -4.78125q0.5625 0 1.015625 -0.171875q0.46875 -0.1875 0.765625 -0.484375q0.3125 -0.3125 0.515625 -0.71875q0.203125 -0.40625 0.28125 -0.828125q0.09375 -0.4375 0.09375 -0.90625l0 -0.890625q0 -0.609375 -0.15625 -1.140625q-0.140625 -0.546875 -0.453125 -1.0q-0.296875 -0.453125 -0.84375 -0.71875q-0.53125 -0.265625 -1.25 -0.265625q-0.578125 0 -1.046875 0.21875q-0.453125 0.21875 -0.75 0.59375q-0.296875 0.359375 -0.5 0.859375q-0.203125 0.484375 -0.296875 1.0q-0.078125 0.515625 -0.078125 1.046875q0 0.484375 0.078125 0.9375q0.078125 0.4375 0.265625 0.90625q0.1875 0.453125 0.484375 0.796875q0.296875 0.34375 0.78125 0.5625q0.484375 0.203125 1.09375 0.203125zm9.335922 0.984375q-1.78125 0 -2.828125 -1.1875q-1.03125 -1.1875 -1.03125 -3.21875q0 -1.96875 1.015625 -3.21875q1.015625 -1.25 2.640625 -1.28125q1.5 0 2.40625 1.078125q0.921875 1.078125 0.921875 2.890625q0 0.0625 0 0.28125q0 0.21875 0 0.296875l-5.96875 0q0.015625 1.65625 0.796875 2.625q0.78125 0.953125 2.0625 0.953125q0.84375 0 1.453125 -0.1875q0.625 -0.203125 1.296875 -0.5625l0.15625 0.734375q-1.296875 0.796875 -2.921875 0.796875zm-2.796875 -5.140625l4.875 0q0 -1.421875 -0.625 -2.1875q-0.609375 -0.765625 -1.6875 -0.765625q-1.09375 0 -1.765625 0.8125q-0.671875 0.8125 -0.796875 2.140625zm10.3671875 5.15625q-0.828125 0 -1.5625 -0.203125q-0.71875 -0.21875 -1.140625 -0.5l0.140625 -0.8125q1.28125 0.671875 2.46875 0.671875q2.109375 0 2.1875 -1.5625q0 -0.65625 -0.421875 -1.03125q-0.421875 -0.375 -1.703125 -0.78125q-0.671875 -0.234375 -0.75 -0.265625q-2.0 -0.609375 -2.015625 -2.15625q0 -0.90625 0.78125 -1.59375q0.796875 -0.6875 2.140625 -0.6875q1.359375 0 2.546875 0.53125l-0.328125 0.71875q-1.203125 -0.453125 -2.234375 -0.453125q-0.90625 0 -1.421875 0.40625q-0.515625 0.40625 -0.515625 1.09375q0 0.578125 0.328125 0.890625q0.34375 0.296875 1.359375 0.578125q0.109375 0.03125 0.390625 0.140625q0.296875 0.109375 0.328125 0.125q1.359375 0.40625 1.890625 0.984375q0.53125 0.5625 0.53125 1.53125q-0.015625 1.125 -0.84375 1.75q-0.8125 0.625 -2.15625 0.625zm7.28125 -0.015625q-1.078125 0 -1.578125 -0.484375q-0.5 -0.5 -0.5 -1.609375l0 -5.953125l-1.203125 0l0.0625 -0.578125l1.15625 -0.109375l0.265625 -1.96875l0.671875 -0.046875l0 2.0l2.5 0l0 0.703125l-2.5 0l0 5.75q0 0.90625 0.296875 1.21875q0.296875 0.3125 1.046875 0.3125q0.484375 0 1.203125 -0.1875l0.046875 0.75q-0.953125 0.203125 -1.46875 0.203125zm2.96875 -0.1875l0 -8.5625l0.984375 0l0 8.5625l-0.984375 0zm0 -10.3125l0 -1.3125l0.96875 0l0 1.3125l-0.96875 0zm6.9296875 9.71875q0.9375 0 1.578125 -0.484375q0.640625 -0.5 0.9375 -1.3125q0.296875 -0.8125 0.296875 -1.875q0 -1.65625 -0.703125 -2.65625q-0.703125 -1.015625 -2.140625 -1.015625q-0.9375 0 -1.609375 0.515625q-0.65625 0.5 -0.96875 1.3125q-0.296875 0.8125 -0.296875 1.875q0 1.59375 0.75 2.625q0.75 1.015625 2.15625 1.015625zm-0.078125 0.78125q-1.15625 0 -2.046875 -0.578125q-0.890625 -0.59375 -1.359375 -1.59375q-0.453125 -1.015625 -0.453125 -2.28125q0 -0.953125 0.265625 -1.765625q0.265625 -0.8125 0.765625 -1.40625q0.5 -0.609375 1.234375 -0.9375q0.75 -0.34375 1.65625 -0.34375q1.203125 0 2.078125 0.59375q0.890625 0.578125 1.328125 1.578125q0.453125 1.0 0.453125 2.265625q0 1.28125 -0.453125 2.28125q-0.453125 1.0 -1.359375 1.59375q-0.890625 0.59375 -2.109375 0.59375zm5.828125 -0.1875l0 -8.5625l0.84375 0l0.125 1.3125q0.46875 -0.6875 1.234375 -1.078125q0.78125 -0.390625 1.6875 -0.390625q1.46875 0 2.15625 0.8125q0.703125 0.8125 0.703125 2.59375l0 5.3125l-0.96875 0l0 -5.75q-0.046875 -1.140625 -0.5 -1.640625q-0.4375 -0.5 -1.453125 -0.5q-1.15625 0 -1.90625 0.59375q-0.734375 0.578125 -0.921875 1.5q-0.03125 0.375 -0.03125 0.765625l0 5.03125l-0.96875 0z" fill-rule="nonzero"/><path fill="#000000" d="m226.31578 179.20348q-0.828125 0 -1.5625 -0.203125q-0.71875 -0.21875 -1.140625 -0.5l0.140625 -0.8125q1.28125 0.671875 2.46875 0.671875q2.109375 0 2.1875 -1.5625q0 -0.65625 -0.421875 -1.03125q-0.421875 -0.375 -1.703125 -0.78125q-0.671875 -0.234375 -0.75 -0.265625q-2.0 -0.609375 -2.015625 -2.15625q0 -0.90625 0.78125 -1.59375q0.796875 -0.6875 2.140625 -0.6875q1.359375 0 2.546875 0.53125l-0.328125 0.71875q-1.203125 -0.453125 -2.234375 -0.453125q-0.90625 0 -1.421875 0.40625q-0.515625 0.40625 -0.515625 1.09375q0 0.578125 0.328125 0.890625q0.34375 0.296875 1.359375 0.578125q0.109375 0.03125 0.390625 0.140625q0.296875 0.109375 0.328125 0.125q1.359375 0.40625 1.890625 0.984375q0.53125 0.5625 0.53125 1.53125q-0.015625 1.125 -0.84375 1.75q-0.8125 0.625 -2.15625 0.625zm8.4375 -0.015625q-1.234375 0 -2.15625 -0.609375q-0.90625 -0.609375 -1.359375 -1.59375q-0.4375 -0.984375 -0.4375 -2.1875q0 -0.921875 0.265625 -1.734375q0.265625 -0.8125 0.75 -1.4375q0.484375 -0.625 1.25 -0.984375q0.78125 -0.359375 1.71875 -0.359375q0.625 0 1.234375 0.171875q0.609375 0.15625 0.90625 0.375l-0.296875 0.734375q-0.8125 -0.453125 -1.90625 -0.453125q-1.34375 0 -2.125 1.015625q-0.78125 1.0 -0.78125 2.671875q0 1.609375 0.78125 2.59375q0.78125 0.984375 2.125 0.984375q0.9375 0 2.015625 -0.46875l0.140625 0.703125q-0.359375 0.265625 -0.953125 0.421875q-0.578125 0.15625 -1.171875 0.15625zm3.9921875 -0.1875q-0.015625 -7.546875 -0.015625 -8.5625l0.796875 0l0.0625 1.6875q0.453125 -0.765625 1.15625 -1.25q0.71875 -0.484375 1.5 -0.484375q0.3125 0 0.6875 0.046875l-0.078125 0.8125q-0.28125 -0.046875 -0.59375 -0.046875q-1.078125 0 -1.828125 0.859375q-0.734375 0.84375 -0.734375 2.015625l0 4.921875l-0.953125 0zm5.6640625 0l0 -8.5625l0.984375 0l0 8.5625l-0.984375 0zm0 -10.3125l0 -1.3125l0.96875 0l0 1.3125l-0.96875 0zm3.3828125 14.125l0 -12.375l0.859375 0l0.09375 1.21875q0.59375 -0.6875 1.21875 -1.03125q0.625 -0.34375 1.453125 -0.34375q1.828125 0 2.734375 1.21875q0.90625 1.203125 0.90625 3.3125q0 1.921875 -0.96875 3.15625q-0.953125 1.21875 -2.59375 1.21875q-0.84375 0 -1.59375 -0.390625q-0.75 -0.40625 -1.1875 -1.0625q0.046875 0.96875 0.046875 1.90625l0 3.109375l-0.96875 0.0625zm3.640625 -4.421875q0.671875 0 1.1875 -0.3125q0.515625 -0.328125 0.8125 -0.859375q0.3125 -0.53125 0.453125 -1.15625q0.15625 -0.640625 0.15625 -1.3125q0 -0.6875 -0.15625 -1.3125q-0.140625 -0.625 -0.4375 -1.15625q-0.296875 -0.546875 -0.828125 -0.859375q-0.515625 -0.328125 -1.1875 -0.328125q-0.734375 0 -1.265625 0.265625q-0.515625 0.265625 -0.828125 0.75q-0.3125 0.484375 -0.453125 1.109375q-0.140625 0.609375 -0.140625 1.375q0 0.890625 0.125 1.5625q0.140625 0.65625 0.4375 1.1875q0.3125 0.515625 0.84375 0.78125q0.53125 0.265625 1.28125 0.265625zm7.9452972 0.796875q-1.078125 0 -1.578125 -0.484375q-0.5 -0.5 -0.5 -1.609375l0 -5.953125l-1.203125 0l0.0625 -0.578125l1.15625 -0.109375l0.265625 -1.96875l0.671875 -0.046875l0 2.0l2.5 0l0 0.703125l-2.5 0l0 5.75q0 0.90625 0.296875 1.21875q0.296875 0.3125 1.046875 0.3125q0.484375 0 1.203125 -0.1875l0.046875 0.75q-0.953125 0.203125 -1.46875 0.203125z" fill-rule="nonzero"/><path fill="#ffe599" d="m8.264103 146.77963l0 0c0 -4.6560974 3.7745152 -8.430618 8.430614 -8.430618l134.8868 0c2.2359467 0 4.38031 0.88822937 5.9613495 2.4692688c1.5810547 1.5810547 2.4692688 3.725418 2.4692688 5.9613495l0 33.72145c0 4.6560974 -3.7745056 8.430618 -8.430618 8.430618l-134.8868 0c-4.6560993 0 -8.430614 -3.7745209 -8.430614 -8.430618z" fill-rule="evenodd"/><path stroke="#ff9900" stroke-width="2.0" stroke-linejoin="round" stroke-linecap="butt" d="m8.264103 146.77963l0 0c0 -4.6560974 3.7745152 -8.430618 8.430614 -8.430618l134.8868 0c2.2359467 0 4.38031 0.88822937 5.9613495 2.4692688c1.5810547 1.5810547 2.4692688 3.725418 2.4692688 5.9613495l0 33.72145c0 4.6560974 -3.7745056 8.430618 -8.430618 8.430618l-134.8868 0c-4.6560993 0 -8.430614 -3.7745209 -8.430614 -8.430618z" fill-rule="evenodd"/><path fill="#000000" d="m29.579521 160.18785q-1.46875 0 -2.609375 -0.3125q-1.125 -0.328125 -1.75 -0.703125l0.375 -0.703125q1.640625 0.890625 4.078125 0.890625q1.328125 0 2.046875 -0.6875q0.734375 -0.703125 0.734375 -1.96875q0 -0.46875 -0.09375 -0.78125q-0.078125 -0.328125 -0.3125 -0.625q-0.234375 -0.296875 -0.6875 -0.484375q-0.453125 -0.203125 -1.140625 -0.34375l-1.875 -0.375q-1.578125 -0.3125 -2.359375 -0.984375q-0.78125 -0.671875 -0.78125 -1.921875q0 -0.796875 0.3125 -1.390625q0.3125 -0.59375 0.890625 -0.9375q0.59375 -0.359375 1.375 -0.515625q0.78125 -0.171875 1.765625 -0.171875q0.984375 0 1.921875 0.25q0.953125 0.234375 1.546875 0.53125l-0.25 0.765625q-0.46875 -0.25 -1.375 -0.484375q-0.890625 -0.234375 -1.859375 -0.234375q-1.65625 0 -2.484375 0.5625q-0.828125 0.546875 -0.828125 1.734375q0 0.734375 0.515625 1.1875q0.53125 0.453125 1.5625 0.671875l2.09375 0.421875q0.78125 0.171875 1.3125 0.40625q0.546875 0.21875 0.96875 0.578125q0.421875 0.359375 0.625 0.890625q0.203125 0.53125 0.203125 1.265625q0 1.640625 -1.078125 2.5625q-1.078125 0.90625 -2.84375 0.90625zm10.9609375 0q-1.34375 0 -2.390625 -0.453125q-1.046875 -0.46875 -1.703125 -1.28125q-0.65625 -0.8125 -1.0 -1.90625q-0.34375 -1.09375 -0.34375 -2.40625q0 -1.734375 0.640625 -3.0625q0.640625 -1.34375 1.90625 -2.125q1.265625 -0.78125 2.984375 -0.78125q1.90625 0 3.234375 0.796875l-0.46875 0.765625q-1.21875 -0.734375 -2.75 -0.734375q-1.078125 0 -1.9375 0.40625q-0.84375 0.40625 -1.390625 1.125q-0.53125 0.703125 -0.828125 1.640625q-0.28125 0.9375 -0.28125 2.03125q0 1.0625 0.265625 1.984375q0.265625 0.90625 0.78125 1.625q0.53125 0.703125 1.40625 1.125q0.875 0.40625 2.015625 0.40625q1.234375 0 2.734375 -0.6875l0.203125 0.8125q-1.140625 0.71875 -3.078125 0.71875zm3.734375 -0.1875l4.546875 -11.625l0.953125 0l4.375 11.625l-1.03125 0l-1.484375 -3.953125l-4.8125 0l-1.546875 3.953125l-1.0 0zm2.921875 -4.6875l4.078125 0q-1.75 -5.046875 -1.984375 -5.9375q-0.09375 0.34375 -0.625 1.828125q-0.515625 1.484375 -1.0 2.796875l-0.46875 1.3125zm9.421875 3.84375l2.28125 0q2.421875 0 3.6875 -1.234375q1.28125 -1.234375 1.28125 -3.6875q0 -1.34375 -0.359375 -2.3125q-0.359375 -0.984375 -1.046875 -1.578125q-0.6875 -0.59375 -1.625 -0.859375q-0.9375 -0.28125 -2.15625 -0.28125l-2.0625 0l0 9.953125zm-1.0 0.84375l0 -11.625l3.15625 0q1.421875 0 2.53125 0.34375q1.125 0.328125 1.953125 1.015625q0.828125 0.6875 1.265625 1.828125q0.453125 1.125 0.453125 2.625q0 2.859375 -1.578125 4.34375q-1.5625 1.46875 -4.390625 1.46875l-3.390625 0zm10.0703125 0l4.546875 -11.625l0.953125 0l4.375 11.625l-1.03125 0l-1.484375 -3.953125l-4.8125 0l-1.546875 3.953125l-1.0 0zm2.921875 -4.6875l4.078125 0q-1.75 -5.046875 -1.984375 -5.9375q-0.09375 0.34375 -0.625 1.828125q-0.515625 1.484375 -1.0 2.796875l-0.46875 1.3125zm11.8671875 4.6875l0 -8.5625l0.984375 0l0 8.5625l-0.984375 0zm0 -10.3125l0 -1.3125l0.96875 0l0 1.3125l-0.96875 0zm3.3828125 10.3125l0 -8.5625l0.84375 0l0.125 1.3125q0.46875 -0.6875 1.234375 -1.078125q0.78125 -0.390625 1.6875 -0.390625q1.46875 0 2.15625 0.8125q0.703125 0.8125 0.703125 2.59375l0 5.3125l-0.96875 0l0 -5.75q-0.046875 -1.140625 -0.5 -1.640625q-0.4375 -0.5 -1.453125 -0.5q-1.15625 0 -1.90625 0.59375q-0.734375 0.578125 -0.921875 1.5q-0.03125 0.375 -0.03125 0.765625l0 5.03125l-0.96875 0zm10.3125 3.984375l-0.109375 -0.875l1.8125 0q0.59375 0 1.046875 -0.109375q0.46875 -0.09375 0.78125 -0.265625q0.328125 -0.171875 0.546875 -0.46875q0.21875 -0.296875 0.34375 -0.59375q0.125 -0.296875 0.1875 -0.78125q0.078125 -0.46875 0.09375 -0.875q0.015625 -0.390625 0.015625 -0.984375q0 0.078125 -0.015625 -0.046875q-0.046875 -0.53125 -0.046875 -0.53125q-0.484375 0.734375 -1.15625 1.140625q-0.671875 0.40625 -1.640625 0.40625q-0.765625 0 -1.40625 -0.265625q-0.625 -0.28125 -1.03125 -0.71875q-0.390625 -0.4375 -0.671875 -1.0q-0.265625 -0.5625 -0.390625 -1.125q-0.109375 -0.5625 -0.109375 -1.109375q0 -0.6875 0.109375 -1.296875q0.109375 -0.625 0.390625 -1.21875q0.28125 -0.59375 0.703125 -1.03125q0.421875 -0.4375 1.078125 -0.6875q0.671875 -0.265625 1.515625 -0.265625q0.8125 0 1.4375 0.328125q0.640625 0.3125 1.171875 1.03125l0.09375 -1.203125l0.859375 0l0 7.9375q0 0.515625 -0.015625 0.828125q0 0.328125 -0.09375 0.859375q-0.078125 0.546875 -0.21875 0.890625q-0.140625 0.359375 -0.4375 0.78125q-0.296875 0.421875 -0.71875 0.65625q-0.421875 0.25 -1.078125 0.421875q-0.640625 0.171875 -1.46875 0.171875l-1.578125 0zm1.984375 -4.78125q0.5625 0 1.015625 -0.171875q0.46875 -0.1875 0.765625 -0.484375q0.3125 -0.3125 0.515625 -0.71875q0.203125 -0.40625 0.28125 -0.828125q0.09375 -0.4375 0.09375 -0.90625l0 -0.890625q0 -0.609375 -0.15625 -1.140625q-0.140625 -0.546875 -0.453125 -1.0q-0.296875 -0.453125 -0.84375 -0.71875q-0.53125 -0.265625 -1.25 -0.265625q-0.578125 0 -1.046875 0.21875q-0.453125 0.21875 -0.75 0.59375q-0.296875 0.359375 -0.5 0.859375q-0.203125 0.484375 -0.296875 1.0q-0.078125 0.515625 -0.078125 1.046875q0 0.484375 0.078125 0.9375q0.078125 0.4375 0.265625 0.90625q0.1875 0.453125 0.484375 0.796875q0.296875 0.34375 0.78125 0.5625q0.484375 0.203125 1.09375 0.203125zm9.3359375 0.984375q-1.78125 0 -2.828125 -1.1875q-1.03125 -1.1875 -1.03125 -3.21875q0 -1.96875 1.015625 -3.21875q1.015625 -1.25 2.640625 -1.28125q1.5 0 2.40625 1.078125q0.921875 1.078125 0.921875 2.890625q0 0.0625 0 0.28125q0 0.21875 0 0.296875l-5.96875 0q0.015625 1.65625 0.796875 2.625q0.78125 0.953125 2.0625 0.953125q0.84375 0 1.453125 -0.1875q0.625 -0.203125 1.296875 -0.5625l0.15625 0.734375q-1.296875 0.796875 -2.921875 0.796875zm-2.796875 -5.140625l4.875 0q0 -1.421875 -0.625 -2.1875q-0.609375 -0.765625 -1.6875 -0.765625q-1.09375 0 -1.765625 0.8125q-0.671875 0.8125 -0.796875 2.140625zm10.3671875 5.15625q-0.828125 0 -1.5625 -0.203125q-0.71875 -0.21875 -1.140625 -0.5l0.140625 -0.8125q1.28125 0.671875 2.46875 0.671875q2.109375 0 2.1875 -1.5625q0 -0.65625 -0.421875 -1.03125q-0.421875 -0.375 -1.703125 -0.78125q-0.671875 -0.234375 -0.75 -0.265625q-2.0 -0.609375 -2.015625 -2.15625q0 -0.90625 0.78125 -1.59375q0.796875 -0.6875 2.140625 -0.6875q1.359375 0 2.546875 0.53125l-0.328125 0.71875q-1.203125 -0.453125 -2.234375 -0.453125q-0.90625 0 -1.421875 0.40625q-0.515625 0.40625 -0.515625 1.09375q0 0.578125 0.328125 0.890625q0.34375 0.296875 1.359375 0.578125q0.109375 0.03125 0.390625 0.140625q0.296875 0.109375 0.328125 0.125q1.359375 0.40625 1.890625 0.984375q0.53125 0.5625 0.53125 1.53125q-0.015625 1.125 -0.84375 1.75q-0.8125 0.625 -2.15625 0.625zm7.28125 -0.015625q-1.078125 0 -1.578125 -0.484375q-0.5 -0.5 -0.5 -1.609375l0 -5.953125l-1.203125 0l0.0625 -0.578125l1.15625 -0.109375l0.265625 -1.96875l0.671875 -0.046875l0 2.0l2.5 0l0 0.703125l-2.5 0l0 5.75q0 0.90625 0.296875 1.21875q0.296875 0.3125 1.046875 0.3125q0.484375 0 1.203125 -0.1875l0.046875 0.75q-0.953125 0.203125 -1.46875 0.203125zm2.96875 -0.1875l0 -8.5625l0.984375 0l0 8.5625l-0.984375 0zm0 -10.3125l0 -1.3125l0.96875 0l0 1.3125l-0.96875 0zm6.929695 9.71875q0.9375 0 1.578125 -0.484375q0.640625 -0.5 0.9375 -1.3125q0.296875 -0.8125 0.296875 -1.875q0 -1.65625 -0.703125 -2.65625q-0.703125 -1.015625 -2.140625 -1.015625q-0.9375 0 -1.609375 0.515625q-0.6562576 0.5 -0.9687576 1.3125q-0.296875 0.8125 -0.296875 1.875q0 1.59375 0.7500076 2.625q0.75 1.015625 2.15625 1.015625zm-0.078125 0.78125q-1.15625 0 -2.046875 -0.578125q-0.8906326 -0.59375 -1.3593826 -1.59375q-0.453125 -1.015625 -0.453125 -2.28125q0 -0.953125 0.265625 -1.765625q0.265625 -0.8125 0.765625 -1.40625q0.5 -0.609375 1.2343826 -0.9375q0.75 -0.34375 1.65625 -0.34375q1.203125 0 2.078125 0.59375q0.890625 0.578125 1.328125 1.578125q0.453125 1.0 0.453125 2.265625q0 1.28125 -0.453125 2.28125q-0.453125 1.0 -1.359375 1.59375q-0.890625 0.59375 -2.109375 0.59375zm5.828125 -0.1875l0 -8.5625l0.84375 0l0.125 1.3125q0.46875 -0.6875 1.234375 -1.078125q0.78125 -0.390625 1.6875 -0.390625q1.46875 0 2.15625 0.8125q0.703125 0.8125 0.703125 2.59375l0 5.3125l-0.96875 0l0 -5.75q-0.046875 -1.140625 -0.5 -1.640625q-0.4375 -0.5 -1.453125 -0.5q-1.15625 0 -1.90625 0.59375q-0.734375 0.578125 -0.921875 1.5q-0.03125 0.375 -0.03125 0.765625l0 5.03125l-0.96875 0z" fill-rule="nonzero"/><path fill="#000000" d="m68.575615 179.20348q-0.828125 0 -1.5625 -0.203125q-0.71875 -0.21875 -1.140625 -0.5l0.140625 -0.8125q1.28125 0.671875 2.46875 0.671875q2.109375 0 2.1875 -1.5625q0 -0.65625 -0.421875 -1.03125q-0.421875 -0.375 -1.703125 -0.78125q-0.671875 -0.234375 -0.75 -0.265625q-2.0 -0.609375 -2.015625 -2.15625q0 -0.90625 0.78125 -1.59375q0.796875 -0.6875 2.140625 -0.6875q1.359375 0 2.546875 0.53125l-0.328125 0.71875q-1.203125 -0.453125 -2.234375 -0.453125q-0.90625 0 -1.421875 0.40625q-0.515625 0.40625 -0.515625 1.09375q0 0.578125 0.328125 0.890625q0.34375 0.296875 1.359375 0.578125q0.109375 0.03125 0.390625 0.140625q0.296875 0.109375 0.328125 0.125q1.359375 0.40625 1.890625 0.984375q0.53125 0.5625 0.53125 1.53125q-0.015625 1.125 -0.84375 1.75q-0.8125 0.625 -2.15625 0.625zm8.4375 -0.015625q-1.234375 0 -2.15625 -0.609375q-0.90625 -0.609375 -1.359375 -1.59375q-0.4375 -0.984375 -0.4375 -2.1875q0 -0.921875 0.265625 -1.734375q0.265625 -0.8125 0.75 -1.4375q0.484375 -0.625 1.25 -0.984375q0.78125 -0.359375 1.71875 -0.359375q0.625 0 1.234375 0.171875q0.609375 0.15625 0.90625 0.375l-0.296875 0.734375q-0.8125 -0.453125 -1.90625 -0.453125q-1.34375 0 -2.125 1.015625q-0.78125 1.0 -0.78125 2.671875q0 1.609375 0.78125 2.59375q0.78125 0.984375 2.125 0.984375q0.9375 0 2.015625 -0.46875l0.140625 0.703125q-0.359375 0.265625 -0.953125 0.421875q-0.578125 0.15625 -1.171875 0.15625zm3.9921875 -0.1875q-0.015625 -7.546875 -0.015625 -8.5625l0.796875 0l0.0625 1.6875q0.453125 -0.765625 1.15625 -1.25q0.71875 -0.484375 1.5 -0.484375q0.3125 0 0.6875 0.046875l-0.078125 0.8125q-0.28125 -0.046875 -0.59375 -0.046875q-1.078125 0 -1.828125 0.859375q-0.734375 0.84375 -0.734375 2.015625l0 4.921875l-0.953125 0zm5.6640625 0l0 -8.5625l0.984375 0l0 8.5625l-0.984375 0zm0 -10.3125l0 -1.3125l0.96875 0l0 1.3125l-0.96875 0zm3.3828125 14.125l0 -12.375l0.859375 0l0.09375 1.21875q0.59375 -0.6875 1.21875 -1.03125q0.625 -0.34375 1.453125 -0.34375q1.828125 0 2.734375 1.21875q0.90625 1.203125 0.90625 3.3125q0 1.921875 -0.96875 3.15625q-0.953125 1.21875 -2.59375 1.21875q-0.84375 0 -1.59375 -0.390625q-0.75 -0.40625 -1.1875 -1.0625q0.046875 0.96875 0.046875 1.90625l0 3.109375l-0.96875 0.0625zm3.640625 -4.421875q0.671875 0 1.1875 -0.3125q0.515625 -0.328125 0.8125 -0.859375q0.3125 -0.53125 0.453125 -1.15625q0.15625 -0.640625 0.15625 -1.3125q0 -0.6875 -0.15625 -1.3125q-0.140625 -0.625 -0.4375 -1.15625q-0.296875 -0.546875 -0.828125 -0.859375q-0.515625 -0.328125 -1.1875 -0.328125q-0.734375 0 -1.265625 0.265625q-0.515625 0.265625 -0.828125 0.75q-0.3125 0.484375 -0.453125 1.109375q-0.140625 0.609375 -0.140625 1.375q0 0.890625 0.125 1.5625q0.140625 0.65625 0.4375 1.1875q0.3125 0.515625 0.84375 0.78125q0.53125 0.265625 1.28125 0.265625zm7.9453125 0.796875q-1.078125 0 -1.578125 -0.484375q-0.5 -0.5 -0.5 -1.609375l0 -5.953125l-1.203125 0l0.0625 -0.578125l1.15625 -0.109375l0.265625 -1.96875l0.671875 -0.046875l0 2.0l2.5 0l0 0.703125l-2.5 0l0 5.75q0 0.90625 0.296875 1.21875q0.296875 0.3125 1.046875 0.3125q0.484375 0 1.203125 -0.1875l0.046875 0.75q-0.953125 0.203125 -1.46875 0.203125z" fill-rule="nonzero"/><path fill="#000000" fill-opacity="0.0" d="m84.138115 83.356895l0 54.99212" fill-rule="evenodd"/><path stroke="#000000" stroke-width="1.0" stroke-linejoin="round" stroke-linecap="butt" d="m84.138115 83.356895l0 48.99212" fill-rule="evenodd"/><path fill="#000000" stroke="#000000" stroke-width="1.0" stroke-linecap="butt" d="m82.48639 132.34901l1.6517258 4.538101l1.6517334 -4.538101z" fill-rule="evenodd"/><path fill="#000000" fill-opacity="0.0" d="m84.138115 188.9317l0 27.826767l0.28347015 0l0 27.826767" fill-rule="evenodd"/><path stroke="#000000" stroke-width="1.0" stroke-linejoin="round" stroke-linecap="butt" d="m84.138115 188.9317l0 27.826767l0.28347015 0l0 21.826767" fill-rule="evenodd"/><path fill="#000000" stroke="#000000" stroke-width="1.0" stroke-linecap="butt" d="m82.76985 238.58524l1.6517334 4.538101l1.6517334 -4.538101z" fill-rule="evenodd"/><path fill="#000000" fill-opacity="0.0" d="m241.87828 83.38839l0 54.960625" fill-rule="evenodd"/><path stroke="#000000" stroke-width="1.0" stroke-linejoin="round" stroke-linecap="butt" d="m241.87828 83.38839l0 48.960625" fill-rule="evenodd"/><path fill="#000000" stroke="#000000" stroke-width="1.0" stroke-linecap="butt" d="m240.22655 132.34901l1.6517334 4.538101l1.6517334 -4.538101z" fill-rule="evenodd"/><path fill="#000000" fill-opacity="0.0" d="m241.87828 188.9317l0 27.826767l0.3464508 0l0 27.826767" fill-rule="evenodd"/><path stroke="#000000" stroke-width="1.0" stroke-linejoin="round" stroke-linecap="butt" d="m241.87828 188.9317l0 27.826767l0.3464508 0l0 21.826767" fill-rule="evenodd"/><path fill="#000000" stroke="#000000" stroke-width="1.0" stroke-linecap="butt" d="m240.573 238.58524l1.6517334 4.538101l1.6517334 -4.538101z" fill-rule="evenodd"/><path fill="#cfe2f3" d="m43.802307 19.870079l0 0c0 4.9379463 18.190636 8.940945 40.62992 8.940945c22.439285 0 40.62992 -4.0029984 40.62992 -8.940945l0 53.645668c0 4.93795 -18.190636 8.9409485 -40.62992 8.9409485c-22.439285 0 -40.62992 -4.0029984 -40.62992 -8.9409485z" fill-rule="evenodd"/><path fill="#e2edf7" d="m43.802307 19.870079l0 0c0 -4.937948 18.190636 -8.940946 40.62992 -8.940946c22.439285 0 40.62992 4.0029974 40.62992 8.940946l0 0c0 4.9379463 -18.190636 8.940945 -40.62992 8.940945c-22.439285 0 -40.62992 -4.0029984 -40.62992 -8.940945z" fill-rule="evenodd"/><path fill="#000000" fill-opacity="0.0" d="m125.06215 19.870079l0 0c0 4.9379463 -18.190636 8.940945 -40.62992 8.940945c-22.439285 0 -40.62992 -4.0029984 -40.62992 -8.940945l0 0c0 -4.937948 18.190636 -8.940946 40.62992 -8.940946c22.439285 0 40.62992 4.0029974 40.62992 8.940946l0 53.645668c0 4.93795 -18.190636 8.9409485 -40.62992 8.9409485c-22.439285 0 -40.62992 -4.0029984 -40.62992 -8.9409485l0 -53.645668" fill-rule="evenodd"/><path stroke="#000000" stroke-width="1.0" stroke-linejoin="round" stroke-linecap="butt" d="m125.06215 19.870079l0 0c0 4.9379463 -18.190636 8.940945 -40.62992 8.940945c-22.439285 0 -40.62992 -4.0029984 -40.62992 -8.940945l0 0c0 -4.937948 18.190636 -8.940946 40.62992 -8.940946c22.439285 0 40.62992 4.0029974 40.62992 8.940946l0 53.645668c0 4.93795 -18.190636 8.9409485 -40.62992 8.9409485c-22.439285 0 -40.62992 -4.0029984 -40.62992 -8.9409485l0 -53.645668" fill-rule="evenodd"/><path fill="#000000" d="m73.612625 47.963383l0 -9.546875l3.28125 0q1.109375 0 1.703125 0.140625q0.8125 0.1875 1.390625 0.6875q0.765625 0.640625 1.140625 1.640625q0.375 0.984375 0.375 2.25q0 1.09375 -0.265625 1.9375q-0.25 0.828125 -0.65625 1.390625q-0.390625 0.546875 -0.859375 0.859375q-0.46875 0.3125 -1.140625 0.484375q-0.65625 0.15625 -1.53125 0.15625l-3.4375 0zm1.265625 -1.125l2.03125 0q0.9375 0 1.46875 -0.171875q0.546875 -0.1875 0.875 -0.5q0.4375 -0.453125 0.6875 -1.203125q0.25 -0.765625 0.25 -1.84375q0 -1.5 -0.5 -2.296875q-0.484375 -0.8125 -1.1875 -1.078125q-0.5 -0.203125 -1.625 -0.203125l-2.0 0l0 7.296875zm12.718903 0.265625q-0.65625 0.5625 -1.265625 0.796875q-0.59375 0.21875 -1.28125 0.21875q-1.140625 0 -1.75 -0.546875q-0.609375 -0.5625 -0.609375 -1.4375q0 -0.5 0.21875 -0.921875q0.234375 -0.421875 0.609375 -0.671875q0.375 -0.25 0.84375 -0.390625q0.34375 -0.078125 1.046875 -0.171875q1.421875 -0.171875 2.09375 -0.40625q0 -0.234375 0 -0.296875q0 -0.71875 -0.328125 -1.015625q-0.453125 -0.390625 -1.34375 -0.390625q-0.8125 0 -1.21875 0.296875q-0.390625 0.28125 -0.578125 1.015625l-1.140625 -0.15625q0.15625 -0.734375 0.515625 -1.1875q0.359375 -0.453125 1.03125 -0.6875q0.671875 -0.25 1.5625 -0.25q0.890625 0 1.4375 0.203125q0.5625 0.203125 0.8125 0.53125q0.265625 0.3125 0.375 0.796875q0.046875 0.296875 0.046875 1.078125l0 1.5625q0 1.625 0.078125 2.0625q0.078125 0.4375 0.296875 0.828125l-1.21875 0q-0.1875 -0.359375 -0.234375 -0.859375zm-0.09375 -2.609375q-0.640625 0.265625 -1.921875 0.4375q-0.71875 0.109375 -1.015625 0.25q-0.296875 0.125 -0.46875 0.375q-0.15625 0.25 -0.15625 0.546875q0 0.46875 0.34375 0.78125q0.359375 0.3125 1.046875 0.3125q0.671875 0 1.203125 -0.296875q0.53125 -0.296875 0.78125 -0.8125q0.1875 -0.390625 0.1875 -1.171875l0 -0.421875zm5.5531006 2.421875l0.171875 1.03125q-0.5 0.109375 -0.890625 0.109375q-0.640625 0 -1.0 -0.203125q-0.34375 -0.203125 -0.484375 -0.53125q-0.140625 -0.328125 -0.140625 -1.390625l0 -3.96875l-0.859375 0l0 -0.90625l0.859375 0l0 -1.71875l1.171875 -0.703125l0 2.421875l1.171875 0l0 0.90625l-1.171875 0l0 4.046875q0 0.5 0.046875 0.640625q0.0625 0.140625 0.203125 0.234375q0.140625 0.078125 0.40625 0.078125q0.203125 0 0.515625 -0.046875zm1.1561127 -7.140625l0 -1.359375l1.171875 0l0 1.359375l-1.171875 0zm0 8.1875l0 -6.90625l1.171875 0l0 6.90625l-1.171875 0z" fill-rule="nonzero"/><path fill="#000000" d="m62.066193 60.900883l1.203125 -0.109375q0.078125 0.71875 0.390625 1.1875q0.3125 0.453125 0.953125 0.734375q0.65625 0.28125 1.46875 0.28125q0.71875 0 1.265625 -0.21875q0.5625 -0.21875 0.828125 -0.578125q0.265625 -0.375 0.265625 -0.828125q0 -0.453125 -0.265625 -0.78125q-0.25 -0.328125 -0.84375 -0.5625q-0.390625 -0.15625 -1.703125 -0.46875q-1.3125 -0.3125 -1.84375 -0.59375q-0.671875 -0.359375 -1.015625 -0.890625q-0.328125 -0.53125 -0.328125 -1.1875q0 -0.71875 0.40625 -1.34375q0.40625 -0.625 1.1875 -0.953125q0.796875 -0.328125 1.765625 -0.328125q1.046875 0 1.859375 0.34375q0.8125 0.34375 1.25 1.015625q0.4375 0.65625 0.46875 1.484375l-1.203125 0.09375q-0.109375 -0.90625 -0.671875 -1.359375q-0.5625 -0.46875 -1.65625 -0.46875q-1.140625 0 -1.671875 0.421875q-0.515625 0.421875 -0.515625 1.015625q0 0.515625 0.359375 0.84375q0.375 0.328125 1.90625 0.6875q1.546875 0.34375 2.109375 0.59375q0.84375 0.390625 1.234375 0.984375q0.390625 0.578125 0.390625 1.359375q0 0.75 -0.4375 1.4375q-0.421875 0.671875 -1.25 1.046875q-0.8125 0.3593712 -1.828125 0.3593712q-1.296875 0 -2.171875 -0.3749962q-0.875 -0.375 -1.375 -1.125q-0.5 -0.765625 -0.53125 -1.71875zm16.12413 -0.28125l1.265625 0.3125q-0.390625 1.5625 -1.421875 2.375q-1.03125 0.8124962 -2.53125 0.8124962q-1.53125 0 -2.5 -0.6249962q-0.96875 -0.625 -1.484375 -1.8125q-0.5 -1.1875 -0.5 -2.5625q0 -1.484375 0.5625 -2.59375q0.578125 -1.109375 1.625 -1.6875q1.0625 -0.578125 2.328125 -0.578125q1.421875 0 2.390625 0.734375q0.984375 0.71875 1.375 2.046875l-1.25 0.296875q-0.328125 -1.046875 -0.96875 -1.515625q-0.625 -0.484375 -1.578125 -0.484375q-1.09375 0 -1.84375 0.53125q-0.734375 0.53125 -1.03125 1.421875q-0.296875 0.875 -0.296875 1.828125q0 1.21875 0.34375 2.125q0.359375 0.90625 1.109375 1.359375q0.75 0.4375 1.625 0.4375q1.0625 0 1.796875 -0.609375q0.734375 -0.609375 0.984375 -1.8125zm1.7814026 3.34375l3.65625 -9.546875l1.359375 0l3.90625 9.546875l-1.4375 0l-1.109375 -2.890625l-3.984375 0l-1.046875 2.890625l-1.34375 0zm2.75 -3.921875l3.234375 0l-1.0 -2.640625q-0.453125 -1.203125 -0.671875 -1.96875q-0.1875 0.90625 -0.515625 1.8125l-1.046875 2.796875zm7.1866302 3.921875l0 -9.546875l3.28125 0q1.109375 0 1.703125 0.140625q0.8125 0.1875 1.390625 0.6875q0.765625 0.640625 1.140625 1.640625q0.375 0.984375 0.375 2.25q0 1.09375 -0.265625 1.9375q-0.25 0.828125 -0.65625 1.390625q-0.390625 0.546875 -0.859375 0.859375q-0.46875 0.3125 -1.140625 0.484375q-0.65625 0.15625 -1.53125 0.15625l-3.4375 0zm1.265625 -1.125l2.03125 0q0.9375 0 1.46875 -0.171875q0.546875 -0.1875 0.875 -0.5q0.4375 -0.453125 0.6875 -1.203125q0.25 -0.765625 0.25 -1.84375q0 -1.5 -0.5 -2.296875q-0.484375 -0.8125 -1.1875 -1.078125q-0.5 -0.203125 -1.625 -0.203125l-2.0 0l0 7.296875zm7.3126526 1.125l3.65625 -9.546875l1.359375 0l3.90625 9.546875l-1.4375 0l-1.109375 -2.890625l-3.984375 0l-1.046875 2.890625l-1.34375 0zm2.75 -3.921875l3.234375 0l-1.0 -2.640625q-0.453125 -1.203125 -0.671875 -1.96875q-0.1875 0.90625 -0.515625 1.8125l-1.046875 2.796875z" fill-rule="nonzero"/><path fill="#cfe2f3" d="m193.73228 20.796587c0 4.937948 21.708908 8.940947 48.48819 8.940947c26.779282 0 48.488174 -4.0029984 48.488174 -8.940947l0 53.645676c0 4.9379425 -21.708893 8.940941 -48.488174 8.940941c-26.779282 0 -48.48819 -4.0029984 -48.48819 -8.940941z" fill-rule="evenodd"/><path fill="#e2edf7" d="m193.73228 20.796587c0 -4.9379463 21.708908 -8.940944 48.48819 -8.940944c26.779282 0 48.488174 4.0029974 48.488174 8.940944l0 0c0 4.937948 -21.708893 8.940947 -48.488174 8.940947c-26.779282 0 -48.48819 -4.0029984 -48.48819 -8.940947z" fill-rule="evenodd"/><path fill="#000000" fill-opacity="0.0" d="m290.70865 20.796587l0 0c0 4.937948 -21.708893 8.940947 -48.488174 8.940947c-26.779282 0 -48.48819 -4.0029984 -48.48819 -8.940947c0 -4.9379463 21.708908 -8.940944 48.48819 -8.940944c26.779282 0 48.488174 4.0029974 48.488174 8.940944l0 53.645676c0 4.9379425 -21.708893 8.940941 -48.488174 8.940941c-26.779282 0 -48.48819 -4.0029984 -48.48819 -8.940941l0 -53.645676" fill-rule="evenodd"/><path stroke="#000000" stroke-width="1.0" stroke-linejoin="round" stroke-linecap="butt" d="m290.70865 20.796587l0 0c0 4.937948 -21.708893 8.940947 -48.488174 8.940947c-26.779282 0 -48.48819 -4.0029984 -48.48819 -8.940947c0 -4.9379463 21.708908 -8.940944 48.48819 -8.940944c26.779282 0 48.488174 4.0029974 48.488174 8.940944l0 53.645676c0 4.9379425 -21.708893 8.940941 -48.488174 8.940941c-26.779282 0 -48.48819 -4.0029984 -48.48819 -8.940941l0 -53.645676" fill-rule="evenodd"/><path fill="#000000" d="m211.02795 56.889896l0 -9.546875l3.28125 0q1.109375 0 1.703125 0.140625q0.8125 0.1875 1.390625 0.6875q0.765625 0.640625 1.140625 1.640625q0.375 0.984375 0.375 2.25q0 1.09375 -0.265625 1.9375q-0.25 0.828125 -0.65625 1.390625q-0.390625 0.546875 -0.859375 0.859375q-0.46875 0.3125 -1.140625 0.484375q-0.65625 0.15625 -1.53125 0.15625l-3.4375 0zm1.265625 -1.125l2.03125 0q0.9375 0 1.46875 -0.171875q0.546875 -0.1875 0.875 -0.5q0.4375 -0.453125 0.6875 -1.203125q0.25 -0.765625 0.25 -1.84375q0 -1.5 -0.5 -2.296875q-0.484375 -0.8125 -1.1875 -1.078125q-0.5 -0.203125 -1.625 -0.203125l-2.0 0l0 7.296875zm12.718903 0.265625q-0.65625 0.5625 -1.265625 0.796875q-0.59375 0.21875 -1.28125 0.21875q-1.140625 0 -1.75 -0.546875q-0.609375 -0.5625 -0.609375 -1.4375q0 -0.5 0.21875 -0.921875q0.234375 -0.421875 0.609375 -0.671875q0.375 -0.25 0.84375 -0.390625q0.34375 -0.078125 1.046875 -0.171875q1.421875 -0.171875 2.09375 -0.40625q0 -0.234375 0 -0.296875q0 -0.71875 -0.328125 -1.015625q-0.453125 -0.390625 -1.34375 -0.390625q-0.8125 0 -1.21875 0.296875q-0.390625 0.28125 -0.578125 1.015625l-1.140625 -0.15625q0.15625 -0.734375 0.515625 -1.1875q0.359375 -0.453125 1.03125 -0.6875q0.671875 -0.25 1.5625 -0.25q0.890625 0 1.4375 0.203125q0.5625 0.203125 0.8125 0.53125q0.265625 0.3125 0.375 0.796875q0.046875 0.296875 0.046875 1.078125l0 1.5625q0 1.625 0.078125 2.0625q0.078125 0.4375 0.296875 0.828125l-1.21875 0q-0.1875 -0.359375 -0.234375 -0.859375zm-0.09375 -2.609375q-0.640625 0.265625 -1.921875 0.4375q-0.71875 0.109375 -1.015625 0.25q-0.296875 0.125 -0.46875 0.375q-0.15625 0.25 -0.15625 0.546875q0 0.46875 0.34375 0.78125q0.359375 0.3125 1.046875 0.3125q0.671875 0 1.203125 -0.296875q0.53125 -0.296875 0.78125 -0.8125q0.1875 -0.390625 0.1875 -1.171875l0 -0.421875zm5.5531006 2.421875l0.171875 1.03125q-0.5 0.109375 -0.890625 0.109375q-0.640625 0 -1.0 -0.203125q-0.34375 -0.203125 -0.484375 -0.53125q-0.140625 -0.328125 -0.140625 -1.390625l0 -3.96875l-0.859375 0l0 -0.90625l0.859375 0l0 -1.71875l1.171875 -0.703125l0 2.421875l1.171875 0l0 0.90625l-1.171875 0l0 4.046875q0 0.5 0.046875 0.640625q0.0625 0.140625 0.203125 0.234375q0.140625 0.078125 0.40625 0.078125q0.203125 0 0.515625 -0.046875zm1.1561127 -7.140625l0 -1.359375l1.171875 0l0 1.359375l-1.171875 0zm0 8.1875l0 -6.90625l1.171875 0l0 6.90625l-1.171875 0zm6.7578278 0l0 -9.546875l1.90625 0l2.25 6.765625q0.3125 0.9375 0.46875 1.40625q0.15625 -0.515625 0.5 -1.53125l2.28125 -6.640625l1.703125 0l0 9.546875l-1.21875 0l0 -7.984375l-2.765625 7.984375l-1.140625 0l-2.765625 -8.125l0 8.125l-1.21875 0zm15.727432 -2.21875l1.203125 0.140625q-0.28125 1.0625 -1.0625 1.65625q-0.765625 0.578125 -1.96875 0.578125q-1.515625 0 -2.40625 -0.9375q-0.890625 -0.9375 -0.890625 -2.609375q0 -1.75 0.890625 -2.703125q0.90625 -0.96875 2.34375 -0.96875q1.390625 0 2.265625 0.9375q0.875 0.9375 0.875 2.65625q0 0.109375 0 0.3125l-5.15625 0q0.0625 1.140625 0.640625 1.75q0.578125 0.59375 1.4375 0.59375q0.65625 0 1.109375 -0.328125q0.453125 -0.34375 0.71875 -1.078125zm-3.84375 -1.90625l3.859375 0q-0.078125 -0.859375 -0.4375 -1.296875q-0.5625 -0.6875 -1.453125 -0.6875q-0.8125 0 -1.359375 0.546875q-0.546875 0.53125 -0.609375 1.4375zm9.084335 3.078125l0.171875 1.03125q-0.5 0.109375 -0.890625 0.109375q-0.640625 0 -1.0 -0.203125q-0.34375 -0.203125 -0.484375 -0.53125q-0.140625 -0.328125 -0.140625 -1.390625l0 -3.96875l-0.859375 0l0 -0.90625l0.859375 0l0 -1.71875l1.171875 -0.703125l0 2.421875l1.171875 0l0 0.90625l-1.171875 0l0 4.046875q0 0.5 0.046875 0.640625q0.0625 0.140625 0.203125 0.234375q0.140625 0.078125 0.40625 0.078125q0.203125 0 0.515625 -0.046875zm5.874878 -1.171875l1.203125 0.140625q-0.28125 1.0625 -1.0625 1.65625q-0.765625 0.578125 -1.96875 0.578125q-1.515625 0 -2.40625 -0.9375q-0.890625 -0.9375 -0.890625 -2.609375q0 -1.75 0.890625 -2.703125q0.90625 -0.96875 2.34375 -0.96875q1.390625 0 2.265625 0.9375q0.875 0.9375 0.875 2.65625q0 0.109375 0 0.3125l-5.15625 0q0.0625 1.140625 0.640625 1.75q0.578125 0.59375 1.4375 0.59375q0.65625 0 1.109375 -0.328125q0.453125 -0.34375 0.71875 -1.078125zm-3.84375 -1.90625l3.859375 0q-0.078125 -0.859375 -0.4375 -1.296875q-0.5625 -0.6875 -1.453125 -0.6875q-0.8125 0 -1.359375 0.546875q-0.546875 0.53125 -0.609375 1.4375zm6.0843506 0.671875q0 -1.921875 1.078125 -2.84375q0.890625 -0.765625 2.171875 -0.765625q1.421875 0 2.328125 0.9375q0.90625 0.921875 0.90625 2.578125q0 1.328125 -0.40625 2.09375q-0.390625 0.765625 -1.15625 1.1875q-0.765625 0.421875 -1.671875 0.421875q-1.453125 0 -2.359375 -0.921875q-0.890625 -0.9375 -0.890625 -2.6875zm1.203125 0q0 1.328125 0.578125 1.984375q0.59375 0.65625 1.46875 0.65625q0.875 0 1.453125 -0.65625q0.578125 -0.671875 0.578125 -2.03125q0 -1.28125 -0.59375 -1.9375q-0.578125 -0.65625 -1.4375 -0.65625q-0.875 0 -1.46875 0.65625q-0.578125 0.65625 -0.578125 1.984375z" fill-rule="nonzero"/></g></svg>