<svg version="1.1" viewBox="0.0 0.0 452.98950131233596 282.9527559055118" fill="none" stroke="none" stroke-linecap="square" stroke-miterlimit="10" xmlns:xlink="http://www.w3.org/1999/xlink" xmlns="http://www.w3.org/2000/svg"><clipPath id="p.0"><path d="m0 0l452.9895 0l0 282.95276l-452.9895 0l0 -282.95276z" clip-rule="nonzero"/></clipPath><g clip-path="url(#p.0)"><path fill="#000000" fill-opacity="0.0" d="m0 0l452.9895 0l0 282.95276l-452.9895 0z" fill-rule="evenodd"/><path fill="#000000" fill-opacity="0.0" d="m231.06299 70.148415l0 45.51181" fill-rule="evenodd"/><path stroke="#595959" stroke-width="1.0" stroke-linejoin="round" stroke-linecap="butt" d="m231.06299 70.148415l0 39.51181" fill-rule="evenodd"/><path fill="#595959" stroke="#595959" stroke-width="1.0" stroke-linecap="butt" d="m229.41125 109.660225l1.6517334 4.538101l1.6517334 -4.538101z" fill-rule="evenodd"/><path fill="#fff2cc" d="m216.49667 50.842567l29.13385 0l0 20.125984l-29.13385 0z" fill-rule="evenodd"/><path stroke="#595959" stroke-width="1.0" stroke-linejoin="round" stroke-linecap="butt" d="m216.49667 50.842567l29.13385 0l0 20.125984l-29.13385 0z" fill-rule="evenodd"/><path fill="#fff2cc" d="m276.5738 50.842567l29.13385 0l0 20.125984l-29.13385 0z" fill-rule="evenodd"/><path stroke="#595959" stroke-width="1.0" stroke-linejoin="round" stroke-linecap="butt" d="m276.5738 50.842567l29.13385 0l0 20.125984l-29.13385 0z" fill-rule="evenodd"/><path fill="#000000" fill-opacity="0.0" d="m290.93762 70.148415l0 45.51181" fill-rule="evenodd"/><path stroke="#595959" stroke-width="1.0" stroke-linejoin="round" stroke-linecap="butt" d="m290.93762 70.148415l0 39.51181" fill-rule="evenodd"/><path fill="#595959" stroke="#595959" stroke-width="1.0" stroke-linecap="butt" d="m289.2859 109.660225l1.6517334 4.538101l1.6517334 -4.538101z" fill-rule="evenodd"/><path fill="#fff2cc" d="m216.49667 50.842567l29.13385 0l0 20.125984l-29.13385 0z" fill-rule="evenodd"/><path stroke="#595959" stroke-width="1.0" stroke-linejoin="round" stroke-linecap="butt" d="m216.49667 50.842567l29.13385 0l0 20.125984l-29.13385 0z" fill-rule="evenodd"/><path fill="#fff2cc" d="m276.5738 50.842567l29.13385 0l0 20.125984l-29.13385 0z" fill-rule="evenodd"/><path stroke="#595959" stroke-width="1.0" stroke-linejoin="round" stroke-linecap="butt" d="m276.5738 50.842567l29.13385 0l0 20.125984l-29.13385 0z" fill-rule="evenodd"/><path fill="#000000" fill-opacity="0.0" d="m214.5706 50.683205l36.62993 0l0 23.748032l-36.62993 0z" fill-rule="evenodd"/><path fill="#000000" d="m226.33623 66.29722l0 -6.734371l-2.515625 0l0 -0.890625l6.046875 0l0 0.890625l-2.53125 0l0 6.734371l-1.0 0zm4.181137 -3.7656212q0 -1.34375 0.28125 -2.171875q0.28125 -0.828125 0.828125 -1.265625q0.546875 -0.453125 1.375 -0.453125q0.625 0 1.078125 0.25q0.46875 0.234375 0.765625 0.703125q0.3125 0.46875 0.484375 1.140625q0.171875 0.671875 0.171875 1.796875q0 1.34375 -0.28125 2.1718712q-0.28125 0.828125 -0.828125 1.28125q-0.546875 0.4375 -1.390625 0.4375q-1.09375 0 -1.71875 -0.78125q-0.765625 -0.953125 -0.765625 -3.1093712zm0.96875 0q0 1.8749962 0.4375 2.4999962q0.4375 0.625 1.078125 0.625q0.65625 0 1.09375 -0.625q0.4375 -0.625 0.4375 -2.4999962q0 -1.875 -0.4375 -2.5q-0.4375 -0.625 -1.09375 -0.625q-0.640625 0 -1.03125 0.546875q-0.484375 0.703125 -0.484375 2.578125z" fill-rule="nonzero"/><path fill="#000000" fill-opacity="0.0" d="m274.81787 50.683205l36.629913 0l0 23.748032l-36.629913 0z" fill-rule="evenodd"/><path fill="#000000" d="m286.5835 66.29722l0 -6.734371l-2.515625 0l0 -0.890625l6.046875 0l0 0.890625l-2.53125 0l0 6.734371l-1.0 0zm7.712372 0l-0.9375 0l0 -5.968746q-0.34375 0.328125 -0.890625 0.65625q-0.546875 0.3125 -0.984375 0.46875l0 -0.90625q0.796875 -0.359375 1.375 -0.890625q0.59375 -0.53125 0.828125 -1.015625l0.609375 0l0 7.656246z" fill-rule="nonzero"/><path fill="#fff2cc" d="m216.16466 114.522354l29.13385 0l0 20.125992l-29.13385 0z" fill-rule="evenodd"/><path stroke="#595959" stroke-width="1.0" stroke-linejoin="round" stroke-linecap="butt" d="m216.16466 114.522354l29.13385 0l0 20.125992l-29.13385 0z" fill-rule="evenodd"/><path fill="#fff2cc" d="m276.24176 114.522354l29.13388 0l0 20.125992l-29.13388 0z" fill-rule="evenodd"/><path stroke="#595959" stroke-width="1.0" stroke-linejoin="round" stroke-linecap="butt" d="m276.24176 114.522354l29.13388 0l0 20.125992l-29.13388 0z" fill-rule="evenodd"/><path fill="#f1c232" d="m216.16466 114.522354l29.13385 0l0 20.125992l-29.13385 0z" fill-rule="evenodd"/><path stroke="#595959" stroke-width="1.0" stroke-linejoin="round" stroke-linecap="butt" d="m216.16466 114.522354l29.13385 0l0 20.125992l-29.13385 0z" fill-rule="evenodd"/><path fill="#f1c232" d="m276.24176 114.522354l29.13388 0l0 20.125992l-29.13388 0z" fill-rule="evenodd"/><path stroke="#595959" stroke-width="1.0" stroke-linejoin="round" stroke-linecap="butt" d="m276.24176 114.522354l29.13388 0l0 20.125992l-29.13388 0z" fill-rule="evenodd"/><path fill="#000000" fill-opacity="0.0" d="m231.44751 136.32503l0 45.51181" fill-rule="evenodd"/><path stroke="#595959" stroke-width="1.0" stroke-linejoin="round" stroke-linecap="butt" d="m231.44751 136.32503l0 39.51181" fill-rule="evenodd"/><path fill="#595959" stroke="#595959" stroke-width="1.0" stroke-linecap="butt" d="m229.79578 175.83684l1.6517334 4.538101l1.6517334 -4.538101z" fill-rule="evenodd"/><path fill="#000000" fill-opacity="0.0" d="m291.32214 136.32503l0 45.51181" fill-rule="evenodd"/><path stroke="#595959" stroke-width="1.0" stroke-linejoin="round" stroke-linecap="butt" d="m291.32214 136.32503l0 39.51181" fill-rule="evenodd"/><path fill="#595959" stroke="#595959" stroke-width="1.0" stroke-linecap="butt" d="m289.6704 175.83684l1.6517334 4.538101l1.6517334 -4.538101z" fill-rule="evenodd"/><path fill="#fff2cc" d="m216.49667 179.67908l29.13385 0l0 20.125977l-29.13385 0z" fill-rule="evenodd"/><path stroke="#595959" stroke-width="1.0" stroke-linejoin="round" stroke-linecap="butt" d="m216.49667 179.67908l29.13385 0l0 20.125977l-29.13385 0z" fill-rule="evenodd"/><path fill="#fff2cc" d="m276.5738 179.67908l29.13385 0l0 20.125977l-29.13385 0z" fill-rule="evenodd"/><path stroke="#595959" stroke-width="1.0" stroke-linejoin="round" stroke-linecap="butt" d="m276.5738 179.67908l29.13385 0l0 20.125977l-29.13385 0z" fill-rule="evenodd"/><path fill="#fff2cc" d="m216.49667 179.67908l29.13385 0l0 20.125977l-29.13385 0z" fill-rule="evenodd"/><path stroke="#595959" stroke-width="1.0" stroke-linejoin="round" stroke-linecap="butt" d="m216.49667 179.67908l29.13385 0l0 20.125977l-29.13385 0z" fill-rule="evenodd"/><path fill="#fff2cc" d="m276.5738 179.67908l29.13385 0l0 20.125977l-29.13385 0z" fill-rule="evenodd"/><path stroke="#595959" stroke-width="1.0" stroke-linejoin="round" stroke-linecap="butt" d="m276.5738 179.67908l29.13385 0l0 20.125977l-29.13385 0z" fill-rule="evenodd"/><path fill="#000000" fill-opacity="0.0" d="m214.5706 179.51971l36.62993 0l0 23.748032l-36.62993 0z" fill-rule="evenodd"/><path fill="#000000" d="m226.33623 195.13373l0 -6.734375l-2.515625 0l0 -0.890625l6.046875 0l0 0.890625l-2.53125 0l0 6.734375l-1.0 0zm7.712387 0l-0.9375 0l0 -5.96875q-0.34375 0.328125 -0.890625 0.65625q-0.546875 0.3125 -0.984375 0.46875l0 -0.90625q0.796875 -0.359375 1.375 -0.890625q0.59375 -0.53125 0.828125 -1.015625l0.609375 0l0 7.65625z" fill-rule="nonzero"/><path fill="#000000" fill-opacity="0.0" d="m276.00992 179.51971l36.629913 0l0 23.748032l-36.629913 0z" fill-rule="evenodd"/><path fill="#000000" d="m287.77554 195.13373l0 -6.734375l-2.515625 0l0 -0.890625l6.046875 0l0 0.890625l-2.53125 0l0 6.734375l-1.0 0zm9.102997 -0.90625l0 0.90625l-5.03125 0q-0.015625 -0.34375 0.109375 -0.65625q0.1875 -0.515625 0.609375 -1.015625q0.421875 -0.5 1.234375 -1.140625q1.234375 -1.03125 1.671875 -1.625q0.4375 -0.59375 0.4375 -1.125q0 -0.5625 -0.40625 -0.9375q-0.390625 -0.390625 -1.03125 -0.390625q-0.671875 0 -1.078125 0.40625q-0.40625 0.40625 -0.40625 1.125l-0.96875 -0.09375q0.09375 -1.078125 0.734375 -1.640625q0.65625 -0.5625 1.734375 -0.5625q1.109375 0 1.75 0.609375q0.640625 0.609375 0.640625 1.5q0 0.46875 -0.1875 0.90625q-0.1875 0.4375 -0.625 0.9375q-0.4375 0.484375 -1.453125 1.328125q-0.828125 0.71875 -1.078125 0.96875q-0.234375 0.25 -0.390625 0.5l3.734375 0z" fill-rule="nonzero"/><path fill="#000000" fill-opacity="0.0" d="m245.29851 124.58535l30.929123 0" fill-rule="evenodd"/><path stroke="#ff0000" stroke-width="1.0" stroke-linejoin="round" stroke-linecap="butt" d="m245.29852 124.58535l24.929138 0" fill-rule="evenodd"/><path fill="#ff0000" stroke="#ff0000" stroke-width="1.0" stroke-linecap="butt" d="m270.22766 126.23708l4.538086 -1.6517334l-4.538086 -1.6517258z" fill-rule="evenodd"/><path fill="#000000" fill-opacity="0.0" d="m16.493439 70.148415l0 45.51181" fill-rule="evenodd"/><path stroke="#595959" stroke-width="1.0" stroke-linejoin="round" stroke-linecap="butt" d="m16.493439 70.148415l0 39.51181" fill-rule="evenodd"/><path fill="#595959" stroke="#595959" stroke-width="1.0" stroke-linecap="butt" d="m14.841706 109.660225l1.6517324 4.538101l1.6517315 -4.538101z" fill-rule="evenodd"/><path fill="#fff2cc" d="m1.9271191 50.842567l29.13386 0l0 20.125984l-29.13386 0z" fill-rule="evenodd"/><path stroke="#595959" stroke-width="1.0" stroke-linejoin="round" stroke-linecap="butt" d="m1.9271191 50.842567l29.13386 0l0 20.125984l-29.13386 0z" fill-rule="evenodd"/><path fill="#fff2cc" d="m48.388344 50.842567l29.133858 0l0 20.125984l-29.133858 0z" fill-rule="evenodd"/><path stroke="#595959" stroke-width="1.0" stroke-linejoin="round" stroke-linecap="butt" d="m48.388344 50.842567l29.133858 0l0 20.125984l-29.133858 0z" fill-rule="evenodd"/><path fill="#fff2cc" d="m93.65752 50.842567l29.133858 0l0 20.125984l-29.133858 0z" fill-rule="evenodd"/><path stroke="#595959" stroke-width="1.0" stroke-linejoin="round" stroke-linecap="butt" d="m93.65752 50.842567l29.133858 0l0 20.125984l-29.133858 0z" fill-rule="evenodd"/><path fill="#fff2cc" d="m141.31079 50.842567l29.133865 0l0 20.125984l-29.133865 0z" fill-rule="evenodd"/><path stroke="#595959" stroke-width="1.0" stroke-linejoin="round" stroke-linecap="butt" d="m141.31079 50.842567l29.133865 0l0 20.125984l-29.133865 0z" fill-rule="evenodd"/><path fill="#000000" fill-opacity="0.0" d="m62.75217 70.148415l0 45.51181" fill-rule="evenodd"/><path stroke="#595959" stroke-width="1.0" stroke-linejoin="round" stroke-linecap="butt" d="m62.752167 70.148415l0 39.51181" fill-rule="evenodd"/><path fill="#595959" stroke="#595959" stroke-width="1.0" stroke-linecap="butt" d="m61.100437 109.660225l1.6517296 4.538101l1.6517334 -4.538101z" fill-rule="evenodd"/><path fill="#000000" fill-opacity="0.0" d="m109.457695 70.148415l0 45.51181" fill-rule="evenodd"/><path stroke="#595959" stroke-width="1.0" stroke-linejoin="round" stroke-linecap="butt" d="m109.457695 70.148415l0 39.51181" fill-rule="evenodd"/><path fill="#595959" stroke="#595959" stroke-width="1.0" stroke-linecap="butt" d="m107.80596 109.660225l1.6517334 4.538101l1.6517334 -4.538101z" fill-rule="evenodd"/><path fill="#000000" fill-opacity="0.0" d="m156.53584 70.148415l0 45.51181" fill-rule="evenodd"/><path stroke="#595959" stroke-width="1.0" stroke-linejoin="round" stroke-linecap="butt" d="m156.53584 70.148415l0 39.51181" fill-rule="evenodd"/><path fill="#595959" stroke="#595959" stroke-width="1.0" stroke-linecap="butt" d="m154.88411 109.660225l1.6517334 4.538101l1.6517334 -4.538101z" fill-rule="evenodd"/><path fill="#fff2cc" d="m1.9271191 50.842567l29.13386 0l0 20.125984l-29.13386 0z" fill-rule="evenodd"/><path stroke="#595959" stroke-width="1.0" stroke-linejoin="round" stroke-linecap="butt" d="m1.9271191 50.842567l29.13386 0l0 20.125984l-29.13386 0z" fill-rule="evenodd"/><path fill="#fff2cc" d="m48.388344 50.842567l29.133858 0l0 20.125984l-29.133858 0z" fill-rule="evenodd"/><path stroke="#595959" stroke-width="1.0" stroke-linejoin="round" stroke-linecap="butt" d="m48.388344 50.842567l29.133858 0l0 20.125984l-29.133858 0z" fill-rule="evenodd"/><path fill="#fff2cc" d="m93.65752 50.842567l29.133858 0l0 20.125984l-29.133858 0z" fill-rule="evenodd"/><path stroke="#595959" stroke-width="1.0" stroke-linejoin="round" stroke-linecap="butt" d="m93.65752 50.842567l29.133858 0l0 20.125984l-29.133858 0z" fill-rule="evenodd"/><path fill="#fff2cc" d="m141.31079 50.842567l29.133865 0l0 20.125984l-29.133865 0z" fill-rule="evenodd"/><path stroke="#595959" stroke-width="1.0" stroke-linejoin="round" stroke-linecap="butt" d="m141.31079 50.842567l29.133865 0l0 20.125984l-29.133865 0z" fill-rule="evenodd"/><path fill="#000000" fill-opacity="0.0" d="m0.0010553806 50.683205l36.62992 0l0 23.748032l-36.62992 0z" fill-rule="evenodd"/><path fill="#000000" d="m11.766681 66.29722l0 -6.734371l-2.515625 0l0 -0.890625l6.046875 0l0 0.890625l-2.53125 0l0 6.734371l-1.0 0zm3.4988403 -2.296875l0 -0.9374962l2.874999 0l0 0.9374962l-2.874999 0zm6.6423635 2.296875l0 -1.828125l-3.296875 0l0 -0.8593712l3.46875 -4.9375l0.765625 0l0 4.9375l1.03125 0l0 0.8593712l-1.03125 0l0 1.828125l-0.9375 0zm0 -2.6874962l0 -3.4375l-2.375 3.4375l2.375 0z" fill-rule="nonzero"/><path fill="#000000" fill-opacity="0.0" d="m46.632416 50.683205l36.62992 0l0 23.748032l-36.62992 0z" fill-rule="evenodd"/><path fill="#000000" d="m58.39804 66.29722l0 -6.734371l-2.515625 0l0 -0.890625l6.046875 0l0 0.890625l-2.53125 0l0 6.734371l-1.0 0zm3.4988403 -2.296875l0 -0.9374962l2.875 0l0 0.9374962l-2.875 0zm3.6579895 0.28125l0.9375 -0.125q0.15625 0.796875 0.546875 1.15625q0.390625 0.34375 0.9375 0.34375q0.65625 0 1.109375 -0.453125q0.46875 -0.46875 0.46875 -1.140625q0 -0.6406212 -0.421875 -1.0624962q-0.421875 -0.421875 -1.078125 -0.421875q-0.265625 0 -0.65625 0.109375l0.109375 -0.828125q0.09375 0.015625 0.140625 0.015625q0.59375 0 1.078125 -0.3125q0.484375 -0.3125 0.484375 -0.96875q0 -0.515625 -0.359375 -0.84375q-0.34375 -0.34375 -0.890625 -0.34375q-0.546875 0 -0.921875 0.34375q-0.359375 0.34375 -0.453125 1.03125l-0.9375 -0.171875q0.171875 -0.9375 0.78125 -1.453125q0.609375 -0.515625 1.5 -0.515625q0.625 0 1.15625 0.265625q0.53125 0.265625 0.796875 0.734375q0.28125 0.453125 0.28125 0.984375q0 0.484375 -0.265625 0.890625q-0.265625 0.40625 -0.78125 0.65625q0.671875 0.15625 1.046875 0.65625q0.375 0.484375 0.375 1.2187462q0 1.0 -0.734375 1.703125q-0.71875 0.6875 -1.828125 0.6875q-1.0 0 -1.671875 -0.59375q-0.65625 -0.609375 -0.75 -1.5625z" fill-rule="nonzero"/><path fill="#000000" fill-opacity="0.0" d="m90.55295 49.491154l36.62992 0l0 23.748028l-36.62992 0z" fill-rule="evenodd"/><path fill="#000000" d="m102.31857 65.10517l0 -6.734379l-2.515625 0l0 -0.890625l6.046875 0l0 0.890625l-2.53125 0l0 6.734379l-1.0 0zm3.4988403 -2.2968788l0 -0.9375l2.875 0l0 0.9375l-2.875 0zm8.5642395 1.3906288l0 0.90625l-5.03125 0q-0.015625 -0.34375 0.109375 -0.65625q0.1875 -0.5156288 0.609375 -1.0156288q0.421875 -0.5 1.234375 -1.140625q1.234375 -1.03125 1.671875 -1.625q0.4375 -0.59375 0.4375 -1.125q0 -0.5625 -0.40625 -0.9375q-0.390625 -0.390625 -1.03125 -0.390625q-0.671875 0 -1.078125 0.40625q-0.40625 0.40625 -0.40625 1.125l-0.96875 -0.09375q0.09375 -1.078125 0.734375 -1.640625q0.65625 -0.5625 1.734375 -0.5625q1.109375 0 1.75 0.609375q0.640625 0.609375 0.640625 1.5q0 0.46875 -0.1875 0.90625q-0.1875 0.4375 -0.625 0.9375q-0.4375 0.484375 -1.453125 1.328125q-0.828125 0.71875 -1.078125 0.96875q-0.234375 0.25 -0.390625 0.5000038l3.734375 0z" fill-rule="nonzero"/><path fill="#000000" fill-opacity="0.0" d="m139.745 50.683205l36.62993 0l0 23.748032l-36.62993 0z" fill-rule="evenodd"/><path fill="#000000" d="m151.51062 66.29722l0 -6.734371l-2.515625 0l0 -0.890625l6.046875 0l0 0.890625l-2.53125 0l0 6.734371l-1.0 0zm3.4988403 -2.296875l0 -0.9374962l2.875 0l0 0.9374962l-2.875 0zm7.1736145 2.296875l-0.9375 0l0 -5.968746q-0.34375 0.328125 -0.890625 0.65625q-0.546875 0.3125 -0.984375 0.46875l0 -0.90625q0.796875 -0.359375 1.375 -0.890625q0.59375 -0.53125 0.828125 -1.015625l0.609375 0l0 7.656246z" fill-rule="nonzero"/><path fill="#fff2cc" d="m1.5950981 114.522354l29.133858 0l0 20.125992l-29.133858 0z" fill-rule="evenodd"/><path stroke="#595959" stroke-width="1.0" stroke-linejoin="round" stroke-linecap="butt" d="m1.5950981 114.522354l29.133858 0l0 20.125992l-29.133858 0z" fill-rule="evenodd"/><path fill="#fff2cc" d="m48.056324 114.522354l29.133854 0l0 20.125992l-29.133854 0z" fill-rule="evenodd"/><path stroke="#595959" stroke-width="1.0" stroke-linejoin="round" stroke-linecap="butt" d="m48.056324 114.522354l29.133854 0l0 20.125992l-29.133854 0z" fill-rule="evenodd"/><path fill="#fff2cc" d="m93.32549 114.522354l29.133858 0l0 20.125992l-29.133858 0z" fill-rule="evenodd"/><path stroke="#595959" stroke-width="1.0" stroke-linejoin="round" stroke-linecap="butt" d="m93.32549 114.522354l29.133858 0l0 20.125992l-29.133858 0z" fill-rule="evenodd"/><path fill="#fff2cc" d="m140.97878 114.522354l29.13385 0l0 20.125992l-29.13385 0z" fill-rule="evenodd"/><path stroke="#595959" stroke-width="1.0" stroke-linejoin="round" stroke-linecap="butt" d="m140.97878 114.522354l29.13385 0l0 20.125992l-29.13385 0z" fill-rule="evenodd"/><path fill="#f1c232" d="m1.5950981 114.522354l29.133858 0l0 20.125992l-29.133858 0z" fill-rule="evenodd"/><path stroke="#595959" stroke-width="1.0" stroke-linejoin="round" stroke-linecap="butt" d="m1.5950981 114.522354l29.133858 0l0 20.125992l-29.133858 0z" fill-rule="evenodd"/><path fill="#f1c232" d="m48.056324 114.522354l29.133854 0l0 20.125992l-29.133854 0z" fill-rule="evenodd"/><path stroke="#595959" stroke-width="1.0" stroke-linejoin="round" stroke-linecap="butt" d="m48.056324 114.522354l29.133854 0l0 20.125992l-29.133854 0z" fill-rule="evenodd"/><path fill="#f1c232" d="m93.32549 114.522354l29.133858 0l0 20.125992l-29.133858 0z" fill-rule="evenodd"/><path stroke="#595959" stroke-width="1.0" stroke-linejoin="round" stroke-linecap="butt" d="m93.32549 114.522354l29.133858 0l0 20.125992l-29.133858 0z" fill-rule="evenodd"/><path fill="#f1c232" d="m140.97878 114.522354l29.13385 0l0 20.125992l-29.13385 0z" fill-rule="evenodd"/><path stroke="#595959" stroke-width="1.0" stroke-linejoin="round" stroke-linecap="butt" d="m140.97878 114.522354l29.13385 0l0 20.125992l-29.13385 0z" fill-rule="evenodd"/><path fill="#000000" fill-opacity="0.0" d="m16.877953 136.32503l0 45.51181" fill-rule="evenodd"/><path stroke="#595959" stroke-width="1.0" stroke-linejoin="round" stroke-linecap="butt" d="m16.877953 136.32503l0 39.51181" fill-rule="evenodd"/><path fill="#595959" stroke="#595959" stroke-width="1.0" stroke-linecap="butt" d="m15.22622 175.83684l1.6517324 4.538101l1.6517334 -4.538101z" fill-rule="evenodd"/><path fill="#000000" fill-opacity="0.0" d="m63.136684 136.32503l0 45.51181" fill-rule="evenodd"/><path stroke="#595959" stroke-width="1.0" stroke-linejoin="round" stroke-linecap="butt" d="m63.136684 136.32503l0 39.51181" fill-rule="evenodd"/><path fill="#595959" stroke="#595959" stroke-width="1.0" stroke-linecap="butt" d="m61.48495 175.83684l1.6517334 4.538101l1.6517296 -4.538101z" fill-rule="evenodd"/><path fill="#000000" fill-opacity="0.0" d="m108.650154 135.13298l0 45.51181" fill-rule="evenodd"/><path stroke="#595959" stroke-width="1.0" stroke-linejoin="round" stroke-linecap="butt" d="m108.65016 135.13298l0 39.51181" fill-rule="evenodd"/><path fill="#595959" stroke="#595959" stroke-width="1.0" stroke-linecap="butt" d="m106.99843 174.64479l1.6517334 4.538101l1.6517334 -4.538101z" fill-rule="evenodd"/><path fill="#000000" fill-opacity="0.0" d="m156.92036 135.13298l0 45.51181" fill-rule="evenodd"/><path stroke="#595959" stroke-width="1.0" stroke-linejoin="round" stroke-linecap="butt" d="m156.92036 135.13298l0 39.51181" fill-rule="evenodd"/><path fill="#595959" stroke="#595959" stroke-width="1.0" stroke-linecap="butt" d="m155.26863 174.64479l1.6517334 4.538101l1.6517181 -4.538101z" fill-rule="evenodd"/><path fill="#000000" fill-opacity="0.0" d="m32.14309 122.70735l16.062992 0" fill-rule="evenodd"/><path stroke="#ff0000" stroke-width="1.0" stroke-linejoin="round" stroke-linecap="butt" d="m32.14309 122.70735l10.062988 0" fill-rule="evenodd"/><path fill="#ff0000" stroke="#ff0000" stroke-width="1.0" stroke-linecap="butt" d="m42.206078 124.359085l4.5380974 -1.6517334l-4.5380974 -1.6517334z" fill-rule="evenodd"/><path fill="#000000" fill-opacity="0.0" d="m77.822876 123.213455l16.062996 0" fill-rule="evenodd"/><path stroke="#ff0000" stroke-width="1.0" stroke-linejoin="round" stroke-linecap="butt" d="m77.822876 123.21346l10.062988 0" fill-rule="evenodd"/><path fill="#ff0000" stroke="#ff0000" stroke-width="1.0" stroke-linecap="butt" d="m87.885864 124.86519l4.538101 -1.6517258l-4.538101 -1.6517334z" fill-rule="evenodd"/><path fill="#000000" fill-opacity="0.0" d="m125.21838 123.71694l16.062988 0" fill-rule="evenodd"/><path stroke="#ff0000" stroke-width="1.0" stroke-linejoin="round" stroke-linecap="butt" d="m125.21839 123.71694l10.062996 0" fill-rule="evenodd"/><path fill="#ff0000" stroke="#ff0000" stroke-width="1.0" stroke-linecap="butt" d="m135.28139 125.368675l4.538101 -1.6517334l-4.538101 -1.6517258z" fill-rule="evenodd"/><path fill="#000000" fill-opacity="0.0" d="m387.2362 19.587927l16.063019 0" fill-rule="evenodd"/><path stroke="#ff0000" stroke-width="1.0" stroke-linejoin="round" stroke-linecap="butt" d="m387.2362 19.587927l10.063019 0" fill-rule="evenodd"/><path fill="#ff0000" stroke="#ff0000" stroke-width="1.0" stroke-linecap="butt" d="m397.29922 21.239658l4.538086 -1.6517315l-4.538086 -1.6517334z" fill-rule="evenodd"/><path fill="#000000" fill-opacity="0.0" d="m403.3002 4.745407E-4l70.58267 0l0 84.18898l-70.58267 0z" fill-rule="evenodd"/><path fill="#000000" d="m412.75333 20.81485l1.265625 -0.203125q0.109375 0.765625 0.59375 1.171875q0.5 0.40625 1.375 0.40625q0.890625 0 1.3125 -0.359375q0.4375 -0.359375 0.4375 -0.84375q0 -0.4375 -0.375 -0.6875q-0.265625 -0.171875 -1.3125 -0.4375q-1.421875 -0.359375 -1.96875 -0.609375q-0.546875 -0.265625 -0.828125 -0.734375q-0.28125 -0.46875 -0.28125 -1.015625q0 -0.515625 0.21875 -0.9375q0.234375 -0.4375 0.640625 -0.734375q0.296875 -0.21875 0.8125 -0.359375q0.53125 -0.15625 1.125 -0.15625q0.890625 0 1.5625 0.265625q0.671875 0.25 1.0 0.6875q0.328125 0.4375 0.4375 1.171875l-1.25 0.171875q-0.09375 -0.578125 -0.5 -0.90625q-0.40625 -0.34375 -1.15625 -0.34375q-0.890625 0 -1.28125 0.296875q-0.375 0.296875 -0.375 0.6875q0 0.25 0.15625 0.453125q0.15625 0.203125 0.5 0.34375q0.1875 0.078125 1.140625 0.328125q1.359375 0.359375 1.890625 0.59375q0.546875 0.234375 0.859375 0.6875q0.3125 0.4375 0.3125 1.09375q0 0.640625 -0.375 1.21875q-0.375 0.5625 -1.09375 0.875q-0.703125 0.3125 -1.59375 0.3125q-1.484375 0 -2.265625 -0.609375q-0.765625 -0.625 -0.984375 -1.828125zm10.65625 1.109375l0.1875 1.140625q-0.546875 0.109375 -0.984375 0.109375q-0.6875 0 -1.078125 -0.21875q-0.390625 -0.21875 -0.546875 -0.578125q-0.15625 -0.359375 -0.15625 -1.515625l0 -4.375l-0.953125 0l0 -1.0l0.953125 0l0 -1.890625l1.28125 -0.765625l0 2.65625l1.296875 0l0 1.0l-1.296875 0l0 4.4375q0 0.546875 0.0625 0.71875q0.078125 0.15625 0.21875 0.25q0.15625 0.078125 0.453125 0.078125q0.203125 0 0.5625 -0.046875zm6.2125854 0.21875q-0.71875 0.609375 -1.375 0.859375q-0.65625 0.25 -1.421875 0.25q-1.25 0 -1.921875 -0.609375q-0.671875 -0.609375 -0.671875 -1.5625q0 -0.5625 0.25 -1.015625q0.25 -0.46875 0.65625 -0.75q0.421875 -0.28125 0.9375 -0.421875q0.375 -0.09375 1.140625 -0.1875q1.5625 -0.1875 2.296875 -0.453125q0.015625 -0.265625 0.015625 -0.328125q0 -0.796875 -0.375 -1.109375q-0.484375 -0.4375 -1.453125 -0.4375q-0.921875 0 -1.359375 0.328125q-0.421875 0.3125 -0.625 1.109375l-1.265625 -0.171875q0.171875 -0.796875 0.5625 -1.296875q0.390625 -0.5 1.140625 -0.765625q0.75 -0.265625 1.71875 -0.265625q0.984375 0 1.59375 0.234375q0.609375 0.21875 0.890625 0.5625q0.28125 0.34375 0.40625 0.875q0.0625 0.328125 0.0625 1.1875l0 1.71875q0 1.796875 0.078125 2.28125q0.078125 0.46875 0.328125 0.90625l-1.34375 0q-0.203125 -0.40625 -0.265625 -0.9375zm-0.109375 -2.875q-0.703125 0.28125 -2.09375 0.484375q-0.796875 0.109375 -1.125 0.265625q-0.328125 0.140625 -0.515625 0.421875q-0.171875 0.265625 -0.171875 0.59375q0 0.515625 0.390625 0.859375q0.390625 0.34375 1.140625 0.34375q0.734375 0 1.3125 -0.3125q0.59375 -0.328125 0.859375 -0.890625q0.203125 -0.4375 0.203125 -1.296875l0 -0.46875zm6.119873 2.65625l0.1875 1.140625q-0.546875 0.109375 -0.984375 0.109375q-0.6875 0 -1.078125 -0.21875q-0.390625 -0.21875 -0.546875 -0.578125q-0.15625 -0.359375 -0.15625 -1.515625l0 -4.375l-0.953125 0l0 -1.0l0.953125 0l0 -1.890625l1.28125 -0.765625l0 2.65625l1.296875 0l0 1.0l-1.296875 0l0 4.4375q0 0.546875 0.0625 0.71875q0.078125 0.15625 0.21875 0.25q0.15625 0.078125 0.453125 0.078125q0.203125 0 0.5625 -0.046875zm0.77508545 -2.640625q0 -2.109375 1.171875 -3.125q0.984375 -0.84375 2.390625 -0.84375q1.578125 0 2.5625 1.03125q1.0 1.015625 1.0 2.828125q0 1.46875 -0.4375 2.3125q-0.4375 0.828125 -1.28125 1.296875q-0.84375 0.46875 -1.84375 0.46875q-1.59375 0 -2.578125 -1.015625q-0.984375 -1.03125 -0.984375 -2.953125zm1.328125 0q0 1.453125 0.625 2.1875q0.640625 0.71875 1.609375 0.71875q0.96875 0 1.59375 -0.71875q0.640625 -0.734375 0.640625 -2.234375q0 -1.40625 -0.640625 -2.125q-0.640625 -0.734375 -1.59375 -0.734375q-0.96875 0 -1.609375 0.71875q-0.625 0.71875 -0.625 2.1875z" fill-rule="nonzero"/><path fill="#000000" fill-opacity="0.0" d="m173.20403 123.70346l42.960632 0.88188934" fill-rule="evenodd"/><path stroke="#ff0000" stroke-width="1.0" stroke-linejoin="round" stroke-linecap="butt" d="m173.20403 123.70346l36.9619 0.7587509" fill-rule="evenodd"/><path fill="#ff0000" stroke="#ff0000" stroke-width="1.0" stroke-linecap="butt" d="m210.13202 126.113594l4.571045 -1.5582428l-4.50325 -1.7445221z" fill-rule="evenodd"/><path fill="#ffe599" d="m214.56955 231.69832l0 0c0 -4.189331 3.3961334 -7.5854645 7.5854645 -7.5854645l204.07317 0c2.0118103 0 3.9411926 0.7991791 5.363739 2.2217407c1.4225464 1.4225464 2.2217407 3.3519287 2.2217407 5.3637238l0 30.340897c0 4.189331 -3.3961487 7.585449 -7.5854797 7.585449l-204.07317 0c-4.189331 0 -7.5854645 -3.3961182 -7.5854645 -7.585449z" fill-rule="evenodd"/><path stroke="#ff9900" stroke-width="2.0" stroke-linejoin="round" stroke-linecap="butt" d="m214.56955 231.69832l0 0c0 -4.189331 3.3961334 -7.5854645 7.5854645 -7.5854645l204.07317 0c2.0118103 0 3.9411926 0.7991791 5.363739 2.2217407c1.4225464 1.4225464 2.2217407 3.3519287 2.2217407 5.3637238l0 30.340897c0 4.189331 -3.3961487 7.585449 -7.5854797 7.585449l-204.07317 0c-4.189331 0 -7.5854645 -3.3961182 -7.5854645 -7.585449z" fill-rule="evenodd"/><path fill="#000000" d="m289.84393 251.02563l1.515625 0q1.96875 0 2.984375 -1.015625q1.03125 -1.03125 1.03125 -3.0q0 -2.109375 -1.0625 -3.0625q-1.046875 -0.96875 -3.171875 -0.96875l-1.296875 0l0 8.046875zm-2.109375 1.703125l0 -11.453125l3.3125 0q1.5 0 2.6875 0.34375q1.1875 0.34375 2.03125 1.046875q0.859375 0.6875 1.3125 1.78125q0.46875 1.078125 0.46875 2.515625q0 2.765625 -1.671875 4.265625q-1.671875 1.5 -4.640625 1.5l-3.5 0zm11.8125 0l0 -11.453125l6.9375 0l-0.078125 1.6875l-4.734375 0l0 2.953125l4.5 0l0 1.671875l-4.5 0l0 3.453125l4.90625 0l-0.078125 1.6875l-6.953125 0zm14.0 0.171875q-2.515625 0 -3.984375 -1.578125q-1.46875 -1.59375 -1.46875 -4.375q0 -2.640625 1.53125 -4.234375q1.546875 -1.59375 4.03125 -1.59375q2.0 0 3.390625 0.921875l-0.65625 1.609375q-1.34375 -0.828125 -2.6875 -0.828125q-1.578125 0 -2.5 1.140625q-0.921875 1.140625 -0.921875 3.046875q0 1.984375 0.890625 3.078125q0.890625 1.078125 2.53125 1.078125q1.4375 0 2.84375 -0.71875l0.28125 1.65625q-1.3125 0.796875 -3.28125 0.796875zm7.7734375 -2.8125q0.859375 1.078125 2.515625 1.078125q1.671875 0 2.515625 -1.078125q0.84375 -1.09375 0.84375 -3.0625q0 -2.0 -0.84375 -3.09375q-0.84375 -1.109375 -2.5 -1.109375q-1.671875 0 -2.53125 1.109375q-0.84375 1.09375 -0.84375 3.09375q0 1.96875 0.84375 3.0625zm2.515625 2.8125q-2.59375 0 -4.09375 -1.5625q-1.484375 -1.578125 -1.484375 -4.34375q0 -2.765625 1.5 -4.3125q1.5 -1.5625 4.078125 -1.5625q2.59375 0 4.078125 1.5625q1.5 1.546875 1.5 4.328125q0 2.734375 -1.5 4.3125q-1.5 1.578125 -4.078125 1.578125zm9.703125 -1.875l1.515625 0q1.96875 0 2.984375 -1.015625q1.03125 -1.03125 1.03125 -3.0q0 -2.109375 -1.0625 -3.0625q-1.046875 -0.96875 -3.171875 -0.96875l-1.296875 0l0 8.046875zm-2.109375 1.703125l0 -11.453125l3.3125 0q1.5 0 2.6875 0.34375q1.1875 0.34375 2.03125 1.046875q0.859375 0.6875 1.3125 1.78125q0.46875 1.078125 0.46875 2.515625q0 2.765625 -1.671875 4.265625q-1.671875 1.5 -4.640625 1.5l-3.5 0zm11.8125 0l0 -11.453125l6.9375 0l-0.078125 1.6875l-4.734375 0l0 2.953125l4.5 0l0 1.671875l-4.5 0l0 3.453125l4.90625 0l-0.078125 1.6875l-6.953125 0zm8.953125 0l0 -11.484375l4.234375 0q0.875 0 1.5 0.078125q0.640625 0.078125 1.21875 0.296875q0.578125 0.203125 0.921875 0.5625q0.359375 0.34375 0.5625 0.90625q0.21875 0.5625 0.21875 1.34375q0 2.28125 -2.078125 3.0q0.421875 0.46875 1.046875 1.765625l1.703125 3.53125l-2.3125 0l-1.328125 -3.0q-0.765625 -1.609375 -0.9375 -1.90625q-0.140625 0 -0.890625 0l-1.765625 -0.015625l0 4.921875l-2.09375 0zm4.421875 -6.4375q1.21875 0 1.75 -0.4375q0.53125 -0.4375 0.53125 -1.390625q0 -0.84375 -0.546875 -1.234375q-0.53125 -0.40625 -1.640625 -0.40625l-2.421875 0l0 3.453125q0.109375 0 1.15625 0.015625q1.046875 0 1.171875 0z" fill-rule="nonzero"/><path fill="#ffe599" d="m1.9265091 231.69832l0 0c0 -4.189331 3.3961232 -7.5854645 7.585454 -7.5854645l153.36453 0c2.0117798 0 3.9411774 0.7991791 5.3637238 2.2217407c1.4225464 1.4225464 2.2217255 3.3519287 2.2217255 5.3637238l0 30.340897c0 4.189331 -3.3961182 7.585449 -7.585449 7.585449l-153.36453 0c-4.1893306 0 -7.585454 -3.3961182 -7.585454 -7.585449z" fill-rule="evenodd"/><path stroke="#ff9900" stroke-width="2.0" stroke-linejoin="round" stroke-linecap="butt" d="m1.9265091 231.69832l0 0c0 -4.189331 3.3961232 -7.5854645 7.585454 -7.5854645l153.36453 0c2.0117798 0 3.9411774 0.7991791 5.3637238 2.2217407c1.4225464 1.4225464 2.2217255 3.3519287 2.2217255 5.3637238l0 30.340897c0 4.189331 -3.3961182 7.585449 -7.585449 7.585449l-153.36453 0c-4.1893306 0 -7.585454 -3.3961182 -7.585454 -7.585449z" fill-rule="evenodd"/><path fill="#000000" d="m49.56532 252.72876l0 -11.453125l6.9375 0l-0.078125 1.6875l-4.734375 0l0 2.953125l4.5 0l0 1.671875l-4.5 0l0 3.453125l4.90625 0l-0.078125 1.6875l-6.953125 0zm9.0 0l0 -11.453125l2.25 0q0.609375 0.953125 2.46875 3.84375q1.8750038 2.890625 2.2812538 3.515625q0.125 0.1875 0.40625 0.609375q0.28125 0.421875 0.40625 0.609375q-0.0625 -2.6875 -0.0625 -2.78125l0 -5.796875l1.9375 0l0 11.453125l-2.28125 0l-5.171879 -8.046875l-0.375 -0.625q0.0625 2.0625 0.0625 2.90625l0 5.765625l-1.921875 0zm17.140629 0.171875q-2.515625 0 -3.984375 -1.578125q-1.46875 -1.59375 -1.46875 -4.375q0 -2.640625 1.53125 -4.234375q1.546875 -1.59375 4.03125 -1.59375q2.0 0 3.390625 0.921875l-0.65625 1.609375q-1.34375 -0.828125 -2.6875 -0.828125q-1.578125 0 -2.5 1.140625q-0.921875 1.140625 -0.921875 3.046875q0 1.984375 0.890625 3.078125q0.890625 1.078125 2.53125 1.078125q1.4375 0 2.84375 -0.71875l0.28125 1.65625q-1.3125 0.796875 -3.28125 0.796875zm7.7734375 -2.8125q0.859375 1.078125 2.515625 1.078125q1.671875 0 2.515625 -1.078125q0.84375 -1.09375 0.84375 -3.0625q0 -2.0 -0.84375 -3.09375q-0.84375 -1.109375 -2.5 -1.109375q-1.671875 0 -2.53125 1.109375q-0.84375 1.09375 -0.84375 3.09375q0 1.96875 0.84375 3.0625zm2.515625 2.8125q-2.59375 0 -4.09375 -1.5625q-1.484375 -1.578125 -1.484375 -4.34375q0 -2.765625 1.5 -4.3125q1.5 -1.5625 4.078125 -1.5625q2.59375 0 4.078125 1.5625q1.5 1.546875 1.5 4.328125q0 2.734375 -1.5 4.3125q-1.5 1.578125 -4.078125 1.578125zm9.703125 -1.875l1.515625 0q1.96875 0 2.984375 -1.015625q1.03125 -1.03125 1.03125 -3.0q0 -2.109375 -1.0625 -3.0625q-1.046875 -0.96875 -3.171875 -0.96875l-1.296875 0l0 8.046875zm-2.109375 1.703125l0 -11.453125l3.3125 0q1.5 0 2.6875 0.34375q1.1875 0.34375 2.03125 1.046875q0.859375 0.6875 1.3125 1.78125q0.46875 1.078125 0.46875 2.515625q0 2.765625 -1.671875 4.265625q-1.671875 1.5 -4.640625 1.5l-3.5 0zm11.8125 0l0 -11.453125l6.9375 0l-0.078125 1.6875l-4.734375 0l0 2.953125l4.5 0l0 1.671875l-4.5 0l0 3.453125l4.90625 0l-0.078125 1.6875l-6.953125 0zm8.953125 0l0 -11.484375l4.234375 0q0.875 0 1.5 0.078125q0.640625 0.078125 1.21875 0.296875q0.578125 0.203125 0.921875 0.5625q0.359375 0.34375 0.5625 0.90625q0.21875 0.5625 0.21875 1.34375q0 2.28125 -2.078125 3.0q0.421875 0.46875 1.046875 1.765625l1.703125 3.53125l-2.3125 0l-1.328125 -3.0q-0.765625 -1.609375 -0.9375 -1.90625q-0.140625 0 -0.890625 0l-1.765625 -0.015625l0 4.921875l-2.09375 0zm4.421875 -6.4375q1.21875 0 1.75 -0.4375q0.53125 -0.4375 0.53125 -1.390625q0 -0.84375 -0.546875 -1.234375q-0.53125 -0.40625 -1.640625 -0.40625l-2.421875 0l0 3.453125q0.109375 0 1.15625 0.015625q1.046875 0 1.171875 0z" fill-rule="nonzero"/><path fill="#000000" fill-opacity="0.0" d="m251.20053 191.39372l11.808655 0l0 -128.85039l11.813385 0" fill-rule="evenodd"/><path stroke="#595959" stroke-width="1.0" stroke-linejoin="round" stroke-linecap="butt" d="m251.20052 191.39372l11.80867 0l0 -128.85039l5.813385 0" fill-rule="evenodd"/><path fill="#595959" stroke="#595959" stroke-width="1.0" stroke-linecap="butt" d="m268.82257 64.19507l4.538086 -1.6517372l-4.538086 -1.6517296z" fill-rule="evenodd"/><path fill="#fff2cc" d="m341.24606 50.15232l29.13388 0l0 20.125984l-29.13388 0z" fill-rule="evenodd"/><path stroke="#595959" stroke-width="1.0" stroke-linejoin="round" stroke-linecap="butt" d="m341.24606 50.15232l29.13388 0l0 20.125984l-29.13388 0z" fill-rule="evenodd"/><path fill="#000000" fill-opacity="0.0" d="m355.6099 69.45817l0 45.51181" fill-rule="evenodd"/><path stroke="#595959" stroke-width="1.0" stroke-linejoin="round" stroke-linecap="butt" d="m355.6099 69.45817l0 39.51181" fill-rule="evenodd"/><path fill="#595959" stroke="#595959" stroke-width="1.0" stroke-linecap="butt" d="m353.9582 108.96998l1.6517029 4.538101l1.6517334 -4.538101z" fill-rule="evenodd"/><path fill="#fff2cc" d="m341.24606 50.15232l29.13388 0l0 20.125984l-29.13388 0z" fill-rule="evenodd"/><path stroke="#595959" stroke-width="1.0" stroke-linejoin="round" stroke-linecap="butt" d="m341.24606 50.15232l29.13388 0l0 20.125984l-29.13388 0z" fill-rule="evenodd"/><path fill="#000000" fill-opacity="0.0" d="m339.49014 49.99296l36.629913 0l0 23.748028l-36.629913 0z" fill-rule="evenodd"/><path fill="#000000" d="m351.25577 65.60698l0 -6.734379l-2.515625 0l0 -0.890625l6.046875 0l0 0.890625l-2.53125 0l0 6.734379l-1.0 0zm9.103027 -0.90625l0 0.90625l-5.03125 0q-0.015625 -0.34375 0.109375 -0.65625q0.1875 -0.515625 0.609375 -1.0156288q0.421875 -0.5 1.234375 -1.140625q1.234375 -1.03125 1.671875 -1.625q0.4375 -0.59375 0.4375 -1.125q0 -0.5625 -0.40625 -0.9375q-0.390625 -0.390625 -1.03125 -0.390625q-0.671875 0 -1.078125 0.40625q-0.40625 0.40625 -0.40625 1.125l-0.96875 -0.09375q0.09375 -1.078125 0.734375 -1.640625q0.65625 -0.5625 1.734375 -0.5625q1.109375 0 1.75 0.609375q0.640625 0.609375 0.640625 1.5q0 0.46875 -0.1875 0.90625q-0.1875 0.4375 -0.625 0.9375q-0.4375 0.484375 -1.453125 1.328125q-0.828125 0.71875 -1.078125 0.9687538q-0.234375 0.25 -0.390625 0.5l3.734375 0z" fill-rule="nonzero"/><path fill="#fff2cc" d="m340.91406 113.832115l29.13385 0l0 20.125984l-29.13385 0z" fill-rule="evenodd"/><path stroke="#595959" stroke-width="1.0" stroke-linejoin="round" stroke-linecap="butt" d="m340.91406 113.832115l29.13385 0l0 20.125984l-29.13385 0z" fill-rule="evenodd"/><path fill="#f1c232" d="m340.91406 113.832115l29.13385 0l0 20.125984l-29.13385 0z" fill-rule="evenodd"/><path stroke="#595959" stroke-width="1.0" stroke-linejoin="round" stroke-linecap="butt" d="m340.91406 113.832115l29.13385 0l0 20.125984l-29.13385 0z" fill-rule="evenodd"/><path fill="#000000" fill-opacity="0.0" d="m355.99442 135.63478l0 45.51181" fill-rule="evenodd"/><path stroke="#595959" stroke-width="1.0" stroke-linejoin="round" stroke-linecap="butt" d="m355.99442 135.6348l0 39.511795" fill-rule="evenodd"/><path fill="#595959" stroke="#595959" stroke-width="1.0" stroke-linecap="butt" d="m354.34268 175.14659l1.6517334 4.538101l1.6517334 -4.538101z" fill-rule="evenodd"/><path fill="#fff2cc" d="m341.24606 178.98883l29.13388 0l0 20.125977l-29.13388 0z" fill-rule="evenodd"/><path stroke="#595959" stroke-width="1.0" stroke-linejoin="round" stroke-linecap="butt" d="m341.24606 178.98883l29.13388 0l0 20.125977l-29.13388 0z" fill-rule="evenodd"/><path fill="#fff2cc" d="m341.24606 178.98883l29.13388 0l0 20.125977l-29.13388 0z" fill-rule="evenodd"/><path stroke="#595959" stroke-width="1.0" stroke-linejoin="round" stroke-linecap="butt" d="m341.24606 178.98883l29.13388 0l0 20.125977l-29.13388 0z" fill-rule="evenodd"/><path fill="#000000" fill-opacity="0.0" d="m340.6822 178.82947l36.629944 0l0 23.748032l-36.629944 0z" fill-rule="evenodd"/><path fill="#000000" d="m352.4478 194.44348l0 -6.734375l-2.515625 0l0 -0.890625l6.046875 0l0 0.890625l-2.53125 0l0 6.734375l-1.0 0zm4.1967773 -2.015625l0.9375 -0.125q0.15625 0.796875 0.546875 1.15625q0.390625 0.34375 0.9375 0.34375q0.65625 0 1.109375 -0.453125q0.46875 -0.46875 0.46875 -1.140625q0 -0.640625 -0.421875 -1.0625q-0.421875 -0.421875 -1.078125 -0.421875q-0.265625 0 -0.65625 0.109375l0.109375 -0.828125q0.09375 0.015625 0.140625 0.015625q0.59375 0 1.078125 -0.3125q0.484375 -0.3125 0.484375 -0.96875q0 -0.515625 -0.359375 -0.84375q-0.34375 -0.34375 -0.890625 -0.34375q-0.546875 0 -0.921875 0.34375q-0.359375 0.34375 -0.453125 1.03125l-0.9375 -0.171875q0.171875 -0.9375 0.78125 -1.453125q0.609375 -0.515625 1.5 -0.515625q0.625 0 1.15625 0.265625q0.53125 0.265625 0.796875 0.734375q0.28125 0.453125 0.28125 0.984375q0 0.484375 -0.265625 0.890625q-0.265625 0.40625 -0.78125 0.65625q0.671875 0.15625 1.046875 0.65625q0.375 0.484375 0.375 1.21875q0 1.0 -0.734375 1.703125q-0.71875 0.6875 -1.828125 0.6875q-1.0 0 -1.671875 -0.59375q-0.65625 -0.609375 -0.75 -1.5625z" fill-rule="nonzero"/><path fill="#000000" fill-opacity="0.0" d="m307.59122 123.8951l33.322845 0" fill-rule="evenodd"/><path stroke="#ff0000" stroke-width="1.0" stroke-linejoin="round" stroke-linecap="butt" d="m307.59122 123.8951l27.322815 0" fill-rule="evenodd"/><path fill="#ff0000" stroke="#ff0000" stroke-width="1.0" stroke-linecap="butt" d="m334.91403 125.54684l4.5381165 -1.6517334l-4.5381165 -1.6517334z" fill-rule="evenodd"/><path fill="#000000" fill-opacity="0.0" d="m312.63983 191.39372l13.42511 0l0 -129.51181l13.409546 0" fill-rule="evenodd"/><path stroke="#595959" stroke-width="1.0" stroke-linejoin="round" stroke-linecap="butt" d="m312.63983 191.39372l13.42511 0l0 -129.51181l7.409546 0" fill-rule="evenodd"/><path fill="#595959" stroke="#595959" stroke-width="1.0" stroke-linecap="butt" d="m333.4745 63.53365l4.5381165 -1.6517334l-4.5381165 -1.6517334z" fill-rule="evenodd"/><path fill="#fff2cc" d="m405.02252 50.14707l29.13385 0l0 20.125984l-29.13385 0z" fill-rule="evenodd"/><path stroke="#595959" stroke-width="1.0" stroke-linejoin="round" stroke-linecap="butt" d="m405.02252 50.14707l29.13385 0l0 20.125984l-29.13385 0z" fill-rule="evenodd"/><path fill="#000000" fill-opacity="0.0" d="m419.38635 69.45292l0 45.51181" fill-rule="evenodd"/><path stroke="#595959" stroke-width="1.0" stroke-linejoin="round" stroke-linecap="butt" d="m419.38635 69.45292l0 39.51181" fill-rule="evenodd"/><path fill="#595959" stroke="#595959" stroke-width="1.0" stroke-linecap="butt" d="m417.73462 108.96473l1.6517334 4.538101l1.6517334 -4.538101z" fill-rule="evenodd"/><path fill="#fff2cc" d="m405.02252 50.14707l29.13385 0l0 20.125984l-29.13385 0z" fill-rule="evenodd"/><path stroke="#595959" stroke-width="1.0" stroke-linejoin="round" stroke-linecap="butt" d="m405.02252 50.14707l29.13385 0l0 20.125984l-29.13385 0z" fill-rule="evenodd"/><path fill="#000000" fill-opacity="0.0" d="m403.2666 49.98771l36.629913 0l0 23.748032l-36.629913 0z" fill-rule="evenodd"/><path fill="#000000" d="m415.03223 65.60172l0 -6.734371l-2.515625 0l0 -0.890625l6.046875 0l0 0.890625l-2.53125 0l0 6.734371l-1.0 0zm4.196747 -2.0156212l0.9375 -0.125q0.15625 0.7968712 0.546875 1.1562462q0.390625 0.34375 0.9375 0.34375q0.65625 0 1.109375 -0.453125q0.46875 -0.46875 0.46875 -1.1406212q0 -0.640625 -0.421875 -1.0625q-0.421875 -0.421875 -1.078125 -0.421875q-0.265625 0 -0.65625 0.109375l0.109375 -0.828125q0.09375 0.015625 0.140625 0.015625q0.59375 0 1.078125 -0.3125q0.484375 -0.3125 0.484375 -0.96875q0 -0.515625 -0.359375 -0.84375q-0.34375 -0.34375 -0.890625 -0.34375q-0.546875 0 -0.921875 0.34375q-0.359375 0.34375 -0.453125 1.03125l-0.9375 -0.171875q0.171875 -0.9375 0.78125 -1.453125q0.609375 -0.515625 1.5 -0.515625q0.625 0 1.15625 0.265625q0.53125 0.265625 0.796875 0.734375q0.28125 0.453125 0.28125 0.984375q0 0.484375 -0.265625 0.890625q-0.265625 0.40625 -0.78125 0.65625q0.671875 0.15625 1.046875 0.65625q0.375 0.484375 0.375 1.21875q0 0.9999962 -0.734375 1.7031212q-0.71875 0.6875 -1.828125 0.6875q-1.0 0 -1.671875 -0.59375q-0.65625 -0.609375 -0.75 -1.5624962z" fill-rule="nonzero"/><path fill="#fff2cc" d="m404.6905 113.826866l29.13388 0l0 20.125984l-29.13388 0z" fill-rule="evenodd"/><path stroke="#595959" stroke-width="1.0" stroke-linejoin="round" stroke-linecap="butt" d="m404.6905 113.826866l29.13388 0l0 20.125984l-29.13388 0z" fill-rule="evenodd"/><path fill="#f1c232" d="m404.6905 113.826866l29.13388 0l0 20.125984l-29.13388 0z" fill-rule="evenodd"/><path stroke="#595959" stroke-width="1.0" stroke-linejoin="round" stroke-linecap="butt" d="m404.6905 113.826866l29.13388 0l0 20.125984l-29.13388 0z" fill-rule="evenodd"/><path fill="#000000" fill-opacity="0.0" d="m419.77087 135.62953l0 45.51181" fill-rule="evenodd"/><path stroke="#595959" stroke-width="1.0" stroke-linejoin="round" stroke-linecap="butt" d="m419.77087 135.62955l0 39.511795" fill-rule="evenodd"/><path fill="#595959" stroke="#595959" stroke-width="1.0" stroke-linecap="butt" d="m418.11914 175.14134l1.6517334 4.538101l1.6517334 -4.538101z" fill-rule="evenodd"/><path fill="#fff2cc" d="m405.02252 178.98358l29.13385 0l0 20.125977l-29.13385 0z" fill-rule="evenodd"/><path stroke="#595959" stroke-width="1.0" stroke-linejoin="round" stroke-linecap="butt" d="m405.02252 178.98358l29.13385 0l0 20.125977l-29.13385 0z" fill-rule="evenodd"/><path fill="#fff2cc" d="m405.02252 178.98358l29.13385 0l0 20.125977l-29.13385 0z" fill-rule="evenodd"/><path stroke="#595959" stroke-width="1.0" stroke-linejoin="round" stroke-linecap="butt" d="m405.02252 178.98358l29.13385 0l0 20.125977l-29.13385 0z" fill-rule="evenodd"/><path fill="#000000" fill-opacity="0.0" d="m404.45865 178.82422l36.629913 0l0 23.748032l-36.629913 0z" fill-rule="evenodd"/><path fill="#000000" d="m416.22427 194.43823l0 -6.734375l-2.515625 0l0 -0.890625l6.046875 0l0 0.890625l-2.53125 0l0 6.734375l-1.0 0zm7.181122 0l0 -1.828125l-3.296875 0l0 -0.859375l3.46875 -4.9375l0.765625 0l0 4.9375l1.03125 0l0 0.859375l-1.03125 0l0 1.828125l-0.9375 0zm0 -2.6875l0 -3.4375l-2.375 3.4375l2.375 0z" fill-rule="nonzero"/><path fill="#000000" fill-opacity="0.0" d="m371.36768 123.889854l33.322815 0" fill-rule="evenodd"/><path stroke="#ff0000" stroke-width="1.0" stroke-linejoin="round" stroke-linecap="butt" d="m371.36765 123.889854l27.322845 0" fill-rule="evenodd"/><path fill="#ff0000" stroke="#ff0000" stroke-width="1.0" stroke-linecap="butt" d="m398.6905 125.54159l4.538086 -1.6517334l-4.538086 -1.6517334z" fill-rule="evenodd"/><path fill="#000000" fill-opacity="0.0" d="m377.31213 190.70348l12.977142 0l0 -128.85039l12.975586 0" fill-rule="evenodd"/><path stroke="#595959" stroke-width="1.0" stroke-linejoin="round" stroke-linecap="butt" d="m377.31213 190.70348l12.977142 0l0 -128.85039l6.9756165 0" fill-rule="evenodd"/><path fill="#595959" stroke="#595959" stroke-width="1.0" stroke-linecap="butt" d="m397.2649 63.504818l4.538086 -1.6517334l-4.538086 -1.6517334z" fill-rule="evenodd"/></g></svg>