<svg version="1.1" viewBox="0.0 0.0 368.501312335958 189.60892388451444" fill="none" stroke="none" stroke-linecap="square" stroke-miterlimit="10" xmlns:xlink="http://www.w3.org/1999/xlink" xmlns="http://www.w3.org/2000/svg"><clipPath id="p.0"><path d="m0 0l368.5013 0l0 189.60892l-368.5013 0l0 -189.60892z" clip-rule="nonzero"/></clipPath><g clip-path="url(#p.0)"><path fill="#000000" fill-opacity="0.0" d="m0 0l368.5013 0l0 189.60892l-368.5013 0z" fill-rule="evenodd"/><path fill="#000000" fill-opacity="0.0" d="m96.0 12.527559l265.7638 0" fill-rule="evenodd"/><path stroke="#000000" stroke-width="1.0" stroke-linejoin="round" stroke-linecap="butt" d="m96.0 12.527559l265.7638 0" fill-rule="evenodd"/><path fill="#000000" fill-opacity="0.0" d="m96.0 62.1238l265.7638 0" fill-rule="evenodd"/><path stroke="#000000" stroke-width="1.0" stroke-linejoin="round" stroke-linecap="butt" d="m96.0 62.1238l265.7638 0" fill-rule="evenodd"/><path fill="#000000" fill-opacity="0.0" d="m96.0 111.71872l265.7638 0" fill-rule="evenodd"/><path stroke="#000000" stroke-width="1.0" stroke-linejoin="round" stroke-linecap="butt" d="m96.0 111.71872l265.7638 0" fill-rule="evenodd"/><path fill="#000000" fill-opacity="0.0" d="m96.0 161.31496l265.7638 0" fill-rule="evenodd"/><path stroke="#000000" stroke-width="1.0" stroke-linejoin="round" stroke-linecap="butt" d="m96.0 161.31496l265.7638 0" fill-rule="evenodd"/><path fill="#000000" fill-opacity="0.0" d="m19.128609 17.581366l109.826775 0l0 39.622047l-109.826775 0z" fill-rule="evenodd"/><path fill="#000000" d="m32.019234 35.162613q-1.609375 -0.46875 -2.34375 -1.140625q-0.734375 -0.671875 -0.734375 -1.65625q0 -1.1249981 0.890625 -1.8593731q0.90625 -0.734375 2.34375 -0.734375q0.96875 0 1.734375 0.390625q0.765625 0.375 1.1875 1.046875q0.421875 0.65625 0.421875 1.4374981l-1.265625 0q0 -0.8593731 -0.546875 -1.3437481q-0.546875 -0.5 -1.53125 -0.5q-0.921875 0 -1.453125 0.40625q-0.515625 0.40625 -0.515625 1.1249981q0 0.578125 0.484375 0.984375q0.5 0.40625 1.671875 0.734375q1.1875 0.328125 1.859375 0.734375q0.671875 0.390625 0.984375 0.9375q0.328125 0.53125 0.328125 1.25q0 1.15625 -0.90625 1.84375q-0.890625 0.6875 -2.390625 0.6875q-0.984375 0 -1.828125 -0.375q-0.84375 -0.375 -1.3125 -1.015625q-0.453125 -0.65625 -0.453125 -1.484375l1.265625 0q0 0.859375 0.625 1.359375q0.640625 0.5 1.703125 0.5q0.984375 0 1.515625 -0.40625q0.53125 -0.40625 0.53125 -1.09375q0 -0.703125 -0.5 -1.078125q-0.484375 -0.390625 -1.765625 -0.75zm7.844574 4.34375q-1.421875 0 -2.328125 -0.9375q-0.890625 -0.9375 -0.890625 -2.515625l0 -0.21875q0 -1.046875 0.390625 -1.859375q0.40625 -0.828125 1.125 -1.296875q0.71875 -0.46875 1.5625 -0.46875q1.375 0 2.125 0.90625q0.765625 0.90625 0.765625 2.59375l0 0.5l-4.765625 0q0.015625 1.03125 0.59375 1.671875q0.59375 0.640625 1.484375 0.640625q0.640625 0 1.078125 -0.25q0.453125 -0.265625 0.78125 -0.6875l0.734375 0.5625q-0.875 1.359375 -2.65625 1.359375zm-0.140625 -6.3125q-0.734375 0 -1.234375 0.53125q-0.484375 0.53125 -0.609375 1.484375l3.53125 0l0 -0.078125q-0.046875 -0.921875 -0.5 -1.421875q-0.4375 -0.515625 -1.1875 -0.515625zm5.4204254 -0.859375l0.046875 0.890625q0.796875 -1.015625 2.109375 -1.015625q2.234375 0 2.25 2.515625l0 4.65625l-1.203125 0l0 -4.65625q-0.015625 -0.765625 -0.359375 -1.125q-0.328125 -0.375 -1.0625 -0.375q-0.578125 0 -1.03125 0.3125q-0.4375 0.3125 -0.6875 0.828125l0 5.015625l-1.203125 0l0 -7.046875l1.140625 0zm10.322647 5.171875q0 -0.484375 -0.375 -0.75q-0.359375 -0.265625 -1.28125 -0.453125q-0.90625 -0.203125 -1.453125 -0.46875q-0.53125 -0.28125 -0.796875 -0.65625q-0.25 -0.390625 -0.25 -0.90625q0 -0.859375 0.734375 -1.453125q0.734375 -0.609375 1.875 -0.609375q1.1875 0 1.9375 0.625q0.75 0.609375 0.75 1.578125l-1.21875 0q0 -0.5 -0.421875 -0.859375q-0.421875 -0.359375 -1.046875 -0.359375q-0.65625 0 -1.03125 0.296875q-0.375 0.28125 -0.375 0.75q0 0.421875 0.34375 0.65625q0.34375 0.21875 1.25 0.421875q0.90625 0.203125 1.453125 0.484375q0.5625 0.265625 0.828125 0.671875q0.28125 0.390625 0.28125 0.953125q0 0.9375 -0.765625 1.515625q-0.75 0.5625 -1.953125 0.5625q-0.84375 0 -1.5 -0.296875q-0.640625 -0.296875 -1.015625 -0.828125q-0.359375 -0.546875 -0.359375 -1.171875l1.203125 0q0.03125 0.609375 0.484375 0.96875q0.453125 0.34375 1.1875 0.34375q0.6875 0 1.09375 -0.265625q0.421875 -0.28125 0.421875 -0.75zm2.4504395 -1.703125q0 -1.046875 0.40625 -1.875q0.40625 -0.828125 1.125 -1.265625q0.734375 -0.453125 1.65625 -0.453125q1.4375 0 2.328125 1.0q0.890625 0.984375 0.890625 2.640625l0 0.09375q0 1.015625 -0.390625 1.84375q-0.390625 0.8125 -1.125 1.265625q-0.734375 0.453125 -1.6875 0.453125q-1.421875 0 -2.3125 -0.984375q-0.890625 -1.0 -0.890625 -2.640625l0 -0.078125zm1.203125 0.140625q0 1.171875 0.546875 1.875q0.546875 0.703125 1.453125 0.703125q0.921875 0 1.453125 -0.71875q0.546875 -0.71875 0.546875 -2.0q0 -1.171875 -0.546875 -1.890625q-0.546875 -0.71875 -1.46875 -0.71875q-0.890625 0 -1.4375 0.71875q-0.546875 0.703125 -0.546875 2.03125zm10.116821 -2.53125q-0.265625 -0.03125 -0.59375 -0.03125q-1.1875 0 -1.609375 1.0l0 5.0l-1.203125 0l0 -7.046875l1.171875 0l0.03125 0.8125q0.578125 -0.9375 1.671875 -0.9375q0.34375 0 0.53125 0.09375l0 1.109375zm3.901886 6.09375q-1.421875 0 -2.328125 -0.9375q-0.890625 -0.9375 -0.890625 -2.515625l0 -0.21875q0 -1.046875 0.390625 -1.859375q0.40625 -0.828125 1.125 -1.296875q0.71875 -0.46875 1.5625 -0.46875q1.375 0 2.125 0.90625q0.765625 0.90625 0.765625 2.59375l0 0.5l-4.765625 0q0.015625 1.03125 0.59375 1.671875q0.59375 0.640625 1.484375 0.640625q0.640625 0 1.078125 -0.25q0.453125 -0.265625 0.78125 -0.6875l0.734375 0.5625q-0.875 1.359375 -2.65625 1.359375zm-0.140625 -6.3125q-0.734375 0 -1.234375 0.53125q-0.484375 0.53125 -0.609375 1.484375l3.53125 0l0 -0.078125q-0.046875 -0.921875 -0.5 -1.421875q-0.4375 -0.515625 -1.1875 -0.515625zm11.42305 6.1875l-1.21875 0l0 -8.031248l-2.421875 0.9062481l0 -1.0937481l3.453125 -1.296875l0.1875 0l0 9.515623z" fill-rule="nonzero"/><path fill="#000000" fill-opacity="0.0" d="m19.128609 67.10968l109.826775 0l0 39.622047l-109.826775 0z" fill-rule="evenodd"/><path fill="#000000" d="m32.019234 84.690926q-1.609375 -0.46875 -2.34375 -1.140625q-0.734375 -0.671875 -0.734375 -1.65625q0 -1.125 0.890625 -1.859375q0.90625 -0.734375 2.34375 -0.734375q0.96875 0 1.734375 0.390625q0.765625 0.375 1.1875 1.046875q0.421875 0.65625 0.421875 1.4375l-1.265625 0q0 -0.859375 -0.546875 -1.34375q-0.546875 -0.5 -1.53125 -0.5q-0.921875 0 -1.453125 0.40625q-0.515625 0.40625 -0.515625 1.125q0 0.578125 0.484375 0.984375q0.5 0.40625 1.671875 0.734375q1.1875 0.328125 1.859375 0.734375q0.671875 0.390625 0.984375 0.9375q0.328125 0.53125 0.328125 1.25q0 1.15625 -0.90625 1.84375q-0.890625 0.6875 -2.390625 0.6875q-0.984375 0 -1.828125 -0.375q-0.84375 -0.375 -1.3125 -1.015625q-0.453125 -0.65625 -0.453125 -1.484375l1.265625 0q0 0.859375 0.625 1.359375q0.640625 0.5 1.703125 0.5q0.984375 0 1.515625 -0.40625q0.53125 -0.40625 0.53125 -1.09375q0 -0.703125 -0.5 -1.078125q-0.484375 -0.390625 -1.765625 -0.75zm7.844574 4.34375q-1.421875 0 -2.328125 -0.9375q-0.890625 -0.9375 -0.890625 -2.515625l0 -0.21875q0 -1.046875 0.390625 -1.859375q0.40625 -0.828125 1.125 -1.296875q0.71875 -0.46875 1.5625 -0.46875q1.375 0 2.125 0.90625q0.765625 0.90625 0.765625 2.59375l0 0.5l-4.765625 0q0.015625 1.03125 0.59375 1.671875q0.59375 0.640625 1.484375 0.640625q0.640625 0 1.078125 -0.25q0.453125 -0.265625 0.78125 -0.6875l0.734375 0.5625q-0.875 1.359375 -2.65625 1.359375zm-0.140625 -6.3125q-0.734375 0 -1.234375 0.53125q-0.484375 0.53125 -0.609375 1.484375l3.53125 0l0 -0.078125q-0.046875 -0.921875 -0.5 -1.421875q-0.4375 -0.515625 -1.1875 -0.515625zm5.4204254 -0.859375l0.046875 0.890625q0.796875 -1.015625 2.109375 -1.015625q2.234375 0 2.25 2.515625l0 4.65625l-1.203125 0l0 -4.65625q-0.015625 -0.765625 -0.359375 -1.125q-0.328125 -0.375 -1.0625 -0.375q-0.578125 0 -1.03125 0.3125q-0.4375 0.3125 -0.6875 0.828125l0 5.015625l-1.203125 0l0 -7.046875l1.140625 0zm10.322647 5.171875q0 -0.484375 -0.375 -0.75q-0.359375 -0.265625 -1.28125 -0.453125q-0.90625 -0.203125 -1.453125 -0.46875q-0.53125 -0.28125 -0.796875 -0.65625q-0.25 -0.390625 -0.25 -0.90625q0 -0.859375 0.734375 -1.453125q0.734375 -0.609375 1.875 -0.609375q1.1875 0 1.9375 0.625q0.75 0.609375 0.75 1.578125l-1.21875 0q0 -0.5 -0.421875 -0.859375q-0.421875 -0.359375 -1.046875 -0.359375q-0.65625 0 -1.03125 0.296875q-0.375 0.28125 -0.375 0.75q0 0.421875 0.34375 0.65625q0.34375 0.21875 1.25 0.421875q0.90625 0.203125 1.453125 0.484375q0.5625 0.265625 0.828125 0.671875q0.28125 0.390625 0.28125 0.953125q0 0.9375 -0.765625 1.515625q-0.75 0.5625 -1.953125 0.5625q-0.84375 0 -1.5 -0.296875q-0.640625 -0.296875 -1.015625 -0.828125q-0.359375 -0.546875 -0.359375 -1.171875l1.203125 0q0.03125 0.609375 0.484375 0.96875q0.453125 0.34375 1.1875 0.34375q0.6875 0 1.09375 -0.265625q0.421875 -0.28125 0.421875 -0.75zm2.4504395 -1.703125q0 -1.046875 0.40625 -1.875q0.40625 -0.828125 1.125 -1.265625q0.734375 -0.453125 1.65625 -0.453125q1.4375 0 2.328125 1.0q0.890625 0.984375 0.890625 2.640625l0 0.09375q0 1.015625 -0.390625 1.84375q-0.390625 0.8125 -1.125 1.265625q-0.734375 0.453125 -1.6875 0.453125q-1.421875 0 -2.3125 -0.984375q-0.890625 -1.0 -0.890625 -2.640625l0 -0.078125zm1.203125 0.140625q0 1.171875 0.546875 1.875q0.546875 0.703125 1.453125 0.703125q0.921875 0 1.453125 -0.71875q0.546875 -0.71875 0.546875 -2.0q0 -1.171875 -0.546875 -1.890625q-0.546875 -0.71875 -1.46875 -0.71875q-0.890625 0 -1.4375 0.71875q-0.546875 0.703125 -0.546875 2.03125zm10.116821 -2.53125q-0.265625 -0.03125 -0.59375 -0.03125q-1.1875 0 -1.609375 1.0l0 5.0l-1.203125 0l0 -7.046875l1.171875 0l0.03125 0.8125q0.578125 -0.9375 1.671875 -0.9375q0.34375 0 0.53125 0.09375l0 1.109375zm3.901886 6.09375q-1.421875 0 -2.328125 -0.9375q-0.890625 -0.9375 -0.890625 -2.515625l0 -0.21875q0 -1.046875 0.390625 -1.859375q0.40625 -0.828125 1.125 -1.296875q0.71875 -0.46875 1.5625 -0.46875q1.375 0 2.125 0.90625q0.765625 0.90625 0.765625 2.59375l0 0.5l-4.765625 0q0.015625 1.03125 0.59375 1.671875q0.59375 0.640625 1.484375 0.640625q0.640625 0 1.078125 -0.25q0.453125 -0.265625 0.78125 -0.6875l0.734375 0.5625q-0.875 1.359375 -2.65625 1.359375zm-0.140625 -6.3125q-0.734375 0 -1.234375 0.53125q-0.484375 0.53125 -0.609375 1.484375l3.53125 0l0 -0.078125q-0.046875 -0.921875 -0.5 -1.421875q-0.4375 -0.515625 -1.1875 -0.515625zm13.67305 6.1875l-6.21875 0l0 -0.859375l3.28125 -3.65625q0.734375 -0.828125 1.0 -1.34375q0.28125 -0.515625 0.28125 -1.0625q0 -0.75 -0.453125 -1.21875q-0.4375 -0.46875 -1.1875 -0.46875q-0.890625 0 -1.390625 0.515625q-0.5 0.5 -0.5 1.40625l-1.203125 0q0 -1.296875 0.84375 -2.109375q0.84375 -0.8125 2.25 -0.8125q1.328125 0 2.09375 0.703125q0.765625 0.6875 0.765625 1.84375q0 1.390625 -1.78125 3.328125l-2.546875 2.75l4.765625 0l0 0.984375z" fill-rule="nonzero"/><path fill="#000000" fill-opacity="0.0" d="m19.128609 116.63799l109.826775 0l0 39.622047l-109.826775 0z" fill-rule="evenodd"/><path fill="#000000" d="m32.019234 134.21924q-1.609375 -0.46875 -2.34375 -1.140625q-0.734375 -0.671875 -0.734375 -1.65625q0 -1.125 0.890625 -1.859375q0.90625 -0.734375 2.34375 -0.734375q0.96875 0 1.734375 0.390625q0.765625 0.375 1.1875 1.046875q0.421875 0.65625 0.421875 1.4375l-1.265625 0q0 -0.859375 -0.546875 -1.34375q-0.546875 -0.5 -1.53125 -0.5q-0.921875 0 -1.453125 0.40625q-0.515625 0.40625 -0.515625 1.125q0 0.578125 0.484375 0.984375q0.5 0.40625 1.671875 0.734375q1.1875 0.328125 1.859375 0.734375q0.671875 0.390625 0.984375 0.9375q0.328125 0.53125 0.328125 1.25q0 1.15625 -0.90625 1.84375q-0.890625 0.6875 -2.390625 0.6875q-0.984375 0 -1.828125 -0.375q-0.84375 -0.375 -1.3125 -1.015625q-0.453125 -0.65625 -0.453125 -1.484375l1.265625 0q0 0.859375 0.625 1.359375q0.640625 0.5 1.703125 0.5q0.984375 0 1.515625 -0.40625q0.53125 -0.40625 0.53125 -1.09375q0 -0.703125 -0.5 -1.078125q-0.484375 -0.390625 -1.765625 -0.75zm7.844574 4.34375q-1.421875 0 -2.328125 -0.9375q-0.890625 -0.9375 -0.890625 -2.515625l0 -0.21875q0 -1.046875 0.390625 -1.859375q0.40625 -0.828125 1.125 -1.296875q0.71875 -0.46875 1.5625 -0.46875q1.375 0 2.125 0.90625q0.765625 0.90625 0.765625 2.59375l0 0.5l-4.765625 0q0.015625 1.03125 0.59375 1.671875q0.59375 0.640625 1.484375 0.640625q0.640625 0 1.078125 -0.25q0.453125 -0.265625 0.78125 -0.6875l0.734375 0.5625q-0.875 1.359375 -2.65625 1.359375zm-0.140625 -6.3125q-0.734375 0 -1.234375 0.53125q-0.484375 0.53125 -0.609375 1.484375l3.53125 0l0 -0.078125q-0.046875 -0.921875 -0.5 -1.421875q-0.4375 -0.515625 -1.1875 -0.515625zm5.4204254 -0.859375l0.046875 0.890625q0.796875 -1.015625 2.109375 -1.015625q2.234375 0 2.25 2.515625l0 4.65625l-1.203125 0l0 -4.65625q-0.015625 -0.765625 -0.359375 -1.125q-0.328125 -0.375 -1.0625 -0.375q-0.578125 0 -1.03125 0.3125q-0.4375 0.3125 -0.6875 0.828125l0 5.015625l-1.203125 0l0 -7.046875l1.140625 0zm10.322647 5.171875q0 -0.484375 -0.375 -0.75q-0.359375 -0.265625 -1.28125 -0.453125q-0.90625 -0.203125 -1.453125 -0.46875q-0.53125 -0.28125 -0.796875 -0.65625q-0.25 -0.390625 -0.25 -0.90625q0 -0.859375 0.734375 -1.453125q0.734375 -0.609375 1.875 -0.609375q1.1875 0 1.9375 0.625q0.75 0.609375 0.75 1.578125l-1.21875 0q0 -0.5 -0.421875 -0.859375q-0.421875 -0.359375 -1.046875 -0.359375q-0.65625 0 -1.03125 0.296875q-0.375 0.28125 -0.375 0.75q0 0.421875 0.34375 0.65625q0.34375 0.21875 1.25 0.421875q0.90625 0.203125 1.453125 0.484375q0.5625 0.265625 0.828125 0.671875q0.28125 0.390625 0.28125 0.953125q0 0.9375 -0.765625 1.515625q-0.75 0.5625 -1.953125 0.5625q-0.84375 0 -1.5 -0.296875q-0.640625 -0.296875 -1.015625 -0.828125q-0.359375 -0.546875 -0.359375 -1.171875l1.203125 0q0.03125 0.609375 0.484375 0.96875q0.453125 0.34375 1.1875 0.34375q0.6875 0 1.09375 -0.265625q0.421875 -0.28125 0.421875 -0.75zm2.4504395 -1.703125q0 -1.046875 0.40625 -1.875q0.40625 -0.828125 1.125 -1.265625q0.734375 -0.453125 1.65625 -0.453125q1.4375 0 2.328125 1.0q0.890625 0.984375 0.890625 2.640625l0 0.09375q0 1.015625 -0.390625 1.84375q-0.390625 0.8125 -1.125 1.265625q-0.734375 0.453125 -1.6875 0.453125q-1.421875 0 -2.3125 -0.984375q-0.890625 -1.0 -0.890625 -2.640625l0 -0.078125zm1.203125 0.140625q0 1.171875 0.546875 1.875q0.546875 0.703125 1.453125 0.703125q0.921875 0 1.453125 -0.71875q0.546875 -0.71875 0.546875 -2.0q0 -1.171875 -0.546875 -1.890625q-0.546875 -0.71875 -1.46875 -0.71875q-0.890625 0 -1.4375 0.71875q-0.546875 0.703125 -0.546875 2.03125zm10.116821 -2.53125q-0.265625 -0.03125 -0.59375 -0.03125q-1.1875 0 -1.609375 1.0l0 5.0l-1.203125 0l0 -7.046875l1.171875 0l0.03125 0.8125q0.578125 -0.9375 1.671875 -0.9375q0.34375 0 0.53125 0.09375l0 1.109375zm3.901886 6.09375q-1.421875 0 -2.328125 -0.9375q-0.890625 -0.9375 -0.890625 -2.515625l0 -0.21875q0 -1.046875 0.390625 -1.859375q0.40625 -0.828125 1.125 -1.296875q0.71875 -0.46875 1.5625 -0.46875q1.375 0 2.125 0.90625q0.765625 0.90625 0.765625 2.59375l0 0.5l-4.765625 0q0.015625 1.03125 0.59375 1.671875q0.59375 0.640625 1.484375 0.640625q0.640625 0 1.078125 -0.25q0.453125 -0.265625 0.78125 -0.6875l0.734375 0.5625q-0.875 1.359375 -2.65625 1.359375zm-0.140625 -6.3125q-0.734375 0 -1.234375 0.53125q-0.484375 0.53125 -0.609375 1.484375l3.53125 0l0 -0.078125q-0.046875 -0.921875 -0.5 -1.421875q-0.4375 -0.515625 -1.1875 -0.515625zm9.2043 0.859375l0.90625 0q0.859375 -0.015625 1.34375 -0.4375q0.484375 -0.4375 0.484375 -1.1875q0 -1.65625 -1.65625 -1.65625q-0.78125 0 -1.25 0.453125q-0.453125 0.4375 -0.453125 1.171875l-1.203125 0q0 -1.125 0.8125 -1.875q0.828125 -0.75 2.09375 -0.75q1.34375 0 2.09375 0.71875q0.765625 0.703125 0.765625 1.96875q0 0.609375 -0.40625 1.203125q-0.390625 0.578125 -1.078125 0.859375q0.78125 0.25 1.203125 0.828125q0.4375 0.5625 0.4375 1.390625q0 1.28125 -0.84375 2.03125q-0.828125 0.734375 -2.171875 0.734375q-1.328125 0 -2.171875 -0.71875q-0.828125 -0.71875 -0.828125 -1.90625l1.21875 0q0 0.75 0.484375 1.203125q0.484375 0.4375 1.3125 0.4375q0.859375 0 1.328125 -0.453125q0.46875 -0.453125 0.46875 -1.296875q0 -0.828125 -0.515625 -1.265625q-0.5 -0.453125 -1.46875 -0.46875l-0.90625 0l0 -0.984375z" fill-rule="nonzero"/><path fill="#000000" fill-opacity="0.0" d="m96.00047 11.54687l0 150.39369" fill-rule="evenodd"/><path stroke="#000000" stroke-width="1.0" stroke-linejoin="round" stroke-linecap="butt" d="m96.00047 11.54687l0 150.39369" fill-rule="evenodd"/><path fill="#000000" fill-opacity="0.0" d="m84.81102 153.49344l377.7323 0l0 28.157486l-377.7323 0z" fill-rule="evenodd"/><path fill="#000000" d="m101.21727 172.13594q0 2.3125 -0.796875 3.453125q-0.796875 1.125 -2.484375 1.125q-1.671875 0 -2.46875 -1.09375q-0.796875 -1.109375 -0.828125 -3.3125l0 -1.765625q0 -2.296875 0.78125 -3.40625q0.796875 -1.125 2.5 -1.125q1.6875 0 2.46875 1.078125q0.796875 1.078125 0.828125 3.328125l0 1.71875zm-1.328125 -1.8125q0 -1.6875 -0.484375 -2.453125q-0.46875 -0.765625 -1.484375 -0.765625q-1.015625 0 -1.484375 0.765625q-0.46875 0.765625 -0.484375 2.34375l0 2.125q0 1.6875 0.484375 2.5q0.5 0.796875 1.5 0.796875q0.984375 0 1.453125 -0.75q0.46875 -0.765625 0.5 -2.40625l0 -2.15625z" fill-rule="nonzero"/><path fill="#000000" d="m150.65805 176.57344l-1.328125 0l0 -8.828125l-2.671875 0.984375l0 -1.203125l3.796875 -1.421875l0.203125 0l0 10.46875zm4.479828 -5.21875l0.53125 -5.203125l5.34375 0l0 1.21875l-4.21875 0l-0.3125 2.84375q0.765625 -0.453125 1.734375 -0.453125q1.421875 0 2.265625 0.953125q0.84375 0.9375 0.84375 2.53125q0 1.625 -0.875 2.546875q-0.875 0.921875 -2.4375 0.921875q-1.375 0 -2.25 -0.765625q-0.875 -0.765625 -0.984375 -2.109375l1.25 0q0.109375 0.890625 0.625 1.34375q0.515625 0.453125 1.359375 0.453125q0.9375 0 1.453125 -0.625q0.53125 -0.640625 0.53125 -1.75q0 -1.03125 -0.578125 -1.671875q-0.5625 -0.640625 -1.5 -0.640625q-0.875 0 -1.359375 0.390625l-0.359375 0.28125l-1.0625 -0.265625z" fill-rule="nonzero"/><path fill="#000000" d="m207.12102 170.71407l0.984375 0q0.9375 -0.015625 1.46875 -0.484375q0.546875 -0.484375 0.546875 -1.296875q0 -1.828125 -1.828125 -1.828125q-0.859375 0 -1.375 0.484375q-0.5 0.484375 -0.5 1.296875l-1.328125 0q0 -1.234375 0.90625 -2.046875q0.90625 -0.828125 2.296875 -0.828125q1.484375 0 2.3125 0.78125q0.84375 0.78125 0.84375 2.171875q0 0.671875 -0.453125 1.3125q-0.4375 0.640625 -1.1875 0.953125q0.859375 0.265625 1.328125 0.90625q0.46875 0.625 0.46875 1.53125q0 1.40625 -0.921875 2.234375q-0.90625 0.8125 -2.375 0.8125q-1.46875 0 -2.390625 -0.796875q-0.921875 -0.796875 -0.921875 -2.09375l1.328125 0q0 0.828125 0.53125 1.328125q0.546875 0.484375 1.453125 0.484375q0.953125 0 1.453125 -0.5q0.515625 -0.5 0.515625 -1.4375q0 -0.90625 -0.5625 -1.390625q-0.546875 -0.5 -1.609375 -0.5l-0.984375 0l0 -1.09375zm12.839203 1.421875q0 2.3125 -0.796875 3.453125q-0.796875 1.125 -2.484375 1.125q-1.671875 0 -2.46875 -1.09375q-0.796875 -1.109375 -0.828125 -3.3125l0 -1.765625q0 -2.296875 0.78125 -3.40625q0.796875 -1.125 2.5 -1.125q1.6875 0 2.46875 1.078125q0.796875 1.078125 0.828125 3.328125l0 1.71875zm-1.328125 -1.8125q0 -1.6875 -0.484375 -2.453125q-0.46875 -0.765625 -1.484375 -0.765625q-1.015625 0 -1.484375 0.765625q-0.46875 0.765625 -0.484375 2.34375l0 2.125q0 1.6875 0.484375 2.5q0.5 0.796875 1.5 0.796875q0.984375 0 1.453125 -0.75q0.46875 -0.765625 0.5 -2.40625l0 -2.15625z" fill-rule="nonzero"/><path fill="#000000" d="m273.2904 173.07344l1.453125 0l0 1.078125l-1.453125 0l0 2.421875l-1.328125 0l0 -2.421875l-4.75 0l0 -0.78125l4.671875 -7.21875l1.40625 0l0 6.921875zm-4.578125 0l3.25 0l0 -5.109375l-0.15625 0.28125l-3.09375 4.828125zm7.823578 -1.71875l0.53125 -5.203125l5.34375 0l0 1.21875l-4.21875 0l-0.3125 2.84375q0.765625 -0.453125 1.734375 -0.453125q1.421875 0 2.265625 0.953125q0.84375 0.9375 0.84375 2.53125q0 1.625 -0.875 2.546875q-0.875 0.921875 -2.4375 0.921875q-1.375 0 -2.25 -0.765625q-0.875 -0.765625 -0.984375 -2.109375l1.25 0q0.109375 0.890625 0.625 1.34375q0.515625 0.453125 1.359375 0.453125q0.9375 0 1.453125 -0.625q0.53125 -0.640625 0.53125 -1.75q0 -1.03125 -0.578125 -1.671875q-0.5625 -0.640625 -1.5 -0.640625q-0.875 0 -1.359375 0.390625l-0.359375 0.28125l-1.0625 -0.265625z" fill-rule="nonzero"/><path fill="#000000" d="m328.15634 166.15157l0 1.125l-0.25 0q-1.546875 0.015625 -2.46875 0.90625q-0.90625 0.890625 -1.046875 2.5q0.828125 -0.9375 2.25 -0.9375q1.359375 0 2.171875 0.953125q0.8125 0.953125 0.8125 2.46875q0 1.609375 -0.875 2.578125q-0.875 0.96875 -2.359375 0.96875q-1.484375 0 -2.421875 -1.140625q-0.9375 -1.15625 -0.9375 -2.96875l0 -0.5q0 -2.875 1.234375 -4.390625q1.234375 -1.53125 3.65625 -1.5625l0.234375 0zm-1.734375 4.6875q-0.6875 0 -1.265625 0.40625q-0.5625 0.40625 -0.78125 1.03125l0 0.484375q0 1.28125 0.578125 2.078125q0.578125 0.78125 1.4375 0.78125q0.90625 0 1.40625 -0.65625q0.515625 -0.65625 0.515625 -1.71875q0 -1.078125 -0.515625 -1.734375q-0.515625 -0.671875 -1.375 -0.671875zm11.307953 1.296875q0 2.3125 -0.796875 3.453125q-0.796875 1.125 -2.484375 1.125q-1.671875 0 -2.46875 -1.09375q-0.796875 -1.109375 -0.828125 -3.3125l0 -1.765625q0 -2.296875 0.78125 -3.40625q0.796875 -1.125 2.5 -1.125q1.6875 0 2.46875 1.078125q0.796875 1.078125 0.828125 3.328125l0 1.71875zm-1.328125 -1.8125q0 -1.6875 -0.484375 -2.453125q-0.46875 -0.765625 -1.484375 -0.765625q-1.015625 0 -1.484375 0.765625q-0.46875 0.765625 -0.484375 2.34375l0 2.125q0 1.6875 0.484375 2.5q0.5 0.796875 1.5 0.796875q0.984375 0 1.453125 -0.75q0.46875 -0.765625 0.5 -2.40625l0 -2.15625z" fill-rule="nonzero"/><path fill="#000000" fill-opacity="0.0" d="m155.16057 11.54687l0 150.39369" fill-rule="evenodd"/><path stroke="#000000" stroke-width="1.0" stroke-linejoin="round" stroke-linecap="butt" d="m155.16057 11.54687l0 150.39369" fill-rule="evenodd"/><path fill="#000000" fill-opacity="0.0" d="m155.16057 11.54687l0 150.39369" fill-rule="evenodd"/><path stroke="#000000" stroke-width="1.0" stroke-linejoin="round" stroke-linecap="butt" d="m155.16057 11.54687l0 150.39369" fill-rule="evenodd"/><path fill="#000000" fill-opacity="0.0" d="m214.32068 11.54687l0 150.39369" fill-rule="evenodd"/><path stroke="#000000" stroke-width="1.0" stroke-linejoin="round" stroke-linecap="butt" d="m214.32068 11.54687l0 150.39369" fill-rule="evenodd"/><path fill="#000000" fill-opacity="0.0" d="m214.32068 11.54687l0 150.39369" fill-rule="evenodd"/><path stroke="#000000" stroke-width="1.0" stroke-linejoin="round" stroke-linecap="butt" d="m214.32068 11.54687l0 150.39369" fill-rule="evenodd"/><path fill="#000000" fill-opacity="0.0" d="m273.48077 11.54687l0 150.39369" fill-rule="evenodd"/><path stroke="#000000" stroke-width="1.0" stroke-linejoin="round" stroke-linecap="butt" d="m273.48077 11.54687l0 150.39369" fill-rule="evenodd"/><path fill="#000000" fill-opacity="0.0" d="m273.48077 11.54687l0 150.39369" fill-rule="evenodd"/><path stroke="#000000" stroke-width="1.0" stroke-linejoin="round" stroke-linecap="butt" d="m273.48077 11.54687l0 150.39369" fill-rule="evenodd"/><path fill="#000000" fill-opacity="0.0" d="m332.6409 11.54687l0 150.39369" fill-rule="evenodd"/><path stroke="#000000" stroke-width="1.0" stroke-linejoin="round" stroke-linecap="butt" d="m332.6409 11.54687l0 150.39369" fill-rule="evenodd"/><path fill="#cfe2f3" d="m136.75598 68.10236l37.039368 0l0 15.937004l-37.039368 0z" fill-rule="evenodd"/><path stroke="#000000" stroke-width="1.0" stroke-linejoin="round" stroke-linecap="butt" d="m136.75598 68.10236l37.039368 0l0 15.937004l-37.039368 0z" fill-rule="evenodd"/><path fill="#000000" d="m150.35466 79.81087l-0.9375 0l0 -5.96875q-0.34375 0.328125 -0.890625 0.65625q-0.546875 0.3125 -0.984375 0.46875l0 -0.90625q0.796875 -0.359375 1.375 -0.890625q0.59375 -0.53125 0.828125 -1.015625l0.609375 0l0 7.65625zm2.3952484 -3.765625q0 -1.34375 0.28125 -2.171875q0.28125 -0.828125 0.828125 -1.265625q0.546875 -0.453125 1.375 -0.453125q0.625 0 1.078125 0.25q0.46875 0.234375 0.765625 0.703125q0.3125 0.46875 0.484375 1.140625q0.171875 0.671875 0.171875 1.796875q0 1.34375 -0.28125 2.171875q-0.28125 0.828125 -0.828125 1.28125q-0.546875 0.4375 -1.390625 0.4375q-1.09375 0 -1.71875 -0.78125q-0.765625 -0.953125 -0.765625 -3.109375zm0.96875 0q0 1.875 0.4375 2.5q0.4375 0.625 1.078125 0.625q0.65625 0 1.09375 -0.625q0.4375 -0.625 0.4375 -2.5q0 -1.875 -0.4375 -2.5q-0.4375 -0.625 -1.09375 -0.625q-0.640625 0 -1.03125 0.546875q-0.484375 0.703125 -0.484375 2.578125zm4.9577484 0q0 -1.34375 0.28125 -2.171875q0.28125 -0.828125 0.828125 -1.265625q0.546875 -0.453125 1.375 -0.453125q0.625 0 1.078125 0.25q0.46875 0.234375 0.765625 0.703125q0.3125 0.46875 0.484375 1.140625q0.171875 0.671875 0.171875 1.796875q0 1.34375 -0.28125 2.171875q-0.28125 0.828125 -0.828125 1.28125q-0.546875 0.4375 -1.390625 0.4375q-1.09375 0 -1.71875 -0.78125q-0.765625 -0.953125 -0.765625 -3.109375zm0.96875 0q0 1.875 0.4375 2.5q0.4375 0.625 1.078125 0.625q0.65625 0 1.09375 -0.625q0.4375 -0.625 0.4375 -2.5q0 -1.875 -0.4375 -2.5q-0.4375 -0.625 -1.09375 -0.625q-0.640625 0 -1.03125 0.546875q-0.484375 0.703125 -0.484375 2.578125z" fill-rule="nonzero"/><path fill="#cfe2f3" d="m195.8006 68.10236l37.039368 0l0 15.937004l-37.039368 0z" fill-rule="evenodd"/><path stroke="#000000" stroke-width="1.0" stroke-linejoin="round" stroke-linecap="butt" d="m195.8006 68.10236l37.039368 0l0 15.937004l-37.039368 0z" fill-rule="evenodd"/><path fill="#000000" d="m209.39928 79.81087l-0.9375 0l0 -5.96875q-0.34375 0.328125 -0.890625 0.65625q-0.546875 0.3125 -0.984375 0.46875l0 -0.90625q0.796875 -0.359375 1.375 -0.890625q0.59375 -0.53125 0.828125 -1.015625l0.609375 0l0 7.65625zm2.3952484 -3.765625q0 -1.34375 0.28125 -2.171875q0.28125 -0.828125 0.828125 -1.265625q0.546875 -0.453125 1.375 -0.453125q0.625 0 1.078125 0.25q0.46875 0.234375 0.765625 0.703125q0.3125 0.46875 0.484375 1.140625q0.171875 0.671875 0.171875 1.796875q0 1.34375 -0.28125 2.171875q-0.28125 0.828125 -0.828125 1.28125q-0.546875 0.4375 -1.390625 0.4375q-1.09375 0 -1.71875 -0.78125q-0.765625 -0.953125 -0.765625 -3.109375zm0.96875 0q0 1.875 0.4375 2.5q0.4375 0.625 1.078125 0.625q0.65625 0 1.09375 -0.625q0.4375 -0.625 0.4375 -2.5q0 -1.875 -0.4375 -2.5q-0.4375 -0.625 -1.09375 -0.625q-0.640625 0 -1.03125 0.546875q-0.484375 0.703125 -0.484375 2.578125zm4.9577484 0q0 -1.34375 0.28125 -2.171875q0.28125 -0.828125 0.828125 -1.265625q0.546875 -0.453125 1.375 -0.453125q0.625 0 1.078125 0.25q0.46875 0.234375 0.765625 0.703125q0.3125 0.46875 0.484375 1.140625q0.171875 0.671875 0.171875 1.796875q0 1.34375 -0.28125 2.171875q-0.28125 0.828125 -0.828125 1.28125q-0.546875 0.4375 -1.390625 0.4375q-1.09375 0 -1.71875 -0.78125q-0.765625 -0.953125 -0.765625 -3.109375zm0.96875 0q0 1.875 0.4375 2.5q0.4375 0.625 1.078125 0.625q0.65625 0 1.09375 -0.625q0.4375 -0.625 0.4375 -2.5q0 -1.875 -0.4375 -2.5q-0.4375 -0.625 -1.09375 -0.625q-0.640625 0 -1.03125 0.546875q-0.484375 0.703125 -0.484375 2.578125z" fill-rule="nonzero"/><path fill="#cfe2f3" d="m254.9607 68.10236l37.039368 0l0 15.937004l-37.039368 0z" fill-rule="evenodd"/><path stroke="#000000" stroke-width="1.0" stroke-linejoin="round" stroke-linecap="butt" d="m254.9607 68.10236l37.039368 0l0 15.937004l-37.039368 0z" fill-rule="evenodd"/><path fill="#000000" d="m268.5594 79.81087l-0.9375 0l0 -5.96875q-0.34375 0.328125 -0.890625 0.65625q-0.546875 0.3125 -0.984375 0.46875l0 -0.90625q0.796875 -0.359375 1.375 -0.890625q0.59375 -0.53125 0.828125 -1.015625l0.609375 0l0 7.65625zm2.3952332 -3.765625q0 -1.34375 0.28125 -2.171875q0.28125 -0.828125 0.828125 -1.265625q0.546875 -0.453125 1.375 -0.453125q0.625 0 1.078125 0.25q0.46875 0.234375 0.765625 0.703125q0.3125 0.46875 0.484375 1.140625q0.171875 0.671875 0.171875 1.796875q0 1.34375 -0.28125 2.171875q-0.28125 0.828125 -0.828125 1.28125q-0.546875 0.4375 -1.390625 0.4375q-1.09375 0 -1.71875 -0.78125q-0.765625 -0.953125 -0.765625 -3.109375zm0.96875 0q0 1.875 0.4375 2.5q0.4375 0.625 1.078125 0.625q0.65625 0 1.09375 -0.625q0.4375 -0.625 0.4375 -2.5q0 -1.875 -0.4375 -2.5q-0.4375 -0.625 -1.09375 -0.625q-0.640625 0 -1.03125 0.546875q-0.484375 0.703125 -0.484375 2.578125zm4.9577637 0q0 -1.34375 0.28125 -2.171875q0.28125 -0.828125 0.828125 -1.265625q0.546875 -0.453125 1.375 -0.453125q0.625 0 1.078125 0.25q0.46875 0.234375 0.765625 0.703125q0.3125 0.46875 0.484375 1.140625q0.171875 0.671875 0.171875 1.796875q0 1.34375 -0.28125 2.171875q-0.28125 0.828125 -0.828125 1.28125q-0.546875 0.4375 -1.390625 0.4375q-1.09375 0 -1.71875 -0.78125q-0.765625 -0.953125 -0.765625 -3.109375zm0.96875 0q0 1.875 0.4375 2.5q0.4375 0.625 1.078125 0.625q0.65625 0 1.09375 -0.625q0.4375 -0.625 0.4375 -2.5q0 -1.875 -0.4375 -2.5q-0.4375 -0.625 -1.09375 -0.625q-0.640625 0 -1.03125 0.546875q-0.484375 0.703125 -0.484375 2.578125z" fill-rule="nonzero"/><path fill="#cfe2f3" d="m314.74023 68.10236l37.039368 0l0 15.937004l-37.039368 0z" fill-rule="evenodd"/><path stroke="#000000" stroke-width="1.0" stroke-linejoin="round" stroke-linecap="butt" d="m314.74023 68.10236l37.039368 0l0 15.937004l-37.039368 0z" fill-rule="evenodd"/><path fill="#000000" d="m328.33893 79.81087l-0.9375 0l0 -5.96875q-0.34375 0.328125 -0.890625 0.65625q-0.546875 0.3125 -0.984375 0.46875l0 -0.90625q0.796875 -0.359375 1.375 -0.890625q0.59375 -0.53125 0.828125 -1.015625l0.609375 0l0 7.65625zm7.317108 -0.90625l0 0.90625l-5.03125 0q-0.015625 -0.34375 0.109375 -0.65625q0.1875 -0.515625 0.609375 -1.015625q0.421875 -0.5 1.234375 -1.140625q1.234375 -1.03125 1.671875 -1.625q0.4375 -0.59375 0.4375 -1.125q0 -0.5625 -0.40625 -0.9375q-0.390625 -0.390625 -1.03125 -0.390625q-0.671875 0 -1.078125 0.40625q-0.40625 0.40625 -0.40625 1.125l-0.96875 -0.09375q0.09375 -1.078125 0.734375 -1.640625q0.65625 -0.5625 1.734375 -0.5625q1.109375 0 1.75 0.609375q0.640625 0.609375 0.640625 1.5q0 0.46875 -0.1875 0.90625q-0.1875 0.4375 -0.625 0.9375q-0.4375 0.484375 -1.453125 1.328125q-0.828125 0.71875 -1.078125 0.96875q-0.234375 0.25 -0.390625 0.5l3.734375 0zm1.0046387 -2.859375q0 -1.34375 0.28125 -2.171875q0.28125 -0.828125 0.828125 -1.265625q0.546875 -0.453125 1.375 -0.453125q0.625 0 1.078125 0.25q0.46875 0.234375 0.765625 0.703125q0.3125 0.46875 0.484375 1.140625q0.171875 0.671875 0.171875 1.796875q0 1.34375 -0.28125 2.171875q-0.28125 0.828125 -0.828125 1.28125q-0.546875 0.4375 -1.390625 0.4375q-1.09375 0 -1.71875 -0.78125q-0.765625 -0.953125 -0.765625 -3.109375zm0.96875 0q0 1.875 0.4375 2.5q0.4375 0.625 1.078125 0.625q0.65625 0 1.09375 -0.625q0.4375 -0.625 0.4375 -2.5q0 -1.875 -0.4375 -2.5q-0.4375 -0.625 -1.09375 -0.625q-0.640625 0 -1.03125 0.546875q-0.484375 0.703125 -0.484375 2.578125z" fill-rule="nonzero"/><path fill="#cfe2f3" d="m136.75598 18.328083l37.039368 0l0 15.937008l-37.039368 0z" fill-rule="evenodd"/><path stroke="#000000" stroke-width="1.0" stroke-linejoin="round" stroke-linecap="butt" d="m136.75598 18.328083l37.039368 0l0 15.937008l-37.039368 0z" fill-rule="evenodd"/><path fill="#000000" d="m156.28116 30.036587l-0.9375 0l0 -5.96875q-0.34375 0.328125 -0.890625 0.65625q-0.546875 0.3125 -0.984375 0.46875l0 -0.90625q0.796875 -0.359375 1.375 -0.890625q0.59375 -0.53125 0.828125 -1.015625l0.609375 0l0 7.65625z" fill-rule="nonzero"/><path fill="#cfe2f3" d="m195.8006 18.328083l37.039368 0l0 15.937008l-37.039368 0z" fill-rule="evenodd"/><path stroke="#000000" stroke-width="1.0" stroke-linejoin="round" stroke-linecap="butt" d="m195.8006 18.328083l37.039368 0l0 15.937008l-37.039368 0z" fill-rule="evenodd"/><path fill="#000000" d="m215.32578 30.036587l-0.9375 0l0 -5.96875q-0.34375 0.328125 -0.890625 0.65625q-0.546875 0.3125 -0.984375 0.46875l0 -0.90625q0.796875 -0.359375 1.375 -0.890625q0.59375 -0.53125 0.828125 -1.015625l0.609375 0l0 7.65625z" fill-rule="nonzero"/><path fill="#cfe2f3" d="m254.9607 18.328083l37.039368 0l0 15.937008l-37.039368 0z" fill-rule="evenodd"/><path stroke="#000000" stroke-width="1.0" stroke-linejoin="round" stroke-linecap="butt" d="m254.9607 18.328083l37.039368 0l0 15.937008l-37.039368 0z" fill-rule="evenodd"/><path fill="#000000" d="m270.0423 30.036587l-0.9375 0l0 -5.96875q-0.34375 0.328125 -0.890625 0.65625q-0.546875 0.3125 -0.984375 0.46875l0 -0.90625q0.796875 -0.359375 1.375 -0.890625q0.59375 -0.53125 0.828125 -1.015625l0.609375 0l0 7.65625zm2.9265137 0l0 -1.0625l1.0625 0l0 1.0625l-1.0625 0zm2.4293823 -2.0l0.984375 -0.078125q0.109375 0.71875 0.5 1.078125q0.40625 0.359375 0.96875 0.359375q0.671875 0 1.140625 -0.5q0.46875 -0.515625 0.46875 -1.359375q0 -0.796875 -0.453125 -1.265625q-0.4375 -0.46875 -1.171875 -0.46875q-0.453125 0 -0.8125 0.21875q-0.359375 0.203125 -0.578125 0.53125l-0.875 -0.125l0.734375 -3.921875l3.796875 0l0 0.90625l-3.046875 0l-0.40625 2.046875q0.6875 -0.484375 1.4375 -0.484375q1.0 0 1.6875 0.703125q0.6875 0.6875 0.6875 1.765625q0 1.046875 -0.609375 1.796875q-0.734375 0.921875 -2.0 0.921875q-1.03125 0 -1.703125 -0.578125q-0.65625 -0.578125 -0.75 -1.546875z" fill-rule="nonzero"/><path fill="#cfe2f3" d="m314.74023 18.328083l37.039368 0l0 15.937008l-37.039368 0z" fill-rule="evenodd"/><path stroke="#000000" stroke-width="1.0" stroke-linejoin="round" stroke-linecap="butt" d="m314.74023 18.328083l37.039368 0l0 15.937008l-37.039368 0z" fill-rule="evenodd"/><path fill="#000000" d="m335.65604 29.130337l0 0.90625l-5.03125 0q-0.015625 -0.34375 0.109375 -0.65625q0.1875 -0.515625 0.609375 -1.015625q0.421875 -0.5 1.234375 -1.140625q1.234375 -1.03125 1.671875 -1.625q0.4375 -0.59375 0.4375 -1.125q0 -0.5625 -0.40625 -0.9375q-0.390625 -0.390625 -1.03125 -0.390625q-0.671875 0 -1.078125 0.40625q-0.40625 0.40625 -0.40625 1.125l-0.96875 -0.09375q0.09375 -1.078125 0.734375 -1.640625q0.65625 -0.5625 1.734375 -0.5625q1.109375 0 1.75 0.609375q0.640625 0.609375 0.640625 1.5q0 0.46875 -0.1875 0.90625q-0.1875 0.4375 -0.625 0.9375q-0.4375 0.484375 -1.453125 1.328125q-0.828125 0.71875 -1.078125 0.96875q-0.234375 0.25 -0.390625 0.5l3.734375 0z" fill-rule="nonzero"/><path fill="#cfe2f3" d="m136.75598 117.698166l37.039368 0l0 15.937012l-37.039368 0z" fill-rule="evenodd"/><path stroke="#000000" stroke-width="1.0" stroke-linejoin="round" stroke-linecap="butt" d="m136.75598 117.698166l37.039368 0l0 15.937012l-37.039368 0z" fill-rule="evenodd"/><path fill="#000000" d="m149.78667 127.40667l0.984375 -0.078125q0.109375 0.7187424 0.5 1.0781174q0.40625 0.359375 0.96875 0.359375q0.671875 0 1.140625 -0.5q0.46875 -0.5156174 0.46875 -1.3593674q0 -0.796875 -0.453125 -1.265625q-0.4375 -0.46875 -1.171875 -0.46875q-0.453125 0 -0.8125 0.21875q-0.359375 0.203125 -0.578125 0.53125l-0.875 -0.125l0.734375 -3.921875l3.796875 0l0 0.90625l-3.046875 0l-0.40625 2.046875q0.6875 -0.484375 1.4375 -0.484375q1.0 0 1.6875 0.703125q0.6875 0.6875 0.6875 1.765625q0 1.046875 -0.609375 1.7968674q-0.734375 0.921875 -2.0 0.921875q-1.03125 0 -1.703125 -0.578125q-0.65625 -0.578125 -0.75 -1.5468674zm5.9264984 -1.765625q0 -1.34375 0.28125 -2.171875q0.28125 -0.828125 0.828125 -1.265625q0.546875 -0.453125 1.375 -0.453125q0.625 0 1.078125 0.25q0.46875 0.234375 0.765625 0.703125q0.3125 0.46875 0.484375 1.140625q0.171875 0.671875 0.171875 1.796875q0 1.34375 -0.28125 2.171875q-0.28125 0.8281174 -0.828125 1.2812424q-0.546875 0.4375 -1.390625 0.4375q-1.09375 0 -1.71875 -0.78125q-0.765625 -0.9531174 -0.765625 -3.1093674zm0.96875 0q0 1.875 0.4375 2.4999924q0.4375 0.625 1.078125 0.625q0.65625 0 1.09375 -0.625q0.4375 -0.6249924 0.4375 -2.4999924q0 -1.875 -0.4375 -2.5q-0.4375 -0.625 -1.09375 -0.625q-0.640625 0 -1.03125 0.546875q-0.484375 0.703125 -0.484375 2.578125z" fill-rule="nonzero"/><path fill="#cfe2f3" d="m195.8006 117.698166l37.039368 0l0 15.937012l-37.039368 0z" fill-rule="evenodd"/><path stroke="#000000" stroke-width="1.0" stroke-linejoin="round" stroke-linecap="butt" d="m195.8006 117.698166l37.039368 0l0 15.937012l-37.039368 0z" fill-rule="evenodd"/><path fill="#000000" d="m208.83128 127.40667l0.984375 -0.078125q0.109375 0.7187424 0.5 1.0781174q0.40625 0.359375 0.96875 0.359375q0.671875 0 1.140625 -0.5q0.46875 -0.5156174 0.46875 -1.3593674q0 -0.796875 -0.453125 -1.265625q-0.4375 -0.46875 -1.171875 -0.46875q-0.453125 0 -0.8125 0.21875q-0.359375 0.203125 -0.578125 0.53125l-0.875 -0.125l0.734375 -3.921875l3.796875 0l0 0.90625l-3.046875 0l-0.40625 2.046875q0.6875 -0.484375 1.4375 -0.484375q1.0 0 1.6875 0.703125q0.6875 0.6875 0.6875 1.765625q0 1.046875 -0.609375 1.7968674q-0.734375 0.921875 -2.0 0.921875q-1.03125 0 -1.703125 -0.578125q-0.65625 -0.578125 -0.75 -1.5468674zm5.9264984 -1.765625q0 -1.34375 0.28125 -2.171875q0.28125 -0.828125 0.828125 -1.265625q0.546875 -0.453125 1.375 -0.453125q0.625 0 1.078125 0.25q0.46875 0.234375 0.765625 0.703125q0.3125 0.46875 0.484375 1.140625q0.171875 0.671875 0.171875 1.796875q0 1.34375 -0.28125 2.171875q-0.28125 0.8281174 -0.828125 1.2812424q-0.546875 0.4375 -1.390625 0.4375q-1.09375 0 -1.71875 -0.78125q-0.765625 -0.9531174 -0.765625 -3.1093674zm0.96875 0q0 1.875 0.4375 2.4999924q0.4375 0.625 1.078125 0.625q0.65625 0 1.09375 -0.625q0.4375 -0.6249924 0.4375 -2.4999924q0 -1.875 -0.4375 -2.5q-0.4375 -0.625 -1.09375 -0.625q-0.640625 0 -1.03125 0.546875q-0.484375 0.703125 -0.484375 2.578125z" fill-rule="nonzero"/><path fill="#cfe2f3" d="m254.9607 117.698166l37.039368 0l0 15.937012l-37.039368 0z" fill-rule="evenodd"/><path stroke="#000000" stroke-width="1.0" stroke-linejoin="round" stroke-linecap="butt" d="m254.9607 117.698166l37.039368 0l0 15.937012l-37.039368 0z" fill-rule="evenodd"/><path fill="#000000" d="m267.9914 127.40667l0.984375 -0.078125q0.109375 0.7187424 0.5 1.0781174q0.40625 0.359375 0.96875 0.359375q0.671875 0 1.140625 -0.5q0.46875 -0.5156174 0.46875 -1.3593674q0 -0.796875 -0.453125 -1.265625q-0.4375 -0.46875 -1.171875 -0.46875q-0.453125 0 -0.8125 0.21875q-0.359375 0.203125 -0.578125 0.53125l-0.875 -0.125l0.734375 -3.921875l3.796875 0l0 0.90625l-3.046875 0l-0.40625 2.046875q0.6875 -0.484375 1.4375 -0.484375q1.0 0 1.6875 0.703125q0.6875 0.6875 0.6875 1.765625q0 1.046875 -0.609375 1.7968674q-0.734375 0.921875 -2.0 0.921875q-1.03125 0 -1.703125 -0.578125q-0.65625 -0.578125 -0.75 -1.5468674zm5.926483 -1.765625q0 -1.34375 0.28125 -2.171875q0.28125 -0.828125 0.828125 -1.265625q0.546875 -0.453125 1.375 -0.453125q0.625 0 1.078125 0.25q0.46875 0.234375 0.765625 0.703125q0.3125 0.46875 0.484375 1.140625q0.171875 0.671875 0.171875 1.796875q0 1.34375 -0.28125 2.171875q-0.28125 0.8281174 -0.828125 1.2812424q-0.546875 0.4375 -1.390625 0.4375q-1.09375 0 -1.71875 -0.78125q-0.765625 -0.9531174 -0.765625 -3.1093674zm0.96875 0q0 1.875 0.4375 2.4999924q0.4375 0.625 1.078125 0.625q0.65625 0 1.09375 -0.625q0.4375 -0.6249924 0.4375 -2.4999924q0 -1.875 -0.4375 -2.5q-0.4375 -0.625 -1.09375 -0.625q-0.640625 0 -1.03125 0.546875q-0.484375 0.703125 -0.484375 2.578125z" fill-rule="nonzero"/><path fill="#cfe2f3" d="m314.74023 117.698166l37.039368 0l0 15.937012l-37.039368 0z" fill-rule="evenodd"/><path stroke="#000000" stroke-width="1.0" stroke-linejoin="round" stroke-linecap="butt" d="m314.74023 117.698166l37.039368 0l0 15.937012l-37.039368 0z" fill-rule="evenodd"/><path fill="#000000" d="m327.7709 127.40667l0.984375 -0.078125q0.109375 0.7187424 0.5 1.0781174q0.40625 0.359375 0.96875 0.359375q0.671875 0 1.140625 -0.5q0.46875 -0.5156174 0.46875 -1.3593674q0 -0.796875 -0.453125 -1.265625q-0.4375 -0.46875 -1.171875 -0.46875q-0.453125 0 -0.8125 0.21875q-0.359375 0.203125 -0.578125 0.53125l-0.875 -0.125l0.734375 -3.921875l3.796875 0l0 0.90625l-3.046875 0l-0.40625 2.046875q0.6875 -0.484375 1.4375 -0.484375q1.0 0 1.6875 0.703125q0.6875 0.6875 0.6875 1.765625q0 1.046875 -0.609375 1.7968674q-0.734375 0.921875 -2.0 0.921875q-1.03125 0 -1.703125 -0.578125q-0.65625 -0.578125 -0.75 -1.5468674zm5.9265137 -1.765625q0 -1.34375 0.28125 -2.171875q0.28125 -0.828125 0.828125 -1.265625q0.546875 -0.453125 1.375 -0.453125q0.625 0 1.078125 0.25q0.46875 0.234375 0.765625 0.703125q0.3125 0.46875 0.484375 1.140625q0.171875 0.671875 0.171875 1.796875q0 1.34375 -0.28125 2.171875q-0.28125 0.8281174 -0.828125 1.2812424q-0.546875 0.4375 -1.390625 0.4375q-1.09375 0 -1.71875 -0.78125q-0.765625 -0.9531174 -0.765625 -3.1093674zm0.96875 0q0 1.875 0.4375 2.4999924q0.4375 0.625 1.078125 0.625q0.65625 0 1.09375 -0.625q0.4375 -0.6249924 0.4375 -2.4999924q0 -1.875 -0.4375 -2.5q-0.4375 -0.625 -1.09375 -0.625q-0.640625 0 -1.03125 0.546875q-0.484375 0.703125 -0.484375 2.578125z" fill-rule="nonzero"/><path fill="#fff2cc" d="m98.49869 43.21522l4.839897 0l0 0l7.259842 0l16.939629 0l0 9.296589l0 0l0 3.984253l0 2.656166l-16.939629 0l-3.6298294 1.9921265l-3.6300125 -1.9921265l-4.839897 0l0 -2.656166l0 -3.984253l0 0z" fill-rule="evenodd"/><path stroke="#000000" stroke-width="1.0" stroke-linejoin="round" stroke-linecap="butt" d="m98.49869 43.21522l4.839897 0l0 0l7.259842 0l16.939629 0l0 9.296589l0 0l0 3.984253l0 2.656166l-16.939629 0l-3.6298294 1.9921265l-3.6300125 -1.9921265l-4.839897 0l0 -2.656166l0 -3.984253l0 0z" fill-rule="evenodd"/><path fill="#000000" d="m111.46744 54.923725l-0.9375 0l0 -5.96875q-0.34375 0.328125 -0.890625 0.65625q-0.546875 0.3125 -0.984375 0.46875l0 -0.90625q0.796875 -0.359375 1.375 -0.890625q0.59375 -0.53125 0.828125 -1.015625l0.609375 0l0 7.65625z" fill-rule="nonzero"/><path fill="#fff2cc" d="m98.49869 142.85301l6.3779526 0l0 0l9.566933 0l22.32283 0l0 9.2966l0 0l0 3.984253l0 2.6561584l-22.32283 0l-4.7833405 1.9921265l-4.783592 -1.9921265l-6.3779526 0l0 -2.6561584l0 -3.984253l0 0z" fill-rule="evenodd"/><path stroke="#000000" stroke-width="1.0" stroke-linejoin="round" stroke-linecap="butt" d="m98.49869 142.85301l6.3779526 0l0 0l9.566933 0l22.32283 0l0 9.2966l0 0l0 3.984253l0 2.6561584l-22.32283 0l-4.7833405 1.9921265l-4.783592 -1.9921265l-6.3779526 0l0 -2.6561584l0 -3.984253l0 0z" fill-rule="evenodd"/><path fill="#000000" d="m107.93619 152.56152l0.984375 -0.078125q0.109375 0.71875 0.5 1.078125q0.40625 0.359375 0.96875 0.359375q0.671875 0 1.140625 -0.5q0.46875 -0.515625 0.46875 -1.359375q0 -0.796875 -0.453125 -1.265625q-0.4375 -0.46875 -1.171875 -0.46875q-0.453125 0 -0.8125 0.21875q-0.359375 0.203125 -0.578125 0.53125l-0.875 -0.125l0.734375 -3.921875l3.796875 0l0 0.90625l-3.046875 0l-0.40625 2.046875q0.6875 -0.484375 1.4375 -0.484375q1.0 0 1.6875 0.703125q0.6875 0.6875 0.6875 1.765625q0 1.046875 -0.609375 1.796875q-0.734375 0.921875 -2.0 0.921875q-1.03125 0 -1.703125 -0.578125q-0.65625 -0.578125 -0.75 -1.546875zm5.9264984 -1.765625q0 -1.34375 0.28125 -2.171875q0.28125 -0.828125 0.828125 -1.265625q0.546875 -0.453125 1.375 -0.453125q0.625 0 1.078125 0.25q0.46875 0.234375 0.765625 0.703125q0.3125 0.46875 0.484375 1.140625q0.171875 0.671875 0.171875 1.796875q0 1.34375 -0.28125 2.171875q-0.28125 0.828125 -0.828125 1.28125q-0.546875 0.4375 -1.390625 0.4375q-1.09375 0 -1.71875 -0.78125q-0.765625 -0.953125 -0.765625 -3.109375zm0.96875 0q0 1.875 0.4375 2.5q0.4375 0.625 1.078125 0.625q0.65625 0 1.09375 -0.625q0.4375 -0.625 0.4375 -2.5q0 -1.875 -0.4375 -2.5q-0.4375 -0.625 -1.09375 -0.625q-0.640625 0 -1.03125 0.546875q-0.484375 0.703125 -0.484375 2.578125z" fill-rule="nonzero"/><path fill="#fff2cc" d="m288.1811 92.90026l6.1732483 0l0 0l9.259827 0l21.606293 0l0 9.296593l0 0l0 3.9842453l0 2.6561737l-21.606293 0l-4.6297913 1.9921265l-4.6300354 -1.9921265l-6.1732483 0l0 -2.6561737l0 -3.9842453l0 0z" fill-rule="evenodd"/><path stroke="#000000" stroke-width="1.0" stroke-linejoin="round" stroke-linecap="butt" d="m288.1811 92.90026l6.1732483 0l0 0l9.259827 0l21.606293 0l0 9.296593l0 0l0 3.9842453l0 2.6561737l-21.606293 0l-4.6297913 1.9921265l-4.6300354 -1.9921265l-6.1732483 0l0 -2.6561737l0 -3.9842453l0 0z" fill-rule="evenodd"/><path fill="#000000" d="m301.14984 104.608765l-0.9375 0l0 -5.96875q-0.34375 0.328125 -0.890625 0.65625q-0.546875 0.3125 -0.984375 0.46875l0 -0.90625q0.796875 -0.359375 1.375 -0.890625q0.59375 -0.53125 0.828125 -1.015625l0.609375 0l0 7.65625zm7.3171387 -0.90625l0 0.90625l-5.03125 0q-0.015625 -0.34375 0.109375 -0.65625q0.1875 -0.515625 0.609375 -1.015625q0.421875 -0.5 1.234375 -1.140625q1.234375 -1.03125 1.671875 -1.625q0.4375 -0.59375 0.4375 -1.125q0 -0.5625 -0.40625 -0.9375q-0.390625 -0.390625 -1.03125 -0.390625q-0.671875 0 -1.078125 0.40625q-0.40625 0.40625 -0.40625 1.125l-0.96875 -0.09375q0.09375 -1.078125 0.734375 -1.640625q0.65625 -0.5625 1.734375 -0.5625q1.109375 0 1.75 0.609375q0.640625 0.609375 0.640625 1.5q0 0.46875 -0.1875 0.90625q-0.1875 0.4375 -0.625 0.9375q-0.4375 0.484375 -1.453125 1.328125q-0.828125 0.71875 -1.078125 0.96875q-0.234375 0.25 -0.390625 0.5l3.734375 0zm1.0046082 -2.859375q0 -1.34375 0.28125 -2.171875q0.28125 -0.828125 0.828125 -1.265625q0.546875 -0.453125 1.375 -0.453125q0.625 0 1.078125 0.25q0.46875 0.234375 0.765625 0.703125q0.3125 0.46875 0.484375 1.140625q0.171875 0.671875 0.171875 1.796875q0 1.34375 -0.28125 2.171875q-0.28125 0.828125 -0.828125 1.28125q-0.546875 0.4375 -1.390625 0.4375q-1.09375 0 -1.71875 -0.78125q-0.765625 -0.953125 -0.765625 -3.109375zm0.96875 0q0 1.875 0.4375 2.5q0.4375 0.625 1.078125 0.625q0.65625 0 1.09375 -0.625q0.4375 -0.625 0.4375 -2.5q0 -1.875 -0.4375 -2.5q-0.4375 -0.625 -1.09375 -0.625q-0.640625 0 -1.03125 0.546875q-0.484375 0.703125 -0.484375 2.578125z" fill-rule="nonzero"/><path fill="#ffd966" d="m12.48294 50.879265l0 0c0 -2.5918236 2.1010885 -4.692913 4.692914 -4.692913l37.509186 0l0 0l18.086613 0l7.36483 0c1.2446365 0 2.438301 0.49443054 3.31839 1.3745232c0.88009644 0.8800926 1.374527 2.0737534 1.374527 3.31839l0 0l13.349365 -0.27303314l-13.349365 7.3124046l0 11.732281c0 2.5918274 -2.1010895 4.692917 -4.692917 4.692917l-7.36483 0l-18.086613 0l0 0l-37.509186 0l0 0c-2.5918255 0 -4.692914 -2.1010895 -4.692914 -4.692917l0 -11.732281l0 -7.0393715l0 0z" fill-rule="evenodd"/><path stroke="#000000" stroke-width="1.0" stroke-linejoin="round" stroke-linecap="butt" d="m12.48294 50.879265l0 0c0 -2.5918236 2.1010885 -4.692913 4.692914 -4.692913l37.509186 0l0 0l18.086613 0l7.36483 0c1.2446365 0 2.438301 0.49443054 3.31839 1.3745232c0.88009644 0.8800926 1.374527 2.0737534 1.374527 3.31839l0 0l13.349365 -0.27303314l-13.349365 7.3124046l0 11.732281c0 2.5918274 -2.1010895 4.692917 -4.692917 4.692917l-7.36483 0l-18.086613 0l0 0l-37.509186 0l0 0c-2.5918255 0 -4.692914 -2.1010895 -4.692914 -4.692917l0 -11.732281l0 -7.0393715l0 0z" fill-rule="evenodd"/><path fill="#000000" d="m23.638697 57.505093l0 -7.625l1.015625 0l0 6.71875l3.75 0l0 0.90625l-4.765625 0zm9.629625 -1.78125l0.96875 0.125q-0.234375 0.84375 -0.859375 1.3125q-0.609375 0.46875 -1.5781269 0.46875q-1.203125 0 -1.921875 -0.75q-0.703125 -0.75 -0.703125 -2.09375q0 -1.390625 0.71875 -2.15625q0.71875 -0.78125 1.859375 -0.78125q1.1093769 0 1.8125019 0.765625q0.703125 0.75 0.703125 2.125q0 0.078125 0 0.234375l-4.125002 0q0.046875 0.921875 0.515625 1.40625q0.46875 0.484375 1.15625 0.484375q0.5156269 0 0.8750019 -0.265625q0.359375 -0.28125 0.578125 -0.875zm-3.078127 -1.515625l3.093752 0q-0.0625 -0.6875 -0.359375 -1.046875q-0.453125 -0.53125 -1.1562519 -0.53125q-0.640625 0 -1.09375 0.4375q-0.4375 0.421875 -0.484375 1.140625zm7.2702503 2.453125l0.125 0.828125q-0.390625 0.09375 -0.703125 0.09375q-0.5 0 -0.78125 -0.15625q-0.28125 -0.171875 -0.40625 -0.4375q-0.109375 -0.265625 -0.109375 -1.109375l0 -3.171875l-0.6875 0l0 -0.734375l0.6875 0l0 -1.359375l0.9375 -0.5625l0 1.921875l0.9375 0l0 0.734375l-0.9375 0l0 3.234375q0 0.390625 0.046875 0.515625q0.046875 0.109375 0.15625 0.1875q0.109375 0.0625 0.328125 0.0625q0.15625 0 0.40625 -0.046875zm2.9606476 0l0.125 0.828125q-0.390625 0.09375 -0.703125 0.09375q-0.5 0 -0.78125 -0.15625q-0.28125 -0.171875 -0.40625 -0.4375q-0.109375 -0.265625 -0.109375 -1.109375l0 -3.171875l-0.6875 0l0 -0.734375l0.6875 0l0 -1.359375l0.9375 -0.5625l0 1.921875l0.9375 0l0 0.734375l-0.9375 0l0 3.234375q0 0.390625 0.046875 0.515625q0.046875 0.109375 0.15625 0.1875q0.109375 0.0625 0.328125 0.0625q0.15625 0 0.40625 -0.046875zm4.5387726 0.84375l0 -0.8125q-0.65625 0.9375 -1.75 0.9375q-0.5 0 -0.921875 -0.1875q-0.421875 -0.1875 -0.625 -0.46875q-0.203125 -0.28125 -0.296875 -0.703125q-0.046875 -0.265625 -0.046875 -0.875l0 -3.421875l0.9375 0l0 3.0625q0 0.734375 0.046875 1.0q0.09375 0.359375 0.375 0.578125q0.296875 0.203125 0.703125 0.203125q0.421875 0 0.796875 -0.203125q0.375 -0.21875 0.515625 -0.59375q0.15625 -0.375 0.15625 -1.078125l0 -2.96875l0.9375 0l0 5.53125l-0.828125 0zm2.2858734 0l0 -5.53125l0.84375 0l0 0.84375q0.328125 -0.59375 0.59375 -0.78125q0.28125 -0.1875 0.609375 -0.1875q0.46875 0 0.953125 0.3125l-0.3125 0.859375q-0.34375 -0.203125 -0.6875 -0.203125q-0.3125 0 -0.5625 0.1875q-0.234375 0.1875 -0.34375 0.515625q-0.15625 0.5 -0.15625 1.09375l0 2.890625l-0.9375 0zm7.1736145 -0.6875q-0.53125 0.453125 -1.015625 0.640625q-0.46875 0.171875 -1.015625 0.171875q-0.921875 0 -1.40625 -0.4375q-0.484375 -0.453125 -0.484375 -1.140625q0 -0.40625 0.171875 -0.734375q0.1875 -0.34375 0.484375 -0.546875q0.3125 -0.203125 0.6875 -0.3125q0.265625 -0.0625 0.828125 -0.140625q1.125 -0.125 1.671875 -0.3125q0 -0.203125 0 -0.25q0 -0.578125 -0.265625 -0.8125q-0.359375 -0.3125 -1.0625 -0.3125q-0.65625 0 -0.984375 0.234375q-0.3125 0.234375 -0.453125 0.8125l-0.921875 -0.125q0.125 -0.578125 0.40625 -0.9375q0.296875 -0.375 0.828125 -0.5625q0.546875 -0.203125 1.25 -0.203125q0.71875 0 1.15625 0.171875q0.4375 0.171875 0.640625 0.421875q0.21875 0.25 0.296875 0.640625q0.046875 0.234375 0.046875 0.859375l0 1.25q0 1.296875 0.0625 1.65625q0.0625 0.34375 0.234375 0.65625l-0.96875 0q-0.15625 -0.296875 -0.1875 -0.6875zm-0.078125 -2.078125q-0.515625 0.203125 -1.53125 0.34375q-0.578125 0.078125 -0.828125 0.1875q-0.234375 0.109375 -0.359375 0.3125q-0.125 0.1875 -0.125 0.4375q0 0.375 0.28125 0.625q0.28125 0.25 0.828125 0.25q0.53125 0 0.953125 -0.234375q0.421875 -0.234375 0.625 -0.65625q0.15625 -0.3125 0.15625 -0.9375l0 -0.328125zm8.934021 2.765625l0 -0.703125q-0.515625 0.828125 -1.546875 0.828125q-0.65625 0 -1.21875 -0.359375q-0.546875 -0.375 -0.859375 -1.015625q-0.296875 -0.65625 -0.296875 -1.5q0 -0.828125 0.28125 -1.5q0.28125 -0.6875 0.828125 -1.046875q0.546875 -0.359375 1.234375 -0.359375q0.5 0 0.890625 0.21875q0.390625 0.203125 0.625 0.546875l0 -2.734375l0.9374962 0l0 7.625l-0.8749962 0zm-2.953125 -2.75q0 1.046875 0.4375 1.578125q0.453125 0.53125 1.0625 0.53125q0.609375 0 1.03125 -0.5q0.4375 -0.515625 0.4375 -1.53125q0 -1.140625 -0.4375 -1.671875q-0.4375 -0.53125 -1.078125 -0.53125q-0.609375 0 -1.03125 0.515625q-0.421875 0.5 -0.421875 1.609375zm8.91087 2.0625q-0.53125 0.453125 -1.015625 0.640625q-0.46875 0.171875 -1.015625 0.171875q-0.921875 0 -1.40625 -0.4375q-0.484375 -0.453125 -0.484375 -1.140625q0 -0.40625 0.171875 -0.734375q0.1875 -0.34375 0.484375 -0.546875q0.3125 -0.203125 0.6875 -0.3125q0.265625 -0.0625 0.828125 -0.140625q1.125 -0.125 1.671875 -0.3125q0 -0.203125 0 -0.25q0 -0.578125 -0.265625 -0.8125q-0.359375 -0.3125 -1.0625 -0.3125q-0.65625 0 -0.984375 0.234375q-0.3125 0.234375 -0.453125 0.8125l-0.921875 -0.125q0.125 -0.578125 0.40625 -0.9375q0.296875 -0.375 0.828125 -0.5625q0.546875 -0.203125 1.25 -0.203125q0.71875 0 1.15625 0.171875q0.4375 0.171875 0.640625 0.421875q0.21875 0.25 0.296875 0.640625q0.046875 0.234375 0.046875 0.859375l0 1.25q0 1.296875 0.0625 1.65625q0.0625 0.34375 0.234375 0.65625l-0.96875 0q-0.15625 -0.296875 -0.1875 -0.6875zm-0.078125 -2.078125q-0.515625 0.203125 -1.53125 0.34375q-0.578125 0.078125 -0.828125 0.1875q-0.234375 0.109375 -0.359375 0.3125q-0.125 0.1875 -0.125 0.4375q0 0.375 0.28125 0.625q0.28125 0.25 0.828125 0.25q0.53125 0 0.953125 -0.234375q0.421875 -0.234375 0.625 -0.65625q0.15625 -0.3125 0.15625 -0.9375l0 -0.328125z" fill-rule="nonzero"/><path fill="#000000" d="m23.685572 70.50509l0 -7.624996l2.875 0q0.75 0 1.15625 0.0625q0.5625 0.09375 0.9375 0.359375q0.390625 0.265625 0.609375 0.7499962q0.234375 0.46875 0.234375 1.03125q0 0.96875 -0.625 1.65625q-0.609375 0.671875 -2.234375 0.671875l-1.953125 0l0 3.09375l-1.0 0zm1.0 -4.0l1.96875 0q0.984375 0 1.390625 -0.359375q0.421875 -0.375 0.421875 -1.03125q0 -0.484375 -0.25 -0.8125q-0.234375 -0.3437462 -0.640625 -0.4531212q-0.25 -0.078125 -0.9375 -0.078125l-1.953125 0l0 2.7343712zm9.607637 4.0l0 -0.8125q-0.65625 0.9375 -1.75 0.9375q-0.5 0 -0.9218769 -0.1875q-0.421875 -0.1875 -0.625 -0.46875q-0.203125 -0.28125 -0.296875 -0.703125q-0.046875 -0.265625 -0.046875 -0.875l0 -3.421875l0.9375 0l0 3.0625q0 0.734375 0.046875 1.0q0.09375 0.359375 0.3750019 0.578125q0.296875 0.203125 0.703125 0.203125q0.421875 0 0.796875 -0.203125q0.375 -0.21875 0.515625 -0.59375q0.15625 -0.375 0.15625 -1.078125l0 -2.96875l0.9375 0l0 5.53125l-0.828125 0zm3.1608734 0l-0.859375 0l0 -7.624996l0.9375 0l0 2.7187462q0.59375 -0.75 1.5 -0.75q0.515625 0 0.96875 0.21875q0.453125 0.203125 0.75 0.578125q0.296875 0.359375 0.453125 0.890625q0.171875 0.53125 0.171875 1.125q0 1.421875 -0.703125 2.203125q-0.703125 0.765625 -1.6875 0.765625q-0.96875 0 -1.53125 -0.8125l0 0.6875zm0 -2.796875q0 0.984375 0.265625 1.421875q0.4375 0.734375 1.1875 0.734375q0.625 0 1.0625 -0.53125q0.453125 -0.546875 0.453125 -1.59375q0 -1.078125 -0.4375 -1.59375q-0.421875 -0.515625 -1.03125 -0.515625q-0.609375 0 -1.0625 0.53125q-0.4375 0.53125 -0.4375 1.546875zm4.8483734 0.34375l0.953125 -0.078125q0.0625 0.5625 0.3125 0.9375q0.25 0.359375 0.765625 0.59375q0.515625 0.21875 1.171875 0.21875q0.578125 0 1.015625 -0.171875q0.4375 -0.171875 0.65625 -0.46875q0.21875 -0.296875 0.21875 -0.65625q0 -0.359375 -0.21875 -0.625q-0.203125 -0.265625 -0.671875 -0.4375q-0.3125 -0.125 -1.359375 -0.375q-1.046875 -0.25 -1.46875 -0.484375q-0.546875 -0.28125 -0.828125 -0.703125q-0.265625 -0.421875 -0.265625 -0.953125q0 -0.578125 0.328125 -1.0781212q0.328125 -0.5 0.953125 -0.765625q0.640625 -0.265625 1.40625 -0.265625q0.84375 0 1.484375 0.28125q0.65625 0.265625 1.0 0.796875q0.359375 0.5312462 0.390625 1.2031212l-0.96875 0.078125q-0.078125 -0.71875 -0.53125 -1.09375q-0.453125 -0.3749962 -1.328125 -0.3749962q-0.921875 0 -1.34375 0.34375q-0.40625 0.3281212 -0.40625 0.8124962q0 0.40625 0.296875 0.671875q0.28125 0.265625 1.515625 0.546875q1.234375 0.28125 1.6875 0.484375q0.671875 0.3125 0.984375 0.78125q0.3125 0.46875 0.3125 1.078125q0 0.609375 -0.34375 1.15625q-0.34375 0.53125 -1.0 0.828125q-0.65625 0.296875 -1.46875 0.296875q-1.046875 0 -1.75 -0.296875q-0.6875 -0.296875 -1.09375 -0.90625q-0.390625 -0.609375 -0.40625 -1.375zm10.9513855 2.453125l0 -0.8125q-0.65625 0.9375 -1.75 0.9375q-0.5 0 -0.921875 -0.1875q-0.421875 -0.1875 -0.625 -0.46875q-0.203125 -0.28125 -0.296875 -0.703125q-0.046875 -0.265625 -0.046875 -0.875l0 -3.421875l0.9375 0l0 3.0625q0 0.734375 0.046875 1.0q0.09375 0.359375 0.375 0.578125q0.296875 0.203125 0.703125 0.203125q0.421875 0 0.796875 -0.203125q0.375 -0.21875 0.515625 -0.59375q0.15625 -0.375 0.15625 -1.078125l0 -2.96875l0.9375 0l0 5.53125l-0.828125 0zm3.1608734 0l-0.859375 0l0 -7.624996l0.9375 0l0 2.7187462q0.59375 -0.75 1.5 -0.75q0.515625 0 0.96875 0.21875q0.453125 0.203125 0.75 0.578125q0.296875 0.359375 0.453125 0.890625q0.171875 0.53125 0.171875 1.125q0 1.421875 -0.703125 2.203125q-0.703125 0.765625 -1.6875 0.765625q-0.96875 0 -1.53125 -0.8125l0 0.6875zm0 -2.796875q0 0.984375 0.265625 1.421875q0.4375 0.734375 1.1875 0.734375q0.625 0 1.0625 -0.53125q0.453125 -0.546875 0.453125 -1.59375q0 -1.078125 -0.4375 -1.59375q-0.421875 -0.515625 -1.03125 -0.515625q-0.609375 0 -1.0625 0.53125q-0.4375 0.53125 -0.4375 1.546875z" fill-rule="nonzero"/><path fill="#ffd966" d="m54.824146 10.062992l0 0c0 -1.788765 1.4500809 -3.2388453 3.2388458 -3.2388453l40.635174 0l0 0l18.803146 0l9.296585 0c0.85900116 0 1.6828156 0.34123468 2.290207 0.94863605c0.6074066 0.6074014 0.9486389 1.4312139 0.9486389 2.2902093l0 8.097113l6.265213 5.795265l-6.265213 -0.93699646l0 0c0 1.788763 -1.4500732 3.238844 -3.2388458 3.238844l-9.296585 0l-18.803146 0l0 0l-40.635174 0c-1.788765 0 -3.2388458 -1.4500809 -3.2388458 -3.238844l0 0l0 -4.8582687l0 0z" fill-rule="evenodd"/><path stroke="#000000" stroke-width="1.0" stroke-linejoin="round" stroke-linecap="butt" d="m54.824146 10.062992l0 0c0 -1.788765 1.4500809 -3.2388453 3.2388458 -3.2388453l40.635174 0l0 0l18.803146 0l9.296585 0c0.85900116 0 1.6828156 0.34123468 2.290207 0.94863605c0.6074066 0.6074014 0.9486389 1.4312139 0.9486389 2.2902093l0 8.097113l6.265213 5.795265l-6.265213 -0.93699646l0 0c0 1.788763 -1.4500732 3.238844 -3.2388458 3.238844l-9.296585 0l-18.803146 0l0 0l-40.635174 0c-1.788765 0 -3.2388458 -1.4500809 -3.2388458 -3.238844l0 0l0 -4.8582687l0 0z" fill-rule="evenodd"/><path fill="#000000" d="m71.0384 17.608807l1.015625 0.25q-0.328125 1.25 -1.15625 1.90625q-0.8125 0.640625 -2.015625 0.640625q-1.234375 0 -2.0 -0.5q-0.765625 -0.5 -1.171875 -1.453125q-0.40625 -0.953125 -0.40625 -2.046875q0 -1.187499 0.453125 -2.078124q0.453125 -0.890625 1.296875 -1.34375q0.84375 -0.46875 1.84375 -0.46875q1.15625 0 1.9375 0.59375q0.78125 0.578125 1.078125 1.640625l-0.984375 0.234375q-0.265625 -0.84375 -0.78125 -1.21875q-0.5 -0.375 -1.265625 -0.375q-0.875 0 -1.46875 0.421875q-0.59375 0.421875 -0.828125 1.140625q-0.234375 0.703125 -0.234375 1.453124q0 0.96875 0.28125 1.703125q0.28125 0.71875 0.875 1.078125q0.59375 0.359375 1.296875 0.359375q0.84375 0 1.4375 -0.484375q0.59375 -0.5 0.796875 -1.453125zm5.7424774 1.984375q-0.53125 0.453125 -1.015625 0.640625q-0.46875 0.171875 -1.015625 0.171875q-0.921875 0 -1.40625 -0.4375q-0.484375 -0.453125 -0.484375 -1.140625q0 -0.40625 0.171875 -0.734375q0.1875 -0.34375 0.484375 -0.546875q0.3125 -0.203125 0.6875 -0.3125q0.265625 -0.0625 0.828125 -0.140625q1.125 -0.125 1.671875 -0.3125q0 -0.203125 0 -0.25q0 -0.57812405 -0.265625 -0.81249905q-0.359375 -0.3125 -1.0625 -0.3125q-0.65625 0 -0.984375 0.234375q-0.3125 0.234375 -0.453125 0.81249905l-0.921875 -0.125q0.125 -0.57812405 0.40625 -0.93749905q0.296875 -0.375 0.828125 -0.5625q0.546875 -0.203125 1.25 -0.203125q0.71875 0 1.15625 0.171875q0.4375 0.171875 0.640625 0.421875q0.21875 0.25 0.296875 0.640625q0.046875 0.23437405 0.046875 0.85937405l0 1.25q0 1.296875 0.0625 1.65625q0.0625 0.34375 0.234375 0.65625l-0.96875 0q-0.15625 -0.296875 -0.1875 -0.6875zm-0.078125 -2.078125q-0.515625 0.203125 -1.53125 0.34375q-0.578125 0.078125 -0.828125 0.1875q-0.234375 0.109375 -0.359375 0.3125q-0.125 0.1875 -0.125 0.4375q0 0.375 0.28125 0.625q0.28125 0.25 0.828125 0.25q0.53125 0 0.953125 -0.234375q0.421875 -0.234375 0.625 -0.65625q0.15625 -0.3125 0.15625 -0.9375l0 -0.328125zm2.3952484 2.765625l0 -5.531249l0.84375 0l0 0.78125q0.25 -0.40625 0.6875 -0.65625q0.4375 -0.25 0.984375 -0.25q0.609375 0 1.0 0.265625q0.390625 0.25 0.5625 0.703125q0.65625 -0.96875 1.703125 -0.96875q0.828125 0 1.265625 0.46875q0.4375 0.453125 0.4375 1.390624l0 3.796875l-0.921875 0l0 -3.484375q0 -0.5625 -0.09375 -0.79687405q-0.09375 -0.25 -0.34375 -0.40625q-0.234375 -0.15625 -0.546875 -0.15625q-0.59375 0 -0.984375 0.390625q-0.375 0.39062405 -0.375 1.249999l0 3.203125l-0.9375 0l0 -3.59375q0 -0.625 -0.234375 -0.93749905q-0.21875 -0.3125 -0.75 -0.3125q-0.390625 0 -0.734375 0.21875q-0.328125 0.203125 -0.484375 0.60937405q-0.140625 0.390625 -0.140625 1.15625l0 2.859375l-0.9375 0zm8.8767395 2.125l0 -7.656249l0.859375 0l0 0.71875q0.296875 -0.421875 0.671875 -0.625q0.390625 -0.21875 0.921875 -0.21875q0.703125 0 1.25 0.375q0.546875 0.359375 0.8125 1.031249q0.28125 0.65625 0.28125 1.453125q0 0.84375 -0.3125 1.53125q-0.296875 0.671875 -0.875 1.03125q-0.578125 0.359375 -1.21875 0.359375q-0.46875 0 -0.84375 -0.1875q-0.375 -0.203125 -0.609375 -0.515625l0 2.703125l-0.9375 0zm0.84375 -4.859375q0 1.0625 0.4375 1.578125q0.4375 0.515625 1.046875 0.515625q0.625 0 1.0625 -0.53125q0.453125 -0.53125 0.453125 -1.640625q0 -1.046875 -0.4375 -1.578124q-0.4375 -0.53125 -1.046875 -0.53125q-0.59375 0 -1.0625 0.5625q-0.453125 0.56249905 -0.453125 1.624999zm5.0827484 -3.812499l0 -1.078125l0.9375 0l0 1.078125l-0.9375 0zm0 6.546874l0 -5.531249l0.9375 0l0 5.531249l-0.9375 0zm2.0237274 -2.765625q0 -1.531249 0.84375 -2.265624q0.71875 -0.625 1.734375 -0.625q1.140625 0 1.859375 0.75q0.734375 0.74999905 0.734375 2.062499q0 1.0625 -0.328125 1.6875q-0.3125 0.609375 -0.921875 0.953125q-0.609375 0.328125 -1.34375 0.328125q-1.15625 0 -1.875 -0.734375q-0.703125 -0.75 -0.703125 -2.15625zm0.953125 0q0 1.0625 0.46875 1.59375q0.46875 0.53125 1.15625 0.53125q0.703125 0 1.15625 -0.53125q0.46875 -0.53125 0.46875 -1.625q0 -1.015625 -0.46875 -1.546874q-0.453125 -0.53125 -1.15625 -0.53125q-0.6875 0 -1.15625 0.53125q-0.46875 0.51562405 -0.46875 1.578124zm5.3171234 2.765625l0 -5.531249l0.84375 0l0 0.796875q0.609375 -0.921875 1.75 -0.921875q0.5 0 0.921875 0.1875q0.421875 0.171875 0.625 0.46875q0.21875 0.296875 0.296875 0.6875q0.046875 0.26562405 0.046875 0.92187405l0 3.390625l-0.9375 0l0 -3.359375q0 -0.578125 -0.109375 -0.859375q-0.109375 -0.28124905 -0.390625 -0.45312405q-0.265625 -0.171875 -0.640625 -0.171875q-0.59375 0 -1.03125 0.390625q-0.4375 0.37499905 -0.4375 1.437499l0 3.015625l-0.9375 0zm9.707748 -1.78125l0.96875 0.125q-0.234375 0.84375 -0.859375 1.3125q-0.609375 0.46875 -1.578125 0.46875q-1.203125 0 -1.921875 -0.75q-0.703125 -0.75 -0.703125 -2.09375q0 -1.390625 0.71875 -2.156249q0.71875 -0.78125 1.859375 -0.78125q1.109375 0 1.8125 0.765625q0.703125 0.74999905 0.703125 2.124999q0 0.078125 0 0.234375l-4.125 0q0.046875 0.921875 0.515625 1.40625q0.46875 0.484375 1.15625 0.484375q0.515625 0 0.875 -0.265625q0.359375 -0.28125 0.578125 -0.875zm-3.078125 -1.515625l3.09375 0q-0.0625 -0.6875 -0.359375 -1.046874q-0.453125 -0.53125 -1.15625 -0.53125q-0.640625 0 -1.09375 0.4375q-0.4375 0.42187405 -0.484375 1.140624z" fill-rule="nonzero"/><path fill="#fff2cc" d="m216.7454 43.21522l5.9107666 0l0 0l8.866135 0l20.687668 0l0 9.296589l0 0l0 3.984253l0 2.656166l-20.687668 0l-4.432953 1.9921265l-4.433182 -1.9921265l-5.9107666 0l0 -2.656166l0 -3.984253l0 0z" fill-rule="evenodd"/><path stroke="#000000" stroke-width="1.0" stroke-linejoin="round" stroke-linecap="butt" d="m216.7454 43.21522l5.9107666 0l0 0l8.866135 0l20.687668 0l0 9.296589l0 0l0 3.984253l0 2.656166l-20.687668 0l-4.432953 1.9921265l-4.433182 -1.9921265l-5.9107666 0l0 -2.656166l0 -3.984253l0 0z" fill-rule="evenodd"/><path fill="#000000" d="m229.71416 54.923725l-0.9375 0l0 -5.96875q-0.34375 0.328125 -0.890625 0.65625q-0.546875 0.3125 -0.984375 0.46875l0 -0.90625q0.796875 -0.359375 1.375 -0.890625q0.59375 -0.53125 0.828125 -1.015625l0.609375 0l0 7.65625zm2.9264984 0l0 -1.0625l1.0625 0l0 1.0625l-1.0625 0zm2.4293976 -2.0l0.984375 -0.078125q0.109375 0.71875 0.5 1.078125q0.40625 0.359375 0.96875 0.359375q0.671875 0 1.140625 -0.5q0.46875 -0.515625 0.46875 -1.359375q0 -0.796875 -0.453125 -1.265625q-0.4375 -0.46875 -1.171875 -0.46875q-0.453125 0 -0.8125 0.21875q-0.359375 0.203125 -0.578125 0.53125l-0.875 -0.125l0.734375 -3.921875l3.796875 0l0 0.90625l-3.046875 0l-0.40625 2.046875q0.6875 -0.484375 1.4375 -0.484375q1.0 0 1.6875 0.703125q0.6875 0.6875 0.6875 1.765625q0 1.046875 -0.609375 1.796875q-0.734375 0.921875 -2.0 0.921875q-1.03125 0 -1.703125 -0.578125q-0.65625 -0.578125 -0.75 -1.546875z" fill-rule="nonzero"/><path fill="#fff2cc" d="m279.2756 43.21522l5.910736 0l0 0l8.86615 0l20.687653 0l0 9.296589l0 0l0 3.984253l0 2.656166l-20.687653 0l-4.432953 1.9921265l-4.433197 -1.9921265l-5.910736 0l0 -2.656166l0 -3.984253l0 0z" fill-rule="evenodd"/><path stroke="#000000" stroke-width="1.0" stroke-linejoin="round" stroke-linecap="butt" d="m279.2756 43.21522l5.910736 0l0 0l8.86615 0l20.687653 0l0 9.296589l0 0l0 3.984253l0 2.656166l-20.687653 0l-4.432953 1.9921265l-4.433197 -1.9921265l-5.910736 0l0 -2.656166l0 -3.984253l0 0z" fill-rule="evenodd"/><path fill="#000000" d="m293.63498 54.017475l0 0.90625l-5.03125 0q-0.015625 -0.34375 0.109375 -0.65625q0.1875 -0.515625 0.609375 -1.015625q0.421875 -0.5 1.234375 -1.140625q1.234375 -1.03125 1.671875 -1.625q0.4375 -0.59375 0.4375 -1.125q0 -0.5625 -0.40625 -0.9375q-0.390625 -0.390625 -1.03125 -0.390625q-0.671875 0 -1.078125 0.40625q-0.40625 0.40625 -0.40625 1.125l-0.96875 -0.09375q0.09375 -1.078125 0.734375 -1.640625q0.65625 -0.5625 1.734375 -0.5625q1.109375 0 1.75 0.609375q0.640625 0.609375 0.640625 1.5q0 0.46875 -0.1875 0.90625q-0.1875 0.4375 -0.625 0.9375q-0.4375 0.484375 -1.453125 1.328125q-0.828125 0.71875 -1.078125 0.96875q-0.234375 0.25 -0.390625 0.5l3.734375 0z" fill-rule="nonzero"/><path fill="#fff2cc" d="m102.49869 92.90026l6.1732254 0l0 0l9.259842 0l21.6063 0l0 9.296593l0 0l0 3.9842453l0 2.6561737l-21.6063 0l-4.6297913 1.9921265l-4.6300507 -1.9921265l-6.1732254 0l0 -2.6561737l0 -3.9842453l0 0z" fill-rule="evenodd"/><path stroke="#000000" stroke-width="1.0" stroke-linejoin="round" stroke-linecap="butt" d="m102.49869 92.90026l6.1732254 0l0 0l9.259842 0l21.6063 0l0 9.296593l0 0l0 3.9842453l0 2.6561737l-21.6063 0l-4.6297913 1.9921265l-4.6300507 -1.9921265l-6.1732254 0l0 -2.6561737l0 -3.9842453l0 0z" fill-rule="evenodd"/><path fill="#000000" d="m115.46744 104.608765l-0.9375 0l0 -5.96875q-0.34375 0.328125 -0.890625 0.65625q-0.546875 0.3125 -0.984375 0.46875l0 -0.90625q0.796875 -0.359375 1.375 -0.890625q0.59375 -0.53125 0.828125 -1.015625l0.609375 0l0 7.65625zm2.3952484 -3.765625q0 -1.34375 0.28125 -2.171875q0.28125 -0.828125 0.828125 -1.265625q0.546875 -0.453125 1.375 -0.453125q0.625 0 1.078125 0.25q0.46875 0.234375 0.765625 0.703125q0.3125 0.46875 0.484375 1.140625q0.171875 0.671875 0.171875 1.796875q0 1.34375 -0.28125 2.171875q-0.28125 0.828125 -0.828125 1.28125q-0.546875 0.4375 -1.390625 0.4375q-1.09375 0 -1.71875 -0.78125q-0.765625 -0.953125 -0.765625 -3.109375zm0.96875 0q0 1.875 0.4375 2.5q0.4375 0.625 1.078125 0.625q0.65625 0 1.09375 -0.625q0.4375 -0.625 0.4375 -2.5q0 -1.875 -0.4375 -2.5q-0.4375 -0.625 -1.09375 -0.625q-0.640625 0 -1.03125 0.546875q-0.484375 0.703125 -0.484375 2.578125zm4.9577484 0q0 -1.34375 0.28125 -2.171875q0.28125 -0.828125 0.828125 -1.265625q0.546875 -0.453125 1.375 -0.453125q0.625 0 1.078125 0.25q0.46875 0.234375 0.765625 0.703125q0.3125 0.46875 0.484375 1.140625q0.171875 0.671875 0.171875 1.796875q0 1.34375 -0.28125 2.171875q-0.28125 0.828125 -0.828125 1.28125q-0.546875 0.4375 -1.390625 0.4375q-1.09375 0 -1.71875 -0.78125q-0.765625 -0.953125 -0.765625 -3.109375zm0.96875 0q0 1.875 0.4375 2.5q0.4375 0.625 1.078125 0.625q0.65625 0 1.09375 -0.625q0.4375 -0.625 0.4375 -2.5q0 -1.875 -0.4375 -2.5q-0.4375 -0.625 -1.09375 -0.625q-0.640625 0 -1.03125 0.546875q-0.484375 0.703125 -0.484375 2.578125z" fill-rule="nonzero"/><path fill="#000000" fill-opacity="0.0" d="m27.95178 154.57312l109.82677 0l0 39.622055l-109.82677 0z" fill-rule="evenodd"/><path fill="#000000" d="m40.842403 172.15437q-1.609375 -0.46875 -2.34375 -1.140625q-0.734375 -0.671875 -0.734375 -1.65625q0 -1.125 0.890625 -1.859375q0.90625 -0.734375 2.34375 -0.734375q0.96875 0 1.734375 0.390625q0.765625 0.375 1.1875 1.046875q0.421875 0.65625 0.421875 1.4375l-1.265625 0q0 -0.859375 -0.546875 -1.34375q-0.546875 -0.5 -1.53125 -0.5q-0.921875 0 -1.453125 0.40625q-0.515625 0.40625 -0.515625 1.125q0 0.578125 0.484375 0.984375q0.5 0.40625 1.671875 0.734375q1.1875 0.328125 1.859375 0.734375q0.671875 0.390625 0.984375 0.9375q0.328125 0.53125 0.328125 1.25q0 1.15625 -0.90625 1.84375q-0.890625 0.6875 -2.390625 0.6875q-0.984375 0 -1.828125 -0.375q-0.84375 -0.375 -1.3125 -1.015625q-0.453125 -0.65625 -0.453125 -1.484375l1.265625 0q0 0.859375 0.625 1.359375q0.640625 0.5 1.703125 0.5q0.984375 0 1.515625 -0.40625q0.53125 -0.40625 0.53125 -1.09375q0 -0.703125 -0.5 -1.078125q-0.484375 -0.390625 -1.765625 -0.75zm7.844574 4.34375q-1.421875 0 -2.328125 -0.9375q-0.890625 -0.9375 -0.890625 -2.515625l0 -0.21875q0 -1.046875 0.390625 -1.859375q0.40625 -0.828125 1.125 -1.296875q0.71875 -0.46875 1.5625 -0.46875q1.375 0 2.125 0.90625q0.765625 0.90625 0.765625 2.59375l0 0.5l-4.765625 0q0.015625 1.03125 0.59375 1.671875q0.59375 0.640625 1.484375 0.640625q0.640625 0 1.078125 -0.25q0.453125 -0.265625 0.78125 -0.6875l0.734375 0.5625q-0.875 1.359375 -2.65625 1.359375zm-0.140625 -6.3125q-0.734375 0 -1.234375 0.53125q-0.484375 0.53125 -0.609375 1.484375l3.53125 0l0 -0.078125q-0.046875 -0.921875 -0.5 -1.421875q-0.4375 -0.515625 -1.1875 -0.515625zm7.1079254 5.328125q0.640625 0 1.125 -0.390625q0.484375 -0.390625 0.53125 -0.96875l1.140625 0q-0.03125 0.609375 -0.421875 1.15625q-0.375 0.546875 -1.015625 0.875q-0.640625 0.3125 -1.359375 0.3125q-1.4375 0 -2.296875 -0.953125q-0.84375 -0.96875 -0.84375 -2.625l0 -0.203125q0 -1.03125 0.375 -1.828125q0.390625 -0.796875 1.09375 -1.234375q0.703125 -0.453125 1.671875 -0.453125q1.171875 0 1.953125 0.71875q0.796875 0.703125 0.84375 1.828125l-1.140625 0q-0.046875 -0.671875 -0.515625 -1.109375q-0.46875 -0.453125 -1.140625 -0.453125q-0.921875 0 -1.4375 0.671875q-0.5 0.65625 -0.5 1.90625l0 0.21875q0 1.21875 0.5 1.875q0.515625 0.65625 1.4375 0.65625zm3.8358154 -2.71875q0 -1.046875 0.40625 -1.875q0.40625 -0.828125 1.125 -1.265625q0.734375 -0.453125 1.65625 -0.453125q1.4375038 0 2.3281288 1.0q0.890625 0.984375 0.890625 2.640625l0 0.09375q0 1.015625 -0.390625 1.84375q-0.390625 0.8125 -1.125 1.265625q-0.7343788 0.453125 -1.6875038 0.453125q-1.421875 0 -2.3125 -0.984375q-0.890625 -1.0 -0.890625 -2.640625l0 -0.078125zm1.203125 0.140625q0 1.171875 0.546875 1.875q0.546875 0.703125 1.453125 0.703125q0.921875 0 1.4531288 -0.71875q0.546875 -0.71875 0.546875 -2.0q0 -1.171875 -0.546875 -1.890625q-0.5468788 -0.71875 -1.4687538 -0.71875q-0.890625 0 -1.4375 0.71875q-0.546875 0.703125 -0.546875 2.03125zm7.8512 -3.609375l0.046875 0.890625q0.796875 -1.015625 2.109375 -1.015625q2.234375 0 2.25 2.515625l0 4.65625l-1.203125 0l0 -4.65625q-0.015625 -0.765625 -0.359375 -1.125q-0.328125 -0.375 -1.0625 -0.375q-0.578125 0 -1.03125 0.3125q-0.4375 0.3125 -0.6875 0.828125l0 5.015625l-1.203125 0l0 -7.046875l1.140625 0zm5.932022 3.46875q0 -1.625 0.765625 -2.609375q0.765625 -0.984375 2.0 -0.984375q1.25 0 1.96875 0.84375l0 -3.671875l1.203125 0l0 10.0l-1.109375 0l-0.0625 -0.75q-0.71875 0.875 -2.0 0.875q-1.234375 0 -2.0 -1.0q-0.765625 -1.0 -0.765625 -2.609375l0 -0.09375zm1.203125 0.140625q0 1.1875 0.484375 1.875q0.5 0.671875 1.375 0.671875q1.140625 0 1.671875 -1.03125l0 -3.234375q-0.546875 -1.0 -1.65625 -1.0q-0.890625 0 -1.390625 0.6875q-0.484375 0.6875 -0.484375 2.03125zm7.9072266 3.4375l-1.203125 0l0 -7.046875l1.203125 0l0 7.046875zm-1.296875 -8.90625q0 -0.296875 0.171875 -0.5q0.1875 -0.203125 0.53125 -0.203125q0.359375 0 0.53125 0.203125q0.1875 0.203125 0.1875 0.5q0 0.296875 -0.1875 0.5q-0.171875 0.1875 -0.53125 0.1875q-0.34375 0 -0.53125 -0.1875q-0.171875 -0.203125 -0.171875 -0.5z" fill-rule="nonzero"/></g></svg>