<svg version="1.1" viewBox="0.0 0.0 390.76115485564304 479.63254593175856" fill="none" stroke="none" stroke-linecap="square" stroke-miterlimit="10" xmlns:xlink="http://www.w3.org/1999/xlink" xmlns="http://www.w3.org/2000/svg"><clipPath id="p.0"><path d="m0 0l390.76117 0l0 479.63254l-390.76117 0l0 -479.63254z" clip-rule="nonzero"/></clipPath><g clip-path="url(#p.0)"><path fill="#000000" fill-opacity="0.0" d="m0 0l390.76117 0l0 479.63254l-390.76117 0z" fill-rule="evenodd"/><path fill="#000000" fill-opacity="0.0" d="m100.01575 14.5487385l0 0c0 -5.0156 4.0659485 -9.081547 9.081551 -9.081547l151.56918 0c2.4085999 0 4.718506 0.95680285 6.421631 2.6599236c1.703125 1.7031202 2.659912 4.013047 2.659912 6.421623l0 36.325096c0 5.015602 -4.065918 9.081547 -9.081543 9.081547l-151.56918 0c-5.015602 0 -9.081551 -4.0659447 -9.081551 -9.081547z" fill-rule="evenodd"/><path stroke="#ff9900" stroke-width="2.0" stroke-linejoin="round" stroke-linecap="butt" d="m100.01575 14.5487385l0 0c0 -5.0156 4.0659485 -9.081547 9.081551 -9.081547l151.56918 0c2.4085999 0 4.718506 0.95680285 6.421631 2.6599236c1.703125 1.7031202 2.659912 4.013047 2.659912 6.421623l0 36.325096c0 5.015602 -4.065918 9.081547 -9.081543 9.081547l-151.56918 0c-5.015602 0 -9.081551 -4.0659447 -9.081551 -9.081547z" fill-rule="evenodd"/><path fill="#000000" d="m131.41704 42.24316q-0.015625 -0.015625 -0.203125 -0.25q-0.171875 -0.234375 -0.46875 -0.625q-0.28125 -0.375 -0.59375 -0.828125q-0.3125 -0.4375 -0.625 -0.953125q-0.3125 -0.5 -0.5 -0.921875q-0.546875 0.09375 -1.0937424 0.09375q-1.34375 0 -2.390625 -0.4375q-1.03125 -0.453125 -1.6875 -1.25q-0.640625 -0.8125 -0.984375 -1.90625q-0.328125 -1.09375 -0.328125 -2.421875q0 -2.796875 1.390625 -4.390625q1.390625 -1.609375 4.015625 -1.609375q2.5624924 0 3.9531174 1.625q1.390625 1.609375 1.390625 4.375q0 2.0625 -0.828125 3.5625q-0.828125 1.5 -2.484375 2.125q0.140625 0.265625 0.375 0.65625q0.234375 0.390625 0.8125 1.234375q0.59375 0.859375 1.015625 1.265625l-0.765625 0.65625zm-6.6718674 -5.734375q1.078125 1.34375 3.1875 1.34375q2.1093674 0 3.1562424 -1.34375q1.0625 -1.359375 1.0625 -3.78125q0 -2.484375 -1.0625 -3.78125q-1.0625 -1.3125 -3.1562424 -1.3125q-2.09375 0 -3.1875 1.3125q-1.078125 1.296875 -1.078125 3.78125q0 2.421875 1.078125 3.78125zm13.812492 2.28125q-0.671875 0 -1.25 -0.15625q-0.578125 -0.15625 -1.078125 -0.484375q-0.484375 -0.328125 -0.765625 -0.921875q-0.28125 -0.59375 -0.28125 -1.390625l0 -5.828125l0.96875 0l0 5.84375q0 0.609375 0.1875 1.03125q0.1875 0.421875 0.53125 0.640625q0.359375 0.21875 0.75 0.3125q0.40625 0.078125 0.9375 0.078125q0.515625 0 0.90625 -0.09375q0.40625 -0.09375 0.75 -0.3125q0.34375 -0.21875 0.53125 -0.625q0.1875 -0.421875 0.1875 -1.03125l0 -5.84375l0.96875 0l0 5.828125q0 0.65625 -0.1875 1.171875q-0.1875 0.515625 -0.5 0.84375q-0.3125 0.328125 -0.765625 0.546875q-0.4375 0.21875 -0.90625 0.296875q-0.453125 0.09375 -0.984375 0.09375zm8.921875 -0.03125q-1.78125 0 -2.828125 -1.1875q-1.03125 -1.1875 -1.03125 -3.21875q0 -1.96875 1.015625 -3.21875q1.015625 -1.25 2.640625 -1.28125q1.5 0 2.40625 1.078125q0.921875 1.078125 0.921875 2.890625q0 0.0625 0 0.28125q0 0.21875 0 0.296875l-5.96875 0q0.015625 1.65625 0.796875 2.625q0.78125 0.953125 2.0625 0.953125q0.84375 0 1.453125 -0.1875q0.625 -0.203125 1.296875 -0.5625l0.15625 0.734375q-1.296875 0.796875 -2.921875 0.796875zm-2.796875 -5.140625l4.875 0q0 -1.421875 -0.625 -2.1875q-0.609375 -0.765625 -1.6875 -0.765625q-1.09375 0 -1.765625 0.8125q-0.671875 0.8125 -0.796875 2.140625zm7.8828125 4.953125q-0.015625 -7.546875 -0.015625 -8.5625l0.796875 0l0.0625 1.6875q0.453125 -0.765625 1.15625 -1.25q0.71875 -0.484375 1.5 -0.484375q0.3125 0 0.6875 0.046875l-0.078125 0.8125q-0.28125 -0.046875 -0.59375 -0.046875q-1.078125 0 -1.828125 0.859375q-0.734375 0.84375 -0.734375 2.015625l0 4.921875l-0.953125 0zm5.1796875 4.0625q-0.328125 0 -0.65625 -0.0625l-0.078125 -0.796875q0.03125 0 0.234375 0.015625q0.203125 0.015625 0.3125 0.015625q0.984375 0 1.46875 -0.34375q0.5 -0.328125 0.875 -1.3125q0.046875 -0.125 0.25 -0.671875q0.203125 -0.53125 0.3125 -0.84375l-3.421875 -8.625l1.015625 0l2.90625 7.703125q0 0 0.359375 -1.078125q2.140625 -6.71875 2.203125 -6.703125q0 0 -0.015625 0.078125l1.015625 0q-3.421875 9.625 -3.578125 10.0625q-0.53125 1.296875 -1.265625 1.921875q-0.71875 0.640625 -1.9375 0.640625zm14.171875 -3.859375q-0.828125 0 -1.5625 -0.203125q-0.71875 -0.21875 -1.140625 -0.5l0.140625 -0.8125q1.28125 0.671875 2.46875 0.671875q2.109375 0 2.1875 -1.5625q0 -0.65625 -0.421875 -1.03125q-0.421875 -0.375 -1.703125 -0.78125q-0.671875 -0.234375 -0.75 -0.265625q-2.0 -0.609375 -2.015625 -2.15625q0 -0.90625 0.78125 -1.59375q0.796875 -0.6875 2.140625 -0.6875q1.359375 0 2.546875 0.53125l-0.328125 0.71875q-1.203125 -0.453125 -2.234375 -0.453125q-0.90625 0 -1.421875 0.40625q-0.515625 0.40625 -0.515625 1.09375q0 0.578125 0.328125 0.890625q0.34375 0.296875 1.359375 0.578125q0.109375 0.03125 0.390625 0.140625q0.296875 0.109375 0.328125 0.125q1.359375 0.40625 1.890625 0.984375q0.53125 0.5625 0.53125 1.53125q-0.015625 1.125 -0.84375 1.75q-0.8125 0.625 -2.15625 0.625zm8.0625 0.015625q-0.671875 0 -1.25 -0.15625q-0.578125 -0.15625 -1.078125 -0.484375q-0.484375 -0.328125 -0.765625 -0.921875q-0.28125 -0.59375 -0.28125 -1.390625l0 -5.828125l0.96875 0l0 5.84375q0 0.609375 0.1875 1.03125q0.1875 0.421875 0.53125 0.640625q0.359375 0.21875 0.75 0.3125q0.40625 0.078125 0.9375 0.078125q0.515625 0 0.90625 -0.09375q0.40625 -0.09375 0.75 -0.3125q0.34375 -0.21875 0.53125 -0.625q0.1875 -0.421875 0.1875 -1.03125l0 -5.84375l0.96875 0l0 5.828125q0 0.65625 -0.1875 1.171875q-0.1875 0.515625 -0.5 0.84375q-0.3125 0.328125 -0.765625 0.546875q-0.4375 0.21875 -0.90625 0.296875q-0.453125 0.09375 -0.984375 0.09375zm9.4296875 -0.21875l0 -11.625l1.0 0l0 11.625l-1.0 0zm3.65625 0l0 -8.5625l0.84375 0l0.125 1.3125q0.46875 -0.6875 1.234375 -1.078125q0.78125 -0.390625 1.6875 -0.390625q1.46875 0 2.15625 0.8125q0.703125 0.8125 0.703125 2.59375l0 5.3125l-0.96875 0l0 -5.75q-0.046875 -1.140625 -0.5 -1.640625q-0.4375 -0.5 -1.453125 -0.5q-1.15625 0 -1.90625 0.59375q-0.734375 0.578125 -0.921875 1.5q-0.03125 0.375 -0.03125 0.765625l0 5.03125l-0.96875 0zm15.890625 0.09375q-0.375 0 -0.65625 -0.03125q-0.28125 -0.03125 -0.5 -0.15625q-0.203125 -0.140625 -0.34375 -0.234375q-0.140625 -0.109375 -0.234375 -0.40625q-0.09375 -0.296875 -0.15625 -0.5q-0.046875 -0.21875 -0.078125 -0.734375q-0.015625 -0.515625 -0.015625 -0.859375q0 -0.34375 0 -1.09375l0 -7.03125q-2.09375 -0.140625 -2.046875 -0.015625q-0.828125 0 -1.1875 0.484375q-0.359375 0.484375 -0.40625 1.765625l0 0.0625l-0.015625 0.078125l2.0 0l0 0.71875l-2.0 0l0 7.859375l-1.0 0l0 -7.859375l-1.21875 0l0 -0.71875l1.21875 0l0 -0.15625q0.03125 -0.90625 0.234375 -1.5q0.203125 -0.609375 0.578125 -0.90625q0.375 -0.3125 0.8125 -0.421875q0.4375 -0.109375 1.0625 -0.109375q-0.3125 0 -0.3125 -0.046875q0 -0.109375 3.28125 0.109375l0 7.953125q0 0.0625 0 0.15625q0 0.65625 0 0.9375q0.015625 0.28125 0.046875 0.6875q0.03125 0.390625 0.09375 0.546875q0.078125 0.140625 0.203125 0.328125q0.140625 0.171875 0.34375 0.21875q0.203125 0.046875 0.515625 0.046875q0.234375 0 0.59375 -0.03125l0.09375 0.75q-0.15625 0.03125 -0.90625 0.109375zm5.3984375 0.125q-0.671875 0 -1.25 -0.15625q-0.578125 -0.15625 -1.078125 -0.484375q-0.484375 -0.328125 -0.765625 -0.921875q-0.28125 -0.59375 -0.28125 -1.390625l0 -5.828125l0.96875 0l0 5.84375q0 0.609375 0.1875 1.03125q0.1875 0.421875 0.53125 0.640625q0.359375 0.21875 0.75 0.3125q0.40625 0.078125 0.9375 0.078125q0.515625 0 0.90625 -0.09375q0.40625 -0.09375 0.75 -0.3125q0.34375 -0.21875 0.53125 -0.625q0.1875 -0.421875 0.1875 -1.03125l0 -5.84375l0.96875 0l0 5.828125q0 0.65625 -0.1875 1.171875q-0.1875 0.515625 -0.5 0.84375q-0.3125 0.328125 -0.765625 0.546875q-0.4375 0.21875 -0.90625 0.296875q-0.453125 0.09375 -0.984375 0.09375zm4.59375 -0.21875l3.1875 -4.34375l-3.09375 -4.21875l1.078125 0l2.5 3.53125l2.484375 -3.53125l1.109375 0l-3.09375 4.25l3.15625 4.3125l-1.046875 0l-2.59375 -3.640625l-2.59375 3.640625l-1.09375 0zm10.03125 -0.84375l2.28125 0q2.421875 0 3.6875 -1.234375q1.28125 -1.234375 1.28125 -3.6875q0 -1.34375 -0.359375 -2.3125q-0.359375 -0.984375 -1.046875 -1.578125q-0.6875 -0.59375 -1.625 -0.859375q-0.9375 -0.28125 -2.15625 -0.28125l-2.0625 0l0 9.953125zm-1.0 0.84375l0 -11.625l3.15625 0q1.421875 0 2.53125 0.34375q1.125 0.328125 1.953125 1.015625q0.828125 0.6875 1.265625 1.828125q0.453125 1.125 0.453125 2.625q0 2.859375 -1.578125 4.34375q-1.5625 1.46875 -4.390625 1.46875l-3.390625 0zm11.703125 0l0 -11.625l3.171875 0q2.171875 0 3.15625 0.71875q1.0 0.71875 1.0 2.1875q0 0.171875 0 0.265625q0 0.078125 -0.03125 0.328125q-0.03125 0.25 -0.109375 0.421875q-0.0625 0.171875 -0.203125 0.4375q-0.140625 0.25 -0.34375 0.4375q-0.1875 0.1875 -0.515625 0.375q-0.3125 0.1875 -0.71875 0.3125q1.21875 0.1875 1.859375 0.984375q0.65625 0.796875 0.65625 1.875q0 1.546875 -0.984375 2.421875q-0.96875 0.859375 -3.0 0.859375l-3.9375 0zm1.0 -0.78125l2.6875 0q3.15625 0 3.15625 -2.5q0 -1.34375 -0.875 -1.875q-0.875 -0.53125 -2.734375 -0.53125l-2.234375 0l0 4.90625zm0 -5.671875l2.671875 0q0.609375 0 1.046875 -0.09375q0.453125 -0.09375 0.8125 -0.328125q0.375 -0.234375 0.546875 -0.671875q0.1875 -0.453125 0.1875 -1.109375q0 -1.21875 -0.75 -1.6875q-0.75 -0.46875 -2.390625 -0.46875l-2.125 0l0 4.359375z" fill-rule="nonzero"/><path fill="#000000" fill-opacity="0.0" d="m184.8819 59.95538l0 22.99213" fill-rule="evenodd"/><path stroke="#ffab40" stroke-width="2.0" stroke-linejoin="round" stroke-linecap="butt" d="m184.8819 59.95538l0 10.99213" fill-rule="evenodd"/><path fill="#ffab40" stroke="#ffab40" stroke-width="2.0" stroke-linecap="butt" d="m181.57843 70.94751l3.3034668 9.076195l3.3034515 -9.076195z" fill-rule="evenodd"/><path fill="#000000" fill-opacity="0.0" d="m184.8819 114.580055l0 18.771645" fill-rule="evenodd"/><path stroke="#ffab40" stroke-width="2.0" stroke-linejoin="round" stroke-linecap="butt" d="m184.8819 114.580055l0 6.771652" fill-rule="evenodd"/><path fill="#ffab40" stroke="#ffab40" stroke-width="2.0" stroke-linecap="butt" d="m181.57843 121.35171l3.3034668 9.076195l3.3034515 -9.076195z" fill-rule="evenodd"/><path fill="#000000" fill-opacity="0.0" d="m49.11811 86.04998l0 0c0 -3.1514206 2.5547295 -5.7061462 5.70615 -5.7061462l260.11526 0c1.5133667 0 2.9647522 0.60118103 4.034851 1.6712875c1.0701294 1.0701141 1.6712952 2.5214996 1.6712952 4.0348587l0 22.823921c0 3.1514206 -2.554718 5.706154 -5.7061462 5.706154l-260.11526 0l0 0c-3.1514206 0 -5.70615 -2.5547333 -5.70615 -5.706154z" fill-rule="evenodd"/><path stroke="#ff9900" stroke-width="2.0" stroke-linejoin="round" stroke-linecap="butt" d="m49.11811 86.04998l0 0c0 -3.1514206 2.5547295 -5.7061462 5.70615 -5.7061462l260.11526 0c1.5133667 0 2.9647522 0.60118103 4.034851 1.6712875c1.0701294 1.0701141 1.6712952 2.5214996 1.6712952 4.0348587l0 22.823921c0 3.1514206 -2.554718 5.706154 -5.7061462 5.706154l-260.11526 0l0 0c-3.1514206 0 -5.70615 -2.5547333 -5.70615 -5.706154z" fill-rule="evenodd"/><path fill="#000000" d="m77.229546 103.509445q-1.46875 0 -2.609375 -0.3125q-1.125 -0.328125 -1.75 -0.703125l0.375 -0.703125q1.640625 0.890625 4.078125 0.890625q1.328125 0 2.046875 -0.6875q0.734375 -0.703125 0.734375 -1.96875q0 -0.46875 -0.09375 -0.78125q-0.078125 -0.328125 -0.3125 -0.625q-0.234375 -0.296875 -0.6875 -0.484375q-0.453125 -0.203125 -1.140625 -0.34375l-1.875 -0.375q-1.578125 -0.3125 -2.359375 -0.984375q-0.78125 -0.671875 -0.78125 -1.921875q0 -0.796875 0.3125 -1.390625q0.3125 -0.59375 0.890625 -0.9375q0.59375 -0.359375 1.375 -0.515625q0.78125 -0.171875 1.765625 -0.171875q0.984375 0 1.921875 0.25q0.953125 0.234375 1.546875 0.53125l-0.25 0.765625q-0.46875 -0.25 -1.375 -0.484375q-0.890625 -0.234375 -1.859375 -0.234375q-1.65625 0 -2.484375 0.5625q-0.828125 0.546875 -0.828125 1.734375q0 0.734375 0.515625 1.1875q0.53125 0.453125 1.5625 0.671875l2.09375 0.421875q0.78125 0.171875 1.3125 0.40625q0.546875 0.21875 0.96875 0.578125q0.421875 0.359375 0.625 0.890625q0.203125 0.53125 0.203125 1.265625q0 1.640625 -1.078125 2.5625q-1.078125 0.90625 -2.84375 0.90625zm8.0390625 0q-1.203125 0 -1.9375 -0.609375q-0.71875 -0.609375 -0.71875 -1.75q0 -0.671875 0.28125 -1.15625q0.296875 -0.5 0.84375 -0.8125q0.546875 -0.3125 1.25 -0.484375q0.71875 -0.171875 1.65625 -0.234375q1.0 -0.0625 1.484375 -0.109375l0 -0.953125q0 -0.984375 -0.453125 -1.46875q-0.453125 -0.5 -1.4375 -0.5q-1.359375 0 -2.546875 0.640625q-0.03125 -0.078125 -0.140625 -0.328125q-0.109375 -0.265625 -0.15625 -0.40625q0.484375 -0.3125 1.265625 -0.515625q0.78125 -0.21875 1.53125 -0.21875q1.53125 0 2.203125 0.65625q0.671875 0.65625 0.671875 2.34375l0 5.71875l-0.75 0q-0.046875 -0.1875 -0.125 -0.71875q-0.0625 -0.53125 -0.0625 -0.546875q-1.015625 1.453125 -2.859375 1.453125zm0.03125 -0.78125q1.0 0 1.78125 -0.578125q0.78125 -0.59375 1.015625 -1.640625l0 -1.46875q-1.125 0.09375 -1.125 0.09375q-1.90625 0.171875 -2.65625 0.625q-0.734375 0.453125 -0.734375 1.40625q0 0.78125 0.46875 1.171875q0.46875 0.390625 1.25 0.390625zm8.2578125 0.78125q-1.078125 0 -1.578125 -0.484375q-0.5 -0.5 -0.5 -1.609375l0 -9.984375l0.953125 -0.078125l0 10.015625q0 0.78125 0.28125 1.078125q0.28125 0.296875 0.859375 0.296875q0.46875 0 1.171875 -0.1875l0.046875 0.75q-0.765625 0.203125 -1.234375 0.203125zm4.5078125 -0.1875l-3.265625 -8.5625l1.03125 0l1.984375 5.390625q0.15625 0.515625 0.375 1.09375q0.21875 0.5625 0.34375 0.890625l0.140625 0.3125q0.140625 -0.5 0.375 -1.0625q0.25 -0.578125 0.4375 -1.203125q0.21875 -0.671875 0.765625 -2.03125q0.5625 -1.359375 1.21875 -3.390625l1.03125 0l-3.3125 8.5625l-1.125 0zm7.8046875 0.1875q-1.203125 0 -1.9375 -0.609375q-0.71875 -0.609375 -0.71875 -1.75q0 -0.671875 0.28125 -1.15625q0.296875 -0.5 0.84375 -0.8125q0.546875 -0.3125 1.25 -0.484375q0.71875 -0.171875 1.65625 -0.234375q1.0 -0.0625 1.484375 -0.109375l0 -0.953125q0 -0.984375 -0.453125 -1.46875q-0.453125 -0.5 -1.4375 -0.5q-1.359375 0 -2.546875 0.640625q-0.03125 -0.078125 -0.140625 -0.328125q-0.109375 -0.265625 -0.15625 -0.40625q0.484375 -0.3125 1.265625 -0.515625q0.78125 -0.21875 1.53125 -0.21875q1.53125 0 2.203125 0.65625q0.671875 0.65625 0.671875 2.34375l0 5.71875l-0.75 0q-0.046875 -0.1875 -0.125 -0.71875q-0.0625 -0.53125 -0.0625 -0.546875q-1.015625 1.453125 -2.859375 1.453125zm0.03125 -0.78125q1.0 0 1.78125 -0.578125q0.78125 -0.59375 1.015625 -1.640625l0 -1.46875q-1.125 0.09375 -1.125 0.09375q-1.90625 0.171875 -2.65625 0.625q-0.734375 0.453125 -0.734375 1.40625q0 0.78125 0.46875 1.171875q0.46875 0.390625 1.25 0.390625zm11.03125 4.578125l-0.109375 -0.875l1.8125 0q0.59375 0 1.046875 -0.109375q0.46875 -0.09375 0.78125 -0.265625q0.328125 -0.171875 0.546875 -0.46875q0.21875 -0.296875 0.34375 -0.59375q0.125 -0.296875 0.1875 -0.78125q0.078125 -0.46875 0.09375 -0.875q0.015625 -0.390625 0.015625 -0.984375q0 0.078125 -0.015625 -0.046875q-0.046875 -0.53125 -0.046875 -0.53125q-0.484375 0.734375 -1.15625 1.140625q-0.671875 0.40625 -1.640625 0.40625q-0.765625 0 -1.40625 -0.265625q-0.625 -0.28125 -1.03125 -0.71875q-0.390625 -0.4375 -0.671875 -1.0q-0.265625 -0.5625 -0.390625 -1.125q-0.109375 -0.5625 -0.109375 -1.109375q0 -0.6875 0.109375 -1.296875q0.109375 -0.625 0.390625 -1.21875q0.28125 -0.59375 0.703125 -1.03125q0.421875 -0.4375 1.078125 -0.6875q0.671875 -0.265625 1.515625 -0.265625q0.8125 0 1.4375 0.328125q0.640625 0.3125 1.171875 1.03125l0.09375 -1.203125l0.859375 0l0 7.9375q0 0.515625 -0.015625 0.828125q0 0.328125 -0.09375 0.859375q-0.078125 0.546875 -0.21875 0.890625q-0.140625 0.359375 -0.4375 0.78125q-0.296875 0.421875 -0.71875 0.65625q-0.421875 0.25 -1.078125 0.421875q-0.640625 0.171875 -1.46875 0.171875l-1.578125 0zm1.984375 -4.78125q0.5625 0 1.015625 -0.171875q0.46875 -0.1875 0.765625 -0.484375q0.3125 -0.3125 0.515625 -0.71875q0.203125 -0.40625 0.28125 -0.828125q0.09375 -0.4375 0.09375 -0.90625l0 -0.890625q0 -0.609375 -0.15625 -1.140625q-0.140625 -0.546875 -0.453125 -1.0q-0.296875 -0.453125 -0.84375 -0.71875q-0.53125 -0.265625 -1.25 -0.265625q-0.578125 0 -1.046875 0.21875q-0.453125 0.21875 -0.75 0.59375q-0.296875 0.359375 -0.5 0.859375q-0.203125 0.484375 -0.296875 1.0q-0.078125 0.515625 -0.078125 1.046875q0 0.484375 0.078125 0.9375q0.078125 0.4375 0.265625 0.90625q0.1875 0.453125 0.484375 0.796875q0.296875 0.34375 0.78125 0.5625q0.484375 0.203125 1.09375 0.203125zm8.0234375 0.984375q-1.078125 0 -1.578125 -0.484375q-0.5 -0.5 -0.5 -1.609375l0 -9.984375l0.953125 -0.078125l0 10.015625q0 0.78125 0.28125 1.078125q0.28125 0.296875 0.859375 0.296875q0.46875 0 1.1718826 -0.1875l0.046875 0.75q-0.7656326 0.203125 -1.2343826 0.203125zm2.4765701 -0.1875l0 -8.5625l0.984375 0l0 8.5625l-0.984375 0zm0 -10.3125l0 -1.3125l0.96875 0l0 1.3125l-0.96875 0zm10.46875 10.5q-1.78125 0 -2.828125 -1.1875q-1.03125 -1.1875 -1.03125 -3.21875q0 -1.96875 1.015625 -3.21875q1.015625 -1.25 2.640625 -1.28125q1.5 0 2.40625 1.078125q0.921875 1.078125 0.921875 2.890625q0 0.0625 0 0.28125q0 0.21875 0 0.296875l-5.96875 0q0.015625 1.65625 0.796875 2.625q0.78125 0.953125 2.0625 0.953125q0.84375 0 1.453125 -0.1875q0.625 -0.203125 1.296875 -0.5625l0.15625 0.734375q-1.296875 0.796875 -2.921875 0.796875zm-2.796875 -5.140625l4.875 0q0 -1.421875 -0.625 -2.1875q-0.609375 -0.765625 -1.6875 -0.765625q-1.09375 0 -1.765625 0.8125q-0.671875 0.8125 -0.796875 2.140625zm9.9921875 4.953125l-3.265625 -8.5625l1.03125 0l1.984375 5.390625q0.15625 0.515625 0.375 1.09375q0.21875 0.5625 0.34375 0.890625l0.140625 0.3125q0.140625 -0.5 0.375 -1.0625q0.25 -0.578125 0.4375 -1.203125q0.21875 -0.671875 0.765625 -2.03125q0.5625 -1.359375 1.21875 -3.390625l1.03125 0l-3.3125 8.5625l-1.125 0zm9.0703125 0.1875q-1.78125 0 -2.828125 -1.1875q-1.03125 -1.1875 -1.03125 -3.21875q0 -1.96875 1.015625 -3.21875q1.015625 -1.25 2.640625 -1.28125q1.5 0 2.40625 1.078125q0.921875 1.078125 0.921875 2.890625q0 0.0625 0 0.28125q0 0.21875 0 0.296875l-5.96875 0q0.015625 1.65625 0.796875 2.625q0.78125 0.953125 2.0625 0.953125q0.84375 0 1.453125 -0.1875q0.625 -0.203125 1.296875 -0.5625l0.15625 0.734375q-1.296875 0.796875 -2.921875 0.796875zm-2.796875 -5.140625l4.875 0q0 -1.421875 -0.625 -2.1875q-0.609375 -0.765625 -1.6875 -0.765625q-1.09375 0 -1.765625 0.8125q-0.671875 0.8125 -0.796875 2.140625zm7.8671875 4.953125l0 -8.5625l0.84375 0l0.125 1.3125q0.46875 -0.6875 1.234375 -1.078125q0.78125 -0.390625 1.6875 -0.390625q1.46875 0 2.15625 0.8125q0.703125 0.8125 0.703125 2.59375l0 5.3125l-0.96875 0l0 -5.75q-0.046875 -1.140625 -0.5 -1.640625q-0.4375 -0.5 -1.453125 -0.5q-1.15625 0 -1.90625 0.59375q-0.734375 0.578125 -0.921875 1.5q-0.03125 0.375 -0.03125 0.765625l0 5.03125l-0.96875 0zm11.40625 0.1875q-1.078125 0 -1.578125 -0.484375q-0.5 -0.5 -0.5 -1.609375l0 -5.953125l-1.203125 0l0.0625 -0.578125l1.15625 -0.109375l0.265625 -1.96875l0.671875 -0.046875l0 2.0l2.5 0l0 0.703125l-2.5 0l0 5.75q0 0.90625 0.296875 1.21875q0.296875 0.3125 1.046875 0.3125q0.484375 0 1.203125 -0.1875l0.046875 0.75q-0.953125 0.203125 -1.46875 0.203125zm2.96875 -0.1875l0 -8.5625l0.984375 0l0 8.5625l-0.984375 0zm0 -10.3125l0 -1.3125l0.96875 0l0 1.3125l-0.96875 0zm9.499985 10.515625q-0.828125 0 -1.5625 -0.203125q-0.71875 -0.21875 -1.140625 -0.5l0.140625 -0.8125q1.28125 0.671875 2.46875 0.671875q2.109375 0 2.1875 -1.5625q0 -0.65625 -0.421875 -1.03125q-0.421875 -0.375 -1.703125 -0.78125q-0.671875 -0.234375 -0.75 -0.265625q-2.0 -0.609375 -2.015625 -2.15625q0 -0.90625 0.78125 -1.59375q0.796875 -0.6875 2.140625 -0.6875q1.359375 0 2.546875 0.53125l-0.328125 0.71875q-1.203125 -0.453125 -2.234375 -0.453125q-0.90625 0 -1.421875 0.40625q-0.515625 0.40625 -0.515625 1.09375q0 0.578125 0.328125 0.890625q0.34375 0.296875 1.359375 0.578125q0.109375 0.03125 0.390625 0.140625q0.296875 0.109375 0.328125 0.125q1.359375 0.40625 1.890625 0.984375q0.53125 0.5625 0.53125 1.53125q-0.015625 1.125 -0.84375 1.75q-0.8125 0.625 -2.15625 0.625zm8.0625 0.015625q-0.671875 0 -1.25 -0.15625q-0.578125 -0.15625 -1.078125 -0.484375q-0.484375 -0.328125 -0.765625 -0.921875q-0.28125 -0.59375 -0.28125 -1.390625l0 -5.828125l0.96875 0l0 5.84375q0 0.609375 0.1875 1.03125q0.1875 0.421875 0.53125 0.640625q0.359375 0.21875 0.75 0.3125q0.40625 0.078125 0.9375 0.078125q0.515625 0 0.90625 -0.09375q0.40625 -0.09375 0.75 -0.3125q0.34375 -0.21875 0.53125 -0.625q0.1875 -0.421875 0.1875 -1.03125l0 -5.84375l0.96875 0l0 5.828125q0 0.65625 -0.1875 1.171875q-0.1875 0.515625 -0.5 0.84375q-0.3125 0.328125 -0.765625 0.546875q-0.4375 0.21875 -0.90625 0.296875q-0.453125 0.09375 -0.984375 0.09375zm12.2578125 0q-0.671875 0 -1.25 -0.15625q-0.578125 -0.15625 -1.078125 -0.484375q-0.484375 -0.328125 -0.765625 -0.921875q-0.28125 -0.59375 -0.28125 -1.390625l0 -5.828125l0.96875 0l0 5.84375q0 0.609375 0.1875 1.03125q0.1875 0.421875 0.53125 0.640625q0.359375 0.21875 0.75 0.3125q0.40625 0.078125 0.9375 0.078125q0.515625 0 0.90625 -0.09375q0.40625 -0.09375 0.75 -0.3125q0.34375 -0.21875 0.53125 -0.625q0.1875 -0.421875 0.1875 -1.03125l0 -5.84375l0.96875 0l0 5.828125q0 0.65625 -0.1875 1.171875q-0.1875 0.515625 -0.5 0.84375q-0.3125 0.328125 -0.765625 0.546875q-0.4375 0.21875 -0.90625 0.296875q-0.453125 0.09375 -0.984375 0.09375zm5.453125 -0.21875l0 -8.5625l0.84375 0l0.125 1.3125q0.46875 -0.6875 1.234375 -1.078125q0.78125 -0.390625 1.6875 -0.390625q1.46875 0 2.15625 0.8125q0.703125 0.8125 0.703125 2.59375l0 5.3125l-0.96875 0l0 -5.75q-0.046875 -1.140625 -0.5 -1.640625q-0.4375 -0.5 -1.453125 -0.5q-1.15625 0 -1.90625 0.59375q-0.734375 0.578125 -0.921875 1.5q-0.03125 0.375 -0.03125 0.765625l0 5.03125l-0.96875 0zm13.8828125 -0.84375l2.28125 0q2.421875 0 3.6875 -1.234375q1.28125 -1.234375 1.28125 -3.6875q0 -1.34375 -0.359375 -2.3125q-0.359375 -0.984375 -1.046875 -1.578125q-0.6875 -0.59375 -1.625 -0.859375q-0.9375 -0.28125 -2.15625 -0.28125l-2.0625 0l0 9.953125zm-1.0 0.84375l0 -11.625l3.15625 0q1.421875 0 2.53125 0.34375q1.125 0.328125 1.953125 1.015625q0.828125 0.6875 1.265625 1.828125q0.453125 1.125 0.453125 2.625q0 2.859375 -1.578125 4.34375q-1.5625 1.46875 -4.390625 1.46875l-3.390625 0zm13.71875 0.1875q-1.203125 0 -1.9375 -0.609375q-0.71875 -0.609375 -0.71875 -1.75q0 -0.671875 0.28125 -1.15625q0.296875 -0.5 0.84375 -0.8125q0.546875 -0.3125 1.25 -0.484375q0.71875 -0.171875 1.65625 -0.234375q1.0 -0.0625 1.484375 -0.109375l0 -0.953125q0 -0.984375 -0.453125 -1.46875q-0.453125 -0.5 -1.4375 -0.5q-1.359375 0 -2.546875 0.640625q-0.03125 -0.078125 -0.140625 -0.328125q-0.109375 -0.265625 -0.15625 -0.40625q0.484375 -0.3125 1.265625 -0.515625q0.78125 -0.21875 1.53125 -0.21875q1.53125 0 2.203125 0.65625q0.671875 0.65625 0.671875 2.34375l0 5.71875l-0.75 0q-0.046875 -0.1875 -0.125 -0.71875q-0.0625 -0.53125 -0.0625 -0.546875q-1.015625 1.453125 -2.859375 1.453125zm0.03125 -0.78125q1.0 0 1.78125 -0.578125q0.78125 -0.59375 1.015625 -1.640625l0 -1.46875q-1.125 0.09375 -1.125 0.09375q-1.90625 0.171875 -2.65625 0.625q-0.734375 0.453125 -0.734375 1.40625q0 0.78125 0.46875 1.171875q0.46875 0.390625 1.25 0.390625zm8.5078125 0.78125q-1.078125 0 -1.578125 -0.484375q-0.5 -0.5 -0.5 -1.609375l0 -5.953125l-1.203125 0l0.0625 -0.578125l1.15625 -0.109375l0.265625 -1.96875l0.671875 -0.046875l0 2.0l2.5 0l0 0.703125l-2.5 0l0 5.75q0 0.90625 0.296875 1.21875q0.296875 0.3125 1.046875 0.3125q0.484375 0 1.203125 -0.1875l0.046875 0.75q-0.953125 0.203125 -1.46875 0.203125zm5.15625 0q-1.203125 0 -1.9375 -0.609375q-0.71875 -0.609375 -0.71875 -1.75q0 -0.671875 0.28125 -1.15625q0.296875 -0.5 0.84375 -0.8125q0.546875 -0.3125 1.25 -0.484375q0.71875 -0.171875 1.65625 -0.234375q1.0 -0.0625 1.484375 -0.109375l0 -0.953125q0 -0.984375 -0.453125 -1.46875q-0.453125 -0.5 -1.4375 -0.5q-1.359375 0 -2.546875 0.640625q-0.03125 -0.078125 -0.140625 -0.328125q-0.109375 -0.265625 -0.15625 -0.40625q0.484375 -0.3125 1.265625 -0.515625q0.78125 -0.21875 1.53125 -0.21875q1.53125 0 2.203125 0.65625q0.671875 0.65625 0.671875 2.34375l0 5.71875l-0.75 0q-0.046875 -0.1875 -0.125 -0.71875q-0.0625 -0.53125 -0.0625 -0.546875q-1.015625 1.453125 -2.859375 1.453125zm0.03125 -0.78125q1.0 0 1.78125 -0.578125q0.78125 -0.59375 1.015625 -1.640625l0 -1.46875q-1.125 0.09375 -1.125 0.09375q-1.90625 0.171875 -2.65625 0.625q-0.734375 0.453125 -0.734375 1.40625q0 0.78125 0.46875 1.171875q0.46875 0.390625 1.25 0.390625zm6.6328278 0.59375l0 -7.859375l-1.40625 0l0.0625 -0.59375l1.34375 -0.109375l0 -0.328125q0 -1.6875 0.59375 -2.453125q0.59375 -0.765625 1.8125 -0.765625q0.34375 0 1.1875 0.125l-0.0625 0.640625q-0.75 -0.09375 -1.015625 -0.09375q-0.890625 0 -1.21875 0.578125q-0.328125 0.578125 -0.328125 2.015625l0 0.28125l2.09375 0l0 0.703125l-2.09375 0l0 7.859375l-0.96875 0zm4.46875 0q-0.015625 -7.546875 -0.015625 -8.5625l0.796875 0l0.0625 1.6875q0.453125 -0.765625 1.15625 -1.25q0.71875 -0.484375 1.5 -0.484375q0.3125 0 0.6875 0.046875l-0.078125 0.8125q-0.28125 -0.046875 -0.59375 -0.046875q-1.078125 0 -1.828125 0.859375q-0.734375 0.84375 -0.734375 2.015625l0 4.921875l-0.953125 0zm7.7578125 0.1875q-1.203125 0 -1.9375 -0.609375q-0.71875 -0.609375 -0.71875 -1.75q0 -0.671875 0.28125 -1.15625q0.296875 -0.5 0.84375 -0.8125q0.546875 -0.3125 1.25 -0.484375q0.71875 -0.171875 1.65625 -0.234375q1.0 -0.0625 1.484375 -0.109375l0 -0.953125q0 -0.984375 -0.453125 -1.46875q-0.453125 -0.5 -1.4375 -0.5q-1.359375 0 -2.546875 0.640625q-0.03125 -0.078125 -0.140625 -0.328125q-0.109375 -0.265625 -0.15625 -0.40625q0.484375 -0.3125 1.265625 -0.515625q0.78125 -0.21875 1.53125 -0.21875q1.53125 0 2.203125 0.65625q0.671875 0.65625 0.671875 2.34375l0 5.71875l-0.75 0q-0.046875 -0.1875 -0.125 -0.71875q-0.0625 -0.53125 -0.0625 -0.546875q-1.015625 1.453125 -2.859375 1.453125zm0.03125 -0.78125q1.0 0 1.78125 -0.578125q0.78125 -0.59375 1.015625 -1.640625l0 -1.46875q-1.125 0.09375 -1.125 0.09375q-1.90625 0.171875 -2.65625 0.625q-0.734375 0.453125 -0.734375 1.40625q0 0.78125 0.46875 1.171875q0.46875 0.390625 1.25 0.390625zm6.1171875 0.59375q-0.015625 -7.765625 -0.015625 -8.5625l0.84375 0l0.125 1.3125q0.375 -0.640625 1.109375 -1.046875q0.75 -0.421875 1.59375 -0.421875q2.046875 0 2.578125 1.609375q0.90625 -1.609375 2.875 -1.609375q1.40625 0 2.0625 0.796875q0.671875 0.796875 0.671875 2.390625l0 5.53125l-0.96875 0l0 -4.1875q0 -0.59375 -0.015625 -0.984375q-0.015625 -0.40625 -0.078125 -0.875q-0.0625 -0.46875 -0.1875 -0.765625q-0.109375 -0.296875 -0.3125 -0.5625q-0.1875 -0.265625 -0.5 -0.390625q-0.296875 -0.125 -0.71875 -0.125q-0.984375 0 -1.671875 0.578125q-0.671875 0.578125 -0.9375 1.640625q0.015625 0.796875 0.03125 1.234375l0 4.4375l-0.953125 0l0 -4.359375q0 -0.671875 -0.046875 -1.15625q-0.03125 -0.484375 -0.15625 -0.953125q-0.109375 -0.46875 -0.3125 -0.765625q-0.203125 -0.296875 -0.53125 -0.46875q-0.328125 -0.1875 -0.796875 -0.1875q-1.0625 0 -1.78125 0.5625q-0.703125 0.5625 -0.921875 1.546875q-0.015625 0.3125 -0.015625 0.90625l0 4.875l-0.96875 0zm17.554688 0.1875q-1.78125 0 -2.828125 -1.1875q-1.03125 -1.1875 -1.03125 -3.21875q0 -1.96875 1.015625 -3.21875q1.015625 -1.25 2.640625 -1.28125q1.5 0 2.40625 1.078125q0.921875 1.078125 0.921875 2.890625q0 0.0625 0 0.28125q0 0.21875 0 0.296875l-5.96875 0q0.015625 1.65625 0.796875 2.625q0.78125 0.953125 2.0625 0.953125q0.84375 0 1.453125 -0.1875q0.625 -0.203125 1.296875 -0.5625l0.15625 0.734375q-1.296875 0.796875 -2.921875 0.796875zm-2.796875 -5.140625l4.875 0q0 -1.421875 -0.625 -2.1875q-0.609375 -0.765625 -1.6875 -0.765625q-1.09375 0 -1.765625 0.8125q-0.671875 0.8125 -0.796875 2.140625z" fill-rule="nonzero"/><path fill="#000000" fill-opacity="0.0" d="m80.27034 376.77823l104.61156 -55.926514l104.61154 55.926514l-104.61154 55.926483z" fill-rule="evenodd"/><path stroke="#ff9900" stroke-width="2.0" stroke-linejoin="round" stroke-linecap="butt" d="m80.27034 376.77823l104.61156 -55.926514l104.61154 55.926514l-104.61154 55.926483z" fill-rule="evenodd"/><path fill="#000000" d="m144.98737 382.6382l0 -11.625l6.484375 0l-0.046875 0.828125l-5.4375 0l0 4.375l5.171875 0l0 0.84375l-5.171875 0l0 4.734375l5.609375 0l-0.078125 0.84375l-6.53125 0zm10.78125 0l-3.265625 -8.5625l1.03125 0l1.984375 5.390625q0.15625 0.515625 0.375 1.09375q0.21875 0.5625 0.34375 0.890625l0.140625 0.3125q0.140625 -0.5 0.375 -1.0625q0.25 -0.578125 0.4375 -1.203125q0.21875 -0.671875 0.765625 -2.03125q0.5625 -1.359375 1.21875 -3.390625l1.03125 0l-3.3125 8.5625l-1.125 0zm9.0703125 0.1875q-1.78125 0 -2.828125 -1.1875q-1.03125 -1.1875 -1.03125 -3.21875q0 -1.96875 1.015625 -3.21875q1.015625 -1.25 2.640625 -1.28125q1.5 0 2.40625 1.078125q0.921875 1.078125 0.921875 2.890625q0 0.0625 0 0.28125q0 0.21875 0 0.296875l-5.96875 0q0.015625 1.65625 0.796875 2.625q0.78125 0.953125 2.0625 0.953125q0.84375 0 1.453125 -0.1875q0.625 -0.203125 1.296875 -0.5625l0.15625 0.734375q-1.296875 0.796875 -2.921875 0.796875zm-2.796875 -5.140625l4.875 0q0 -1.421875 -0.625 -2.1875q-0.609375 -0.765625 -1.6875 -0.765625q-1.09375 0 -1.765625 0.8125q-0.671875 0.8125 -0.796875 2.140625zm7.8671875 4.953125l0 -8.5625l0.84375 0l0.125 1.3125q0.46875 -0.6875 1.234375 -1.078125q0.78125 -0.390625 1.6875 -0.390625q1.46875 0 2.15625 0.8125q0.703125 0.8125 0.703125 2.59375l0 5.3125l-0.96875 0l0 -5.75q-0.046875 -1.140625 -0.5 -1.640625q-0.4375 -0.5 -1.453125 -0.5q-1.15625 0 -1.90625 0.59375q-0.734375 0.578125 -0.921875 1.5q-0.03125 0.375 -0.03125 0.765625l0 5.03125l-0.96875 0zm11.40625 0.1875q-1.078125 0 -1.578125 -0.484375q-0.5 -0.5 -0.5 -1.609375l0 -5.953125l-1.203125 0l0.0625 -0.578125l1.15625 -0.109375l0.265625 -1.96875l0.671875 -0.046875l0 2.0l2.5 0l0 0.703125l-2.5 0l0 5.75q0 0.90625 0.296875 1.21875q0.296875 0.3125 1.046875 0.3125q0.484375 0 1.203125 -0.1875l0.046875 0.75q-0.953125 0.203125 -1.46875 0.203125zm2.96875 -0.1875l0 -8.5625l0.984375 0l0 8.5625l-0.984375 0zm0 -10.3125l0 -1.3125l0.96875 0l0 1.3125l-0.96875 0zm7.25 10.3125l0 -7.859375l-1.21875 0l0 -0.71875l1.21875 0q0 -0.203125 0.015625 -0.359375q0.015625 -0.671875 0.09375 -1.15625q0.078125 -0.5 0.234375 -0.828125q0.15625 -0.328125 0.359375 -0.53125q0.203125 -0.21875 0.515625 -0.328125q0.3125 -0.109375 0.640625 -0.140625q0.328125 -0.046875 0.8125 -0.046875l0.59375 0l0.140625 0.6875l-0.8125 0q-0.28125 0 -0.5 0.03125q-0.203125 0.015625 -0.375 0.09375q-0.15625 0.078125 -0.265625 0.171875q-0.109375 0.09375 -0.203125 0.265625q-0.078125 0.15625 -0.125 0.328125q-0.046875 0.171875 -0.078125 0.453125q-0.015625 0.28125 -0.03125 0.546875q0 0.265625 0 0.671875l0 0.0625l-0.015625 0.078125l4.6874847 0l0 8.578125l-1.0156097 0l0 -7.859375l-3.671875 0l0 7.859375l-1.0 0zm4.671875 -10.34375l0 -1.421875l1.0156097 0l0 1.421875l-1.0156097 0zm3.2343597 10.34375l0 -8.5625l0.84375 0l0.125 1.3125q0.46875 -0.6875 1.234375 -1.078125q0.78125 -0.390625 1.6875 -0.390625q1.46875 0 2.15625 0.8125q0.703125 0.8125 0.703125 2.59375l0 5.3125l-0.96875 0l0 -5.75q-0.046875 -1.140625 -0.5 -1.640625q-0.4375 -0.5 -1.453125 -0.5q-1.15625 0 -1.90625 0.59375q-0.734375 0.578125 -0.921875 1.5q-0.03125 0.375 -0.03125 0.765625l0 5.03125l-0.96875 0zm9.09375 0l0 -8.5625l0.984375 0l0 8.5625l-0.984375 0zm0 -10.3125l0 -1.3125l0.96875 0l0 1.3125l-0.96875 0zm5.7890625 10.5q-1.078125 0 -1.578125 -0.484375q-0.5 -0.5 -0.5 -1.609375l0 -5.953125l-1.203125 0l0.0625 -0.578125l1.15625 -0.109375l0.265625 -1.96875l0.671875 -0.046875l0 2.0l2.5 0l0 0.703125l-2.5 0l0 5.75q0 0.90625 0.296875 1.21875q0.296875 0.3125 1.046875 0.3125q0.484375 0 1.203125 -0.1875l0.046875 0.75q-0.953125 0.203125 -1.46875 0.203125zm2.96875 -0.1875l0 -8.5625l0.984375 0l0 8.5625l-0.984375 0zm0 -10.3125l0 -1.3125l0.96875 0l0 1.3125l-0.96875 0zm4.6796875 7.21875q-0.03125 -0.421875 0.1875 -1.015625q0.21875 -0.59375 0.5625 -1.21875q0.359375 -0.625 0.703125 -1.265625q0.359375 -0.640625 0.609375 -1.328125q0.25 -0.6875 0.25 -1.25q-0.015625 -0.84375 -0.5 -1.34375q-0.484375 -0.5 -1.28125 -0.5q-0.578125 0 -1.140625 0.203125q-0.5625 0.1875 -0.921875 0.421875l-0.265625 -0.75q0.46875 -0.328125 1.171875 -0.515625q0.703125 -0.203125 1.25 -0.203125q1.265625 0 1.984375 0.765625q0.734375 0.765625 0.734375 1.921875q0 0.53125 -0.1875 1.078125q-0.171875 0.546875 -0.484375 1.109375q-0.3125 0.546875 -0.65625 1.09375q-0.34375 0.546875 -0.78125 1.3125q-0.421875 0.75 -0.71875 1.484375l-0.515625 0zm0.390625 3.109375q-0.390625 0 -0.59375 -0.234375q-0.203125 -0.234375 -0.203125 -0.53125q0 -0.296875 0.203125 -0.515625q0.203125 -0.234375 0.59375 -0.234375q0.390625 0 0.578125 0.21875q0.203125 0.21875 0.203125 0.53125q0 0.296875 -0.203125 0.53125q-0.1875 0.234375 -0.578125 0.234375z" fill-rule="nonzero"/><path fill="#000000" fill-opacity="0.0" d="m289.49344 376.77823l7.8740234 0l0 55.149597" fill-rule="evenodd"/><path stroke="#ffab40" stroke-width="2.0" stroke-linejoin="round" stroke-linecap="butt" d="m289.49344 376.77823l7.8740234 0l0 43.149597" fill-rule="evenodd"/><path fill="#ffab40" stroke="#ffab40" stroke-width="2.0" stroke-linecap="butt" d="m294.064 419.92783l3.3034668 9.076202l3.3034668 -9.076202z" fill-rule="evenodd"/><path fill="#000000" fill-opacity="0.0" d="m297.33597 376.77823l47.24408 0l0 34.236206l-47.24408 0z" fill-rule="evenodd"/><path fill="#000000" d="m312.3516 398.8882q0 -0.578125 -0.4375 -0.90625q-0.4375 -0.328125 -1.546875 -0.5625q-1.09375 -0.234375 -1.734375 -0.5625q-0.640625 -0.328125 -0.953125 -0.78125q-0.3125 -0.453125 -0.3125 -1.078125q0 -1.03125 0.875 -1.75q0.890625 -0.71875 2.25 -0.71875q1.4375 0 2.328125 0.75q0.90625 0.734375 0.90625 1.890625l-1.453125 0q0 -0.59375 -0.515625 -1.015625q-0.5 -0.4375 -1.265625 -0.4375q-0.78125 0 -1.234375 0.34375q-0.4375 0.34375 -0.4375 0.890625q0 0.53125 0.40625 0.796875q0.421875 0.265625 1.5 0.515625q1.078125 0.234375 1.75 0.578125q0.671875 0.328125 1.0 0.796875q0.328125 0.46875 0.328125 1.15625q0 1.125 -0.90625 1.8125q-0.90625 0.6875 -2.359375 0.6875q-1.015625 0 -1.796875 -0.359375q-0.78125 -0.359375 -1.21875 -1.0q-0.4375 -0.65625 -0.4375 -1.40625l1.4375 0q0.046875 0.734375 0.578125 1.15625q0.546875 0.421875 1.4375 0.421875q0.828125 0 1.3125 -0.328125q0.5 -0.328125 0.5 -0.890625zm4.90625 2.25l-1.453125 0l0 -8.453125l1.453125 0l0 8.453125zm-1.5625 -10.703125q0 -0.34375 0.203125 -0.578125q0.21875 -0.25 0.640625 -0.25q0.421875 0 0.640625 0.25q0.21875 0.234375 0.21875 0.59375q0 0.34375 -0.21875 0.578125q-0.21875 0.234375 -0.640625 0.234375q-0.421875 0 -0.640625 -0.234375q-0.203125 -0.234375 -0.203125 -0.59375z" fill-rule="nonzero"/><path fill="#000000" fill-opacity="0.0" d="m153.70079 419.98557l47.244095 0l0 34.236206l-47.244095 0z" fill-rule="evenodd"/><path fill="#000000" d="m165.16954 435.89243l0.046875 1.0625q0.96875 -1.21875 2.53125 -1.21875q2.671875 0 2.703125 3.015625l0 5.59375l-1.453125 0l0 -5.59375q0 -0.921875 -0.421875 -1.359375q-0.40625 -0.4375 -1.265625 -0.4375q-0.703125 0 -1.234375 0.375q-0.53125 0.375 -0.828125 0.984375l0 6.03125l-1.453125 0l0 -8.453125l1.375 0zm7.078125 4.140625q0 -1.234375 0.484375 -2.21875q0.484375 -1.0 1.359375 -1.53125q0.875 -0.546875 1.984375 -0.546875q1.734375 0 2.796875 1.203125q1.0625 1.1875 1.0625 3.171875l0 0.09375q0 1.234375 -0.46875 2.21875q-0.46875 0.984375 -1.359375 1.53125q-0.875 0.546875 -2.015625 0.546875q-1.71875 0 -2.78125 -1.1875q-1.0625 -1.203125 -1.0625 -3.171875l0 -0.109375zm1.453125 0.171875q0 1.40625 0.640625 2.265625q0.65625 0.84375 1.75 0.84375q1.109375 0 1.75 -0.859375q0.65625 -0.859375 0.65625 -2.421875q0 -1.390625 -0.671875 -2.25q-0.65625 -0.859375 -1.75 -0.859375q-1.0625 0 -1.71875 0.859375q-0.65625 0.84375 -0.65625 2.421875z" fill-rule="nonzero"/><path fill="#000000" fill-opacity="0.0" d="m212.48557 437.63528l0 0c0 -3.1514282 2.5547333 -5.7061462 5.7061462 -5.7061462l158.31998 0c1.5133667 0 2.9647522 0.6011658 4.0348816 1.6712952c1.0700989 1.0700989 1.6712646 2.5214844 1.6712646 4.034851l0 22.823914c0 3.1514282 -2.554718 5.7061462 -5.7061462 5.7061462l-158.31998 0l0 0c-3.151413 0 -5.7061462 -2.554718 -5.7061462 -5.7061462z" fill-rule="evenodd"/><path stroke="#ff9900" stroke-width="2.0" stroke-linejoin="round" stroke-linecap="butt" d="m212.48557 437.63528l0 0c0 -3.1514282 2.5547333 -5.7061462 5.7061462 -5.7061462l158.31998 0c1.5133667 0 2.9647522 0.6011658 4.0348816 1.6712952c1.0700989 1.0700989 1.6712646 2.5214844 1.6712646 4.034851l0 22.823914c0 3.1514282 -2.554718 5.7061462 -5.7061462 5.7061462l-158.31998 0l0 0c-3.151413 0 -5.7061462 -2.554718 -5.7061462 -5.7061462z" fill-rule="evenodd"/><path fill="#000000" d="m275.04312 454.90726l0 -11.625l3.3125 0q0.640625 0 1.09375 0.03125q0.46875 0.015625 0.953125 0.09375q0.484375 0.078125 0.828125 0.203125q0.34375 0.125 0.640625 0.34375q0.3125 0.21875 0.5 0.53125q0.1875 0.3125 0.296875 0.75q0.109375 0.421875 0.109375 0.96875q0 1.0625 -0.53125 1.828125q-0.515625 0.765625 -1.59375 1.046875q0.46875 0.953125 0.703125 1.453125l1.90625 4.375l-1.171875 0l-1.640625 -3.984375q-0.15625 -0.390625 -0.734375 -1.6875q-0.15625 0.03125 -1.15625 0.03125l-2.515625 -0.046875l0 5.6875l-1.0 0zm3.953125 -6.46875q1.546875 0 2.15625 -0.546875q0.625 -0.546875 0.625 -1.671875q0 -1.015625 -0.5625 -1.5625q-0.546875 -0.546875 -1.890625 -0.546875l-3.28125 0l0 4.296875q1.84375 0.03125 2.953125 0.03125zm9.6640625 6.65625q-1.78125 0 -2.828125 -1.1875q-1.03125 -1.1875 -1.03125 -3.21875q0 -1.96875 1.015625 -3.21875q1.015625 -1.25 2.640625 -1.28125q1.5 0 2.40625 1.078125q0.921875 1.078125 0.921875 2.890625q0 0.0625 0 0.28125q0 0.21875 0 0.296875l-5.96875 0q0.015625 1.65625 0.796875 2.625q0.78125 0.953125 2.0625 0.953125q0.84375 0 1.453125 -0.1875q0.625 -0.203125 1.296875 -0.5625l0.15625 0.734375q-1.296875 0.796875 -2.921875 0.796875zm-2.796875 -5.140625l4.875 0q0 -1.421875 -0.625 -2.1875q-0.609375 -0.765625 -1.6875 -0.765625q-1.09375 0 -1.765625 0.8125q-0.671875 0.8125 -0.796875 2.140625zm10.2734375 5.140625q-1.078125 0 -1.578125 -0.484375q-0.5 -0.5 -0.5 -1.609375l0 -5.953125l-1.203125 0l0.0625 -0.578125l1.15625 -0.109375l0.265625 -1.96875l0.671875 -0.046875l0 2.0l2.5 0l0 0.703125l-2.5 0l0 5.75q0 0.90625 0.296875 1.21875q0.296875 0.3125 1.046875 0.3125q0.484375 0 1.203125 -0.1875l0.046875 0.75q-0.953125 0.203125 -1.46875 0.203125zm6.0625 0.03125q-0.671875 0 -1.25 -0.15625q-0.578125 -0.15625 -1.078125 -0.484375q-0.484375 -0.328125 -0.765625 -0.921875q-0.28125 -0.59375 -0.28125 -1.390625l0 -5.828125l0.96875 0l0 5.84375q0 0.609375 0.1875 1.03125q0.1875 0.421875 0.53125 0.640625q0.359375 0.21875 0.75 0.3125q0.40625 0.078125 0.9375 0.078125q0.515625 0 0.90625 -0.09375q0.40625 -0.09375 0.75 -0.3125q0.34375 -0.21875 0.53125 -0.625q0.1875 -0.421875 0.1875 -1.03125l0 -5.84375l0.96875 0l0 5.828125q0 0.65625 -0.1875 1.171875q-0.1875 0.515625 -0.5 0.84375q-0.3125 0.328125 -0.765625 0.546875q-0.4375 0.21875 -0.90625 0.296875q-0.453125 0.09375 -0.984375 0.09375zm5.46875 -0.21875q-0.015625 -7.546875 -0.015625 -8.5625l0.796875 0l0.0625 1.6875q0.453125 -0.765625 1.15625 -1.25q0.71875 -0.484375 1.5 -0.484375q0.3125 0 0.6875 0.046875l-0.078125 0.8125q-0.28125 -0.046875 -0.59375 -0.046875q-1.078125 0 -1.828125 0.859375q-0.734375 0.84375 -0.734375 2.015625l0 4.921875l-0.953125 0zm5.5703125 0l0 -8.5625l0.84375 0l0.125 1.3125q0.46875 -0.6875 1.234375 -1.078125q0.78125 -0.390625 1.6875 -0.390625q1.46875 0 2.15625 0.8125q0.703125 0.8125 0.703125 2.59375l0 5.3125l-0.96875 0l0 -5.75q-0.046875 -1.140625 -0.5 -1.640625q-0.4375 -0.5 -1.453125 -0.5q-1.15625 0 -1.90625 0.59375q-0.734375 0.578125 -0.921875 1.5q-0.03125 0.375 -0.03125 0.765625l0 5.03125l-0.96875 0z" fill-rule="nonzero"/><path fill="#000000" fill-opacity="0.0" d="m49.11811 139.06311l0 0c0 -3.1514282 2.5547295 -5.7061615 5.70615 -5.7061615l260.11526 0c1.5133667 0 2.9647522 0.60118103 4.034851 1.6712952c1.0701294 1.0701141 1.6712952 2.5214996 1.6712952 4.0348663l0 22.823914c0 3.1514282 -2.554718 5.7061462 -5.7061462 5.7061462l-260.11526 0l0 0c-3.1514206 0 -5.70615 -2.554718 -5.70615 -5.7061462z" fill-rule="evenodd"/><path stroke="#ff9900" stroke-width="2.0" stroke-linejoin="round" stroke-linecap="butt" d="m49.11811 139.06311l0 0c0 -3.1514282 2.5547295 -5.7061615 5.70615 -5.7061615l260.11526 0c1.5133667 0 2.9647522 0.60118103 4.034851 1.6712952c1.0701294 1.0701141 1.6712952 2.5214996 1.6712952 4.0348663l0 22.823914c0 3.1514282 -2.554718 5.7061462 -5.7061462 5.7061462l-260.11526 0l0 0c-3.1514206 0 -5.70615 -2.554718 -5.70615 -5.7061462z" fill-rule="evenodd"/><path fill="#000000" d="m101.62408 156.33507l0 -11.625l1.015625 0l0 10.734375l5.21875 0l-0.046875 0.890625l-6.1875 0zm11.0 0.1875q-1.78125 0 -2.828125 -1.1875q-1.03125 -1.1875 -1.03125 -3.21875q0 -1.96875 1.015625 -3.21875q1.015625 -1.25 2.640625 -1.28125q1.5 0 2.40625 1.078125q0.921875 1.078125 0.921875 2.890625q0 0.0625 0 0.28125q0 0.21875 0 0.296875l-5.96875 0q0.015625 1.65625 0.796875 2.625q0.78125 0.953125 2.0625 0.953125q0.84375 0 1.453125 -0.1875q0.625 -0.203125 1.296875 -0.5625l0.15625 0.734375q-1.296875 0.796875 -2.921875 0.796875zm-2.796875 -5.140625l4.875 0q0 -1.421875 -0.625 -2.1875q-0.609375 -0.765625 -1.6875 -0.765625q-1.09375 0 -1.765625 0.8125q-0.671875 0.8125 -0.796875 2.140625zm9.1796875 8.9375l-0.109375 -0.875l1.8125 0q0.59375 0 1.046875 -0.109375q0.46875 -0.09375 0.78125 -0.265625q0.328125 -0.171875 0.546875 -0.46875q0.21875 -0.296875 0.34375 -0.59375q0.125 -0.296875 0.1875 -0.78125q0.078125 -0.46875 0.09375 -0.875q0.015625 -0.390625 0.015625 -0.984375q0 0.078125 -0.015625 -0.046875q-0.046875 -0.53125 -0.046875 -0.53125q-0.484375 0.734375 -1.15625 1.140625q-0.671875 0.40625 -1.640625 0.40625q-0.765625 0 -1.40625 -0.265625q-0.625 -0.28125 -1.03125 -0.71875q-0.390625 -0.4375 -0.671875 -1.0q-0.265625 -0.5625 -0.390625 -1.125q-0.109375 -0.5625 -0.109375 -1.109375q0 -0.6875 0.109375 -1.296875q0.109375 -0.625 0.390625 -1.21875q0.28125 -0.59375 0.703125 -1.03125q0.421875 -0.4375 1.078125 -0.6875q0.671875 -0.265625 1.515625 -0.265625q0.8125 0 1.4375 0.328125q0.640625 0.3125 1.171875 1.03125l0.09375 -1.203125l0.859375 0l0 7.9375q0 0.515625 -0.015625 0.828125q0 0.328125 -0.09375 0.859375q-0.078125 0.546875 -0.21875 0.890625q-0.140625 0.359375 -0.4375 0.78125q-0.296875 0.421875 -0.71875 0.65625q-0.421875 0.25 -1.078125 0.421875q-0.640625 0.171875 -1.46875 0.171875l-1.578125 0zm1.984375 -4.78125q0.5625 0 1.015625 -0.171875q0.46875 -0.1875 0.765625 -0.484375q0.3125 -0.3125 0.515625 -0.71875q0.203125 -0.40625 0.28125 -0.828125q0.09375 -0.4375 0.09375 -0.90625l0 -0.890625q0 -0.609375 -0.15625 -1.140625q-0.140625 -0.546875 -0.453125 -1.0q-0.296875 -0.453125 -0.84375 -0.71875q-0.53125 -0.265625 -1.25 -0.265625q-0.578125 0 -1.046875 0.21875q-0.453125 0.21875 -0.75 0.59375q-0.296875 0.359375 -0.5 0.859375q-0.203125 0.484375 -0.296875 1.0q-0.078125 0.515625 -0.078125 1.046875q0 0.484375 0.078125 0.9375q0.078125 0.4375 0.265625 0.90625q0.1875 0.453125 0.484375 0.796875q0.296875 0.34375 0.78125 0.5625q0.484375 0.203125 1.09375 0.203125zm7.0312576 4.78125l-0.10938263 -0.875l1.8125076 0q0.59375 0 1.046875 -0.109375q0.46875 -0.09375 0.78125 -0.265625q0.328125 -0.171875 0.546875 -0.46875q0.21875 -0.296875 0.34375 -0.59375q0.125 -0.296875 0.1875 -0.78125q0.078125 -0.46875 0.09375 -0.875q0.015625 -0.390625 0.015625 -0.984375q0 0.078125 -0.015625 -0.046875q-0.046875 -0.53125 -0.046875 -0.53125q-0.484375 0.734375 -1.15625 1.140625q-0.671875 0.40625 -1.640625 0.40625q-0.765625 0 -1.40625 -0.265625q-0.6250076 -0.28125 -1.0312576 -0.71875q-0.390625 -0.4375 -0.671875 -1.0q-0.265625 -0.5625 -0.390625 -1.125q-0.109375 -0.5625 -0.109375 -1.109375q0 -0.6875 0.109375 -1.296875q0.109375 -0.625 0.390625 -1.21875q0.28125 -0.59375 0.703125 -1.03125q0.421875 -0.4375 1.0781326 -0.6875q0.671875 -0.265625 1.515625 -0.265625q0.8125 0 1.4375 0.328125q0.640625 0.3125 1.171875 1.03125l0.09375 -1.203125l0.859375 0l0 7.9375q0 0.515625 -0.015625 0.828125q0 0.328125 -0.09375 0.859375q-0.078125 0.546875 -0.21875 0.890625q-0.140625 0.359375 -0.4375 0.78125q-0.296875 0.421875 -0.71875 0.65625q-0.421875 0.25 -1.078125 0.421875q-0.640625 0.171875 -1.46875 0.171875l-1.578125 0zm1.984375 -4.78125q0.5625 0 1.015625 -0.171875q0.46875 -0.1875 0.765625 -0.484375q0.3125 -0.3125 0.515625 -0.71875q0.203125 -0.40625 0.28125 -0.828125q0.09375 -0.4375 0.09375 -0.90625l0 -0.890625q0 -0.609375 -0.15625 -1.140625q-0.140625 -0.546875 -0.453125 -1.0q-0.296875 -0.453125 -0.84375 -0.71875q-0.53125 -0.265625 -1.25 -0.265625q-0.578125 0 -1.046875 0.21875q-0.453125 0.21875 -0.75 0.59375q-0.29688263 0.359375 -0.5000076 0.859375q-0.203125 0.484375 -0.296875 1.0q-0.078125 0.515625 -0.078125 1.046875q0 0.484375 0.078125 0.9375q0.078125 0.4375 0.265625 0.90625q0.1875 0.453125 0.48438263 0.796875q0.296875 0.34375 0.78125 0.5625q0.484375 0.203125 1.09375 0.203125zm5.9609375 0.796875l0 -8.5625l0.984375 0l0 8.5625l-0.984375 0zm0 -10.3125l0 -1.3125l0.96875 0l0 1.3125l-0.96875 0zm9.40625 10.5q-1.078125 0 -1.578125 -0.484375q-0.5 -0.5 -0.5 -1.609375l0 -5.953125l-1.203125 0l0.0625 -0.578125l1.15625 -0.109375l0.265625 -1.96875l0.671875 -0.046875l0 2.0l2.5 0l0 0.703125l-2.5 0l0 5.75q0 0.90625 0.296875 1.21875q0.296875 0.3125 1.046875 0.3125q0.484375 0 1.203125 -0.1875l0.046875 0.75q-0.953125 0.203125 -1.46875 0.203125zm2.96875 -0.1875l0 -8.5625l0.984375 0l0 8.5625l-0.984375 0zm0 -10.3125l0 -1.3125l0.96875 0l0 1.3125l-0.96875 0zm3.3984375 10.3125q-0.015625 -7.765625 -0.015625 -8.5625l0.84375 0l0.125 1.3125q0.375 -0.640625 1.109375 -1.046875q0.75 -0.421875 1.59375 -0.421875q2.046875 0 2.578125 1.609375q0.90625 -1.609375 2.875 -1.609375q1.40625 0 2.0625 0.796875q0.671875 0.796875 0.671875 2.390625l0 5.53125l-0.96875 0l0 -4.1875q0 -0.59375 -0.015625 -0.984375q-0.015625 -0.40625 -0.078125 -0.875q-0.0625 -0.46875 -0.1875 -0.765625q-0.109375 -0.296875 -0.3125 -0.5625q-0.1875 -0.265625 -0.5 -0.390625q-0.296875 -0.125 -0.71875 -0.125q-0.984375 0 -1.671875 0.578125q-0.671875 0.578125 -0.9375 1.640625q0.015625 0.796875 0.03125 1.234375l0 4.4375l-0.953125 0l0 -4.359375q0 -0.671875 -0.046875 -1.15625q-0.03125 -0.484375 -0.15625 -0.953125q-0.109375 -0.46875 -0.3125 -0.765625q-0.203125 -0.296875 -0.53125 -0.46875q-0.328125 -0.1875 -0.796875 -0.1875q-1.0625 0 -1.78125 0.5625q-0.703125 0.5625 -0.921875 1.546875q-0.015625 0.3125 -0.015625 0.90625l0 4.875l-0.96875 0zm17.554688 0.1875q-1.78125 0 -2.828125 -1.1875q-1.03125 -1.1875 -1.03125 -3.21875q0 -1.96875 1.015625 -3.21875q1.015625 -1.25 2.640625 -1.28125q1.5 0 2.40625 1.078125q0.921875 1.078125 0.921875 2.890625q0 0.0625 0 0.28125q0 0.21875 0 0.296875l-5.96875 0q0.015625 1.65625 0.796875 2.625q0.78125 0.953125 2.0625 0.953125q0.84375 0 1.453125 -0.1875q0.625 -0.203125 1.296875 -0.5625l0.15625 0.734375q-1.296875 0.796875 -2.921875 0.796875zm-2.796875 -5.140625l4.875 0q0 -1.421875 -0.625 -2.1875q-0.609375 -0.765625 -1.6875 -0.765625q-1.09375 0 -1.765625 0.8125q-0.671875 0.8125 -0.796875 2.140625zm10.3671875 5.15625q-0.828125 0 -1.5625 -0.203125q-0.71875 -0.21875 -1.140625 -0.5l0.140625 -0.8125q1.28125 0.671875 2.46875 0.671875q2.1093597 0 2.1874847 -1.5625q0 -0.65625 -0.42185974 -1.03125q-0.421875 -0.375 -1.703125 -0.78125q-0.671875 -0.234375 -0.75 -0.265625q-2.0 -0.609375 -2.015625 -2.15625q0 -0.90625 0.78125 -1.59375q0.796875 -0.6875 2.140625 -0.6875q1.359375 0 2.5468597 0.53125l-0.328125 0.71875q-1.2031097 -0.453125 -2.2343597 -0.453125q-0.90625 0 -1.421875 0.40625q-0.515625 0.40625 -0.515625 1.09375q0 0.578125 0.328125 0.890625q0.34375 0.296875 1.359375 0.578125q0.109375 0.03125 0.390625 0.140625q0.296875 0.109375 0.328125 0.125q1.3593597 0.40625 1.8906097 0.984375q0.53125 0.5625 0.53125 1.53125q-0.015625 1.125 -0.84375 1.75q-0.81248474 0.625 -2.1562347 0.625zm7.2812347 -0.015625q-1.078125 0 -1.578125 -0.484375q-0.5 -0.5 -0.5 -1.609375l0 -5.953125l-1.203125 0l0.0625 -0.578125l1.15625 -0.109375l0.265625 -1.96875l0.671875 -0.046875l0 2.0l2.5 0l0 0.703125l-2.5 0l0 5.75q0 0.90625 0.296875 1.21875q0.296875 0.3125 1.046875 0.3125q0.484375 0 1.203125 -0.1875l0.046875 0.75q-0.953125 0.203125 -1.46875 0.203125zm5.15625 0q-1.203125 0 -1.9375 -0.609375q-0.71875 -0.609375 -0.71875 -1.75q0 -0.671875 0.28125 -1.15625q0.296875 -0.5 0.84375 -0.8125q0.546875 -0.3125 1.25 -0.484375q0.71875 -0.171875 1.65625 -0.234375q1.0 -0.0625 1.484375 -0.109375l0 -0.953125q0 -0.984375 -0.453125 -1.46875q-0.453125 -0.5 -1.4375 -0.5q-1.359375 0 -2.546875 0.640625q-0.03125 -0.078125 -0.140625 -0.328125q-0.109375 -0.265625 -0.15625 -0.40625q0.484375 -0.3125 1.265625 -0.515625q0.78125 -0.21875 1.53125 -0.21875q1.53125 0 2.203125 0.65625q0.671875 0.65625 0.671875 2.34375l0 5.71875l-0.75 0q-0.046875 -0.1875 -0.125 -0.71875q-0.0625 -0.53125 -0.0625 -0.546875q-1.015625 1.453125 -2.859375 1.453125zm0.03125 -0.78125q1.0 0 1.78125 -0.578125q0.78125 -0.59375 1.015625 -1.640625l0 -1.46875q-1.125 0.09375 -1.125 0.09375q-1.90625 0.171875 -2.65625 0.625q-0.734375 0.453125 -0.734375 1.40625q0 0.78125 0.46875 1.171875q0.46875 0.390625 1.25 0.390625zm6.1171875 0.59375q-0.015625 -7.765625 -0.015625 -8.5625l0.84375 0l0.125 1.3125q0.375 -0.640625 1.109375 -1.046875q0.75 -0.421875 1.59375 -0.421875q2.046875 0 2.578125 1.609375q0.90625 -1.609375 2.875 -1.609375q1.40625 0 2.0625 0.796875q0.671875 0.796875 0.671875 2.390625l0 5.53125l-0.96875 0l0 -4.1875q0 -0.59375 -0.015625 -0.984375q-0.015625 -0.40625 -0.078125 -0.875q-0.0625 -0.46875 -0.1875 -0.765625q-0.109375 -0.296875 -0.3125 -0.5625q-0.1875 -0.265625 -0.5 -0.390625q-0.296875 -0.125 -0.71875 -0.125q-0.984375 0 -1.671875 0.578125q-0.671875 0.578125 -0.9375 1.640625q0.015625 0.796875 0.03125 1.234375l0 4.4375l-0.953125 0l0 -4.359375q0 -0.671875 -0.046875 -1.15625q-0.03125 -0.484375 -0.15625 -0.953125q-0.109375 -0.46875 -0.3125 -0.765625q-0.203125 -0.296875 -0.53125 -0.46875q-0.328125 -0.1875 -0.796875 -0.1875q-1.0625 0 -1.78125 0.5625q-0.703125 0.5625 -0.921875 1.546875q-0.015625 0.3125 -0.015625 0.90625l0 4.875l-0.96875 0zm14.0859375 3.8125l0 -12.375l0.859375 0l0.09375 1.21875q0.59375 -0.6875 1.21875 -1.03125q0.625 -0.34375 1.453125 -0.34375q1.828125 0 2.734375 1.21875q0.90625 1.203125 0.90625 3.3125q0 1.921875 -0.96875 3.15625q-0.953125 1.21875 -2.59375 1.21875q-0.84375 0 -1.59375 -0.390625q-0.75 -0.40625 -1.1875 -1.0625q0.046875 0.96875 0.046875 1.90625l0 3.109375l-0.96875 0.0625zm3.640625 -4.421875q0.671875 0 1.1875 -0.3125q0.515625 -0.328125 0.8125 -0.859375q0.3125 -0.53125 0.453125 -1.15625q0.15625 -0.640625 0.15625 -1.3125q0 -0.6875 -0.15625 -1.3125q-0.140625 -0.625 -0.4375 -1.15625q-0.296875 -0.546875 -0.828125 -0.859375q-0.515625 -0.328125 -1.1875 -0.328125q-0.734375 0 -1.265625 0.265625q-0.515625 0.265625 -0.828125 0.75q-0.3125 0.484375 -0.453125 1.109375q-0.140625 0.609375 -0.140625 1.375q0 0.890625 0.125 1.5625q0.140625 0.65625 0.4375 1.1875q0.3125 0.515625 0.84375 0.78125q0.53125 0.265625 1.28125 0.265625zm12.625 0.796875q-1.78125 0 -2.828125 -1.1875q-1.03125 -1.1875 -1.03125 -3.21875q0 -1.96875 1.015625 -3.21875q1.015625 -1.25 2.640625 -1.28125q1.5 0 2.40625 1.078125q0.921875 1.078125 0.921875 2.890625q0 0.0625 0 0.28125q0 0.21875 0 0.296875l-5.96875 0q0.015625 1.65625 0.796875 2.625q0.78125 0.953125 2.0625 0.953125q0.84375 0 1.453125 -0.1875q0.625 -0.203125 1.296875 -0.5625l0.15625 0.734375q-1.296875 0.796875 -2.921875 0.796875zm-2.796875 -5.140625l4.875 0q0 -1.421875 -0.625 -2.1875q-0.609375 -0.765625 -1.6875 -0.765625q-1.09375 0 -1.765625 0.8125q-0.671875 0.8125 -0.796875 2.140625zm9.9921875 4.953125l-3.265625 -8.5625l1.03125 0l1.984375 5.390625q0.15625 0.515625 0.375 1.09375q0.21875 0.5625 0.34375 0.890625l0.140625 0.3125q0.140625 -0.5 0.375 -1.0625q0.25 -0.578125 0.4375 -1.203125q0.21875 -0.671875 0.765625 -2.03125q0.5625 -1.359375 1.21875 -3.390625l1.03125 0l-3.3125 8.5625l-1.125 0zm9.0703125 0.1875q-1.78125 0 -2.828125 -1.1875q-1.03125 -1.1875 -1.03125 -3.21875q0 -1.96875 1.015625 -3.21875q1.015625 -1.25 2.640625 -1.28125q1.5 0 2.40625 1.078125q0.921875 1.078125 0.921875 2.890625q0 0.0625 0 0.28125q0 0.21875 0 0.296875l-5.96875 0q0.015625 1.65625 0.796875 2.625q0.78125 0.953125 2.0625 0.953125q0.84375 0 1.453125 -0.1875q0.625 -0.203125 1.296875 -0.5625l0.15625 0.734375q-1.296875 0.796875 -2.921875 0.796875zm-2.796875 -5.140625l4.875 0q0 -1.421875 -0.625 -2.1875q-0.609375 -0.765625 -1.6875 -0.765625q-1.09375 0 -1.765625 0.8125q-0.671875 0.8125 -0.796875 2.140625zm7.8671875 4.953125l0 -8.5625l0.84375 0l0.125 1.3125q0.46875 -0.6875 1.234375 -1.078125q0.78125 -0.390625 1.6875 -0.390625q1.46875 0 2.15625 0.8125q0.703125 0.8125 0.703125 2.59375l0 5.3125l-0.96875 0l0 -5.75q-0.046875 -1.140625 -0.5 -1.640625q-0.4375 -0.5 -1.453125 -0.5q-1.15625 0 -1.90625 0.59375q-0.734375 0.578125 -0.921875 1.5q-0.03125 0.375 -0.03125 0.765625l0 5.03125l-0.96875 0zm11.406265 0.1875q-1.078125 0 -1.578125 -0.484375q-0.5 -0.5 -0.5 -1.609375l0 -5.953125l-1.2031403 0l0.0625 -0.578125l1.1562653 -0.109375l0.265625 -1.96875l0.671875 -0.046875l0 2.0l2.5 0l0 0.703125l-2.5 0l0 5.75q0 0.90625 0.296875 1.21875q0.296875 0.3125 1.046875 0.3125q0.484375 0 1.203125 -0.1875l0.046875 0.75q-0.953125 0.203125 -1.46875 0.203125zm6.421875 -0.78125q0.9375 0 1.578125 -0.484375q0.640625 -0.5 0.9375 -1.3125q0.296875 -0.8125 0.296875 -1.875q0 -1.65625 -0.703125 -2.65625q-0.703125 -1.015625 -2.140625 -1.015625q-0.9375 0 -1.609375 0.515625q-0.65625 0.5 -0.96875 1.3125q-0.296875 0.8125 -0.296875 1.875q0 1.59375 0.75 2.625q0.75 1.015625 2.15625 1.015625zm-0.078125 0.78125q-1.15625 0 -2.046875 -0.578125q-0.890625 -0.59375 -1.359375 -1.59375q-0.453125 -1.015625 -0.453125 -2.28125q0 -0.953125 0.265625 -1.765625q0.265625 -0.8125 0.765625 -1.40625q0.5 -0.609375 1.234375 -0.9375q0.75 -0.34375 1.65625 -0.34375q1.203125 0 2.078125 0.59375q0.890625 0.578125 1.328125 1.578125q0.453125 1.0 0.453125 2.265625q0 1.28125 -0.453125 2.28125q-0.453125 1.0 -1.359375 1.59375q-0.890625 0.59375 -2.109375 0.59375z" fill-rule="nonzero"/><path fill="#000000" fill-opacity="0.0" d="m49.11811 202.80855l0 0c0 -4.241516 3.438427 -7.6799316 7.679943 -7.6799316l256.16766 0c2.0368347 0 3.990265 0.8091278 5.430542 2.2493896c1.4402771 1.4402771 2.2493896 3.393692 2.2493896 5.430542l0 30.718857c0 4.241516 -3.4384155 7.679947 -7.6799316 7.679947l-256.16766 0c-4.241516 0 -7.679943 -3.4384308 -7.679943 -7.679947z" fill-rule="evenodd"/><path stroke="#ff9900" stroke-width="2.0" stroke-linejoin="round" stroke-linecap="butt" d="m49.11811 202.80855l0 0c0 -4.241516 3.438427 -7.6799316 7.679943 -7.6799316l256.16766 0c2.0368347 0 3.990265 0.8091278 5.430542 2.2493896c1.4402771 1.4402771 2.2493896 3.393692 2.2493896 5.430542l0 30.718857c0 4.241516 -3.4384155 7.679947 -7.6799316 7.679947l-256.16766 0c-4.241516 0 -7.679943 -3.4384308 -7.679943 -7.679947z" fill-rule="evenodd"/><path fill="#000000" d="m64.0069 214.52798l4.546875 -11.625l0.953125 0l4.375 11.625l-1.03125 0l-1.484375 -3.953125l-4.8125 0l-1.546875 3.953125l-1.0 0zm2.921875 -4.6875l4.078125 0q-1.75 -5.046875 -1.984375 -5.9375q-0.09375 0.34375 -0.625 1.828125q-0.515625 1.484375 -1.0 2.796875l-0.46875 1.3125zm10.5625 4.875q-1.078125 0 -1.578125 -0.484375q-0.5 -0.5 -0.5 -1.609375l0 -5.953125l-1.203125 0l0.0625 -0.578125l1.15625 -0.109375l0.265625 -1.96875l0.671875 -0.046875l0 2.0l2.5 0l0 0.703125l-2.5 0l0 5.75q0 0.90625 0.296875 1.21875q0.296875 0.3125 1.046875 0.3125q0.484375 0 1.203125 -0.1875l0.046875 0.75q-0.953125 0.203125 -1.46875 0.203125zm5.28125 0q-1.078125 0 -1.578125 -0.484375q-0.5 -0.5 -0.5 -1.609375l0 -5.953125l-1.203125 0l0.0625 -0.578125l1.15625 -0.109375l0.265625 -1.96875l0.671875 -0.046875l0 2.0l2.5 0l0 0.703125l-2.5 0l0 5.75q0 0.90625 0.296875 1.21875q0.296875 0.3125 1.046875 0.3125q0.484375 0 1.203125 -0.1875l0.046875 0.75q-0.953125 0.203125 -1.46875 0.203125zm6.34375 0q-1.78125 0 -2.828125 -1.1875q-1.03125 -1.1875 -1.03125 -3.21875q0 -1.96875 1.015625 -3.21875q1.015625 -1.25 2.640625 -1.28125q1.5 0 2.40625 1.078125q0.921875 1.078125 0.921875 2.890625q0 0.0625 0 0.28125q0 0.21875 0 0.296875l-5.96875 0q0.015625 1.65625 0.796875 2.625q0.78125 0.953125 2.0625 0.953125q0.84375 0 1.453125 -0.1875q0.625 -0.203125 1.296875 -0.5625l0.15625 0.734375q-1.296875 0.796875 -2.921875 0.796875zm-2.796875 -5.140625l4.875 0q0 -1.421875 -0.625 -2.1875q-0.609375 -0.765625 -1.6875 -0.765625q-1.09375 0 -1.765625 0.8125q-0.671875 0.8125 -0.796875 2.140625zm7.8671875 4.953125l0 -8.5625l0.84375 0l0.125 1.3125q0.46875 -0.6875 1.234375 -1.078125q0.78125 -0.390625 1.6875 -0.390625q1.46875 0 2.15625 0.8125q0.703125 0.8125 0.703125 2.59375l0 5.3125l-0.96875 0l0 -5.75q-0.046875 -1.140625 -0.5 -1.640625q-0.4375 -0.5 -1.453125 -0.5q-1.15625 0 -1.90625 0.59375q-0.734375 0.578125 -0.921875 1.5q-0.03125 0.375 -0.03125 0.765625l0 5.03125l-0.96875 0zm12.234375 0.1875q-1.71875 0 -2.671875 -1.1875q-0.953125 -1.203125 -0.953125 -3.296875q0 -1.96875 0.984375 -3.1875q0.984375 -1.234375 2.609375 -1.234375q0.796875 0 1.59375 0.34375q0.796875 0.34375 1.203125 1.0625l0 -0.25l0 -4.328125l0.9375 -0.078125l0 11.96875l-0.796875 0l-0.140625 -1.296875q-0.453125 0.734375 -1.21875 1.109375q-0.75 0.375 -1.546875 0.375zm-0.03125 -0.78125q0.734375 0 1.28125 -0.265625q0.546875 -0.265625 0.875 -0.75q0.328125 -0.484375 0.484375 -1.109375q0.15625 -0.625 0.15625 -1.390625q0 -3.828125 -2.8125 -3.828125q-0.65625 0 -1.171875 0.328125q-0.5 0.3125 -0.796875 0.84375q-0.296875 0.53125 -0.4375 1.171875q-0.140625 0.625 -0.140625 1.3125q0 0.609375 0.078125 1.140625q0.09375 0.515625 0.28125 1.0q0.203125 0.46875 0.484375 0.8125q0.296875 0.34375 0.734375 0.546875q0.4375 0.1875 0.984375 0.1875zm6.1328125 0.59375l0 -8.5625l0.984375 0l0 8.5625l-0.984375 0zm0 -10.3125l0 -1.3125l0.96875 0l0 1.3125l-0.96875 0zm9.28125 10.5q-1.203125 0 -1.9375 -0.609375q-0.71875 -0.609375 -0.71875 -1.75q0 -0.671875 0.28125 -1.15625q0.296875 -0.5 0.84375 -0.8125q0.546875 -0.3125 1.25 -0.484375q0.71875 -0.171875 1.65625 -0.234375q1.0 -0.0625 1.484375 -0.109375l0 -0.953125q0 -0.984375 -0.453125 -1.46875q-0.453125 -0.5 -1.4375 -0.5q-1.359375 0 -2.546875 0.640625q-0.03125 -0.078125 -0.140625 -0.328125q-0.109375 -0.265625 -0.15625 -0.40625q0.484375 -0.3125 1.265625 -0.515625q0.78125 -0.21875 1.53125 -0.21875q1.53125 0 2.203125 0.65625q0.671875 0.65625 0.671875 2.34375l0 5.71875l-0.75 0q-0.046875 -0.1875 -0.125 -0.71875q-0.0625 -0.53125 -0.0625 -0.546875q-1.015625 1.453125 -2.859375 1.453125zm0.03125 -0.78125q1.0 0 1.78125 -0.578125q0.78125 -0.59375 1.015625 -1.640625l0 -1.46875q-1.125 0.09375 -1.125 0.09375q-1.90625 0.171875 -2.65625 0.625q-0.734375 0.453125 -0.734375 1.40625q0 0.78125 0.46875 1.171875q0.46875 0.390625 1.25 0.390625zm11.84375 0.59375l-3.265625 -8.5625l1.03125 0l1.984375 5.390625q0.15625 0.515625 0.375 1.09375q0.21875 0.5625 0.34375 0.890625l0.140625 0.3125q0.140625 -0.5 0.375 -1.0625q0.25 -0.578125 0.4375 -1.203125q0.21875 -0.671875 0.765625 -2.03125q0.5625 -1.359375 1.21875 -3.390625l1.03125 0l-3.3125 8.5625l-1.125 0zm9.0703125 0.1875q-1.78125 0 -2.828125 -1.1875q-1.03125 -1.1875 -1.03125 -3.21875q0 -1.96875 1.015625 -3.21875q1.015625 -1.25 2.640625 -1.28125q1.5 0 2.40625 1.078125q0.921875 1.078125 0.921875 2.890625q0 0.0625 0 0.28125q0 0.21875 0 0.296875l-5.96875 0q0.015625 1.65625 0.796875 2.625q0.78125 0.953125 2.0625 0.953125q0.84375 0 1.453125 -0.1875q0.625 -0.203125 1.296875 -0.5625l0.15625 0.734375q-1.296875 0.796875 -2.921875 0.796875zm-2.796875 -5.140625l4.875 0q0 -1.421875 -0.625 -2.1875q-0.609375 -0.765625 -1.6875 -0.765625q-1.09375 0 -1.765625 0.8125q-0.671875 0.8125 -0.796875 2.140625zm10.0234375 5.140625q-1.078125 0 -1.578125 -0.484375q-0.5 -0.5 -0.5 -1.609375l0 -9.984375l0.953125 -0.078125l0 10.015625q0 0.78125 0.28125 1.078125q0.28125 0.296875 0.859375 0.296875q0.46875 0 1.171875 -0.1875l0.046875 0.75q-0.765625 0.203125 -1.234375 0.203125zm5.9296875 -0.78125q0.9375 0 1.578125 -0.484375q0.640625 -0.5 0.9375 -1.3125q0.296875 -0.8125 0.296875 -1.875q0 -1.65625 -0.703125 -2.65625q-0.703125 -1.015625 -2.140625 -1.015625q-0.9375 0 -1.609375 0.515625q-0.65625 0.5 -0.96875 1.3125q-0.296875 0.8125 -0.296875 1.875q0 1.59375 0.75 2.625q0.75 1.015625 2.15625 1.015625zm-0.078125 0.78125q-1.15625 0 -2.046875 -0.578125q-0.890625 -0.59375 -1.359375 -1.59375q-0.453125 -1.015625 -0.453125 -2.28125q0 -0.953125 0.265625 -1.765625q0.265625 -0.8125 0.765625 -1.40625q0.5 -0.609375 1.234375 -0.9375q0.75 -0.34375 1.65625 -0.34375q1.203125 0 2.078125 0.59375q0.890625 0.578125 1.328125 1.578125q0.453125 1.0 0.453125 2.265625q0 1.28125 -0.453125 2.28125q-0.453125 1.0 -1.359375 1.59375q-0.890625 0.59375 -2.109375 0.59375zm9.390625 0q-1.234375 0 -2.15625 -0.609375q-0.90625 -0.609375 -1.359375 -1.59375q-0.4375 -0.984375 -0.4375 -2.1875q0 -0.921875 0.265625 -1.734375q0.265625 -0.8125 0.75 -1.4375q0.484375 -0.625 1.25 -0.984375q0.78125 -0.359375 1.71875 -0.359375q0.625 0 1.234375 0.171875q0.609375 0.15625 0.90625 0.375l-0.296875 0.734375q-0.8125 -0.453125 -1.90625 -0.453125q-1.34375 0 -2.125 1.015625q-0.78125 1.0 -0.78125 2.671875q0 1.609375 0.78125 2.59375q0.78125 0.984375 2.125 0.984375q0.9375 0 2.015625 -0.46875l0.140625 0.703125q-0.359375 0.265625 -0.953125 0.421875q-0.578125 0.15625 -1.171875 0.15625zm4.0703125 -0.1875l0 -8.5625l0.984375 0l0 8.5625l-0.984375 0zm0 -10.3125l0 -1.3125l0.96875 0l0 1.3125l-0.96875 0zm5.7890625 10.5q-1.078125 0 -1.578125 -0.484375q-0.5 -0.5 -0.5 -1.609375l0 -5.953125l-1.203125 0l0.0625 -0.578125l1.15625 -0.109375l0.265625 -1.96875l0.671875 -0.046875l0 2.0l2.5 0l0 0.703125l-2.5 0l0 5.75q0 0.90625 0.296875 1.21875q0.296875 0.3125 1.046875 0.3125q0.484375 0 1.203125 -0.1875l0.046875 0.75q-0.953125 0.203125 -1.46875 0.203125zm5.3125 -9.25l-2.15625 -3.015625l1.234375 0l1.5 3.015625l-0.578125 0zm-0.15625 9.25q-1.203125 0 -1.9375 -0.609375q-0.71875 -0.609375 -0.71875 -1.75q0 -0.671875 0.28125 -1.15625q0.296875 -0.5 0.84375 -0.8125q0.546875 -0.3125 1.25 -0.484375q0.71875 -0.171875 1.65625 -0.234375q1.0 -0.0625 1.484375 -0.109375l0 -0.953125q0 -0.984375 -0.453125 -1.46875q-0.453125 -0.5 -1.4375 -0.5q-1.359375 0 -2.546875 0.640625q-0.03125 -0.078125 -0.140625 -0.328125q-0.109375 -0.265625 -0.15625 -0.40625q0.484375 -0.3125 1.265625 -0.515625q0.78125 -0.21875 1.53125 -0.21875q1.53125 0 2.203125 0.65625q0.671875 0.65625 0.671875 2.34375l0 5.71875l-0.75 0q-0.046875 -0.1875 -0.125 -0.71875q-0.0625 -0.53125 -0.0625 -0.546875q-1.015625 1.453125 -2.859375 1.453125zm0.03125 -0.78125q1.0 0 1.78125 -0.578125q0.78125 -0.59375 1.015625 -1.640625l0 -1.46875q-1.125 0.09375 -1.125 0.09375q-1.90625 0.171875 -2.65625 0.625q-0.734375 0.453125 -0.734375 1.40625q0 0.78125 0.46875 1.171875q0.46875 0.390625 1.25 0.390625zm12.21875 0.796875q-0.828125 0 -1.5625 -0.203125q-0.71875 -0.21875 -1.140625 -0.5l0.140625 -0.8125q1.28125 0.671875 2.46875 0.671875q2.109375 0 2.1875 -1.5625q0 -0.65625 -0.421875 -1.03125q-0.421875 -0.375 -1.703125 -0.78125q-0.671875 -0.234375 -0.75 -0.265625q-2.0 -0.609375 -2.015625 -2.15625q0 -0.90625 0.78125 -1.59375q0.796875 -0.6875 2.140625 -0.6875q1.359375 0 2.546875 0.53125l-0.328125 0.71875q-1.203125 -0.453125 -2.234375 -0.453125q-0.90625 0 -1.421875 0.40625q-0.515625 0.40625 -0.515625 1.09375q0 0.578125 0.328125 0.890625q0.34375 0.296875 1.359375 0.578125q0.109375 0.03125 0.390625 0.140625q0.296875 0.109375 0.328125 0.125q1.359375 0.40625 1.890625 0.984375q0.53125 0.5625 0.53125 1.53125q-0.015625 1.125 -0.84375 1.75q-0.8125 0.625 -2.15625 0.625zm4.875 3.609375l0 -12.375l0.859375 0l0.09375 1.21875q0.59375 -0.6875 1.21875 -1.03125q0.625 -0.34375 1.453125 -0.34375q1.828125 0 2.734375 1.21875q0.90625 1.203125 0.90625 3.3125q0 1.921875 -0.96875 3.15625q-0.953125 1.21875 -2.59375 1.21875q-0.84375 0 -1.59375 -0.390625q-0.75 -0.40625 -1.1875 -1.0625q0.046875 0.96875 0.046875 1.90625l0 3.109375l-0.96875 0.0625zm3.640625 -4.421875q0.671875 0 1.1875 -0.3125q0.515625 -0.328125 0.8125 -0.859375q0.3125 -0.53125 0.453125 -1.15625q0.15625 -0.640625 0.15625 -1.3125q0 -0.6875 -0.15625 -1.3125q-0.140625 -0.625 -0.4375 -1.15625q-0.296875 -0.546875 -0.828125 -0.859375q-0.515625 -0.328125 -1.1875 -0.328125q-0.734375 0 -1.265625 0.265625q-0.515625 0.265625 -0.828125 0.75q-0.3125 0.484375 -0.453125 1.109375q-0.140625 0.609375 -0.140625 1.375q0 0.890625 0.125 1.5625q0.140625 0.65625 0.4375 1.1875q0.3125 0.515625 0.84375 0.78125q0.53125 0.265625 1.28125 0.265625zm9.0078125 0.796875q-1.78125 0 -2.828125 -1.1875q-1.03125 -1.1875 -1.03125 -3.21875q0 -1.96875 1.015625 -3.21875q1.015625 -1.25 2.640625 -1.28125q1.5 0 2.40625 1.078125q0.921875 1.078125 0.921875 2.890625q0 0.0625 0 0.28125q0 0.21875 0 0.296875l-5.96875 0q0.015625 1.65625 0.796875 2.625q0.78125 0.953125 2.0625 0.953125q0.84375 0 1.453125 -0.1875q0.625 -0.203125 1.296875 -0.5625l0.15625 0.734375q-1.296875 0.796875 -2.921875 0.796875zm-2.796875 -5.140625l4.875 0q0 -1.421875 -0.625 -2.1875q-0.609375 -0.765625 -1.6875 -0.765625q-1.09375 0 -1.765625 0.8125q-0.671875 0.8125 -0.796875 2.140625zm11.3359375 5.140625q-1.78125 0 -2.828125 -1.1875q-1.03125 -1.1875 -1.03125 -3.21875q0 -1.96875 1.015625 -3.21875q1.015625 -1.25 2.640625 -1.28125q1.5 0 2.40625 1.078125q0.921875 1.078125 0.921875 2.890625q0 0.0625 0 0.28125q0 0.21875 0 0.296875l-5.96875 0q0.015625 1.65625 0.796875 2.625q0.78125 0.953125 2.0625 0.953125q0.84375 0 1.453125 -0.1875q0.625 -0.203125 1.296875 -0.5625l0.15625 0.734375q-1.296875 0.796875 -2.921875 0.796875zm-2.796875 -5.140625l4.875 0q0 -1.421875 -0.625 -2.1875q-0.609375 -0.765625 -1.6875 -0.765625q-1.09375 0 -1.765625 0.8125q-0.671875 0.8125 -0.796875 2.140625zm11.1015625 5.140625q-1.71875 0 -2.671875 -1.1875q-0.953125 -1.203125 -0.953125 -3.296875q0 -1.96875 0.984375 -3.1875q0.984375 -1.234375 2.609375 -1.234375q0.796875 0 1.59375 0.34375q0.796875 0.34375 1.203125 1.0625l0 -0.25l0 -4.328125l0.9375 -0.078125l0 11.96875l-0.796875 0l-0.140625 -1.296875q-0.453125 0.734375 -1.21875 1.109375q-0.75 0.375 -1.546875 0.375zm-0.03125 -0.78125q0.734375 0 1.28125 -0.265625q0.546875 -0.265625 0.875 -0.75q0.328125 -0.484375 0.484375 -1.109375q0.15625 -0.625 0.15625 -1.390625q0 -3.828125 -2.8125 -3.828125q-0.65625 0 -1.171875 0.328125q-0.5 0.3125 -0.796875 0.84375q-0.296875 0.53125 -0.4375 1.171875q-0.140625 0.625 -0.140625 1.3125q0 0.609375 0.078125 1.140625q0.09375 0.515625 0.28125 1.0q0.203125 0.46875 0.484375 0.8125q0.296875 0.34375 0.734375 0.546875q0.4375 0.1875 0.984375 0.1875zm6.3046875 0.59375l0 -11.625l6.25 0l-0.046875 0.859375l-5.1875 0l0 4.59375l4.953125 0l0 0.8125l-4.953125 0l0 5.359375l-1.015625 0zm9.9296875 0.1875q-1.203125 0 -1.9375 -0.609375q-0.71875 -0.609375 -0.71875 -1.75q0 -0.671875 0.28125 -1.15625q0.296875 -0.5 0.84375 -0.8125q0.546875 -0.3125 1.25 -0.484375q0.71875 -0.171875 1.65625 -0.234375q1.0 -0.0625 1.484375 -0.109375l0 -0.953125q0 -0.984375 -0.453125 -1.46875q-0.453125 -0.5 -1.4375 -0.5q-1.359375 0 -2.546875 0.640625q-0.03125 -0.078125 -0.140625 -0.328125q-0.109375 -0.265625 -0.15625 -0.40625q0.484375 -0.3125 1.265625 -0.515625q0.78125 -0.21875 1.53125 -0.21875q1.53125 0 2.203125 0.65625q0.671875 0.65625 0.671875 2.34375l0 5.71875l-0.75 0q-0.046875 -0.1875 -0.125 -0.71875q-0.0625 -0.53125 -0.0625 -0.546875q-1.015625 1.453125 -2.859375 1.453125zm0.03125 -0.78125q1.0 0 1.78125 -0.578125q0.78125 -0.59375 1.015625 -1.640625l0 -1.46875q-1.125 0.09375 -1.125 0.09375q-1.90625 0.171875 -2.65625 0.625q-0.734375 0.453125 -0.734375 1.40625q0 0.78125 0.46875 1.171875q0.46875 0.390625 1.25 0.390625zm9.6640625 0.78125q-1.234375 0 -2.15625 -0.609375q-0.90625 -0.609375 -1.359375 -1.59375q-0.4375 -0.984375 -0.4375 -2.1875q0 -0.921875 0.265625 -1.734375q0.265625 -0.8125 0.75 -1.4375q0.484375 -0.625 1.25 -0.984375q0.78125 -0.359375 1.71875 -0.359375q0.625 0 1.234375 0.171875q0.609375 0.15625 0.90625 0.375l-0.296875 0.734375q-0.8125 -0.453125 -1.90625 -0.453125q-1.34375 0 -2.125 1.015625q-0.78125 1.0 -0.78125 2.671875q0 1.609375 0.78125 2.59375q0.78125 0.984375 2.125 0.984375q0.9375 0 2.015625 -0.46875l0.140625 0.703125q-0.359375 0.265625 -0.953125 0.421875q-0.578125 0.15625 -1.171875 0.15625zm6.3828125 0q-1.078125 0 -1.578125 -0.484375q-0.5 -0.5 -0.5 -1.609375l0 -5.953125l-1.203125 0l0.0625 -0.578125l1.15625 -0.109375l0.265625 -1.96875l0.671875 -0.046875l0 2.0l2.5 0l0 0.703125l-2.5 0l0 5.75q0 0.90625 0.296875 1.21875q0.296875 0.3125 1.046875 0.3125q0.484375 0 1.203125 -0.1875l0.046875 0.75q-0.953125 0.203125 -1.46875 0.203125zm6.421875 -0.78125q0.9375 0 1.578125 -0.484375q0.640625 -0.5 0.9375 -1.3125q0.296875 -0.8125 0.296875 -1.875q0 -1.65625 -0.703125 -2.65625q-0.703125 -1.015625 -2.140625 -1.015625q-0.9375 0 -1.609375 0.515625q-0.65625 0.5 -0.96875 1.3125q-0.296875 0.8125 -0.296875 1.875q0 1.59375 0.75 2.625q0.75 1.015625 2.15625 1.015625zm-0.078125 0.78125q-1.15625 0 -2.046875 -0.578125q-0.890625 -0.59375 -1.359375 -1.59375q-0.453125 -1.015625 -0.453125 -2.28125q0 -0.953125 0.265625 -1.765625q0.265625 -0.8125 0.765625 -1.40625q0.5 -0.609375 1.234375 -0.9375q0.75 -0.34375 1.65625 -0.34375q1.203125 0 2.078125 0.59375q0.890625 0.578125 1.328125 1.578125q0.453125 1.0 0.453125 2.265625q0 1.28125 -0.453125 2.28125q-0.453125 1.0 -1.359375 1.59375q-0.890625 0.59375 -2.109375 0.59375zm5.84375 -0.1875q-0.015625 -7.546875 -0.015625 -8.5625l0.796875 0l0.0625 1.6875q0.453125 -0.765625 1.15625 -1.25q0.71875 -0.484375 1.5 -0.484375q0.3125 0 0.6875 0.046875l-0.078125 0.8125q-0.28125 -0.046875 -0.59375 -0.046875q-1.078125 0 -1.828125 0.859375q-0.734375 0.84375 -0.734375 2.015625l0 4.921875l-0.953125 0zm9.4375 0l0 -7.859375l-1.21875 0l0 -0.71875l1.21875 0q0 -0.203125 0.015625 -0.359375q0.015625 -0.671875 0.09375 -1.15625q0.078125 -0.5 0.234375 -0.828125q0.15625 -0.328125 0.359375 -0.53125q0.203125 -0.21875 0.515625 -0.328125q0.3125 -0.109375 0.640625 -0.140625q0.328125 -0.046875 0.8125 -0.046875l0.59375 0l0.140625 0.6875l-0.8125 0q-0.28125 0 -0.5 0.03125q-0.203125 0.015625 -0.375 0.09375q-0.15625 0.078125 -0.265625 0.171875q-0.109375 0.09375 -0.203125 0.265625q-0.078125 0.15625 -0.125 0.328125q-0.046875 0.171875 -0.078125 0.453125q-0.015625 0.28125 -0.03125 0.546875q0 0.265625 0 0.671875l0 0.0625l-0.015625 0.078125l4.6875 0l0 8.578125l-1.015625 0l0 -7.859375l-3.671875 0l0 7.859375l-1.0 0zm4.671875 -10.34375l0 -1.421875l1.015625 0l0 1.421875l-1.015625 0zm3.234375 10.34375l0 -8.5625l0.84375 0l0.125 1.3125q0.46875 -0.6875 1.234375 -1.078125q0.78125 -0.390625 1.6875 -0.390625q1.46875 0 2.15625 0.8125q0.703125 0.8125 0.703125 2.59375l0 5.3125l-0.96875 0l0 -5.75q-0.046875 -1.140625 -0.5 -1.640625q-0.4375 -0.5 -1.453125 -0.5q-1.15625 0 -1.90625 0.59375q-0.734375 0.578125 -0.921875 1.5q-0.03125 0.375 -0.03125 0.765625l0 5.03125l-0.96875 0zm12.546875 -0.59375q0.9375 0 1.578125 -0.484375q0.640625 -0.5 0.9375 -1.3125q0.296875 -0.8125 0.296875 -1.875q0 -1.65625 -0.703125 -2.65625q-0.703125 -1.015625 -2.140625 -1.015625q-0.9375 0 -1.609375 0.515625q-0.65625 0.5 -0.96875 1.3125q-0.296875 0.8125 -0.296875 1.875q0 1.59375 0.75 2.625q0.75 1.015625 2.15625 1.015625zm-0.078125 0.78125q-1.15625 0 -2.046875 -0.578125q-0.890625 -0.59375 -1.359375 -1.59375q-0.453125 -1.015625 -0.453125 -2.28125q0 -0.953125 0.265625 -1.765625q0.265625 -0.8125 0.765625 -1.40625q0.5 -0.609375 1.234375 -0.9375q0.75 -0.34375 1.65625 -0.34375q1.203125 0 2.078125 0.59375q0.890625 0.578125 1.328125 1.578125q0.453125 1.0 0.453125 2.265625q0 1.28125 -0.453125 2.28125q-0.453125 1.0 -1.359375 1.59375q-0.890625 0.59375 -2.109375 0.59375z" fill-rule="nonzero"/><path fill="#000000" d="m115.80377 233.71548q-1.203125 0 -1.9375 -0.609375q-0.71875 -0.609375 -0.71875 -1.75q0 -0.671875 0.28125 -1.15625q0.296875 -0.5 0.84375 -0.8125q0.546875 -0.3125 1.25 -0.484375q0.71875 -0.171875 1.65625 -0.234375q1.0 -0.0625 1.484375 -0.109375l0 -0.953125q0 -0.984375 -0.453125 -1.46875q-0.453125 -0.5 -1.4375 -0.5q-1.359375 0 -2.546875 0.640625q-0.03125 -0.078125 -0.140625 -0.328125q-0.109375 -0.265625 -0.15625 -0.40625q0.484375 -0.3125 1.265625 -0.515625q0.78125 -0.21875 1.53125 -0.21875q1.53125 0 2.203125 0.65625q0.671875 0.65625 0.671875 2.34375l0 5.71875l-0.75 0q-0.046875 -0.1875 -0.125 -0.71875q-0.0625 -0.53125 -0.0625 -0.546875q-1.015625 1.453125 -2.859375 1.453125zm0.03125 -0.78125q1.0 0 1.78125 -0.578125q0.78125 -0.59375 1.015625 -1.640625l0 -1.46875q-1.125 0.09375 -1.125 0.09375q-1.90625 0.171875 -2.65625 0.625q-0.734375 0.453125 -0.734375 1.40625q0 0.78125 0.46875 1.171875q0.46875 0.390625 1.25 0.390625zm8.2578125 0.78125q-1.078125 0 -1.578125 -0.484375q-0.5 -0.5 -0.5 -1.609375l0 -9.984375l0.953125 -0.078125l0 10.015625q0 0.78125 0.28125 1.078125q0.28125 0.296875 0.859375 0.296875q0.46875 0 1.171875 -0.1875l0.046875 0.75q-0.765625 0.203125 -1.234375 0.203125zm6.0 3.625l0 -12.375l0.859375 0l0.09375 1.21875q0.59375 -0.6875 1.21875 -1.03125q0.625 -0.34375 1.453125 -0.34375q1.828125 0 2.734375 1.21875q0.90625 1.203125 0.90625 3.3125q0 1.921875 -0.96875 3.15625q-0.953125 1.21875 -2.59375 1.21875q-0.84375 0 -1.59375 -0.390625q-0.75 -0.40625 -1.1875 -1.0625q0.046875 0.96875 0.046875 1.90625l0 3.109375l-0.96875 0.0625zm3.640625 -4.421875q0.671875 0 1.1875 -0.3125q0.515625 -0.328125 0.8125 -0.859375q0.3125 -0.53125 0.453125 -1.15625q0.15625 -0.640625 0.15625 -1.3125q0 -0.6875 -0.15625 -1.3125q-0.140625 -0.625 -0.4375 -1.15625q-0.296875 -0.546875 -0.828125 -0.859375q-0.515625 -0.328125 -1.1875 -0.328125q-0.734375 0 -1.265625 0.265625q-0.515625 0.265625 -0.828125 0.75q-0.3125 0.484375 -0.453125 1.109375q-0.140625 0.609375 -0.140625 1.375q0 0.890625 0.125 1.5625q0.140625 0.65625 0.4375 1.1875q0.3125 0.515625 0.84375 0.78125q0.53125 0.265625 1.28125 0.265625zm5.5546875 0.609375q-0.015625 -7.546875 -0.015625 -8.5625l0.796875 0l0.0625 1.6875q0.453125 -0.765625 1.15625 -1.25q0.71875 -0.484375 1.5 -0.484375q0.3125 0 0.6875 0.046875l-0.078125 0.8125q-0.28125 -0.046875 -0.59375 -0.046875q-1.078125 0 -1.828125 0.859375q-0.734375 0.84375 -0.734375 2.015625l0 4.921875l-0.953125 0zm8.96875 -0.59375q0.9375 0 1.578125 -0.484375q0.640625 -0.5 0.9375 -1.3125q0.296875 -0.8125 0.296875 -1.875q0 -1.65625 -0.703125 -2.65625q-0.703125 -1.015625 -2.140625 -1.015625q-0.9375 0 -1.609375 0.515625q-0.65625 0.5 -0.96875 1.3125q-0.296875 0.8125 -0.296875 1.875q0 1.59375 0.75 2.625q0.75 1.015625 2.15625 1.015625zm-0.078125 0.78125q-1.15625 0 -2.046875 -0.578125q-0.890625 -0.59375 -1.359375 -1.59375q-0.453125 -1.015625 -0.453125 -2.28125q0 -0.953125 0.265625 -1.765625q0.265625 -0.8125 0.765625 -1.40625q0.5 -0.609375 1.234375 -0.9375q0.75 -0.34375 1.65625 -0.34375q1.203125 0 2.078125 0.59375q0.890625 0.578125 1.328125 1.578125q0.453125 1.0 0.453125 2.265625q0 1.28125 -0.453125 2.28125q-0.453125 1.0 -1.359375 1.59375q-0.890625 0.59375 -2.109375 0.59375zm8.328125 0.015625q-0.828125 0 -1.5625 -0.203125q-0.71875 -0.21875 -1.140625 -0.5l0.140625 -0.8125q1.28125 0.671875 2.46875 0.671875q2.109375 0 2.1875 -1.5625q0 -0.65625 -0.421875 -1.03125q-0.421875 -0.375 -1.703125 -0.78125q-0.671875 -0.234375 -0.75 -0.265625q-2.0 -0.609375 -2.015625 -2.15625q0 -0.90625 0.78125 -1.59375q0.796875 -0.6875 2.140625 -0.6875q1.359375 0 2.546875 0.53125l-0.328125 0.71875q-1.203125 -0.453125 -2.234375 -0.453125q-0.90625 0 -1.421875 0.40625q-0.515625 0.40625 -0.515625 1.09375q0 0.578125 0.328125 0.890625q0.34375 0.296875 1.359375 0.578125q0.109375 0.03125 0.390625 0.140625q0.296875 0.109375 0.328125 0.125q1.359375 0.40625 1.890625 0.984375q0.53125 0.5625 0.53125 1.53125q-0.015625 1.125 -0.84375 1.75q-0.8125 0.625 -2.15625 0.625zm7.375 0q-0.828125 0 -1.5625 -0.203125q-0.71875 -0.21875 -1.140625 -0.5l0.140625 -0.8125q1.28125 0.671875 2.46875 0.671875q2.109375 0 2.1875 -1.5625q0 -0.65625 -0.421875 -1.03125q-0.421875 -0.375 -1.703125 -0.78125q-0.671875 -0.234375 -0.75 -0.265625q-2.0 -0.609375 -2.015625 -2.15625q0 -0.90625 0.78125 -1.59375q0.796875 -0.6875 2.140625 -0.6875q1.359375 0 2.546875 0.53125l-0.328125 0.71875q-1.203125 -0.453125 -2.234375 -0.453125q-0.90625 0 -1.421875 0.40625q-0.515625 0.40625 -0.515625 1.09375q0 0.578125 0.328125 0.890625q0.34375 0.296875 1.359375 0.578125q0.109375 0.03125 0.390625 0.140625q0.296875 0.109375 0.328125 0.125q1.359375 0.40625 1.890625 0.984375q0.53125 0.5625 0.53125 1.53125q-0.015625 1.125 -0.84375 1.75q-0.8125 0.625 -2.15625 0.625zm4.96875 -0.203125l0 -8.5625l0.984375 0l0 8.5625l-0.984375 0zm0 -10.3125l0 -1.3125l0.96875 0l0 1.3125l-0.96875 0zm3.3984375 10.3125q-0.015625 -7.765625 -0.015625 -8.5625l0.84375 0l0.125 1.3125q0.375 -0.640625 1.109375 -1.046875q0.75 -0.421875 1.59375 -0.421875q2.046875 0 2.578125 1.609375q0.90625 -1.609375 2.875 -1.609375q1.40625 0 2.0625 0.796875q0.671875 0.796875 0.671875 2.390625l0 5.53125l-0.96875 0l0 -4.1875q0 -0.59375 -0.015625 -0.984375q-0.015625 -0.40625 -0.078125 -0.875q-0.0625 -0.46875 -0.1875 -0.765625q-0.109375 -0.296875 -0.3125 -0.5625q-0.1875 -0.265625 -0.5 -0.390625q-0.296875 -0.125 -0.71875 -0.125q-0.984375 0 -1.671875 0.578125q-0.671875 0.578125 -0.9375 1.640625q0.015625 0.796875 0.03125 1.234375l0 4.4375l-0.953125 0l0 -4.359375q0 -0.671875 -0.046875 -1.15625q-0.03125 -0.484375 -0.15625 -0.953125q-0.109375 -0.46875 -0.3125 -0.765625q-0.203125 -0.296875 -0.53125 -0.46875q-0.328125 -0.1875 -0.796875 -0.1875q-1.0625 0 -1.78125 0.5625q-0.703125 0.5625 -0.921875 1.546875q-0.015625 0.3125 -0.015625 0.90625l0 4.875l-0.96875 0zm17.632812 -0.59375q0.9375 0 1.578125 -0.484375q0.640625 -0.5 0.9375 -1.3125q0.296875 -0.8125 0.296875 -1.875q0 -1.65625 -0.703125 -2.65625q-0.703125 -1.015625 -2.140625 -1.015625q-0.9375 0 -1.609375 0.515625q-0.65625 0.5 -0.96875 1.3125q-0.296875 0.8125 -0.296875 1.875q0 1.59375 0.75 2.625q0.75 1.015625 2.15625 1.015625zm-0.078125 0.78125q-1.15625 0 -2.046875 -0.578125q-0.890625 -0.59375 -1.359375 -1.59375q-0.453125 -1.015625 -0.453125 -2.28125q0 -0.953125 0.265625 -1.765625q0.265625 -0.8125 0.765625 -1.40625q0.5 -0.609375 1.234375 -0.9375q0.75 -0.34375 1.65625 -0.34375q1.203125 0 2.078125 0.59375q0.890625 0.578125 1.328125 1.578125q0.453125 1.0 0.453125 2.265625q0 1.28125 -0.453125 2.28125q-0.453125 1.0 -1.359375 1.59375q-0.890625 0.59375 -2.109375 0.59375zm12.9140625 0q-1.78125 0 -2.828125 -1.1875q-1.03125 -1.1875 -1.03125 -3.21875q0 -1.96875 1.015625 -3.21875q1.015625 -1.25 2.640625 -1.28125q1.5 0 2.40625 1.078125q0.921875 1.078125 0.921875 2.890625q0 0.0625 0 0.28125q0 0.21875 0 0.296875l-5.96875 0q0.015625 1.65625 0.796875 2.625q0.78125 0.953125 2.0625 0.953125q0.84375 0 1.453125 -0.1875q0.625 -0.203125 1.296875 -0.5625l0.15625 0.734375q-1.296875 0.796875 -2.921875 0.796875zm-2.796875 -5.140625l4.875 0q0 -1.421875 -0.625 -2.1875q-0.609375 -0.765625 -1.6875 -0.765625q-1.09375 0 -1.765625 0.8125q-0.671875 0.8125 -0.796875 2.140625zm9.9921875 4.953125l-3.265625 -8.5625l1.03125 0l1.984375 5.390625q0.15625 0.515625 0.375 1.09375q0.21875 0.5625 0.34375 0.890625l0.140625 0.3125q0.140625 -0.5 0.375 -1.0625q0.25 -0.578125 0.4375 -1.203125q0.21875 -0.671875 0.765625 -2.03125q0.5625 -1.359375 1.21875 -3.390625l1.03125 0l-3.3125 8.5625l-1.125 0zm9.0703125 0.1875q-1.78125 0 -2.828125 -1.1875q-1.03125 -1.1875 -1.03125 -3.21875q0 -1.96875 1.015625 -3.21875q1.015625 -1.25 2.640625 -1.28125q1.5 0 2.40625 1.078125q0.921875 1.078125 0.921875 2.890625q0 0.0625 0 0.28125q0 0.21875 0 0.296875l-5.96875 0q0.015625 1.65625 0.796875 2.625q0.78125 0.953125 2.0625 0.953125q0.84375 0 1.453125 -0.1875q0.625 -0.203125 1.296875 -0.5625l0.15625 0.734375q-1.296875 0.796875 -2.921875 0.796875zm-2.796875 -5.140625l4.875 0q0 -1.421875 -0.625 -2.1875q-0.609375 -0.765625 -1.6875 -0.765625q-1.09375 0 -1.765625 0.8125q-0.671875 0.8125 -0.796875 2.140625zm7.8671875 4.953125l0 -8.5625l0.84375 0l0.125 1.3125q0.46875 -0.6875 1.234375 -1.078125q0.78125 -0.390625 1.6875 -0.390625q1.46875 0 2.15625 0.8125q0.703125 0.8125 0.703125 2.59375l0 5.3125l-0.96875 0l0 -5.75q-0.046875 -1.140625 -0.5 -1.640625q-0.4375 -0.5 -1.453125 -0.5q-1.15625 0 -1.90625 0.59375q-0.734375 0.578125 -0.921875 1.5q-0.03125 0.375 -0.03125 0.765625l0 5.03125l-0.96875 0zm11.40625 0.1875q-1.078125 0 -1.578125 -0.484375q-0.5 -0.5 -0.5 -1.609375l0 -5.953125l-1.203125 0l0.0625 -0.578125l1.15625 -0.109375l0.265625 -1.96875l0.671875 -0.046875l0 2.0l2.5 0l0 0.703125l-2.5 0l0 5.75q0 0.90625 0.296875 1.21875q0.296875 0.3125 1.046875 0.3125q0.484375 0 1.203125 -0.1875l0.046875 0.75q-0.953125 0.203125 -1.46875 0.203125zm6.421875 -0.78125q0.9375 0 1.578125 -0.484375q0.640625 -0.5 0.9375 -1.3125q0.296875 -0.8125 0.296875 -1.875q0 -1.65625 -0.703125 -2.65625q-0.703125 -1.015625 -2.140625 -1.015625q-0.9375 0 -1.609375 0.515625q-0.65625 0.5 -0.96875 1.3125q-0.296875 0.8125 -0.296875 1.875q0 1.59375 0.75 2.625q0.75 1.015625 2.15625 1.015625zm-0.078125 0.78125q-1.15625 0 -2.046875 -0.578125q-0.890625 -0.59375 -1.359375 -1.59375q-0.453125 -1.015625 -0.453125 -2.28125q0 -0.953125 0.265625 -1.765625q0.265625 -0.8125 0.765625 -1.40625q0.5 -0.609375 1.234375 -0.9375q0.75 -0.34375 1.65625 -0.34375q1.203125 0 2.078125 0.59375q0.890625 0.578125 1.328125 1.578125q0.453125 1.0 0.453125 2.265625q0 1.28125 -0.453125 2.28125q-0.453125 1.0 -1.359375 1.59375q-0.890625 0.59375 -2.109375 0.59375zm5.0625 1.171875l5.46875 -13.1875l0.890625 0l-5.484375 13.1875l-0.875 0zm8.3046875 -1.359375l0 -8.5625l0.984375 0l0 8.5625l-0.984375 0zm0 -10.3125l0 -1.3125l0.96875 0l0 1.3125l-0.96875 0z" fill-rule="nonzero"/><path fill="#000000" fill-opacity="0.0" d="m184.8819 167.59317l0 27.527557" fill-rule="evenodd"/><path stroke="#ffab40" stroke-width="2.0" stroke-linejoin="round" stroke-linecap="butt" d="m184.8819 167.59317l0 15.527557" fill-rule="evenodd"/><path fill="#ffab40" stroke="#ffab40" stroke-width="2.0" stroke-linecap="butt" d="m181.57843 183.12074l3.3034668 9.076187l3.3034515 -9.076187z" fill-rule="evenodd"/><path fill="#000000" fill-opacity="0.0" d="m49.11811 271.49353l0 0c0 -2.533905 2.0541267 -4.5880127 4.5880165 -4.5880127l262.35153 0c1.2168274 0 2.383789 0.48336792 3.2442322 1.3437805c0.8604126 0.8604431 1.3437805 2.0274048 1.3437805 3.2442322l0 18.351532c0 2.5338745 -2.0541077 4.5880127 -4.5880127 4.5880127l-262.35153 0l0 0c-2.5338898 0 -4.5880165 -2.0541382 -4.5880165 -4.5880127z" fill-rule="evenodd"/><path stroke="#ff9900" stroke-width="2.0" stroke-linejoin="round" stroke-linecap="butt" d="m49.11811 271.49353l0 0c0 -2.533905 2.0541267 -4.5880127 4.5880165 -4.5880127l262.35153 0c1.2168274 0 2.383789 0.48336792 3.2442322 1.3437805c0.8604126 0.8604431 1.3437805 2.0274048 1.3437805 3.2442322l0 18.351532c0 2.5338745 -2.0541077 4.5880127 -4.5880127 4.5880127l-262.35153 0l0 0c-2.5338898 0 -4.5880165 -2.0541382 -4.5880165 -4.5880127z" fill-rule="evenodd"/><path fill="#000000" d="m124.81158 286.5293l0 -11.625l3.5625076 0q0.75 0 1.359375 0.15625q0.625 0.15625 1.109375 0.5q0.5 0.328125 0.765625 0.90625q0.28125 0.578125 0.28125 1.34375q0 0.4375 -0.046875 0.796875q-0.03125 0.359375 -0.15625 0.734375q-0.109375 0.375 -0.3125 0.65625q-0.203125 0.28125 -0.53125 0.546875q-0.3125 0.25 -0.765625 0.421875q-0.4375 0.15625 -1.0625 0.25q-0.609375 0.09375 -1.3750076 0.09375q-0.828125 0 -1.8125 -0.109375l0 5.328125l-1.015625 0zm2.921875 -6.09375q0.9062576 0 1.5312576 -0.171875q0.640625 -0.1875 0.953125 -0.40625q0.3125 -0.234375 0.46875 -0.640625q0.171875 -0.421875 0.1875 -0.671875q0.03125 -0.25 0.03125 -0.703125q0 -0.03125 0 -0.046875q0 -1.015625 -0.703125 -1.515625q-0.6875 -0.5 -1.796875 -0.5l-2.5781326 0l0 4.5625q0.6875 0.09375 1.90625 0.09375zm9.117195 6.3125q-0.671875 0 -1.25 -0.15625q-0.578125 -0.15625 -1.078125 -0.484375q-0.484375 -0.328125 -0.765625 -0.921875q-0.28125 -0.59375 -0.28125 -1.390625l0 -5.828125l0.96875 0l0 5.84375q0 0.609375 0.1875 1.03125q0.1875 0.421875 0.53125 0.640625q0.359375 0.21875 0.75 0.3125q0.40625 0.078125 0.9375 0.078125q0.515625 0 0.90625 -0.09375q0.40625 -0.09375 0.75 -0.3125q0.34375 -0.21875 0.53125 -0.625q0.1875 -0.421875 0.1875 -1.03125l0 -5.84375l0.96875 0l0 5.828125q0 0.65625 -0.1875 1.171875q-0.1875 0.515625 -0.5 0.84375q-0.3125 0.328125 -0.765625 0.546875q-0.4375 0.21875 -0.90625 0.296875q-0.453125 0.09375 -0.984375 0.09375zm9.140625 -0.03125q-1.75 0 -2.78125 -1.4375l-0.09375 1.25l-0.8125 0l0 -11.890625l0.953125 -0.078125l0 2.875q0 1.328125 -0.015625 1.828125q0.46875 -0.734375 1.203125 -1.09375q0.75 -0.359375 1.546875 -0.359375q1.734375 0 2.703125 1.234375q0.96875 1.234375 0.96875 3.1875q0 1.3125 -0.40625 2.3125q-0.390625 1.0 -1.234375 1.59375q-0.84375 0.578125 -2.03125 0.578125zm0.046875 -0.78125q0.71875 0 1.234375 -0.296875q0.53125 -0.3125 0.8125 -0.84375q0.296875 -0.546875 0.421875 -1.15625q0.125 -0.625 0.125 -1.359375q0 -0.578125 -0.078125 -1.078125q-0.0625 -0.515625 -0.265625 -1.0q-0.1875 -0.5 -0.46875 -0.84375q-0.28125 -0.34375 -0.75 -0.546875q-0.453125 -0.21875 -1.03125 -0.21875q-1.359375 0 -2.078125 0.984375q-0.703125 0.96875 -0.703125 2.75q0 0.828125 0.15625 1.46875q0.15625 0.640625 0.46875 1.140625q0.328125 0.484375 0.859375 0.75q0.546875 0.25 1.296875 0.25zm9.015625 0.78125q-1.75 0 -2.78125 -1.4375l-0.09375 1.25l-0.8125 0l0 -11.890625l0.953125 -0.078125l0 2.875q0 1.328125 -0.015625 1.828125q0.46875 -0.734375 1.203125 -1.09375q0.75 -0.359375 1.546875 -0.359375q1.734375 0 2.703125 1.234375q0.96875 1.234375 0.96875 3.1875q0 1.3125 -0.40625 2.3125q-0.390625 1.0 -1.234375 1.59375q-0.84375 0.578125 -2.03125 0.578125zm0.046875 -0.78125q0.71875 0 1.234375 -0.296875q0.53125 -0.3125 0.8125 -0.84375q0.296875 -0.546875 0.421875 -1.15625q0.125 -0.625 0.125 -1.359375q0 -0.578125 -0.078125 -1.078125q-0.0625 -0.515625 -0.265625 -1.0q-0.1875 -0.5 -0.46875 -0.84375q-0.28125 -0.34375 -0.75 -0.546875q-0.453125 -0.21875 -1.03125 -0.21875q-1.359375 0 -2.078125 0.984375q-0.703125 0.96875 -0.703125 2.75q0 0.828125 0.15625 1.46875q0.15625 0.640625 0.46875 1.140625q0.328125 0.484375 0.859375 0.75q0.546875 0.25 1.296875 0.25zm7.6953125 0.78125q-1.078125 0 -1.578125 -0.484375q-0.5 -0.5 -0.5 -1.609375l0 -9.984375l0.953125 -0.078125l0 10.015625q0 0.78125 0.28125 1.078125q0.28125 0.296875 0.859375 0.296875q0.46875 0 1.171875 -0.1875l0.046875 0.75q-0.765625 0.203125 -1.234375 0.203125zm2.4765625 -0.1875l0 -8.5625l0.984375 0l0 8.5625l-0.984375 0zm0 -10.3125l0 -1.3125l0.96875 0l0 1.3125l-0.96875 0zm6.9453125 10.5q-1.234375 0 -2.15625 -0.609375q-0.90625 -0.609375 -1.359375 -1.59375q-0.4375 -0.984375 -0.4375 -2.1875q0 -0.921875 0.265625 -1.734375q0.265625 -0.8125 0.75 -1.4375q0.484375 -0.625 1.25 -0.984375q0.78125 -0.359375 1.71875 -0.359375q0.625 0 1.234375 0.171875q0.609375 0.15625 0.90625 0.375l-0.296875 0.734375q-0.8125 -0.453125 -1.90625 -0.453125q-1.34375 0 -2.125 1.015625q-0.78125 1.0 -0.78125 2.671875q0 1.609375 0.78125 2.59375q0.78125 0.984375 2.125 0.984375q0.9375 0 2.015625 -0.46875l0.140625 0.703125q-0.359375 0.265625 -0.953125 0.421875q-0.578125 0.15625 -1.171875 0.15625zm6.2578125 0q-1.203125 0 -1.9375 -0.609375q-0.71875 -0.609375 -0.71875 -1.75q0 -0.671875 0.28125 -1.15625q0.296875 -0.5 0.84375 -0.8125q0.546875 -0.3125 1.25 -0.484375q0.71875 -0.171875 1.65625 -0.234375q1.0 -0.0625 1.484375 -0.109375l0 -0.953125q0 -0.984375 -0.453125 -1.46875q-0.453125 -0.5 -1.4375 -0.5q-1.359375 0 -2.546875 0.640625q-0.03125 -0.078125 -0.140625 -0.328125q-0.109375 -0.265625 -0.15625 -0.40625q0.484375 -0.3125 1.265625 -0.515625q0.78125 -0.21875 1.53125 -0.21875q1.53125 0 2.203125 0.65625q0.671875 0.65625 0.671875 2.34375l0 5.71875l-0.75 0q-0.046875 -0.1875 -0.125 -0.71875q-0.0625 -0.53125 -0.0625 -0.546875q-1.015625 1.453125 -2.859375 1.453125zm0.03125 -0.78125q1.0 0 1.78125 -0.578125q0.78125 -0.59375 1.015625 -1.640625l0 -1.46875q-1.125 0.09375 -1.125 0.09375q-1.90625 0.171875 -2.65625 0.625q-0.734375 0.453125 -0.734375 1.40625q0 0.78125 0.46875 1.171875q0.46875 0.390625 1.25 0.390625zm13.1875 0.78125q-1.78125 0 -2.828125 -1.1875q-1.03125 -1.1875 -1.03125 -3.21875q0 -1.96875 1.015625 -3.21875q1.015625 -1.25 2.640625 -1.28125q1.5 0 2.40625 1.078125q0.921875 1.078125 0.921875 2.890625q0 0.0625 0 0.28125q0 0.21875 0 0.296875l-5.96875 0q0.015625 1.65625 0.796875 2.625q0.78125 0.953125 2.0625 0.953125q0.84375 0 1.453125 -0.1875q0.625 -0.203125 1.296875 -0.5625l0.15625 0.734375q-1.296875 0.796875 -2.921875 0.796875zm-2.796875 -5.140625l4.875 0q0 -1.421875 -0.625 -2.1875q-0.609375 -0.765625 -1.6875 -0.765625q-1.09375 0 -1.765625 0.8125q-0.671875 0.8125 -0.796875 2.140625zm9.9921875 4.953125l-3.265625 -8.5625l1.03125 0l1.984375 5.390625q0.15625 0.515625 0.375 1.09375q0.21875 0.5625 0.34375 0.890625l0.140625 0.3125q0.140625 -0.5 0.375 -1.0625q0.25 -0.578125 0.4375 -1.203125q0.21875 -0.671875 0.765625 -2.03125q0.5625 -1.359375 1.21875 -3.390625l1.03125 0l-3.3125 8.5625l-1.125 0zm9.0703125 0.1875q-1.78125 0 -2.828125 -1.1875q-1.03125 -1.1875 -1.03125 -3.21875q0 -1.96875 1.015625 -3.21875q1.015625 -1.25 2.640625 -1.28125q1.5 0 2.40625 1.078125q0.921875 1.078125 0.921875 2.890625q0 0.0625 0 0.28125q0 0.21875 0 0.296875l-5.96875 0q0.015625 1.65625 0.796875 2.625q0.78125 0.953125 2.0625 0.953125q0.84375 0 1.453125 -0.1875q0.625 -0.203125 1.296875 -0.5625l0.15625 0.734375q-1.296875 0.796875 -2.921875 0.796875zm-2.796875 -5.140625l4.875 0q0 -1.421875 -0.625 -2.1875q-0.609375 -0.765625 -1.6875 -0.765625q-1.09375 0 -1.765625 0.8125q-0.671875 0.8125 -0.796875 2.140625zm7.8671875 4.953125l0 -8.5625l0.84375 0l0.125 1.3125q0.46875 -0.6875 1.234375 -1.078125q0.78125 -0.390625 1.6875 -0.390625q1.46875 0 2.15625 0.8125q0.703125 0.8125 0.703125 2.59375l0 5.3125l-0.96875 0l0 -5.75q-0.046875 -1.140625 -0.5 -1.640625q-0.4375 -0.5 -1.453125 -0.5q-1.15625 0 -1.90625 0.59375q-0.734375 0.578125 -0.921875 1.5q-0.03125 0.375 -0.03125 0.765625l0 5.03125l-0.96875 0zm11.40625 0.1875q-1.078125 0 -1.578125 -0.484375q-0.5 -0.5 -0.5 -1.609375l0 -5.953125l-1.203125 0l0.0625 -0.578125l1.15625 -0.109375l0.265625 -1.96875l0.671875 -0.046875l0 2.0l2.5 0l0 0.703125l-2.5 0l0 5.75q0 0.90625 0.296875 1.21875q0.296875 0.3125 1.046875 0.3125q0.484375 0 1.203125 -0.1875l0.046875 0.75q-0.953125 0.203125 -1.46875 0.203125zm6.421875 -0.78125q0.9375 0 1.578125 -0.484375q0.640625 -0.5 0.9375 -1.3125q0.296875 -0.8125 0.296875 -1.875q0 -1.65625 -0.703125 -2.65625q-0.703125 -1.015625 -2.140625 -1.015625q-0.9375 0 -1.609375 0.515625q-0.65625 0.5 -0.96875 1.3125q-0.296875 0.8125 -0.296875 1.875q0 1.59375 0.75 2.625q0.75 1.015625 2.15625 1.015625zm-0.078125 0.78125q-1.15625 0 -2.046875 -0.578125q-0.890625 -0.59375 -1.359375 -1.59375q-0.453125 -1.015625 -0.453125 -2.28125q0 -0.953125 0.265625 -1.765625q0.265625 -0.8125 0.765625 -1.40625q0.5 -0.609375 1.234375 -0.9375q0.75 -0.34375 1.65625 -0.34375q1.203125 0 2.078125 0.59375q0.890625 0.578125 1.328125 1.578125q0.453125 1.0 0.453125 2.265625q0 1.28125 -0.453125 2.28125q-0.453125 1.0 -1.359375 1.59375q-0.890625 0.59375 -2.109375 0.59375zm5.0625 1.171875l5.46875 -13.1875l0.890625 0l-5.484375 13.1875l-0.875 0zm8.3046875 -1.359375l0 -8.5625l0.984375 0l0 8.5625l-0.984375 0zm0 -10.3125l0 -1.3125l0.96875 0l0 1.3125l-0.96875 0z" fill-rule="nonzero"/><path fill="#000000" fill-opacity="0.0" d="m184.8819 239.37796l0 27.527557" fill-rule="evenodd"/><path stroke="#ffab40" stroke-width="2.0" stroke-linejoin="round" stroke-linecap="butt" d="m184.8819 239.37796l0 15.527557" fill-rule="evenodd"/><path fill="#ffab40" stroke="#ffab40" stroke-width="2.0" stroke-linecap="butt" d="m181.57843 254.90552l3.3034668 9.076202l3.3034515 -9.076202z" fill-rule="evenodd"/><path fill="#000000" fill-opacity="0.0" d="m184.8819 432.7047l0 25.000763l-161.79791 0l0 -334.58868l161.8609 0l0 10.249344" fill-rule="evenodd"/><path stroke="#ffab40" stroke-width="2.0" stroke-linejoin="round" stroke-linecap="butt" d="m184.8819 432.7047l0 25.000763l-161.79791 0l0 -334.58868l155.61984 0" fill-rule="evenodd"/><path fill="#ffab40" stroke="#ffab40" stroke-width="2.0" stroke-linecap="butt" d="m175.8823 124.83488l7.5419464 6.034004l-1.89888 -9.470184z" fill-rule="evenodd"/><path fill="#000000" fill-opacity="0.0" d="m184.8819 294.43307l0 26.425201" fill-rule="evenodd"/><path stroke="#ffab40" stroke-width="2.0" stroke-linejoin="round" stroke-linecap="butt" d="m184.8819 294.43307l0 14.425201" fill-rule="evenodd"/><path fill="#ffab40" stroke="#ffab40" stroke-width="2.0" stroke-linecap="butt" d="m181.57843 308.85828l3.3034668 9.076172l3.3034515 -9.076172z" fill-rule="evenodd"/></g></svg>