<svg version="1.1" viewBox="0.0 0.0 239.58530183727035 248.2755905511811" fill="none" stroke="none" stroke-linecap="square" stroke-miterlimit="10" xmlns:xlink="http://www.w3.org/1999/xlink" xmlns="http://www.w3.org/2000/svg"><clipPath id="p.0"><path d="m0 0l239.5853 0l0 248.27559l-239.5853 0l0 -248.27559z" clip-rule="nonzero"/></clipPath><g clip-path="url(#p.0)"><path fill="#000000" fill-opacity="0.0" d="m0 0l239.5853 0l0 248.27559l-239.5853 0z" fill-rule="evenodd"/><path fill="#000000" fill-opacity="0.0" d="m11.23622 53.994865l0 0c0 -3.2210007 2.6111374 -5.8321342 5.832137 -5.8321342l193.40659 0c1.5467834 0 3.0302124 0.61445236 4.123947 1.7081909c1.0937347 1.0937386 1.7081909 2.5771675 1.7081909 4.1239433l0 23.32785c0 3.2210007 -2.6111298 5.832138 -5.832138 5.832138l-193.40659 0c-3.2209997 0 -5.832137 -2.6111374 -5.832137 -5.832138z" fill-rule="evenodd"/><path stroke="#ffab40" stroke-width="2.0" stroke-linejoin="round" stroke-linecap="butt" d="m11.23622 53.994865l0 0c0 -3.2210007 2.6111374 -5.8321342 5.832137 -5.8321342l193.40659 0c1.5467834 0 3.0302124 0.61445236 4.123947 1.7081909c1.0937347 1.0937386 1.7081909 2.5771675 1.7081909 4.1239433l0 23.32785c0 3.2210007 -2.6111298 5.832138 -5.832138 5.832138l-193.40659 0c-3.2209997 0 -5.832137 -2.6111374 -5.832137 -5.832138z" fill-rule="evenodd"/><path fill="#000000" d="m35.427902 71.51879l0 -11.625l1.015625 0l0 6.0q0.34375 -0.375 0.90625 -1.0q0.5625 -0.625 1.75 -1.9375q1.1875 -1.3125 1.984375 -2.1875l0.78125 -0.875l1.328125 0l-4.859375 5.234375l5.25 6.390625l-1.265625 0l-4.75 -5.78125l-1.125 1.0625l0 4.71875l-1.015625 0zm12.296875 0l-4.203125 -11.625l1.125 0l2.640625 7.484375q0.15625 0.515625 0.34375 1.0625q0.1875 0.53125 0.328125 0.96875q0.140625 0.4375 0.296875 1.03125q0.046875 -0.28125 0.15625 -0.609375q0.109375 -0.328125 0.34375 -1.046875q0.25 -0.71875 0.484375 -1.453125q0.578125 -1.8125 1.359375 -3.828125q0.796875 -2.015625 1.3125 -3.609375l1.125 0l-4.25 11.625l-1.0625 0zm13.484375 -0.890625l-7.453125 -3.640625l0 -0.609375l7.46875 -3.90625l0 0.984375l-6.296875 3.203125l6.28125 2.984375l0 0.984375zm4.6015625 0.890625l0 -10.765625l-3.65625 0l0 -0.859375l8.328125 0l0 0.859375l-3.65625 0l0 10.765625l-1.015625 0zm5.984375 0l0 -8.5625l0.984375 0l0 8.5625l-0.984375 0zm0 -10.3125l0 -1.3125l0.96875 0l0 1.3125l-0.96875 0zm3.3984375 10.3125q-0.015625 -7.765625 -0.015625 -8.5625l0.84375 0l0.125 1.3125q0.375 -0.640625 1.109375 -1.046875q0.75 -0.421875 1.59375 -0.421875q2.046875 0 2.578125 1.609375q0.90625 -1.609375 2.875 -1.609375q1.40625 0 2.0625 0.796875q0.671875 0.796875 0.671875 2.390625l0 5.53125l-0.96875 0l0 -4.1875q0 -0.59375 -0.015625 -0.984375q-0.015625 -0.40625 -0.078125 -0.875q-0.0625 -0.46875 -0.1875 -0.765625q-0.109375 -0.296875 -0.3125 -0.5625q-0.1875 -0.265625 -0.5 -0.390625q-0.296875 -0.125 -0.71875 -0.125q-0.984375 0 -1.671875 0.578125q-0.671875 0.578125 -0.9375 1.640625q0.015625 0.796875 0.03125 1.234375l0 4.4375l-0.953125 0l0 -4.359375q0 -0.671875 -0.046875 -1.15625q-0.03125 -0.484375 -0.15625 -0.953125q-0.109375 -0.46875 -0.3125 -0.765625q-0.203125 -0.296875 -0.53125 -0.46875q-0.328125 -0.1875 -0.796875 -0.1875q-1.0625 0 -1.78125 0.5625q-0.703125 0.5625 -0.921875 1.546875q-0.015625 0.3125 -0.015625 0.90625l0 4.875l-0.96875 0zm17.554688 0.1875q-1.78125 0 -2.828125 -1.1875q-1.03125 -1.1875 -1.03125 -3.21875q0 -1.96875 1.015625 -3.21875q1.015625 -1.25 2.640625 -1.28125q1.5 0 2.40625 1.078125q0.921875 1.078125 0.921875 2.890625q0 0.0625 0 0.28125q0 0.21875 0 0.296875l-5.96875 0q0.015625 1.65625 0.796875 2.625q0.78125 0.953125 2.0625 0.953125q0.84375 0 1.453125 -0.1875q0.625 -0.203125 1.296875 -0.5625l0.15625 0.734375q-1.296875 0.796875 -2.921875 0.796875zm-2.796875 -5.140625l4.875 0q0 -1.421875 -0.625 -2.1875q-0.609375 -0.765625 -1.6875 -0.765625q-1.09375 0 -1.765625 0.8125q-0.671875 0.8125 -0.796875 2.140625zm10.3671875 5.15625q-0.828125 0 -1.5625 -0.203125q-0.71875 -0.21875 -1.140625 -0.5l0.140625 -0.8125q1.28125 0.671875 2.46875 0.671875q2.109375 0 2.1875 -1.5625q0 -0.65625 -0.421875 -1.03125q-0.421875 -0.375 -1.703125 -0.78125q-0.671875 -0.234375 -0.75 -0.265625q-2.0 -0.609375 -2.015625 -2.15625q0 -0.90625 0.78125 -1.59375q0.796875 -0.6875 2.140625 -0.6875q1.359375 0 2.546875 0.53125l-0.328125 0.71875q-1.203125 -0.453125 -2.234375 -0.453125q-0.90625 0 -1.421875 0.40625q-0.515625 0.40625 -0.515625 1.09375q0 0.578125 0.328125 0.890625q0.34375 0.296875 1.359375 0.578125q0.109375 0.03125 0.390625 0.140625q0.296875 0.109375 0.328125 0.125q1.359375 0.40625 1.890625 0.984375q0.53125 0.5625 0.53125 1.53125q-0.015625 1.125 -0.84375 1.75q-0.8125 0.625 -2.15625 0.625zm7.28125 -0.015625q-1.078125 0 -1.578125 -0.484375q-0.5 -0.5 -0.5 -1.609375l0 -5.953125l-1.203125 0l0.0625 -0.578125l1.15625 -0.109375l0.265625 -1.96875l0.671875 -0.046875l0 2.0l2.5 0l0 0.703125l-2.5 0l0 5.75q0 0.90625 0.296875 1.21875q0.296875 0.3125 1.046875 0.3125q0.484375 0 1.203125 -0.1875l0.046875 0.75q-0.953125 0.203125 -1.46875 0.203125zm5.15625 0q-1.203125 0 -1.9375 -0.609375q-0.71875 -0.609375 -0.71875 -1.75q0 -0.671875 0.28125 -1.15625q0.296875 -0.5 0.84375 -0.8125q0.546875 -0.3125 1.25 -0.484375q0.71875 -0.171875 1.65625 -0.234375q1.0 -0.0625 1.484375 -0.109375l0 -0.953125q0 -0.984375 -0.453125 -1.46875q-0.453125 -0.5 -1.4375 -0.5q-1.359375 0 -2.546875 0.640625q-0.03125 -0.078125 -0.140625 -0.328125q-0.109375 -0.265625 -0.15625 -0.40625q0.484375 -0.3125 1.265625 -0.515625q0.78125 -0.21875 1.53125 -0.21875q1.53125 0 2.203125 0.65625q0.671875 0.65625 0.671875 2.34375l0 5.71875l-0.75 0q-0.046875 -0.1875 -0.125 -0.71875q-0.0625 -0.53125 -0.0625 -0.546875q-1.015625 1.453125 -2.859375 1.453125zm0.03125 -0.78125q1.0 0 1.78125 -0.578125q0.78125 -0.59375 1.015625 -1.640625l0 -1.46875q-1.125 0.09375 -1.125 0.09375q-1.90625 0.171875 -2.65625 0.625q-0.734375 0.453125 -0.734375 1.40625q0 0.78125 0.46875 1.171875q0.46875 0.390625 1.25 0.390625zm6.1171875 0.59375q-0.015625 -7.765625 -0.015625 -8.5625l0.84375 0l0.125 1.3125q0.375 -0.640625 1.109375 -1.046875q0.75 -0.421875 1.59375 -0.421875q2.046875 0 2.578125 1.609375q0.90625 -1.609375 2.875 -1.609375q1.40625 0 2.0625 0.796875q0.671875 0.796875 0.671875 2.390625l0 5.53125l-0.96875 0l0 -4.1875q0 -0.59375 -0.015625 -0.984375q-0.015625 -0.40625 -0.078125 -0.875q-0.0625 -0.46875 -0.1875 -0.765625q-0.109375 -0.296875 -0.3125 -0.5625q-0.1875 -0.265625 -0.5 -0.390625q-0.296875 -0.125 -0.71875 -0.125q-0.984375 0 -1.671875 0.578125q-0.671875 0.578125 -0.9375 1.640625q0.015625 0.796875 0.03125 1.234375l0 4.4375l-0.953125 0l0 -4.359375q0 -0.671875 -0.046875 -1.15625q-0.03125 -0.484375 -0.15625 -0.953125q-0.109375 -0.46875 -0.3125 -0.765625q-0.203125 -0.296875 -0.53125 -0.46875q-0.328125 -0.1875 -0.796875 -0.1875q-1.0625 0 -1.78125 0.5625q-0.703125 0.5625 -0.921875 1.546875q-0.015625 0.3125 -0.015625 0.90625l0 4.875l-0.96875 0zm14.0859375 3.8125l0 -12.375l0.859375 0l0.09375 1.21875q0.59375 -0.6875 1.21875 -1.03125q0.625 -0.34375 1.453125 -0.34375q1.828125 0 2.734375 1.21875q0.90625 1.203125 0.90625 3.3125q0 1.921875 -0.96875 3.15625q-0.953125 1.21875 -2.59375 1.21875q-0.84375 0 -1.59375 -0.390625q-0.75 -0.40625 -1.1875 -1.0625q0.046875 0.96875 0.046875 1.90625l0 3.109375l-0.96875 0.0625zm3.640625 -4.421875q0.671875 0 1.1875 -0.3125q0.515625 -0.328125 0.8125 -0.859375q0.3125 -0.53125 0.453125 -1.15625q0.15625 -0.640625 0.15625 -1.3125q0 -0.6875 -0.15625 -1.3125q-0.140625 -0.625 -0.4375 -1.15625q-0.296875 -0.546875 -0.828125 -0.859375q-0.515625 -0.328125 -1.1875 -0.328125q-0.734375 0 -1.265625 0.265625q-0.515625 0.265625 -0.828125 0.75q-0.3125 0.484375 -0.453125 1.109375q-0.140625 0.609375 -0.140625 1.375q0 0.890625 0.125 1.5625q0.140625 0.65625 0.4375 1.1875q0.3125 0.515625 0.84375 0.78125q0.53125 0.265625 1.28125 0.265625zm5.3984375 2.765625l0.625 -4.0l1.015625 0l0 0.328125q-0.328125 1.390625 -1.078125 3.671875l-0.5625 0zm4.34375 -2.15625l0 -11.625l6.484375 0l-0.046875 0.828125l-5.4375 0l0 4.375l5.171875 0l0 0.84375l-5.171875 0l0 4.734375l5.609375 0l-0.078125 0.84375l-6.53125 0zm10.78125 0l-3.265625 -8.5625l1.03125 0l1.984375 5.390625q0.15625 0.515625 0.375 1.09375q0.21875 0.5625 0.34375 0.890625l0.140625 0.3125q0.140625 -0.5 0.375 -1.0625q0.25 -0.578125 0.4375 -1.203125q0.21875 -0.671875 0.765625 -2.03125q0.5625 -1.359375 1.21875 -3.390625l1.03125 0l-3.3125 8.5625l-1.125 0zm9.0703125 0.1875q-1.78125 0 -2.828125 -1.1875q-1.03125 -1.1875 -1.03125 -3.21875q0 -1.96875 1.015625 -3.21875q1.015625 -1.25 2.640625 -1.28125q1.5 0 2.40625 1.078125q0.921875 1.078125 0.921875 2.890625q0 0.0625 0 0.28125q0 0.21875 0 0.296875l-5.96875 0q0.015625 1.65625 0.796875 2.625q0.78125 0.953125 2.0625 0.953125q0.84375 0 1.453125 -0.1875q0.625 -0.203125 1.296875 -0.5625l0.15625 0.734375q-1.296875 0.796875 -2.921875 0.796875zm-2.796875 -5.140625l4.875 0q0 -1.421875 -0.625 -2.1875q-0.609375 -0.765625 -1.6875 -0.765625q-1.09375 0 -1.765625 0.8125q-0.671875 0.8125 -0.796875 2.140625zm7.8671875 4.953125l0 -8.5625l0.84375 0l0.125 1.3125q0.46875 -0.6875 1.234375 -1.078125q0.78125 -0.390625 1.6875 -0.390625q1.46875 0 2.15625 0.8125q0.703125 0.8125 0.703125 2.59375l0 5.3125l-0.96875 0l0 -5.75q-0.046875 -1.140625 -0.5 -1.640625q-0.4375 -0.5 -1.453125 -0.5q-1.15625 0 -1.90625 0.59375q-0.734375 0.578125 -0.921875 1.5q-0.03125 0.375 -0.03125 0.765625l0 5.03125l-0.96875 0zm11.40625 0.1875q-1.078125 0 -1.578125 -0.484375q-0.5 -0.5 -0.5 -1.609375l0 -5.953125l-1.203125 0l0.0625 -0.578125l1.15625 -0.109375l0.265625 -1.96875l0.671875 -0.046875l0 2.0l2.5 0l0 0.703125l-2.5 0l0 5.75q0 0.90625 0.296875 1.21875q0.296875 0.3125 1.046875 0.3125q0.484375 0 1.203125 -0.1875l0.046875 0.75q-0.953125 0.203125 -1.46875 0.203125zm2.609375 -1.140625l0 -1.0l6.296875 -2.90625l-6.28125 -3.28125l0 -0.96875l7.453125 3.984375l0 0.609375l-7.46875 3.5625z" fill-rule="nonzero"/><path fill="#000000" fill-opacity="0.0" d="m54.29134 127.1931l0 0c0 -5.0155945 4.0659447 -9.081543 9.081547 -9.081543l100.79754 0c2.4085693 0 4.718506 0.95680237 6.4216156 2.6599197c1.703125 1.703125 2.6599274 4.013054 2.6599274 6.421623l0 36.325104c0 5.0155945 -4.0659485 9.081543 -9.081543 9.081543l-100.79754 0c-5.015602 0 -9.081547 -4.0659485 -9.081547 -9.081543z" fill-rule="evenodd"/><path stroke="#ffab40" stroke-width="2.0" stroke-linejoin="round" stroke-linecap="butt" d="m54.29134 127.1931l0 0c0 -5.0155945 4.0659447 -9.081543 9.081547 -9.081543l100.79754 0c2.4085693 0 4.718506 0.95680237 6.4216156 2.6599197c1.703125 1.703125 2.6599274 4.013054 2.6599274 6.421623l0 36.325104c0 5.0155945 -4.0659485 9.081543 -9.081543 9.081543l-100.79754 0c-5.015602 0 -9.081547 -4.0659485 -9.081547 -9.081543z" fill-rule="evenodd"/><path fill="#000000" d="m76.611496 141.90315q-1.0625 0 -1.96875 -0.296875q-0.890625 -0.3125 -1.546875 -0.84375q-0.640625 -0.546875 -1.09375 -1.296875q-0.4375 -0.75 -0.671875 -1.640625q-0.21875 -0.890625 -0.21875 -1.890625q0 -1.765625 0.65625 -3.109375q0.65625 -1.359375 1.953125 -2.140625q1.3125 -0.796875 3.09375 -0.796875q1.953125 0 3.46875 0.890625l-0.453125 0.8125q-0.640625 -0.390625 -1.453125 -0.625q-0.796875 -0.25 -1.5625 -0.25q-1.140625 0 -2.03125 0.40625q-0.890625 0.40625 -1.453125 1.125q-0.546875 0.71875 -0.84375 1.65625q-0.28125 0.921875 -0.28125 2.015625q0 1.15625 0.28125 2.09375q0.296875 0.9375 0.875 1.625q0.578125 0.6875 1.484375 1.0625q0.90625 0.359375 2.09375 0.359375q1.234375 0 2.703125 -0.578125l0 -3.71875l-2.875 0l0.0625 -0.875l3.75 0l0 5.125q-0.953125 0.5 -1.859375 0.703125q-0.890625 0.1875 -2.109375 0.1875zm6.2265625 -0.1875q-0.015625 -7.546875 -0.015625 -8.5625l0.796875 0l0.0625 1.6875q0.453125 -0.765625 1.15625 -1.25q0.71875 -0.484375 1.5 -0.484375q0.3125 0 0.6875 0.046875l-0.078125 0.8125q-0.28125 -0.046875 -0.59375 -0.046875q-1.078125 0 -1.828125 0.859375q-0.734375 0.84375 -0.734375 2.015625l0 4.921875l-0.953125 0zm8.96875 -0.59375q0.9375 0 1.578125 -0.484375q0.640625 -0.5 0.9375 -1.3125q0.296875 -0.8125 0.296875 -1.875q0 -1.65625 -0.703125 -2.65625q-0.703125 -1.015625 -2.140625 -1.015625q-0.9375 0 -1.609375 0.515625q-0.65625 0.5 -0.96875 1.3125q-0.296875 0.8125 -0.296875 1.875q0 1.59375 0.75 2.625q0.75 1.015625 2.15625 1.015625zm-0.078125 0.78125q-1.15625 0 -2.046875 -0.578125q-0.890625 -0.59375 -1.359375 -1.59375q-0.453125 -1.015625 -0.453125 -2.28125q0 -0.953125 0.265625 -1.765625q0.265625 -0.8125 0.765625 -1.40625q0.5 -0.609375 1.234375 -0.9375q0.75 -0.34375 1.65625 -0.34375q1.203125 0 2.078125 0.59375q0.890625 0.578125 1.328125 1.578125q0.453125 1.0 0.453125 2.265625q0 1.28125 -0.453125 2.28125q-0.453125 1.0 -1.359375 1.59375q-0.890625 0.59375 -2.109375 0.59375zm9.015625 0.03125q-0.671875 0 -1.25 -0.15625q-0.578125 -0.15625 -1.078125 -0.484375q-0.484375 -0.328125 -0.765625 -0.921875q-0.28125 -0.59375 -0.28125 -1.390625l0 -5.828125l0.96875 0l0 5.84375q0 0.609375 0.1875 1.03125q0.1875 0.421875 0.53125 0.640625q0.359375 0.21875 0.75 0.3125q0.40625 0.078125 0.9375 0.078125q0.515625 0 0.90625 -0.09375q0.40625 -0.09375 0.75 -0.3125q0.34375 -0.21875 0.53125 -0.625q0.1875 -0.421875 0.1875 -1.03125l0 -5.84375l0.96875 0l0 5.828125q0 0.65625 -0.1875 1.171875q-0.1875 0.515625 -0.5 0.84375q-0.3125 0.328125 -0.765625 0.546875q-0.4375 0.21875 -0.90625 0.296875q-0.453125 0.09375 -0.984375 0.09375zm5.453125 3.59375l0 -12.375l0.859375 0l0.09375 1.21875q0.59375 -0.6875 1.21875 -1.03125q0.625 -0.34375 1.453125 -0.34375q1.828125 0 2.734375 1.21875q0.90625 1.203125 0.90625 3.3125q0 1.921875 -0.96875 3.15625q-0.953125 1.21875 -2.59375 1.21875q-0.84375 0 -1.59375 -0.390625q-0.75 -0.40625 -1.1875 -1.0625q0.046875 0.96875 0.046875 1.90625l0 3.109375l-0.96875 0.0625zm3.640625 -4.421875q0.671875 0 1.1875 -0.3125q0.515625 -0.328125 0.8125 -0.859375q0.3125 -0.53125 0.453125 -1.15625q0.15625 -0.640625 0.15625 -1.3125q0 -0.6875 -0.15625 -1.3125q-0.140625 -0.625 -0.4375 -1.15625q-0.296875 -0.546875 -0.828125 -0.859375q-0.515625 -0.328125 -1.1875 -0.328125q-0.734375 0 -1.265625 0.265625q-0.515625 0.265625 -0.828125 0.75q-0.3125 0.484375 -0.453125 1.109375q-0.140625 0.609375 -0.140625 1.375q0 0.890625 0.125 1.5625q0.140625 0.65625 0.4375 1.1875q0.3125 0.515625 0.84375 0.78125q0.53125 0.265625 1.28125 0.265625zm5.8046875 0.609375l0 -11.625l3.171875 0q2.171875 0 3.15625 0.71875q1.0 0.71875 1.0 2.1875q0 0.171875 0 0.265625q0 0.078125 -0.03125 0.328125q-0.03125 0.25 -0.109375 0.421875q-0.0625 0.171875 -0.203125 0.4375q-0.140625 0.25 -0.34375 0.4375q-0.1875 0.1875 -0.515625 0.375q-0.3125 0.1875 -0.71875 0.3125q1.21875 0.1875 1.859375 0.984375q0.65625 0.796875 0.65625 1.875q0 1.546875 -0.984375 2.421875q-0.96875 0.859375 -3.0 0.859375l-3.9375 0zm1.0 -0.78125l2.6875 0q3.15625 0 3.15625 -2.5q0 -1.34375 -0.875 -1.875q-0.875 -0.53125 -2.734375 -0.53125l-2.234375 0l0 4.90625zm0 -5.671875l2.671875 0q0.609375 0 1.046875 -0.09375q0.453125 -0.09375 0.8125 -0.328125q0.375 -0.234375 0.546875 -0.671875q0.1875 -0.453125 0.1875 -1.109375q0 -1.21875 -0.75 -1.6875q-0.75 -0.46875 -2.390625 -0.46875l-2.125 0l0 4.359375zm8.2265625 10.515625q-0.328125 0 -0.65625 -0.0625l-0.078125 -0.796875q0.03125 0 0.234375 0.015625q0.203125 0.015625 0.3125 0.015625q0.984375 0 1.46875 -0.34375q0.5 -0.328125 0.875 -1.3125q0.046875 -0.125 0.25 -0.671875q0.203125 -0.53125 0.3125 -0.84375l-3.421875 -8.625l1.015625 0l2.90625 7.703125q0 0 0.359375 -1.078125q2.140625 -6.71875 2.203125 -6.703125q0 0 -0.015625 0.078125l1.015625 0q-3.421875 9.625 -3.578125 10.0625q-0.53125 1.296875 -1.265625 1.921875q-0.71875 0.640625 -1.9375 0.640625zm8.3203125 -4.0625l0 -11.625l1.015625 0l0 6.0q0.34375 -0.375 0.90625 -1.0q0.5625 -0.625 1.75 -1.9375q1.1875 -1.3125 1.984375 -2.1875l0.78125 -0.875l1.328125 0l-4.859375 5.234375l5.25 6.390625l-1.265625 0l-4.75 -5.78125l-1.125 1.0625l0 4.71875l-1.015625 0zm12.5859375 0.1875q-1.78125 0 -2.828125 -1.1875q-1.03125 -1.1875 -1.03125 -3.21875q0 -1.96875 1.015625 -3.21875q1.015625 -1.25 2.640625 -1.28125q1.5 0 2.40625 1.078125q0.921875 1.078125 0.921875 2.890625q0 0.0625 0 0.28125q0 0.21875 0 0.296875l-5.96875 0q0.015625 1.65625 0.796875 2.625q0.78125 0.953125 2.0625 0.953125q0.84375 0 1.453125 -0.1875q0.625 -0.203125 1.296875 -0.5625l0.15625 0.734375q-1.296875 0.796875 -2.921875 0.796875zm-2.796875 -5.140625l4.875 0q0 -1.421875 -0.625 -2.1875q-0.609375 -0.765625 -1.6875 -0.765625q-1.09375 0 -1.765625 0.8125q-0.671875 0.8125 -0.796875 2.140625zm7.4765625 9.015625q-0.328125 0 -0.65625 -0.0625l-0.078125 -0.796875q0.03125 0 0.234375 0.015625q0.203125 0.015625 0.3125 0.015625q0.984375 0 1.46875 -0.34375q0.5 -0.328125 0.875 -1.3125q0.046875 -0.125 0.25 -0.671875q0.203125 -0.53125 0.3125 -0.84375l-3.421875 -8.625l1.015625 0l2.90625 7.703125q0 0 0.359375 -1.078125q2.140625 -6.71875 2.203125 -6.703125q0 0 -0.015625 0.078125l1.015625 0q-3.421875 9.625 -3.578125 10.0625q-0.53125 1.296875 -1.265625 1.921875q-0.71875 0.640625 -1.9375 0.640625z" fill-rule="nonzero"/><path fill="#000000" d="m78.029465 160.71565l0 -10.765625l-3.65625 0l0 -0.859375l8.328125 0l0 0.859375l-3.65625 0l0 10.765625l-1.015625 0zm5.984375 0l0 -8.5625l0.984375 0l0 8.5625l-0.984375 0zm0 -10.3125l0 -1.3125l0.96875 0l0 1.3125l-0.96875 0zm3.3984375 10.3125q-0.015625 -7.765625 -0.015625 -8.5625l0.84375 0l0.125 1.3125q0.375 -0.640625 1.109375 -1.046875q0.75 -0.421875 1.59375 -0.421875q2.046875 0 2.578125 1.609375q0.90625 -1.609375 2.875 -1.609375q1.40625 0 2.0625 0.796875q0.671875 0.796875 0.671875 2.390625l0 5.53125l-0.96875 0l0 -4.1875q0 -0.59375 -0.015625 -0.984375q-0.015625 -0.40625 -0.078125 -0.875q-0.0625 -0.46875 -0.1875 -0.765625q-0.109375 -0.296875 -0.3125 -0.5625q-0.1875 -0.265625 -0.5 -0.390625q-0.296875 -0.125 -0.71875 -0.125q-0.984375 0 -1.671875 0.578125q-0.671875 0.578125 -0.9375 1.640625q0.015625 0.796875 0.03125 1.234375l0 4.4375l-0.953125 0l0 -4.359375q0 -0.671875 -0.046875 -1.15625q-0.03125 -0.484375 -0.15625 -0.953125q-0.109375 -0.46875 -0.3125 -0.765625q-0.203125 -0.296875 -0.53125 -0.46875q-0.328125 -0.1875 -0.796875 -0.1875q-1.0625 0 -1.78125 0.5625q-0.703125 0.5625 -0.921875 1.546875q-0.015625 0.3125 -0.015625 0.90625l0 4.875l-0.96875 0zm17.554688 0.1875q-1.78125 0 -2.828125 -1.1875q-1.03125 -1.1875 -1.03125 -3.21875q0 -1.96875 1.015625 -3.21875q1.015625 -1.25 2.640625 -1.28125q1.5 0 2.40625 1.078125q0.921875 1.078125 0.921875 2.890625q0 0.0625 0 0.28125q0 0.21875 0 0.296875l-5.96875 0q0.015625 1.65625 0.796875 2.625q0.78125 0.953125 2.0625 0.953125q0.84375 0 1.453125 -0.1875q0.625 -0.203125 1.296875 -0.5625l0.15625 0.734375q-1.296875 0.796875 -2.921875 0.796875zm-2.796875 -5.140625l4.875 0q0 -1.421875 -0.625 -2.1875q-0.609375 -0.765625 -1.6875 -0.765625q-1.09375 0 -1.765625 0.8125q-0.671875 0.8125 -0.796875 2.140625zm10.3671875 5.15625q-0.828125 0 -1.5625 -0.203125q-0.71875 -0.21875 -1.140625 -0.5l0.140625 -0.8125q1.28125 0.671875 2.46875 0.671875q2.109375 0 2.1875 -1.5625q0 -0.65625 -0.421875 -1.03125q-0.421875 -0.375 -1.703125 -0.78125q-0.671875 -0.234375 -0.75 -0.265625q-2.0 -0.609375 -2.015625 -2.15625q0 -0.90625 0.78125 -1.59375q0.796875 -0.6875 2.140625 -0.6875q1.359375 0 2.546875 0.53125l-0.328125 0.71875q-1.203125 -0.453125 -2.234375 -0.453125q-0.90625 0 -1.421875 0.40625q-0.515625 0.40625 -0.515625 1.09375q0 0.578125 0.328125 0.890625q0.34375 0.296875 1.359375 0.578125q0.109375 0.03125 0.390625 0.140625q0.296875 0.109375 0.328125 0.125q1.359375 0.40625 1.890625 0.984375q0.53125 0.5625 0.53125 1.53125q-0.015625 1.125 -0.84375 1.75q-0.8125 0.625 -2.15625 0.625zm7.28125 -0.015625q-1.078125 0 -1.578125 -0.484375q-0.5 -0.5 -0.5 -1.609375l0 -5.953125l-1.203125 0l0.0625 -0.578125l1.15625 -0.109375l0.265625 -1.96875l0.671875 -0.046875l0 2.0l2.5 0l0 0.703125l-2.5 0l0 5.75q0 0.90625 0.296875 1.21875q0.296875 0.3125 1.046875 0.3125q0.484375 0 1.203125 -0.1875l0.046875 0.75q-0.953125 0.203125 -1.46875 0.203125zm5.15625 0q-1.203125 0 -1.9375 -0.609375q-0.71875 -0.609375 -0.71875 -1.75q0 -0.671875 0.28125 -1.15625q0.296875 -0.5 0.84375 -0.8125q0.546875 -0.3125 1.25 -0.484375q0.71875 -0.171875 1.65625 -0.234375q1.0 -0.0625 1.484375 -0.109375l0 -0.953125q0 -0.984375 -0.453125 -1.46875q-0.453125 -0.5 -1.4375 -0.5q-1.359375 0 -2.546875 0.640625q-0.03125 -0.078125 -0.140625 -0.328125q-0.109375 -0.265625 -0.15625 -0.40625q0.484375 -0.3125 1.265625 -0.515625q0.78125 -0.21875 1.53125 -0.21875q1.53125 0 2.203125 0.65625q0.671875 0.65625 0.671875 2.34375l0 5.71875l-0.75 0q-0.046875 -0.1875 -0.125 -0.71875q-0.0625 -0.53125 -0.0625 -0.546875q-1.015625 1.453125 -2.859375 1.453125zm0.03125 -0.78125q1.0 0 1.78125 -0.578125q0.78125 -0.59375 1.015625 -1.640625l0 -1.46875q-1.125 0.09375 -1.125 0.09375q-1.90625 0.171875 -2.65625 0.625q-0.734375 0.453125 -0.734375 1.40625q0 0.78125 0.46875 1.171875q0.46875 0.390625 1.25 0.390625zm6.1171875 0.59375q-0.015625 -7.765625 -0.015625 -8.5625l0.84375 0l0.125 1.3125q0.375 -0.640625 1.109375 -1.046875q0.75 -0.421875 1.59375 -0.421875q2.046875 0 2.578125 1.609375q0.90625 -1.609375 2.875 -1.609375q1.40625 0 2.0625 0.796875q0.671875 0.796875 0.671875 2.390625l0 5.53125l-0.96875 0l0 -4.1875q0 -0.59375 -0.015625 -0.984375q-0.015625 -0.40625 -0.078125 -0.875q-0.0625 -0.46875 -0.1875 -0.765625q-0.109375 -0.296875 -0.3125 -0.5625q-0.1875 -0.265625 -0.5 -0.390625q-0.296875 -0.125 -0.71875 -0.125q-0.984375 0 -1.671875 0.578125q-0.671875 0.578125 -0.9375 1.640625q0.015625 0.796875 0.03125 1.234375l0 4.4375l-0.953125 0l0 -4.359375q0 -0.671875 -0.046875 -1.15625q-0.03125 -0.484375 -0.15625 -0.953125q-0.109375 -0.46875 -0.3125 -0.765625q-0.203125 -0.296875 -0.53125 -0.46875q-0.328125 -0.1875 -0.796875 -0.1875q-1.0625 0 -1.78125 0.5625q-0.703125 0.5625 -0.921875 1.546875q-0.015625 0.3125 -0.015625 0.90625l0 4.875l-0.96875 0zm14.0859375 3.8125l0 -12.375l0.859375 0l0.09375 1.21875q0.59375 -0.6875 1.21875 -1.03125q0.625 -0.34375 1.453125 -0.34375q1.828125 0 2.734375 1.21875q0.90625 1.203125 0.90625 3.3125q0 1.921875 -0.96875 3.15625q-0.953125 1.21875 -2.59375 1.21875q-0.84375 0 -1.59375 -0.390625q-0.75 -0.40625 -1.1875 -1.0625q0.046875 0.96875 0.046875 1.90625l0 3.109375l-0.96875 0.0625zm3.640625 -4.421875q0.671875 0 1.1875 -0.3125q0.515625 -0.328125 0.8125 -0.859375q0.3125 -0.53125 0.453125 -1.15625q0.15625 -0.640625 0.15625 -1.3125q0 -0.6875 -0.15625 -1.3125q-0.140625 -0.625 -0.4375 -1.15625q-0.296875 -0.546875 -0.828125 -0.859375q-0.515625 -0.328125 -1.1875 -0.328125q-0.734375 0 -1.265625 0.265625q-0.515625 0.265625 -0.828125 0.75q-0.3125 0.484375 -0.453125 1.109375q-0.140625 0.609375 -0.140625 1.375q0 0.890625 0.125 1.5625q0.140625 0.65625 0.4375 1.1875q0.3125 0.515625 0.84375 0.78125q0.53125 0.265625 1.28125 0.265625z" fill-rule="nonzero"/><path fill="#fce5cd" d="m59.998688 172.60231l107.54593 0l0 31.02362l-53.772964 7.7559204l-53.772964 -7.7559204z" fill-rule="evenodd"/><path stroke="#ffab40" stroke-width="1.0" stroke-linejoin="round" stroke-linecap="butt" d="m59.998688 172.60231l107.54593 0l0 31.02362l-53.772964 7.7559204l-53.772964 -7.7559204z" fill-rule="evenodd"/><path fill="#000000" d="m69.73306 180.57413l0 -6.671875l4.828125 0l0 0.78125l-3.9375 0l0 2.046875l3.6875 0l0 0.78125l-3.6875 0l0 2.28125l4.09375 0l0 0.78125l-4.984375 0zm7.4405365 0l-1.828125 -4.84375l0.859375 0l1.03125 2.90625q0.171875 0.46875 0.3125 0.96875q0.109375 -0.375 0.3125 -0.921875l1.078125 -2.953125l0.84375 0l-1.84375 4.84375l-0.765625 0zm6.6328125 -1.5625l0.84375 0.109375q-0.1875 0.75 -0.734375 1.15625q-0.546875 0.40625 -1.390625 0.40625q-1.0625 0 -1.6875 -0.65625q-0.609375 -0.65625 -0.609375 -1.828125q0 -1.21875 0.625 -1.890625q0.625 -0.6875 1.625 -0.6875q0.984375 0 1.59375 0.671875q0.609375 0.65625 0.609375 1.859375q0 0.0625 0 0.21875l-3.609375 0q0.046875 0.796875 0.453125 1.21875q0.40625 0.421875 1.015625 0.421875q0.453125 0 0.765625 -0.234375q0.3125 -0.234375 0.5 -0.765625zm-2.6875 -1.328125l2.703125 0q-0.0625 -0.609375 -0.3125 -0.90625q-0.390625 -0.46875 -1.015625 -0.46875q-0.5625 0 -0.953125 0.375q-0.375 0.375 -0.421875 1.0zm4.562866 2.890625l0 -4.84375l0.75 0l0 0.6875q0.53125 -0.796875 1.53125 -0.796875q0.4375 0 0.796875 0.171875q0.375 0.15625 0.546875 0.40625q0.1875 0.25 0.265625 0.609375q0.046875 0.21875 0.046875 0.796875l0 2.96875l-0.828125 0l0 -2.9375q0 -0.5 -0.09375 -0.75q-0.09375 -0.25 -0.34375 -0.390625q-0.234375 -0.15625 -0.5625 -0.15625q-0.515625 0 -0.90625 0.328125q-0.375 0.328125 -0.375 1.265625l0 2.640625l-0.828125 0zm6.984741 -0.734375l0.109375 0.71875q-0.34375 0.078125 -0.609375 0.078125q-0.453125 0 -0.703125 -0.140625q-0.234375 -0.140625 -0.34375 -0.359375q-0.09375 -0.234375 -0.09375 -0.984375l0 -2.78125l-0.609375 0l0 -0.640625l0.609375 0l0 -1.1875l0.8125 -0.5l0 1.6875l0.828125 0l0 0.640625l-0.828125 0l0 2.828125q0 0.359375 0.046875 0.46875q0.046875 0.09375 0.140625 0.15625q0.09375 0.046875 0.28125 0.046875q0.140625 0 0.359375 -0.03125zm0.81040955 -5.0l0 -0.9375l0.8125 0l0 0.9375l-0.8125 0zm0 5.734375l0 -4.84375l0.8125 0l0 4.84375l-0.8125 0zm4.6484528 0l0 -4.84375l0.734375 0l0 0.734375q0.28125 -0.515625 0.515625 -0.671875q0.25 -0.171875 0.53125 -0.171875q0.421875 0 0.84375 0.265625l-0.28125 0.765625q-0.296875 -0.171875 -0.609375 -0.171875q-0.265625 0 -0.484375 0.15625q-0.203125 0.15625 -0.296875 0.453125q-0.140625 0.4375 -0.140625 0.953125l0 2.53125l-0.8125 0zm6.2625885 -0.59375q-0.453125 0.390625 -0.875 0.546875q-0.421875 0.15625 -0.90625 0.15625q-0.796875 0 -1.21875 -0.390625q-0.421875 -0.390625 -0.421875 -1.0q0 -0.34375 0.15625 -0.640625q0.15625 -0.296875 0.421875 -0.46875q0.265625 -0.1875 0.59375 -0.28125q0.234375 -0.0625 0.71875 -0.109375q1.0 -0.125 1.46875 -0.28125q0 -0.171875 0 -0.21875q0 -0.5 -0.234375 -0.703125q-0.3125 -0.28125 -0.921875 -0.28125q-0.578125 0 -0.859375 0.203125q-0.28125 0.203125 -0.40625 0.71875l-0.796875 -0.109375q0.109375 -0.515625 0.359375 -0.828125q0.25 -0.328125 0.71875 -0.5q0.46875 -0.171875 1.09375 -0.171875q0.625 0 1.0 0.15625q0.390625 0.140625 0.578125 0.359375q0.1875 0.21875 0.25 0.5625q0.046875 0.203125 0.046875 0.75l0 1.09375q0 1.140625 0.046875 1.453125q0.0625 0.296875 0.21875 0.578125l-0.859375 0q-0.125 -0.25 -0.171875 -0.59375zm-0.0625 -1.828125q-0.453125 0.171875 -1.34375 0.296875q-0.5 0.078125 -0.71875 0.171875q-0.203125 0.09375 -0.3125 0.265625q-0.109375 0.171875 -0.109375 0.390625q0 0.328125 0.234375 0.546875q0.25 0.21875 0.734375 0.21875q0.46875 0 0.828125 -0.203125q0.375 -0.21875 0.5625 -0.578125q0.125 -0.265625 0.125 -0.8125l0 -0.296875zm1.9534912 2.828125l0.796875 0.109375q0.046875 0.375 0.28125 0.546875q0.296875 0.21875 0.828125 0.21875q0.5625 0 0.875 -0.234375q0.3125 -0.21875 0.421875 -0.625q0.0625 -0.25 0.0625 -1.0625q-0.546875 0.640625 -1.34375 0.640625q-1.0 0 -1.546875 -0.71875q-0.546875 -0.71875 -0.546875 -1.734375q0 -0.6875 0.25 -1.265625q0.25 -0.59375 0.71875 -0.90625q0.484375 -0.328125 1.125 -0.328125q0.859375 0 1.421875 0.703125l0 -0.59375l0.75 0l0 4.1875q0 1.125 -0.234375 1.59375q-0.21875 0.484375 -0.71875 0.75q-0.5 0.28125 -1.234375 0.28125q-0.859375 0 -1.390625 -0.390625q-0.53125 -0.390625 -0.515625 -1.171875zm0.671875 -2.90625q0 0.953125 0.375 1.390625q0.390625 0.4375 0.953125 0.4375q0.5625 0 0.9375 -0.4375q0.390625 -0.4375 0.390625 -1.375q0 -0.875 -0.390625 -1.328125q-0.390625 -0.453125 -0.953125 -0.453125q-0.546875 0 -0.9375 0.453125q-0.375 0.4375 -0.375 1.3125zm4.515991 2.90625l0.796875 0.109375q0.046875 0.375 0.28125 0.546875q0.296875 0.21875 0.828125 0.21875q0.5625 0 0.875 -0.234375q0.3125 -0.21875 0.421875 -0.625q0.0625 -0.25 0.0625 -1.0625q-0.546875 0.640625 -1.34375 0.640625q-1.0 0 -1.546875 -0.71875q-0.546875 -0.71875 -0.546875 -1.734375q0 -0.6875 0.25 -1.265625q0.25 -0.59375 0.71875 -0.90625q0.484375 -0.328125 1.125 -0.328125q0.859375 0 1.421875 0.703125l0 -0.59375l0.75 0l0 4.1875q0 1.125 -0.234375 1.59375q-0.21875 0.484375 -0.71875 0.75q-0.5 0.28125 -1.234375 0.28125q-0.859375 0 -1.390625 -0.390625q-0.53125 -0.390625 -0.515625 -1.171875zm0.671875 -2.90625q0 0.953125 0.375 1.390625q0.390625 0.4375 0.953125 0.4375q0.5625 0 0.9375 -0.4375q0.390625 -0.4375 0.390625 -1.375q0 -0.875 -0.390625 -1.328125q-0.390625 -0.453125 -0.953125 -0.453125q-0.546875 0 -0.9375 0.453125q-0.375 0.4375 -0.375 1.3125zm4.656616 2.5l0 -4.84375l0.734375 0l0 0.734375q0.28125 -0.515625 0.515625 -0.671875q0.25 -0.171875 0.53125 -0.171875q0.421875 0 0.84375 0.265625l-0.28125 0.765625q-0.296875 -0.171875 -0.609375 -0.171875q-0.265625 0 -0.484375 0.15625q-0.203125 0.15625 -0.296875 0.453125q-0.140625 0.4375 -0.140625 0.953125l0 2.53125l-0.8125 0zm6.2782135 0l0 -0.703125q-0.5625 0.8125 -1.53125 0.8125q-0.421875 0 -0.796875 -0.15625q-0.375 -0.171875 -0.5625 -0.421875q-0.171875 -0.25 -0.25 -0.609375q-0.046875 -0.234375 -0.046875 -0.765625l0 -3.0l0.828125 0l0 2.6875q0 0.640625 0.046875 0.875q0.078125 0.3125 0.328125 0.5q0.25 0.1875 0.609375 0.1875q0.375 0 0.703125 -0.1875q0.328125 -0.1875 0.453125 -0.515625q0.140625 -0.328125 0.140625 -0.953125l0 -2.59375l0.8125 0l0 4.84375l-0.734375 0zm2.0159912 1.859375l0 -6.703125l0.75 0l0 0.640625q0.265625 -0.375 0.59375 -0.5625q0.34375 -0.1875 0.8125 -0.1875q0.625 0 1.09375 0.328125q0.46875 0.3125 0.703125 0.90625q0.25 0.578125 0.25 1.265625q0 0.734375 -0.265625 1.328125q-0.265625 0.59375 -0.78125 0.921875q-0.5 0.3125 -1.0625 0.3125q-0.40625 0 -0.734375 -0.171875q-0.328125 -0.171875 -0.53125 -0.4375l0 2.359375l-0.828125 0zm0.75 -4.25q0 0.9375 0.375 1.390625q0.375 0.4375 0.921875 0.4375q0.546875 0 0.921875 -0.453125q0.390625 -0.46875 0.390625 -1.4375q0 -0.9375 -0.375 -1.390625q-0.375 -0.453125 -0.90625 -0.453125q-0.53125 0 -0.9375 0.484375q-0.390625 0.484375 -0.390625 1.421875zm4.437866 4.25l0 -6.703125l0.75 0l0 0.640625q0.265625 -0.375 0.59375 -0.5625q0.34375 -0.1875 0.8125 -0.1875q0.625 0 1.09375 0.328125q0.46875 0.3125 0.703125 0.90625q0.25 0.578125 0.25 1.265625q0 0.734375 -0.265625 1.328125q-0.265625 0.59375 -0.78125 0.921875q-0.5 0.3125 -1.0625 0.3125q-0.40625 0 -0.734375 -0.171875q-0.328125 -0.171875 -0.53125 -0.4375l0 2.359375l-0.828125 0zm0.75 -4.25q0 0.9375 0.375 1.390625q0.375 0.4375 0.921875 0.4375q0.546875 0 0.921875 -0.453125q0.390625 -0.46875 0.390625 -1.4375q0 -0.9375 -0.375 -1.390625q-0.375 -0.453125 -0.90625 -0.453125q-0.53125 0 -0.9375 0.484375q-0.390625 0.484375 -0.390625 1.421875zm7.594116 1.796875q-0.453125 0.390625 -0.875 0.546875q-0.421875 0.15625 -0.90625 0.15625q-0.796875 0 -1.21875 -0.390625q-0.421875 -0.390625 -0.421875 -1.0q0 -0.34375 0.15625 -0.640625q0.15625 -0.296875 0.421875 -0.46875q0.265625 -0.1875 0.59375 -0.28125q0.234375 -0.0625 0.71875 -0.109375q1.0 -0.125 1.46875 -0.28125q0 -0.171875 0 -0.21875q0 -0.5 -0.234375 -0.703125q-0.3125 -0.28125 -0.921875 -0.28125q-0.578125 0 -0.859375 0.203125q-0.28125 0.203125 -0.40625 0.71875l-0.796875 -0.109375q0.109375 -0.515625 0.359375 -0.828125q0.25 -0.328125 0.71875 -0.5q0.46875 -0.171875 1.09375 -0.171875q0.625 0 1.0 0.15625q0.390625 0.140625 0.578125 0.359375q0.1875 0.21875 0.25 0.5625q0.046875 0.203125 0.046875 0.75l0 1.09375q0 1.140625 0.046875 1.453125q0.0625 0.296875 0.21875 0.578125l-0.859375 0q-0.125 -0.25 -0.171875 -0.59375zm-0.0625 -1.828125q-0.453125 0.171875 -1.34375 0.296875q-0.5 0.078125 -0.71875 0.171875q-0.203125 0.09375 -0.3125 0.265625q-0.109375 0.171875 -0.109375 0.390625q0 0.328125 0.234375 0.546875q0.25 0.21875 0.734375 0.21875q0.46875 0 0.828125 -0.203125q0.375 -0.21875 0.5625 -0.578125q0.125 -0.265625 0.125 -0.8125l0 -0.296875zm3.8909912 1.6875l0.109375 0.71875q-0.34375 0.078125 -0.609375 0.078125q-0.453125 0 -0.703125 -0.140625q-0.234375 -0.140625 -0.34375 -0.359375q-0.09375 -0.234375 -0.09375 -0.984375l0 -2.78125l-0.609375 0l0 -0.640625l0.609375 0l0 -1.1875l0.8125 -0.5l0 1.6875l0.828125 0l0 0.640625l-0.828125 0l0 2.828125q0 0.359375 0.046875 0.46875q0.046875 0.09375 0.140625 0.15625q0.09375 0.046875 0.28125 0.046875q0.140625 0 0.359375 -0.03125zm0.81040955 -5.0l0 -0.9375l0.8125 0l0 0.9375l-0.8125 0zm0 5.734375l0 -4.84375l0.8125 0l0 4.84375l-0.8125 0z" fill-rule="nonzero"/><path fill="#000000" d="m69.60806 193.4335l0 -6.703125l0.75 0l0 0.640625q0.265625 -0.375 0.59375 -0.5625q0.34375 -0.1875 0.8125 -0.1875q0.625 0 1.09375 0.328125q0.46875 0.3125 0.703125 0.90625q0.25 0.578125 0.25 1.265625q0 0.734375 -0.265625 1.328125q-0.265625 0.59375 -0.78125 0.921875q-0.5 0.3125 -1.0625 0.3125q-0.40625 0 -0.734375 -0.171875q-0.328125 -0.171875 -0.53125 -0.4375l0 2.359375l-0.828125 0zm0.75 -4.25q0 0.9375 0.375 1.390625q0.375 0.4375 0.921875 0.4375q0.546875 0 0.921875 -0.453125q0.390625 -0.46875 0.390625 -1.4375q0 -0.9375 -0.375 -1.390625q-0.375 -0.453125 -0.90625 -0.453125q-0.53125 0 -0.9375 0.484375q-0.390625 0.484375 -0.390625 1.421875zm7.750366 0.828125l0.84375 0.109375q-0.1875 0.75 -0.734375 1.15625q-0.546875 0.40625 -1.390625 0.40625q-1.0625 0 -1.6875 -0.65625q-0.609375 -0.65625 -0.609375 -1.828125q0 -1.21875 0.625 -1.890625q0.625 -0.6875 1.625 -0.6875q0.984375 0 1.59375 0.671875q0.609375 0.65625 0.609375 1.859375q0 0.0625 0 0.21875l-3.609375 0q0.046875 0.796875 0.453125 1.21875q0.40625 0.421875 1.015625 0.421875q0.453125 0 0.765625 -0.234375q0.3125 -0.234375 0.5 -0.765625zm-2.6875 -1.328125l2.703125 0q-0.0625 -0.609375 -0.3125 -0.90625q-0.390625 -0.46875 -1.015625 -0.46875q-0.5625 0 -0.953125 0.375q-0.375 0.375 -0.421875 1.0zm4.562866 2.890625l0 -4.84375l0.734375 0l0 0.734375q0.28125 -0.515625 0.515625 -0.671875q0.25 -0.171875 0.53125 -0.171875q0.421875 0 0.84375 0.265625l-0.28125 0.765625q-0.296875 -0.171875 -0.609375 -0.171875q-0.265625 0 -0.484375 0.15625q-0.203125 0.15625 -0.296875 0.453125q-0.140625 0.4375 -0.140625 0.953125l0 2.53125l-0.8125 0zm7.494873 -0.734375l0.109375 0.71875q-0.34375 0.078125 -0.609375 0.078125q-0.453125 0 -0.703125 -0.140625q-0.234375 -0.140625 -0.34375 -0.359375q-0.09375 -0.234375 -0.09375 -0.984375l0 -2.78125l-0.609375 0l0 -0.640625l0.609375 0l0 -1.1875l0.8125 -0.5l0 1.6875l0.828125 0l0 0.640625l-0.828125 0l0 2.828125q0 0.359375 0.046875 0.46875q0.046875 0.09375 0.140625 0.15625q0.09375 0.046875 0.28125 0.046875q0.140625 0 0.359375 -0.03125zm0.81040955 -5.0l0 -0.9375l0.8125 0l0 0.9375l-0.8125 0zm0 5.734375l0 -4.84375l0.8125 0l0 4.84375l-0.8125 0zm2.0567932 0l0 -4.84375l0.734375 0l0 0.6875q0.234375 -0.359375 0.609375 -0.578125q0.375 -0.21875 0.859375 -0.21875q0.546875 0 0.890625 0.234375q0.34375 0.21875 0.484375 0.625q0.5625 -0.859375 1.484375 -0.859375q0.71875 0 1.109375 0.40625q0.390625 0.390625 0.390625 1.21875l0 3.328125l-0.8125 0l0 -3.046875q0 -0.484375 -0.09375 -0.703125q-0.078125 -0.21875 -0.28125 -0.34375q-0.203125 -0.140625 -0.484375 -0.140625q-0.515625 0 -0.859375 0.34375q-0.328125 0.328125 -0.328125 1.078125l0 2.8125l-0.828125 0l0 -3.140625q0 -0.546875 -0.203125 -0.8125q-0.1875 -0.28125 -0.65625 -0.28125q-0.34375 0 -0.640625 0.1875q-0.28125 0.171875 -0.421875 0.53125q-0.125 0.34375 -0.125 1.0l0 2.515625l-0.828125 0zm11.082901 -1.5625l0.84375 0.109375q-0.1875 0.75 -0.734375 1.15625q-0.546875 0.40625 -1.390625 0.40625q-1.0625 0 -1.6875 -0.65625q-0.609375 -0.65625 -0.609375 -1.828125q0 -1.21875 0.625 -1.890625q0.625 -0.6875 1.625 -0.6875q0.984375 0 1.59375 0.671875q0.609375 0.65625 0.609375 1.859375q0 0.0625 0 0.21875l-3.609375 0q0.046875 0.796875 0.453125 1.21875q0.40625 0.421875 1.015625 0.421875q0.453125 0 0.765625 -0.234375q0.3125 -0.234375 0.5 -0.765625zm-2.6875 -1.328125l2.703125 0q-0.0625 -0.609375 -0.3125 -0.90625q-0.390625 -0.46875 -1.015625 -0.46875q-0.5625 0 -0.953125 0.375q-0.375 0.375 -0.421875 1.0zm4.234741 1.453125l0.8125 -0.140625q0.078125 0.5 0.390625 0.765625q0.3125 0.25 0.859375 0.25q0.578125 0 0.84375 -0.234375q0.28125 -0.234375 0.28125 -0.53125q0 -0.28125 -0.25 -0.4375q-0.171875 -0.109375 -0.84375 -0.28125q-0.890625 -0.234375 -1.25 -0.390625q-0.34375 -0.171875 -0.53125 -0.46875q-0.171875 -0.296875 -0.171875 -0.640625q0 -0.328125 0.140625 -0.59375q0.15625 -0.28125 0.40625 -0.46875q0.203125 -0.140625 0.53125 -0.234375q0.328125 -0.109375 0.703125 -0.109375q0.578125 0 1.0 0.171875q0.4375 0.15625 0.640625 0.4375q0.203125 0.28125 0.28125 0.75l-0.796875 0.109375q-0.0625 -0.375 -0.328125 -0.578125q-0.265625 -0.203125 -0.734375 -0.203125q-0.5625 0 -0.8125 0.1875q-0.234375 0.171875 -0.234375 0.4375q0 0.15625 0.09375 0.28125q0.109375 0.125 0.3125 0.21875q0.125 0.046875 0.734375 0.203125q0.859375 0.234375 1.203125 0.390625q0.34375 0.140625 0.53125 0.421875q0.203125 0.28125 0.203125 0.703125q0 0.40625 -0.234375 0.78125q-0.234375 0.359375 -0.6875 0.5625q-0.453125 0.1875 -1.015625 0.1875q-0.953125 0 -1.453125 -0.390625q-0.484375 -0.390625 -0.625 -1.15625zm6.7890625 0.703125l0.109375 0.71875q-0.34375 0.078125 -0.609375 0.078125q-0.453125 0 -0.703125 -0.140625q-0.234375 -0.140625 -0.34375 -0.359375q-0.09375 -0.234375 -0.09375 -0.984375l0 -2.78125l-0.609375 0l0 -0.640625l0.609375 0l0 -1.1875l0.8125 -0.5l0 1.6875l0.828125 0l0 0.640625l-0.828125 0l0 2.828125q0 0.359375 0.046875 0.46875q0.046875 0.09375 0.140625 0.15625q0.09375 0.046875 0.28125 0.046875q0.140625 0 0.359375 -0.03125zm3.9510345 0.140625q-0.453125 0.390625 -0.875 0.546875q-0.421875 0.15625 -0.90625 0.15625q-0.796875 0 -1.21875 -0.390625q-0.421875 -0.390625 -0.421875 -1.0q0 -0.34375 0.15625 -0.640625q0.15625 -0.296875 0.421875 -0.46875q0.265625 -0.1875 0.59375 -0.28125q0.234375 -0.0625 0.71875 -0.109375q1.0 -0.125 1.46875 -0.28125q0 -0.171875 0 -0.21875q0 -0.5 -0.234375 -0.703125q-0.3125 -0.28125 -0.921875 -0.28125q-0.578125 0 -0.859375 0.203125q-0.28125 0.203125 -0.40625 0.71875l-0.796875 -0.109375q0.109375 -0.515625 0.359375 -0.828125q0.25 -0.328125 0.71875 -0.5q0.46875 -0.171875 1.09375 -0.171875q0.625 0 1.0 0.15625q0.390625 0.140625 0.578125 0.359375q0.1875 0.21875 0.25 0.5625q0.046875 0.203125 0.046875 0.75l0 1.09375q0 1.140625 0.046875 1.453125q0.0625 0.296875 0.21875 0.578125l-0.859375 0q-0.125 -0.25 -0.171875 -0.59375zm-0.0625 -1.828125q-0.453125 0.171875 -1.34375 0.296875q-0.5 0.078125 -0.71875 0.171875q-0.203125 0.09375 -0.3125 0.265625q-0.109375 0.171875 -0.109375 0.390625q0 0.328125 0.234375 0.546875q0.25 0.21875 0.734375 0.21875q0.46875 0 0.828125 -0.203125q0.375 -0.21875 0.5625 -0.578125q0.125 -0.265625 0.125 -0.8125l0 -0.296875zm2.0941162 2.421875l0 -4.84375l0.734375 0l0 0.6875q0.234375 -0.359375 0.609375 -0.578125q0.375 -0.21875 0.859375 -0.21875q0.546875 0 0.890625 0.234375q0.34375 0.21875 0.484375 0.625q0.5625 -0.859375 1.484375 -0.859375q0.71875 0 1.109375 0.40625q0.390625 0.390625 0.390625 1.21875l0 3.328125l-0.8125 0l0 -3.046875q0 -0.484375 -0.09375 -0.703125q-0.078125 -0.21875 -0.28125 -0.34375q-0.203125 -0.140625 -0.484375 -0.140625q-0.515625 0 -0.859375 0.34375q-0.328125 0.328125 -0.328125 1.078125l0 2.8125l-0.828125 0l0 -3.140625q0 -0.546875 -0.203125 -0.8125q-0.1875 -0.28125 -0.65625 -0.28125q-0.34375 0 -0.640625 0.1875q-0.28125 0.171875 -0.421875 0.53125q-0.125 0.34375 -0.125 1.0l0 2.515625l-0.828125 0zm7.770401 1.859375l0 -6.703125l0.75 0l0 0.640625q0.265625 -0.375 0.59375 -0.5625q0.34375 -0.1875 0.8125 -0.1875q0.625 0 1.09375 0.328125q0.46875 0.3125 0.703125 0.90625q0.25 0.578125 0.25 1.265625q0 0.734375 -0.265625 1.328125q-0.265625 0.59375 -0.78125 0.921875q-0.5 0.3125 -1.0625 0.3125q-0.40625 0 -0.734375 -0.171875q-0.328125 -0.171875 -0.53125 -0.4375l0 2.359375l-0.828125 0zm0.75 -4.25q0 0.9375 0.375 1.390625q0.375 0.4375 0.921875 0.4375q0.546875 0 0.921875 -0.453125q0.390625 -0.46875 0.390625 -1.4375q0 -0.9375 -0.375 -1.390625q-0.375 -0.453125 -0.90625 -0.453125q-0.53125 0 -0.9375 0.484375q-0.390625 0.484375 -0.390625 1.421875z" fill-rule="nonzero"/><path fill="#000000" d="m69.81119 202.57413l0 -4.203125l-0.71875 0l0 -0.640625l0.71875 0l0 -0.515625q0 -0.484375 0.078125 -0.71875q0.125 -0.3125 0.421875 -0.515625q0.296875 -0.203125 0.84375 -0.203125q0.34375 0 0.765625 0.09375l-0.125 0.703125q-0.265625 -0.046875 -0.484375 -0.046875q-0.375 0 -0.53125 0.171875q-0.15625 0.15625 -0.15625 0.59375l0 0.4375l0.9375 0l0 0.640625l-0.9375 0l0 4.203125l-0.8125 0zm2.4041595 -5.734375l0 -0.9375l0.8125 0l0 0.9375l-0.8125 0zm0 5.734375l0 -4.84375l0.8125 0l0 4.84375l-0.8125 0zm2.0567932 0l0 -4.84375l0.75 0l0 0.6875q0.53125 -0.796875 1.53125 -0.796875q0.4375 0 0.796875 0.171875q0.375 0.15625 0.546875 0.40625q0.1875 0.25 0.265625 0.609375q0.046875 0.21875 0.046875 0.796875l0 2.96875l-0.828125 0l0 -2.9375q0 -0.5 -0.09375 -0.75q-0.09375 -0.25 -0.34375 -0.390625q-0.234375 -0.15625 -0.5625 -0.15625q-0.515625 0 -0.90625 0.328125q-0.375 0.328125 -0.375 1.265625l0 2.640625l-0.828125 0zm8.500366 -1.5625l0.84375 0.109375q-0.1875 0.75 -0.734375 1.15625q-0.546875 0.40625 -1.390625 0.40625q-1.0625 0 -1.6875 -0.65625q-0.609375 -0.65625 -0.609375 -1.828125q0 -1.21875 0.625 -1.890625q0.625 -0.6875 1.625 -0.6875q0.984375 0 1.59375 0.671875q0.609375 0.65625 0.609375 1.859375q0 0.0625 0 0.21875l-3.609375 0q0.046875 0.796875 0.453125 1.21875q0.40625 0.421875 1.015625 0.421875q0.453125 0 0.765625 -0.234375q0.3125 -0.234375 0.5 -0.765625zm-2.6875 -1.328125l2.703125 0q-0.0625 -0.609375 -0.3125 -0.90625q-0.390625 -0.46875 -1.015625 -0.46875q-0.5625 0 -0.953125 0.375q-0.375 0.375 -0.421875 1.0zm4.234741 1.453125l0.8125 -0.140625q0.078125 0.5 0.390625 0.765625q0.3125 0.25 0.859375 0.25q0.578125 0 0.84375 -0.234375q0.28125 -0.234375 0.28125 -0.53125q0 -0.28125 -0.25 -0.4375q-0.171875 -0.109375 -0.84375 -0.28125q-0.890625 -0.234375 -1.25 -0.390625q-0.34375 -0.171875 -0.53125 -0.46875q-0.171875 -0.296875 -0.171875 -0.640625q0 -0.328125 0.140625 -0.59375q0.15625 -0.28125 0.40625 -0.46875q0.203125 -0.140625 0.53125 -0.234375q0.328125 -0.109375 0.703125 -0.109375q0.578125 0 1.0 0.171875q0.4375 0.15625 0.640625 0.4375q0.203125 0.28125 0.28125 0.75l-0.796875 0.109375q-0.0625 -0.375 -0.328125 -0.578125q-0.265625 -0.203125 -0.734375 -0.203125q-0.5625 0 -0.8125 0.1875q-0.234375 0.171875 -0.234375 0.4375q0 0.15625 0.09375 0.28125q0.109375 0.125 0.3125 0.21875q0.125 0.046875 0.734375 0.203125q0.859375 0.234375 1.203125 0.390625q0.34375 0.140625 0.53125 0.421875q0.203125 0.28125 0.203125 0.703125q0 0.40625 -0.234375 0.78125q-0.234375 0.359375 -0.6875 0.5625q-0.453125 0.1875 -1.015625 0.1875q-0.953125 0 -1.453125 -0.390625q-0.484375 -0.390625 -0.625 -1.15625zm6.7890625 0.703125l0.109375 0.71875q-0.34375 0.078125 -0.609375 0.078125q-0.453125 0 -0.703125 -0.140625q-0.234375 -0.140625 -0.34375 -0.359375q-0.09375 -0.234375 -0.09375 -0.984375l0 -2.78125l-0.609375 0l0 -0.640625l0.609375 0l0 -1.1875l0.8125 -0.5l0 1.6875l0.828125 0l0 0.640625l-0.828125 0l0 2.828125q0 0.359375 0.046875 0.46875q0.046875 0.09375 0.140625 0.15625q0.09375 0.046875 0.28125 0.046875q0.140625 0 0.359375 -0.03125zm0.79478455 0.734375l0 -4.84375l0.734375 0l0 0.734375q0.28125 -0.515625 0.515625 -0.671875q0.25 -0.171875 0.53125 -0.171875q0.421875 0 0.84375 0.265625l-0.28125 0.765625q-0.296875 -0.171875 -0.609375 -0.171875q-0.265625 0 -0.484375 0.15625q-0.203125 0.15625 -0.296875 0.453125q-0.140625 0.4375 -0.140625 0.953125l0 2.53125l-0.8125 0zm6.2625885 -0.59375q-0.453125 0.390625 -0.875 0.546875q-0.421875 0.15625 -0.90625 0.15625q-0.796875 0 -1.21875 -0.390625q-0.421875 -0.390625 -0.421875 -1.0q0 -0.34375 0.15625 -0.640625q0.15625 -0.296875 0.421875 -0.46875q0.265625 -0.1875 0.59375 -0.28125q0.234375 -0.0625 0.71875 -0.109375q1.0 -0.125 1.46875 -0.28125q0 -0.171875 0 -0.21875q0 -0.5 -0.234375 -0.703125q-0.3125 -0.28125 -0.921875 -0.28125q-0.578125 0 -0.859375 0.203125q-0.28125 0.203125 -0.40625 0.71875l-0.796875 -0.109375q0.109375 -0.515625 0.359375 -0.828125q0.25 -0.328125 0.71875 -0.5q0.46875 -0.171875 1.09375 -0.171875q0.625 0 1.0 0.15625q0.390625 0.140625 0.578125 0.359375q0.1875 0.21875 0.25 0.5625q0.046875 0.203125 0.046875 0.75l0 1.09375q0 1.140625 0.046875 1.453125q0.0625 0.296875 0.21875 0.578125l-0.859375 0q-0.125 -0.25 -0.171875 -0.59375zm-0.0625 -1.828125q-0.453125 0.171875 -1.34375 0.296875q-0.5 0.078125 -0.71875 0.171875q-0.203125 0.09375 -0.3125 0.265625q-0.109375 0.171875 -0.109375 0.390625q0 0.328125 0.234375 0.546875q0.25 0.21875 0.734375 0.21875q0.46875 0 0.828125 -0.203125q0.375 -0.21875 0.5625 -0.578125q0.125 -0.265625 0.125 -0.8125l0 -0.296875z" fill-rule="nonzero"/><path fill="#000000" fill-opacity="0.0" d="m113.77165 11.060368l0 37.102364" fill-rule="evenodd"/><path stroke="#ffab40" stroke-width="2.0" stroke-linejoin="round" stroke-linecap="butt" d="m113.77165 11.060368l0 25.102364" fill-rule="evenodd"/><path fill="#ffab40" stroke="#ffab40" stroke-width="2.0" stroke-linecap="butt" d="m110.468185 36.16273l3.3034668 9.076195l3.3034668 -9.076195z" fill-rule="evenodd"/><path fill="#000000" fill-opacity="0.0" d="m113.77165 211.38185l0 25.165344" fill-rule="evenodd"/><path stroke="#ffab40" stroke-width="2.0" stroke-linejoin="round" stroke-linecap="butt" d="m113.77165 211.38185l0 13.1653595" fill-rule="evenodd"/><path fill="#ffab40" stroke="#ffab40" stroke-width="2.0" stroke-linecap="butt" d="m110.468185 224.54721l3.3034668 9.076187l3.3034668 -9.076187z" fill-rule="evenodd"/><path fill="#000000" fill-opacity="0.0" d="m113.77165 83.154854l0 17.478218l0.06299591 0l0 17.482414" fill-rule="evenodd"/><path stroke="#ffab40" stroke-width="2.0" stroke-linejoin="round" stroke-linecap="butt" d="m113.77165 83.154854l0 17.478218l0.06299591 0l0 5.4824142" fill-rule="evenodd"/><path fill="#ffab40" stroke="#ffab40" stroke-width="2.0" stroke-linecap="butt" d="m110.53118 106.115486l3.3034668 9.076195l3.3034592 -9.076195z" fill-rule="evenodd"/></g></svg>