<svg version="1.1" viewBox="0.0 0.0 293.5590551181102 200.71916010498688" fill="none" stroke="none" stroke-linecap="square" stroke-miterlimit="10" xmlns:xlink="http://www.w3.org/1999/xlink" xmlns="http://www.w3.org/2000/svg"><clipPath id="p.0"><path d="m0 0l293.55905 0l0 200.71916l-293.55905 0l0 -200.71916z" clip-rule="nonzero"/></clipPath><g clip-path="url(#p.0)"><path fill="#000000" fill-opacity="0.0" d="m0 0l293.55905 0l0 200.71916l-293.55905 0z" fill-rule="evenodd"/><path fill="#fce5cd" d="m33.571777 83.8178l213.8092 0l0 32.98616l-106.9046 8.246544l-106.9046 -8.246544z" fill-rule="evenodd"/><path stroke="#ea7b1e" stroke-width="1.0" stroke-linejoin="round" stroke-linecap="butt" d="m33.571777 83.8178l213.8092 0l0 32.98616l-106.9046 8.246544l-106.9046 -8.246544z" fill-rule="evenodd"/><path fill="#000000" d="m51.77784 107.23088l5.125 -13.359375l1.90625 0l5.46875 13.359375l-2.015625 0l-1.546875 -4.046875l-5.59375 0l-1.46875 4.046875l-1.875 0zm3.859375 -5.484375l4.53125 0l-1.40625 -3.703125q-0.625 -1.6875 -0.9375 -2.765625q-0.265625 1.28125 -0.71875 2.546875l-1.46875 3.921875zm9.849823 5.484375l0 -9.671875l1.46875 0l0 1.359375q0.453125 -0.71875 1.203125 -1.140625q0.765625 -0.4375 1.71875 -0.4375q1.078125 0 1.765625 0.453125q0.6875 0.4375 0.96875 1.234375q1.15625 -1.6875 2.984375 -1.6875q1.453125 0 2.21875 0.796875q0.78125 0.796875 0.78125 2.453125l0 6.640625l-1.640625 0l0 -6.09375q0 -0.984375 -0.15625 -1.40625q-0.15625 -0.4375 -0.578125 -0.703125q-0.421875 -0.265625 -0.984375 -0.265625q-1.015625 0 -1.6875 0.6875q-0.671875 0.671875 -0.671875 2.15625l0 5.625l-1.640625 0l0 -6.28125q0 -1.09375 -0.40625 -1.640625q-0.40625 -0.546875 -1.3125 -0.546875q-0.6875 0 -1.28125 0.359375q-0.59375 0.359375 -0.859375 1.0625q-0.25 0.703125 -0.25 2.03125l0 5.015625l-1.640625 0zm15.540802 3.703125l0 -13.375l1.484375 0l0 1.25q0.53125 -0.734375 1.1875 -1.09375q0.671875 -0.375 1.625 -0.375q1.234375 0 2.171875 0.640625q0.953125 0.625 1.4375 1.796875q0.484375 1.15625 0.484375 2.546875q0 1.484375 -0.53125 2.671875q-0.53125 1.1875 -1.546875 1.828125q-1.015625 0.625 -2.140625 0.625q-0.8125 0 -1.46875 -0.34375q-0.65625 -0.34375 -1.0625 -0.875l0 4.703125l-1.640625 0zm1.484375 -8.484375q0 1.859375 0.75 2.765625q0.765625 0.890625 1.828125 0.890625q1.09375 0 1.875 -0.921875q0.78125 -0.9375 0.78125 -2.875q0 -1.84375 -0.765625 -2.765625q-0.75 -0.921875 -1.8125 -0.921875q-1.046875 0 -1.859375 0.984375q-0.796875 0.96875 -0.796875 2.84375zm8.891342 -6.6875l0 -1.890625l1.640625 0l0 1.890625l-1.640625 0zm0 11.46875l0 -9.671875l1.640625 0l0 9.671875l-1.640625 0zm10.769821 -3.109375l1.6875 0.203125q-0.40625 1.484375 -1.484375 2.3125q-1.078125 0.8125 -2.765625 0.8125q-2.125 0 -3.375 -1.296875q-1.234375 -1.3125 -1.234375 -3.671875q0 -2.453125 1.25 -3.796875q1.265625 -1.34375 3.265625 -1.34375q1.9375 0 3.15625 1.328125q1.234375 1.3125 1.234375 3.703125q0 0.15625 0 0.4375l-7.21875 0q0.09375 1.59375 0.90625 2.453125q0.8125 0.84375 2.015625 0.84375q0.90625 0 1.546875 -0.46875q0.640625 -0.484375 1.015625 -1.515625zm-5.390625 -2.65625l5.40625 0q-0.109375 -1.21875 -0.625 -1.828125q-0.78125 -0.953125 -2.03125 -0.953125q-1.125 0 -1.90625 0.765625q-0.765625 0.75 -0.84375 2.015625zm8.266342 5.765625l0 -1.328125l6.15625 -7.078125q-1.046875 0.0625 -1.84375 0.0625l-3.9375 0l0 -1.328125l7.90625 0l0 1.078125l-5.25 6.140625l-1.0 1.125q1.09375 -0.078125 2.0625 -0.078125l4.46875 0l0 1.40625l-8.5625 0zm9.328125 0l0 -1.328125l6.15625 -7.078125q-1.046875 0.0625 -1.84375 0.0625l-3.9375 0l0 -1.328125l7.90625 0l0 1.078125l-5.25 6.140625l-1.0 1.125q1.09375 -0.078125 2.0625 -0.078125l4.46875 0l0 1.40625l-8.5625 0zm16.515617 -1.1875q-0.921875 0.765625 -1.765625 1.09375q-0.828125 0.3125 -1.7968674 0.3125q-1.59375 0 -2.453125 -0.78125q-0.859375 -0.78125 -0.859375 -1.984375q0 -0.71875 0.328125 -1.296875q0.328125 -0.59375 0.84375 -0.9375q0.53125 -0.359375 1.1875 -0.546875q0.46875 -0.125 1.453125 -0.25q1.9843674 -0.234375 2.9218674 -0.5625q0.015625 -0.34375 0.015625 -0.421875q0 -1.0 -0.46875 -1.421875q-0.625 -0.546875 -1.875 -0.546875q-1.1562424 0 -1.7031174 0.40625q-0.546875 0.40625 -0.8125 1.421875l-1.609375 -0.21875q0.21875 -1.015625 0.71875 -1.640625q0.5 -0.640625 1.453125 -0.984375q0.953125 -0.34375 2.1874924 -0.34375q1.25 0 2.015625 0.296875q0.78125 0.28125 1.140625 0.734375q0.375 0.4375 0.515625 1.109375q0.078125 0.421875 0.078125 1.515625l0 2.1875q0 2.28125 0.109375 2.890625q0.109375 0.59375 0.40625 1.15625l-1.703125 0q-0.265625 -0.515625 -0.328125 -1.1875zm-0.140625 -3.671875q-0.890625 0.375 -2.671875 0.625q-1.0156174 0.140625 -1.4374924 0.328125q-0.421875 0.1875 -0.65625 0.53125q-0.21875 0.34375 -0.21875 0.78125q0 0.65625 0.5 1.09375q0.5 0.4375 1.453125 0.4375q0.9374924 0 1.6718674 -0.40625q0.75 -0.421875 1.09375 -1.140625q0.265625 -0.5625 0.265625 -1.640625l0 -0.609375zm15.105896 4.859375l-1.640625 0l0 -10.453125q-0.59375 0.5625 -1.5625 1.140625q-0.953125 0.5625 -1.71875 0.84375l0 -1.59375q1.375 -0.640625 2.40625 -1.5625q1.03125 -0.921875 1.453125 -1.78125l1.0625 0l0 13.40625zm4.203842 -3.5l1.71875 -0.140625q0.1875 1.25 0.875 1.890625q0.703125 0.625 1.6875 0.625q1.1875 0 2.0 -0.890625q0.828125 -0.890625 0.828125 -2.359375q0 -1.40625 -0.796875 -2.21875q-0.78125 -0.8125 -2.0625 -0.8125q-0.78125 0 -1.421875 0.359375q-0.640625 0.359375 -1.0 0.9375l-1.546875 -0.203125l1.296875 -6.859375l6.640625 0l0 1.5625l-5.328125 0l-0.71875 3.59375q1.203125 -0.84375 2.515625 -0.84375q1.75 0 2.953125 1.21875q1.203125 1.203125 1.203125 3.109375q0 1.8125 -1.046875 3.140625q-1.296875 1.625 -3.515625 1.625q-1.8125 0 -2.96875 -1.015625q-1.15625 -1.03125 -1.3125 -2.71875zm15.355896 0.609375l1.625 -0.25q0.125 0.96875 0.75 1.5q0.625 0.515625 1.75 0.515625q1.125 0 1.671875 -0.453125q0.546875 -0.46875 0.546875 -1.09375q0 -0.546875 -0.484375 -0.875q-0.328125 -0.21875 -1.671875 -0.546875q-1.8125 -0.46875 -2.515625 -0.796875q-0.6875 -0.328125 -1.046875 -0.90625q-0.359375 -0.59375 -0.359375 -1.3125q0 -0.640625 0.296875 -1.1875q0.296875 -0.5625 0.8125 -0.921875q0.375 -0.28125 1.03125 -0.46875q0.671875 -0.203125 1.421875 -0.203125q1.140625 0 2.0 0.328125q0.859375 0.328125 1.265625 0.890625q0.421875 0.5625 0.578125 1.5l-1.609375 0.21875q-0.109375 -0.75 -0.640625 -1.171875q-0.515625 -0.421875 -1.46875 -0.421875q-1.140625 0 -1.625 0.375q-0.46875 0.375 -0.46875 0.875q0 0.3125 0.1875 0.578125q0.203125 0.265625 0.640625 0.4375q0.234375 0.09375 1.4375 0.421875q1.75 0.453125 2.4375 0.75q0.6875 0.296875 1.078125 0.859375q0.390625 0.5625 0.390625 1.40625q0 0.828125 -0.484375 1.546875q-0.46875 0.71875 -1.375 1.125q-0.90625 0.390625 -2.046875 0.390625q-1.875 0 -2.875 -0.78125q-0.984375 -0.78125 -1.25 -2.328125zm16.609375 -0.21875l1.6875 0.203125q-0.40625 1.484375 -1.484375 2.3125q-1.078125 0.8125 -2.765625 0.8125q-2.125 0 -3.375 -1.296875q-1.234375 -1.3125 -1.234375 -3.671875q0 -2.453125 1.25 -3.796875q1.265625 -1.34375 3.265625 -1.34375q1.9375 0 3.15625 1.328125q1.234375 1.3125 1.234375 3.703125q0 0.15625 0 0.4375l-7.21875 0q0.09375 1.59375 0.90625 2.453125q0.8125 0.84375 2.015625 0.84375q0.90625 0 1.546875 -0.46875q0.640625 -0.484375 1.015625 -1.515625zm-5.390625 -2.65625l5.40625 0q-0.109375 -1.21875 -0.625 -1.828125q-0.78125 -0.953125 -2.03125 -0.953125q-1.125 0 -1.90625 0.765625q-0.765625 0.75 -0.84375 2.015625zm15.453857 2.21875l1.609375 0.21875q-0.265625 1.65625 -1.359375 2.609375q-1.078125 0.9375 -2.671875 0.9375q-1.984375 0 -3.1875 -1.296875q-1.203125 -1.296875 -1.203125 -3.71875q0 -1.578125 0.515625 -2.75q0.515625 -1.171875 1.578125 -1.75q1.0625 -0.59375 2.3125 -0.59375q1.578125 0 2.578125 0.796875q1.0 0.796875 1.28125 2.265625l-1.59375 0.234375q-0.234375 -0.96875 -0.8125 -1.453125q-0.578125 -0.5 -1.390625 -0.5q-1.234375 0 -2.015625 0.890625q-0.78125 0.890625 -0.78125 2.8125q0 1.953125 0.75 2.84375q0.75 0.875 1.953125 0.875q0.96875 0 1.609375 -0.59375q0.65625 -0.59375 0.828125 -1.828125zm2.40625 -1.296875q0 -2.6875 1.484375 -3.96875q1.25 -1.078125 3.046875 -1.078125q2.0 0 3.265625 1.3125q1.265625 1.296875 1.265625 3.609375q0 1.859375 -0.5625 2.9375q-0.5625 1.0625 -1.640625 1.65625q-1.0625 0.59375 -2.328125 0.59375q-2.03125 0 -3.28125 -1.296875q-1.25 -1.3125 -1.25 -3.765625zm1.6875 0q0 1.859375 0.796875 2.796875q0.8125 0.921875 2.046875 0.921875q1.21875 0 2.03125 -0.921875q0.8125 -0.9375 0.8125 -2.84375q0 -1.796875 -0.8125 -2.71875q-0.8125 -0.921875 -2.03125 -0.921875q-1.234375 0 -2.046875 0.921875q-0.796875 0.90625 -0.796875 2.765625zm9.297577 4.84375l0 -9.671875l1.46875 0l0 1.375q1.0625 -1.59375 3.078125 -1.59375q0.875 0 1.609375 0.3125q0.734375 0.3125 1.09375 0.828125q0.375 0.5 0.515625 1.203125q0.09375 0.453125 0.09375 1.59375l0 5.953125l-1.640625 0l0 -5.890625q0 -1.0 -0.203125 -1.484375q-0.1875 -0.5 -0.671875 -0.796875q-0.484375 -0.296875 -1.140625 -0.296875q-1.046875 0 -1.8125 0.671875q-0.75 0.65625 -0.75 2.515625l0 5.28125l-1.640625 0zm16.641357 0l0 -1.21875q-0.90625 1.4375 -2.703125 1.4375q-1.15625 0 -2.125 -0.640625q-0.96875 -0.640625 -1.5 -1.78125q-0.53125 -1.140625 -0.53125 -2.625q0 -1.453125 0.484375 -2.625q0.484375 -1.1875 1.4375 -1.8125q0.96875 -0.625 2.171875 -0.625q0.875 0 1.546875 0.375q0.6875 0.359375 1.109375 0.953125l0 -4.796875l1.640625 0l0 13.359375l-1.53125 0zm-5.171875 -4.828125q0 1.859375 0.78125 2.78125q0.78125 0.921875 1.84375 0.921875q1.078125 0 1.828125 -0.875q0.75 -0.890625 0.75 -2.6875q0 -1.984375 -0.765625 -2.90625q-0.765625 -0.9375 -1.890625 -0.9375q-1.078125 0 -1.8125 0.890625q-0.734375 0.890625 -0.734375 2.8125zm9.281952 -6.640625l0 -1.890625l1.640625 0l0 1.890625l-1.640625 0zm0 11.46875l0 -9.671875l1.640625 0l0 9.671875l-1.640625 0z" fill-rule="nonzero"/><path fill="#000000" fill-opacity="0.0" d="m4.1916013 44.940903l0 0c0 -4.148739 3.3632193 -7.511959 7.5119615 -7.511959l257.54303 0c1.992279 0 3.9029846 0.79143524 5.311737 2.200203c1.408783 1.4087639 2.2002258 3.3194618 2.2002258 5.311756l0 30.046944c0 4.1487427 -3.3632202 7.511963 -7.511963 7.511963l-257.54303 0c-4.148742 0 -7.5119615 -3.3632202 -7.5119615 -7.511963z" fill-rule="evenodd"/><path stroke="#ff9900" stroke-width="2.0" stroke-linejoin="round" stroke-linecap="butt" d="m4.1916013 44.940903l0 0c0 -4.148739 3.3632193 -7.511959 7.5119615 -7.511959l257.54303 0c1.992279 0 3.9029846 0.79143524 5.311737 2.200203c1.408783 1.4087639 2.2002258 3.3194618 2.2002258 5.311756l0 30.046944c0 4.1487427 -3.3632202 7.511963 -7.511963 7.511963l-257.54303 0c-4.148742 0 -7.5119615 -3.3632202 -7.5119615 -7.511963z" fill-rule="evenodd"/><path fill="#000000" d="m68.11959 68.50437l0 -17.437496l9.375 0l-0.078125 1.296875l-7.796875 0l0 6.890625l7.453125 0l0 1.203125l-7.453125 0l0 8.046871l-1.5 0zm11.746094 0l0 -12.843746l1.46875 0l0 12.843746l-1.46875 0zm0 -15.468746l0 -1.96875l1.453125 0l0 1.96875l-1.453125 0zm3.7773438 15.468746l4.796875 -6.499996l-4.640625 -6.34375l1.609375 0l3.75 5.296875l3.734375 -5.296875l1.640625 0l-4.625 6.390625l4.71875 6.453121l-1.546875 0l-3.90625 -5.453121l-3.890625 5.453121l-1.640625 0zm18.179688 0.28125q-2.65625 0 -4.21875 -1.78125q-1.5625 -1.78125 -1.5625 -4.828121q0 -2.9375 1.53125 -4.8125q1.53125 -1.875 3.953125 -1.9375q2.265625 0 3.625 1.625q1.375 1.609375 1.375 4.328125q0 0.109375 -0.015625 0.4375q0 0.3125 0 0.4375l-8.9375 0q0.03125 2.4687462 1.203125 3.9218712q1.171875 1.453125 3.09375 1.453125q1.25 0 2.171875 -0.296875q0.921875 -0.296875 1.9375 -0.828125l0.25 1.078125q-1.953125 1.203125 -4.40625 1.203125zm-4.1875 -7.703121l7.3125 0q0 -2.140625 -0.9375 -3.28125q-0.921875 -1.140625 -2.53125 -1.140625q-1.640625 0 -2.65625 1.21875q-1.0 1.21875 -1.1875 3.203125zm16.652344 7.687496q-2.5625 0 -4.0 -1.78125q-1.4375 -1.78125 -1.4375 -4.921871q0 -2.953125 1.484375 -4.796875q1.484375 -1.84375 3.90625 -1.84375q1.1875 0 2.375 0.515625q1.203125 0.515625 1.828125 1.609375l0 -0.390625l0 -6.484375l1.40625 -0.125l0 17.953121l-1.203125 0l-0.21875 -1.9375q-0.65625 1.09375 -1.8125 1.65625q-1.140625 0.546875 -2.328125 0.546875zm-0.03125 -1.140625q1.078125 0 1.890625 -0.390625q0.828125 -0.40625 1.3125 -1.125q0.5 -0.734375 0.734375 -1.671875q0.25 -0.9531212 0.25 -2.1093712q0 -5.71875 -4.21875 -5.71875q-1.0 0 -1.765625 0.46875q-0.75 0.46875 -1.1875 1.28125q-0.4375 0.796875 -0.65625 1.75q-0.203125 0.9375 -0.203125 1.984375q0 0.890625 0.125 1.6875q0.125 0.7968712 0.421875 1.5156212q0.296875 0.703125 0.71875 1.21875q0.4375 0.5 1.09375 0.8125q0.65625 0.296875 1.484375 0.296875zm18.179695 0.875l-5.4062576 -17.437496l1.6406326 0l4.640625 15.765621l4.453125 -15.296871l1.96875 0l4.359375 15.296871l4.625 -15.765621l1.640625 0l-5.40625 17.437496l-1.671875 0l-4.484375 -15.484371l-4.6875 15.484371l-1.671875 0zm19.816406 0l0 -12.843746l1.46875 0l0 12.843746l-1.46875 0zm0 -15.468746l0 -1.96875l1.453125 0l0 1.96875l-1.453125 0zm5.0585938 15.468746l0 -12.843746l1.265625 0l0.203125 1.984375q0.6875 -1.03125 1.859375 -1.625q1.171875 -0.59375 2.515625 -0.59375q2.21875 0 3.25 1.21875q1.046875 1.21875 1.046875 3.890625l0 7.968746l-1.46875 0l0 -8.624996q-0.046875 -1.71875 -0.71875 -2.46875q-0.671875 -0.75 -2.1875 -0.75q-1.75 0 -2.859375 0.890625q-1.109375 0.875 -1.390625 2.265625q-0.046875 0.546875 -0.046875 1.15625l0 7.531246l-1.46875 0zm18.359375 0.265625q-2.5625 0 -4.0 -1.78125q-1.4375 -1.78125 -1.4375 -4.921871q0 -2.953125 1.484375 -4.796875q1.484375 -1.84375 3.90625 -1.84375q1.1875 0 2.375 0.515625q1.203125 0.515625 1.828125 1.609375l0 -0.390625l0 -6.484375l1.40625 -0.125l0 17.953121l-1.203125 0l-0.21875 -1.9375q-0.65625 1.09375 -1.8125 1.65625q-1.140625 0.546875 -2.328125 0.546875zm-0.03125 -1.140625q1.078125 0 1.890625 -0.390625q0.828125 -0.40625 1.3125 -1.125q0.5 -0.734375 0.734375 -1.671875q0.25 -0.9531212 0.25 -2.1093712q0 -5.71875 -4.21875 -5.71875q-1.0 0 -1.765625 0.46875q-0.75 0.46875 -1.1875 1.28125q-0.4375 0.796875 -0.65625 1.75q-0.203125 0.9375 -0.203125 1.984375q0 0.890625 0.125 1.6875q0.125 0.7968712 0.421875 1.5156212q0.296875 0.703125 0.71875 1.21875q0.4375 0.5 1.09375 0.8125q0.65625 0.296875 1.484375 0.296875zm14.363281 0q1.40625 0 2.375 -0.75q0.96875 -0.75 1.40625 -1.96875q0.4375 -1.2187462 0.4375 -2.7968712q0 -2.484375 -1.0625 -3.984375q-1.046875 -1.515625 -3.203125 -1.515625q-1.40625 0 -2.40625 0.75q-0.984375 0.75 -1.4375 1.984375q-0.453125 1.21875 -0.453125 2.796875q0 2.4062462 1.109375 3.9531212q1.125 1.53125 3.234375 1.53125zm-0.109375 1.15625q-1.75 0 -3.078125 -0.875q-1.328125 -0.890625 -2.03125 -2.390625q-0.6875 -1.5 -0.6875 -3.4062462q0 -1.421875 0.40625 -2.640625q0.40625 -1.234375 1.15625 -2.125q0.75 -0.90625 1.859375 -1.40625q1.109375 -0.515625 2.46875 -0.515625q1.8125 0 3.125 0.890625q1.328125 0.875 1.984375 2.375q0.671875 1.484375 0.671875 3.40625q0 1.9218712 -0.6875 3.4218712q-0.671875 1.5 -2.03125 2.390625q-1.34375 0.875 -3.15625 0.875zm10.675781 -0.28125l-3.578125 -12.843746l1.515625 0l2.96875 11.468746q3.203125 -10.281246 3.578125 -11.468746l1.78125 0q3.5 11.437496 3.53125 11.437496l2.84375 -11.437496l1.5 0l-3.515625 12.843746l-1.6875 0q-0.046875 0.015625 -1.671875 -5.390621q-1.609375 -5.421875 -1.859375 -6.375q-0.140625 0.625 -1.078125 3.5625q-0.921875 2.9375 -1.78125 5.578121q-0.84375 2.640625 -0.859375 2.625l-1.6875 0z" fill-rule="nonzero"/><path fill="#000000" fill-opacity="0.0" d="m140.47507 5.5864234l0 31.84252" fill-rule="evenodd"/><path stroke="#ffab40" stroke-width="2.0" stroke-linejoin="round" stroke-linecap="butt" d="m140.47507 5.5864234l0 19.84252" fill-rule="evenodd"/><path fill="#ffab40" stroke="#ffab40" stroke-width="2.0" stroke-linecap="butt" d="m137.1716 25.428946l3.3034668 9.076193l3.3034668 -9.076193z" fill-rule="evenodd"/><path fill="#000000" fill-opacity="0.0" d="m140.47638 126.37008l0 47.11811" fill-rule="evenodd"/><path stroke="#ffab40" stroke-width="2.0" stroke-linejoin="round" stroke-linecap="butt" d="m140.47638 126.37008l0 35.11811" fill-rule="evenodd"/><path fill="#ffab40" stroke="#ffab40" stroke-width="2.0" stroke-linecap="butt" d="m137.17291 161.48819l3.3034668 9.076187l3.3034668 -9.076187z" fill-rule="evenodd"/></g></svg>