<svg version="1.1" viewBox="0.0 0.0 389.9527559055118 293.9448818897638" fill="none" stroke="none" stroke-linecap="square" stroke-miterlimit="10" xmlns:xlink="http://www.w3.org/1999/xlink" xmlns="http://www.w3.org/2000/svg"><clipPath id="p.0"><path d="m0 0l389.95276 0l0 293.9449l-389.95276 0l0 -293.9449z" clip-rule="nonzero"/></clipPath><g clip-path="url(#p.0)"><path fill="#000000" fill-opacity="0.0" d="m0 0l389.95276 0l0 293.9449l-389.95276 0z" fill-rule="evenodd"/><path fill="#000000" fill-opacity="0.0" d="m-6.56168E-4 40.204903l0 0c0 -5.0155983 4.0659466 -9.081547 9.081547 -9.081547l100.79753 0c2.408577 0 4.718506 0.95680237 6.421623 2.6599236c1.703125 1.7031212 2.6599274 4.0130463 2.6599274 6.421623l0 36.325096c0 5.015602 -4.0659485 9.081551 -9.081551 9.081551l-100.79753 0c-5.0156 0 -9.081547 -4.0659485 -9.081547 -9.081551z" fill-rule="evenodd"/><path stroke="#999999" stroke-width="2.0" stroke-linejoin="round" stroke-linecap="butt" d="m-6.56168E-4 40.204903l0 0c0 -5.0155983 4.0659466 -9.081547 9.081547 -9.081547l100.79753 0c2.408577 0 4.718506 0.95680237 6.421623 2.6599236c1.703125 1.7031212 2.6599274 4.0130463 2.6599274 6.421623l0 36.325096c0 5.015602 -4.0659485 9.081551 -9.081551 9.081551l-100.79753 0c-5.0156 0 -9.081547 -4.0659485 -9.081547 -9.081551z" fill-rule="evenodd"/><path fill="#000000" d="m21.757002 54.72745l0 -11.625l3.3125 0q0.640625 0 1.09375 0.03125q0.46875 0.015625 0.953125 0.09375q0.484375 0.078125 0.828125 0.203125q0.34375 0.125 0.640625 0.34375q0.3125 0.21875 0.5 0.53125q0.1875 0.3125 0.296875 0.75q0.109375 0.421875 0.109375 0.96875q0 1.0625 -0.53125 1.828125q-0.515625 0.765625 -1.59375 1.046875q0.46875 0.953125 0.703125 1.453125l1.90625 4.375l-1.171875 0l-1.640625 -3.984375q-0.15625 -0.390625 -0.734375 -1.6875q-0.15625 0.03125 -1.15625 0.03125l-2.515625 -0.046875l0 5.6875l-1.0 0zm3.953125 -6.46875q1.546875 0 2.15625 -0.546875q0.625 -0.546875 0.625 -1.671875q0 -1.015625 -0.5625 -1.5625q-0.546875 -0.546875 -1.890625 -0.546875l-3.28125 0l0 4.296875q1.84375 0.03125 2.953125 0.03125zm9.664061 6.65625q-1.78125 0 -2.828125 -1.1875q-1.0312481 -1.1875 -1.0312481 -3.21875q0 -1.96875 1.0156231 -3.21875q1.015625 -1.25 2.640625 -1.28125q1.5 0 2.40625 1.078125q0.921875 1.078125 0.921875 2.890625q0 0.0625 0 0.28125q0 0.21875 0 0.296875l-5.96875 0q0.015625 1.65625 0.796875 2.625q0.78125 0.953125 2.0625 0.953125q0.84375 0 1.453125 -0.1875q0.625 -0.203125 1.296875 -0.5625l0.15625 0.734375q-1.296875 0.796875 -2.921875 0.796875zm-2.796875 -5.140625l4.875 0q0 -1.421875 -0.625 -2.1875q-0.609375 -0.765625 -1.6875 -0.765625q-1.09375 0 -1.765625 0.8125q-0.671875 0.8125 -0.796875 2.140625zm10.046875 5.140625q-1.203125 0 -1.9375 -0.609375q-0.71875 -0.609375 -0.71875 -1.75q0 -0.671875 0.28125 -1.15625q0.296875 -0.5 0.84375 -0.8125q0.546875 -0.3125 1.25 -0.484375q0.71875 -0.171875 1.65625 -0.234375q1.0 -0.0625 1.484375 -0.109375l0 -0.953125q0 -0.984375 -0.453125 -1.46875q-0.453125 -0.5 -1.4375 -0.5q-1.359375 0 -2.546875 0.640625q-0.03125 -0.078125 -0.140625 -0.328125q-0.109375 -0.265625 -0.15625 -0.40625q0.484375 -0.3125 1.265625 -0.515625q0.78125 -0.21875 1.53125 -0.21875q1.53125 0 2.203125 0.65625q0.671875 0.65625 0.671875 2.34375l0 5.71875l-0.75 0q-0.046875 -0.1875 -0.125 -0.71875q-0.0625 -0.53125 -0.0625 -0.546875q-1.015625 1.453125 -2.859375 1.453125zm0.03125 -0.78125q1.0 0 1.78125 -0.578125q0.78125 -0.59375 1.015625 -1.640625l0 -1.46875q-1.125 0.09375 -1.125 0.09375q-1.90625 0.171875 -2.65625 0.625q-0.734375 0.453125 -0.734375 1.40625q0 0.78125 0.46875 1.171875q0.46875 0.390625 1.25 0.390625zm9.3359375 0.78125q-1.71875 0 -2.671875 -1.1875q-0.953125 -1.203125 -0.953125 -3.296875q0 -1.96875 0.984375 -3.1875q0.984375 -1.234375 2.609375 -1.234375q0.796875 0 1.59375 0.34375q0.796875 0.34375 1.203125 1.0625l0 -0.25l0 -4.328125l0.9375 -0.078125l0 11.96875l-0.796875 0l-0.140625 -1.296875q-0.453125 0.734375 -1.21875 1.109375q-0.75 0.375 -1.546875 0.375zm-0.03125 -0.78125q0.734375 0 1.28125 -0.265625q0.546875 -0.265625 0.875 -0.75q0.328125 -0.484375 0.484375 -1.109375q0.15625 -0.625 0.15625 -1.390625q0 -3.828125 -2.8125 -3.828125q-0.65625 0 -1.171875 0.328125q-0.5 0.3125 -0.796875 0.84375q-0.296875 0.53125 -0.4375 1.171875q-0.140625 0.625 -0.140625 1.3125q0 0.609375 0.078125 1.140625q0.09375 0.515625 0.28125 1.0q0.203125 0.46875 0.484375 0.8125q0.296875 0.34375 0.734375 0.546875q0.4375 0.1875 0.984375 0.1875zm8.515625 1.671875l-0.171875 -0.71875l0.46875 -0.015625q0.25 0 0.453125 -0.046875q0.203125 -0.03125 0.34375 -0.09375q0.15625 -0.046875 0.265625 -0.15625q0.125 -0.109375 0.1875 -0.1875q0.078125 -0.09375 0.125 -0.265625q0.0625 -0.171875 0.078125 -0.28125q0.03125 -0.109375 0.046875 -0.3125q0.015625 -0.21875 0.015625 -0.328125q0 -0.125 0 -0.359375l0 -10.140625l1.046875 0l0 9.453125q0 0.5 -0.015625 0.75q0 0.234375 -0.03125 0.625q-0.015625 0.375 -0.0625 0.5625q-0.046875 0.171875 -0.140625 0.453125q-0.09375 0.28125 -0.234375 0.390625q-0.140625 0.125 -0.34375 0.28125q-0.203125 0.171875 -0.484375 0.234375q-0.265625 0.0625 -0.640625 0.109375q-0.359375 0.046875 -0.8125 0.046875l-0.09375 0zm9.125004 -0.890625q-1.46875 0 -2.609375 -0.3125q-1.125 -0.328125 -1.75 -0.703125l0.375 -0.703125q1.640625 0.890625 4.078125 0.890625q1.328125 0 2.046875 -0.6875q0.734375 -0.703125 0.734375 -1.96875q0 -0.46875 -0.09375 -0.78125q-0.078125 -0.328125 -0.3125 -0.625q-0.234375 -0.296875 -0.6875 -0.484375q-0.453125 -0.203125 -1.140625 -0.34375l-1.875 -0.375q-1.578125 -0.3125 -2.359375 -0.984375q-0.78125 -0.671875 -0.78125 -1.921875q0 -0.796875 0.3125 -1.390625q0.3125 -0.59375 0.890625 -0.9375q0.59375 -0.359375 1.375 -0.515625q0.78125 -0.171875 1.765625 -0.171875q0.984375 0 1.921875 0.25q0.953125 0.234375 1.546875 0.53125l-0.25 0.765625q-0.46875 -0.25 -1.375 -0.484375q-0.890625 -0.234375 -1.859375 -0.234375q-1.65625 0 -2.484375 0.5625q-0.828125 0.546875 -0.828125 1.734375q0 0.734375 0.515625 1.1875q0.53125 0.453125 1.5625 0.671875l2.09375 0.421875q0.78125 0.171875 1.3125 0.40625q0.546875 0.21875 0.96875 0.578125q0.421875 0.359375 0.625 0.890625q0.203125 0.53125 0.203125 1.265625q0 1.640625 -1.078125 2.5625q-1.078125 0.90625 -2.84375 0.90625zm10.9765625 -0.828125q1.4375 0 2.40625 -0.65625q0.984375 -0.65625 1.4375 -1.796875q0.46875 -1.15625 0.46875 -2.734375q0 -2.46875 -1.09375 -3.8125q-1.09375 -1.359375 -3.21875 -1.359375q-2.125 0 -3.25 1.359375q-1.109375 1.34375 -1.109375 3.8125q0 2.40625 1.109375 3.796875q1.109375 1.390625 3.25 1.390625zm0 0.828125q-1.328125 0 -2.375 -0.4375q-1.046875 -0.453125 -1.71875 -1.25q-0.65625 -0.8125 -1.015625 -1.90625q-0.34375 -1.09375 -0.34375 -2.40625q0 -2.765625 1.421875 -4.390625q1.4375 -1.625 4.03125 -1.625q2.5625 0 3.984375 1.640625q1.4375 1.625 1.4375 4.375q0 1.296875 -0.359375 2.390625q-0.34375 1.078125 -1.015625 1.890625q-0.671875 0.796875 -1.71875 1.265625q-1.03125 0.453125 -2.328125 0.453125zm7.7578125 -0.1875l0 -11.625l1.171875 0l6.390625 9.796875l0.421875 0.578125q-0.0625 -2.40625 -0.0625 -3.0l0 -7.375l0.953125 0l0 11.625l-1.1875 0l-6.390625 -9.796875l-0.390625 -0.5625q0.0625 1.75 0.0625 3.03125l0 7.328125l-0.96875 0z" fill-rule="nonzero"/><path fill="#000000" d="m24.479658 73.914955q-1.078125 0 -1.578125 -0.484375q-0.5 -0.5 -0.5 -1.609375l0 -5.953125l-1.203125 0l0.0625 -0.578125l1.15625 -0.109375l0.265625 -1.96875l0.671875 -0.046875l0 2.0l2.5 0l0 0.703125l-2.5 0l0 5.75q0 0.90625 0.296875 1.21875q0.296875 0.3125 1.046875 0.3125q0.484375 0 1.203125 -0.1875l0.046875 0.75q-0.953125 0.203125 -1.46875 0.203125zm5.15625 0q-1.203125 0 -1.9375 -0.609375q-0.71875 -0.609375 -0.71875 -1.75q0 -0.671875 0.28125 -1.15625q0.296875 -0.5 0.84375 -0.8125q0.546875 -0.3125 1.25 -0.484375q0.71875 -0.171875 1.65625 -0.234375q0.9999981 -0.0625 1.4843731 -0.109375l0 -0.953125q0 -0.984375 -0.453125 -1.46875q-0.4531231 -0.5 -1.4374981 -0.5q-1.359375 0 -2.546875 0.640625q-0.03125 -0.078125 -0.140625 -0.328125q-0.109375 -0.265625 -0.15625 -0.40625q0.484375 -0.3125 1.265625 -0.515625q0.78125 -0.21875 1.53125 -0.21875q1.5312481 0 2.203123 0.65625q0.671875 0.65625 0.671875 2.34375l0 5.71875l-0.75 0q-0.046875 -0.1875 -0.125 -0.71875q-0.0625 -0.53125 -0.0625 -0.546875q-1.0156231 1.453125 -2.859373 1.453125zm0.03125 -0.78125q1.0 0 1.78125 -0.578125q0.7812481 -0.59375 1.0156231 -1.640625l0 -1.46875q-1.1249981 0.09375 -1.1249981 0.09375q-1.90625 0.171875 -2.65625 0.625q-0.734375 0.453125 -0.734375 1.40625q0 0.78125 0.46875 1.171875q0.46875 0.390625 1.25 0.390625zm7.4140606 4.578125l-0.109375 -0.875l1.8125 0q0.59375 0 1.046875 -0.109375q0.46875 -0.09375 0.78125 -0.265625q0.328125 -0.171875 0.546875 -0.46875q0.21875 -0.296875 0.34375 -0.59375q0.125 -0.296875 0.1875 -0.78125q0.078125 -0.46875 0.09375 -0.875q0.015625 -0.390625 0.015625 -0.984375q0 0.078125 -0.015625 -0.046875q-0.046875 -0.53125 -0.046875 -0.53125q-0.484375 0.734375 -1.15625 1.140625q-0.671875 0.40625 -1.640625 0.40625q-0.765625 0 -1.40625 -0.265625q-0.625 -0.28125 -1.03125 -0.71875q-0.390625 -0.4375 -0.671875 -1.0q-0.265625 -0.5625 -0.390625 -1.125q-0.109375 -0.5625 -0.109375 -1.109375q0 -0.6875 0.109375 -1.296875q0.109375 -0.625 0.390625 -1.21875q0.28125 -0.59375 0.703125 -1.03125q0.421875 -0.4375 1.078125 -0.6875q0.671875 -0.265625 1.515625 -0.265625q0.8125 0 1.4375 0.328125q0.640625 0.3125 1.171875 1.03125l0.09375 -1.203125l0.859375 0l0 7.9375q0 0.515625 -0.015625 0.828125q0 0.328125 -0.09375 0.859375q-0.078125 0.546875 -0.21875 0.890625q-0.140625 0.359375 -0.4375 0.78125q-0.296875 0.421875 -0.71875 0.65625q-0.421875 0.25 -1.078125 0.421875q-0.640625 0.171875 -1.46875 0.171875l-1.578125 0zm1.984375 -4.78125q0.5625 0 1.015625 -0.171875q0.46875 -0.1875 0.765625 -0.484375q0.3125 -0.3125 0.515625 -0.71875q0.203125 -0.40625 0.28125 -0.828125q0.09375 -0.4375 0.09375 -0.90625l0 -0.890625q0 -0.609375 -0.15625 -1.140625q-0.140625 -0.546875 -0.453125 -1.0q-0.296875 -0.453125 -0.84375 -0.71875q-0.53125 -0.265625 -1.25 -0.265625q-0.578125 0 -1.046875 0.21875q-0.453125 0.21875 -0.75 0.59375q-0.296875 0.359375 -0.5 0.859375q-0.203125 0.484375 -0.296875 1.0q-0.078125 0.515625 -0.078125 1.046875q0 0.484375 0.078125 0.9375q0.078125 0.4375 0.265625 0.90625q0.1875 0.453125 0.484375 0.796875q0.296875 0.34375 0.78125 0.5625q0.484375 0.203125 1.09375 0.203125zm11.984375 1.0q-0.828125 0 -1.5625 -0.203125q-0.71875 -0.21875 -1.140625 -0.5l0.140625 -0.8125q1.28125 0.671875 2.46875 0.671875q2.109375 0 2.1875 -1.5625q0 -0.65625 -0.421875 -1.03125q-0.421875 -0.375 -1.703125 -0.78125q-0.671875 -0.234375 -0.75 -0.265625q-2.0 -0.609375 -2.015625 -2.15625q0 -0.90625 0.78125 -1.59375q0.796875 -0.6875 2.140625 -0.6875q1.359375 0 2.546875 0.53125l-0.328125 0.71875q-1.203125 -0.453125 -2.234375 -0.453125q-0.90625 0 -1.421875 0.40625q-0.515625 0.40625 -0.515625 1.09375q0 0.578125 0.328125 0.890625q0.34375 0.296875 1.359375 0.578125q0.109375 0.03125 0.390625 0.140625q0.296875 0.109375 0.328125 0.125q1.359375 0.40625 1.890625 0.984375q0.53125 0.5625 0.53125 1.53125q-0.015625 1.125 -0.84375 1.75q-0.8125 0.625 -2.15625 0.625zm8.34375 -0.015625q-1.78125 0 -2.828125 -1.1875q-1.03125 -1.1875 -1.03125 -3.21875q0 -1.96875 1.015625 -3.21875q1.015625 -1.25 2.640625 -1.28125q1.5 0 2.40625 1.078125q0.921875 1.078125 0.921875 2.890625q0 0.0625 0 0.28125q0 0.21875 0 0.296875l-5.96875 0q0.015625 1.65625 0.796875 2.625q0.78125 0.953125 2.0625 0.953125q0.84375 0 1.453125 -0.1875q0.625 -0.203125 1.296875 -0.5625l0.15625 0.734375q-1.296875 0.796875 -2.921875 0.796875zm-2.796875 -5.140625l4.875 0q0 -1.421875 -0.625 -2.1875q-0.609375 -0.765625 -1.6875 -0.765625q-1.09375 0 -1.765625 0.8125q-0.671875 0.8125 -0.796875 2.140625zm7.8671913 4.953125l0 -8.5625l0.84375 0l0.125 1.3125q0.46875 -0.6875 1.234375 -1.078125q0.78125 -0.390625 1.6875 -0.390625q1.46875 0 2.15625 0.8125q0.703125 0.8125 0.703125 2.59375l0 5.3125l-0.96875 0l0 -5.75q-0.046875 -1.140625 -0.5 -1.640625q-0.4375 -0.5 -1.453125 -0.5q-1.15625 0 -1.90625 0.59375q-0.734375 0.578125 -0.921875 1.5q-0.03125 0.375 -0.03125 0.765625l0 5.03125l-0.96875 0zm11.5 0.203125q-0.828125 0 -1.5625 -0.203125q-0.71875 -0.21875 -1.140625 -0.5l0.140625 -0.8125q1.28125 0.671875 2.46875 0.671875q2.109375 0 2.1875 -1.5625q0 -0.65625 -0.421875 -1.03125q-0.421875 -0.375 -1.703125 -0.78125q-0.671875 -0.234375 -0.75 -0.265625q-2.0 -0.609375 -2.015625 -2.15625q0 -0.90625 0.78125 -1.59375q0.796875 -0.6875 2.140625 -0.6875q1.359375 0 2.546875 0.53125l-0.328125 0.71875q-1.203125 -0.453125 -2.234375 -0.453125q-0.90625 0 -1.421875 0.40625q-0.515625 0.40625 -0.515625 1.09375q0 0.578125 0.328125 0.890625q0.34375 0.296875 1.359375 0.578125q0.109375 0.03125 0.390625 0.140625q0.296875 0.109375 0.328125 0.125q1.359375 0.40625 1.890625 0.984375q0.53125 0.5625 0.53125 1.53125q-0.015625 1.125 -0.84375 1.75q-0.8125 0.625 -2.15625 0.625zm8.421875 -0.796875q0.9375 0 1.578125 -0.484375q0.640625 -0.5 0.9375 -1.3125q0.296875 -0.8125 0.296875 -1.875q0 -1.65625 -0.703125 -2.65625q-0.703125 -1.015625 -2.140625 -1.015625q-0.9375 0 -1.609375 0.515625q-0.65625 0.5 -0.96875 1.3125q-0.296875 0.8125 -0.296875 1.875q0 1.59375 0.75 2.625q0.75 1.015625 2.15625 1.015625zm-0.078125 0.78125q-1.15625 0 -2.046875 -0.578125q-0.890625 -0.59375 -1.359375 -1.59375q-0.453125 -1.015625 -0.453125 -2.28125q0 -0.953125 0.265625 -1.765625q0.265625 -0.8125 0.765625 -1.40625q0.5 -0.609375 1.234375 -0.9375q0.75 -0.34375 1.65625 -0.34375q1.203125 0 2.078125 0.59375q0.890625 0.578125 1.328125 1.578125q0.453125 1.0 0.453125 2.265625q0 1.28125 -0.453125 2.28125q-0.453125 1.0 -1.359375 1.59375q-0.890625 0.59375 -2.109375 0.59375zm5.84375 -0.1875q-0.015625 -7.546875 -0.015625 -8.5625l0.796875 0l0.0625 1.6875q0.453125 -0.765625 1.15625 -1.25q0.71875 -0.484375 1.5 -0.484375q0.3125 0 0.6875 0.046875l-0.078125 0.8125q-0.28125 -0.046875 -0.59375 -0.046875q-1.078125 0 -1.828125 0.859375q-0.734375 0.84375 -0.734375 2.015625l0 4.921875l-0.953125 0zm5.6640625 0l0 -8.5625l0.984375 0l0 8.5625l-0.984375 0zm0 -10.3125l0 -1.3125l0.96875 0l0 1.3125l-0.96875 0z" fill-rule="nonzero"/><path fill="#000000" fill-opacity="0.0" d="m198.96588 37.947643l0 0c0 -3.7689476 3.0553284 -6.8242836 6.82428 -6.8242836l160.87112 0c1.809906 0 3.5456848 0.7189846 4.8255005 1.9987869c1.2797852 1.2798004 1.9987793 3.015583 1.9987793 4.8254967l0 27.296314c0 3.7689514 -3.0553284 6.8242874 -6.82428 6.8242874l-160.87112 0c-3.7689514 0 -6.82428 -3.055336 -6.82428 -6.8242874z" fill-rule="evenodd"/><path stroke="#ffab40" stroke-width="2.0" stroke-linejoin="round" stroke-linecap="butt" d="m198.96588 37.947643l0 0c0 -3.7689476 3.0553284 -6.8242836 6.82428 -6.8242836l160.87112 0c1.809906 0 3.5456848 0.7189846 4.8255005 1.9987869c1.2797852 1.2798004 1.9987793 3.015583 1.9987793 4.8254967l0 27.296314c0 3.7689514 -3.0553284 6.8242874 -6.82428 6.8242874l-160.87112 0c-3.7689514 0 -6.82428 -3.055336 -6.82428 -6.8242874z" fill-rule="evenodd"/><path fill="#000000" d="m219.17104 47.9558l0 -11.625l3.3125 0q0.640625 0 1.09375 0.03125q0.46875 0.015625 0.953125 0.09375q0.484375 0.078125 0.828125 0.203125q0.34375 0.125 0.640625 0.34375q0.3125 0.21875 0.5 0.53125q0.1875 0.3125 0.296875 0.75q0.109375 0.421875 0.109375 0.96875q0 1.0625 -0.53125 1.828125q-0.515625 0.765625 -1.59375 1.046875q0.46875 0.953125 0.703125 1.453125l1.90625 4.375l-1.171875 0l-1.640625 -3.984375q-0.15625 -0.390625 -0.734375 -1.6875q-0.15625 0.03125 -1.15625 0.03125l-2.515625 -0.046875l0 5.6875l-1.0 0zm3.953125 -6.46875q1.546875 0 2.15625 -0.546875q0.625 -0.546875 0.625 -1.671875q0 -1.015625 -0.5625 -1.5625q-0.546875 -0.546875 -1.890625 -0.546875l-3.28125 0l0 4.296875q1.84375 0.03125 2.953125 0.03125zm9.6640625 6.65625q-1.78125 0 -2.828125 -1.1875q-1.03125 -1.1875 -1.03125 -3.21875q0 -1.96875 1.015625 -3.21875q1.015625 -1.25 2.640625 -1.28125q1.5 0 2.40625 1.078125q0.921875 1.078125 0.921875 2.890625q0 0.0625 0 0.28125q0 0.21875 0 0.296875l-5.96875 0q0.015625 1.65625 0.796875 2.625q0.78125 0.953125 2.0625 0.953125q0.84375 0 1.453125 -0.1875q0.625 -0.203125 1.296875 -0.5625l0.15625 0.734375q-1.296875 0.796875 -2.921875 0.796875zm-2.796875 -5.140625l4.875 0q0 -1.421875 -0.625 -2.1875q-0.609375 -0.765625 -1.6875 -0.765625q-1.09375 0 -1.765625 0.8125q-0.671875 0.8125 -0.796875 2.140625zm10.046875 5.140625q-1.203125 0 -1.9375 -0.609375q-0.71875 -0.609375 -0.71875 -1.75q0 -0.671875 0.28125 -1.15625q0.296875 -0.5 0.84375 -0.8125q0.546875 -0.3125 1.25 -0.484375q0.71875 -0.171875 1.65625 -0.234375q1.0 -0.0625 1.484375 -0.109375l0 -0.953125q0 -0.984375 -0.453125 -1.46875q-0.453125 -0.5 -1.4375 -0.5q-1.359375 0 -2.546875 0.640625q-0.03125 -0.078125 -0.140625 -0.328125q-0.109375 -0.265625 -0.15625 -0.40625q0.484375 -0.3125 1.265625 -0.515625q0.78125 -0.21875 1.53125 -0.21875q1.53125 0 2.203125 0.65625q0.671875 0.65625 0.671875 2.34375l0 5.71875l-0.75 0q-0.046875 -0.1875 -0.125 -0.71875q-0.0625 -0.53125 -0.0625 -0.546875q-1.015625 1.453125 -2.859375 1.453125zm0.03125 -0.78125q1.0 0 1.78125 -0.578125q0.78125 -0.59375 1.015625 -1.640625l0 -1.46875q-1.125 0.09375 -1.125 0.09375q-1.90625 0.171875 -2.65625 0.625q-0.734375 0.453125 -0.734375 1.40625q0 0.78125 0.46875 1.171875q0.46875 0.390625 1.25 0.390625zm9.3359375 0.78125q-1.71875 0 -2.671875 -1.1875q-0.953125 -1.203125 -0.953125 -3.296875q0 -1.96875 0.984375 -3.1875q0.984375 -1.234375 2.609375 -1.234375q0.796875 0 1.59375 0.34375q0.796875 0.34375 1.203125 1.0625l0 -0.25l0 -4.328125l0.9375 -0.078125l0 11.96875l-0.796875 0l-0.140625 -1.296875q-0.453125 0.734375 -1.21875 1.109375q-0.75 0.375 -1.546875 0.375zm-0.03125 -0.78125q0.734375 0 1.28125 -0.265625q0.546875 -0.265625 0.875 -0.75q0.328125 -0.484375 0.484375 -1.109375q0.15625 -0.625 0.15625 -1.390625q0 -3.828125 -2.8125 -3.828125q-0.65625 0 -1.171875 0.328125q-0.5 0.3125 -0.796875 0.84375q-0.296875 0.53125 -0.4375 1.171875q-0.140625 0.625 -0.140625 1.3125q0 0.609375 0.078125 1.140625q0.09375 0.515625 0.28125 1.0q0.203125 0.46875 0.484375 0.8125q0.296875 0.34375 0.734375 0.546875q0.4375 0.1875 0.984375 0.1875zm13.124985 0.78125q-1.78125 0 -2.828125 -1.1875q-1.03125 -1.1875 -1.03125 -3.21875q0 -1.96875 1.015625 -3.21875q1.015625 -1.25 2.640625 -1.28125q1.5 0 2.40625 1.078125q0.921875 1.078125 0.921875 2.890625q0 0.0625 0 0.28125q0 0.21875 0 0.296875l-5.96875 0q0.015625 1.65625 0.796875 2.625q0.78125 0.953125 2.0625 0.953125q0.84375 0 1.453125 -0.1875q0.625 -0.203125 1.296875 -0.5625l0.15625 0.734375q-1.296875 0.796875 -2.921875 0.796875zm-2.796875 -5.140625l4.875 0q0 -1.421875 -0.625 -2.1875q-0.609375 -0.765625 -1.6875 -0.765625q-1.09375 0 -1.765625 0.8125q-0.671875 0.8125 -0.796875 2.140625zm9.9921875 4.953125l-3.265625 -8.5625l1.03125 0l1.984375 5.390625q0.15625 0.515625 0.375 1.09375q0.21875 0.5625 0.34375 0.890625l0.140625 0.3125q0.140625 -0.5 0.375 -1.0625q0.25 -0.578125 0.4375 -1.203125q0.21875 -0.671875 0.765625 -2.03125q0.5625 -1.359375 1.21875 -3.390625l1.03125 0l-3.3125 8.5625l-1.125 0zm9.0703125 0.1875q-1.78125 0 -2.828125 -1.1875q-1.03125 -1.1875 -1.03125 -3.21875q0 -1.96875 1.015625 -3.21875q1.015625 -1.25 2.640625 -1.28125q1.5 0 2.40625 1.078125q0.921875 1.078125 0.921875 2.890625q0 0.0625 0 0.28125q0 0.21875 0 0.296875l-5.96875 0q0.015625 1.65625 0.796875 2.625q0.78125 0.953125 2.0625 0.953125q0.84375 0 1.453125 -0.1875q0.625 -0.203125 1.296875 -0.5625l0.15625 0.734375q-1.296875 0.796875 -2.921875 0.796875zm-2.796875 -5.140625l4.875 0q0 -1.421875 -0.625 -2.1875q-0.609375 -0.765625 -1.6875 -0.765625q-1.09375 0 -1.765625 0.8125q-0.671875 0.8125 -0.796875 2.140625zm7.8671875 4.953125l0 -8.5625l0.84375 0l0.125 1.3125q0.46875 -0.6875 1.234375 -1.078125q0.78125 -0.390625 1.6875 -0.390625q1.46875 0 2.15625 0.8125q0.703125 0.8125 0.703125 2.59375l0 5.3125l-0.96875 0l0 -5.75q-0.046875 -1.140625 -0.5 -1.640625q-0.4375 -0.5 -1.453125 -0.5q-1.15625 0 -1.90625 0.59375q-0.734375 0.578125 -0.921875 1.5q-0.03125 0.375 -0.03125 0.765625l0 5.03125l-0.96875 0zm11.40625 0.1875q-1.078125 0 -1.578125 -0.484375q-0.5 -0.5 -0.5 -1.609375l0 -5.953125l-1.203125 0l0.0625 -0.578125l1.15625 -0.109375l0.265625 -1.96875l0.671875 -0.046875l0 2.0l2.5 0l0 0.703125l-2.5 0l0 5.75q0 0.90625 0.296875 1.21875q0.296875 0.3125 1.046875 0.3125q0.484375 0 1.203125 -0.1875l0.046875 0.75q-0.953125 0.203125 -1.46875 0.203125zm2.96875 -0.1875l0 -8.5625l0.984375 0l0 8.5625l-0.984375 0zm0 -10.3125l0 -1.3125l0.96875 0l0 1.3125l-0.96875 0zm9.5 10.515625q-0.828125 0 -1.5625 -0.203125q-0.71875 -0.21875 -1.140625 -0.5l0.140625 -0.8125q1.28125 0.671875 2.46875 0.671875q2.109375 0 2.1875 -1.5625q0 -0.65625 -0.421875 -1.03125q-0.421875 -0.375 -1.703125 -0.78125q-0.671875 -0.234375 -0.75 -0.265625q-2.0 -0.609375 -2.015625 -2.15625q0 -0.90625 0.78125 -1.59375q0.796875 -0.6875 2.140625 -0.6875q1.359375 0 2.546875 0.53125l-0.328125 0.71875q-1.203125 -0.453125 -2.234375 -0.453125q-0.90625 0 -1.421875 0.40625q-0.515625 0.40625 -0.515625 1.09375q0 0.578125 0.328125 0.890625q0.34375 0.296875 1.359375 0.578125q0.109375 0.03125 0.390625 0.140625q0.296875 0.109375 0.328125 0.125q1.359375 0.40625 1.890625 0.984375q0.53125 0.5625 0.53125 1.53125q-0.015625 1.125 -0.84375 1.75q-0.8125 0.625 -2.15625 0.625zm8.34375 -0.015625q-1.78125 0 -2.828125 -1.1875q-1.03125 -1.1875 -1.03125 -3.21875q0 -1.96875 1.015625 -3.21875q1.015625 -1.25 2.640625 -1.28125q1.5 0 2.40625 1.078125q0.921875 1.078125 0.921875 2.890625q0 0.0625 0 0.28125q0 0.21875 0 0.296875l-5.96875 0q0.015625 1.65625 0.796875 2.625q0.78125 0.953125 2.0625 0.953125q0.84375 0 1.453125 -0.1875q0.625 -0.203125 1.296875 -0.5625l0.15625 0.734375q-1.296875 0.796875 -2.921875 0.796875zm-2.796875 -5.140625l4.875 0q0 -1.421875 -0.625 -2.1875q-0.609375 -0.765625 -1.6875 -0.765625q-1.09375 0 -1.765625 0.8125q-0.671875 0.8125 -0.796875 2.140625zm7.8671875 4.953125l0 -8.5625l0.84375 0l0.125 1.3125q0.46875 -0.6875 1.234375 -1.078125q0.78125 -0.390625 1.6875 -0.390625q1.46875 0 2.15625 0.8125q0.703125 0.8125 0.703125 2.59375l0 5.3125l-0.96875 0l0 -5.75q-0.046875 -1.140625 -0.5 -1.640625q-0.4375 -0.5 -1.453125 -0.5q-1.15625 0 -1.90625 0.59375q-0.734375 0.578125 -0.921875 1.5q-0.03125 0.375 -0.03125 0.765625l0 5.03125l-0.96875 0zm11.5 0.203125q-0.828125 0 -1.5625 -0.203125q-0.71875 -0.21875 -1.140625 -0.5l0.140625 -0.8125q1.28125 0.671875 2.46875 0.671875q2.109375 0 2.1875 -1.5625q0 -0.65625 -0.421875 -1.03125q-0.421875 -0.375 -1.703125 -0.78125q-0.671875 -0.234375 -0.75 -0.265625q-2.0 -0.609375 -2.015625 -2.15625q0 -0.90625 0.78125 -1.59375q0.796875 -0.6875 2.140625 -0.6875q1.359375 0 2.546875 0.53125l-0.328125 0.71875q-1.203125 -0.453125 -2.234375 -0.453125q-0.90625 0 -1.421875 0.40625q-0.515625 0.40625 -0.515625 1.09375q0 0.578125 0.328125 0.890625q0.34375 0.296875 1.359375 0.578125q0.109375 0.03125 0.390625 0.140625q0.296875 0.109375 0.328125 0.125q1.359375 0.40625 1.890625 0.984375q0.53125 0.5625 0.53125 1.53125q-0.015625 1.125 -0.84375 1.75q-0.8125 0.625 -2.15625 0.625zm8.421875 -0.796875q0.9375 0 1.578125 -0.484375q0.640625 -0.5 0.9375 -1.3125q0.296875 -0.8125 0.296875 -1.875q0 -1.65625 -0.703125 -2.65625q-0.703125 -1.015625 -2.140625 -1.015625q-0.9375 0 -1.609375 0.515625q-0.65625 0.5 -0.96875 1.3125q-0.296875 0.8125 -0.296875 1.875q0 1.59375 0.75 2.625q0.75 1.015625 2.15625 1.015625zm-0.078125 0.78125q-1.15625 0 -2.046875 -0.578125q-0.890625 -0.59375 -1.359375 -1.59375q-0.453125 -1.015625 -0.453125 -2.28125q0 -0.953125 0.265625 -1.765625q0.265625 -0.8125 0.765625 -1.40625q0.5 -0.609375 1.234375 -0.9375q0.75 -0.34375 1.65625 -0.34375q1.203125 0 2.078125 0.59375q0.890625 0.578125 1.328125 1.578125q0.453125 1.0 0.453125 2.265625q0 1.28125 -0.453125 2.28125q-0.453125 1.0 -1.359375 1.59375q-0.890625 0.59375 -2.109375 0.59375zm5.84375 -0.1875q-0.015625 -7.546875 -0.015625 -8.5625l0.796875 0l0.0625 1.6875q0.453125 -0.765625 1.15625 -1.25q0.71875 -0.484375 1.5 -0.484375q0.3125 0 0.6875 0.046875l-0.078125 0.8125q-0.28125 -0.046875 -0.59375 -0.046875q-1.078125 0 -1.828125 0.859375q-0.734375 0.84375 -0.734375 2.015625l0 4.921875l-0.953125 0zm5.6640625 0l0 -8.5625l0.984375 0l0 8.5625l-0.984375 0zm0 -10.3125l0 -1.3125l0.96875 0l0 1.3125l-0.96875 0z" fill-rule="nonzero"/><path fill="#000000" d="m252.63588 67.1433q-1.71875 0 -2.671875 -1.1875q-0.953125 -1.203125 -0.953125 -3.2968788q0 -1.96875 0.984375 -3.1875q0.984375 -1.234375 2.609375 -1.234375q0.796875 0 1.59375 0.34375q0.796875 0.34375 1.203125 1.0625l0 -0.25l0 -4.328125l0.93748474 -0.078125l0 11.968754l-0.79685974 0l-0.140625 -1.296875q-0.453125 0.734375 -1.21875 1.109375q-0.75 0.375 -1.546875 0.375zm-0.03125 -0.78125q0.734375 0 1.28125 -0.265625q0.546875 -0.265625 0.875 -0.75q0.328125 -0.484375 0.484375 -1.109375q0.15625 -0.6250038 0.15625 -1.3906288q0 -3.828125 -2.8125 -3.828125q-0.65625 0 -1.171875 0.328125q-0.5 0.3125 -0.796875 0.84375q-0.296875 0.53125 -0.4375 1.171875q-0.140625 0.625 -0.140625 1.3125q0 0.609375 0.078125 1.140625q0.09375 0.5156288 0.28125 1.0000038q0.203125 0.46875 0.484375 0.8125q0.296875 0.34375 0.734375 0.546875q0.4375 0.1875 0.984375 0.1875zm8.320297 0.78125q-1.203125 0 -1.9375 -0.609375q-0.71875 -0.609375 -0.71875 -1.75q0 -0.671875 0.28125 -1.1562538q0.296875 -0.5 0.84375 -0.8125q0.546875 -0.3125 1.25 -0.484375q0.71875 -0.171875 1.65625 -0.234375q1.0 -0.0625 1.484375 -0.109375l0 -0.953125q0 -0.984375 -0.453125 -1.46875q-0.453125 -0.5 -1.4375 -0.5q-1.359375 0 -2.546875 0.640625q-0.03125 -0.078125 -0.140625 -0.328125q-0.109375 -0.265625 -0.15625 -0.40625q0.484375 -0.3125 1.265625 -0.515625q0.78125 -0.21875 1.53125 -0.21875q1.53125 0 2.203125 0.65625q0.671875 0.65625 0.671875 2.34375l0 5.718754l-0.75 0q-0.046875 -0.1875 -0.125 -0.71875q-0.0625 -0.53125 -0.0625 -0.546875q-1.015625 1.453125 -2.859375 1.453125zm0.03125 -0.78125q1.0 0 1.78125 -0.578125q0.78125 -0.59375 1.015625 -1.640625l0 -1.4687538q-1.125 0.09375 -1.125 0.09375q-1.90625 0.171875 -2.65625 0.625q-0.734375 0.453125 -0.734375 1.4062538q0 0.78125 0.46875 1.171875q0.46875 0.390625 1.25 0.390625zm9.984375 0.59375l0 -11.625004l3.5625 0q0.75 0 1.359375 0.15625q0.625 0.15625 1.109375 0.5q0.5 0.328125 0.765625 0.90625q0.28125 0.578125 0.28125 1.34375q0 0.4375 -0.046875 0.796875q-0.03125 0.359375 -0.15625 0.734375q-0.109375 0.375 -0.3125 0.65625q-0.203125 0.28125 -0.53125 0.546875q-0.3125 0.25 -0.765625 0.421875q-0.4375 0.15625 -1.0625 0.25q-0.609375 0.09375 -1.375 0.09375q-0.828125 0 -1.8125 -0.109375l0 5.328129l-1.015625 0zm2.921875 -6.093754q0.90625 0 1.53125 -0.171875q0.640625 -0.1875 0.953125 -0.40625q0.3125 -0.234375 0.46875 -0.640625q0.171875 -0.421875 0.1875 -0.671875q0.03125 -0.25 0.03125 -0.703125q0 -0.03125 0 -0.046875q0 -1.015625 -0.703125 -1.515625q-0.6875 -0.5 -1.796875 -0.5l-2.578125 0l0 4.5625q0.6875 0.09375 1.90625 0.09375zm9.1171875 6.312504q-0.671875 0 -1.25 -0.15625q-0.578125 -0.15625 -1.078125 -0.484375q-0.484375 -0.328125 -0.765625 -0.921875q-0.28125 -0.59375 -0.28125 -1.390625l0 -5.828129l0.96875 0l0 5.843754q0 0.609375 0.1875 1.03125q0.1875 0.421875 0.53125 0.640625q0.359375 0.21875 0.75 0.3125q0.40625 0.078125 0.9375 0.078125q0.515625 0 0.90625 -0.09375q0.40625 -0.09375 0.75 -0.3125q0.34375 -0.21875 0.53125 -0.625q0.1875 -0.421875 0.1875 -1.03125l0 -5.843754l0.96875 0l0 5.828129q0 0.65625 -0.1875 1.171875q-0.1875 0.515625 -0.5 0.84375q-0.3125 0.328125 -0.765625 0.546875q-0.4375 0.21875 -0.90625 0.296875q-0.453125 0.09375 -0.984375 0.09375zm9.140625 -0.03125q-1.75 0 -2.78125 -1.4375l-0.09375 1.25l-0.8125 0l0 -11.890629l0.953125 -0.078125l0 2.875q0 1.328125 -0.015625 1.828125q0.46875 -0.734375 1.203125 -1.09375q0.75 -0.359375 1.546875 -0.359375q1.734375 0 2.703125 1.234375q0.96875 1.234375 0.96875 3.1875q0 1.3125 -0.40625 2.3125038q-0.390625 1.0 -1.234375 1.59375q-0.84375 0.578125 -2.03125 0.578125zm0.046875 -0.78125q0.71875 0 1.234375 -0.296875q0.53125 -0.3125 0.8125 -0.84375q0.296875 -0.546875 0.421875 -1.15625q0.125 -0.6250038 0.125 -1.3593788q0 -0.578125 -0.078125 -1.078125q-0.0625 -0.515625 -0.265625 -1.0q-0.1875 -0.5 -0.46875 -0.84375q-0.28125 -0.34375 -0.75 -0.546875q-0.453125 -0.21875 -1.03125 -0.21875q-1.359375 0 -2.078125 0.984375q-0.703125 0.96875 -0.703125 2.75q0 0.828125 0.15625 1.4687538q0.15625 0.640625 0.46875 1.140625q0.328125 0.484375 0.859375 0.75q0.546875 0.25 1.296875 0.25zm9.5234375 0.78125q-1.46875 0 -2.609375 -0.3125q-1.125 -0.328125 -1.75 -0.703125l0.375 -0.703125q1.640625 0.890625 4.078125 0.890625q1.328125 0 2.046875 -0.6875q0.734375 -0.703125 0.734375 -1.9687538q0 -0.46875 -0.09375 -0.78125q-0.078125 -0.328125 -0.3125 -0.625q-0.234375 -0.296875 -0.6875 -0.484375q-0.453125 -0.203125 -1.140625 -0.34375l-1.875 -0.375q-1.578125 -0.3125 -2.359375 -0.984375q-0.78125 -0.671875 -0.78125 -1.921875q0 -0.796875 0.3125 -1.390625q0.3125 -0.59375 0.890625 -0.9375q0.59375 -0.359375 1.375 -0.515625q0.78125 -0.171875 1.765625 -0.171875q0.984375 0 1.921875 0.25q0.953125 0.234375 1.546875 0.53125l-0.25 0.765625q-0.46875 -0.25 -1.375 -0.484375q-0.890625 -0.234375 -1.859375 -0.234375q-1.65625 0 -2.484375 0.5625q-0.828125 0.546875 -0.828125 1.734375q0 0.734375 0.515625 1.1875q0.53125 0.453125 1.5625 0.671875l2.09375 0.421875q0.78125 0.171875 1.3125 0.40625q0.546875 0.21875 0.96875 0.578125q0.421875 0.359375 0.625 0.890625q0.203125 0.53125 0.203125 1.265625q0 1.6406288 -1.078125 2.5625038q-1.078125 0.90625 -2.84375 0.90625zm8.9453125 0.03125q-0.671875 0 -1.25 -0.15625q-0.578125 -0.15625 -1.078125 -0.484375q-0.484375 -0.328125 -0.765625 -0.921875q-0.28125 -0.59375 -0.28125 -1.390625l0 -5.828129l0.96875 0l0 5.843754q0 0.609375 0.1875 1.03125q0.1875 0.421875 0.53125 0.640625q0.359375 0.21875 0.75 0.3125q0.40625 0.078125 0.9375 0.078125q0.515625 0 0.90625 -0.09375q0.40625 -0.09375 0.75 -0.3125q0.34375 -0.21875 0.53125 -0.625q0.1875 -0.421875 0.1875 -1.03125l0 -5.843754l0.96875 0l0 5.828129q0 0.65625 -0.1875 1.171875q-0.1875 0.515625 -0.5 0.84375q-0.3125 0.328125 -0.765625 0.546875q-0.4375 0.21875 -0.90625 0.296875q-0.453125 0.09375 -0.984375 0.09375zm9.140625 -0.03125q-1.75 0 -2.78125 -1.4375l-0.09375 1.25l-0.8125 0l0 -11.890629l0.953125 -0.078125l0 2.875q0 1.328125 -0.015625 1.828125q0.46875 -0.734375 1.203125 -1.09375q0.75 -0.359375 1.546875 -0.359375q1.734375 0 2.703125 1.234375q0.96875 1.234375 0.96875 3.1875q0 1.3125 -0.40625 2.3125038q-0.390625 1.0 -1.234375 1.59375q-0.84375 0.578125 -2.03125 0.578125zm0.046875 -0.78125q0.71875 0 1.234375 -0.296875q0.53125 -0.3125 0.8125 -0.84375q0.296875 -0.546875 0.421875 -1.15625q0.125 -0.6250038 0.125 -1.3593788q0 -0.578125 -0.078125 -1.078125q-0.0625 -0.515625 -0.265625 -1.0q-0.1875 -0.5 -0.46875 -0.84375q-0.28125 -0.34375 -0.75 -0.546875q-0.453125 -0.21875 -1.03125 -0.21875q-1.359375 0 -2.078125 0.984375q-0.703125 0.96875 -0.703125 2.75q0 0.828125 0.15625 1.4687538q0.15625 0.640625 0.46875 1.140625q0.328125 0.484375 0.859375 0.75q0.546875 0.25 1.296875 0.25z" fill-rule="nonzero"/><path fill="#000000" fill-opacity="0.0" d="m59.47966 114.79265l0 24.37796l167.27559 0" fill-rule="evenodd"/><path stroke="#999999" stroke-width="2.0" stroke-linejoin="round" stroke-linecap="butt" d="m59.47966 114.79265l0 24.37796l155.27559 0" fill-rule="evenodd"/><path fill="#999999" stroke="#999999" stroke-width="2.0" stroke-linecap="butt" d="m214.75525 142.47408l9.076202 -3.3034668l-9.076202 -3.3034668z" fill-rule="evenodd"/><path fill="#000000" fill-opacity="0.0" d="m226.7454 127.09149l0 0c0 -3.3398666 2.7075043 -6.0473633 6.0473633 -6.0473633l106.86589 0c1.6038818 0 3.1420288 0.63713074 4.2761536 1.7712326c1.1340942 1.1341019 1.7712097 2.6722717 1.7712097 4.2761307l0 24.188736c0 3.339859 -2.707489 6.0473633 -6.0473633 6.0473633l-106.86589 0c-3.339859 0 -6.0473633 -2.7075043 -6.0473633 -6.0473633z" fill-rule="evenodd"/><path stroke="#ffab40" stroke-width="2.0" stroke-linejoin="round" stroke-linecap="butt" d="m226.7454 127.09149l0 0c0 -3.3398666 2.7075043 -6.0473633 6.0473633 -6.0473633l106.86589 0c1.6038818 0 3.1420288 0.63713074 4.2761536 1.7712326c1.1340942 1.1341019 1.7712097 2.6722717 1.7712097 4.2761307l0 24.188736c0 3.339859 -2.707489 6.0473633 -6.0473633 6.0473633l-106.86589 0c-3.339859 0 -6.0473633 -2.7075043 -6.0473633 -6.0473633z" fill-rule="evenodd"/><path fill="#000000" d="m253.42494 145.04585l0 -11.625l6.2499847 0l-0.046875 0.859375l-5.1874847 0l0 4.59375l4.9531097 0l0 0.8125l-4.9531097 0l0 5.359375l-1.015625 0zm7.8359222 0l0 -8.5625l0.984375 0l0 8.5625l-0.984375 0zm0 -10.3125l0 -1.3125l0.96875 0l0 1.3125l-0.96875 0zm5.5390625 10.5q-1.078125 0 -1.578125 -0.484375q-0.5 -0.5 -0.5 -1.609375l0 -9.984375l0.953125 -0.078125l0 10.015625q0 0.78125 0.28125 1.078125q0.28125 0.296875 0.859375 0.296875q0.46875 0 1.171875 -0.1875l0.046875 0.75q-0.765625 0.203125 -1.234375 0.203125zm4.7890625 0q-1.078125 0 -1.578125 -0.484375q-0.5 -0.5 -0.5 -1.609375l0 -5.953125l-1.203125 0l0.0625 -0.578125l1.15625 -0.109375l0.265625 -1.96875l0.671875 -0.046875l0 2.0l2.5 0l0 0.703125l-2.5 0l0 5.75q0 0.90625 0.296875 1.21875q0.296875 0.3125 1.046875 0.3125q0.484375 0 1.203125 -0.1875l0.046875 0.75q-0.953125 0.203125 -1.46875 0.203125zm2.890625 -0.1875q-0.015625 -7.546875 -0.015625 -8.5625l0.796875 0l0.0625 1.6875q0.453125 -0.765625 1.15625 -1.25q0.71875 -0.484375 1.5 -0.484375q0.3125 0 0.6875 0.046875l-0.078125 0.8125q-0.28125 -0.046875 -0.59375 -0.046875q-1.078125 0 -1.828125 0.859375q-0.734375 0.84375 -0.734375 2.015625l0 4.921875l-0.953125 0zm7.7578125 0.1875q-1.203125 0 -1.9375 -0.609375q-0.71875 -0.609375 -0.71875 -1.75q0 -0.671875 0.28125 -1.15625q0.296875 -0.5 0.84375 -0.8125q0.546875 -0.3125 1.25 -0.484375q0.71875 -0.171875 1.65625 -0.234375q1.0 -0.0625 1.484375 -0.109375l0 -0.953125q0 -0.984375 -0.453125 -1.46875q-0.453125 -0.5 -1.4375 -0.5q-1.359375 0 -2.546875 0.640625q-0.03125 -0.078125 -0.140625 -0.328125q-0.109375 -0.265625 -0.15625 -0.40625q0.484375 -0.3125 1.265625 -0.515625q0.78125 -0.21875 1.53125 -0.21875q1.53125 0 2.203125 0.65625q0.671875 0.65625 0.671875 2.34375l0 5.71875l-0.75 0q-0.046875 -0.1875 -0.125 -0.71875q-0.0625 -0.53125 -0.0625 -0.546875q-1.015625 1.453125 -2.859375 1.453125zm0.03125 -0.78125q1.0 0 1.78125 -0.578125q0.78125 -0.59375 1.015625 -1.640625l0 -1.46875q-1.125 0.09375 -1.125 0.09375q-1.90625 0.171875 -2.65625 0.625q-0.734375 0.453125 -0.734375 1.40625q0 0.78125 0.46875 1.171875q0.46875 0.390625 1.25 0.390625zm12.2812805 0.59375l0 -10.765625l-3.6562805 0l0 -0.859375l8.3281555 0l0 0.859375l-3.65625 0l0 10.765625l-1.015625 0zm4.5546875 0l4.546875 -11.625l0.953125 0l4.375 11.625l-1.03125 0l-1.484375 -3.953125l-4.8125 0l-1.546875 3.953125l-1.0 0zm2.921875 -4.6875l4.078125 0q-1.75 -5.046875 -1.984375 -5.9375q-0.09375 0.34375 -0.625 1.828125q-0.515625 1.484375 -1.0 2.796875l-0.46875 1.3125zm13.3671875 4.875q-1.0625 0 -1.96875 -0.296875q-0.890625 -0.3125 -1.546875 -0.84375q-0.640625 -0.546875 -1.09375 -1.296875q-0.4375 -0.75 -0.671875 -1.640625q-0.21875 -0.890625 -0.21875 -1.890625q0 -1.765625 0.65625 -3.109375q0.65625 -1.359375 1.953125 -2.140625q1.3125 -0.796875 3.09375 -0.796875q1.953125 0 3.46875 0.890625l-0.453125 0.8125q-0.640625 -0.390625 -1.453125 -0.625q-0.796875 -0.25 -1.5625 -0.25q-1.140625 0 -2.03125 0.40625q-0.890625 0.40625 -1.453125 1.125q-0.546875 0.71875 -0.84375 1.65625q-0.28125 0.921875 -0.28125 2.015625q0 1.15625 0.28125 2.09375q0.296875 0.9375 0.875 1.625q0.578125 0.6875 1.484375 1.0625q0.90625 0.359375 2.09375 0.359375q1.234375 0 2.703125 -0.578125l0 -3.71875l-2.875 0l0.0625 -0.875l3.75 0l0 5.125q-0.953125 0.5 -1.859375 0.703125q-0.890625 0.1875 -2.109375 0.1875z" fill-rule="nonzero"/><path fill="#000000" fill-opacity="0.0" d="m286.2257 72.068245l0 48.97637" fill-rule="evenodd"/><path stroke="#ffab40" stroke-width="2.0" stroke-linejoin="round" stroke-linecap="butt" d="m286.2257 72.068245l0 36.97637" fill-rule="evenodd"/><path fill="#ffab40" stroke="#ffab40" stroke-width="2.0" stroke-linecap="butt" d="m282.92227 109.04462l3.3034363 9.076195l3.3034668 -9.076195z" fill-rule="evenodd"/><path fill="#fce5cd" d="m232.45276 72.945175l107.54593 0l0 23.344887l-53.77298 5.83622l-53.77295 -5.83622z" fill-rule="evenodd"/><path stroke="#ffab40" stroke-width="1.0" stroke-linejoin="round" stroke-linecap="butt" d="m232.45276 72.945175l107.54593 0l0 23.344887l-53.77298 5.83622l-53.77295 -5.83622z" fill-rule="evenodd"/><path fill="#000000" d="m247.79799 80.28199l0.765625 0.203125q-0.25 0.921875 -0.875 1.421875q-0.609375 0.484375 -1.5 0.484375q-0.921875 0 -1.515625 -0.375q-0.578125 -0.375 -0.875 -1.09375q-0.296875 -0.71875 -0.296875 -1.53125q0 -0.890625 0.328125 -1.5625q0.34375 -0.671875 0.96875 -1.015625q0.640625 -0.34375 1.40625 -0.34375q0.859375 0 1.4375 0.4375q0.59375 0.4375 0.8125 1.234375l-0.734375 0.171875q-0.203125 -0.625 -0.59375 -0.90625q-0.375 -0.28125 -0.9375 -0.28125q-0.671875 0 -1.109375 0.3125q-0.4375 0.3125 -0.625 0.84375q-0.171875 0.53125 -0.171875 1.109375q0 0.71875 0.203125 1.265625q0.21875 0.546875 0.65625 0.828125q0.453125 0.265625 0.984375 0.265625q0.640625 0 1.078125 -0.359375q0.4375 -0.375 0.59375 -1.109375zm1.3398438 -0.0625q0 -1.15625 0.640625 -1.703125q0.53125 -0.46875 1.3125 -0.46875q0.84375 0 1.390625 0.5625q0.546875 0.5625 0.546875 1.546875q0 0.8125 -0.25 1.265625q-0.234375 0.453125 -0.703125 0.71875q-0.453125 0.25 -0.984375 0.25q-0.875 0 -1.421875 -0.5625q-0.53125 -0.5625 -0.53125 -1.609375zm0.71875 0q0 0.796875 0.34375 1.203125q0.359375 0.390625 0.890625 0.390625q0.515625 0 0.859375 -0.390625q0.359375 -0.40625 0.359375 -1.21875q0 -0.78125 -0.359375 -1.171875q-0.34375 -0.390625 -0.859375 -0.390625q-0.53125 0 -0.890625 0.390625q-0.34375 0.390625 -0.34375 1.1875zm3.9960938 2.078125l0 -4.15625l0.625 0l0 0.59375q0.46875 -0.6875 1.328125 -0.6875q0.37498474 0 0.68748474 0.140625q0.3125 0.140625 0.46875 0.359375q0.15625 0.21875 0.21875 0.515625q0.046875 0.1875 0.046875 0.6875l0 2.546875l-0.703125 0l0 -2.53125q0 -0.421875 -0.09375 -0.625q-0.078125 -0.21875 -0.296875 -0.34375q-0.20310974 -0.140625 -0.48435974 -0.140625q-0.4375 0 -0.765625 0.296875q-0.328125 0.28125 -0.328125 1.078125l0 2.265625l-0.703125 0zm5.9804535 -0.625l0.109375 0.609375q-0.296875 0.078125 -0.53125 0.078125q-0.390625 0 -0.609375 -0.125q-0.203125 -0.125 -0.296875 -0.3125q-0.078125 -0.203125 -0.078125 -0.84375l0 -2.390625l-0.515625 0l0 -0.546875l0.515625 0l0 -1.015625l0.703125 -0.421875l0 1.4375l0.703125 0l0 0.546875l-0.703125 0l0 2.4375q0 0.296875 0.03125 0.390625q0.046875 0.078125 0.125 0.125q0.078125 0.046875 0.234375 0.046875q0.125 0 0.3125 -0.015625zm0.69140625 -4.296875l0 -0.8125l0.703125 0l0 0.8125l-0.703125 0zm0 4.921875l0 -4.15625l0.703125 0l0 4.15625l-0.703125 0zm4.6210938 -1.34375l0.71875 0.09375q-0.171875 0.640625 -0.640625 1.0q-0.453125 0.34375 -1.1875 0.34375q-0.90625 0 -1.4375 -0.5625q-0.53125 -0.5625 -0.53125 -1.578125q0 -1.046875 0.53125 -1.625q0.546875 -0.578125 1.40625 -0.578125q0.828125 0 1.359375 0.578125q0.53125 0.5625 0.53125 1.59375q0 0.0625 -0.015625 0.1875l-3.09375 0q0.046875 0.671875 0.390625 1.046875q0.34375 0.359375 0.875 0.359375q0.375 0 0.640625 -0.203125q0.28125 -0.203125 0.453125 -0.65625zm-2.3125 -1.125l2.3125 0q-0.046875 -0.53125 -0.265625 -0.796875q-0.328125 -0.40625 -0.875 -0.40625q-0.484375 0 -0.8125 0.328125q-0.328125 0.328125 -0.359375 0.875zm3.9179688 2.46875l0 -4.15625l0.625 0l0 0.59375q0.46875 -0.6875 1.328125 -0.6875q0.375 0 0.6875 0.140625q0.3125 0.140625 0.46875 0.359375q0.15625 0.21875 0.21875 0.515625q0.046875 0.1875 0.046875 0.6875l0 2.546875l-0.703125 0l0 -2.53125q0 -0.421875 -0.09375 -0.625q-0.078125 -0.21875 -0.296875 -0.34375q-0.203125 -0.140625 -0.484375 -0.140625q-0.4375 0 -0.765625 0.296875q-0.328125 0.28125 -0.328125 1.078125l0 2.265625l-0.703125 0zm7.2929688 -1.34375l0.71875 0.09375q-0.171875 0.640625 -0.640625 1.0q-0.453125 0.34375 -1.1875 0.34375q-0.90625 0 -1.4375 -0.5625q-0.53125 -0.5625 -0.53125 -1.578125q0 -1.046875 0.53125 -1.625q0.546875 -0.578125 1.40625 -0.578125q0.828125 0 1.359375 0.578125q0.53125 0.5625 0.53125 1.59375q0 0.0625 -0.015625 0.1875l-3.09375 0q0.046875 0.671875 0.390625 1.046875q0.34375 0.359375 0.875 0.359375q0.375 0 0.640625 -0.203125q0.28125 -0.203125 0.453125 -0.65625zm-2.3125 -1.125l2.3125 0q-0.046875 -0.53125 -0.265625 -0.796875q-0.328125 -0.40625 -0.875 -0.40625q-0.484375 0 -0.8125 0.328125q-0.328125 0.328125 -0.359375 0.875zm7.5429688 2.46875l0 -5.046875l-1.890625 0l0 -0.6875l4.546875 0l0 0.6875l-1.90625 0l0 5.046875l-0.75 0zm2.1992188 0l2.203125 -5.734375l0.8125 0l2.34375 5.734375l-0.859375 0l-0.671875 -1.734375l-2.390625 0l-0.625 1.734375l-0.8125 0zm1.65625 -2.359375l1.9375 0l-0.59375 -1.578125q-0.265625 -0.71875 -0.40625 -1.1875q-0.109375 0.546875 -0.3125 1.09375l-0.625 1.671875zm6.9921875 0.109375l0 -0.671875l2.421875 0l0 2.125q-0.546875 0.4375 -1.140625 0.671875q-0.59375 0.21875 -1.21875 0.21875q-0.84375 0 -1.546875 -0.359375q-0.6875 -0.359375 -1.046875 -1.046875q-0.34375 -0.6875 -0.34375 -1.53125q0 -0.828125 0.34375 -1.546875q0.359375 -0.734375 1.015625 -1.078125q0.65625 -0.359375 1.515625 -0.359375q0.625 0 1.125 0.203125q0.5 0.203125 0.78125 0.5625q0.28125 0.359375 0.4375 0.9375l-0.6875 0.1875q-0.125 -0.4375 -0.328125 -0.6875q-0.1875 -0.25 -0.546875 -0.390625q-0.34375 -0.15625 -0.78125 -0.15625q-0.515625 0 -0.90625 0.15625q-0.375 0.15625 -0.609375 0.421875q-0.21875 0.25 -0.359375 0.5625q-0.21875 0.53125 -0.21875 1.140625q0 0.765625 0.265625 1.28125q0.265625 0.515625 0.765625 0.765625q0.515625 0.25 1.078125 0.25q0.484375 0 0.953125 -0.1875q0.46875 -0.1875 0.71875 -0.40625l0 -1.0625l-1.6875 0zm3.6445312 2.25l0 -0.796875l0.796875 0l0 0.796875q0 0.4375 -0.15625 0.703125q-0.15625 0.28125 -0.5 0.4375l-0.1875 -0.3125q0.21875 -0.09375 0.3125 -0.28125q0.109375 -0.1875 0.125 -0.546875l-0.390625 0zm5.9765625 0l-2.21875 -5.734375l0.828125 0l1.484375 4.171875q0.1875 0.5 0.296875 0.9375q0.140625 -0.46875 0.3125 -0.9375l1.546875 -4.171875l0.78125 0l-2.25 5.734375l-0.78125 0zm2.4765625 0l2.203125 -5.734375l0.8125 0l2.34375 5.734375l-0.859375 0l-0.671875 -1.734375l-2.390625 0l-0.625 1.734375l-0.8125 0zm1.65625 -2.359375l1.9375 0l-0.59375 -1.578125q-0.265625 -0.71875 -0.40625 -1.1875q-0.109375 0.546875 -0.3125 1.09375l-0.625 1.671875zm4.2890625 2.359375l0 -5.734375l0.75 0l0 5.0625l2.828125 0l0 0.671875l-3.578125 0zm4.2460938 -2.796875q0 -1.421875 0.765625 -2.21875q0.765625 -0.8125 1.96875 -0.8125q0.796875 0 1.4375 0.375q0.640625 0.375 0.96875 1.0625q0.328125 0.671875 0.328125 1.53125q0 0.875 -0.359375 1.5625q-0.34375 0.6875 -0.984375 1.046875q-0.640625 0.34375 -1.390625 0.34375q-0.8125 0 -1.453125 -0.390625q-0.625 -0.390625 -0.953125 -1.0625q-0.328125 -0.671875 -0.328125 -1.4375zm0.78125 0.015625q0 1.03125 0.546875 1.640625q0.5625 0.59375 1.40625 0.59375q0.859375 0 1.40625 -0.59375q0.546875 -0.609375 0.546875 -1.71875q0 -0.703125 -0.234375 -1.21875q-0.234375 -0.53125 -0.6875 -0.8125q-0.453125 -0.28125 -1.015625 -0.28125q-0.8125 0 -1.390625 0.546875q-0.578125 0.546875 -0.578125 1.84375zm5.6757812 2.78125l0 -5.734375l2.546875 0q0.765625 0 1.15625 0.15625q0.40625 0.15625 0.640625 0.546875q0.234375 0.390625 0.234375 0.859375q0 0.609375 -0.390625 1.03125q-0.390625 0.421875 -1.21875 0.53125q0.296875 0.140625 0.453125 0.28125q0.34375 0.3125 0.640625 0.765625l0.984375 1.5625l-0.953125 0l-0.75 -1.1875q-0.328125 -0.515625 -0.546875 -0.78125q-0.21875 -0.28125 -0.390625 -0.390625q-0.171875 -0.109375 -0.34375 -0.15625q-0.125 -0.03125 -0.421875 -0.03125l-0.875 0l0 2.546875l-0.765625 0zm0.765625 -3.203125l1.625 0q0.515625 0 0.8125 -0.109375q0.296875 -0.109375 0.4375 -0.34375q0.15625 -0.234375 0.15625 -0.515625q0 -0.40625 -0.296875 -0.65625q-0.28125 -0.265625 -0.921875 -0.265625l-1.8125 0l0 1.890625zm5.0273438 3.203125l0 -5.734375l4.140625 0l0 0.6875l-3.390625 0l0 1.75l3.171875 0l0 0.671875l-3.171875 0l0 1.953125l3.515625 0l0 0.671875l-4.265625 0z" fill-rule="nonzero"/><path fill="#000000" d="m263.29993 90.953865l0.71875 0.09375q-0.171875 0.640625 -0.640625 1.0q-0.453125 0.34375 -1.1875 0.34375q-0.90625 0 -1.4375 -0.5625q-0.53125 -0.5625 -0.53125 -1.578125q0 -1.046875 0.53125 -1.625q0.546875 -0.578125 1.40625 -0.578125q0.828125 0 1.359375 0.578125q0.53125 0.5625 0.53125 1.59375q0 0.0625 -0.015625 0.1875l-3.09375 0q0.046875 0.671875 0.390625 1.046875q0.34375 0.359375 0.875 0.359375q0.375 0 0.640625 -0.203125q0.28125 -0.203125 0.453125 -0.65625zm-2.3125 -1.125l2.3125 0q-0.046875 -0.53125 -0.265625 -0.796875q-0.328125 -0.40625 -0.875 -0.40625q-0.484375 0 -0.8125 0.328125q-0.328125 0.328125 -0.359375 0.875zm7.5429688 2.46875l0 -5.046875l-1.890625 0l0 -0.6875l4.546875 0l0 0.6875l-1.90625 0l0 5.046875l-0.75 0zm3.5585938 0l0 -5.734375l0.75 0l0 5.734375l-0.75 0zm2.0664062 0l0 -5.734375l1.140625 0l1.359375 4.0625q0.1875 0.5625 0.265625 0.84375q0.109375 -0.3125 0.3125 -0.921875l1.375 -3.984375l1.015625 0l0 5.734375l-0.734375 0l0 -4.796875l-1.65625 4.796875l-0.6875 0l-1.65625 -4.875l0 4.875l-0.734375 0zm6.7109375 0l0 -5.734375l4.140625 0l0 0.6875l-3.390625 0l0 1.75l3.171875 0l0 0.671875l-3.171875 0l0 1.953125l3.515625 0l0 0.671875l-4.265625 0zm5.0546875 -1.84375l0.71875 -0.0625q0.046875 0.4375 0.234375 0.71875q0.1875 0.265625 0.578125 0.4375q0.390625 0.171875 0.875 0.171875q0.4375 0 0.765625 -0.125q0.328125 -0.140625 0.484375 -0.359375q0.171875 -0.234375 0.171875 -0.5q0 -0.265625 -0.15625 -0.46875q-0.15625 -0.203125 -0.515625 -0.328125q-0.234375 -0.09375 -1.03125 -0.28125q-0.78125 -0.1875 -1.09375 -0.359375q-0.40625 -0.21875 -0.609375 -0.53125q-0.203125 -0.328125 -0.203125 -0.71875q0 -0.4375 0.25 -0.8125q0.25 -0.375 0.71875 -0.5625q0.46875 -0.203125 1.046875 -0.203125q0.640625 0 1.125 0.203125q0.484375 0.203125 0.75 0.609375q0.265625 0.390625 0.28125 0.90625l-0.734375 0.046875q-0.046875 -0.546875 -0.390625 -0.8125q-0.34375 -0.28125 -1.0 -0.28125q-0.6875 0 -1.0 0.25q-0.3125 0.25 -0.3125 0.609375q0 0.3125 0.21875 0.5q0.21875 0.203125 1.140625 0.421875q0.921875 0.203125 1.265625 0.359375q0.5 0.234375 0.734375 0.59375q0.25 0.34375 0.25 0.796875q0 0.46875 -0.265625 0.875q-0.265625 0.390625 -0.75 0.625q-0.484375 0.21875 -1.109375 0.21875q-0.765625 0 -1.296875 -0.21875q-0.53125 -0.234375 -0.828125 -0.6875q-0.296875 -0.453125 -0.3125 -1.03125zm7.0546875 1.84375l0 -5.046875l-1.890625 0l0 -0.6875l4.546875 0l0 0.6875l-1.90625 0l0 5.046875l-0.75 0zm2.1992188 0l2.203125 -5.734375l0.8125 0l2.34375 5.734375l-0.859375 0l-0.671875 -1.734375l-2.390625 0l-0.625 1.734375l-0.8125 0zm1.65625 -2.359375l1.9375 0l-0.59375 -1.578125q-0.265625 -0.71875 -0.40625 -1.1875q-0.109375 0.546875 -0.3125 1.09375l-0.625 1.671875zm4.2890625 2.359375l0 -5.734375l1.140625 0l1.359375 4.0625q0.1875 0.5625 0.265625 0.84375q0.109375 -0.3125 0.3125 -0.921875l1.375 -3.984375l1.015625 0l0 5.734375l-0.734375 0l0 -4.796875l-1.65625 4.796875l-0.6875 0l-1.65625 -4.875l0 4.875l-0.734375 0zm6.6953125 0l0 -5.734375l2.15625 0q0.5625 0 0.875 0.0625q0.421875 0.0625 0.703125 0.265625q0.28125 0.203125 0.453125 0.5625q0.171875 0.34375 0.171875 0.765625q0 0.734375 -0.46875 1.25q-0.453125 0.5 -1.671875 0.5l-1.46875 0l0 2.328125l-0.75 0zm0.75 -3.0l1.484375 0q0.734375 0 1.03125 -0.265625q0.3125 -0.28125 0.3125 -0.78125q0 -0.359375 -0.1875 -0.609375q-0.171875 -0.265625 -0.46875 -0.34375q-0.1875 -0.046875 -0.703125 -0.046875l-1.46875 0l0 2.046875z" fill-rule="nonzero"/><path fill="#efefef" d="m5.7066927 85.61155l107.54593 0l0 23.34488l-53.772964 5.83622l-53.77297 -5.83622z" fill-rule="evenodd"/><path stroke="#999999" stroke-width="1.0" stroke-linejoin="round" stroke-linecap="butt" d="m5.7066927 85.61155l107.54593 0l0 23.34488l-53.772964 5.83622l-53.77297 -5.83622z" fill-rule="evenodd"/><path fill="#000000" d="m22.30583 97.948364l0.765625 0.203125q-0.25 0.921875 -0.875 1.421875q-0.609375 0.484375 -1.5 0.484375q-0.921875 0 -1.515625 -0.375q-0.578125 -0.375 -0.875 -1.09375q-0.296875 -0.71875 -0.296875 -1.53125q0 -0.890625 0.328125 -1.5625q0.34375 -0.671875 0.96875 -1.015625q0.640625 -0.34375 1.40625 -0.34375q0.859375 0 1.4375 0.4375q0.59375 0.4375 0.8125 1.234375l-0.734375 0.171875q-0.203125 -0.625 -0.59375 -0.90625q-0.375 -0.28125 -0.9375 -0.28125q-0.671875 0 -1.109375 0.3125q-0.4375 0.3125 -0.625 0.84375q-0.171875 0.53125 -0.171875 1.109375q0 0.71875 0.203125 1.265625q0.21875 0.546875 0.65625 0.828125q0.453125 0.265625 0.984375 0.265625q0.640625 0 1.078125 -0.359375q0.4375 -0.375 0.59375 -1.109375zm1.3398438 -0.0625q0 -1.15625 0.640625 -1.703125q0.53125 -0.46875 1.3125 -0.46875q0.84375 0 1.390625 0.5625q0.546875 0.5625 0.546875 1.546875q0 0.8125 -0.25 1.265625q-0.234375 0.453125 -0.703125 0.71875q-0.453125 0.25 -0.984375 0.25q-0.875 0 -1.421875 -0.5625q-0.53125 -0.5625 -0.53125 -1.609375zm0.71875 0q0 0.796875 0.34375 1.203125q0.359375 0.390625 0.890625 0.390625q0.515625 0 0.859375 -0.390625q0.359375 -0.40625 0.359375 -1.21875q0 -0.78125 -0.359375 -1.171875q-0.34375 -0.390625 -0.859375 -0.390625q-0.53125 0 -0.890625 0.390625q-0.34375 0.390625 -0.34375 1.1875zm3.9960938 2.078125l0 -4.15625l0.625 0l0 0.59375q0.46875 -0.6875 1.328125 -0.6875q0.375 0 0.6875 0.140625q0.3125 0.140625 0.46875 0.359375q0.15625 0.21875 0.21875 0.515625q0.046875 0.1875 0.046875 0.6875l0 2.546875l-0.703125 0l0 -2.53125q0 -0.421875 -0.09375 -0.625q-0.078125 -0.21875 -0.296875 -0.34375q-0.203125 -0.140625 -0.484375 -0.140625q-0.4375 0 -0.765625 0.296875q-0.328125 0.28125 -0.328125 1.078125l0 2.265625l-0.703125 0zm5.980467 -0.625l0.109375 0.609375q-0.296875 0.078125 -0.53125 0.078125q-0.390625 0 -0.609375 -0.125q-0.203125 -0.125 -0.296875 -0.3125q-0.078125 -0.203125 -0.078125 -0.84375l0 -2.390625l-0.515625 0l0 -0.546875l0.515625 0l0 -1.015625l0.703125 -0.421875l0 1.4375l0.703125 0l0 0.546875l-0.703125 0l0 2.4375q0 0.296875 0.03125 0.390625q0.046875 0.078125 0.125 0.125q0.078125 0.046875 0.234375 0.046875q0.125 0 0.3125 -0.015625zm0.69140625 -4.296875l0 -0.8125l0.703125 0l0 0.8125l-0.703125 0zm0 4.921875l0 -4.15625l0.703125 0l0 4.15625l-0.703125 0zm4.6210938 -1.34375l0.71875 0.09375q-0.171875 0.640625 -0.640625 1.0q-0.453125 0.34375 -1.1875 0.34375q-0.90625 0 -1.4375 -0.5625q-0.53125 -0.5625 -0.53125 -1.578125q0 -1.046875 0.53125 -1.625q0.546875 -0.578125 1.40625 -0.578125q0.828125 0 1.359375 0.578125q0.53125 0.5625 0.53125 1.59375q0 0.0625 -0.015625 0.1875l-3.09375 0q0.046875 0.671875 0.390625 1.046875q0.34375 0.359375 0.875 0.359375q0.375 0 0.640625 -0.203125q0.28125 -0.203125 0.453125 -0.65625zm-2.3125 -1.125l2.3125 0q-0.046875 -0.53125 -0.265625 -0.796875q-0.328125 -0.40625 -0.875 -0.40625q-0.484375 0 -0.8125 0.328125q-0.328125 0.328125 -0.359375 0.875zm3.9179688 2.46875l0 -4.15625l0.625 0l0 0.59375q0.46875 -0.6875 1.328125 -0.6875q0.375 0 0.6875 0.140625q0.3125 0.140625 0.46875 0.359375q0.15625 0.21875 0.21875 0.515625q0.046875 0.1875 0.046875 0.6875l0 2.546875l-0.703125 0l0 -2.53125q0 -0.421875 -0.09375 -0.625q-0.078125 -0.21875 -0.296875 -0.34375q-0.203125 -0.140625 -0.484375 -0.140625q-0.4375 0 -0.765625 0.296875q-0.328125 0.28125 -0.328125 1.078125l0 2.265625l-0.703125 0zm7.2929688 -1.34375l0.71875 0.09375q-0.171875 0.640625 -0.640625 1.0q-0.453125 0.34375 -1.1875 0.34375q-0.90625 0 -1.4375 -0.5625q-0.53125 -0.5625 -0.53125 -1.578125q0 -1.046875 0.53125 -1.625q0.546875 -0.578125 1.40625 -0.578125q0.828125 0 1.359375 0.578125q0.53125 0.5625 0.53125 1.59375q0 0.0625 -0.015625 0.1875l-3.09375 0q0.046875 0.671875 0.390625 1.046875q0.34375 0.359375 0.875 0.359375q0.375 0 0.640625 -0.203125q0.28125 -0.203125 0.453125 -0.65625zm-2.3125 -1.125l2.3125 0q-0.046875 -0.53125 -0.265625 -0.796875q-0.328125 -0.40625 -0.875 -0.40625q-0.484375 0 -0.8125 0.328125q-0.328125 0.328125 -0.359375 0.875zm7.5429688 2.46875l0 -5.046875l-1.890625 0l0 -0.6875l4.546875 0l0 0.6875l-1.90625 0l0 5.046875l-0.75 0zm2.1992188 0l2.203125 -5.734375l0.8125 0l2.34375 5.734375l-0.859375 0l-0.671875 -1.734375l-2.390625 0l-0.625 1.734375l-0.8125 0zm1.65625 -2.359375l1.9375 0l-0.59375 -1.578125q-0.265625 -0.71875 -0.40625 -1.1875q-0.109375 0.546875 -0.3125 1.09375l-0.625 1.671875zm6.9921913 0.109375l0 -0.671875l2.421875 0l0 2.125q-0.546875 0.4375 -1.140625 0.671875q-0.59375 0.21875 -1.21875 0.21875q-0.8437538 0 -1.5468788 -0.359375q-0.6875 -0.359375 -1.046875 -1.046875q-0.34375 -0.6875 -0.34375 -1.53125q0 -0.828125 0.34375 -1.546875q0.359375 -0.734375 1.015625 -1.078125q0.65625 -0.359375 1.5156288 -0.359375q0.625 0 1.125 0.203125q0.5 0.203125 0.78125 0.5625q0.28125 0.359375 0.4375 0.9375l-0.6875 0.1875q-0.125 -0.4375 -0.328125 -0.6875q-0.1875 -0.25 -0.546875 -0.390625q-0.34375 -0.15625 -0.78125 -0.15625q-0.515625 0 -0.9062538 0.15625q-0.375 0.15625 -0.609375 0.421875q-0.21875 0.25 -0.359375 0.5625q-0.21875 0.53125 -0.21875 1.140625q0 0.765625 0.265625 1.28125q0.265625 0.515625 0.765625 0.765625q0.5156288 0.25 1.0781288 0.25q0.484375 0 0.953125 -0.1875q0.46875 -0.1875 0.71875 -0.40625l0 -1.0625l-1.6875 0zm8.5234375 0.90625l0.71875 0.09375q-0.171875 0.640625 -0.640625 1.0q-0.453125 0.34375 -1.1875 0.34375q-0.90625 0 -1.4375 -0.5625q-0.53125 -0.5625 -0.53125 -1.578125q0 -1.046875 0.53125 -1.625q0.546875 -0.578125 1.40625 -0.578125q0.828125 0 1.359375 0.578125q0.53125 0.5625 0.53125 1.59375q0 0.0625 -0.015625 0.1875l-3.09375 0q0.046875 0.671875 0.390625 1.046875q0.34375 0.359375 0.875 0.359375q0.375 0 0.640625 -0.203125q0.28125 -0.203125 0.453125 -0.65625zm-2.3125 -1.125l2.3125 0q-0.046875 -0.53125 -0.265625 -0.796875q-0.328125 -0.40625 -0.875 -0.40625q-0.484375 0 -0.8125 0.328125q-0.328125 0.328125 -0.359375 0.875zm6.203125 2.46875l0 -5.734375l0.75 0l0 5.0625l2.828125 0l0 0.671875l-3.578125 0zm3.8398438 0l2.203125 -5.734375l0.8125 0l2.34375 5.734375l-0.859375 0l-0.671875 -1.734375l-2.390625 0l-0.625 1.734375l-0.8125 0zm1.65625 -2.359375l1.9375 0l-0.59375 -1.578125q-0.265625 -0.71875 -0.40625 -1.1875q-0.109375 0.546875 -0.3125 1.09375l-0.625 1.671875zm4.2890625 2.359375l0 -5.734375l2.140625 0q0.65625 0 1.046875 0.1875q0.40625 0.171875 0.625 0.53125q0.234375 0.359375 0.234375 0.75q0 0.375 -0.203125 0.703125q-0.203125 0.3125 -0.609375 0.515625q0.53125 0.15625 0.796875 0.53125q0.28125 0.359375 0.28125 0.859375q0 0.390625 -0.171875 0.75q-0.15625 0.34375 -0.40625 0.53125q-0.25 0.1875 -0.640625 0.28125q-0.375 0.09375 -0.921875 0.09375l-2.171875 0zm0.75 -3.328125l1.234375 0q0.515625 0 0.734375 -0.0625q0.28125 -0.078125 0.421875 -0.28125q0.15625 -0.203125 0.15625 -0.5q0 -0.28125 -0.140625 -0.5q-0.140625 -0.21875 -0.390625 -0.296875q-0.25 -0.078125 -0.875 -0.078125l-1.140625 0l0 1.71875zm0 2.65625l1.421875 0q0.375 0 0.515625 -0.03125q0.265625 -0.046875 0.4375 -0.15625q0.1875 -0.109375 0.296875 -0.3125q0.109375 -0.21875 0.109375 -0.484375q0 -0.328125 -0.171875 -0.5625q-0.15625 -0.234375 -0.453125 -0.328125q-0.28125 -0.09375 -0.828125 -0.09375l-1.328125 0l0 1.96875zm4.6328125 0.671875l0 -5.734375l4.140625 0l0 0.6875l-3.390625 0l0 1.75l3.171875 0l0 0.671875l-3.171875 0l0 1.953125l3.515625 0l0 0.671875l-4.265625 0zm5.2890625 0l0 -5.734375l0.75 0l0 5.0625l2.828125 0l0 0.671875l-3.578125 0z" fill-rule="nonzero"/><path fill="#000000" fill-opacity="0.0" d="m199.73885 197.59856l0 0c0 -3.7689514 3.0553284 -6.82428 6.82428 -6.82428l159.3278 0c1.8099365 0 3.5457153 0.7189789 4.8255005 1.9987793c1.2798157 1.2798004 1.9987793 3.0155945 1.9987793 4.8255005l0 27.29631c0 3.7689514 -3.0553284 6.824295 -6.82428 6.824295l-159.3278 0c-3.7689514 0 -6.82428 -3.0553436 -6.82428 -6.824295z" fill-rule="evenodd"/><path stroke="#ffab40" stroke-width="2.0" stroke-linejoin="round" stroke-linecap="butt" d="m199.73885 197.59856l0 0c0 -3.7689514 3.0553284 -6.82428 6.82428 -6.82428l159.3278 0c1.8099365 0 3.5457153 0.7189789 4.8255005 1.9987793c1.2798157 1.2798004 1.9987793 3.0155945 1.9987793 4.8255005l0 27.29631c0 3.7689514 -3.0553284 6.824295 -6.82428 6.824295l-159.3278 0c-3.7689514 0 -6.82428 -3.0553436 -6.82428 -6.824295z" fill-rule="evenodd"/><path fill="#000000" d="m234.34032 207.79422q-1.34375 0 -2.390625 -0.453125q-1.046875 -0.46875 -1.703125 -1.28125q-0.65625 -0.8125 -1.0 -1.90625q-0.34375 -1.09375 -0.34375 -2.40625q0 -1.734375 0.640625 -3.0625q0.640625 -1.34375 1.90625 -2.125q1.265625 -0.78125 2.984375 -0.78125q1.90625 0 3.234375 0.796875l-0.46875 0.765625q-1.21875 -0.734375 -2.75 -0.734375q-1.078125 0 -1.9375 0.40625q-0.84375 0.40625 -1.390625 1.125q-0.53125 0.703125 -0.828125 1.640625q-0.28125 0.9375 -0.28125 2.03125q0 1.0625 0.265625 1.984375q0.265625 0.90625 0.78125 1.625q0.53125 0.703125 1.40625 1.125q0.875 0.40625 2.015625 0.40625q1.234375 0 2.734375 -0.6875l0.203125 0.8125q-1.140625 0.71875 -3.078125 0.71875zm7.125 0q-1.203125 0 -1.9375 -0.609375q-0.71875 -0.609375 -0.71875 -1.75q0 -0.671875 0.28125 -1.15625q0.296875 -0.5 0.84375 -0.8125q0.546875 -0.3125 1.25 -0.484375q0.71875 -0.171875 1.65625 -0.234375q1.0 -0.0625 1.484375 -0.109375l0 -0.953125q0 -0.984375 -0.453125 -1.46875q-0.453125 -0.5 -1.4375 -0.5q-1.359375 0 -2.546875 0.640625q-0.03125 -0.078125 -0.140625 -0.328125q-0.109375 -0.265625 -0.15625 -0.40625q0.484375 -0.3125 1.265625 -0.515625q0.78125 -0.21875 1.53125 -0.21875q1.53125 0 2.203125 0.65625q0.671875 0.65625 0.671875 2.34375l0 5.71875l-0.75 0q-0.046875 -0.1875 -0.125 -0.71875q-0.0625 -0.53125 -0.0625 -0.546875q-1.015625 1.453125 -2.859375 1.453125zm0.03125 -0.78125q1.0 0 1.78125 -0.578125q0.78125 -0.59375 1.015625 -1.640625l0 -1.46875q-1.125 0.09375 -1.125 0.09375q-1.90625 0.171875 -2.65625 0.625q-0.734375 0.453125 -0.734375 1.40625q0 0.78125 0.46875 1.171875q0.46875 0.390625 1.25 0.390625zm8.5078125 0.78125q-1.078125 0 -1.578125 -0.484375q-0.5 -0.5 -0.5 -1.609375l0 -5.953125l-1.203125 0l0.0625 -0.578125l1.15625 -0.109375l0.265625 -1.96875l0.671875 -0.046875l0 2.0l2.5 0l0 0.703125l-2.5 0l0 5.75q0 0.90625 0.296875 1.21875q0.296875 0.3125 1.046875 0.3125q0.484375 0 1.203125 -0.1875l0.046875 0.75q-0.953125 0.203125 -1.46875 0.203125zm5.28125 0q-1.078125 0 -1.578125 -0.484375q-0.5 -0.5 -0.5 -1.609375l0 -5.953125l-1.203125 0l0.0625 -0.578125l1.15625 -0.109375l0.265625 -1.96875l0.671875 -0.046875l0 2.0l2.4999847 0l0 0.703125l-2.4999847 0l0 5.75q0 0.90625 0.296875 1.21875q0.296875 0.3125 1.046875 0.3125q0.484375 0 1.2031097 -0.1875l0.046875 0.75q-0.95310974 0.203125 -1.4687347 0.203125zm6.0624847 0.03125q-0.671875 0 -1.25 -0.15625q-0.578125 -0.15625 -1.078125 -0.484375q-0.484375 -0.328125 -0.765625 -0.921875q-0.28125 -0.59375 -0.28125 -1.390625l0 -5.828125l0.96875 0l0 5.84375q0 0.609375 0.1875 1.03125q0.1875 0.421875 0.53125 0.640625q0.359375 0.21875 0.75 0.3125q0.40625 0.078125 0.9375 0.078125q0.515625 0 0.90625 -0.09375q0.40625 -0.09375 0.75 -0.3125q0.34375 -0.21875 0.53125 -0.625q0.1875 -0.421875 0.1875 -1.03125l0 -5.84375l0.96875 0l0 5.828125q0 0.65625 -0.1875 1.171875q-0.1875 0.515625 -0.5 0.84375q-0.3125 0.328125 -0.765625 0.546875q-0.4375 0.21875 -0.90625 0.296875q-0.453125 0.09375 -0.984375 0.09375zm5.46875 -0.21875q-0.015625 -7.546875 -0.015625 -8.5625l0.796875 0l0.0625 1.6875q0.453125 -0.765625 1.15625 -1.25q0.71875 -0.484375 1.5 -0.484375q0.3125 0 0.6875 0.046875l-0.078125 0.8125q-0.28125 -0.046875 -0.59375 -0.046875q-1.078125 0 -1.828125 0.859375q-0.734375 0.84375 -0.734375 2.015625l0 4.921875l-0.953125 0zm7.7578125 0.1875q-1.203125 0 -1.9375 -0.609375q-0.71875 -0.609375 -0.71875 -1.75q0 -0.671875 0.28125 -1.15625q0.296875 -0.5 0.84375 -0.8125q0.546875 -0.3125 1.25 -0.484375q0.71875 -0.171875 1.65625 -0.234375q1.0 -0.0625 1.484375 -0.109375l0 -0.953125q0 -0.984375 -0.453125 -1.46875q-0.453125 -0.5 -1.4375 -0.5q-1.359375 0 -2.546875 0.640625q-0.03125 -0.078125 -0.140625 -0.328125q-0.109375 -0.265625 -0.15625 -0.40625q0.484375 -0.3125 1.265625 -0.515625q0.78125 -0.21875 1.53125 -0.21875q1.53125 0 2.203125 0.65625q0.671875 0.65625 0.671875 2.34375l0 5.71875l-0.75 0q-0.046875 -0.1875 -0.125 -0.71875q-0.0625 -0.53125 -0.0625 -0.546875q-1.015625 1.453125 -2.859375 1.453125zm0.03125 -0.78125q1.0 0 1.78125 -0.578125q0.78125 -0.59375 1.015625 -1.640625l0 -1.46875q-1.125 0.09375 -1.125 0.09375q-1.90625 0.171875 -2.65625 0.625q-0.734375 0.453125 -0.734375 1.40625q0 0.78125 0.46875 1.171875q0.46875 0.390625 1.25 0.390625zm13.1875 0.78125q-1.78125 0 -2.828125 -1.1875q-1.03125 -1.1875 -1.03125 -3.21875q0 -1.96875 1.015625 -3.21875q1.015625 -1.25 2.640625 -1.28125q1.5 0 2.40625 1.078125q0.921875 1.078125 0.921875 2.890625q0 0.0625 0 0.28125q0 0.21875 0 0.296875l-5.96875 0q0.015625 1.65625 0.796875 2.625q0.78125 0.953125 2.0625 0.953125q0.84375 0 1.453125 -0.1875q0.625 -0.203125 1.296875 -0.5625l0.15625 0.734375q-1.296875 0.796875 -2.921875 0.796875zm-2.796875 -5.140625l4.875 0q0 -1.421875 -0.625 -2.1875q-0.609375 -0.765625 -1.6875 -0.765625q-1.09375 0 -1.765625 0.8125q-0.671875 0.8125 -0.796875 2.140625zm12.796875 8.9375l-0.109375 -0.875l1.8125 0q0.59375 0 1.046875 -0.109375q0.46875 -0.09375 0.78125 -0.265625q0.328125 -0.171875 0.546875 -0.46875q0.21875 -0.296875 0.34375 -0.59375q0.125 -0.296875 0.1875 -0.78125q0.078125 -0.46875 0.09375 -0.875q0.015625 -0.390625 0.015625 -0.984375q0 0.078125 -0.015625 -0.046875q-0.046875 -0.53125 -0.046875 -0.53125q-0.484375 0.734375 -1.15625 1.140625q-0.671875 0.40625 -1.640625 0.40625q-0.765625 0 -1.40625 -0.265625q-0.625 -0.28125 -1.03125 -0.71875q-0.390625 -0.4375 -0.671875 -1.0q-0.265625 -0.5625 -0.390625 -1.125q-0.109375 -0.5625 -0.109375 -1.109375q0 -0.6875 0.109375 -1.296875q0.109375 -0.625 0.390625 -1.21875q0.28125 -0.59375 0.703125 -1.03125q0.421875 -0.4375 1.078125 -0.6875q0.671875 -0.265625 1.515625 -0.265625q0.8125 0 1.4375 0.328125q0.640625 0.3125 1.171875 1.03125l0.09375 -1.203125l0.859375 0l0 7.9375q0 0.515625 -0.015625 0.828125q0 0.328125 -0.09375 0.859375q-0.078125 0.546875 -0.21875 0.890625q-0.140625 0.359375 -0.4375 0.78125q-0.296875 0.421875 -0.71875 0.65625q-0.421875 0.25 -1.078125 0.421875q-0.640625 0.171875 -1.46875 0.171875l-1.578125 0zm1.984375 -4.78125q0.5625 0 1.015625 -0.171875q0.46875 -0.1875 0.765625 -0.484375q0.3125 -0.3125 0.515625 -0.71875q0.203125 -0.40625 0.28125 -0.828125q0.09375 -0.4375 0.09375 -0.90625l0 -0.890625q0 -0.609375 -0.15625 -1.140625q-0.140625 -0.546875 -0.453125 -1.0q-0.296875 -0.453125 -0.84375 -0.71875q-0.53125 -0.265625 -1.25 -0.265625q-0.578125 0 -1.046875 0.21875q-0.453125 0.21875 -0.75 0.59375q-0.296875 0.359375 -0.5 0.859375q-0.203125 0.484375 -0.296875 1.0q-0.078125 0.515625 -0.078125 1.046875q0 0.484375 0.078125 0.9375q0.078125 0.4375 0.265625 0.90625q0.1875 0.453125 0.484375 0.796875q0.296875 0.34375 0.78125 0.5625q0.484375 0.203125 1.09375 0.203125zm9.3359375 0.984375q-1.78125 0 -2.828125 -1.1875q-1.03125 -1.1875 -1.03125 -3.21875q0 -1.96875 1.015625 -3.21875q1.015625 -1.25 2.640625 -1.28125q1.5 0 2.40625 1.078125q0.921875 1.078125 0.921875 2.890625q0 0.0625 0 0.28125q0 0.21875 0 0.296875l-5.96875 0q0.015625 1.65625 0.796875 2.625q0.78125 0.953125 2.0625 0.953125q0.84375 0 1.453125 -0.1875q0.625 -0.203125 1.296875 -0.5625l0.15625 0.734375q-1.296875 0.796875 -2.921875 0.796875zm-2.796875 -5.140625l4.875 0q0 -1.421875 -0.625 -2.1875q-0.609375 -0.765625 -1.6875 -0.765625q-1.09375 0 -1.765625 0.8125q-0.671875 0.8125 -0.796875 2.140625zm7.8671875 4.953125l0 -8.5625l0.84375 0l0.125 1.3125q0.46875 -0.6875 1.234375 -1.078125q0.78125 -0.390625 1.6875 -0.390625q1.46875 0 2.15625 0.8125q0.703125 0.8125 0.703125 2.59375l0 5.3125l-0.96875 0l0 -5.75q-0.046875 -1.140625 -0.5 -1.640625q-0.4375 -0.5 -1.453125 -0.5q-1.15625 0 -1.90625 0.59375q-0.734375 0.578125 -0.921875 1.5q-0.03125 0.375 -0.03125 0.765625l0 5.03125l-0.96875 0zm12.46875 0.1875q-1.78125 0 -2.828125 -1.1875q-1.03125 -1.1875 -1.03125 -3.21875q0 -1.96875 1.015625 -3.21875q1.015625 -1.25 2.640625 -1.28125q1.5 0 2.40625 1.078125q0.921875 1.078125 0.921875 2.890625q0 0.0625 0 0.28125q0 0.21875 0 0.296875l-5.96875 0q0.015625 1.65625 0.796875 2.625q0.78125 0.953125 2.0625 0.953125q0.84375 0 1.453125 -0.1875q0.625 -0.203125 1.296875 -0.5625l0.15625 0.734375q-1.296875 0.796875 -2.921875 0.796875zm-2.796875 -5.140625l4.875 0q0 -1.421875 -0.625 -2.1875q-0.609375 -0.765625 -1.6875 -0.765625q-1.09375 0 -1.765625 0.8125q-0.671875 0.8125 -0.796875 2.140625zm7.8828125 4.953125q-0.015625 -7.546875 -0.015625 -8.5625l0.796875 0l0.0625 1.6875q0.453125 -0.765625 1.15625 -1.25q0.71875 -0.484375 1.5 -0.484375q0.3125 0 0.6875 0.046875l-0.078125 0.8125q-0.28125 -0.046875 -0.59375 -0.046875q-1.078125 0 -1.828125 0.859375q-0.734375 0.84375 -0.734375 2.015625l0 4.921875l-0.953125 0zm7.7578125 0.1875q-1.203125 0 -1.9375 -0.609375q-0.71875 -0.609375 -0.71875 -1.75q0 -0.671875 0.28125 -1.15625q0.296875 -0.5 0.84375 -0.8125q0.546875 -0.3125 1.25 -0.484375q0.71875 -0.171875 1.65625 -0.234375q1.0 -0.0625 1.484375 -0.109375l0 -0.953125q0 -0.984375 -0.453125 -1.46875q-0.453125 -0.5 -1.4375 -0.5q-1.359375 0 -2.546875 0.640625q-0.03125 -0.078125 -0.140625 -0.328125q-0.109375 -0.265625 -0.15625 -0.40625q0.484375 -0.3125 1.265625 -0.515625q0.78125 -0.21875 1.53125 -0.21875q1.53125 0 2.203125 0.65625q0.671875 0.65625 0.671875 2.34375l0 5.71875l-0.75 0q-0.046875 -0.1875 -0.125 -0.71875q-0.0625 -0.53125 -0.0625 -0.546875q-1.015625 1.453125 -2.859375 1.453125zm0.03125 -0.78125q1.0 0 1.78125 -0.578125q0.78125 -0.59375 1.015625 -1.640625l0 -1.46875q-1.125 0.09375 -1.125 0.09375q-1.90625 0.171875 -2.65625 0.625q-0.734375 0.453125 -0.734375 1.40625q0 0.78125 0.46875 1.171875q0.46875 0.390625 1.25 0.390625z" fill-rule="nonzero"/><path fill="#000000" d="m235.40672 226.79422q-1.78125 0 -2.828125 -1.1875q-1.03125 -1.1875 -1.03125 -3.21875q0 -1.96875 1.015625 -3.21875q1.015625 -1.25 2.640625 -1.28125q1.5 0 2.40625 1.078125q0.921875 1.078125 0.921875 2.890625q0 0.0625 0 0.28125q0 0.21875 0 0.296875l-5.96875 0q0.015625 1.65625 0.796875 2.625q0.78125 0.953125 2.0625 0.953125q0.84375 0 1.453125 -0.1875q0.625 -0.203125 1.296875 -0.5625l0.15625 0.734375q-1.296875 0.796875 -2.921875 0.796875zm-2.796875 -5.140625l4.875 0q0 -1.421875 -0.625 -2.1875q-0.609375 -0.765625 -1.6875 -0.765625q-1.09375 0 -1.765625 0.8125q-0.671875 0.8125 -0.796875 2.140625zm9.9921875 4.953125l-3.265625 -8.5625l1.03125 0l1.984375 5.390625q0.15625 0.515625 0.375 1.09375q0.21875 0.5625 0.34375 0.890625l0.140625 0.3125q0.140625 -0.5 0.375 -1.0625q0.25 -0.578125 0.4375 -1.203125q0.21875 -0.671875 0.765625 -2.03125q0.5625 -1.359375 1.21875 -3.390625l1.03125 0l-3.3125 8.5625l-1.125 0zm9.0703125 0.1875q-1.78125 0 -2.828125 -1.1875q-1.03125 -1.1875 -1.03125 -3.21875q0 -1.96875 1.015625 -3.21875q1.015625 -1.25 2.640625 -1.28125q1.5 0 2.40625 1.078125q0.921875 1.078125 0.921875 2.890625q0 0.0625 0 0.28125q0 0.21875 0 0.296875l-5.96875 0q0.015625 1.65625 0.796875 2.625q0.78125 0.953125 2.0625 0.953125q0.84375 0 1.453125 -0.1875q0.625 -0.203125 1.296875 -0.5625l0.15625 0.734375q-1.296875 0.796875 -2.921875 0.796875zm-2.796875 -5.140625l4.875 0q0 -1.421875 -0.625 -2.1875q-0.609375 -0.765625 -1.6875 -0.765625q-1.09375 0 -1.765625 0.8125q-0.671875 0.8125 -0.796875 2.140625zm7.8671722 4.953125l0 -8.5625l0.84375 0l0.125 1.3125q0.46875 -0.6875 1.234375 -1.078125q0.78125 -0.390625 1.6875 -0.390625q1.46875 0 2.15625 0.8125q0.703125 0.8125 0.703125 2.59375l0 5.3125l-0.96875 0l0 -5.75q-0.046875 -1.140625 -0.5 -1.640625q-0.4375 -0.5 -1.453125 -0.5q-1.15625 0 -1.90625 0.59375q-0.734375 0.578125 -0.921875 1.5q-0.03125 0.375 -0.03125 0.765625l0 5.03125l-0.96875 0zm11.40625 0.1875q-1.078125 0 -1.578125 -0.484375q-0.5 -0.5 -0.5 -1.609375l0 -5.953125l-1.203125 0l0.0625 -0.578125l1.15625 -0.109375l0.265625 -1.96875l0.671875 -0.046875l0 2.0l2.5 0l0 0.703125l-2.5 0l0 5.75q0 0.90625 0.296875 1.21875q0.296875 0.3125 1.046875 0.3125q0.484375 0 1.203125 -0.1875l0.046875 0.75q-0.953125 0.203125 -1.46875 0.203125zm2.96875 -0.1875l0 -8.5625l0.984375 0l0 8.5625l-0.984375 0zm0 -10.3125l0 -1.3125l0.96875 0l0 1.3125l-0.96875 0zm10.984375 10.5q-1.46875 0 -2.609375 -0.3125q-1.125 -0.328125 -1.75 -0.703125l0.375 -0.703125q1.640625 0.890625 4.078125 0.890625q1.328125 0 2.046875 -0.6875q0.734375 -0.703125 0.734375 -1.96875q0 -0.46875 -0.09375 -0.78125q-0.078125 -0.328125 -0.3125 -0.625q-0.234375 -0.296875 -0.6875 -0.484375q-0.453125 -0.203125 -1.140625 -0.34375l-1.875 -0.375q-1.578125 -0.3125 -2.359375 -0.984375q-0.78125 -0.671875 -0.78125 -1.921875q0 -0.796875 0.3125 -1.390625q0.3125 -0.59375 0.890625 -0.9375q0.59375 -0.359375 1.375 -0.515625q0.78125 -0.171875 1.765625 -0.171875q0.984375 0 1.921875 0.25q0.953125 0.234375 1.546875 0.53125l-0.25 0.765625q-0.46875 -0.25 -1.375 -0.484375q-0.890625 -0.234375 -1.859375 -0.234375q-1.65625 0 -2.484375 0.5625q-0.828125 0.546875 -0.828125 1.734375q0 0.734375 0.515625 1.1875q0.53125 0.453125 1.5625 0.671875l2.09375 0.421875q0.78125 0.171875 1.3125 0.40625q0.546875 0.21875 0.96875 0.578125q0.421875 0.359375 0.625 0.890625q0.203125 0.53125 0.203125 1.265625q0 1.640625 -1.078125 2.5625q-1.078125 0.90625 -2.84375 0.90625zm5.8515625 -0.1875l0 -8.5625l0.984375 0l0 8.5625l-0.984375 0zm0 -10.3125l0 -1.3125l0.96875 0l0 1.3125l-0.96875 0zm3.3828125 10.3125l0 -8.5625l0.84375 0l0.125 1.3125q0.46875 -0.6875 1.234375 -1.078125q0.78125 -0.390625 1.6875 -0.390625q1.46875 0 2.15625 0.8125q0.703125 0.8125 0.703125 2.59375l0 5.3125l-0.96875 0l0 -5.75q-0.046875 -1.140625 -0.5 -1.640625q-0.4375 -0.5 -1.453125 -0.5q-1.15625 0 -1.90625 0.59375q-0.734375 0.578125 -0.921875 1.5q-0.03125 0.375 -0.03125 0.765625l0 5.03125l-0.96875 0zm16.085938 0.1875q-1.78125 0 -2.828125 -1.1875q-1.03125 -1.1875 -1.03125 -3.21875q0 -1.96875 1.015625 -3.21875q1.015625 -1.25 2.640625 -1.28125q1.5 0 2.40625 1.078125q0.921875 1.078125 0.921875 2.890625q0 0.0625 0 0.28125q0 0.21875 0 0.296875l-5.96875 0q0.015625 1.65625 0.796875 2.625q0.78125 0.953125 2.0625 0.953125q0.84375 0 1.453125 -0.1875q0.625 -0.203125 1.296875 -0.5625l0.15625 0.734375q-1.296875 0.796875 -2.921875 0.796875zm-2.796875 -5.140625l4.875 0q0 -1.421875 -0.625 -2.1875q-0.609375 -0.765625 -1.6875 -0.765625q-1.09375 0 -1.765625 0.8125q-0.671875 0.8125 -0.796875 2.140625zm16.6875 5.140625q-1.34375 0 -2.390625 -0.453125q-1.046875 -0.46875 -1.703125 -1.28125q-0.65625 -0.8125 -1.0 -1.90625q-0.34375 -1.09375 -0.34375 -2.40625q0 -1.734375 0.640625 -3.0625q0.640625 -1.34375 1.90625 -2.125q1.265625 -0.78125 2.984375 -0.78125q1.90625 0 3.234375 0.796875l-0.46875 0.765625q-1.21875 -0.734375 -2.75 -0.734375q-1.078125 0 -1.9375 0.40625q-0.84375 0.40625 -1.390625 1.125q-0.53125 0.703125 -0.828125 1.640625q-0.28125 0.9375 -0.28125 2.03125q0 1.0625 0.265625 1.984375q0.265625 0.90625 0.78125 1.625q0.53125 0.703125 1.40625 1.125q0.875 0.40625 2.015625 0.40625q1.234375 0 2.734375 -0.6875l0.203125 0.8125q-1.140625 0.71875 -3.078125 0.71875zm8.390625 -0.78125q0.9375 0 1.578125 -0.484375q0.640625 -0.5 0.9375 -1.3125q0.296875 -0.8125 0.296875 -1.875q0 -1.65625 -0.703125 -2.65625q-0.703125 -1.015625 -2.140625 -1.015625q-0.9375 0 -1.609375 0.515625q-0.65625 0.5 -0.96875 1.3125q-0.296875 0.8125 -0.296875 1.875q0 1.59375 0.75 2.625q0.75 1.015625 2.15625 1.015625zm-0.078125 0.78125q-1.15625 0 -2.046875 -0.578125q-0.890625 -0.59375 -1.359375 -1.59375q-0.453125 -1.015625 -0.453125 -2.28125q0 -0.953125 0.265625 -1.765625q0.265625 -0.8125 0.765625 -1.40625q0.5 -0.609375 1.234375 -0.9375q0.75 -0.34375 1.65625 -0.34375q1.203125 0 2.078125 0.59375q0.890625 0.578125 1.328125 1.578125q0.453125 1.0 0.453125 2.265625q0 1.28125 -0.453125 2.28125q-0.453125 1.0 -1.359375 1.59375q-0.890625 0.59375 -2.109375 0.59375zm8.328125 0.015625q-0.828125 0 -1.5625 -0.203125q-0.71875 -0.21875 -1.140625 -0.5l0.140625 -0.8125q1.28125 0.671875 2.46875 0.671875q2.109375 0 2.1875 -1.5625q0 -0.65625 -0.421875 -1.03125q-0.421875 -0.375 -1.703125 -0.78125q-0.671875 -0.234375 -0.75 -0.265625q-2.0 -0.609375 -2.015625 -2.15625q0 -0.90625 0.78125 -1.59375q0.796875 -0.6875 2.140625 -0.6875q1.359375 0 2.546875 0.53125l-0.328125 0.71875q-1.203125 -0.453125 -2.234375 -0.453125q-0.90625 0 -1.421875 0.40625q-0.515625 0.40625 -0.515625 1.09375q0 0.578125 0.328125 0.890625q0.34375 0.296875 1.359375 0.578125q0.109375 0.03125 0.390625 0.140625q0.296875 0.109375 0.328125 0.125q1.359375 0.40625 1.890625 0.984375q0.53125 0.5625 0.53125 1.53125q-0.015625 1.125 -0.84375 1.75q-0.8125 0.625 -2.15625 0.625z" fill-rule="nonzero"/><path fill="#000000" fill-opacity="0.0" d="m286.2257 157.32759l0 16.723404l0.0630188 0l0 16.725418" fill-rule="evenodd"/><path stroke="#ffab40" stroke-width="2.0" stroke-linejoin="round" stroke-linecap="butt" d="m286.2257 157.32759l0 16.723404l0.0630188 0l0 4.725418" fill-rule="evenodd"/><path fill="#ffab40" stroke="#ffab40" stroke-width="2.0" stroke-linecap="butt" d="m282.98526 178.77641l3.3034668 9.076187l3.3034668 -9.076187z" fill-rule="evenodd"/><path fill="#000000" fill-opacity="0.0" d="m-6.56168E-4 192.8532l0 0c0 -5.0155945 4.0659466 -9.081543 9.081547 -9.081543l100.79753 0c2.408577 0 4.718506 0.95680237 6.421623 2.6599274c1.703125 1.7031097 2.6599274 4.0130463 2.6599274 6.4216156l0 36.325104c0 5.0155945 -4.0659485 9.081543 -9.081551 9.081543l-100.79753 0c-5.0156 0 -9.081547 -4.0659485 -9.081547 -9.081543z" fill-rule="evenodd"/><path stroke="#999999" stroke-width="2.0" stroke-linejoin="round" stroke-linecap="butt" d="m-6.56168E-4 192.8532l0 0c0 -5.0155945 4.0659466 -9.081543 9.081547 -9.081543l100.79753 0c2.408577 0 4.718506 0.95680237 6.421623 2.6599274c1.703125 1.7031097 2.6599274 4.0130463 2.6599274 6.4216156l0 36.325104c0 5.0155945 -4.0659485 9.081543 -9.081551 9.081543l-100.79753 0c-5.0156 0 -9.081547 -4.0659485 -9.081547 -9.081543z" fill-rule="evenodd"/><path fill="#000000" d="m15.514813 207.37575l0 -11.625l6.250001 0l-0.046875 0.859375l-5.1875 0l0 4.59375l4.953125 0l0 0.8125l-4.953125 0l0 5.359375l-1.015626 0zm7.8359385 0l0 -8.5625l0.984375 0l0 8.5625l-0.984375 0zm0 -10.3125l0 -1.3125l0.96875 0l0 1.3125l-0.96875 0zm5.5390625 10.5q-1.078125 0 -1.578125 -0.484375q-0.5 -0.5 -0.5 -1.609375l0 -9.984375l0.953125 -0.078125l0 10.015625q0 0.78125 0.28125 1.078125q0.28125 0.296875 0.859375 0.296875q0.46875 0 1.171875 -0.1875l0.046875 0.75q-0.765625 0.203125 -1.234375 0.203125zm4.7890606 0q-1.078125 0 -1.578125 -0.484375q-0.4999981 -0.5 -0.4999981 -1.609375l0 -5.953125l-1.203125 0l0.0625 -0.578125l1.15625 -0.109375l0.265625 -1.96875l0.6718731 -0.046875l0 2.0l2.5 0l0 0.703125l-2.5 0l0 5.75q0 0.90625 0.296875 1.21875q0.296875 0.3125 1.046875 0.3125q0.484375 0 1.203125 -0.1875l0.046875 0.75q-0.953125 0.203125 -1.46875 0.203125zm2.890625 -0.1875q-0.015625 -7.546875 -0.015625 -8.5625l0.796875 0l0.0625 1.6875q0.453125 -0.765625 1.15625 -1.25q0.71875 -0.484375 1.5 -0.484375q0.3125 0 0.6875 0.046875l-0.078125 0.8125q-0.28125 -0.046875 -0.59375 -0.046875q-1.078125 0 -1.828125 0.859375q-0.734375 0.84375 -0.734375 2.015625l0 4.921875l-0.953125 0zm7.7578125 0.1875q-1.203125 0 -1.9375 -0.609375q-0.71875 -0.609375 -0.71875 -1.75q0 -0.671875 0.28125 -1.15625q0.296875 -0.5 0.84375 -0.8125q0.546875 -0.3125 1.25 -0.484375q0.71875 -0.171875 1.65625 -0.234375q1.0 -0.0625 1.484375 -0.109375l0 -0.953125q0 -0.984375 -0.453125 -1.46875q-0.453125 -0.5 -1.4375 -0.5q-1.359375 0 -2.546875 0.640625q-0.03125 -0.078125 -0.140625 -0.328125q-0.109375 -0.265625 -0.15625 -0.40625q0.484375 -0.3125 1.265625 -0.515625q0.78125 -0.21875 1.53125 -0.21875q1.53125 0 2.203125 0.65625q0.671875 0.65625 0.671875 2.34375l0 5.71875l-0.75 0q-0.046875 -0.1875 -0.125 -0.71875q-0.0625 -0.53125 -0.0625 -0.546875q-1.015625 1.453125 -2.859375 1.453125zm0.03125 -0.78125q1.0 0 1.78125 -0.578125q0.78125 -0.59375 1.015625 -1.640625l0 -1.46875q-1.125 0.09375 -1.125 0.09375q-1.90625 0.171875 -2.65625 0.625q-0.734375 0.453125 -0.734375 1.40625q0 0.78125 0.46875 1.171875q0.46875 0.390625 1.25 0.390625zm12.125 0.78125q-1.078125 0 -1.578125 -0.484375q-0.5 -0.5 -0.5 -1.609375l0 -5.953125l-1.203125 0l0.0625 -0.578125l1.15625 -0.109375l0.265625 -1.96875l0.671875 -0.046875l0 2.0l2.5 0l0 0.703125l-2.5 0l0 5.75q0 0.90625 0.296875 1.21875q0.296875 0.3125 1.046875 0.3125q0.484375 0 1.203125 -0.1875l0.046875 0.75q-0.953125 0.203125 -1.46875 0.203125zm5.15625 0q-1.203125 0 -1.9375 -0.609375q-0.71875 -0.609375 -0.71875 -1.75q0 -0.671875 0.28125 -1.15625q0.296875 -0.5 0.84375 -0.8125q0.546875 -0.3125 1.25 -0.484375q0.71875 -0.171875 1.65625 -0.234375q1.0000038 -0.0625 1.4843788 -0.109375l0 -0.953125q0 -0.984375 -0.453125 -1.46875q-0.4531288 -0.5 -1.4375038 -0.5q-1.359375 0 -2.546875 0.640625q-0.03125 -0.078125 -0.140625 -0.328125q-0.109375 -0.265625 -0.15625 -0.40625q0.484375 -0.3125 1.265625 -0.515625q0.78125 -0.21875 1.53125 -0.21875q1.5312538 0 2.2031288 0.65625q0.671875 0.65625 0.671875 2.34375l0 5.71875l-0.75 0q-0.046875 -0.1875 -0.125 -0.71875q-0.0625 -0.53125 -0.0625 -0.546875q-1.0156288 1.453125 -2.8593788 1.453125zm0.03125 -0.78125q1.0 0 1.78125 -0.578125q0.7812538 -0.59375 1.0156288 -1.640625l0 -1.46875q-1.1250038 0.09375 -1.1250038 0.09375q-1.90625 0.171875 -2.65625 0.625q-0.734375 0.453125 -0.734375 1.40625q0 0.78125 0.46875 1.171875q0.46875 0.390625 1.25 0.390625zm7.4140663 4.578125l-0.109375 -0.875l1.8125 0q0.59375 0 1.046875 -0.109375q0.46875 -0.09375 0.78125 -0.265625q0.328125 -0.171875 0.546875 -0.46875q0.21875 -0.296875 0.34375 -0.59375q0.125 -0.296875 0.1875 -0.78125q0.078125 -0.46875 0.09375 -0.875q0.015625 -0.390625 0.015625 -0.984375q0 0.078125 -0.015625 -0.046875q-0.046875 -0.53125 -0.046875 -0.53125q-0.484375 0.734375 -1.15625 1.140625q-0.671875 0.40625 -1.640625 0.40625q-0.765625 0 -1.40625 -0.265625q-0.625 -0.28125 -1.03125 -0.71875q-0.390625 -0.4375 -0.671875 -1.0q-0.265625 -0.5625 -0.390625 -1.125q-0.109375 -0.5625 -0.109375 -1.109375q0 -0.6875 0.109375 -1.296875q0.109375 -0.625 0.390625 -1.21875q0.28125 -0.59375 0.703125 -1.03125q0.421875 -0.4375 1.078125 -0.6875q0.671875 -0.265625 1.515625 -0.265625q0.8125 0 1.4375 0.328125q0.640625 0.3125 1.171875 1.03125l0.09375 -1.203125l0.859375 0l0 7.9375q0 0.515625 -0.015625 0.828125q0 0.328125 -0.09375 0.859375q-0.078125 0.546875 -0.21875 0.890625q-0.140625 0.359375 -0.4375 0.78125q-0.296875 0.421875 -0.71875 0.65625q-0.421875 0.25 -1.078125 0.421875q-0.640625 0.171875 -1.46875 0.171875l-1.578125 0zm1.984375 -4.78125q0.5625 0 1.015625 -0.171875q0.46875 -0.1875 0.765625 -0.484375q0.3125 -0.3125 0.515625 -0.71875q0.203125 -0.40625 0.28125 -0.828125q0.09375 -0.4375 0.09375 -0.90625l0 -0.890625q0 -0.609375 -0.15625 -1.140625q-0.140625 -0.546875 -0.453125 -1.0q-0.296875 -0.453125 -0.84375 -0.71875q-0.53125 -0.265625 -1.25 -0.265625q-0.578125 0 -1.046875 0.21875q-0.453125 0.21875 -0.75 0.59375q-0.296875 0.359375 -0.5 0.859375q-0.203125 0.484375 -0.296875 1.0q-0.078125 0.515625 -0.078125 1.046875q0 0.484375 0.078125 0.9375q0.078125 0.4375 0.265625 0.90625q0.1875 0.453125 0.484375 0.796875q0.296875 0.34375 0.78125 0.5625q0.484375 0.203125 1.09375 0.203125zm13.46875 0.984375q-1.46875 0 -2.609375 -0.3125q-1.125 -0.328125 -1.75 -0.703125l0.375 -0.703125q1.640625 0.890625 4.078125 0.890625q1.328125 0 2.046875 -0.6875q0.734375 -0.703125 0.734375 -1.96875q0 -0.46875 -0.09375 -0.78125q-0.078125 -0.328125 -0.3125 -0.625q-0.234375 -0.296875 -0.6875 -0.484375q-0.453125 -0.203125 -1.140625 -0.34375l-1.875 -0.375q-1.578125 -0.3125 -2.359375 -0.984375q-0.78125 -0.671875 -0.78125 -1.921875q0 -0.796875 0.3125 -1.390625q0.3125 -0.59375 0.890625 -0.9375q0.59375 -0.359375 1.375 -0.515625q0.78125 -0.171875 1.765625 -0.171875q0.984375 0 1.921875 0.25q0.953125 0.234375 1.546875 0.53125l-0.25 0.765625q-0.46875 -0.25 -1.375 -0.484375q-0.890625 -0.234375 -1.859375 -0.234375q-1.65625 0 -2.484375 0.5625q-0.828125 0.546875 -0.828125 1.734375q0 0.734375 0.515625 1.1875q0.53125 0.453125 1.5625 0.671875l2.09375 0.421875q0.78125 0.171875 1.3125 0.40625q0.546875 0.21875 0.96875 0.578125q0.421875 0.359375 0.625 0.890625q0.203125 0.53125 0.203125 1.265625q0 1.640625 -1.078125 2.5625q-1.078125 0.90625 -2.84375 0.90625zm6.1171875 -0.1875l0 -11.625l1.0 0l0 11.625l-1.0 0zm3.921875 0l0 -11.625l1.171875 0l6.390625 9.796875l0.421875 0.578125q-0.0625 -2.40625 -0.0625 -3.0l0 -7.375l0.953125 0l0 11.625l-1.1875 0l-6.390625 -9.796875l-0.390625 -0.5625q0.0625 1.75 0.0625 3.03125l0 7.328125l-0.96875 0z" fill-rule="nonzero"/><path fill="#000000" d="m41.77653 226.56325q-1.78125 0 -2.828125 -1.1875q-1.03125 -1.1875 -1.03125 -3.21875q0 -1.96875 1.015625 -3.21875q1.015625 -1.25 2.640625 -1.28125q1.5 0 2.40625 1.078125q0.921875 1.078125 0.921875 2.890625q0 0.0625 0 0.28125q0 0.21875 0 0.296875l-5.96875 0q0.015625 1.65625 0.796875 2.625q0.78125 0.953125 2.0625 0.953125q0.84375 0 1.453125 -0.1875q0.625 -0.203125 1.296875 -0.5625l0.15625 0.734375q-1.296875 0.796875 -2.921875 0.796875zm-2.796875 -5.140625l4.875 0q0 -1.421875 -0.625 -2.1875q-0.609375 -0.765625 -1.6875 -0.765625q-1.09375 0 -1.765625 0.8125q-0.671875 0.8125 -0.796875 2.140625zm16.6875 5.140625q-1.34375 0 -2.390625 -0.453125q-1.046875 -0.46875 -1.703125 -1.28125q-0.65625 -0.8125 -1.0 -1.90625q-0.34375 -1.09375 -0.34375 -2.40625q0 -1.734375 0.640625 -3.0625q0.640625 -1.34375 1.90625 -2.125q1.265625 -0.78125 2.984375 -0.78125q1.90625 0 3.234375 0.796875l-0.46875 0.765625q-1.21875 -0.734375 -2.75 -0.734375q-1.078125 0 -1.9375 0.40625q-0.84375 0.40625 -1.390625 1.125q-0.53125 0.703125 -0.828125 1.640625q-0.28125 0.9375 -0.28125 2.03125q0 1.0625 0.265625 1.984375q0.265625 0.90625 0.78125 1.625q0.53125 0.703125 1.40625 1.125q0.875 0.40625 2.015625 0.40625q1.234375 0 2.734375 -0.6875l0.203125 0.8125q-1.140625 0.71875 -3.078125 0.71875zm10.062504 -0.828125q1.4375 0 2.40625 -0.65625q0.984375 -0.65625 1.4375 -1.796875q0.46875 -1.15625 0.46875 -2.734375q0 -2.46875 -1.09375 -3.8125q-1.09375 -1.359375 -3.21875 -1.359375q-2.1250038 0 -3.2500038 1.359375q-1.109375 1.34375 -1.109375 3.8125q0 2.40625 1.109375 3.796875q1.109375 1.390625 3.2500038 1.390625zm0 0.828125q-1.328125 0 -2.3750038 -0.4375q-1.046875 -0.453125 -1.71875 -1.25q-0.65625 -0.8125 -1.015625 -1.90625q-0.34375 -1.09375 -0.34375 -2.40625q0 -2.765625 1.421875 -4.390625q1.4375 -1.625 4.031254 -1.625q2.5625 0 3.984375 1.640625q1.4375 1.625 1.4375 4.375q0 1.296875 -0.359375 2.390625q-0.34375 1.078125 -1.015625 1.890625q-0.671875 0.796875 -1.71875 1.265625q-1.03125 0.453125 -2.328125 0.453125zm11.4765625 0q-1.46875 0 -2.609375 -0.3125q-1.125 -0.328125 -1.75 -0.703125l0.375 -0.703125q1.640625 0.890625 4.078125 0.890625q1.328125 0 2.046875 -0.6875q0.734375 -0.703125 0.734375 -1.96875q0 -0.46875 -0.09375 -0.78125q-0.078125 -0.328125 -0.3125 -0.625q-0.234375 -0.296875 -0.6875 -0.484375q-0.453125 -0.203125 -1.140625 -0.34375l-1.875 -0.375q-1.578125 -0.3125 -2.359375 -0.984375q-0.78125 -0.671875 -0.78125 -1.921875q0 -0.796875 0.3125 -1.390625q0.3125 -0.59375 0.890625 -0.9375q0.59375 -0.359375 1.375 -0.515625q0.78125 -0.171875 1.765625 -0.171875q0.984375 0 1.921875 0.25q0.953125 0.234375 1.546875 0.53125l-0.25 0.765625q-0.46875 -0.25 -1.375 -0.484375q-0.890625 -0.234375 -1.859375 -0.234375q-1.65625 0 -2.484375 0.5625q-0.828125 0.546875 -0.828125 1.734375q0 0.734375 0.515625 1.1875q0.53125 0.453125 1.5625 0.671875l2.09375 0.421875q0.78125 0.171875 1.3125 0.40625q0.546875 0.21875 0.96875 0.578125q0.421875 0.359375 0.625 0.890625q0.203125 0.53125 0.203125 1.265625q0 1.640625 -1.078125 2.5625q-1.078125 0.90625 -2.84375 0.90625z" fill-rule="nonzero"/><path fill="#000000" fill-opacity="0.0" d="m59.47966 114.79265l0 68.97638" fill-rule="evenodd"/><path stroke="#999999" stroke-width="2.0" stroke-linejoin="round" stroke-linecap="butt" d="m59.47966 114.79265l0 56.97638" fill-rule="evenodd"/><path fill="#999999" stroke="#999999" stroke-width="2.0" stroke-linecap="butt" d="m56.176193 171.76903l3.3034668 9.076202l3.303463 -9.076202z" fill-rule="evenodd"/><path fill="#000000" fill-opacity="0.0" d="m118.95145 209.70341l80.7874 1.5433044" fill-rule="evenodd"/><path stroke="#999999" stroke-width="2.0" stroke-linejoin="round" stroke-linecap="butt" d="m118.95145 209.70341l68.7896 1.3141022" fill-rule="evenodd"/><path fill="#999999" stroke="#999999" stroke-width="2.0" stroke-linecap="butt" d="m187.67793 214.32039l9.137634 -3.1295166l-9.011444 -3.4762115z" fill-rule="evenodd"/><path fill="#000000" fill-opacity="0.0" d="m286.2257 230.32545l0 57.133865" fill-rule="evenodd"/><path stroke="#ffab40" stroke-width="2.0" stroke-linejoin="round" stroke-linecap="butt" d="m286.2257 230.32545l0 45.133865" fill-rule="evenodd"/><path fill="#ffab40" stroke="#ffab40" stroke-width="2.0" stroke-linecap="butt" d="m282.92227 275.45932l3.3034363 9.076202l3.3034668 -9.076202z" fill-rule="evenodd"/></g></svg>