<svg version="1.1" viewBox="0.0 0.0 620.3805774278215 402.87926509186354" fill="none" stroke="none" stroke-linecap="square" stroke-miterlimit="10" xmlns:xlink="http://www.w3.org/1999/xlink" xmlns="http://www.w3.org/2000/svg"><clipPath id="p.0"><path d="m0 0l620.38055 0l0 402.87927l-620.38055 0l0 -402.87927z" clip-rule="nonzero"/></clipPath><g clip-path="url(#p.0)"><path fill="#000000" fill-opacity="0.0" d="m0 0l620.38055 0l0 402.87927l-620.38055 0z" fill-rule="evenodd"/><path fill="#000000" fill-opacity="0.0" d="m14.141732 168.59883l0 0c0 -11.034332 8.945083 -19.979416 19.979404 -19.979416l318.56088 0c5.298889 0 10.380707 2.1049805 14.127594 5.851837c3.7468567 3.746872 5.8518066 8.828705 5.8518066 14.127579l0 79.91521c0 11.034332 -8.945068 19.9794 -19.9794 19.9794l-318.56088 0c-11.034321 0 -19.979404 -8.945068 -19.979404 -19.9794z" fill-rule="evenodd"/><path stroke="#ff9900" stroke-width="2.0" stroke-linejoin="round" stroke-linecap="butt" d="m14.141732 168.59883l0 0c0 -11.034332 8.945083 -19.979416 19.979404 -19.979416l318.56088 0c5.298889 0 10.380707 2.1049805 14.127594 5.851837c3.7468567 3.746872 5.8518066 8.828705 5.8518066 14.127579l0 79.91521c0 11.034332 -8.945068 19.9794 -19.9794 19.9794l-318.56088 0c-11.034321 0 -19.979404 -8.945068 -19.979404 -19.9794z" fill-rule="evenodd"/><path fill="#000000" d="m108.50705 176.41643l0 -11.484375l3.8125 0q1.34375 0 2.296875 0.359375q0.96875 0.34375 1.53125 1.125q0.5625 0.78125 0.5625 1.953125q0 0.828125 -0.21875 1.46875q-0.203125 0.625 -0.6875 1.15625q-0.484375 0.515625 -1.375 0.796875q-0.875 0.28125 -2.109375 0.28125q-1.0625 0 -1.734375 -0.0625l0 4.40625l-2.078125 0zm3.578125 -5.875q0.65625 0 1.125 -0.125q0.484375 -0.125 0.75 -0.3125q0.28125 -0.203125 0.4375 -0.484375q0.15625 -0.296875 0.203125 -0.5625q0.0625 -0.28125 0.0625 -0.609375q0 -0.953125 -0.609375 -1.4375q-0.609375 -0.5 -1.71875 -0.5l-1.75 0l0 4.015625q0.09375 0.015625 1.5 0.015625zm6.0078125 5.875l0 -8.59375l1.71875 0l0.265625 1.3125q0.84375 -1.34375 2.453125 -1.34375q0.328125 0 0.546875 0.03125l-0.03125 1.703125q-0.3125 -0.046875 -0.65625 -0.046875q-1.125 0 -1.6875 0.609375q-0.5625 0.59375 -0.5625 1.671875l0 4.65625l-2.046875 0zm10.125 0.171875q-2.078125 0 -3.234375 -1.1875q-1.140625 -1.203125 -1.140625 -3.3125q0 -2.046875 1.078125 -3.25q1.09375 -1.21875 2.96875 -1.21875q1.765625 0 2.75 1.109375q0.984375 1.109375 0.984375 2.9375q0 0.140625 -0.015625 0.4375q0 0.296875 0 0.4375l-5.703125 0q0.03125 1.203125 0.65625 1.859375q0.625 0.65625 1.734375 0.65625q1.40625 0 2.703125 -0.734375l0.28125 1.453125q-1.28125 0.8125 -3.0625 0.8125zm-2.28125 -5.34375l3.75 0q0 -1.046875 -0.484375 -1.609375q-0.46875 -0.5625 -1.3125 -0.5625q-0.78125 0 -1.328125 0.546875q-0.546875 0.546875 -0.625 1.625zm7.3515625 8.75l0 -12.171875l1.75 0l0.21875 1.203125q0.421875 -0.671875 1.125 -1.046875q0.703125 -0.375 1.5625 -0.375q1.046875 0 1.84375 0.59375q0.8125 0.578125 1.21875 1.59375q0.421875 1.015625 0.421875 2.28125q0 2.0 -0.96875 3.265625q-0.96875 1.25 -2.609375 1.25q-0.8125 0 -1.484375 -0.328125q-0.65625 -0.328125 -1.09375 -0.890625q0.0625 1.140625 0.0625 1.28125l0 3.234375l-2.046875 0.109375zm4.125 -4.984375q0.90625 0 1.4375 -0.765625q0.53125 -0.765625 0.53125 -2.1875q0 -1.4375 -0.53125 -2.15625q-0.53125 -0.734375 -1.484375 -0.734375q-2.03125 0 -2.046875 2.765625q0 1.59375 0.515625 2.34375q0.53125 0.734375 1.578125 0.734375zm5.6875 1.40625l0 -8.59375l1.71875 0l0.265625 1.3125q0.84375 -1.34375 2.453125 -1.34375q0.328125 0 0.546875 0.03125l-0.03125 1.703125q-0.3125 -0.046875 -0.65625 -0.046875q-1.125 0 -1.6875 0.609375q-0.5625 0.59375 -0.5625 1.671875l0 4.65625l-2.046875 0zm9.890625 -1.390625q1.046875 0 1.5625 -0.75q0.53125 -0.765625 0.53125 -2.1875q0 -1.421875 -0.53125 -2.171875q-0.515625 -0.75 -1.578125 -0.75q-1.03125 0 -1.5625 0.75q-0.53125 0.75 -0.53125 2.1875q0 1.40625 0.53125 2.171875q0.53125 0.75 1.578125 0.75zm-0.046875 1.5625q-1.90625 0 -3.0 -1.234375q-1.09375 -1.25 -1.09375 -3.265625q0 -2.078125 1.09375 -3.265625q1.09375 -1.203125 3.078125 -1.203125q1.921875 0 3.015625 1.21875q1.09375 1.21875 1.09375 3.25q0 2.0625 -1.109375 3.28125q-1.09375 1.21875 -3.078125 1.21875zm9.609375 0q-1.96875 0 -3.0625 -1.171875q-1.09375 -1.1875 -1.09375 -3.359375q0 -2.109375 1.140625 -3.265625q1.15625 -1.171875 3.046875 -1.171875q1.5 0 2.546875 0.640625l-0.484375 1.46875q-1.0625 -0.5625 -1.984375 -0.5625q-1.03125 0 -1.640625 0.75q-0.59375 0.734375 -0.59375 2.15625q0 1.4375 0.59375 2.1875q0.59375 0.75 1.671875 0.75q1.125 0 2.15625 -0.65625l0.203125 1.546875q-0.546875 0.359375 -1.125 0.515625q-0.578125 0.171875 -1.375 0.171875zm8.03125 0q-2.078125 0 -3.234375 -1.1875q-1.140625 -1.203125 -1.140625 -3.3125q0 -2.046875 1.078125 -3.25q1.09375 -1.21875 2.96875 -1.21875q1.765625 0 2.75 1.109375q0.984375 1.109375 0.984375 2.9375q0 0.140625 -0.015625 0.4375q0 0.296875 0 0.4375l-5.703125 0q0.03125 1.203125 0.65625 1.859375q0.625 0.65625 1.734375 0.65625q1.40625 0 2.703125 -0.734375l0.28125 1.453125q-1.28125 0.8125 -3.0625 0.8125zm-2.28125 -5.34375l3.75 0q0 -1.046875 -0.484375 -1.609375q-0.46875 -0.5625 -1.3125 -0.5625q-0.78125 0 -1.328125 0.546875q-0.546875 0.546875 -0.625 1.625zm10.0859375 5.328125q-1.890625 0 -3.03125 -0.65625l0.203125 -1.53125q0.515625 0.28125 1.3125 0.5q0.796875 0.21875 1.453125 0.21875q0.6875 0 1.0625 -0.25q0.375 -0.25 0.390625 -0.75q0 -0.4375 -0.359375 -0.6875q-0.359375 -0.265625 -1.359375 -0.65625q-0.34375 -0.125 -0.4375 -0.15625q-1.1875 -0.46875 -1.71875 -1.03125q-0.515625 -0.5625 -0.515625 -1.53125q0 -1.171875 0.84375 -1.796875q0.84375 -0.625 2.359375 -0.625q1.640625 0 2.890625 0.609375l-0.515625 1.421875q-1.21875 -0.578125 -2.328125 -0.578125q-0.625 0 -0.96875 0.21875q-0.34375 0.203125 -0.34375 0.625q0 0.390625 0.328125 0.625q0.34375 0.21875 1.3125 0.578125q0.03125 0 0.203125 0.0625q0.171875 0.0625 0.265625 0.109375q1.1875 0.421875 1.734375 1.03125q0.5625 0.59375 0.5625 1.546875q-0.015625 1.296875 -0.890625 2.0q-0.859375 0.703125 -2.453125 0.703125zm7.6953125 0q-1.890625 0 -3.03125 -0.65625l0.203125 -1.53125q0.515625 0.28125 1.3125 0.5q0.796875 0.21875 1.453125 0.21875q0.6875 0 1.0625 -0.25q0.375 -0.25 0.390625 -0.75q0 -0.4375 -0.359375 -0.6875q-0.359375 -0.265625 -1.359375 -0.65625q-0.34375 -0.125 -0.4375 -0.15625q-1.1875 -0.46875 -1.71875 -1.03125q-0.515625 -0.5625 -0.515625 -1.53125q0 -1.171875 0.84375 -1.796875q0.84375 -0.625 2.359375 -0.625q1.640625 0 2.890625 0.609375l-0.515625 1.421875q-1.21875 -0.578125 -2.328125 -0.578125q-0.625 0 -0.96875 0.21875q-0.34375 0.203125 -0.34375 0.625q0 0.390625 0.328125 0.625q0.34375 0.21875 1.3125 0.578125q0.03125 0 0.203125 0.0625q0.171875 0.0625 0.265625 0.109375q1.1875 0.421875 1.734375 1.03125q0.5625 0.59375 0.5625 1.546875q-0.015625 1.296875 -0.890625 2.0q-0.859375 0.703125 -2.453125 0.703125zm5.0078125 -0.15625l0 -8.59375l2.046875 0l0 8.59375l-2.046875 0zm0 -9.84375l0 -1.75l2.046875 0l0 1.75l-2.046875 0zm4.1796875 9.84375l0 -8.59375l1.640625 0l0.234375 1.09375q1.3125 -1.296875 2.90625 -1.296875q1.5 0 2.25 0.859375q0.75 0.859375 0.75 2.5l0 5.4375l-2.0625 0l0 -5.1875q0 -1.03125 -0.328125 -1.546875q-0.328125 -0.515625 -1.1875 -0.515625q-0.65625 0 -1.21875 0.34375q-0.546875 0.328125 -0.796875 0.84375q-0.140625 0.609375 -0.140625 1.875l0 4.1875l-2.046875 0zm11.515625 3.84375l-0.125 -1.65625l1.046875 0q1.796875 0 2.515625 -0.484375q0.71875 -0.46875 0.71875 -1.765625q0 -0.515625 -0.046875 -1.125q-0.203125 0.28125 -0.390625 0.46875q-0.171875 0.171875 -0.453125 0.359375q-0.28125 0.171875 -0.671875 0.265625q-0.375 0.09375 -0.875 0.09375q-1.703125 0 -2.796875 -1.21875q-1.09375 -1.234375 -1.09375 -3.171875q0 -1.03125 0.296875 -1.875q0.3125 -0.859375 0.828125 -1.40625q0.53125 -0.546875 1.203125 -0.828125q0.6875 -0.296875 1.46875 -0.296875q1.71875 0 2.5625 1.25l0.140625 -1.046875l1.828125 0l0 7.984375q0 0.640625 -0.0625 1.15625q-0.0625 0.515625 -0.21875 0.984375q-0.15625 0.46875 -0.40625 0.8125q-0.25 0.359375 -0.640625 0.640625q-0.375 0.296875 -0.90625 0.484375q-0.515625 0.1875 -1.203125 0.28125q-0.6875 0.09375 -1.546875 0.09375l-1.171875 0zm2.046875 -5.28125q2.125 0 2.140625 -2.828125l0 -0.296875q-0.015625 -1.28125 -0.53125 -1.96875q-0.515625 -0.703125 -1.5 -0.703125q-1.125 0 -1.703125 0.765625q-0.578125 0.765625 -0.578125 2.078125q0 1.25 0.578125 2.109375q0.578125 0.84375 1.59375 0.84375zm10.5 1.4375l0 -11.484375l3.8125 0q1.34375 0 2.296875 0.359375q0.96875 0.34375 1.53125 1.125q0.5625 0.78125 0.5625 1.953125q0 0.828125 -0.21875 1.46875q-0.203125 0.625 -0.6875 1.15625q-0.484375 0.515625 -1.375 0.796875q-0.875 0.28125 -2.109375 0.28125q-1.0625 0 -1.734375 -0.0625l0 4.40625l-2.078125 0zm3.578125 -5.875q0.65625 0 1.125 -0.125q0.484375 -0.125 0.75 -0.3125q0.28125 -0.203125 0.4375 -0.484375q0.15625 -0.296875 0.203125 -0.5625q0.0625 -0.28125 0.0625 -0.609375q0 -0.953125 -0.609375 -1.4375q-0.609375 -0.5 -1.71875 -0.5l-1.75 0l0 4.015625q0.09375 0.015625 1.5 0.015625zm6.0546875 5.875l0 -8.59375l2.046875 0l0 8.59375l-2.046875 0zm0 -9.84375l0 -1.75l2.046875 0l0 1.75l-2.046875 0zm4.1796875 13.421875l0 -12.171875l1.75 0l0.21875 1.203125q0.421875 -0.671875 1.125 -1.046875q0.703125 -0.375 1.5625 -0.375q1.046875 0 1.84375 0.59375q0.8125 0.578125 1.21875 1.59375q0.421875 1.015625 0.421875 2.28125q0 2.0 -0.96875 3.265625q-0.96875 1.25 -2.609375 1.25q-0.8125 0 -1.484375 -0.328125q-0.65625 -0.328125 -1.09375 -0.890625q0.0625 1.140625 0.0625 1.28125l0 3.234375l-2.046875 0.109375zm4.125 -4.984375q0.90625 0 1.4375 -0.765625q0.53125 -0.765625 0.53125 -2.1875q0 -1.4375 -0.53125 -2.15625q-0.53125 -0.734375 -1.484375 -0.734375q-2.03125 0 -2.046875 2.765625q0 1.59375 0.515625 2.34375q0.53125 0.734375 1.578125 0.734375zm9.65625 1.578125q-2.078125 0 -3.234375 -1.1875q-1.140625 -1.203125 -1.140625 -3.3125q0 -2.046875 1.078125 -3.25q1.09375 -1.21875 2.96875 -1.21875q1.765625 0 2.75 1.109375q0.984375 1.109375 0.984375 2.9375q0 0.140625 -0.015625 0.4375q0 0.296875 0 0.4375l-5.703125 0q0.03125 1.203125 0.65625 1.859375q0.625 0.65625 1.734375 0.65625q1.40625 0 2.703125 -0.734375l0.28125 1.453125q-1.28125 0.8125 -3.0625 0.8125zm-2.28125 -5.34375l3.75 0q0 -1.046875 -0.484375 -1.609375q-0.46875 -0.5625 -1.3125 -0.5625q-0.78125 0 -1.328125 0.546875q-0.546875 0.546875 -0.625 1.625zm10.3515625 5.296875q-0.875 0 -1.46875 -0.203125q-0.578125 -0.21875 -0.921875 -0.671875q-0.328125 -0.453125 -0.46875 -1.078125q-0.125 -0.625 -0.125 -1.5625l0 -8.359375l2.046875 -0.140625l0 8.46875q0 1.15625 0.265625 1.5625q0.28125 0.40625 1.078125 0.40625q0.390625 0 0.984375 -0.078125l0.0625 1.453125q-0.015625 0 -0.203125 0.046875q-0.171875 0.046875 -0.34375 0.0625q-0.171875 0.03125 -0.4375 0.0625q-0.25 0.03125 -0.46875 0.03125zm2.515625 -0.125l0 -8.59375l2.046875 0l0 8.59375l-2.046875 0zm0 -9.84375l0 -1.75l2.046875 0l0 1.75l-2.046875 0zm4.1796875 9.84375l0 -8.59375l1.640625 0l0.234375 1.09375q1.3125 -1.296875 2.90625 -1.296875q1.5 0 2.25 0.859375q0.75 0.859375 0.75 2.5l0 5.4375l-2.0625 0l0 -5.1875q0 -1.03125 -0.328125 -1.546875q-0.328125 -0.515625 -1.1875 -0.515625q-0.65625 0 -1.21875 0.34375q-0.546875 0.328125 -0.796875 0.84375q-0.140625 0.609375 -0.140625 1.875l0 4.1875l-2.046875 0zm13.765625 0.171875q-2.078125 0 -3.234375 -1.1875q-1.140625 -1.203125 -1.140625 -3.3125q0 -2.046875 1.078125 -3.25q1.09375 -1.21875 2.96875 -1.21875q1.765625 0 2.75 1.109375q0.984375 1.109375 0.984375 2.9375q0 0.140625 -0.015625 0.4375q0 0.296875 0 0.4375l-5.703125 0q0.03125 1.203125 0.65625 1.859375q0.625 0.65625 1.734375 0.65625q1.40625 0 2.703125 -0.734375l0.28125 1.453125q-1.28125 0.8125 -3.0625 0.8125zm-2.28125 -5.34375l3.75 0q0 -1.046875 -0.484375 -1.609375q-0.46875 -0.5625 -1.3125 -0.5625q-0.78125 0 -1.328125 0.546875q-0.546875 0.546875 -0.625 1.625z" fill-rule="nonzero"/><path fill="#000000" d="m132.30392 195.57268q-2.078125 0 -3.71875 -0.953125l0.515625 -1.6875q0.734375 0.40625 1.59375 0.65625q0.875 0.25 1.6875 0.25q1.015625 0 1.53125 -0.421875q0.515625 -0.4375 0.515625 -1.25q0 -1.078125 -1.4375 -1.5q-0.109375 -0.03125 -0.578125 -0.15625q-0.46875 -0.140625 -0.875 -0.265625q-0.40625 -0.140625 -0.59375 -0.203125q-2.296875 -0.8125 -2.296875 -3.03125q0 -1.5625 1.09375 -2.40625q1.109375 -0.84375 2.9375 -0.84375q2.078125 0 3.578125 0.859375l-0.640625 1.546875q-1.53125 -0.6875 -2.84375 -0.6875q-0.953125 0 -1.4375 0.328125q-0.46875 0.328125 -0.5 1.109375q0 0.953125 0.9375 1.234375q0.1875 0.078125 0.921875 0.3125q0.734375 0.234375 0.953125 0.296875q1.578125 0.515625 2.25 1.28125q0.671875 0.765625 0.671875 2.140625q0 1.625 -1.15625 2.515625q-1.15625 0.875 -3.109375 0.875zm8.1484375 0.015625q-1.203125 0 -1.9375 -0.65625q-0.734375 -0.671875 -0.734375 -1.921875q0 -1.328125 0.875 -1.96875q0.875 -0.65625 2.640625 -0.828125q0.234375 -0.03125 0.515625 -0.0625q0.28125 -0.03125 0.625 -0.0625q0.359375 -0.03125 0.5625 -0.046875l0 -0.453125q0 -0.78125 -0.359375 -1.140625q-0.359375 -0.359375 -1.09375 -0.359375q-1.046875 0 -2.578125 0.59375q-0.015625 -0.03125 -0.265625 -0.71875q-0.25 -0.6875 -0.25 -0.703125q1.515625 -0.640625 3.28125 -0.640625q1.734375 0 2.515625 0.75q0.796875 0.75 0.796875 2.4375l0 5.609375l-1.515625 0q-0.015625 -0.03125 -0.1875 -0.515625q-0.15625 -0.5 -0.15625 -0.53125q-0.640625 0.625 -1.25 0.921875q-0.609375 0.296875 -1.484375 0.296875zm0.546875 -1.46875q0.71875 0 1.234375 -0.328125q0.53125 -0.34375 0.765625 -0.828125l0 -1.65625q-0.03125 0 -0.421875 0.03125q-0.375 0.03125 -0.40625 0.03125q-1.25 0.109375 -1.828125 0.46875q-0.578125 0.359375 -0.578125 1.15625q0 0.546875 0.3125 0.84375q0.328125 0.28125 0.921875 0.28125zm6.109375 1.296875l0 -8.59375l1.65625 0l0.234375 1.09375q0.15625 -0.1875 0.296875 -0.34375q0.140625 -0.15625 0.390625 -0.34375q0.265625 -0.1875 0.546875 -0.3125q0.28125 -0.125 0.703125 -0.203125q0.421875 -0.09375 0.890625 -0.09375q1.03125 0 1.640625 0.421875q0.609375 0.40625 0.859375 0.953125q0.46875 -0.65625 1.203125 -1.015625q0.734375 -0.359375 1.625 -0.359375q1.484375 0 2.171875 0.84375q0.6875 0.828125 0.6875 2.46875l0 5.484375l-2.046875 0l0 -4.875q0 -1.265625 -0.28125 -1.8125q-0.28125 -0.5625 -1.0625 -0.5625q-1.1875 0 -1.71875 1.078125q-0.21875 0.46875 -0.296875 1.140625l0 5.03125l-2.046875 0l0 -4.96875q0 -1.15625 -0.3125 -1.71875q-0.296875 -0.5625 -1.09375 -0.5625q-0.640625 0 -1.109375 0.328125q-0.46875 0.328125 -0.71875 0.859375q-0.171875 0.796875 -0.171875 1.890625l0 4.171875l-2.046875 0zm14.9296875 3.578125l0 -12.171875l1.75 0l0.21875 1.203125q0.421875 -0.671875 1.125 -1.046875q0.703125 -0.375 1.5625 -0.375q1.046875 0 1.84375 0.59375q0.8125 0.578125 1.21875 1.59375q0.421875 1.015625 0.421875 2.28125q0 2.0 -0.96875 3.265625q-0.96875 1.25 -2.609375 1.25q-0.8125 0 -1.484375 -0.328125q-0.65625 -0.328125 -1.09375 -0.890625q0.0625 1.140625 0.0625 1.28125l0 3.234375l-2.046875 0.109375zm4.125 -4.984375q0.90625 0 1.4375 -0.765625q0.53125 -0.765625 0.53125 -2.1875q0 -1.4375 -0.53125 -2.15625q-0.53125 -0.734375 -1.484375 -0.734375q-2.03125 0 -2.046875 2.765625q0 1.59375 0.515625 2.34375q0.53125 0.734375 1.578125 0.734375zm8.6875 1.53125q-0.875 0 -1.46875 -0.203125q-0.578125 -0.21875 -0.921875 -0.671875q-0.328125 -0.453125 -0.46875 -1.078125q-0.125 -0.625 -0.125 -1.5625l0 -8.359375l2.046875 -0.140625l0 8.46875q0 1.15625 0.265625 1.5625q0.28125 0.40625 1.078125 0.40625q0.390625 0 0.984375 -0.078125l0.0625 1.453125q-0.015625 0 -0.203125 0.046875q-0.171875 0.046875 -0.34375 0.0625q-0.171875 0.03125 -0.4375 0.0625q-0.25 0.03125 -0.46875 0.03125zm6.390625 0.046875q-2.078125 0 -3.234375 -1.1875q-1.140625 -1.203125 -1.140625 -3.3125q0 -2.046875 1.078125 -3.25q1.09375 -1.21875 2.96875 -1.21875q1.765625 0 2.75 1.109375q0.984375 1.109375 0.984375 2.9375q0 0.140625 -0.015625 0.4375q0 0.296875 0 0.4375l-5.703125 0q0.03125 1.203125 0.65625 1.859375q0.625 0.65625 1.734375 0.65625q1.40625 0 2.703125 -0.734375l0.28125 1.453125q-1.28125 0.8125 -3.0625 0.8125zm-2.28125 -5.34375l3.75 0q0 -1.046875 -0.484375 -1.609375q-0.46875 -0.5625 -1.3125 -0.5625q-0.78125 0 -1.328125 0.546875q-0.546875 0.546875 -0.625 1.625zm13.84375 5.34375q-1.203125 0 -1.9375 -0.65625q-0.734375 -0.671875 -0.734375 -1.921875q0 -1.328125 0.875 -1.96875q0.875 -0.65625 2.640625 -0.828125q0.234375 -0.03125 0.515625 -0.0625q0.28125 -0.03125 0.625 -0.0625q0.359375 -0.03125 0.5625 -0.046875l0 -0.453125q0 -0.78125 -0.359375 -1.140625q-0.359375 -0.359375 -1.09375 -0.359375q-1.046875 0 -2.578125 0.59375q-0.015625 -0.03125 -0.265625 -0.71875q-0.25 -0.6875 -0.25 -0.703125q1.515625 -0.640625 3.28125 -0.640625q1.734375 0 2.515625 0.75q0.796875 0.75 0.796875 2.4375l0 5.609375l-1.515625 0q-0.015625 -0.03125 -0.1875 -0.515625q-0.15625 -0.5 -0.15625 -0.53125q-0.640625 0.625 -1.25 0.921875q-0.609375 0.296875 -1.484375 0.296875zm0.546875 -1.46875q0.71875 0 1.234375 -0.328125q0.53125 -0.34375 0.765625 -0.828125l0 -1.65625q-0.03125 0 -0.421875 0.03125q-0.375 0.03125 -0.40625 0.03125q-1.25 0.109375 -1.828125 0.46875q-0.578125 0.359375 -0.578125 1.15625q0 0.546875 0.3125 0.84375q0.328125 0.28125 0.921875 0.28125zm6.109375 1.296875l0 -8.59375l1.640625 0l0.234375 1.09375q1.3125 -1.296875 2.90625 -1.296875q1.5 0 2.25 0.859375q0.75 0.859375 0.75 2.5l0 5.4375l-2.0625 0l0 -5.1875q0 -1.03125 -0.328125 -1.546875q-0.328125 -0.515625 -1.1875 -0.515625q-0.65625 0 -1.21875 0.34375q-0.546875 0.328125 -0.796875 0.84375q-0.140625 0.609375 -0.140625 1.875l0 4.1875l-2.046875 0zm12.984375 0.171875q-1.671875 0 -2.640625 -1.234375q-0.953125 -1.25 -0.953125 -3.3125q0 -2.0 0.953125 -3.203125q0.953125 -1.21875 2.640625 -1.21875q1.828125 0 2.578125 1.296875q-0.078125 -0.765625 -0.078125 -1.484375l0 -2.765625l2.046875 -0.140625l0 11.890625l-1.765625 0l-0.234375 -1.171875q-0.125 0.203125 -0.25 0.359375q-0.109375 0.15625 -0.328125 0.359375q-0.21875 0.1875 -0.46875 0.3125q-0.25 0.125 -0.640625 0.21875q-0.390625 0.09375 -0.859375 0.09375zm0.484375 -1.5625q2.0625 0 2.09375 -2.8125q0 -1.578125 -0.53125 -2.296875q-0.53125 -0.734375 -1.578125 -0.734375q-0.921875 0 -1.484375 0.734375q-0.546875 0.734375 -0.546875 2.171875q0 1.4375 0.546875 2.1875q0.5625 0.75 1.5 0.75zm10.578125 1.390625l0 -11.453125l2.125 0l0 4.6875l5.171875 0l0 -4.6875l2.109375 0l0 11.453125l-2.109375 0l0 -5.09375l-5.171875 0l0 5.09375l-2.125 0zm15.421875 -1.390625q1.046875 0 1.5625 -0.75q0.53125 -0.765625 0.53125 -2.1875q0 -1.421875 -0.53125 -2.171875q-0.515625 -0.75 -1.578125 -0.75q-1.03125 0 -1.5625 0.75q-0.53125 0.75 -0.53125 2.1875q0 1.40625 0.53125 2.171875q0.53125 0.75 1.578125 0.75zm-0.046875 1.5625q-1.90625 0 -3.0 -1.234375q-1.09375 -1.25 -1.09375 -3.265625q0 -2.078125 1.09375 -3.265625q1.09375 -1.203125 3.078125 -1.203125q1.921875 0 3.015625 1.21875q1.09375 1.21875 1.09375 3.25q0 2.0625 -1.109375 3.28125q-1.09375 1.21875 -3.078125 1.21875zm8.859375 -0.046875q-0.875 0 -1.46875 -0.203125q-0.578125 -0.21875 -0.921875 -0.671875q-0.328125 -0.453125 -0.46875 -1.078125q-0.125 -0.625 -0.125 -1.5625l0 -8.359375l2.046875 -0.140625l0 8.46875q0 1.15625 0.265625 1.5625q0.28125 0.40625 1.078125 0.40625q0.390625 0 0.984375 -0.078125l0.0625 1.453125q-0.015625 0 -0.203125 0.046875q-0.171875 0.046875 -0.34375 0.0625q-0.171875 0.03125 -0.4375 0.0625q-0.25 0.03125 -0.46875 0.03125zm5.609375 0.046875q-1.671875 0 -2.640625 -1.234375q-0.953125 -1.25 -0.953125 -3.3125q0 -2.0 0.953125 -3.203125q0.953125 -1.21875 2.640625 -1.21875q1.828125 0 2.578125 1.296875q-0.078125 -0.765625 -0.078125 -1.484375l0 -2.765625l2.046875 -0.140625l0 11.890625l-1.765625 0l-0.234375 -1.171875q-0.125 0.203125 -0.25 0.359375q-0.109375 0.15625 -0.328125 0.359375q-0.21875 0.1875 -0.46875 0.3125q-0.25 0.125 -0.640625 0.21875q-0.390625 0.09375 -0.859375 0.09375zm0.484375 -1.5625q2.0625 0 2.09375 -2.8125q0 -1.578125 -0.53125 -2.296875q-0.53125 -0.734375 -1.578125 -0.734375q-0.921875 0 -1.484375 0.734375q-0.546875 0.734375 -0.546875 2.171875q0 1.4375 0.546875 2.1875q0.5625 0.75 1.5 0.75z" fill-rule="nonzero"/><path fill="#000000" d="m50.522675 233.60393q-1.0625 0 -1.96875 -0.296875q-0.890625 -0.3125 -1.546875 -0.84375q-0.640625 -0.546875 -1.09375 -1.296875q-0.4375 -0.75 -0.671875 -1.640625q-0.21875 -0.890625 -0.21875 -1.890625q0 -1.765625 0.65625 -3.109375q0.65625 -1.359375 1.953125 -2.140625q1.3125 -0.796875 3.09375 -0.796875q1.953125 0 3.46875 0.890625l-0.453125 0.8125q-0.640625 -0.390625 -1.453125 -0.625q-0.796875 -0.25 -1.5625 -0.25q-1.140625 0 -2.03125 0.40625q-0.890625 0.40625 -1.453125 1.125q-0.546875 0.71875 -0.84375 1.65625q-0.28125 0.921875 -0.28125 2.015625q0 1.15625 0.28125 2.09375q0.296875 0.9375 0.875 1.625q0.578125 0.6875 1.484375 1.0625q0.90625 0.359375 2.09375 0.359375q1.234375 0 2.703125 -0.578125l0 -3.71875l-2.875 0l0.0625 -0.875l3.75 0l0 5.125q-0.953125 0.5 -1.859375 0.703125q-0.890625 0.1875 -2.109375 0.1875zm8.3671875 0q-1.078125 0 -1.578125 -0.484375q-0.5 -0.5 -0.5 -1.609375l0 -9.984375l0.953125 -0.078125l0 10.015625q0 0.78125 0.28125 1.078125q0.28125 0.296875 0.859375 0.296875q0.46875 0 1.171875 -0.1875l0.046875 0.75q-0.765625 0.203125 -1.234375 0.203125zm2.4765625 -0.1875l0 -8.5625l0.984375 0l0 8.5625l-0.984375 0zm0 -10.3125l0 -1.3125l0.96875 0l0 1.3125l-0.96875 0zm10.46875 10.5q-1.78125 0 -2.828125 -1.1875q-1.03125 -1.1875 -1.03125 -3.21875q0 -1.96875 1.015625 -3.21875q1.015625 -1.25 2.640625 -1.28125q1.5 0 2.40625 1.078125q0.921875 1.078125 0.921875 2.890625q0 0.0625 0 0.28125q0 0.21875 0 0.296875l-5.96875 0q0.015625 1.65625 0.796875 2.625q0.78125 0.953125 2.0625 0.953125q0.84375 0 1.453125 -0.1875q0.625 -0.203125 1.296875 -0.5625l0.15625 0.734375q-1.296875 0.796875 -2.921875 0.796875zm-2.796875 -5.140625l4.875 0q0 -1.421875 -0.625 -2.1875q-0.609375 -0.765625 -1.6875 -0.765625q-1.09375 0 -1.765625 0.8125q-0.671875 0.8125 -0.796875 2.140625zm9.9921875 4.953125l-3.265625 -8.5625l1.03125 0l1.984375 5.390625q0.15625 0.515625 0.375 1.09375q0.21875 0.5625 0.34375 0.890625l0.140625 0.3125q0.140625 -0.5 0.375 -1.0625q0.25 -0.578125 0.4375 -1.203125q0.21875 -0.671875 0.765625 -2.03125q0.5625 -1.359375 1.21875 -3.390625l1.03125 0l-3.3125 8.5625l-1.125 0zm9.0703125 0.1875q-1.78125 0 -2.828125 -1.1875q-1.03125 -1.1875 -1.03125 -3.21875q0 -1.96875 1.015625 -3.21875q1.015625 -1.25 2.640625 -1.28125q1.5 0 2.40625 1.078125q0.921875 1.078125 0.921875 2.890625q0 0.0625 0 0.28125q0 0.21875 0 0.296875l-5.96875 0q0.015625 1.65625 0.796875 2.625q0.78125 0.953125 2.0625 0.953125q0.84375 0 1.453125 -0.1875q0.625 -0.203125 1.296875 -0.5625l0.15625 0.734375q-1.296875 0.796875 -2.921875 0.796875zm-2.796875 -5.140625l4.875 0q0 -1.421875 -0.625 -2.1875q-0.609375 -0.765625 -1.6875 -0.765625q-1.09375 0 -1.765625 0.8125q-0.671875 0.8125 -0.796875 2.140625zm7.8671875 4.953125l0 -8.5625l0.84375 0l0.125 1.3125q0.46875 -0.6875 1.234375 -1.078125q0.78125 -0.390625 1.6875 -0.390625q1.46875 0 2.15625 0.8125q0.703125 0.8125 0.703125 2.59375l0 5.3125l-0.96875 0l0 -5.75q-0.046875 -1.140625 -0.5 -1.640625q-0.4375 -0.5 -1.453125 -0.5q-1.15625 0 -1.90625 0.59375q-0.734375 0.578125 -0.921875 1.5q-0.03125 0.375 -0.03125 0.765625l0 5.03125l-0.96875 0zm11.40625 0.1875q-1.078125 0 -1.578125 -0.484375q-0.5 -0.5 -0.5 -1.609375l0 -5.953125l-1.203125 0l0.0625 -0.578125l1.15625 -0.109375l0.265625 -1.96875l0.671875 -0.046875l0 2.0l2.5 0l0 0.703125l-2.5 0l0 5.75q0 0.90625 0.296875 1.21875q0.296875 0.3125 1.046875 0.3125q0.484375 0 1.203125 -0.1875l0.046875 0.75q-0.953125 0.203125 -1.46875 0.203125zm2.96875 -0.1875l0 -8.5625l0.984375 0l0 8.5625l-0.984375 0zm0 -10.3125l0 -1.3125l0.96875 0l0 1.3125l-0.96875 0zm10.234375 10.5q-1.71875 0 -2.671875 -1.1875q-0.953125 -1.203125 -0.953125 -3.296875q0 -1.96875 0.984375 -3.1875q0.984375 -1.234375 2.609375 -1.234375q0.796875 0 1.59375 0.34375q0.796875 0.34375 1.203125 1.0625l0 -0.25l0 -4.328125l0.9375 -0.078125l0 11.96875l-0.796875 0l-0.140625 -1.296875q-0.453125 0.734375 -1.21875 1.109375q-0.75 0.375 -1.546875 0.375zm-0.03125 -0.78125q0.734375 0 1.28125 -0.265625q0.546875 -0.265625 0.875 -0.75q0.328125 -0.484375 0.484375 -1.109375q0.15625 -0.625 0.15625 -1.390625q0 -3.828125 -2.8125 -3.828125q-0.65625 0 -1.171875 0.328125q-0.5 0.3125 -0.796875 0.84375q-0.296875 0.53125 -0.4375 1.171875q-0.140625 0.625 -0.140625 1.3125q0 0.609375 0.078125 1.140625q0.09375 0.515625 0.28125 1.0q0.203125 0.46875 0.484375 0.8125q0.296875 0.34375 0.734375 0.546875q0.4375 0.1875 0.984375 0.1875zm9.5078125 0.78125q-1.78125 0 -2.828125 -1.1875q-1.03125 -1.1875 -1.03125 -3.21875q0 -1.96875 1.015625 -3.21875q1.015625 -1.25 2.640625 -1.28125q1.5 0 2.40625 1.078125q0.921875 1.078125 0.921875 2.890625q0 0.0625 0 0.28125q0 0.21875 0 0.296875l-5.96875 0q0.015625 1.65625 0.796875 2.625q0.78125 0.953125 2.0625 0.953125q0.84375 0 1.453125 -0.1875q0.625 -0.203125 1.296875 -0.5625l0.15625 0.734375q-1.296875 0.796875 -2.921875 0.796875zm-2.796875 -5.140625l4.875 0q0 -1.421875 -0.625 -2.1875q-0.609375 -0.765625 -1.6875 -0.765625q-1.09375 0 -1.765625 0.8125q-0.671875 0.8125 -0.796875 2.140625zm7.9609375 4.953125l0 -8.5625l0.984375 0l0 8.5625l-0.984375 0zm0 -10.3125l0 -1.3125l0.96875 0l0 1.3125l-0.96875 0zm9.5 10.515625q-0.828125 0 -1.5625 -0.203125q-0.71875 -0.21875 -1.140625 -0.5l0.140625 -0.8125q1.28125 0.671875 2.46875 0.671875q2.109375 0 2.1875 -1.5625q0 -0.65625 -0.421875 -1.03125q-0.421875 -0.375 -1.703125 -0.78125q-0.671875 -0.234375 -0.75 -0.265625q-2.0 -0.609375 -2.015625 -2.15625q0 -0.90625 0.78125 -1.59375q0.796875 -0.6875 2.140625 -0.6875q1.359375 0 2.546875 0.53125l-0.328125 0.71875q-1.203125 -0.453125 -2.234375 -0.453125q-0.90625 0 -1.421875 0.40625q-0.515625 0.40625 -0.515625 1.09375q0 0.578125 0.328125 0.890625q0.34375 0.296875 1.359375 0.578125q0.109375 0.03125 0.390625 0.140625q0.296875 0.109375 0.328125 0.125q1.359375 0.40625 1.890625 0.984375q0.53125 0.5625 0.53125 1.53125q-0.015625 1.125 -0.84375 1.75q-0.8125 0.625 -2.15625 0.625zm8.34375 -0.015625q-1.78125 0 -2.828125 -1.1875q-1.03125 -1.1875 -1.03125 -3.21875q0 -1.96875 1.015625 -3.21875q1.015625 -1.25 2.640625 -1.28125q1.5 0 2.40625 1.078125q0.921875 1.078125 0.921875 2.890625q0 0.0625 0 0.28125q0 0.21875 0 0.296875l-5.96875 0q0.015625 1.65625 0.796875 2.625q0.78125 0.953125 2.0625 0.953125q0.84375 0 1.453125 -0.1875q0.625 -0.203125 1.296875 -0.5625l0.15625 0.734375q-1.296875 0.796875 -2.921875 0.796875zm-2.796875 -5.140625l4.875 0q0 -1.421875 -0.625 -2.1875q-0.609375 -0.765625 -1.6875 -0.765625q-1.09375 0 -1.765625 0.8125q-0.671875 0.8125 -0.796875 2.140625zm7.8671875 4.953125l0 -8.5625l0.84375 0l0.125 1.3125q0.46875 -0.6875 1.234375 -1.078125q0.78125 -0.390625 1.6875 -0.390625q1.46875 0 2.15625 0.8125q0.703125 0.8125 0.703125 2.59375l0 5.3125l-0.96875 0l0 -5.75q-0.046875 -1.140625 -0.5 -1.640625q-0.4375 -0.5 -1.453125 -0.5q-1.15625 0 -1.90625 0.59375q-0.734375 0.578125 -0.921875 1.5q-0.03125 0.375 -0.03125 0.765625l0 5.03125l-0.96875 0zm11.5 0.203125q-0.828125 0 -1.5625 -0.203125q-0.71875 -0.21875 -1.140625 -0.5l0.140625 -0.8125q1.28125 0.671875 2.46875 0.671875q2.109375 0 2.1875 -1.5625q0 -0.65625 -0.421875 -1.03125q-0.421875 -0.375 -1.703125 -0.78125q-0.671875 -0.234375 -0.75 -0.265625q-2.0 -0.609375 -2.015625 -2.15625q0 -0.90625 0.78125 -1.59375q0.796875 -0.6875 2.140625 -0.6875q1.359375 0 2.546875 0.53125l-0.328125 0.71875q-1.203125 -0.453125 -2.234375 -0.453125q-0.90625 0 -1.421875 0.40625q-0.515625 0.40625 -0.515625 1.09375q0 0.578125 0.328125 0.890625q0.34375 0.296875 1.359375 0.578125q0.109375 0.03125 0.390625 0.140625q0.296875 0.109375 0.328125 0.125q1.359375 0.40625 1.890625 0.984375q0.53125 0.5625 0.53125 1.53125q-0.015625 1.125 -0.84375 1.75q-0.8125 0.625 -2.15625 0.625zm8.421875 -0.796875q0.9375 0 1.578125 -0.484375q0.640625 -0.5 0.9375 -1.3125q0.296875 -0.8125 0.296875 -1.875q0 -1.65625 -0.703125 -2.65625q-0.703125 -1.015625 -2.140625 -1.015625q-0.9375 0 -1.609375 0.515625q-0.65625 0.5 -0.96875 1.3125q-0.296875 0.8125 -0.296875 1.875q0 1.59375 0.75 2.625q0.75 1.015625 2.15625 1.015625zm-0.078125 0.78125q-1.15625 0 -2.046875 -0.578125q-0.890625 -0.59375 -1.359375 -1.59375q-0.453125 -1.015625 -0.453125 -2.28125q0 -0.953125 0.265625 -1.765625q0.265625 -0.8125 0.765625 -1.40625q0.5 -0.609375 1.234375 -0.9375q0.75 -0.34375 1.65625 -0.34375q1.203125 0 2.078125 0.59375q0.890625 0.578125 1.328125 1.578125q0.453125 1.0 0.453125 2.265625q0 1.28125 -0.453125 2.28125q-0.453125 1.0 -1.359375 1.59375q-0.890625 0.59375 -2.109375 0.59375zm5.84375 -0.1875q-0.015625 -7.546875 -0.015625 -8.5625l0.796875 0l0.0625 1.6875q0.453125 -0.765625 1.15625 -1.25q0.71875 -0.484375 1.5 -0.484375q0.3125 0 0.6875 0.046875l-0.078125 0.8125q-0.28125 -0.046875 -0.59375 -0.046875q-1.078125 0 -1.828125 0.859375q-0.734375 0.84375 -0.734375 2.015625l0 4.921875l-0.953125 0zm5.6640625 0l0 -8.5625l0.984375 0l0 8.5625l-0.984375 0zm0 -10.3125l0 -1.3125l0.96875 0l0 1.3125l-0.96875 0zm9.125 10.3125l-3.265625 -8.5625l1.03125 0l1.984375 5.390625q0.15625 0.515625 0.375 1.09375q0.21875 0.5625 0.34375 0.890625l0.140625 0.3125q0.140625 -0.5 0.375 -1.0625q0.25 -0.578125 0.4375 -1.203125q0.21875 -0.671875 0.765625 -2.03125q0.5625 -1.359375 1.21875 -3.390625l1.03125 0l-3.3125 8.5625l-1.125 0zm9.0703125 0.1875q-1.78125 0 -2.828125 -1.1875q-1.03125 -1.1875 -1.03125 -3.21875q0 -1.96875 1.015625 -3.21875q1.015625 -1.25 2.640625 -1.28125q1.5 0 2.40625 1.078125q0.921875 1.078125 0.921875 2.890625q0 0.0625 0 0.28125q0 0.21875 0 0.296875l-5.96875 0q0.015625 1.65625 0.796875 2.625q0.78125 0.953125 2.0625 0.953125q0.84375 0 1.453125 -0.1875q0.625 -0.203125 1.296875 -0.5625l0.15625 0.734375q-1.296875 0.796875 -2.921875 0.796875zm-2.796875 -5.140625l4.875 0q0 -1.421875 -0.625 -2.1875q-0.609375 -0.765625 -1.6875 -0.765625q-1.09375 0 -1.765625 0.8125q-0.671875 0.8125 -0.796875 2.140625zm7.8671875 4.953125l0 -8.5625l0.84375 0l0.125 1.3125q0.46875 -0.6875 1.234375 -1.078125q0.78125 -0.390625 1.6875 -0.390625q1.46875 0 2.15625 0.8125q0.703125 0.8125 0.703125 2.59375l0 5.3125l-0.96875 0l0 -5.75q-0.046875 -1.140625 -0.5 -1.640625q-0.4375 -0.5 -1.453125 -0.5q-1.15625 0 -1.90625 0.59375q-0.734375 0.578125 -0.921875 1.5q-0.03125 0.375 -0.03125 0.765625l0 5.03125l-0.96875 0zm10.3125 3.984375l-0.109375 -0.875l1.8125 0q0.59375 0 1.046875 -0.109375q0.46875 -0.09375 0.78125 -0.265625q0.328125 -0.171875 0.546875 -0.46875q0.21875 -0.296875 0.34375 -0.59375q0.125 -0.296875 0.1875 -0.78125q0.078125 -0.46875 0.09375 -0.875q0.015625 -0.390625 0.015625 -0.984375q0 0.078125 -0.015625 -0.046875q-0.046875 -0.53125 -0.046875 -0.53125q-0.484375 0.734375 -1.15625 1.140625q-0.671875 0.40625 -1.640625 0.40625q-0.765625 0 -1.40625 -0.265625q-0.625 -0.28125 -1.03125 -0.71875q-0.390625 -0.4375 -0.671875 -1.0q-0.265625 -0.5625 -0.390625 -1.125q-0.109375 -0.5625 -0.109375 -1.109375q0 -0.6875 0.109375 -1.296875q0.109375 -0.625 0.390625 -1.21875q0.28125 -0.59375 0.703125 -1.03125q0.421875 -0.4375 1.078125 -0.6875q0.671875 -0.265625 1.515625 -0.265625q0.8125 0 1.4375 0.328125q0.640625 0.3125 1.171875 1.03125l0.09375 -1.203125l0.859375 0l0 7.9375q0 0.515625 -0.015625 0.828125q0 0.328125 -0.09375 0.859375q-0.078125 0.546875 -0.21875 0.890625q-0.140625 0.359375 -0.4375 0.78125q-0.296875 0.421875 -0.71875 0.65625q-0.421875 0.25 -1.078125 0.421875q-0.640625 0.171875 -1.46875 0.171875l-1.578125 0zm1.984375 -4.78125q0.5625 0 1.015625 -0.171875q0.46875 -0.1875 0.765625 -0.484375q0.3125 -0.3125 0.515625 -0.71875q0.203125 -0.40625 0.28125 -0.828125q0.09375 -0.4375 0.09375 -0.90625l0 -0.890625q0 -0.609375 -0.15625 -1.140625q-0.140625 -0.546875 -0.453125 -1.0q-0.296875 -0.453125 -0.84375 -0.71875q-0.53125 -0.265625 -1.25 -0.265625q-0.578125 0 -1.046875 0.21875q-0.453125 0.21875 -0.75 0.59375q-0.296875 0.359375 -0.5 0.859375q-0.203125 0.484375 -0.296875 1.0q-0.078125 0.515625 -0.078125 1.046875q0 0.484375 0.078125 0.9375q0.078125 0.4375 0.265625 0.90625q0.1875 0.453125 0.484375 0.796875q0.296875 0.34375 0.78125 0.5625q0.484375 0.203125 1.09375 0.203125zm9.4140625 0.203125q0.9375 0 1.578125 -0.484375q0.640625 -0.5 0.9375 -1.3125q0.296875 -0.8125 0.296875 -1.875q0 -1.65625 -0.703125 -2.65625q-0.703125 -1.015625 -2.140625 -1.015625q-0.9375 0 -1.609375 0.515625q-0.65625 0.5 -0.96875 1.3125q-0.296875 0.8125 -0.296875 1.875q0 1.59375 0.75 2.625q0.75 1.015625 2.15625 1.015625zm-0.078125 0.78125q-1.15625 0 -2.046875 -0.578125q-0.890625 -0.59375 -1.359375 -1.59375q-0.453125 -1.015625 -0.453125 -2.28125q0 -0.953125 0.265625 -1.765625q0.265625 -0.8125 0.765625 -1.40625q0.5 -0.609375 1.234375 -0.9375q0.75 -0.34375 1.65625 -0.34375q1.203125 0 2.078125 0.59375q0.890625 0.578125 1.328125 1.578125q0.453125 1.0 0.453125 2.265625q0 1.28125 -0.453125 2.28125q-0.453125 1.0 -1.359375 1.59375q-0.890625 0.59375 -2.109375 0.59375zm5.828125 -0.1875l0 -8.5625l0.84375 0l0.125 1.3125q0.46875 -0.6875 1.234375 -1.078125q0.78125 -0.390625 1.6875 -0.390625q1.46875 0 2.15625 0.8125q0.703125 0.8125 0.703125 2.59375l0 5.3125l-0.96875 0l0 -5.75q-0.046875 -1.140625 -0.5 -1.640625q-0.4375 -0.5 -1.453125 -0.5q-1.15625 0 -1.90625 0.59375q-0.734375 0.578125 -0.921875 1.5q-0.03125 0.375 -0.03125 0.765625l0 5.03125l-0.96875 0zm12.546875 -0.59375q0.9375 0 1.578125 -0.484375q0.640625 -0.5 0.9375 -1.3125q0.296875 -0.8125 0.296875 -1.875q0 -1.65625 -0.703125 -2.65625q-0.703125 -1.015625 -2.140625 -1.015625q-0.9375 0 -1.609375 0.515625q-0.65625 0.5 -0.96875 1.3125q-0.296875 0.8125 -0.296875 1.875q0 1.59375 0.75 2.625q0.75 1.015625 2.15625 1.015625zm-0.078125 0.78125q-1.15625 0 -2.046875 -0.578125q-0.890625 -0.59375 -1.359375 -1.59375q-0.453125 -1.015625 -0.453125 -2.28125q0 -0.953125 0.265625 -1.765625q0.265625 -0.8125 0.765625 -1.40625q0.5 -0.609375 1.234375 -0.9375q0.75 -0.34375 1.65625 -0.34375q1.203125 0 2.078125 0.59375q0.890625 0.578125 1.328125 1.578125q0.453125 1.0 0.453125 2.265625q0 1.28125 -0.453125 2.28125q-0.453125 1.0 -1.359375 1.59375q-0.890625 0.59375 -2.109375 0.59375z" fill-rule="nonzero"/><path fill="#000000" d="m262.968 233.5883q-1.96875 0 -3.0625 -1.171875q-1.09375 -1.1875 -1.09375 -3.359375q0 -2.109375 1.140625 -3.265625q1.15625 -1.171875 3.046875 -1.171875q1.5 0 2.546875 0.640625l-0.484375 1.46875q-1.0625 -0.5625 -1.984375 -0.5625q-1.03125 0 -1.640625 0.75q-0.59375 0.734375 -0.59375 2.15625q0 1.4375 0.59375 2.1875q0.59375 0.75 1.671875 0.75q1.125 0 2.15625 -0.65625l0.203125 1.546875q-0.546875 0.359375 -1.125 0.515625q-0.578125 0.171875 -1.375 0.171875zm6.390625 0q-1.203125 0 -1.9375 -0.65625q-0.734375 -0.671875 -0.734375 -1.921875q0 -1.328125 0.875 -1.96875q0.875 -0.65625 2.640625 -0.828125q0.234375 -0.03125 0.515625 -0.0625q0.28125 -0.03125 0.625 -0.0625q0.359375 -0.03125 0.5625 -0.046875l0 -0.453125q0 -0.78125 -0.359375 -1.140625q-0.359375 -0.359375 -1.09375 -0.359375q-1.046875 0 -2.578125 0.59375q-0.015625 -0.03125 -0.265625 -0.71875q-0.25 -0.6875 -0.25 -0.703125q1.515625 -0.640625 3.28125 -0.640625q1.734375 0 2.515625 0.75q0.796875 0.75 0.796875 2.4375l0 5.609375l-1.515625 0q-0.015625 -0.03125 -0.1875 -0.515625q-0.15625 -0.5 -0.15625 -0.53125q-0.640625 0.625 -1.25 0.921875q-0.609375 0.296875 -1.484375 0.296875zm0.546875 -1.46875q0.71875 0 1.234375 -0.328125q0.53125 -0.34375 0.765625 -0.828125l0 -1.65625q-0.03125 0 -0.421875 0.03125q-0.375 0.03125 -0.40625 0.03125q-1.25 0.109375 -1.828125 0.46875q-0.578125 0.359375 -0.578125 1.15625q0 0.546875 0.3125 0.84375q0.328125 0.28125 0.921875 0.28125zm6.109375 1.296875l0 -8.59375l1.65625 0l0.234375 1.09375q0.15625 -0.1875 0.296875 -0.34375q0.140625 -0.15625 0.390625 -0.34375q0.265625 -0.1875 0.546875 -0.3125q0.28125 -0.125 0.703125 -0.203125q0.421875 -0.09375 0.890625 -0.09375q1.03125 0 1.640625 0.421875q0.609375 0.40625 0.859375 0.953125q0.46875 -0.65625 1.203125 -1.015625q0.734375 -0.359375 1.625 -0.359375q1.484375 0 2.171875 0.84375q0.6875 0.828125 0.6875 2.46875l0 5.484375l-2.046875 0l0 -4.875q0 -1.265625 -0.28125 -1.8125q-0.28125 -0.5625 -1.0625 -0.5625q-1.1875 0 -1.71875 1.078125q-0.21875 0.46875 -0.296875 1.140625l0 5.03125l-2.046875 0l0 -4.96875q0 -1.15625 -0.3125 -1.71875q-0.296875 -0.5625 -1.09375 -0.5625q-0.640625 0 -1.109375 0.328125q-0.46875 0.328125 -0.71875 0.859375q-0.171875 0.796875 -0.171875 1.890625l0 4.171875l-2.046875 0zm14.9296875 3.578125l0 -12.171875l1.75 0l0.21875 1.203125q0.421875 -0.671875 1.125 -1.046875q0.703125 -0.375 1.5625 -0.375q1.046875 0 1.84375 0.59375q0.8125 0.578125 1.21875 1.59375q0.421875 1.015625 0.421875 2.28125q0 2.0 -0.96875 3.265625q-0.96875 1.25 -2.609375 1.25q-0.8125 0 -1.484375 -0.328125q-0.65625 -0.328125 -1.09375 -0.890625q0.0625 1.140625 0.0625 1.28125l0 3.234375l-2.046875 0.109375zm4.125 -4.984375q0.90625 0 1.4375 -0.765625q0.53125 -0.765625 0.53125 -2.1875q0 -1.4375 -0.53125 -2.15625q-0.53125 -0.734375 -1.484375 -0.734375q-2.03125 0 -2.046875 2.765625q0 1.59375 0.515625 2.34375q0.53125 0.734375 1.578125 0.734375zm5.734375 1.40625l0 -8.59375l2.046875 0l0 8.59375l-2.046875 0zm0 -9.84375l0 -1.75l2.046875 0l0 1.75l-2.046875 0zm7.9140625 8.453125q1.046875 0 1.5625 -0.75q0.53125 -0.765625 0.53125 -2.1875q0 -1.421875 -0.53125 -2.171875q-0.515625 -0.75 -1.578125 -0.75q-1.03125 0 -1.5625 0.75q-0.53125 0.75 -0.53125 2.1875q0 1.40625 0.53125 2.171875q0.53125 0.75 1.578125 0.75zm-0.046875 1.5625q-1.90625 0 -3.0 -1.234375q-1.09375 -1.25 -1.09375 -3.265625q0 -2.078125 1.09375 -3.265625q1.09375 -1.203125 3.078125 -1.203125q1.921875 0 3.015625 1.21875q1.09375 1.21875 1.09375 3.25q0 2.0625 -1.109375 3.28125q-1.09375 1.21875 -3.078125 1.21875zm5.859375 -0.171875l0 -8.59375l1.640625 0l0.234375 1.09375q1.3125 -1.296875 2.90625 -1.296875q1.5 0 2.25 0.859375q0.75 0.859375 0.75 2.5l0 5.4375l-2.0625 0l0 -5.1875q0 -1.03125 -0.328125 -1.546875q-0.328125 -0.515625 -1.1875 -0.515625q-0.65625 0 -1.21875 0.34375q-0.546875 0.328125 -0.796875 0.84375q-0.140625 0.609375 -0.140625 1.875l0 4.1875l-2.046875 0zm12.0625 0.171875q-1.203125 0 -1.9375 -0.65625q-0.734375 -0.671875 -0.734375 -1.921875q0 -1.328125 0.875 -1.96875q0.875 -0.65625 2.640625 -0.828125q0.234375 -0.03125 0.515625 -0.0625q0.28125 -0.03125 0.625 -0.0625q0.359375 -0.03125 0.5625 -0.046875l0 -0.453125q0 -0.78125 -0.359375 -1.140625q-0.359375 -0.359375 -1.09375 -0.359375q-1.046875 0 -2.578125 0.59375q-0.015625 -0.03125 -0.265625 -0.71875q-0.25 -0.6875 -0.25 -0.703125q1.515625 -0.640625 3.28125 -0.640625q1.734375 0 2.515625 0.75q0.796875 0.75 0.796875 2.4375l0 5.609375l-1.515625 0q-0.015625 -0.03125 -0.1875 -0.515625q-0.15625 -0.5 -0.15625 -0.53125q-0.640625 0.625 -1.25 0.921875q-0.609375 0.296875 -1.484375 0.296875zm0.546875 -1.46875q0.71875 0 1.234375 -0.328125q0.53125 -0.34375 0.765625 -0.828125l0 -1.65625q-0.03125 0 -0.421875 0.03125q-0.375 0.03125 -0.40625 0.03125q-1.25 0.109375 -1.828125 0.46875q-0.578125 0.359375 -0.578125 1.15625q0 0.546875 0.3125 0.84375q0.328125 0.28125 0.921875 0.28125zm9.53125 1.421875q-0.875 0 -1.453125 -0.203125q-0.578125 -0.21875 -0.90625 -0.65625q-0.328125 -0.453125 -0.46875 -1.0625q-0.140625 -0.609375 -0.140625 -1.5l0 -4.046875l-1.40625 0l0.078125 -1.109375l1.46875 -0.140625l0.65625 -2.328125l1.25 0l0 2.328125l2.140625 0l0 1.25l-2.140625 0l0 4.09375q0 0.96875 0.28125 1.390625q0.28125 0.40625 1.046875 0.40625q0.4375 0 0.953125 -0.078125l0.046875 1.46875q-0.015625 0 -0.1875 0.046875q-0.171875 0.03125 -0.34375 0.0625q-0.15625 0.03125 -0.40625 0.046875q-0.25 0.03125 -0.46875 0.03125zm2.8984375 -0.125l0 -8.59375l2.046875 0l0 8.59375l-2.046875 0zm0 -9.84375l0 -1.75l2.046875 0l0 1.75l-2.046875 0z" fill-rule="nonzero"/><path fill="#000000" d="m144.7922 251.82268q0.9375 0 1.578125 -0.484375q0.640625 -0.5 0.9375 -1.3125q0.296875 -0.8125 0.296875 -1.875q0 -1.65625 -0.703125 -2.65625q-0.703125 -1.015625 -2.140625 -1.015625q-0.9375 0 -1.609375 0.515625q-0.65625 0.5 -0.96875 1.3125q-0.296875 0.8125 -0.296875 1.875q0 1.59375 0.75 2.625q0.75 1.015625 2.15625 1.015625zm-0.078125 0.78125q-1.15625 0 -2.046875 -0.578125q-0.890625 -0.59375 -1.359375 -1.59375q-0.453125 -1.015625 -0.453125 -2.28125q0 -0.953125 0.265625 -1.765625q0.265625 -0.8125 0.765625 -1.40625q0.5 -0.609375 1.234375 -0.9375q0.75 -0.34375 1.65625 -0.34375q1.203125 0 2.078125 0.59375q0.890625 0.578125 1.328125 1.578125q0.453125 1.0 0.453125 2.265625q0 1.28125 -0.453125 2.28125q-0.453125 1.0 -1.359375 1.59375q-0.890625 0.59375 -2.109375 0.59375zm7.140625 3.7968597l-0.109375 -0.87498474l1.8125 0q0.59375 0 1.046875 -0.109375q0.46875 -0.09375 0.78125 -0.265625q0.328125 -0.171875 0.546875 -0.46875q0.21875 -0.296875 0.34375 -0.59375q0.125 -0.296875 0.1875 -0.78125q0.078125 -0.46875 0.09375 -0.875q0.015625 -0.390625 0.015625 -0.984375q0 0.078125 -0.015625 -0.046875q-0.046875 -0.53125 -0.046875 -0.53125q-0.484375 0.734375 -1.15625 1.140625q-0.671875 0.40625 -1.640625 0.40625q-0.765625 0 -1.40625 -0.265625q-0.625 -0.28125 -1.03125 -0.71875q-0.390625 -0.4375 -0.671875 -1.0q-0.265625 -0.5625 -0.390625 -1.125q-0.109375 -0.5625 -0.109375 -1.109375q0 -0.6875 0.109375 -1.296875q0.109375 -0.625 0.390625 -1.21875q0.28125 -0.59375 0.703125 -1.03125q0.421875 -0.4375 1.078125 -0.6875q0.671875 -0.265625 1.515625 -0.265625q0.8125 0 1.4375 0.328125q0.640625 0.3125 1.171875 1.03125l0.09375 -1.203125l0.859375 0l0 7.9375q0 0.515625 -0.015625 0.828125q0 0.328125 -0.09375 0.859375q-0.078125 0.546875 -0.21875 0.890625q-0.140625 0.359375 -0.4375 0.78125q-0.296875 0.421875 -0.71875 0.65625q-0.421875 0.24998474 -1.078125 0.42185974q-0.640625 0.171875 -1.46875 0.171875l-1.578125 0zm1.984375 -4.7812347q0.5625 0 1.015625 -0.171875q0.46875 -0.1875 0.765625 -0.484375q0.3125 -0.3125 0.515625 -0.71875q0.203125 -0.40625 0.28125 -0.828125q0.09375 -0.4375 0.09375 -0.90625l0 -0.890625q0 -0.609375 -0.15625 -1.140625q-0.140625 -0.546875 -0.453125 -1.0q-0.296875 -0.453125 -0.84375 -0.71875q-0.53125 -0.265625 -1.25 -0.265625q-0.578125 0 -1.046875 0.21875q-0.453125 0.21875 -0.75 0.59375q-0.296875 0.359375 -0.5 0.859375q-0.203125 0.484375 -0.296875 1.0q-0.078125 0.515625 -0.078125 1.046875q0 0.484375 0.078125 0.9375q0.078125 0.4375 0.265625 0.90625q0.1875 0.453125 0.484375 0.796875q0.296875 0.34375 0.78125 0.5625q0.484375 0.203125 1.09375 0.203125zm5.8671875 0.796875l0 -8.5625l0.84375 0l0.125 1.3125q0.46875 -0.6875 1.234375 -1.078125q0.78125 -0.390625 1.6875 -0.390625q1.46875 0 2.15625 0.8125q0.703125 0.8125 0.703125 2.59375l0 5.3125l-0.96875 0l0 -5.75q-0.046875 -1.140625 -0.5 -1.640625q-0.4375 -0.5 -1.453125 -0.5q-1.15625 0 -1.90625 0.59375q-0.734375 0.578125 -0.921875 1.5q-0.03125 0.375 -0.03125 0.765625l0 5.03125l-0.96875 0zm9.09375 0l0 -8.5625l0.984375 0l0 8.5625l-0.984375 0zm0 -10.3125l0 -1.3125l0.96875 0l0 1.3125l-0.96875 0zm7.984375 10.3125l0 -10.59375q-0.25 0.171875 -0.796875 0.4375q-0.53125 0.265625 -1.078125 0.453125l0 -0.84375q1.640625 -0.75 2.0625 -1.078125l0.8125 0l0 11.625l-1.0 0zm6.9453125 0.1875q-2.09375 0 -3.390625 -1.0625l0.34375 -0.75q1.21875 0.984375 3.09375 0.984375q1.265625 0 2.03125 -0.859375q0.765625 -0.859375 0.765625 -2.234375q0 -1.15625 -0.65625 -1.921875q-0.65625 -0.78125 -1.640625 -0.78125q-0.703125 0 -1.203125 0.203125q-0.5 0.1875 -1.125 0.671875l-0.984375 -0.0625l0.265625 -6.0l5.953125 0l-0.109375 0.859375l-4.984375 0l-0.234375 4.265625q0.984375 -0.75 2.234375 -0.78125q1.078125 -0.015625 1.90625 0.484375q0.828125 0.484375 1.25 1.28125q0.421875 0.796875 0.421875 1.734375q0 1.796875 -1.078125 2.890625q-1.0625 1.078125 -2.859375 1.078125zm12.203125 0.015625q-0.828125 0 -1.5625 -0.203125q-0.71875 -0.21875 -1.140625 -0.5l0.140625 -0.8125q1.28125 0.671875 2.46875 0.671875q2.109375 0 2.1875 -1.5625q0 -0.65625 -0.421875 -1.03125q-0.421875 -0.375 -1.703125 -0.78125q-0.671875 -0.234375 -0.75 -0.265625q-2.0 -0.609375 -2.015625 -2.15625q0 -0.90625 0.78125 -1.59375q0.796875 -0.6875 2.140625 -0.6875q1.359375 0 2.546875 0.53125l-0.328125 0.71875q-1.203125 -0.453125 -2.234375 -0.453125q-0.90625 0 -1.421875 0.40625q-0.515625 0.40625 -0.515625 1.09375q0 0.578125 0.328125 0.890625q0.34375 0.296875 1.359375 0.578125q0.109375 0.03125 0.390625 0.140625q0.296875 0.109375 0.328125 0.125q1.359375 0.40625 1.890625 0.984375q0.53125 0.5625 0.53125 1.53125q-0.015625 1.125 -0.84375 1.75q-0.8125 0.625 -2.15625 0.625zm8.34375 -0.015625q-1.78125 0 -2.828125 -1.1875q-1.03125 -1.1875 -1.03125 -3.21875q0 -1.96875 1.015625 -3.21875q1.015625 -1.25 2.640625 -1.28125q1.5 0 2.40625 1.078125q0.921875 1.078125 0.921875 2.890625q0 0.0625 0 0.28125q0 0.21875 0 0.296875l-5.96875 0q0.015625 1.65625 0.796875 2.625q0.78125 0.953125 2.0625 0.953125q0.84375 0 1.453125 -0.1875q0.625 -0.203125 1.296875 -0.5625l0.15625 0.734375q-1.296875 0.796875 -2.921875 0.796875zm-2.796875 -5.140625l4.875 0q0 -1.421875 -0.625 -2.1875q-0.609375 -0.765625 -1.6875 -0.765625q-1.09375 0 -1.765625 0.8125q-0.671875 0.8125 -0.796875 2.140625zm11.4296875 5.140625q-1.234375 0 -2.15625 -0.609375q-0.90625 -0.609375 -1.359375 -1.59375q-0.4375 -0.984375 -0.4375 -2.1875q0 -0.921875 0.265625 -1.734375q0.265625 -0.8125 0.75 -1.4375q0.484375 -0.625 1.25 -0.984375q0.78125 -0.359375 1.71875 -0.359375q0.625 0 1.234375 0.171875q0.609375 0.15625 0.90625 0.375l-0.296875 0.734375q-0.8125 -0.453125 -1.90625 -0.453125q-1.34375 0 -2.125 1.015625q-0.78125 1.0 -0.78125 2.671875q0 1.609375 0.78125 2.59375q0.78125 0.984375 2.125 0.984375q0.9375 0 2.015625 -0.46875l0.140625 0.703125q-0.359375 0.265625 -0.953125 0.421875q-0.578125 0.15625 -1.171875 0.15625zm7.4921875 -0.78125q0.9375 0 1.578125 -0.484375q0.640625 -0.5 0.9375 -1.3125q0.296875 -0.8125 0.296875 -1.875q0 -1.65625 -0.703125 -2.65625q-0.703125 -1.015625 -2.140625 -1.015625q-0.9375 0 -1.609375 0.515625q-0.65625 0.5 -0.96875 1.3125q-0.296875 0.8125 -0.296875 1.875q0 1.59375 0.75 2.625q0.75 1.015625 2.15625 1.015625zm-0.078125 0.78125q-1.15625 0 -2.046875 -0.578125q-0.890625 -0.59375 -1.359375 -1.59375q-0.453125 -1.015625 -0.453125 -2.28125q0 -0.953125 0.265625 -1.765625q0.265625 -0.8125 0.765625 -1.40625q0.5 -0.609375 1.234375 -0.9375q0.75 -0.34375 1.65625 -0.34375q1.203125 0 2.078125 0.59375q0.890625 0.578125 1.328125 1.578125q0.453125 1.0 0.453125 2.265625q0 1.28125 -0.453125 2.28125q-0.453125 1.0 -1.359375 1.59375q-0.890625 0.59375 -2.109375 0.59375zm5.828125 -0.1875l0 -8.5625l0.84375 0l0.125 1.3125q0.46875 -0.6875 1.234375 -1.078125q0.78125 -0.390625 1.6875 -0.390625q1.46875 0 2.15625 0.8125q0.703125 0.8125 0.703125 2.59375l0 5.3125l-0.96875 0l0 -5.75q-0.046875 -1.140625 -0.5 -1.640625q-0.4375 -0.5 -1.453125 -0.5q-1.15625 0 -1.90625 0.59375q-0.734375 0.578125 -0.921875 1.5q-0.03125 0.375 -0.03125 0.765625l0 5.03125l-0.96875 0zm12.234375 0.1875q-1.71875 0 -2.671875 -1.1875q-0.953125 -1.203125 -0.953125 -3.296875q0 -1.96875 0.984375 -3.1875q0.984375 -1.234375 2.609375 -1.234375q0.796875 0 1.59375 0.34375q0.796875 0.34375 1.203125 1.0625l0 -0.25l0 -4.328125l0.9375 -0.078125l0 11.96875l-0.796875 0l-0.140625 -1.296875q-0.453125 0.734375 -1.21875 1.109375q-0.75 0.375 -1.546875 0.375zm-0.03125 -0.78125q0.734375 0 1.28125 -0.265625q0.546875 -0.265625 0.875 -0.75q0.328125 -0.484375 0.484375 -1.109375q0.15625 -0.625 0.15625 -1.390625q0 -3.828125 -2.8125 -3.828125q-0.65625 0 -1.171875 0.328125q-0.5 0.3125 -0.796875 0.84375q-0.296875 0.53125 -0.4375 1.171875q-0.140625 0.625 -0.140625 1.3125q0 0.609375 0.078125 1.140625q0.09375 0.515625 0.28125 1.0q0.203125 0.46875 0.484375 0.8125q0.296875 0.34375 0.734375 0.546875q0.4375 0.1875 0.984375 0.1875zm6.1328125 0.59375l0 -8.5625l0.984375 0l0 8.5625l-0.984375 0zm0 -10.3125l0 -1.3125l0.96875 0l0 1.3125l-0.96875 0z" fill-rule="nonzero"/><path fill="#000000" fill-opacity="0.0" d="m14.141732 208.55643l358.51968 0" fill-rule="evenodd"/><path stroke="#ffab40" stroke-width="1.0" stroke-linejoin="round" stroke-linecap="butt" d="m14.141732 208.55643l358.51968 0" fill-rule="evenodd"/><path fill="#000000" fill-opacity="0.0" d="m133.92126 26.117617l0 0c0 -5.9636345 4.8344727 -10.798117 10.798111 -10.798117l97.364395 0c2.8638458 0 5.610382 1.1376553 7.6354218 3.162695c2.0250397 2.0250397 3.1627045 4.7715836 3.1627045 7.6354218l0 43.19117c0 5.9636383 -4.834488 10.798119 -10.798126 10.798119l-97.364395 0c-5.9636383 0 -10.798111 -4.8344803 -10.798111 -10.798119z" fill-rule="evenodd"/><path stroke="#ff9900" stroke-width="2.0" stroke-linejoin="round" stroke-linecap="butt" d="m133.92126 26.117617l0 0c0 -5.9636345 4.8344727 -10.798117 10.798111 -10.798117l97.364395 0c2.8638458 0 5.610382 1.1376553 7.6354218 3.162695c2.0250397 2.0250397 3.1627045 4.7715836 3.1627045 7.6354218l0 43.19117c0 5.9636383 -4.834488 10.798119 -10.798126 10.798119l-97.364395 0c-5.9636383 0 -10.798111 -4.8344803 -10.798111 -10.798119z" fill-rule="evenodd"/><path fill="#000000" d="m173.3508 34.5732l0 -11.625l6.484375 0l-0.046875 0.828125l-5.4375 0l0 4.375l5.171875 0l0 0.84375l-5.171875 0l0 4.734375l5.609375 0l-0.078125 0.84375l-6.53125 0zm10.78125 0l-3.265625 -8.5625l1.03125 0l1.984375 5.390625q0.15625 0.515625 0.375 1.09375q0.21875 0.5625 0.34375 0.890625l0.140625 0.3125q0.140625 -0.5 0.375 -1.0625q0.25 -0.578125 0.4375 -1.203125q0.21875 -0.671875 0.765625 -2.03125q0.5625 -1.359375 1.21875 -3.390625l1.03125 0l-3.3125 8.5625l-1.125 0zm9.0703125 0.1875q-1.78125 0 -2.828125 -1.1875q-1.03125 -1.1875 -1.03125 -3.21875q0 -1.96875 1.015625 -3.21875q1.015625 -1.25 2.640625 -1.28125q1.5 0 2.40625 1.078125q0.921875 1.078125 0.921875 2.890625q0 0.0625 0 0.28125q0 0.21875 0 0.296875l-5.96875 0q0.015625 1.65625 0.796875 2.625q0.78125 0.953125 2.0625 0.953125q0.84375 0 1.453125 -0.1875q0.625 -0.203125 1.296875 -0.5625l0.15625 0.734375q-1.296875 0.796875 -2.921875 0.796875zm-2.796875 -5.140625l4.875 0q0 -1.421875 -0.625 -2.1875q-0.609375 -0.765625 -1.6875 -0.765625q-1.09375 0 -1.765625 0.8125q-0.671875 0.8125 -0.796875 2.140625zm7.8671875 4.953125l0 -8.5625l0.84375 0l0.125 1.3125q0.46875 -0.6875 1.234375 -1.078125q0.78125 -0.390625 1.6875 -0.390625q1.46875 0 2.15625 0.8125q0.703125 0.8125 0.703125 2.59375l0 5.3125l-0.96875 0l0 -5.75q-0.046875 -1.140625 -0.5 -1.640625q-0.4375 -0.5 -1.453125 -0.5q-1.15625 0 -1.90625 0.59375q-0.734375 0.578125 -0.921875 1.5q-0.03125 0.375 -0.03125 0.765625l0 5.03125l-0.96875 0zm11.40625 0.1875q-1.078125 0 -1.578125 -0.484375q-0.5 -0.5 -0.5 -1.609375l0 -5.953125l-1.203125 0l0.0625 -0.578125l1.15625 -0.109375l0.265625 -1.96875l0.671875 -0.046875l0 2.0l2.5 0l0 0.703125l-2.5 0l0 5.75q0 0.90625 0.296875 1.21875q0.296875 0.3125 1.046875 0.3125q0.484375 0 1.203125 -0.1875l0.046875 0.75q-0.953125 0.203125 -1.46875 0.203125zm2.96875 -0.1875l0 -8.5625l0.984375 0l0 8.5625l-0.984375 0zm0 -10.3125l0 -1.3125l0.96875 0l0 1.3125l-0.96875 0z" fill-rule="nonzero"/><path fill="#000000" d="m171.73361 53.776325q-0.828125 0 -1.5625 -0.203125q-0.71875 -0.21875 -1.140625 -0.5l0.140625 -0.8125q1.28125 0.671875 2.46875 0.671875q2.109375 0 2.1875 -1.5625q0 -0.65625 -0.421875 -1.03125q-0.421875 -0.375 -1.703125 -0.78125q-0.671875 -0.234375 -0.75 -0.265625q-2.0 -0.609375 -2.015625 -2.15625q0 -0.90625 0.78125 -1.59375q0.796875 -0.6875 2.140625 -0.6875q1.359375 0 2.546875 0.53125l-0.328125 0.71875q-1.203125 -0.453125 -2.234375 -0.453125q-0.90625 0 -1.421875 0.40625q-0.515625 0.40625 -0.515625 1.09375q0 0.578125 0.328125 0.890625q0.34375 0.296875 1.359375 0.578125q0.109375 0.03125 0.390625 0.140625q0.296875 0.109375 0.328125 0.125q1.359375 0.40625 1.890625 0.984375q0.53125 0.5625 0.53125 1.53125q-0.015625 1.125 -0.84375 1.75q-0.8125 0.625 -2.15625 0.625zm8.34375 -0.015625q-1.78125 0 -2.828125 -1.1875q-1.03125 -1.1875 -1.03125 -3.21875q0 -1.96875 1.015625 -3.21875q1.015625 -1.25 2.640625 -1.28125q1.5 0 2.40625 1.078125q0.921875 1.078125 0.921875 2.890625q0 0.0625 0 0.28125q0 0.21875 0 0.296875l-5.96875 0q0.015625 1.65625 0.796875 2.625q0.78125 0.953125 2.0625 0.953125q0.84375 0 1.453125 -0.1875q0.625 -0.203125 1.296875 -0.5625l0.15625 0.734375q-1.296875 0.796875 -2.921875 0.796875zm-2.796875 -5.140625l4.875 0q0 -1.421875 -0.625 -2.1875q-0.609375 -0.765625 -1.6875 -0.765625q-1.09375 0 -1.765625 0.8125q-0.671875 0.8125 -0.796875 2.140625zm7.8671875 4.953125l0 -8.5625l0.84375 0l0.125 1.3125q0.46875 -0.6875 1.234375 -1.078125q0.78125 -0.390625 1.6875 -0.390625q1.46875 0 2.15625 0.8125q0.703125 0.8125 0.703125 2.59375l0 5.3125l-0.96875 0l0 -5.75q-0.046875 -1.140625 -0.5 -1.640625q-0.4375 -0.5 -1.453125 -0.5q-1.15625 0 -1.90625 0.59375q-0.734375 0.578125 -0.921875 1.5q-0.03125 0.375 -0.03125 0.765625l0 5.03125l-0.96875 0zm11.5 0.203125q-0.828125 0 -1.5625 -0.203125q-0.71875 -0.21875 -1.140625 -0.5l0.140625 -0.8125q1.28125 0.671875 2.46875 0.671875q2.109375 0 2.1875 -1.5625q0 -0.65625 -0.421875 -1.03125q-0.421875 -0.375 -1.703125 -0.78125q-0.671875 -0.234375 -0.75 -0.265625q-2.0 -0.609375 -2.015625 -2.15625q0 -0.90625 0.78125 -1.59375q0.796875 -0.6875 2.140625 -0.6875q1.359375 0 2.546875 0.53125l-0.328125 0.71875q-1.203125 -0.453125 -2.234375 -0.453125q-0.90625 0 -1.421875 0.40625q-0.515625 0.40625 -0.515625 1.09375q0 0.578125 0.328125 0.890625q0.34375 0.296875 1.359375 0.578125q0.109375 0.03125 0.390625 0.140625q0.296875 0.109375 0.328125 0.125q1.359375 0.40625 1.890625 0.984375q0.53125 0.5625 0.53125 1.53125q-0.015625 1.125 -0.84375 1.75q-0.8125 0.625 -2.15625 0.625zm8.421875 -0.796875q0.9375 0 1.578125 -0.484375q0.640625 -0.5 0.9375 -1.3125q0.296875 -0.8125 0.296875 -1.875q0 -1.65625 -0.703125 -2.65625q-0.703125 -1.015625 -2.140625 -1.015625q-0.9375 0 -1.609375 0.515625q-0.65625 0.5 -0.96875 1.3125q-0.296875 0.8125 -0.296875 1.875q0 1.59375 0.75 2.625q0.75 1.015625 2.15625 1.015625zm-0.078125 0.78125q-1.15625 0 -2.046875 -0.578125q-0.890625 -0.59375 -1.359375 -1.59375q-0.453125 -1.015625 -0.453125 -2.28125q0 -0.953125 0.265625 -1.765625q0.265625 -0.8125 0.765625 -1.40625q0.5 -0.609375 1.234375 -0.9375q0.75 -0.34375 1.65625 -0.34375q1.203125 0 2.078125 0.59375q0.890625 0.578125 1.328125 1.578125q0.453125 1.0 0.453125 2.265625q0 1.28125 -0.453125 2.28125q-0.453125 1.0 -1.359375 1.59375q-0.890625 0.59375 -2.109375 0.59375zm5.84375 -0.1875q-0.015625 -7.546875 -0.015625 -8.5625l0.796875 0l0.0625 1.6875q0.453125 -0.765625 1.15625 -1.25q0.71875 -0.484375 1.5 -0.484375q0.3125 0 0.6875 0.046875l-0.078125 0.8125q-0.28125 -0.046875 -0.59375 -0.046875q-1.078125 0 -1.828125 0.859375q-0.734375 0.84375 -0.734375 2.015625l0 4.921875l-0.953125 0zm5.6640625 0l0 -8.5625l0.984375 0l0 8.5625l-0.984375 0zm0 -10.3125l0 -1.3125l0.96875 0l0 1.3125l-0.96875 0z" fill-rule="nonzero"/><path fill="#000000" d="m175.67111 76.55758l-0.109375 -0.875l1.8125 0q0.59375 0 1.046875 -0.109375q0.46875 -0.09375 0.78125 -0.265625q0.328125 -0.171875 0.546875 -0.46875q0.21875 -0.296875 0.34375 -0.59375q0.125 -0.296875 0.1875 -0.78125q0.078125 -0.46875 0.09375 -0.875q0.015625 -0.390625 0.015625 -0.984375q0 0.078125 -0.015625 -0.046875q-0.046875 -0.53125 -0.046875 -0.53125q-0.484375 0.734375 -1.15625 1.140625q-0.671875 0.40625 -1.640625 0.40625q-0.765625 0 -1.40625 -0.265625q-0.625 -0.28125 -1.03125 -0.71875q-0.390625 -0.4375 -0.671875 -1.0q-0.265625 -0.5625 -0.390625 -1.125q-0.109375 -0.5625 -0.109375 -1.109375q0 -0.6875 0.109375 -1.296875q0.109375 -0.625 0.390625 -1.21875q0.28125 -0.59375 0.703125 -1.03125q0.421875 -0.4375 1.078125 -0.6875q0.671875 -0.2656288 1.515625 -0.2656288q0.8125 0 1.4375 0.3281288q0.640625 0.3125 1.171875 1.03125l0.09375 -1.203125l0.859375 0l0 7.9375q0 0.515625 -0.015625 0.828125q0 0.328125 -0.09375 0.859375q-0.078125 0.546875 -0.21875 0.890625q-0.140625 0.359375 -0.4375 0.78125q-0.296875 0.421875 -0.71875 0.65625q-0.421875 0.25 -1.078125 0.421875q-0.640625 0.171875 -1.46875 0.171875l-1.578125 0zm1.984375 -4.78125q0.5625 0 1.015625 -0.171875q0.46875 -0.1875 0.765625 -0.484375q0.3125 -0.3125 0.515625 -0.71875q0.203125 -0.40625 0.28125 -0.828125q0.09375 -0.4375 0.09375 -0.90625l0 -0.890625q0 -0.609375 -0.15625 -1.140625q-0.140625 -0.546875 -0.453125 -1.0q-0.296875 -0.453125 -0.84375 -0.71875q-0.53125 -0.265625 -1.25 -0.265625q-0.578125 0 -1.046875 0.21875q-0.453125 0.21875 -0.75 0.59375q-0.296875 0.359375 -0.5 0.859375q-0.203125 0.484375 -0.296875 1.0q-0.078125 0.515625 -0.078125 1.046875q0 0.484375 0.078125 0.9375q0.078125 0.4375 0.265625 0.90625q0.1875 0.453125 0.484375 0.796875q0.296875 0.34375 0.78125 0.5625q0.484375 0.203125 1.09375 0.203125zm5.8828125 0.796875q-0.015625 -7.546875 -0.015625 -8.5625l0.796875 0l0.0625 1.6875q0.453125 -0.765625 1.15625 -1.25q0.71875 -0.4843788 1.5 -0.4843788q0.3125 0 0.6875 0.046878815l-0.078125 0.8125q-0.28125 -0.046875 -0.59375 -0.046875q-1.078125 0 -1.828125 0.859375q-0.734375 0.84375 -0.734375 2.015625l0 4.921875l-0.953125 0zm8.890625 0.1875q-1.78125 0 -2.828125 -1.1875q-1.03125 -1.1875 -1.03125 -3.21875q0 -1.96875 1.015625 -3.21875q1.015625 -1.2500038 2.640625 -1.2812538q1.5 0 2.40625 1.0781288q0.921875 1.078125 0.921875 2.890625q0 0.0625 0 0.28125q0 0.21875 0 0.296875l-5.96875 0q0.015625 1.65625 0.796875 2.625q0.78125 0.953125 2.0625 0.953125q0.84375 0 1.453125 -0.1875q0.625 -0.203125 1.296875 -0.5625l0.15625 0.734375q-1.296875 0.796875 -2.921875 0.796875zm-2.796875 -5.140625l4.875 0q0 -1.421875 -0.625 -2.1875q-0.609375 -0.765625 -1.6875 -0.765625q-1.09375 0 -1.765625 0.8125q-0.671875 0.8125 -0.796875 2.140625zm7.4140625 4.953125l0 -0.8125l4.515625 -6.984375l-4.4375 0l0 -0.765625l5.453125 0l0 0.90625l-4.53125 6.921875l4.671875 0l0 0.734375l-5.671875 0zm6.890625 0l0 -0.8125l4.515625 -6.984375l-4.4375 0l0 -0.765625l5.453125 0l0 0.90625l-4.53125 6.921875l4.671875 0l0 0.734375l-5.671875 0zm7.4375 0l0 -8.5625l0.984375 0l0 8.5625l-0.984375 0zm0 -10.312504l0 -1.3125l0.96875 0l0 1.3125l-0.96875 0z" fill-rule="nonzero"/><path fill="#000000" fill-opacity="0.0" d="m193.40158 80.1069l0 68.50394" fill-rule="evenodd"/><path stroke="#ffab40" stroke-width="2.0" stroke-linejoin="round" stroke-linecap="butt" d="m193.40158 80.1069l0 56.503937" fill-rule="evenodd"/><path fill="#ffab40" stroke="#ffab40" stroke-width="2.0" stroke-linecap="butt" d="m190.09811 136.61084l3.3034668 9.076202l3.3034515 -9.076202z" fill-rule="evenodd"/><path fill="#000000" fill-opacity="0.0" d="m133.92126 342.43985l0 0c0 -5.963623 4.8344727 -10.798126 10.798111 -10.798126l97.364395 0c2.8638458 0 5.610382 1.1376648 7.6354218 3.1626892c2.0250397 2.025055 3.1627045 4.7716064 3.1627045 7.635437l0 43.191162c0 5.9636536 -4.834488 10.798126 -10.798126 10.798126l-97.364395 0c-5.9636383 0 -10.798111 -4.8344727 -10.798111 -10.798126z" fill-rule="evenodd"/><path stroke="#ff9900" stroke-width="2.0" stroke-linejoin="round" stroke-linecap="butt" d="m133.92126 342.43985l0 0c0 -5.963623 4.8344727 -10.798126 10.798111 -10.798126l97.364395 0c2.8638458 0 5.610382 1.1376648 7.6354218 3.1626892c2.0250397 2.025055 3.1627045 4.7716064 3.1627045 7.635437l0 43.191162c0 5.9636536 -4.834488 10.798126 -10.798126 10.798126l-97.364395 0c-5.9636383 0 -10.798111 -4.8344727 -10.798111 -10.798126z" fill-rule="evenodd"/><path fill="#000000" d="m173.3508 350.89545l0 -11.625l6.484375 0l-0.046875 0.828125l-5.4375 0l0 4.375l5.171875 0l0 0.84375l-5.171875 0l0 4.734375l5.609375 0l-0.078125 0.84375l-6.53125 0zm10.78125 0l-3.265625 -8.5625l1.03125 0l1.984375 5.390625q0.15625 0.515625 0.375 1.09375q0.21875 0.5625 0.34375 0.890625l0.140625 0.3125q0.140625 -0.5 0.375 -1.0625q0.25 -0.578125 0.4375 -1.203125q0.21875 -0.671875 0.765625 -2.03125q0.5625 -1.359375 1.21875 -3.390625l1.03125 0l-3.3125 8.5625l-1.125 0zm9.0703125 0.1875q-1.78125 0 -2.828125 -1.1875q-1.03125 -1.1875 -1.03125 -3.21875q0 -1.96875 1.015625 -3.21875q1.015625 -1.25 2.640625 -1.28125q1.5 0 2.40625 1.078125q0.921875 1.078125 0.921875 2.890625q0 0.0625 0 0.28125q0 0.21875 0 0.296875l-5.96875 0q0.015625 1.65625 0.796875 2.625q0.78125 0.953125 2.0625 0.953125q0.84375 0 1.453125 -0.1875q0.625 -0.203125 1.296875 -0.5625l0.15625 0.734375q-1.296875 0.796875 -2.921875 0.796875zm-2.796875 -5.140625l4.875 0q0 -1.421875 -0.625 -2.1875q-0.609375 -0.765625 -1.6875 -0.765625q-1.09375 0 -1.765625 0.8125q-0.671875 0.8125 -0.796875 2.140625zm7.8671875 4.953125l0 -8.5625l0.84375 0l0.125 1.3125q0.46875 -0.6875 1.234375 -1.078125q0.78125 -0.390625 1.6875 -0.390625q1.46875 0 2.15625 0.8125q0.703125 0.8125 0.703125 2.59375l0 5.3125l-0.96875 0l0 -5.75q-0.046875 -1.140625 -0.5 -1.640625q-0.4375 -0.5 -1.453125 -0.5q-1.15625 0 -1.90625 0.59375q-0.734375 0.578125 -0.921875 1.5q-0.03125 0.375 -0.03125 0.765625l0 5.03125l-0.96875 0zm11.40625 0.1875q-1.078125 0 -1.578125 -0.484375q-0.5 -0.5 -0.5 -1.609375l0 -5.953125l-1.203125 0l0.0625 -0.578125l1.15625 -0.109375l0.265625 -1.96875l0.671875 -0.046875l0 2.0l2.5 0l0 0.703125l-2.5 0l0 5.75q0 0.90625 0.296875 1.21875q0.296875 0.3125 1.046875 0.3125q0.484375 0 1.203125 -0.1875l0.046875 0.75q-0.953125 0.203125 -1.46875 0.203125zm2.96875 -0.1875l0 -8.5625l0.984375 0l0 8.5625l-0.984375 0zm0 -10.3125l0 -1.3125l0.96875 0l0 1.3125l-0.96875 0z" fill-rule="nonzero"/><path fill="#000000" d="m171.73361 370.09857q-0.828125 0 -1.5625 -0.203125q-0.71875 -0.21875 -1.140625 -0.5l0.140625 -0.8125q1.28125 0.671875 2.46875 0.671875q2.109375 0 2.1875 -1.5625q0 -0.65625 -0.421875 -1.03125q-0.421875 -0.375 -1.703125 -0.78125q-0.671875 -0.234375 -0.75 -0.265625q-2.0 -0.609375 -2.015625 -2.15625q0 -0.90625 0.78125 -1.59375q0.796875 -0.6875 2.140625 -0.6875q1.359375 0 2.546875 0.53125l-0.328125 0.71875q-1.203125 -0.453125 -2.234375 -0.453125q-0.90625 0 -1.421875 0.40625q-0.515625 0.40625 -0.515625 1.09375q0 0.578125 0.328125 0.890625q0.34375 0.296875 1.359375 0.578125q0.109375 0.03125 0.390625 0.140625q0.296875 0.109375 0.328125 0.125q1.359375 0.40625 1.890625 0.984375q0.53125 0.5625 0.53125 1.53125q-0.015625 1.125 -0.84375 1.75q-0.8125 0.625 -2.15625 0.625zm8.34375 -0.015625q-1.78125 0 -2.828125 -1.1875q-1.03125 -1.1875 -1.03125 -3.21875q0 -1.96875 1.015625 -3.21875q1.015625 -1.25 2.640625 -1.28125q1.5 0 2.40625 1.078125q0.921875 1.078125 0.921875 2.890625q0 0.0625 0 0.28125q0 0.21875 0 0.296875l-5.96875 0q0.015625 1.65625 0.796875 2.625q0.78125 0.953125 2.0625 0.953125q0.84375 0 1.453125 -0.1875q0.625 -0.203125 1.296875 -0.5625l0.15625 0.734375q-1.296875 0.796875 -2.921875 0.796875zm-2.796875 -5.140625l4.875 0q0 -1.421875 -0.625 -2.1875q-0.609375 -0.765625 -1.6875 -0.765625q-1.09375 0 -1.765625 0.8125q-0.671875 0.8125 -0.796875 2.140625zm7.8671875 4.953125l0 -8.5625l0.84375 0l0.125 1.3125q0.46875 -0.6875 1.234375 -1.078125q0.78125 -0.390625 1.6875 -0.390625q1.46875 0 2.15625 0.8125q0.703125 0.8125 0.703125 2.59375l0 5.3125l-0.96875 0l0 -5.75q-0.046875 -1.140625 -0.5 -1.640625q-0.4375 -0.5 -1.453125 -0.5q-1.15625 0 -1.90625 0.59375q-0.734375 0.578125 -0.921875 1.5q-0.03125 0.375 -0.03125 0.765625l0 5.03125l-0.96875 0zm11.5 0.203125q-0.828125 0 -1.5625 -0.203125q-0.71875 -0.21875 -1.140625 -0.5l0.140625 -0.8125q1.28125 0.671875 2.46875 0.671875q2.109375 0 2.1875 -1.5625q0 -0.65625 -0.421875 -1.03125q-0.421875 -0.375 -1.703125 -0.78125q-0.671875 -0.234375 -0.75 -0.265625q-2.0 -0.609375 -2.015625 -2.15625q0 -0.90625 0.78125 -1.59375q0.796875 -0.6875 2.140625 -0.6875q1.359375 0 2.546875 0.53125l-0.328125 0.71875q-1.203125 -0.453125 -2.234375 -0.453125q-0.90625 0 -1.421875 0.40625q-0.515625 0.40625 -0.515625 1.09375q0 0.578125 0.328125 0.890625q0.34375 0.296875 1.359375 0.578125q0.109375 0.03125 0.390625 0.140625q0.296875 0.109375 0.328125 0.125q1.359375 0.40625 1.890625 0.984375q0.53125 0.5625 0.53125 1.53125q-0.015625 1.125 -0.84375 1.75q-0.8125 0.625 -2.15625 0.625zm8.421875 -0.796875q0.9375 0 1.578125 -0.484375q0.640625 -0.5 0.9375 -1.3125q0.296875 -0.8125 0.296875 -1.875q0 -1.65625 -0.703125 -2.65625q-0.703125 -1.015625 -2.140625 -1.015625q-0.9375 0 -1.609375 0.515625q-0.65625 0.5 -0.96875 1.3125q-0.296875 0.8125 -0.296875 1.875q0 1.59375 0.75 2.625q0.75 1.015625 2.15625 1.015625zm-0.078125 0.78125q-1.15625 0 -2.046875 -0.578125q-0.890625 -0.59375 -1.359375 -1.59375q-0.453125 -1.015625 -0.453125 -2.28125q0 -0.953125 0.265625 -1.765625q0.265625 -0.8125 0.765625 -1.40625q0.5 -0.609375 1.234375 -0.9375q0.75 -0.34375 1.65625 -0.34375q1.203125 0 2.078125 0.59375q0.890625 0.578125 1.328125 1.578125q0.453125 1.0 0.453125 2.265625q0 1.28125 -0.453125 2.28125q-0.453125 1.0 -1.359375 1.59375q-0.890625 0.59375 -2.109375 0.59375zm5.84375 -0.1875q-0.015625 -7.546875 -0.015625 -8.5625l0.796875 0l0.0625 1.6875q0.453125 -0.765625 1.15625 -1.25q0.71875 -0.484375 1.5 -0.484375q0.3125 0 0.6875 0.046875l-0.078125 0.8125q-0.28125 -0.046875 -0.59375 -0.046875q-1.078125 0 -1.828125 0.859375q-0.734375 0.84375 -0.734375 2.015625l0 4.921875l-0.953125 0zm5.6640625 0l0 -8.5625l0.984375 0l0 8.5625l-0.984375 0zm0 -10.3125l0 -1.3125l0.96875 0l0 1.3125l-0.96875 0z" fill-rule="nonzero"/><path fill="#000000" d="m159.03049 389.08295q-1.234375 0 -2.15625 -0.609375q-0.90625 -0.609375 -1.359375 -1.59375q-0.4375 -0.984375 -0.4375 -2.1875q0 -0.921875 0.265625 -1.734375q0.265625 -0.8125 0.75 -1.4375q0.484375 -0.625 1.25 -0.984375q0.78125 -0.359375 1.71875 -0.359375q0.625 0 1.234375 0.171875q0.609375 0.15625 0.90625 0.375l-0.296875 0.734375q-0.8125 -0.453125 -1.90625 -0.453125q-1.34375 0 -2.125 1.015625q-0.78125 1.0 -0.78125 2.671875q0 1.609375 0.78125 2.59375q0.78125 0.984375 2.125 0.984375q0.9375 0 2.015625 -0.46875l0.140625 0.703125q-0.359375 0.265625 -0.953125 0.421875q-0.578125 0.15625 -1.171875 0.15625zm6.2578125 0q-1.203125 0 -1.9375 -0.609375q-0.71875 -0.609375 -0.71875 -1.75q0 -0.671875 0.28125 -1.15625q0.296875 -0.5 0.84375 -0.8125q0.546875 -0.3125 1.25 -0.484375q0.71875 -0.171875 1.65625 -0.234375q1.0 -0.0625 1.484375 -0.109375l0 -0.953125q0 -0.984375 -0.453125 -1.46875q-0.453125 -0.5 -1.4375 -0.5q-1.359375 0 -2.546875 0.640625q-0.03125 -0.078125 -0.140625 -0.328125q-0.109375 -0.265625 -0.15625 -0.40625q0.484375 -0.3125 1.265625 -0.515625q0.78125 -0.21875 1.53125 -0.21875q1.53125 0 2.203125 0.65625q0.671875 0.65625 0.671875 2.34375l0 5.71875l-0.75 0q-0.046875 -0.1875 -0.125 -0.71875q-0.0625 -0.53125 -0.0625 -0.546875q-1.015625 1.453125 -2.859375 1.453125zm0.03125 -0.78125q1.0 0 1.78125 -0.578125q0.78125 -0.59375 1.015625 -1.640625l0 -1.46875q-1.125 0.09375 -1.125 0.09375q-1.90625 0.171875 -2.65625 0.625q-0.734375 0.453125 -0.734375 1.40625q0 0.78125 0.46875 1.171875q0.46875 0.390625 1.25 0.390625zm6.1171875 0.59375q-0.015625 -7.765625 -0.015625 -8.5625l0.84375 0l0.125 1.3125q0.375 -0.640625 1.109375 -1.046875q0.75 -0.421875 1.59375 -0.421875q2.046875 0 2.578125 1.609375q0.90625 -1.609375 2.875 -1.609375q1.40625 0 2.0625 0.796875q0.671875 0.796875 0.671875 2.390625l0 5.53125l-0.96875 0l0 -4.1875q0 -0.59375 -0.015625 -0.984375q-0.015625 -0.40625 -0.078125 -0.875q-0.0625 -0.46875 -0.1875 -0.765625q-0.109375 -0.296875 -0.3125 -0.5625q-0.1875 -0.265625 -0.5 -0.390625q-0.296875 -0.125 -0.71875 -0.125q-0.984375 0 -1.671875 0.578125q-0.671875 0.578125 -0.9375 1.640625q0.015625 0.796875 0.03125 1.234375l0 4.4375l-0.953125 0l0 -4.359375q0 -0.671875 -0.046875 -1.15625q-0.03125 -0.484375 -0.15625 -0.953125q-0.109375 -0.46875 -0.3125 -0.765625q-0.203125 -0.296875 -0.53125 -0.46875q-0.328125 -0.1875 -0.796875 -0.1875q-1.0625 0 -1.78125 0.5625q-0.703125 0.5625 -0.921875 1.546875q-0.015625 0.3125 -0.015625 0.90625l0 4.875l-0.96875 0zm14.0859375 3.8125l0 -12.375l0.859375 0l0.09375 1.21875q0.59375 -0.6875 1.21875 -1.03125q0.625 -0.34375 1.453125 -0.34375q1.828125 0 2.734375 1.21875q0.90625 1.203125 0.90625 3.3125q0 1.921875 -0.96875 3.15625q-0.953125 1.21875 -2.59375 1.21875q-0.84375 0 -1.59375 -0.390625q-0.75 -0.40625 -1.1875 -1.0625q0.046875 0.96875 0.046875 1.90625l0 3.109375l-0.96875 0.0625zm3.640625 -4.421875q0.671875 0 1.1875 -0.3125q0.515625 -0.328125 0.8125 -0.859375q0.3125 -0.53125 0.453125 -1.15625q0.15625 -0.640625 0.15625 -1.3125q0 -0.6875 -0.15625 -1.3125q-0.140625 -0.625 -0.4375 -1.15625q-0.296875 -0.546875 -0.828125 -0.859375q-0.515625 -0.328125 -1.1875 -0.328125q-0.734375 0 -1.265625 0.265625q-0.515625 0.265625 -0.828125 0.75q-0.3125 0.484375 -0.453125 1.109375q-0.140625 0.609375 -0.140625 1.375q0 0.890625 0.125 1.5625q0.140625 0.65625 0.4375 1.1875q0.3125 0.515625 0.84375 0.78125q0.53125 0.265625 1.28125 0.265625zm5.6328125 0.609375l0 -8.5625l0.984375 0l0 8.5625l-0.984375 0zm0 -10.3125l0 -1.3125l0.96875 0l0 1.3125l-0.96875 0zm6.9296875 9.71875q0.9375 0 1.578125 -0.484375q0.640625 -0.5 0.9375 -1.3125q0.296875 -0.8125 0.296875 -1.875q0 -1.65625 -0.703125 -2.65625q-0.703125 -1.015625 -2.140625 -1.015625q-0.9375 0 -1.609375 0.515625q-0.65625 0.5 -0.96875 1.3125q-0.296875 0.8125 -0.296875 1.875q0 1.59375 0.75 2.625q0.75 1.015625 2.15625 1.015625zm-0.078125 0.78125q-1.15625 0 -2.046875 -0.578125q-0.890625 -0.59375 -1.359375 -1.59375q-0.453125 -1.015625 -0.453125 -2.28125q0 -0.953125 0.265625 -1.765625q0.265625 -0.8125 0.765625 -1.40625q0.5 -0.609375 1.234375 -0.9375q0.75 -0.34375 1.65625 -0.34375q1.203125 0 2.078125 0.59375q0.890625 0.578125 1.328125 1.578125q0.453125 1.0 0.453125 2.265625q0 1.28125 -0.453125 2.28125q-0.453125 1.0 -1.359375 1.59375q-0.890625 0.59375 -2.109375 0.59375zm5.828125 -0.1875l0 -8.5625l0.84375 0l0.125 1.3125q0.46875 -0.6875 1.234375 -1.078125q0.78125 -0.390625 1.6875 -0.390625q1.46875 0 2.15625 0.8125q0.703125 0.8125 0.703125 2.59375l0 5.3125l-0.96875 0l0 -5.75q-0.046875 -1.140625 -0.5 -1.640625q-0.4375 -0.5 -1.453125 -0.5q-1.15625 0 -1.90625 0.59375q-0.734375 0.578125 -0.921875 1.5q-0.03125 0.375 -0.03125 0.765625l0 5.03125l-0.96875 0zm11.28125 0.1875q-1.203125 0 -1.9375 -0.609375q-0.71875 -0.609375 -0.71875 -1.75q0 -0.671875 0.28125 -1.15625q0.296875 -0.5 0.84375 -0.8125q0.546875 -0.3125 1.25 -0.484375q0.71875 -0.171875 1.65625 -0.234375q1.0 -0.0625 1.484375 -0.109375l0 -0.953125q0 -0.984375 -0.453125 -1.46875q-0.453125 -0.5 -1.4375 -0.5q-1.359375 0 -2.546875 0.640625q-0.03125 -0.078125 -0.140625 -0.328125q-0.109375 -0.265625 -0.15625 -0.40625q0.484375 -0.3125 1.265625 -0.515625q0.78125 -0.21875 1.53125 -0.21875q1.53125 0 2.203125 0.65625q0.671875 0.65625 0.671875 2.34375l0 5.71875l-0.75 0q-0.046875 -0.1875 -0.125 -0.71875q-0.0625 -0.53125 -0.0625 -0.546875q-1.015625 1.453125 -2.859375 1.453125zm0.03125 -0.78125q1.0 0 1.78125 -0.578125q0.78125 -0.59375 1.015625 -1.640625l0 -1.46875q-1.125 0.09375 -1.125 0.09375q-1.90625 0.171875 -2.65625 0.625q-0.734375 0.453125 -0.734375 1.40625q0 0.78125 0.46875 1.171875q0.46875 0.390625 1.25 0.390625zm8.5078125 0.78125q-1.078125 0 -1.578125 -0.484375q-0.5 -0.5 -0.5 -1.609375l0 -5.953125l-1.203125 0l0.0625 -0.578125l1.15625 -0.109375l0.265625 -1.96875l0.671875 -0.046875l0 2.0l2.5 0l0 0.703125l-2.5 0l0 5.75q0 0.90625 0.296875 1.21875q0.296875 0.3125 1.046875 0.3125q0.484375 0 1.203125 -0.1875l0.046875 0.75q-0.953125 0.203125 -1.46875 0.203125zm2.96875 -0.1875l0 -8.5625l0.984375 0l0 8.5625l-0.984375 0zm0 -10.3125l0 -1.3125l0.96875 0l0 1.3125l-0.96875 0z" fill-rule="nonzero"/><path fill="#000000" fill-opacity="0.0" d="m193.40158 268.49344l0 63.149597" fill-rule="evenodd"/><path stroke="#ffab40" stroke-width="2.0" stroke-linejoin="round" stroke-linecap="butt" d="m193.40158 268.49344l0 51.149597" fill-rule="evenodd"/><path fill="#ffab40" stroke="#ffab40" stroke-width="2.0" stroke-linecap="butt" d="m190.09811 319.64304l3.3034668 9.076202l3.3034515 -9.076202z" fill-rule="evenodd"/><path fill="#ffffff" d="m217.7149 325.3164l65.05505 0l3.3858948 3.3858948l0 16.929077l-68.44095 0z" fill-rule="evenodd"/><path stroke="#ff9900" stroke-width="2.0" stroke-linejoin="round" stroke-linecap="butt" d="m217.7149 325.3164l65.05505 0l3.3858948 3.3858948l0 16.929077l-68.44095 0z" fill-rule="evenodd"/><path fill="#000000" d="m232.02518 340.06036l0 -7.75l0.671875 0l0 7.75l-0.671875 0zm2.440094 0l0 -5.703125l0.5625 0l0.09375 0.875q0.296875 -0.453125 0.8125 -0.71875q0.515625 -0.265625 1.125 -0.265625q0.984375 0 1.4375 0.546875q0.46875 0.546875 0.46875 1.734375l0 3.53125l-0.65625 0l0 -3.828125q-0.015625 -0.765625 -0.3125 -1.09375q-0.296875 -0.328125 -0.984375 -0.328125q-0.765625 0 -1.265625 0.390625q-0.484375 0.390625 -0.609375 1.0q-0.015625 0.25 -0.015625 0.515625l0 3.34375l-0.65625 0zm10.587891 0.0625q-0.25 0 -0.4375 -0.03125q-0.1875 -0.015625 -0.328125 -0.09375q-0.140625 -0.09375 -0.234375 -0.15625q-0.09375 -0.0625 -0.15625 -0.265625q-0.0625 -0.203125 -0.109375 -0.34375q-0.03125 -0.140625 -0.046875 -0.484375q-0.015625 -0.34375 -0.015625 -0.5625q0 -0.234375 0 -0.734375l0 -4.6875q-1.390625 -0.09375 -1.359375 -0.015625q-0.546875 0 -0.796875 0.328125q-0.234375 0.328125 -0.265625 1.1875l0 0.03125l0 0.046875l1.3125 0l0 0.484375l-1.3125 0l0 5.234375l-0.671875 0l0 -5.234375l-0.8125 0l0 -0.484375l0.8125 0l0 -0.09375q0.015625 -0.609375 0.15625 -1.0q0.140625 -0.40625 0.390625 -0.609375q0.25 -0.203125 0.53125 -0.28125q0.296875 -0.078125 0.703125 -0.078125q-0.203125 0 -0.203125 -0.015625q0 -0.078125 2.1875 0.0625l0 5.296875q0 0.046875 0 0.109375q0 0.4375 0 0.625q0 0.1875 0.015625 0.453125q0.03125 0.265625 0.078125 0.375q0.046875 0.09375 0.140625 0.21875q0.09375 0.109375 0.21875 0.140625q0.140625 0.03125 0.34375 0.03125q0.15625 0 0.40625 -0.015625l0.046875 0.5q-0.09375 0 -0.59375 0.0625zm3.5930328 0.078125q-0.453125 0 -0.84375 -0.109375q-0.375 -0.09375 -0.703125 -0.3125q-0.328125 -0.21875 -0.515625 -0.609375q-0.1875 -0.390625 -0.1875 -0.9375l0 -3.875l0.640625 0l0 3.890625q0 0.40625 0.125 0.6875q0.125 0.28125 0.359375 0.4375q0.234375 0.140625 0.5 0.203125q0.265625 0.046875 0.625 0.046875q0.34375 0 0.609375 -0.0625q0.265625 -0.0625 0.484375 -0.203125q0.234375 -0.140625 0.359375 -0.421875q0.125 -0.28125 0.125 -0.6875l0 -3.890625l0.640625 0l0 3.875q0 0.4375 -0.125 0.78125q-0.125 0.34375 -0.328125 0.5625q-0.203125 0.21875 -0.5 0.375q-0.296875 0.140625 -0.609375 0.1875q-0.3125 0.0625 -0.65625 0.0625zm3.0516663 -0.140625l2.140625 -2.890625l-2.0625 -2.8125l0.71875 0l1.65625 2.359375l1.65625 -2.359375l0.73439026 0l-2.0625153 2.84375l2.1093903 2.859375l-0.70314026 0l-1.71875 -2.421875l-1.734375 2.421875l-0.734375 0zm6.6875763 -0.5625l1.515625 0q1.625 0 2.46875 -0.8125q0.84375 -0.828125 0.84375 -2.46875q0 -0.890625 -0.234375 -1.53125q-0.234375 -0.65625 -0.703125 -1.046875q-0.453125 -0.40625 -1.078125 -0.578125q-0.625 -0.1875 -1.4375 -0.1875l-1.375 0l0 6.625zm-0.65625 0.5625l0 -7.75l2.09375 0q0.9375 0 1.6875 0.234375q0.75 0.21875 1.296875 0.6875q0.5625 0.453125 0.859375 1.203125q0.296875 0.75 0.296875 1.765625q0 1.890625 -1.046875 2.875q-1.046875 0.984375 -2.9375 0.984375l-2.25 0zm7.794464 0l0 -7.75l2.109375 0q1.4375 0 2.09375 0.484375q0.671875 0.484375 0.671875 1.453125q0 0.125 0 0.1875q0 0.046875 -0.03125 0.21875q-0.015625 0.171875 -0.0625 0.28125q-0.046875 0.109375 -0.140625 0.28125q-0.09375 0.171875 -0.234375 0.296875q-0.125 0.125 -0.34375 0.25q-0.203125 0.125 -0.46875 0.21875q0.8125 0.109375 1.234375 0.640625q0.4375 0.53125 0.4375 1.25q0 1.03125 -0.65625 1.609375q-0.640625 0.578125 -2.0 0.578125l-2.609375 0zm0.65625 -0.515625l1.78125 0q2.109375 0 2.109375 -1.671875q0 -0.890625 -0.578125 -1.234375q-0.578125 -0.359375 -1.828125 -0.359375l-1.484375 0l0 3.265625zm0 -3.78125l1.78125 0q0.40625 0 0.703125 -0.0625q0.296875 -0.0625 0.53125 -0.21875q0.25 -0.15625 0.375 -0.453125q0.125 -0.296875 0.125 -0.734375q0 -0.8125 -0.515625 -1.125q-0.5 -0.3125 -1.578125 -0.3125l-1.421875 0l0 2.90625z" fill-rule="nonzero"/><path fill="#000000" fill-opacity="0.0" d="m456.97638 186.6583l0 0c0 -5.9636383 4.8344727 -10.798111 10.798126 -10.798111l97.36441 0c2.8638306 0 5.6103516 1.1376495 7.635376 3.1626892c2.0250854 2.0250397 3.1627197 4.771591 3.1627197 7.6354218l0 43.191177c0 5.9636383 -4.8344727 10.798111 -10.798096 10.798111l-97.36441 0c-5.9636536 0 -10.798126 -4.8344727 -10.798126 -10.798111z" fill-rule="evenodd"/><path stroke="#d9d9d9" stroke-width="2.0" stroke-linejoin="round" stroke-linecap="butt" d="m456.97638 186.6583l0 0c0 -5.9636383 4.8344727 -10.798111 10.798126 -10.798111l97.36441 0c2.8638306 0 5.6103516 1.1376495 7.635376 3.1626892c2.0250854 2.0250397 3.1627197 4.771591 3.1627197 7.6354218l0 43.191177c0 5.9636383 -4.8344727 10.798111 -10.798096 10.798111l-97.36441 0c-5.9636536 0 -10.798126 -4.8344727 -10.798126 -10.798111z" fill-rule="evenodd"/><path fill="#000000" d="m480.1403 214.11389l0 -10.765625l-3.65625 0l0 -0.859375l8.328125 0l0 0.859375l-3.65625 0l0 10.765625l-1.015625 0zm7.9453125 0.1875q-1.203125 0 -1.9375 -0.609375q-0.71875 -0.609375 -0.71875 -1.75q0 -0.671875 0.28125 -1.15625q0.296875 -0.5 0.84375 -0.8125q0.546875 -0.3125 1.25 -0.484375q0.71875 -0.171875 1.65625 -0.234375q1.0 -0.0625 1.484375 -0.109375l0 -0.953125q0 -0.984375 -0.453125 -1.46875q-0.453125 -0.5 -1.4375 -0.5q-1.359375 0 -2.546875 0.640625q-0.03125 -0.078125 -0.140625 -0.328125q-0.109375 -0.265625 -0.15625 -0.40625q0.484375 -0.3125 1.265625 -0.515625q0.78125 -0.21875 1.53125 -0.21875q1.53125 0 2.203125 0.65625q0.671875 0.65625 0.671875 2.34375l0 5.71875l-0.75 0q-0.046875 -0.1875 -0.125 -0.71875q-0.0625 -0.53125 -0.0625 -0.546875q-1.015625 1.453125 -2.859375 1.453125zm0.03125 -0.78125q1.0 0 1.78125 -0.578125q0.78125 -0.59375 1.015625 -1.640625l0 -1.46875q-1.125 0.09375 -1.125 0.09375q-1.90625 0.171875 -2.65625 0.625q-0.734375 0.453125 -0.734375 1.40625q0 0.78125 0.46875 1.171875q0.46875 0.390625 1.25 0.390625zm7.4140625 4.578125l-0.109375 -0.875l1.8125 0q0.59375 0 1.046875 -0.109375q0.46875 -0.09375 0.78125 -0.265625q0.328125 -0.171875 0.546875 -0.46875q0.21875 -0.296875 0.34375 -0.59375q0.125 -0.296875 0.1875 -0.78125q0.078125 -0.46875 0.09375 -0.875q0.015625 -0.390625 0.015625 -0.984375q0 0.078125 -0.015625 -0.046875q-0.046875 -0.53125 -0.046875 -0.53125q-0.484375 0.734375 -1.15625 1.140625q-0.671875 0.40625 -1.640625 0.40625q-0.765625 0 -1.40625 -0.265625q-0.625 -0.28125 -1.03125 -0.71875q-0.390625 -0.4375 -0.671875 -1.0q-0.265625 -0.5625 -0.390625 -1.125q-0.109375 -0.5625 -0.109375 -1.109375q0 -0.6875 0.109375 -1.296875q0.109375 -0.625 0.390625 -1.21875q0.28125 -0.59375 0.703125 -1.03125q0.421875 -0.4375 1.078125 -0.6875q0.671875 -0.265625 1.515625 -0.265625q0.8125 0 1.4375 0.328125q0.640625 0.3125 1.171875 1.03125l0.09375 -1.203125l0.859375 0l0 7.9375q0 0.515625 -0.015625 0.828125q0 0.328125 -0.09375 0.859375q-0.078125 0.546875 -0.21875 0.890625q-0.140625 0.359375 -0.4375 0.78125q-0.296875 0.421875 -0.71875 0.65625q-0.421875 0.25 -1.078125 0.421875q-0.640625 0.171875 -1.46875 0.171875l-1.578125 0zm1.984375 -4.78125q0.5625 0 1.015625 -0.171875q0.46875 -0.1875 0.765625 -0.484375q0.3125 -0.3125 0.515625 -0.71875q0.203125 -0.40625 0.28125 -0.828125q0.09375 -0.4375 0.09375 -0.90625l0 -0.890625q0 -0.609375 -0.15625 -1.140625q-0.140625 -0.546875 -0.453125 -1.0q-0.296875 -0.453125 -0.84375 -0.71875q-0.53125 -0.265625 -1.25 -0.265625q-0.578125 0 -1.046875 0.21875q-0.453125 0.21875 -0.75 0.59375q-0.296875 0.359375 -0.5 0.859375q-0.203125 0.484375 -0.296875 1.0q-0.078125 0.515625 -0.078125 1.046875q0 0.484375 0.078125 0.9375q0.078125 0.4375 0.265625 0.90625q0.1875 0.453125 0.484375 0.796875q0.296875 0.34375 0.78125 0.5625q0.484375 0.203125 1.09375 0.203125zm11.984375 1.0q-0.828125 0 -1.5625 -0.203125q-0.71875 -0.21875 -1.140625 -0.5l0.140625 -0.8125q1.28125 0.671875 2.46875 0.671875q2.109375 0 2.1875 -1.5625q0 -0.65625 -0.421875 -1.03125q-0.421875 -0.375 -1.703125 -0.78125q-0.671875 -0.234375 -0.75 -0.265625q-2.0 -0.609375 -2.015625 -2.15625q0 -0.90625 0.78125 -1.59375q0.796875 -0.6875 2.140625 -0.6875q1.359375 0 2.5468445 0.53125l-0.32809448 0.71875q-1.203125 -0.453125 -2.234375 -0.453125q-0.90625 0 -1.421875 0.40625q-0.515625 0.40625 -0.515625 1.09375q0 0.578125 0.328125 0.890625q0.34375 0.296875 1.359375 0.578125q0.109375 0.03125 0.390625 0.140625q0.296875 0.109375 0.328125 0.125q1.359375 0.40625 1.890625 0.984375q0.5312195 0.5625 0.5312195 1.53125q-0.015625 1.125 -0.8437195 1.75q-0.8125 0.625 -2.15625 0.625zm8.3437195 -0.015625q-1.78125 0 -2.828125 -1.1875q-1.03125 -1.1875 -1.03125 -3.21875q0 -1.96875 1.015625 -3.21875q1.015625 -1.25 2.640625 -1.28125q1.5 0 2.40625 1.078125q0.921875 1.078125 0.921875 2.890625q0 0.0625 0 0.28125q0 0.21875 0 0.296875l-5.96875 0q0.015625 1.65625 0.796875 2.625q0.78125 0.953125 2.0625 0.953125q0.84375 0 1.453125 -0.1875q0.625 -0.203125 1.296875 -0.5625l0.15625 0.734375q-1.296875 0.796875 -2.921875 0.796875zm-2.796875 -5.140625l4.875 0q0 -1.421875 -0.625 -2.1875q-0.609375 -0.765625 -1.6875 -0.765625q-1.09375 0 -1.765625 0.8125q-0.671875 0.8125 -0.796875 2.140625zm7.8671875 4.953125l0 -8.5625l0.84375 0l0.125 1.3125q0.46881104 -0.6875 1.234436 -1.078125q0.78125 -0.390625 1.6875 -0.390625q1.46875 0 2.15625 0.8125q0.703125 0.8125 0.703125 2.59375l0 5.3125l-0.96875 0l0 -5.75q-0.046875 -1.140625 -0.5 -1.640625q-0.4375 -0.5 -1.453125 -0.5q-1.15625 0 -1.90625 0.59375q-0.73443604 0.578125 -0.92193604 1.5q-0.03125 0.375 -0.03125 0.765625l0 5.03125l-0.96875 0zm11.500061 0.203125q-0.828125 0 -1.5625 -0.203125q-0.71875 -0.21875 -1.140625 -0.5l0.140625 -0.8125q1.28125 0.671875 2.46875 0.671875q2.109375 0 2.1875 -1.5625q0 -0.65625 -0.421875 -1.03125q-0.421875 -0.375 -1.703125 -0.78125q-0.671875 -0.234375 -0.75 -0.265625q-2.0 -0.609375 -2.015625 -2.15625q0 -0.90625 0.78125 -1.59375q0.796875 -0.6875 2.140625 -0.6875q1.359375 0 2.546875 0.53125l-0.328125 0.71875q-1.203125 -0.453125 -2.234375 -0.453125q-0.90625 0 -1.421875 0.40625q-0.515625 0.40625 -0.515625 1.09375q0 0.578125 0.328125 0.890625q0.34375 0.296875 1.359375 0.578125q0.109375 0.03125 0.390625 0.140625q0.296875 0.109375 0.328125 0.125q1.359375 0.40625 1.890625 0.984375q0.53125 0.5625 0.53125 1.53125q-0.015625 1.125 -0.84375 1.75q-0.8125 0.625 -2.15625 0.625zm8.421875 -0.796875q0.9375 0 1.578125 -0.484375q0.640625 -0.5 0.9375 -1.3125q0.296875 -0.8125 0.296875 -1.875q0 -1.65625 -0.703125 -2.65625q-0.703125 -1.015625 -2.140625 -1.015625q-0.9375 0 -1.609375 0.515625q-0.65625 0.5 -0.96875 1.3125q-0.296875 0.8125 -0.296875 1.875q0 1.59375 0.75 2.625q0.75 1.015625 2.15625 1.015625zm-0.078125 0.78125q-1.15625 0 -2.046875 -0.578125q-0.890625 -0.59375 -1.359375 -1.59375q-0.453125 -1.015625 -0.453125 -2.28125q0 -0.953125 0.265625 -1.765625q0.265625 -0.8125 0.765625 -1.40625q0.5 -0.609375 1.234375 -0.9375q0.75 -0.34375 1.65625 -0.34375q1.203125 0 2.078125 0.59375q0.890625 0.578125 1.328125 1.578125q0.453125 1.0 0.453125 2.265625q0 1.28125 -0.453125 2.28125q-0.453125 1.0 -1.359375 1.59375q-0.890625 0.59375 -2.109375 0.59375zm5.84375 -0.1875q-0.015625 -7.546875 -0.015625 -8.5625l0.796875 0l0.0625 1.6875q0.453125 -0.765625 1.15625 -1.25q0.71875 -0.484375 1.5 -0.484375q0.3125 0 0.6875 0.046875l-0.078125 0.8125q-0.28125 -0.046875 -0.59375 -0.046875q-1.078125 0 -1.828125 0.859375q-0.734375 0.84375 -0.734375 2.015625l0 4.921875l-0.953125 0zm5.6640625 0l0 -8.5625l0.984375 0l0 8.5625l-0.984375 0zm0 -10.3125l0 -1.3125l0.96875 0l0 1.3125l-0.96875 0z" fill-rule="nonzero"/><path fill="#000000" fill-opacity="0.0" d="m456.97638 208.25389l-84.31497 0.31495667" fill-rule="evenodd"/><path stroke="#cccccc" stroke-width="2.0" stroke-linejoin="round" stroke-linecap="butt" d="m456.97638 208.25388l-72.31503 0.2701416" fill-rule="evenodd"/><path fill="#cccccc" stroke="#cccccc" stroke-width="2.0" stroke-linecap="butt" d="m384.649 205.22057l-9.063782 3.3373413l9.08847 3.2695465z" fill-rule="evenodd"/><path fill="#ffffff" d="m541.7175 164.99883l65.05505 0l3.3858643 3.3858948l0 16.929077l-68.44092 0z" fill-rule="evenodd"/><path stroke="#d9d9d9" stroke-width="2.0" stroke-linejoin="round" stroke-linecap="butt" d="m541.7175 164.99883l65.05505 0l3.3858643 3.3858948l0 16.929077l-68.44092 0z" fill-rule="evenodd"/><path fill="#000000" d="m562.38257 180.46153l-0.109375 -0.484375l0.3125 -0.015625q0.171875 0 0.296875 -0.03125q0.140625 -0.015625 0.234375 -0.046875q0.109375 -0.03125 0.1875 -0.109375q0.078125 -0.078125 0.125 -0.125q0.046875 -0.0625 0.078125 -0.171875q0.046875 -0.109375 0.0625 -0.1875q0.015625 -0.078125 0.015625 -0.21875q0.015625 -0.140625 0.015625 -0.21875q0 -0.078125 0 -0.234375l0 -6.75l0.6875 0l0 6.296875q0 0.328125 0 0.5q0 0.15625 -0.015625 0.421875q-0.015625 0.25 -0.046875 0.375q-0.03125 0.109375 -0.09375 0.28125q-0.0625 0.1875 -0.15625 0.265625q-0.09375 0.09375 -0.234375 0.1875q-0.140625 0.109375 -0.328125 0.15625q-0.171875 0.046875 -0.421875 0.078125q-0.234375 0.03125 -0.546875 0.03125l-0.0625 0zm6.0859375 -0.59375q-0.984375 0 -1.734375 -0.203125q-0.75 -0.21875 -1.171875 -0.46875l0.25 -0.46875q1.09375 0.59375 2.71875 0.59375q0.890625 0 1.359375 -0.46875q0.484375 -0.46875 0.484375 -1.3125q0 -0.3125 -0.0625 -0.515625q-0.046875 -0.21875 -0.203125 -0.40625q-0.15625 -0.203125 -0.453125 -0.328125q-0.296875 -0.140625 -0.765625 -0.234375l-1.25 -0.25q-1.046875 -0.203125 -1.578125 -0.640625q-0.515625 -0.453125 -0.515625 -1.28125q0 -0.546875 0.203125 -0.9375q0.21875 -0.390625 0.609375 -0.625q0.390625 -0.234375 0.90625 -0.34375q0.515625 -0.109375 1.1875 -0.109375q0.65625 0 1.28125 0.15625q0.625 0.15625 1.03125 0.359375l-0.171875 0.515625q-0.3125 -0.171875 -0.921875 -0.328125q-0.59375 -0.15625 -1.234375 -0.15625q-1.09375 0 -1.65625 0.375q-0.546875 0.359375 -0.546875 1.15625q0 0.5 0.34375 0.796875q0.359375 0.296875 1.03125 0.4375l1.390625 0.296875q0.53125 0.109375 0.890625 0.265625q0.359375 0.140625 0.640625 0.390625q0.28125 0.234375 0.40625 0.59375q0.140625 0.34375 0.140625 0.828125q0 1.09375 -0.71875 1.703125q-0.71875 0.609375 -1.890625 0.609375zm7.3009644 -0.546875q0.96875 0 1.609375 -0.4375q0.65625 -0.4375 0.953125 -1.203125q0.3125 -0.765625 0.3125 -1.8125q0 -1.640625 -0.734375 -2.546875q-0.71875 -0.90625 -2.125 -0.90625q-1.421875 0 -2.171875 0.90625q-0.734375 0.890625 -0.734375 2.546875q0 1.59375 0.734375 2.53125q0.734375 0.921875 2.15625 0.921875zm0 0.546875q-0.875 0 -1.578125 -0.296875q-0.6875 -0.296875 -1.140625 -0.828125q-0.4375 -0.53125 -0.671875 -1.25q-0.234375 -0.734375 -0.234375 -1.625q0 -1.84375 0.953125 -2.921875q0.953125 -1.078125 2.6875 -1.078125q1.703125 0 2.65625 1.09375q0.953125 1.078125 0.953125 2.921875q0 0.859375 -0.234375 1.578125q-0.234375 0.71875 -0.6875 1.265625q-0.4375 0.53125 -1.140625 0.84375q-0.6875 0.296875 -1.5625 0.296875zm5.1844482 -0.125l0 -7.75l0.765625 0l4.265625 6.53125l0.28125 0.390625q-0.046875 -1.609375 -0.046875 -2.0l0 -4.921875l0.640625 0l0 7.75l-0.796875 0l-4.25 -6.515625l-0.265625 -0.390625q0.046875 1.171875 0.046875 2.03125l0 4.875l-0.640625 0z" fill-rule="nonzero"/></g></svg>