<svg version="1.1" viewBox="0.0 0.0 185.3779527559055 238.34383202099738" fill="none" stroke="none" stroke-linecap="square" stroke-miterlimit="10" xmlns:xlink="http://www.w3.org/1999/xlink" xmlns="http://www.w3.org/2000/svg"><clipPath id="p.0"><path d="m0 0l185.37796 0l0 238.34383l-185.37796 0l0 -238.34383z" clip-rule="nonzero"/></clipPath><g clip-path="url(#p.0)"><path fill="#000000" fill-opacity="0.0" d="m0 0l185.37796 0l0 238.34383l-185.37796 0z" fill-rule="evenodd"/><path fill="#000000" fill-opacity="0.0" d="m31.03937 43.15486l0 0c0 -4.5082397 3.6546535 -8.162891 8.162893 -8.162891l102.63485 0c2.1649323 0 4.2411957 0.86001587 5.7720337 2.390854c1.530838 1.5308418 2.390854 3.6071053 2.390854 5.7720375l0 32.650597c0 4.5082397 -3.6546478 8.162888 -8.162888 8.162888l-102.63485 0c-4.5082397 0 -8.162893 -3.6546478 -8.162893 -8.162888z" fill-rule="evenodd"/><path stroke="#ffab40" stroke-width="2.0" stroke-linejoin="round" stroke-linecap="butt" d="m31.03937 43.15486l0 0c0 -4.5082397 3.6546535 -8.162891 8.162893 -8.162891l102.63485 0c2.1649323 0 4.2411957 0.86001587 5.7720337 2.390854c1.530838 1.5308418 2.390854 3.6071053 2.390854 5.7720375l0 32.650597c0 4.5082397 -3.6546478 8.162888 -8.162888 8.162888l-102.63485 0c-4.5082397 0 -8.162893 -3.6546478 -8.162893 -8.162888z" fill-rule="evenodd"/><path fill="#000000" d="m73.215 56.02766q-1.0625 0 -1.96875 -0.296875q-0.890625 -0.3125 -1.546875 -0.84375q-0.640625 -0.546875 -1.09375 -1.296875q-0.4375 -0.75 -0.671875 -1.640625q-0.21875 -0.890625 -0.21875 -1.890625q0 -1.765625 0.65625 -3.109375q0.65625 -1.359375 1.953125 -2.140625q1.3125 -0.796875 3.09375 -0.796875q1.953125 0 3.46875 0.890625l-0.453125 0.8125q-0.640625 -0.390625 -1.453125 -0.625q-0.796875 -0.25 -1.5625 -0.25q-1.140625 0 -2.03125 0.40625q-0.890625 0.40625 -1.453125 1.125q-0.546875 0.71875 -0.84375 1.65625q-0.28125 0.921875 -0.28125 2.015625q0 1.15625 0.28125 2.09375q0.296875 0.9375 0.875 1.625q0.578125 0.6875 1.484375 1.0625q0.90625 0.359375 2.09375 0.359375q1.234375 0 2.703125 -0.578125l0 -3.71875l-2.875 0l0.0625 -0.875l3.75 0l0 5.125q-0.953125 0.5 -1.859375 0.703125q-0.890625 0.1875 -2.109375 0.1875zm8.3671875 0q-1.078125 0 -1.578125 -0.484375q-0.5 -0.5 -0.5 -1.609375l0 -9.984375l0.953125 -0.078125l0 10.015625q0 0.78125 0.28125 1.078125q0.28125 0.296875 0.859375 0.296875q0.46875 0 1.171875 -0.1875l0.046875 0.75q-0.765625 0.203125 -1.234375 0.203125zm5.9296875 -0.78125q0.9375 0 1.578125 -0.484375q0.640625 -0.5 0.9375 -1.3125q0.296875 -0.8125 0.296875 -1.875q0 -1.65625 -0.703125 -2.65625q-0.703125 -1.015625 -2.140625 -1.015625q-0.9375 0 -1.609375 0.515625q-0.65625 0.5 -0.96875 1.3125q-0.296875 0.8125 -0.296875 1.875q0 1.59375 0.75 2.625q0.75 1.015625 2.15625 1.015625zm-0.078125 0.78125q-1.15625 0 -2.046875 -0.578125q-0.890625 -0.59375 -1.359375 -1.59375q-0.453125 -1.015625 -0.453125 -2.28125q0 -0.953125 0.265625 -1.765625q0.265625 -0.8125 0.765625 -1.40625q0.5 -0.609375 1.234375 -0.9375q0.75 -0.34375 1.65625 -0.34375q1.203125 0 2.078125 0.59375q0.890625 0.578125 1.328125 1.578125q0.453125 1.0 0.453125 2.265625q0 1.28125 -0.453125 2.28125q-0.453125 1.0 -1.359375 1.59375q-0.890625 0.59375 -2.109375 0.59375zm9.515625 0q-1.75 0 -2.78125 -1.4375l-0.09375 1.25l-0.8125 0l0 -11.890625l0.953125 -0.078125l0 2.875q0 1.328125 -0.015625 1.828125q0.46875 -0.734375 1.203125 -1.09375q0.75 -0.359375 1.546875 -0.359375q1.734375 0 2.703125 1.234375q0.96875 1.234375 0.96875 3.1875q0 1.3125 -0.40625 2.3125q-0.390625 1.0 -1.234375 1.59375q-0.84375 0.578125 -2.03125 0.578125zm0.046875 -0.78125q0.71875 0 1.234375 -0.296875q0.53125 -0.3125 0.8125 -0.84375q0.296875 -0.546875 0.421875 -1.15625q0.125 -0.625 0.125 -1.359375q0 -0.578125 -0.078125 -1.078125q-0.0625 -0.515625 -0.265625 -1.0q-0.1875 -0.5 -0.46875 -0.84375q-0.28125 -0.34375 -0.75 -0.546875q-0.453125 -0.21875 -1.03125 -0.21875q-1.359375 0 -2.078125 0.984375q-0.703125 0.96875 -0.703125 2.75q0 0.828125 0.15625 1.46875q0.15625 0.640625 0.46875 1.140625q0.328125 0.484375 0.859375 0.75q0.546875 0.25 1.296875 0.25zm7.734375 0.78125q-1.203125 0 -1.9375 -0.609375q-0.71875 -0.609375 -0.71875 -1.75q0 -0.671875 0.28125 -1.15625q0.296875 -0.5 0.84375 -0.8125q0.546875 -0.3125 1.25 -0.484375q0.71875 -0.171875 1.65625 -0.234375q1.0 -0.0625 1.484375 -0.109375l0 -0.953125q0 -0.984375 -0.453125 -1.46875q-0.453125 -0.5 -1.4375 -0.5q-1.359375 0 -2.546875 0.640625q-0.03125 -0.078125 -0.140625 -0.328125q-0.109375 -0.265625 -0.15625 -0.40625q0.484375 -0.3125 1.265625 -0.515625q0.78125 -0.21875 1.53125 -0.21875q1.53125 0 2.203125 0.65625q0.671875 0.65625 0.671875 2.34375l0 5.71875l-0.75 0q-0.046875 -0.1875 -0.125 -0.71875q-0.0625 -0.53125 -0.0625 -0.546875q-1.015625 1.453125 -2.859375 1.453125zm0.03125 -0.78125q1.0 0 1.78125 -0.578125q0.78125 -0.59375 1.015625 -1.640625l0 -1.46875q-1.125 0.09375 -1.125 0.09375q-1.90625 0.171875 -2.65625 0.625q-0.734375 0.453125 -0.734375 1.40625q0 0.78125 0.46875 1.171875q0.46875 0.390625 1.25 0.390625zm8.2578125 0.78125q-1.078125 0 -1.578125 -0.484375q-0.5 -0.5 -0.5 -1.609375l0 -9.984375l0.953125 -0.078125l0 10.015625q0 0.78125 0.28125 1.078125q0.28125 0.296875 0.859375 0.296875q0.46875 0 1.171875 -0.1875l0.046875 0.75q-0.765625 0.203125 -1.234375 0.203125z" fill-rule="nonzero"/><path fill="#000000" d="m64.820465 74.84016l-3.609375 -11.624996l1.109375 0l3.09375 10.515621l2.96875 -10.203121l1.3125 0l2.890625 10.187496l3.09375 -10.499996l1.09375 0l-3.609375 11.624996l-1.109375 0l-3.0 -10.328125l-3.125 10.328125l-1.109375 0zm13.2109375 0l0 -8.5625l0.984375 0l0 8.5625l-0.984375 0zm0 -10.3125l0 -1.3124962l0.96875 0l0 1.3124962l-0.96875 0zm3.3828125 10.3125l0 -8.5625l0.84375 0l0.125 1.3125q0.46875 -0.6875 1.234375 -1.078125q0.78125 -0.390625 1.6875 -0.390625q1.46875 0 2.15625 0.8125q0.703125 0.8125 0.703125 2.59375l0 5.3125l-0.96875 0l0 -5.75q-0.046875 -1.140625 -0.5 -1.640625q-0.4375 -0.5 -1.453125 -0.5q-1.15625 0 -1.90625 0.59375q-0.734375 0.578125 -0.921875 1.5q-0.03125 0.375 -0.03125 0.765625l0 5.03125l-0.96875 0zm12.234375 0.1875q-1.71875 0 -2.671875 -1.1875q-0.953125 -1.203125 -0.953125 -3.296875q0 -1.96875 0.984375 -3.1875q0.984375 -1.234375 2.609375 -1.234375q0.796875 0 1.59375 0.34375q0.796875 0.34375 1.203125 1.0625l0 -0.25l0 -4.328121l0.9375 -0.078125l0 11.968746l-0.796875 0l-0.140625 -1.296875q-0.453125 0.734375 -1.21875 1.109375q-0.75 0.375 -1.546875 0.375zm-0.03125 -0.78125q0.734375 0 1.28125 -0.265625q0.546875 -0.265625 0.875 -0.75q0.328125 -0.484375 0.484375 -1.109375q0.15625 -0.625 0.15625 -1.390625q0 -3.828125 -2.8125 -3.828125q-0.65625 0 -1.171875 0.328125q-0.5 0.3125 -0.796875 0.84375q-0.296875 0.53125 -0.4375 1.171875q-0.140625 0.625 -0.140625 1.3125q0 0.609375 0.078125 1.140625q0.09375 0.515625 0.28125 1.0q0.203125 0.46875 0.484375 0.8125q0.296875 0.34375 0.734375 0.546875q0.4375 0.1875 0.984375 0.1875zm9.5859375 0q0.9375 0 1.578125 -0.484375q0.640625 -0.5 0.9375 -1.3125q0.296875 -0.8125 0.296875 -1.875q0 -1.65625 -0.703125 -2.65625q-0.703125 -1.015625 -2.140625 -1.015625q-0.9375 0 -1.609375 0.515625q-0.65625 0.5 -0.96875 1.3125q-0.296875 0.8125 -0.296875 1.875q0 1.59375 0.75 2.625q0.75 1.015625 2.15625 1.015625zm-0.078125 0.78125q-1.15625 0 -2.046875 -0.578125q-0.890625 -0.59375 -1.359375 -1.59375q-0.453125 -1.015625 -0.453125 -2.28125q0 -0.953125 0.265625 -1.765625q0.265625 -0.8125 0.765625 -1.40625q0.5 -0.609375 1.234375 -0.9375q0.75 -0.34375 1.65625 -0.34375q1.203125 0 2.078125 0.59375q0.890625 0.578125 1.328125 1.578125q0.453125 1.0 0.453125 2.265625q0 1.28125 -0.453125 2.28125q-0.453125 1.0 -1.359375 1.59375q-0.890625 0.59375 -2.109375 0.59375zm7.1171875 -0.1875l-2.390625 -8.5625l1.015625 0l1.984375 7.640625q2.125 -6.859375 2.375 -7.640625l1.1875 0q2.34375 7.625 2.359375 7.625l1.890625 -7.625l1.015625 0l-2.359375 8.5625l-1.125 0q-0.015625 0.015625 -1.09375 -3.59375q-1.078125 -3.625 -1.25 -4.25q-0.09375 0.421875 -0.71875 2.375q-0.609375 1.953125 -1.1875 3.71875q-0.5625 1.765625 -0.578125 1.75l-1.125 0z" fill-rule="nonzero"/><path fill="#000000" fill-opacity="0.0" d="m14.377953 124.42013l0 0c0 -5.015602 4.0659466 -9.081543 9.081547 -9.081543l134.12036 0c2.4085846 0 4.718506 0.95680237 6.421631 2.6599197c1.703125 1.703125 2.6599274 4.0130463 2.6599274 6.421623l0 36.325096c0 5.0155945 -4.0659485 9.081543 -9.081558 9.081543l-134.12036 0c-5.0156 0 -9.081547 -4.0659485 -9.081547 -9.081543z" fill-rule="evenodd"/><path stroke="#ff9900" stroke-width="2.0" stroke-linejoin="round" stroke-linecap="butt" d="m14.377953 124.42013l0 0c0 -5.015602 4.0659466 -9.081543 9.081547 -9.081543l134.12036 0c2.4085846 0 4.718506 0.95680237 6.421631 2.6599197c1.703125 1.703125 2.6599274 4.0130463 2.6599274 6.421623l0 36.325096c0 5.0155945 -4.0659485 9.081543 -9.081558 9.081543l-134.12036 0c-5.0156 0 -9.081547 -4.0659485 -9.081547 -9.081543z" fill-rule="evenodd"/><path fill="#000000" d="m44.304836 139.13017q-1.46875 0 -2.609375 -0.3125q-1.125 -0.328125 -1.75 -0.703125l0.375 -0.703125q1.640625 0.890625 4.078125 0.890625q1.328125 0 2.046875 -0.6875q0.734375 -0.703125 0.734375 -1.96875q0 -0.46875 -0.09375 -0.78125q-0.078125 -0.328125 -0.3125 -0.625q-0.234375 -0.296875 -0.6875 -0.484375q-0.453125 -0.203125 -1.140625 -0.34375l-1.875 -0.375q-1.578125 -0.3125 -2.359375 -0.984375q-0.78125 -0.671875 -0.78125 -1.921875q0 -0.796875 0.3125 -1.390625q0.3125 -0.59375 0.890625 -0.9374924q0.59375 -0.359375 1.375 -0.515625q0.78125 -0.171875 1.765625 -0.171875q0.984375 0 1.921875 0.25q0.953125 0.234375 1.546875 0.53125l-0.25 0.7656174q-0.46875 -0.25 -1.375 -0.484375q-0.890625 -0.23436737 -1.859375 -0.23436737q-1.65625 0 -2.484375 0.5624924q-0.828125 0.546875 -0.828125 1.734375q0 0.734375 0.515625 1.1875q0.53125 0.453125 1.5625 0.671875l2.09375 0.421875q0.78125 0.171875 1.3125 0.40625q0.546875 0.21875 0.96875 0.578125q0.421875 0.359375 0.625 0.890625q0.203125 0.53125 0.203125 1.265625q0 1.640625 -1.078125 2.5625q-1.078125 0.90625 -2.84375 0.90625zm8.1640625 0q-1.078125 0 -1.578125 -0.484375q-0.5 -0.5 -0.5 -1.609375l0 -5.953125l-1.203125 0l0.0625 -0.578125l1.15625 -0.109375l0.265625 -1.96875l0.671875 -0.046875l0 2.0l2.5 0l0 0.703125l-2.5 0l0 5.75q0 0.90625 0.296875 1.21875q0.296875 0.3125 1.046875 0.3125q0.484375 0 1.203125 -0.1875l0.046875 0.75q-0.953125 0.203125 -1.46875 0.203125zm5.15625 0q-1.203125 0 -1.9375 -0.609375q-0.71875 -0.609375 -0.71875 -1.75q0 -0.671875 0.28125 -1.15625q0.296875 -0.5 0.84375 -0.8125q0.546875 -0.3125 1.25 -0.484375q0.71875 -0.171875 1.65625 -0.234375q1.0 -0.0625 1.484375 -0.109375l0 -0.953125q0 -0.984375 -0.453125 -1.46875q-0.453125 -0.5 -1.4375 -0.5q-1.359375 0 -2.546875 0.640625q-0.03125 -0.078125 -0.140625 -0.328125q-0.109375 -0.265625 -0.15625 -0.40625q0.484375 -0.3125 1.265625 -0.515625q0.78125 -0.21875 1.53125 -0.21875q1.53125 0 2.203125 0.65625q0.671875 0.65625 0.671875 2.34375l0 5.71875l-0.75 0q-0.046875 -0.1875 -0.125 -0.71875q-0.0625 -0.53125 -0.0625 -0.546875q-1.015625 1.453125 -2.859375 1.453125zm0.03125 -0.78125q1.0 0 1.78125 -0.578125q0.78125 -0.59375 1.015625 -1.640625l0 -1.46875q-1.125 0.09375 -1.125 0.09375q-1.90625 0.171875 -2.65625 0.625q-0.734375 0.453125 -0.734375 1.40625q0 0.78125 0.46875 1.171875q0.46875 0.390625 1.25 0.390625zm8.507816 0.78125q-1.078125 0 -1.578125 -0.484375q-0.5 -0.5 -0.5 -1.609375l0 -5.953125l-1.2031288 0l0.0625 -0.578125l1.1562538 -0.109375l0.265625 -1.96875l0.671875 -0.046875l0 2.0l2.5 0l0 0.703125l-2.5 0l0 5.75q0 0.90625 0.296875 1.21875q0.296875 0.3125 1.046875 0.3125q0.484375 0 1.203125 -0.1875l0.046875 0.75q-0.953125 0.203125 -1.46875 0.203125zm6.34375 0q-1.78125 0 -2.828125 -1.1875q-1.03125 -1.1875 -1.03125 -3.21875q0 -1.96875 1.015625 -3.21875q1.015625 -1.25 2.640625 -1.28125q1.5 0 2.40625 1.078125q0.921875 1.078125 0.921875 2.890625q0 0.0625 0 0.28125q0 0.21875 0 0.296875l-5.96875 0q0.015625 1.65625 0.796875 2.625q0.78125 0.953125 2.0625 0.953125q0.84375 0 1.453125 -0.1875q0.625 -0.203125 1.296875 -0.5625l0.15625 0.734375q-1.296875 0.796875 -2.921875 0.796875zm-2.796875 -5.140625l4.875 0q0 -1.421875 -0.625 -2.1875q-0.609375 -0.765625 -1.6875 -0.765625q-1.09375 0 -1.765625 0.8125q-0.671875 0.8125 -0.796875 2.140625zm8.3984375 4.953125l0 -7.859375l-1.40625 0l0.0625 -0.59375l1.34375 -0.109375l0 -0.328125q0 -1.6875 0.59375 -2.4531174q0.59375 -0.765625 1.8125 -0.765625q0.34375 0 1.1875 0.125l-0.0625 0.640625q-0.75 -0.09375 -1.015625 -0.09375q-0.890625 0 -1.21875 0.5781174q-0.328125 0.578125 -0.328125 2.015625l0 0.28125l2.09375 0l0 0.703125l-2.09375 0l0 7.859375l-0.96875 0zm7.640625 0.21875q-0.671875 0 -1.25 -0.15625q-0.578125 -0.15625 -1.078125 -0.484375q-0.484375 -0.328125 -0.765625 -0.921875q-0.28125 -0.59375 -0.28125 -1.390625l0 -5.828125l0.96875 0l0 5.84375q0 0.609375 0.1875 1.03125q0.1875 0.421875 0.53125 0.640625q0.359375 0.21875 0.75 0.3125q0.40625 0.078125 0.9375 0.078125q0.515625 0 0.90625 -0.09375q0.40625 -0.09375 0.75 -0.3125q0.34375 -0.21875 0.53125 -0.625q0.1875 -0.421875 0.1875 -1.03125l0 -5.84375l0.96875 0l0 5.828125q0 0.65625 -0.1875 1.171875q-0.1875 0.515625 -0.5 0.84375q-0.3125 0.328125 -0.765625 0.546875q-0.4375 0.21875 -0.90625 0.296875q-0.453125 0.09375 -0.984375 0.09375zm7.609375 -0.03125q-1.078125 0 -1.578125 -0.484375q-0.5 -0.5 -0.5 -1.609375l0 -9.984367l0.953125 -0.078125l0 10.015617q0 0.78125 0.28125 1.078125q0.28125 0.296875 0.859375 0.296875q0.46875 0 1.171875 -0.1875l0.046875 0.75q-0.765625 0.203125 -1.234375 0.203125zm6.265625 -0.1875l0 -11.624992l3.5625 0q0.75 0 1.359375 0.15625q0.625 0.15625 1.109375 0.5q0.5 0.32811737 0.765625 0.9062424q0.28125 0.578125 0.28125 1.34375q0 0.4375 -0.046875 0.796875q-0.03125 0.359375 -0.15625 0.734375q-0.109375 0.375 -0.3125 0.65625q-0.203125 0.28125 -0.53125 0.546875q-0.3125 0.25 -0.765625 0.421875q-0.4375 0.15625 -1.0625 0.25q-0.609375 0.09375 -1.375 0.09375q-0.828125 0 -1.8125 -0.109375l0 5.328125l-1.015625 0zm2.921875 -6.09375q0.90625 0 1.53125 -0.171875q0.640625 -0.1875 0.953125 -0.40625q0.3125 -0.234375 0.46875 -0.640625q0.171875 -0.421875 0.1875 -0.671875q0.03125 -0.25 0.03125 -0.703125q0 -0.03125 0 -0.046875q0 -1.015625 -0.703125 -1.515625q-0.6875 -0.5 -1.796875 -0.5l-2.578125 0l0 4.5625q0.6875 0.09375 1.90625 0.09375zm7.765625 6.28125q-1.203125 0 -1.9375 -0.609375q-0.71875 -0.609375 -0.71875 -1.75q0 -0.671875 0.28125 -1.15625q0.296875 -0.5 0.84375 -0.8125q0.546875 -0.3125 1.25 -0.484375q0.71875 -0.171875 1.65625 -0.234375q1.0 -0.0625 1.484375 -0.109375l0 -0.953125q0 -0.984375 -0.453125 -1.46875q-0.453125 -0.5 -1.4375 -0.5q-1.359375 0 -2.546875 0.640625q-0.03125 -0.078125 -0.140625 -0.328125q-0.109375 -0.265625 -0.15625 -0.40625q0.484375 -0.3125 1.265625 -0.515625q0.78125 -0.21875 1.53125 -0.21875q1.53125 0 2.203125 0.65625q0.671875 0.65625 0.671875 2.34375l0 5.71875l-0.75 0q-0.046875 -0.1875 -0.125 -0.71875q-0.0625 -0.53125 -0.0625 -0.546875q-1.015625 1.453125 -2.859375 1.453125zm0.03125 -0.78125q1.0 0 1.78125 -0.578125q0.78125 -0.59375 1.015625 -1.640625l0 -1.46875q-1.125 0.09375 -1.125 0.09375q-1.90625 0.171875 -2.65625 0.625q-0.734375 0.453125 -0.734375 1.40625q0 0.78125 0.46875 1.171875q0.46875 0.390625 1.25 0.390625zm6.1171875 0.59375q-0.015625 -7.546875 -0.015625 -8.5625l0.796875 0l0.0625 1.6875q0.453125 -0.765625 1.15625 -1.25q0.71875 -0.484375 1.5 -0.484375q0.3125 0 0.6875 0.046875l-0.078125 0.8125q-0.28125 -0.046875 -0.59375 -0.046875q-1.078125 0 -1.828125 0.859375q-0.734375 0.84375 -0.734375 2.015625l0 4.921875l-0.953125 0zm6.8359375 -0.84375l2.28125 0q2.421875 0 3.6875 -1.234375q1.28125 -1.234375 1.28125 -3.6875q0 -1.34375 -0.359375 -2.3125q-0.359375 -0.984375 -1.046875 -1.578125q-0.6875 -0.59375 -1.625 -0.859375q-0.9375 -0.28125 -2.15625 -0.28125l-2.0625 0l0 9.953125zm-1.0 0.84375l0 -11.624992l3.15625 0q1.421875 0 2.53125 0.34375q1.125 0.328125 1.953125 1.0156174q0.828125 0.6875 1.265625 1.828125q0.453125 1.125 0.453125 2.625q0 2.859375 -1.578125 4.34375q-1.5625 1.46875 -4.390625 1.46875l-3.390625 0zm14.984375 -0.59375q0.9375 0 1.578125 -0.484375q0.640625 -0.5 0.9375 -1.3125q0.296875 -0.8125 0.296875 -1.875q0 -1.65625 -0.703125 -2.65625q-0.703125 -1.015625 -2.140625 -1.015625q-0.9375 0 -1.609375 0.515625q-0.65625 0.5 -0.96875 1.3125q-0.296875 0.8125 -0.296875 1.875q0 1.59375 0.75 2.625q0.75 1.015625 2.15625 1.015625zm-0.078125 0.78125q-1.15625 0 -2.046875 -0.578125q-0.890625 -0.59375 -1.359375 -1.59375q-0.453125 -1.015625 -0.453125 -2.28125q0 -0.953125 0.265625 -1.765625q0.265625 -0.8125 0.765625 -1.40625q0.5 -0.609375 1.234375 -0.9375q0.75 -0.34375 1.65625 -0.34375q1.203125 0 2.078125 0.59375q0.890625 0.578125 1.328125 1.578125q0.453125 1.0 0.453125 2.265625q0 1.28125 -0.453125 2.28125q-0.453125 1.0 -1.359375 1.59375q-0.890625 0.59375 -2.109375 0.59375z" fill-rule="nonzero"/><path fill="#000000" d="m74.644684 157.94267l0 -11.625l1.0 0l0 5.140625l6.671875 0l0 -5.140625l1.0 0l0 11.625l-1.0 0l0 -5.609375l-6.671875 0l0 5.609375l-1.0 0zm14.796875 -0.59375q0.9375 0 1.578125 -0.484375q0.640625 -0.5 0.9375 -1.3125q0.296875 -0.8125 0.296875 -1.875q0 -1.65625 -0.703125 -2.65625q-0.703125 -1.015625 -2.140625 -1.015625q-0.9375 0 -1.609375 0.515625q-0.65625 0.5 -0.96875 1.3125q-0.296875 0.8125 -0.296875 1.875q0 1.59375 0.75 2.625q0.75 1.015625 2.15625 1.015625zm-0.078125 0.78125q-1.15625 0 -2.046875 -0.578125q-0.890625 -0.59375 -1.359375 -1.59375q-0.453125 -1.015625 -0.453125 -2.28125q0 -0.953125 0.265625 -1.765625q0.265625 -0.8125 0.765625 -1.40625q0.5 -0.609375 1.234375 -0.9375q0.75 -0.34375 1.65625 -0.34375q1.203125 0 2.078125 0.59375q0.890625 0.578125 1.328125 1.578125q0.453125 1.0 0.453125 2.265625q0 1.28125 -0.453125 2.28125q-0.453125 1.0 -1.359375 1.59375q-0.890625 0.59375 -2.109375 0.59375zm7.984375 0q-1.078125 0 -1.578125 -0.484375q-0.5 -0.5 -0.5 -1.609375l0 -9.984375l0.953125 -0.078125l0 10.015625q0 0.78125 0.28125 1.078125q0.28125 0.296875 0.859375 0.296875q0.46875 0 1.171875 -0.1875l0.046875 0.75q-0.765625 0.203125 -1.234375 0.203125zm5.6171875 0q-1.71875 0 -2.671875 -1.1875q-0.953125 -1.203125 -0.953125 -3.296875q0 -1.96875 0.984375 -3.1875q0.984375 -1.234375 2.609375 -1.234375q0.796875 0 1.59375 0.34375q0.796875 0.34375 1.203125 1.0625l0 -0.25l0 -4.328125l0.9375 -0.078125l0 11.96875l-0.796875 0l-0.140625 -1.296875q-0.453125 0.734375 -1.21875 1.109375q-0.75 0.375 -1.546875 0.375zm-0.03125 -0.78125q0.734375 0 1.28125 -0.265625q0.546875 -0.265625 0.875 -0.75q0.328125 -0.484375 0.484375 -1.109375q0.15625 -0.625 0.15625 -1.390625q0 -3.828125 -2.8125 -3.828125q-0.65625 0 -1.171875 0.328125q-0.5 0.3125 -0.796875 0.84375q-0.296875 0.53125 -0.4375 1.171875q-0.140625 0.625 -0.140625 1.3125q0 0.609375 0.078125 1.140625q0.09375 0.515625 0.28125 1.0q0.203125 0.46875 0.484375 0.8125q0.296875 0.34375 0.734375 0.546875q0.4375 0.1875 0.984375 0.1875z" fill-rule="nonzero"/><path fill="#000000" fill-opacity="0.0" d="m90.519684 83.968506l0 31.370079" fill-rule="evenodd"/><path stroke="#ffab40" stroke-width="2.0" stroke-linejoin="round" stroke-linecap="butt" d="m90.519684 83.968506l0 19.370079" fill-rule="evenodd"/><path fill="#ffab40" stroke="#ffab40" stroke-width="2.0" stroke-linecap="butt" d="m87.21622 103.338585l3.3034668 9.076195l3.3034668 -9.076195z" fill-rule="evenodd"/><path fill="#fce5cd" d="m33.889763 169.82939l113.25985 0l0 23.34488l-56.62993 5.8362274l-56.62992 -5.8362274z" fill-rule="evenodd"/><path stroke="#ea7b1e" stroke-width="1.0" stroke-linejoin="round" stroke-linecap="butt" d="m33.889763 169.82939l113.25985 0l0 23.34488l-56.62993 5.8362274l-56.62992 -5.8362274z" fill-rule="evenodd"/><path fill="#000000" d="m53.834137 179.18184l0 -5.046875l-1.890625 0l0 -0.6875l4.546875 0l0 0.6875l-1.90625 0l0 5.046875l-0.75 0zm5.7617188 0l0 -0.609375q-0.484375 0.703125 -1.3125 0.703125q-0.375 0 -0.703125 -0.140625q-0.3125 -0.140625 -0.46875 -0.34375q-0.140625 -0.21875 -0.203125 -0.53125q-0.046875 -0.203125 -0.046875 -0.65625l0 -2.578125l0.703125 0l0 2.3125q0 0.546875 0.046875 0.734375q0.0625 0.28125 0.265625 0.4375q0.21875 0.15625 0.546875 0.15625q0.3125 0 0.578125 -0.15625q0.28125 -0.171875 0.390625 -0.4375q0.125 -0.28125 0.125 -0.8125l0 -2.234375l0.703125 0l0 4.15625l-0.625 0zm3.2617188 -0.625l0.109375 0.609375q-0.296875 0.078125 -0.53125 0.078125q-0.390625 0 -0.609375 -0.125q-0.203125 -0.125 -0.296875 -0.3125q-0.078125 -0.203125 -0.078125 -0.84375l0 -2.390625l-0.515625 0l0 -0.546875l0.515625 0l0 -1.015625l0.703125 -0.421875l0 1.4375l0.703125 0l0 0.546875l-0.703125 0l0 2.4375q0 0.296875 0.03125 0.390625q0.046875 0.078125 0.125 0.125q0.078125 0.046875 0.234375 0.046875q0.125 0 0.3125 -0.015625zm2.2226562 0l0.109375 0.609375q-0.296875 0.078125 -0.53125 0.078125q-0.390625 0 -0.609375 -0.125q-0.203125 -0.125 -0.296875 -0.3125q-0.078125 -0.203125 -0.078125 -0.84375l0 -2.390625l-0.515625 0l0 -0.546875l0.515625 0l0 -1.015625l0.703125 -0.421875l0 1.4375l0.703125 0l0 0.546875l-0.703125 0l0 2.4375q0 0.296875 0.03125 0.390625q0.046875 0.078125 0.125 0.125q0.078125 0.046875 0.234375 0.046875q0.125 0 0.3125 -0.015625zm0.69140625 -4.296875l0 -0.8125l0.703125 0l0 0.8125l-0.703125 0zm0 4.921875l0 -4.15625l0.703125 0l0 4.15625l-0.703125 0zm3.875 0.34375l0.671875 0.109375q0.046875 0.3125 0.25 0.453125q0.25 0.203125 0.703125 0.203125q0.5 0 0.765625 -0.203125q0.265625 -0.1875 0.359375 -0.546875q0.046875 -0.21875 0.046875 -0.90625q-0.46875 0.546875 -1.15625 0.546875q-0.84375 0 -1.3125 -0.609375q-0.46875 -0.625 -0.46875 -1.484375q0 -0.59375 0.203125 -1.09375q0.21875 -0.515625 0.625 -0.78125q0.40625 -0.28125 0.96875 -0.28125q0.734375 0 1.203125 0.59375l0 -0.5l0.65625 0l0 3.59375q0 0.96875 -0.203125 1.375q-0.203125 0.40625 -0.625 0.640625q-0.421875 0.234375 -1.046875 0.234375q-0.75 0 -1.203125 -0.34375q-0.453125 -0.328125 -0.4375 -1.0zm0.578125 -2.5q0 0.828125 0.3125 1.203125q0.328125 0.375 0.828125 0.375q0.484375 0 0.8125 -0.375q0.328125 -0.375 0.328125 -1.171875q0 -0.765625 -0.34375 -1.140625q-0.34375 -0.390625 -0.8125 -0.390625q-0.46875 0 -0.796875 0.375q-0.328125 0.375 -0.328125 1.125zm3.9804688 2.15625l0 -5.734375l0.703125 0l0 5.734375l-0.703125 0zm1.7929688 -4.921875l0 -0.8125l0.703125 0l0 0.8125l-0.703125 0zm0 4.921875l0 -4.15625l0.703125 0l0 4.15625l-0.703125 0zm6.84375 -1.34375l0.71875 0.09375q-0.171875 0.640625 -0.640625 1.0q-0.453125 0.34375 -1.1875 0.34375q-0.90625 0 -1.4375 -0.5625q-0.53125 -0.5625 -0.53125 -1.578125q0 -1.046875 0.53125 -1.625q0.546875 -0.578125 1.40625 -0.578125q0.828125 0 1.359375 0.578125q0.53125 0.5625 0.53125 1.59375q0 0.0625 -0.015625 0.1875l-3.09375 0q0.046875 0.671875 0.390625 1.046875q0.34375 0.359375 0.875 0.359375q0.375 0 0.640625 -0.203125q0.28125 -0.203125 0.453125 -0.65625zm-2.3125 -1.125l2.3125 0q-0.046875 -0.53125 -0.265625 -0.796875q-0.328125 -0.40625 -0.875 -0.40625q-0.484375 0 -0.8125 0.328125q-0.328125 0.328125 -0.359375 0.875zm5.0742188 2.46875l-1.578125 -4.15625l0.734375 0l0.890625 2.484375q0.140625 0.40625 0.265625 0.84375q0.09375 -0.328125 0.265625 -0.796875l0.921875 -2.53125l0.71875 0l-1.5625 4.15625l-0.65625 0zm5.6875 -1.34375l0.71875 0.09375q-0.171875 0.640625 -0.640625 1.0q-0.453125 0.34375 -1.1875 0.34375q-0.90625 0 -1.4375 -0.5625q-0.53125 -0.5625 -0.53125 -1.578125q0 -1.046875 0.53125 -1.625q0.546875 -0.578125 1.40625 -0.578125q0.828125 0 1.359375 0.578125q0.53125 0.5625 0.53125 1.59375q0 0.0625 -0.015625 0.1875l-3.09375 0q0.046875 0.671875 0.390625 1.046875q0.34375 0.359375 0.875 0.359375q0.375 0 0.640625 -0.203125q0.28125 -0.203125 0.453125 -0.65625zm-2.3125 -1.125l2.3125 0q-0.046875 -0.53125 -0.265625 -0.796875q-0.328125 -0.40625 -0.875 -0.40625q-0.484375 0 -0.8125 0.328125q-0.328125 0.328125 -0.359375 0.875zm3.9179688 2.46875l0 -4.15625l0.625 0l0 0.59375q0.46875 -0.6875 1.328125 -0.6875q0.375 0 0.6875 0.140625q0.3125 0.140625 0.46875 0.359375q0.15625 0.21875 0.21875 0.515625q0.046875 0.1875 0.046875 0.6875l0 2.546875l-0.703125 0l0 -2.53125q0 -0.421875 -0.09375 -0.625q-0.078125 -0.21875 -0.296875 -0.34375q-0.203125 -0.140625 -0.484375 -0.140625q-0.4375 0 -0.765625 0.296875q-0.328125 0.28125 -0.328125 1.078125l0 2.265625l-0.703125 0zm5.9804688 -0.625l0.109375 0.609375q-0.296875 0.078125 -0.53125 0.078125q-0.390625 0 -0.609375 -0.125q-0.203125 -0.125 -0.296875 -0.3125q-0.078125 -0.203125 -0.078125 -0.84375l0 -2.390625l-0.515625 0l0 -0.546875l0.515625 0l0 -1.015625l0.703125 -0.421875l0 1.4375l0.703125 0l0 0.546875l-0.703125 0l0 2.4375q0 0.296875 0.03125 0.390625q0.046875 0.078125 0.125 0.125q0.078125 0.046875 0.234375 0.046875q0.125 0 0.3125 -0.015625zm0.69140625 -4.296875l0 -0.8125l0.703125 0l0 0.8125l-0.703125 0zm0 4.921875l0 -4.15625l0.703125 0l0 4.15625l-0.703125 0zm3.734375 -2.078125q0 -1.15625 0.640625 -1.703125q0.53125 -0.46875 1.3125 -0.46875q0.84375 0 1.390625 0.5625q0.546875 0.5625 0.546875 1.546875q0 0.8125 -0.25 1.265625q-0.234375 0.453125 -0.703125 0.71875q-0.453125 0.25 -0.984375 0.25q-0.875 0 -1.421875 -0.5625q-0.53125 -0.5625 -0.53125 -1.609375zm0.71875 0q0 0.796875 0.34375 1.203125q0.359375 0.390625 0.890625 0.390625q0.515625 0 0.859375 -0.390625q0.359375 -0.40625 0.359375 -1.21875q0 -0.78125 -0.359375 -1.171875q-0.34375 -0.390625 -0.859375 -0.390625q-0.53125 0 -0.890625 0.390625q-0.34375 0.390625 -0.34375 1.1875zm3.8710938 2.421875l0.671875 0.109375q0.046875 0.3125 0.25 0.453125q0.25 0.203125 0.703125 0.203125q0.5 0 0.765625 -0.203125q0.265625 -0.1875 0.359375 -0.546875q0.046875 -0.21875 0.046875 -0.90625q-0.46875 0.546875 -1.15625 0.546875q-0.84375 0 -1.3125 -0.609375q-0.46875 -0.625 -0.46875 -1.484375q0 -0.59375 0.203125 -1.09375q0.21875 -0.515625 0.625 -0.78125q0.40625 -0.28125 0.96875 -0.28125q0.734375 0 1.203125 0.59375l0 -0.5l0.65625 0l0 3.59375q0 0.96875 -0.203125 1.375q-0.203125 0.40625 -0.625 0.640625q-0.421875 0.234375 -1.046875 0.234375q-0.75 0 -1.203125 -0.34375q-0.453125 -0.328125 -0.4375 -1.0zm0.578125 -2.5q0 0.828125 0.3125 1.203125q0.328125 0.375 0.828125 0.375q0.484375 0 0.8125 -0.375q0.328125 -0.375 0.328125 -1.171875q0 -0.765625 -0.34375 -1.140625q-0.34375 -0.390625 -0.8125 -0.390625q-0.46875 0 -0.796875 0.375q-0.328125 0.375 -0.328125 1.125zm3.9960938 2.15625l0 -4.15625l0.625 0l0 0.59375q0.46875 -0.6875 1.328125 -0.6875q0.375 0 0.6875 0.140625q0.3125 0.140625 0.46875 0.359375q0.15625 0.21875 0.21875 0.515625q0.046875 0.1875 0.046875 0.6875l0 2.546875l-0.703125 0l0 -2.53125q0 -0.421875 -0.09375 -0.625q-0.078125 -0.21875 -0.296875 -0.34375q-0.203125 -0.140625 -0.484375 -0.140625q-0.4375 0 -0.765625 0.296875q-0.328125 0.28125 -0.328125 1.078125l0 2.265625l-0.703125 0zm4.4492188 -4.921875l0 -0.8125l0.703125 0l0 0.8125l-0.703125 0zm0 4.921875l0 -4.15625l0.703125 0l0 4.15625l-0.703125 0zm6.453125 0l-0.703125 0l0 -4.484375q-0.25 0.25 -0.671875 0.5q-0.40625 0.234375 -0.734375 0.34375l0 -0.671875q0.59375 -0.28125 1.03125 -0.671875q0.4375 -0.390625 0.625 -0.765625l0.453125 0l0 5.75zm1.7929688 -1.5l0.75 -0.0625q0.078125 0.53125 0.375 0.8125q0.296875 0.265625 0.71875 0.265625q0.515625 0 0.859375 -0.375q0.359375 -0.390625 0.359375 -1.015625q0 -0.609375 -0.34375 -0.953125q-0.34375 -0.34375 -0.890625 -0.34375q-0.328125 0 -0.609375 0.15625q-0.265625 0.140625 -0.421875 0.390625l-0.671875 -0.078125l0.5625 -2.953125l2.84375 0l0 0.671875l-2.28125 0l-0.3125 1.546875q0.515625 -0.359375 1.078125 -0.359375q0.75 0 1.265625 0.515625q0.515625 0.515625 0.515625 1.34375q0 0.765625 -0.453125 1.34375q-0.546875 0.6875 -1.5 0.6875q-0.78125 0 -1.28125 -0.4375q-0.484375 -0.4375 -0.5625 -1.15625z" fill-rule="nonzero"/><path fill="#000000" d="m76.982574 187.94746l0.6875 -0.109375q0.0625 0.40625 0.328125 0.640625q0.265625 0.21875 0.75 0.21875q0.484375 0 0.71875 -0.1875q0.234375 -0.203125 0.234375 -0.46875q0 -0.25 -0.203125 -0.375q-0.140625 -0.09375 -0.71875 -0.25q-0.78125 -0.1875 -1.078125 -0.328125q-0.296875 -0.140625 -0.453125 -0.390625q-0.15625 -0.265625 -0.15625 -0.5625q0 -0.28125 0.125 -0.515625q0.140625 -0.234375 0.359375 -0.390625q0.15625 -0.125 0.4375 -0.203125q0.28125 -0.09375 0.609375 -0.09375q0.484375 0 0.859375 0.140625q0.375 0.140625 0.546875 0.390625q0.171875 0.234375 0.234375 0.640625l-0.6875 0.09375q-0.046875 -0.328125 -0.265625 -0.5q-0.21875 -0.1875 -0.640625 -0.1875q-0.484375 0 -0.6875 0.171875q-0.203125 0.15625 -0.203125 0.375q0 0.125 0.078125 0.234375q0.09375 0.125 0.28125 0.1875q0.09375 0.046875 0.609375 0.1875q0.75 0.203125 1.046875 0.328125q0.296875 0.125 0.453125 0.375q0.171875 0.234375 0.171875 0.59375q0 0.34375 -0.203125 0.65625q-0.203125 0.3125 -0.59375 0.484375q-0.375 0.171875 -0.875 0.171875q-0.796875 0 -1.234375 -0.328125q-0.421875 -0.34375 -0.53125 -1.0zm7.125 -0.109375l0.71875 0.09375q-0.171875 0.640625 -0.640625 1.0q-0.453125 0.34375 -1.1875 0.34375q-0.90625 0 -1.4375 -0.5625q-0.53125 -0.5625 -0.53125 -1.578125q0 -1.046875 0.53125 -1.625q0.546875 -0.578125 1.40625 -0.578125q0.828125 0 1.359375 0.578125q0.53125 0.5625 0.53125 1.59375q0 0.0625 -0.015625 0.1875l-3.09375 0q0.046875 0.671875 0.390625 1.046875q0.34375 0.359375 0.875 0.359375q0.375 0 0.640625 -0.203125q0.28125 -0.203125 0.453125 -0.65625zm-2.3125 -1.125l2.3125 0q-0.046875 -0.53125 -0.265625 -0.796875q-0.328125 -0.40625 -0.875 -0.40625q-0.484375 0 -0.8125 0.328125q-0.328125 0.328125 -0.359375 0.875zm6.6210938 0.953125l0.6875 0.078125q-0.109375 0.71875 -0.578125 1.125q-0.46875 0.40625 -1.140625 0.40625q-0.859375 0 -1.375 -0.546875q-0.515625 -0.5625 -0.515625 -1.609375q0 -0.671875 0.21875 -1.171875q0.234375 -0.5 0.6875 -0.75q0.453125 -0.265625 0.984375 -0.265625q0.671875 0 1.09375 0.34375q0.4375 0.34375 0.5625 0.96875l-0.6875 0.109375q-0.09375 -0.421875 -0.34375 -0.625q-0.25 -0.21875 -0.59375 -0.21875q-0.53125 0 -0.875 0.390625q-0.328125 0.375 -0.328125 1.203125q0 0.828125 0.3125 1.21875q0.328125 0.375 0.84375 0.375q0.421875 0 0.6875 -0.25q0.28125 -0.265625 0.359375 -0.78125zm1.03125 -0.5625q0 -1.15625 0.640625 -1.703125q0.53125 -0.46875 1.3125 -0.46875q0.84375 0 1.390625 0.5625q0.546875 0.5625 0.546875 1.546875q0 0.8125 -0.25 1.265625q-0.234375 0.453125 -0.703125 0.71875q-0.453125 0.25 -0.984375 0.25q-0.875 0 -1.421875 -0.5625q-0.53125 -0.5625 -0.53125 -1.609375zm0.71875 0q0 0.796875 0.34375 1.203125q0.359375 0.390625 0.890625 0.390625q0.515625 0 0.859375 -0.390625q0.359375 -0.40625 0.359375 -1.21875q0 -0.78125 -0.359375 -1.171875q-0.34375 -0.390625 -0.859375 -0.390625q-0.53125 0 -0.890625 0.390625q-0.34375 0.390625 -0.34375 1.1875zm3.9960938 2.078125l0 -4.15625l0.625 0l0 0.59375q0.46875 -0.6875 1.328125 -0.6875q0.375 0 0.6875 0.140625q0.3125 0.140625 0.46875 0.359375q0.15625 0.21875 0.21875 0.515625q0.046875 0.1875 0.046875 0.6875l0 2.546875l-0.703125 0l0 -2.53125q0 -0.421875 -0.09375 -0.625q-0.078125 -0.21875 -0.296875 -0.34375q-0.203125 -0.140625 -0.484375 -0.140625q-0.4375 0 -0.765625 0.296875q-0.328125 0.28125 -0.328125 1.078125l0 2.265625l-0.703125 0zm7.1367188 0l0 -0.53125q-0.390625 0.625 -1.15625 0.625q-0.5 0 -0.921875 -0.265625q-0.40625 -0.28125 -0.640625 -0.765625q-0.21875 -0.5 -0.21875 -1.140625q0 -0.609375 0.203125 -1.109375q0.203125 -0.515625 0.609375 -0.78125q0.421875 -0.28125 0.9375 -0.28125q0.375 0 0.65625 0.171875q0.296875 0.15625 0.484375 0.40625l0 -2.0625l0.703125 0l0 5.734375l-0.65625 0zm-2.21875 -2.078125q0 0.796875 0.328125 1.203125q0.34375 0.390625 0.796875 0.390625q0.46875 0 0.78125 -0.375q0.328125 -0.375 0.328125 -1.15625q0 -0.84375 -0.328125 -1.234375q-0.328125 -0.40625 -0.8125 -0.40625q-0.46875 0 -0.78125 0.390625q-0.3125 0.375 -0.3125 1.1875zm3.9804688 -2.84375l0 -0.8125l0.703125 0l0 0.8125l-0.703125 0zm0 4.921875l0 -4.15625l0.703125 0l0 4.15625l-0.703125 0z" fill-rule="nonzero"/><path fill="#000000" fill-opacity="0.0" d="m90.519684 199.0105l0 23.937012" fill-rule="evenodd"/><path stroke="#ffab40" stroke-width="2.0" stroke-linejoin="round" stroke-linecap="butt" d="m90.519684 199.0105l0 11.937012" fill-rule="evenodd"/><path fill="#ffab40" stroke="#ffab40" stroke-width="2.0" stroke-linecap="butt" d="m87.21622 210.94751l3.3034668 9.076187l3.3034668 -9.076187z" fill-rule="evenodd"/><path fill="#000000" fill-opacity="0.0" d="m90.519684 9.407561l0 25.165352" fill-rule="evenodd"/><path stroke="#ffab40" stroke-width="2.0" stroke-linejoin="round" stroke-linecap="butt" d="m90.519684 9.407561l0 13.165355" fill-rule="evenodd"/><path fill="#ffab40" stroke="#ffab40" stroke-width="2.0" stroke-linecap="butt" d="m87.21622 22.572918l3.3034668 9.076195l3.3034668 -9.076195z" fill-rule="evenodd"/></g></svg>