<svg version="1.1" viewBox="0.0 0.0 389.61679790026244 343.20472440944883" fill="none" stroke="none" stroke-linecap="square" stroke-miterlimit="10" xmlns:xlink="http://www.w3.org/1999/xlink" xmlns="http://www.w3.org/2000/svg"><clipPath id="p.0"><path d="m0 0l389.6168 0l0 343.2047l-389.6168 0l0 -343.2047z" clip-rule="nonzero"/></clipPath><g clip-path="url(#p.0)"><path fill="#000000" fill-opacity="0.0" d="m0 0l389.6168 0l0 343.2047l-389.6168 0z" fill-rule="evenodd"/><path fill="#000000" fill-opacity="0.0" d="m0 74.41732l375.3386 0l0 258.11023l-375.3386 0z" fill-rule="evenodd"/><path stroke="#595959" stroke-width="1.0" stroke-linejoin="round" stroke-linecap="butt" stroke-dasharray="1.0,3.0" d="m0 74.41732l375.3386 0l0 258.11023l-375.3386 0z" fill-rule="evenodd"/><path fill="#eeeeee" d="m34.799236 262.9988l186.98163 0l0 52.91339l-186.98163 0z" fill-rule="evenodd"/><path fill="#000000" fill-opacity="0.0" d="m58.17194 262.9988l0 52.91339m140.23622 -52.91339l0 52.91339" fill-rule="evenodd"/><path fill="#000000" fill-opacity="0.0" d="m34.799236 262.9988l186.98163 0l0 52.91339l-186.98163 0z" fill-rule="evenodd"/><path stroke="#595959" stroke-width="1.0" stroke-linejoin="round" stroke-linecap="butt" d="m58.17194 262.9988l0 52.91339m140.23622 -52.91339l0 52.91339" fill-rule="evenodd"/><path stroke="#595959" stroke-width="1.0" stroke-linejoin="round" stroke-linecap="butt" d="m34.799236 262.9988l186.98163 0l0 52.91339l-186.98163 0z" fill-rule="evenodd"/><path fill="#000000" d="m110.632126 284.71115q0 -0.453125 -0.3125 -0.6875q-0.3125 -0.234375 -1.125 -0.484375q-0.8125 -0.265625 -1.28125 -0.53125q-1.296875 -0.6875 -1.296875 -1.875q0 -0.609375 0.34375 -1.09375q0.34375 -0.484375 0.984375 -0.75q0.65625 -0.28125 1.46875 -0.28125q0.8125 0 1.4375 0.296875q0.640625 0.296875 0.984375 0.84375q0.359375 0.53125 0.359375 1.203125l-1.5625 0q0 -0.515625 -0.328125 -0.796875q-0.328125 -0.296875 -0.921875 -0.296875q-0.578125 0 -0.890625 0.25q-0.3125 0.234375 -0.3125 0.625q0 0.375 0.359375 0.625q0.375 0.25 1.109375 0.46875q1.328125 0.40625 1.9375 1.0q0.609375 0.59375 0.609375 1.46875q0 0.984375 -0.75 1.546875q-0.734375 0.5625 -2.0 0.5625q-0.875 0 -1.59375 -0.3125q-0.71875 -0.328125 -1.09375 -0.890625q-0.375 -0.5625 -0.375 -1.296875l1.5625 0q0 1.265625 1.5 1.265625q0.5625 0 0.875 -0.21875q0.3125 -0.234375 0.3125 -0.640625zm8.785263 1.984375l-1.5625 0l0 -3.25l-3.046875 0l0 3.25l-1.5625 0l0 -7.578125l1.5625 0l0 3.078125l3.046875 0l0 -3.078125l1.5625 0l0 7.578125zm7.0915985 -7.578125l0 4.984375q0 1.25 -0.78125 1.984375q-0.765625 0.71875 -2.125 0.71875q-1.3125 0 -2.09375 -0.703125q-0.78125 -0.703125 -0.796875 -1.9375l0 -5.046875l1.5625 0l0 5.0q0 0.75 0.34375 1.09375q0.359375 0.328125 0.984375 0.328125q1.328125 0 1.34375 -1.375l0 -5.046875l1.5625 0zm5.842102 4.484375l-3.0 0l0 3.09375l-1.5625 0l0 -7.578125l4.9375 0l0 1.265625l-3.375 0l0 1.953125l3.0 0l0 1.265625zm5.838043 0l-3.0 0l0 3.09375l-1.5625 0l0 -7.578125l4.9375 0l0 1.265625l-3.375 0l0 1.953125l3.0 0l0 1.265625zm2.8380432 1.84375l3.3125 0l0 1.25l-4.875 0l0 -7.578125l1.5625 0l0 6.328125zm8.770401 -2.03125l-3.0 0l0 2.03125l3.515625 0l0 1.25l-5.078125 0l0 -7.578125l5.078125 0l0 1.265625l-3.515625 0l0 1.8125l3.0 0l0 1.21875z" fill-rule="nonzero"/><path fill="#000000" d="m98.09573 296.1799l-0.921875 0.953125l0 2.5625l-1.0 0l0 -7.578125l1.0 0l0 3.75l3.375 -3.75l1.203125 0l-2.984375 3.34375l3.21875 4.234375l-1.203125 0l-2.6875 -3.515625zm7.274719 2.1875l2.15625 -6.25l1.09375 0l-2.8125 7.578125l-0.875 0l-2.8125 -7.578125l1.09375 0l2.15625 6.25zm4.764206 -2.015625l3.25 1.3125l0 1.015625l-4.25 -1.96875l0 -0.765625l4.25 -1.96875l0 1.03125l-3.25 1.34375zm9.19783 -0.15625l-3.28125 0l0 2.6875l3.8125 0l0 0.8125l-4.8125 0l0 -7.578125l4.765625 0l0 0.828125l-3.765625 0l0 2.4375l3.28125 0l0 0.8125zm6.3847046 0.75q0 1.28125 -0.59375 2.078125q-0.578125 0.78125 -1.59375 0.78125q-1.015625 0 -1.609375 -0.65625l0 2.71875l-0.953125 0l0 -7.796875l0.875 0l0.046875 0.625q0.59375 -0.734375 1.625 -0.734375q1.015625 0 1.609375 0.765625q0.59375 0.765625 0.59375 2.125l0 0.09375zm-0.96875 -0.109375q0 -0.953125 -0.40625 -1.5q-0.40625 -0.5625 -1.109375 -0.5625q-0.875 0 -1.3125 0.78125l0 2.6875q0.4375 0.765625 1.328125 0.765625q0.6875 0 1.09375 -0.546875q0.40625 -0.546875 0.40625 -1.625zm1.9316559 0q0 -0.828125 0.328125 -1.484375q0.328125 -0.671875 0.90625 -1.03125q0.578125 -0.359375 1.328125 -0.359375q1.140625 0 1.84375 0.796875q0.71875 0.796875 0.71875 2.125l0 0.0625q0 0.8125 -0.3125 1.46875q-0.3125 0.65625 -0.90625 1.03125q-0.578125 0.359375 -1.34375 0.359375q-1.140625 0 -1.859375 -0.796875q-0.703125 -0.796875 -0.703125 -2.109375l0 -0.0625zm0.96875 0.109375q0 0.9375 0.4375 1.5q0.4375 0.5625 1.15625 0.5625q0.734375 0 1.171875 -0.5625q0.4375 -0.578125 0.4375 -1.609375q0 -0.9375 -0.453125 -1.5q-0.4375 -0.578125 -1.15625 -0.578125q-0.71875 0 -1.15625 0.5625q-0.4375 0.5625 -0.4375 1.625zm7.6242676 2.0625q0.515625 0 0.890625 -0.3125q0.390625 -0.3125 0.4375 -0.78125l0.90625 0q-0.015625 0.484375 -0.328125 0.921875q-0.3125 0.4375 -0.828125 0.703125q-0.5 0.265625 -1.078125 0.265625q-1.140625 0 -1.828125 -0.765625q-0.671875 -0.78125 -0.671875 -2.109375l0 -0.15625q0 -0.828125 0.296875 -1.46875q0.296875 -0.640625 0.859375 -0.984375q0.578125 -0.359375 1.34375 -0.359375q0.9375 0 1.5625 0.578125q0.640625 0.5625 0.671875 1.46875l-0.90625 0q-0.046875 -0.546875 -0.421875 -0.890625q-0.359375 -0.359375 -0.90625 -0.359375q-0.734375 0 -1.140625 0.53125q-0.40625 0.515625 -0.40625 1.515625l0 0.1875q0 0.96875 0.40625 1.5q0.40625 0.515625 1.140625 0.515625zm4.281006 -4.265625q0.640625 -0.78125 1.671875 -0.78125q1.78125 0 1.796875 2.015625l0 3.71875l-0.96875 0l0 -3.71875q0 -0.609375 -0.28125 -0.90625q-0.265625 -0.296875 -0.84375 -0.296875q-0.46875 0 -0.828125 0.25q-0.34375 0.25 -0.546875 0.65625l0 4.015625l-0.953125 0l0 -8.0l0.953125 0l0 3.046875zm4.8848877 6.46875l-0.546875 -0.375q0.484375 -0.6875 0.5 -1.40625l0 -0.875l0.953125 0l0 0.75q0 0.53125 -0.265625 1.046875q-0.25 0.53125 -0.640625 0.859375zm3.3417053 -1.515625l-1.0 0l0 -7.578125l1.0 0l0 7.578125zm1.8200836 0l0 -7.578125l2.140625 0q0.984375 0 1.75 0.4375q0.765625 0.4375 1.171875 1.25q0.421875 0.796875 0.421875 1.84375l0 0.484375q0 1.078125 -0.421875 1.890625q-0.40625 0.796875 -1.171875 1.234375q-0.765625 0.421875 -1.796875 0.4375l-2.09375 0zm1.0 -6.75l0 5.9375l1.046875 0q1.15625 0 1.796875 -0.71875q0.65625 -0.71875 0.65625 -2.046875l0 -0.4375q0 -1.296875 -0.609375 -2.015625q-0.609375 -0.71875 -1.71875 -0.71875l-1.171875 0zm9.253586 3.375l-3.4375 -1.359375l0 -0.984375l4.4375 1.96875l0 0.765625l-4.4375 1.96875l0 -1.0l3.4375 -1.359375z" fill-rule="nonzero"/><path fill="#000000" fill-opacity="0.0" d="m34.799213 315.56567l0 -52.22049l23.937008 0l0 52.22049z" fill-rule="evenodd"/><path fill="#000000" d="m42.929592 298.47266l5.5 -1.9375l-5.5 -1.9375l0 -2.046875l7.578125 0l0 1.5625l-2.078125 0l-3.5625 -0.15625l5.640625 2.046875l0 1.0625l-5.640625 2.046875l3.5625 -0.15625l2.078125 0l0 1.5625l-7.578125 0l0 -2.046875zm6.015625 -11.66275l0 2.734375l1.5625 0.515625l0 1.671875l-7.578125 -2.828125l0 -1.4375l7.578125 -2.84375l0 1.65625l-1.5625 0.53125zm-1.265625 2.3125l0 -1.890625l-2.828125 0.953125l2.828125 0.9375zm0.15625 -6.7638245l2.671875 0l0 1.5625l-7.578125 0l0 -2.953125q0 -0.859375 0.3125 -1.5q0.3125 -0.65625 0.890625 -1.0q0.578125 -0.359375 1.3125 -0.359375q1.109375 0 1.75 0.765625q0.640625 0.765625 0.640625 2.109375l0 1.375zm-1.265625 0l0 -1.390625q0 -0.625 -0.28125 -0.953125q-0.296875 -0.328125 -0.84375 -0.328125q-0.546875 0 -0.890625 0.328125q-0.34375 0.328125 -0.359375 0.90625l0 1.4375l2.375 0z" fill-rule="nonzero"/><path fill="#000000" fill-opacity="0.0" d="m219.33336 222.07362l25.000854 0l0 33.864243l-234.53531 0l0 33.50583l24.999016 0" fill-rule="evenodd"/><path stroke="#595959" stroke-width="1.0" stroke-linejoin="round" stroke-linecap="butt" d="m219.33336 222.07364l25.000854 0l0 33.864227l-234.53531 0l0 33.50586l21.57193 0" fill-rule="evenodd"/><path fill="#595959" stroke="#595959" stroke-width="1.0" stroke-linecap="butt" d="m31.370836 289.44373l-1.1245823 1.1245728l3.0897675 -1.1245728l-3.0897675 -1.1246033z" fill-rule="evenodd"/><path fill="#eeeeee" d="m36.82548 120.67599l186.98163 0l0 52.913383l-186.98163 0z" fill-rule="evenodd"/><path fill="#000000" fill-opacity="0.0" d="m60.198185 120.67599l0 52.913383m140.23622 -52.913383l0 52.913383" fill-rule="evenodd"/><path fill="#000000" fill-opacity="0.0" d="m36.82548 120.67599l186.98163 0l0 52.913383l-186.98163 0z" fill-rule="evenodd"/><path stroke="#595959" stroke-width="1.0" stroke-linejoin="round" stroke-linecap="butt" d="m60.198185 120.67599l0 52.913383m140.23622 -52.913383l0 52.913383" fill-rule="evenodd"/><path stroke="#595959" stroke-width="1.0" stroke-linejoin="round" stroke-linecap="butt" d="m36.82548 120.67599l186.98163 0l0 52.913383l-186.98163 0z" fill-rule="evenodd"/><path fill="#000000" d="m107.90983 143.41956q-0.421875 0.5 -1.203125 0.78125q-0.765625 0.28125 -1.703125 0.28125q-0.984375 0 -1.71875 -0.421875q-0.734375 -0.4375 -1.140625 -1.25q-0.40625 -0.828125 -0.421875 -1.921875l0 -0.515625q0 -1.140625 0.375 -1.96875q0.390625 -0.828125 1.109375 -1.265625q0.71875 -0.453125 1.6875 -0.453125q1.359375 0 2.109375 0.65625q0.765625 0.640625 0.90625 1.859375l-1.515625 0q-0.109375 -0.640625 -0.46875 -0.9375q-0.359375 -0.3125 -0.984375 -0.3125q-0.796875 0 -1.21875 0.609375q-0.40625 0.59375 -0.40625 1.765625l0 0.484375q0 1.1875 0.453125 1.796875q0.453125 0.609375 1.328125 0.609375q0.875 0 1.25 -0.375l0 -1.296875l-1.421875 0l0 -1.15625l2.984375 0l0 3.03125zm5.8210297 -2.328125l-3.0 0l0 2.03125l3.515625 0l0 1.25l-5.078125 0l0 -7.578125l5.078125 0l0 1.265625l-3.515625 0l0 1.8125l3.0 0l0 1.21875zm7.6035156 3.28125l-1.5625 0l-3.046875 -4.984375l0 4.984375l-1.5625 0l0 -7.578125l1.5625 0l3.046875 5.0l0 -5.0l1.5625 0l0 7.578125zm8.568169 -3.28125l-2.9999924 0l0 2.03125l3.5156174 0l0 1.25l-5.0781174 0l0 -7.578125l5.0781174 0l0 1.265625l-3.5156174 0l0 1.8125l2.9999924 0l0 1.21875zm2.9941406 0.609375l0 2.671875l-1.5625 0l0 -7.578125l2.953125 0q0.859375 0 1.5 0.3125q0.65625 0.3125 1.0 0.890625q0.359375 0.578125 0.359375 1.3125q0 1.109375 -0.765625 1.75q-0.765625 0.640625 -2.109375 0.640625l-1.375 0zm0 -1.265625l1.390625 0q0.625 0 0.953125 -0.28125q0.328125 -0.296875 0.328125 -0.84375q0 -0.546875 -0.328125 -0.890625q-0.328125 -0.34375 -0.90625 -0.359375l-1.4375 0l0 2.375zm11.545364 0.328125q0 1.109375 -0.40625 1.953125q-0.390625 0.84375 -1.125 1.3125q-0.734375 0.453125 -1.6875 0.453125q-0.953125 0 -1.6875 -0.453125q-0.734375 -0.453125 -1.140625 -1.296875q-0.40625 -0.84375 -0.40625 -1.9375l0 -0.375q0 -1.109375 0.390625 -1.953125q0.40625 -0.859375 1.140625 -1.3125q0.734375 -0.46875 1.6875 -0.46875q0.953125 0 1.6875 0.46875q0.734375 0.453125 1.140625 1.3125q0.40625 0.84375 0.40625 1.953125l0 0.34375zm-1.59375 -0.34375q0 -1.203125 -0.421875 -1.8125q-0.421875 -0.625 -1.21875 -0.625q-0.78125 0 -1.21875 0.609375q-0.421875 0.609375 -0.421875 1.796875l0 0.375q0 1.15625 0.421875 1.796875q0.421875 0.640625 1.234375 0.640625q0.78125 0 1.203125 -0.609375q0.421875 -0.625 0.421875 -1.8125l0 -0.359375zm8.669891 1.421875q-0.09375 1.234375 -0.90625 1.9375q-0.8125 0.703125 -2.140625 0.703125q-1.453125 0 -2.296875 -0.984375q-0.828125 -0.984375 -0.828125 -2.6875l0 -0.46875q0 -1.09375 0.375 -1.921875q0.390625 -0.84375 1.109375 -1.28125q0.71875 -0.453125 1.65625 -0.453125q1.3125 0 2.109375 0.703125q0.8125 0.703125 0.9375 1.984375l-1.5625 0q-0.0625 -0.734375 -0.421875 -1.0625q-0.34375 -0.34375 -1.0625 -0.34375q-0.78125 0 -1.171875 0.5625q-0.375 0.5625 -0.390625 1.734375l0 0.578125q0 1.21875 0.359375 1.796875q0.375 0.5625 1.1875 0.5625q0.71875 0 1.078125 -0.328125q0.359375 -0.328125 0.40625 -1.03125l1.5625 0zm7.191101 2.53125l-1.5625 0l0 -3.25l-3.046875 0l0 3.25l-1.5625 0l0 -7.578125l1.5625 0l0 3.078125l3.046875 0l0 -3.078125l1.5625 0l0 7.578125z" fill-rule="nonzero"/><path fill="#000000" d="m100.12199 153.85706l-0.921875 0.953125l0 2.5625l-1.0 0l0 -7.578125l1.0 0l0 3.75l3.375 -3.75l1.203125 0l-2.984375 3.34375l3.21875 4.234375l-1.203125 0l-2.6875 -3.515625zm7.274719 2.1875l2.15625 -6.25l1.09375 0l-2.8125 7.578125l-0.875 0l-2.8125 -7.578125l1.09375 0l2.15625 6.25zm4.764206 -2.015625l3.25 1.3125l0 1.015625l-4.25 -1.96875l0 -0.765625l4.25 -1.96875l0 1.03125l-3.25 1.34375zm9.19783 -0.15625l-3.28125 0l0 2.6875l3.8125 0l0 0.8125l-4.8125 0l0 -7.578125l4.765625 0l0 0.828125l-3.765625 0l0 2.4375l3.28125 0l0 0.8125zm6.3847046 0.75q0 1.28125 -0.59375 2.078125q-0.578125 0.78125 -1.59375 0.78125q-1.015625 0 -1.609375 -0.65625l0 2.71875l-0.953125 0l0 -7.796875l0.875 0l0.046875 0.625q0.59375 -0.734375 1.625 -0.734375q1.015625 0 1.609375 0.765625q0.59375 0.765625 0.59375 2.125l0 0.09375zm-0.96875 -0.109375q0 -0.953125 -0.40625 -1.5q-0.40625 -0.5625 -1.109375 -0.5625q-0.875 0 -1.3125 0.78125l0 2.6875q0.4375 0.765625 1.328125 0.765625q0.6875 0 1.09375 -0.546875q0.40625 -0.546875 0.40625 -1.625zm1.9316483 0q0 -0.828125 0.328125 -1.484375q0.328125 -0.671875 0.90625 -1.03125q0.578125 -0.359375 1.328125 -0.359375q1.140625 0 1.84375 0.796875q0.71875 0.796875 0.71875 2.125l0 0.0625q0 0.8125 -0.3125 1.46875q-0.3125 0.65625 -0.90625 1.03125q-0.578125 0.359375 -1.34375 0.359375q-1.140625 0 -1.859375 -0.796875q-0.703125 -0.796875 -0.703125 -2.109375l0 -0.0625zm0.96875 0.109375q0 0.9375 0.4375 1.5q0.4375 0.5625 1.15625 0.5625q0.734375 0 1.171875 -0.5625q0.4375 -0.578125 0.4375 -1.609375q0 -0.9375 -0.453125 -1.5q-0.4375 -0.578125 -1.15625 -0.578125q-0.71875 0 -1.15625 0.5625q-0.4375 0.5625 -0.4375 1.625zm7.6242676 2.0625q0.515625 0 0.890625 -0.3125q0.390625 -0.3125 0.4375 -0.78125l0.90625 0q-0.015625 0.484375 -0.328125 0.921875q-0.3125 0.4375 -0.828125 0.703125q-0.5 0.265625 -1.078125 0.265625q-1.140625 0 -1.828125 -0.765625q-0.671875 -0.78125 -0.671875 -2.109375l0 -0.15625q0 -0.828125 0.296875 -1.46875q0.296875 -0.640625 0.859375 -0.984375q0.578125 -0.359375 1.34375 -0.359375q0.9375 0 1.5625 0.578125q0.640625 0.5625 0.671875 1.46875l-0.90625 0q-0.046875 -0.546875 -0.421875 -0.890625q-0.359375 -0.359375 -0.90625 -0.359375q-0.734375 0 -1.140625 0.53125q-0.40625 0.515625 -0.40625 1.515625l0 0.1875q0 0.96875 0.40625 1.5q0.40625 0.515625 1.140625 0.515625zm4.281006 -4.265625q0.640625 -0.78125 1.671875 -0.78125q1.78125 0 1.796875 2.015625l0 3.71875l-0.96875 0l0 -3.71875q0 -0.609375 -0.28125 -0.90625q-0.265625 -0.296875 -0.84375 -0.296875q-0.46875 0 -0.828125 0.25q-0.34375 0.25 -0.546875 0.65625l0 4.015625l-0.953125 0l0 -8.0l0.953125 0l0 3.046875zm4.8848877 6.46875l-0.546875 -0.375q0.484375 -0.6875 0.5 -1.40625l0 -0.875l0.953125 0l0 0.75q0 0.53125 -0.265625 1.046875q-0.25 0.53125 -0.640625 0.859375zm3.3417053 -1.515625l-1.0 0l0 -7.578125l1.0 0l0 7.578125zm1.8200836 0l0 -7.578125l2.140625 0q0.984375 0 1.75 0.4375q0.765625 0.4375 1.171875 1.25q0.421875 0.796875 0.421875 1.84375l0 0.484375q0 1.078125 -0.421875 1.890625q-0.40625 0.796875 -1.171875 1.234375q-0.765625 0.421875 -1.796875 0.4375l-2.09375 0zm1.0 -6.75l0 5.9375l1.046875 0q1.15625 0 1.796875 -0.71875q0.65625 -0.71875 0.65625 -2.046875l0 -0.4375q0 -1.296875 -0.609375 -2.015625q-0.609375 -0.71875 -1.71875 -0.71875l-1.171875 0zm9.253586 3.375l-3.4375 -1.359375l0 -0.984375l4.4375 1.96875l0 0.765625l-4.4375 1.96875l0 -1.0l3.4375 -1.359375z" fill-rule="nonzero"/><path fill="#000000" fill-opacity="0.0" d="m36.82546 173.24283l0 -52.220467l23.937008 0l0 52.220467z" fill-rule="evenodd"/><path fill="#000000" d="m44.955837 156.14981l5.5 -1.9375l-5.5 -1.9375l0 -2.046875l7.578125 0l0 1.5625l-2.078125 0l-3.5625 -0.15625l5.640625 2.046875l0 1.0625l-5.640625 2.046875l3.5625 -0.15625l2.078125 0l0 1.5625l-7.578125 0l0 -2.046875zm6.015625 -11.66275l0 2.734375l1.5625 0.515625l0 1.671875l-7.578125 -2.828125l0 -1.4375l7.578125 -2.84375l0 1.65625l-1.5625 0.53125zm-1.265625 2.3125l0 -1.890625l-2.828125 0.953125l2.828125 0.9375zm0.15625 -6.7638245l2.671875 0l0 1.5625l-7.578125 0l0 -2.953125q0 -0.859375 0.3125 -1.5q0.3125 -0.65625 0.890625 -1.0q0.578125 -0.359375 1.3125 -0.359375q1.109375 0 1.75 0.765625q0.640625 0.765625 0.640625 2.109375l0 1.375zm-1.265625 0l0 -1.390625q0 -0.625 -0.28125 -0.953125q-0.296875 -0.328125 -0.84375 -0.328125q-0.546875 0 -0.890625 0.328125q-0.34375 0.328125 -0.359375 0.90625l0 1.4375l2.375 0z" fill-rule="nonzero"/><path fill="#eeeeee" d="m32.351727 195.61693l186.98163 0l0 52.91339l-186.98163 0z" fill-rule="evenodd"/><path fill="#000000" fill-opacity="0.0" d="m55.72443 195.61693l0 52.91339m140.23622 -52.91339l0 52.91339" fill-rule="evenodd"/><path fill="#000000" fill-opacity="0.0" d="m32.351727 195.61693l186.98163 0l0 52.91339l-186.98163 0z" fill-rule="evenodd"/><path stroke="#595959" stroke-width="1.0" stroke-linejoin="round" stroke-linecap="butt" d="m55.72443 195.61693l0 52.91339m140.23622 -52.91339l0 52.91339" fill-rule="evenodd"/><path stroke="#595959" stroke-width="1.0" stroke-linejoin="round" stroke-linecap="butt" d="m32.351727 195.61693l186.98163 0l0 52.91339l-186.98163 0z" fill-rule="evenodd"/><path fill="#000000" d="m86.71284 218.3605q-0.421875 0.5 -1.203125 0.78125q-0.765625 0.28125 -1.703125 0.28125q-0.984375 0 -1.71875 -0.421875q-0.734375 -0.4375 -1.140625 -1.25q-0.40625 -0.828125 -0.421875 -1.921875l0 -0.515625q0 -1.140625 0.375 -1.96875q0.390625 -0.828125 1.109375 -1.265625q0.71875 -0.453125 1.6875 -0.453125q1.359375 0 2.109375 0.65625q0.765625 0.640625 0.90625 1.859375l-1.515625 0q-0.109375 -0.640625 -0.46875 -0.9375q-0.359375 -0.3125 -0.984375 -0.3125q-0.796875 0 -1.21875 0.609375q-0.40625 0.59375 -0.40625 1.765625l0 0.484375q0 1.1875 0.453125 1.796875q0.453125 0.609375 1.328125 0.609375q0.875 0 1.25 -0.375l0 -1.296875l-1.421875 0l0 -1.15625l2.984375 0l0 3.03125zm4.0710297 -1.8125l-1.25 0l0 2.765625l-1.5625 0l0 -7.578125l2.8125 0q1.34375 0 2.078125 0.609375q0.734375 0.59375 0.734375 1.6875q0 0.765625 -0.34375 1.296875q-0.328125 0.515625 -1.015625 0.8125l1.640625 3.09375l0 0.078125l-1.671875 0l-1.421875 -2.765625zm-1.25 -1.265625l1.265625 0q0.578125 0 0.90625 -0.296875q0.328125 -0.3125 0.328125 -0.828125q0 -0.546875 -0.3125 -0.84375q-0.296875 -0.3125 -0.9375 -0.3125l-1.25 0l0 2.28125zm11.472519 0.421875q0 1.109375 -0.40625 1.953125q-0.390625 0.84375 -1.125 1.3125q-0.734375 0.453125 -1.6875 0.453125q-0.953125 0 -1.6875 -0.453125q-0.734375 -0.453125 -1.140625 -1.296875q-0.40625 -0.84375 -0.40625 -1.9375l0 -0.375q0 -1.109375 0.390625 -1.953125q0.40625 -0.859375 1.140625 -1.3125q0.734375 -0.46875 1.6875 -0.46875q0.953125 0 1.6875 0.46875q0.734375 0.453125 1.140625 1.3125q0.40625 0.84375 0.40625 1.953125l0 0.34375zm-1.59375 -0.34375q0 -1.203125 -0.421875 -1.8125q-0.421875 -0.625 -1.21875 -0.625q-0.78125 0 -1.21875 0.609375q-0.421875 0.609375 -0.421875 1.796875l0 0.375q0 1.15625 0.421875 1.796875q0.421875 0.640625 1.234375 0.640625q0.78125 0 1.203125 -0.609375q0.421875 -0.625 0.421875 -1.8125l0 -0.359375zm8.451141 -3.625l0 4.984375q0 1.25 -0.78125 1.984375q-0.765625 0.71875 -2.125 0.71875q-1.3125 0 -2.09375 -0.703125q-0.78125 -0.703125 -0.796875 -1.9375l0 -5.046875l1.5625 0l0 5.0q0 0.75 0.34375 1.09375q0.359375 0.328125 0.984375 0.328125q1.328125 0 1.34375 -1.375l0 -5.046875l1.5625 0zm2.842102 4.90625l0 2.671875l-1.5625 0l0 -7.578125l2.953125 0q0.859375 0 1.5 0.3125q0.65625 0.3125 1.0 0.890625q0.359375 0.578125 0.359375 1.3125q0 1.109375 -0.765625 1.75q-0.765625 0.640625 -2.109375 0.640625l-1.375 0zm0 -1.265625l1.390625 0q0.625 0 0.953125 -0.28125q0.328125 -0.296875 0.328125 -0.84375q0 -0.546875 -0.328125 -0.890625q-0.328125 -0.34375 -0.90625 -0.359375l-1.4375 0l0 2.375zm9.527145 1.265625l0 2.671875l-1.5625 0l0 -7.578125l2.953125 0q0.859375 0 1.5 0.3125q0.65625 0.3125 1.0 0.890625q0.359375 0.578125 0.359375 1.3125q0 1.109375 -0.765625 1.75q-0.765625 0.640625 -2.109375 0.640625l-1.375 0zm0 -1.265625l1.390625 0q0.625 0 0.953125 -0.28125q0.328125 -0.296875 0.328125 -0.84375q0 -0.546875 -0.328125 -0.890625q-0.328125 -0.34375 -0.90625 -0.359375l-1.4375 0l0 2.375zm6.9828644 3.9375l-1.5625 0l0 -7.578125l1.5625 0l0 7.578125zm7.387581 -2.53125q-0.09375 1.234375 -0.90625 1.9375q-0.8125 0.703125 -2.140625 0.703125q-1.453125 0 -2.296875 -0.984375q-0.828125 -0.984375 -0.828125 -2.6875l0 -0.46875q0 -1.09375 0.375 -1.921875q0.390625 -0.84375 1.109375 -1.28125q0.71875 -0.453125 1.65625 -0.453125q1.3125 0 2.109375 0.703125q0.8125 0.703125 0.9375 1.984375l-1.5625 0q-0.0625 -0.734375 -0.421875 -1.0625q-0.34375 -0.34375 -1.0625 -0.34375q-0.78125 0 -1.171875 0.5625q-0.375 0.5625 -0.390625 1.734375l0 0.578125q0 1.21875 0.359375 1.796875q0.375 0.5625 1.1875 0.5625q0.71875 0 1.078125 -0.328125q0.359375 -0.328125 0.40625 -1.03125l1.5625 0zm3.394226 -0.5l-0.8125 0.859375l0 2.171875l-1.5625 0l0 -7.578125l1.5625 0l0 3.4375l0.6875 -0.9375l1.9375 -2.5l1.921875 0l-2.703125 3.375l2.78125 4.203125l-1.859375 0l-1.953125 -3.03125zm5.951721 1.78125l3.3125 0l0 1.25l-4.875 0l0 -7.578125l1.5625 0l0 6.328125zm8.770401 -2.03125l-3.0 0l0 2.03125l3.515625 0l0 1.25l-5.078125 0l0 -7.578125l5.078125 0l0 1.265625l-3.515625 0l0 1.8125l3.0 0l0 1.21875zm5.7571716 3.28125l-1.5625 0l0 -7.578125l1.5625 0l0 7.578125zm1.4344635 0l0 -7.578125l2.328125 0q1.0 0 1.78125 0.453125q0.796875 0.453125 1.234375 1.28125q0.453125 0.828125 0.453125 1.890625l0 0.34375q0 1.046875 -0.4375 1.875q-0.4375 0.828125 -1.234375 1.28125q-0.78125 0.453125 -1.78125 0.453125l-2.34375 0zm1.5625 -6.3125l0 5.0625l0.75 0q0.921875 0 1.40625 -0.59375q0.484375 -0.609375 0.5 -1.71875l0 -0.40625q0 -1.15625 -0.484375 -1.75q-0.484375 -0.59375 -1.40625 -0.59375l-0.765625 0zm8.316147 4.75q0 -0.265625 -0.28125 -0.421875q-0.265625 -0.171875 -0.859375 -0.296875q-2.015625 -0.40625 -2.015625 -1.703125q0 -0.75 0.625 -1.25q0.625 -0.5 1.625 -0.5q1.0625 0 1.703125 0.515625q0.65625 0.5 0.65625 1.296875l-1.515625 0q0 -0.3125 -0.203125 -0.515625q-0.203125 -0.21875 -0.65625 -0.21875q-0.375 0 -0.578125 0.171875q-0.203125 0.171875 -0.203125 0.4375q0 0.25 0.234375 0.40625q0.234375 0.140625 0.796875 0.265625q0.5625 0.109375 0.9375 0.25q1.203125 0.4375 1.203125 1.5q0 0.78125 -0.671875 1.265625q-0.65625 0.46875 -1.703125 0.46875q-0.703125 0 -1.25 -0.25q-0.546875 -0.265625 -0.859375 -0.703125q-0.3125 -0.4375 -0.3125 -0.953125l1.421875 0q0.015625 0.40625 0.296875 0.625q0.28125 0.203125 0.734375 0.203125q0.4375 0 0.65625 -0.15625q0.21875 -0.171875 0.21875 -0.4375z" fill-rule="nonzero"/><path fill="#000000" d="m77.79863 228.798l-0.921875 0.953125l0 2.5625l-1.0 0l0 -7.578125l1.0 0l0 3.75l3.375 -3.75l1.203125 0l-2.984375 3.34375l3.21875 4.234375l-1.203125 0l-2.6875 -3.515625zm7.274719 2.1875l2.15625 -6.25l1.09375 0l-2.8125 7.578125l-0.875 0l-2.8125 -7.578125l1.09375 0l2.15625 6.25zm4.764206 -2.015625l3.25 1.3125l0 1.015625l-4.25 -1.96875l0 -0.765625l4.25 -1.96875l0 1.03125l-3.25 1.34375zm9.19783 -0.15625l-3.28125 0l0 2.6875l3.8125 0l0 0.8125l-4.8125 0l0 -7.578125l4.765625 0l0 0.828125l-3.765625 0l0 2.4375l3.28125 0l0 0.8125zm6.3847046 0.75q0 1.28125 -0.59375 2.078125q-0.578125 0.78125 -1.59375 0.78125q-1.015625 0 -1.609375 -0.65625l0 2.71875l-0.953125 0l0 -7.796875l0.875 0l0.046875 0.625q0.59375 -0.734375 1.625 -0.734375q1.015625 0 1.609375 0.765625q0.59375 0.765625 0.59375 2.125l0 0.09375zm-0.96875 -0.109375q0 -0.953125 -0.40625 -1.5q-0.40625 -0.5625 -1.109375 -0.5625q-0.875 0 -1.3125 0.78125l0 2.6875q0.4375 0.765625 1.328125 0.765625q0.6875 0 1.09375 -0.546875q0.40625 -0.546875 0.40625 -1.625zm1.9316559 0q0 -0.828125 0.328125 -1.484375q0.328125 -0.671875 0.90625 -1.03125q0.578125 -0.359375 1.328125 -0.359375q1.140625 0 1.84375 0.796875q0.71875 0.796875 0.71875 2.125l0 0.0625q0 0.8125 -0.3125 1.46875q-0.3125 0.65625 -0.90625 1.03125q-0.578125 0.359375 -1.34375 0.359375q-1.140625 0 -1.859375 -0.796875q-0.703125 -0.796875 -0.703125 -2.109375l0 -0.0625zm0.96875 0.109375q0 0.9375 0.4375 1.5q0.4375 0.5625 1.15625 0.5625q0.734375 0 1.171875 -0.5625q0.4375 -0.578125 0.4375 -1.609375q0 -0.9375 -0.453125 -1.5q-0.4375 -0.578125 -1.15625 -0.578125q-0.71875 0 -1.15625 0.5625q-0.4375 0.5625 -0.4375 1.625zm7.6242676 2.0625q0.515625 0 0.890625 -0.3125q0.390625 -0.3125 0.4375 -0.78125l0.90625 0q-0.015625 0.484375 -0.328125 0.921875q-0.3125 0.4375 -0.828125 0.703125q-0.5 0.265625 -1.078125 0.265625q-1.140625 0 -1.828125 -0.765625q-0.671875 -0.78125 -0.671875 -2.109375l0 -0.15625q0 -0.828125 0.296875 -1.46875q0.296875 -0.640625 0.859375 -0.984375q0.578125 -0.359375 1.34375 -0.359375q0.9375 0 1.5625 0.578125q0.640625 0.5625 0.671875 1.46875l-0.90625 0q-0.046875 -0.546875 -0.421875 -0.890625q-0.359375 -0.359375 -0.90625 -0.359375q-0.734375 0 -1.140625 0.53125q-0.40625 0.515625 -0.40625 1.515625l0 0.1875q0 0.96875 0.40625 1.5q0.40625 0.515625 1.140625 0.515625zm4.281006 -4.265625q0.640625 -0.78125 1.671875 -0.78125q1.78125 0 1.796875 2.015625l0 3.71875l-0.96875 0l0 -3.71875q0 -0.609375 -0.28125 -0.90625q-0.265625 -0.296875 -0.84375 -0.296875q-0.46875 0 -0.828125 0.25q-0.34375 0.25 -0.546875 0.65625l0 4.015625l-0.953125 0l0 -8.0l0.953125 0l0 3.046875zm4.8848877 6.46875l-0.546875 -0.375q0.484375 -0.6875 0.5 -1.40625l0 -0.875l0.953125 0l0 0.75q0 0.53125 -0.265625 1.046875q-0.25 0.53125 -0.640625 0.859375zm6.4510803 -3.5l-3.171875 0l-0.71875 1.984375l-1.03125 0l2.890625 -7.578125l0.875 0l2.90625 7.578125l-1.03125 0l-0.71875 -1.984375zm-2.875 -0.8125l2.578125 0l-1.296875 -3.546875l-1.28125 3.546875zm8.217163 -1.96875q-0.21875 -0.03125 -0.484375 -0.03125q-0.9375 0 -1.28125 0.796875l0 4.0l-0.953125 0l0 -5.625l0.9375 0l0.015625 0.640625q0.46875 -0.75 1.328125 -0.75q0.28125 0 0.4375 0.078125l0 0.890625zm3.6058502 0q-0.21875 -0.03125 -0.484375 -0.03125q-0.9375 0 -1.28125 0.796875l0 4.0l-0.953125 0l0 -5.625l0.9375 0l0.015625 0.640625q0.46875 -0.75 1.328125 -0.75q0.28125 0 0.4375 0.078125l0 0.890625zm4.147522 4.765625q-0.078125 -0.171875 -0.140625 -0.59375q-0.671875 0.703125 -1.59375 0.703125q-0.828125 0 -1.375 -0.46875q-0.53125 -0.484375 -0.53125 -1.203125q0 -0.875 0.671875 -1.359375q0.671875 -0.484375 1.875 -0.484375l0.9375 0l0 -0.453125q0 -0.5 -0.296875 -0.796875q-0.296875 -0.296875 -0.890625 -0.296875q-0.515625 0 -0.859375 0.265625q-0.34375 0.25 -0.34375 0.625l-0.96875 0q0 -0.421875 0.296875 -0.8125q0.296875 -0.40625 0.8125 -0.625q0.515625 -0.234375 1.125 -0.234375q0.96875 0 1.515625 0.484375q0.5625 0.484375 0.578125 1.34375l0 2.59375q0 0.765625 0.203125 1.234375l0 0.078125l-1.015625 0zm-1.59375 -0.734375q0.453125 0 0.859375 -0.234375q0.40625 -0.234375 0.578125 -0.609375l0 -1.15625l-0.75 0q-1.765625 0 -1.765625 1.03125q0 0.453125 0.296875 0.71875q0.3125 0.25 0.78125 0.25zm5.687042 -0.671875l1.296875 -4.21875l1.03125 0l-2.25 6.5q-0.53125 1.40625 -1.671875 1.40625l-0.1875 -0.015625l-0.359375 -0.078125l0 -0.78125l0.265625 0.03125q0.484375 0 0.75 -0.203125q0.28125 -0.203125 0.453125 -0.71875l0.21875 -0.578125l-2.015625 -5.5625l1.0625 0l1.40625 4.21875zm3.8388214 -1.9375l3.25 1.3125l0 1.015625l-4.25 -1.96875l0 -0.765625l4.25 -1.96875l0 1.03125l-3.25 1.34375zm5.994705 3.34375l-1.0 0l0 -7.578125l1.0 0l0 7.578125zm1.8200836 0l0 -7.578125l2.140625 0q0.984375 0 1.75 0.4375q0.765625 0.4375 1.171875 1.25q0.421875 0.796875 0.421875 1.84375l0 0.484375q0 1.078125 -0.421875 1.890625q-0.40625 0.796875 -1.171875 1.234375q-0.765625 0.421875 -1.796875 0.4375l-2.09375 0zm1.0 -6.75l0 5.9375l1.046875 0q1.15625 0 1.796875 -0.71875q0.65625 -0.71875 0.65625 -2.046875l0 -0.4375q0 -1.296875 -0.609375 -2.015625q-0.609375 -0.71875 -1.71875 -0.71875l-1.171875 0zm9.253586 3.375l-3.4375 -1.359375l0 -0.984375l4.4375 1.96875l0 0.765625l-4.4375 1.96875l0 -1.0l3.4375 -1.359375zm5.5674744 0l-3.4375 -1.359375l0 -0.984375l4.4375 1.96875l0 0.765625l-4.4375 1.96875l0 -1.0l3.4375 -1.359375z" fill-rule="nonzero"/><path fill="#000000" fill-opacity="0.0" d="m32.350395 248.18378l0 -52.220474l23.937008 0l0 52.220474z" fill-rule="evenodd"/><path fill="#000000" d="m45.293274 238.43956l0 1.25l2.765625 0l0 1.5625l-7.578125 0l0 -2.8125q0 -1.34375 0.609375 -2.078125q0.59375 -0.734375 1.6875 -0.734375q0.765625 0 1.296875 0.34375q0.515625 0.328125 0.8125 1.015625l3.09375 -1.640625l0.078125 0l0 1.671875l-2.765625 1.421875zm-1.265625 1.25l0 -1.265625q0 -0.578125 -0.296875 -0.90625q-0.3125 -0.328125 -0.828125 -0.328125q-0.546875 0 -0.84375 0.3125q-0.3125 0.296875 -0.3125 0.9375l0 1.25l2.28125 0zm0.75 -9.800644l0 3.0l2.03125 0l0 -3.515625l1.25 0l0 5.078125l-7.578125 0l0 -5.078125l1.265625 0l0 3.515625l1.8125 0l0 -3.0l1.21875 0zm3.28125 -1.4316406l-7.578125 0l0 -2.328125q0 -1.0 0.453125 -1.78125q0.453125 -0.796875 1.28125 -1.234375q0.828125 -0.453125 1.890625 -0.453125l0.34375 0q1.046875 0 1.875 0.4375q0.828125 0.4375 1.28125 1.234375q0.453125 0.78125 0.453125 1.78125l0 2.34375zm-6.3125 -1.5625l5.0625 0l0 -0.75q0 -0.921875 -0.59375 -1.40625q-0.609375 -0.484375 -1.71875 -0.5l-0.40625 0q-1.15625 0 -1.75 0.484375q-0.59375 0.484375 -0.59375 1.40625l0 0.765625zm-1.265625 -11.097397l4.984375 0q1.25 0 1.984375 0.78125q0.71875 0.765625 0.71875 2.125q0 1.3125 -0.703125 2.09375q-0.703125 0.78125 -1.9375 0.796875l-5.046875 0l0 -1.5625l5.0 0q0.75 0 1.09375 -0.34375q0.328125 -0.359375 0.328125 -0.984375q0 -1.328125 -1.375 -1.34375l-5.046875 0l0 -1.5625zm5.046875 -7.232727q1.234375 0.09375 1.9375 0.90625q0.703125 0.8125 0.703125 2.140625q0 1.453125 -0.984375 2.296875q-0.984375 0.828125 -2.6875 0.828125l-0.46875 0q-1.09375 0 -1.921875 -0.375q-0.84375 -0.390625 -1.28125 -1.109375q-0.453125 -0.71875 -0.453125 -1.65625q0 -1.3125 0.703125 -2.109375q0.703125 -0.8125 1.984375 -0.9375l0 1.5625q-0.734375 0.0625 -1.0625 0.421875q-0.34375 0.34375 -0.34375 1.0625q0 0.78125 0.5625 1.171875q0.5625 0.375 1.734375 0.390625l0.578125 0q1.21875 0 1.796875 -0.359375q0.5625 -0.375 0.5625 -1.1875q0 -0.71875 -0.328125 -1.078125q-0.328125 -0.359375 -1.03125 -0.40625l0 -1.5625zm-0.75 -5.581726l0 3.0l2.03125 0l0 -3.515625l1.25 0l0 5.078125l-7.578125 0l0 -5.078125l1.265625 0l0 3.515625l1.8125 0l0 -3.0l1.21875 0z" fill-rule="nonzero"/><path fill="#000000" fill-opacity="0.0" d="m221.78087 289.4555l20.929123 0l0 0.06298828l20.929138 0" fill-rule="evenodd"/><path stroke="#595959" stroke-width="1.0" stroke-linejoin="round" stroke-linecap="butt" d="m221.78085 289.45554l20.929138 0l0 0.06298828l17.502045 0" fill-rule="evenodd"/><path fill="#595959" stroke="#595959" stroke-width="1.0" stroke-linecap="butt" d="m260.21204 289.51852l-1.1245728 1.1245728l3.0897522 -1.1245728l-3.0897522 -1.1246033z" fill-rule="evenodd"/><path fill="#000000" fill-opacity="0.0" d="m223.80711 147.13268l24.999527 0l0 37.64366l-241.45596 0l0 37.285477l24.991869 0" fill-rule="evenodd"/><path stroke="#595959" stroke-width="1.0" stroke-linejoin="round" stroke-linecap="butt" d="m223.80711 147.13268l24.999527 0l0 37.643646l-241.45596 0l0 37.285507l21.564785 0" fill-rule="evenodd"/><path fill="#595959" stroke="#595959" stroke-width="1.0" stroke-linecap="butt" d="m28.915457 222.06183l-1.1245842 1.1245728l3.0897675 -1.1245728l-3.0897675 -1.124588z" fill-rule="evenodd"/><path fill="#000000" fill-opacity="0.0" d="m142.4252 32.503937l0 19.617363l-130.60014 0l0 94.9968l24.993843 0" fill-rule="evenodd"/><path stroke="#595959" stroke-width="1.0" stroke-linejoin="round" stroke-linecap="butt" d="m142.4252 32.503937l0 19.617363l-130.60014 0l0 94.9968l21.566757 0" fill-rule="evenodd"/><path fill="#595959" stroke="#595959" stroke-width="1.0" stroke-linecap="butt" d="m33.39181 147.1181l-1.1245842 1.124588l3.0897675 -1.124588l-3.0897675 -1.1245728z" fill-rule="evenodd"/><path fill="#000000" fill-opacity="0.0" d="m52.101597 112.270805l120.44095 0l0 27.968498l-120.44095 0z" fill-rule="evenodd"/><path fill="#000000" d="m66.25784 128.0108l-3.2812462 0l0 2.6875l3.8124962 0l0 0.8125l-4.812496 0l0 -7.578125l4.765621 0l0 0.828125l-3.7656212 0l0 2.4375l3.2812462 0l0 0.8125zm6.3847046 0.75q0 1.28125 -0.59375 2.078125q-0.578125 0.78125 -1.59375 0.78125q-1.015625 0 -1.609375 -0.65625l0 2.71875l-0.953125 0l0 -7.796875l0.875 0l0.046875 0.625q0.59375 -0.734375 1.625 -0.734375q1.015625 0 1.609375 0.765625q0.59375 0.765625 0.59375 2.125l0 0.09375zm-0.96875 -0.109375q0 -0.953125 -0.40625 -1.5q-0.40625 -0.5625 -1.109375 -0.5625q-0.875 0 -1.3125 0.78125l0 2.6875q0.4375 0.765625 1.328125 0.765625q0.6875 0 1.09375 -0.546875q0.40625 -0.546875 0.40625 -1.625zm1.9316559 0q0 -0.828125 0.328125 -1.484375q0.328125 -0.671875 0.90625 -1.03125q0.578125 -0.359375 1.328125 -0.359375q1.140625 0 1.84375 0.796875q0.71875 0.796875 0.71875 2.125l0 0.0625q0 0.8125 -0.3125 1.46875q-0.3125 0.65625 -0.90625 1.03125q-0.578125 0.359375 -1.34375 0.359375q-1.140625 0 -1.859375 -0.796875q-0.703125 -0.796875 -0.703125 -2.109375l0 -0.0625zm0.96875 0.109375q0 0.9375 0.4375 1.5q0.4375 0.5625 1.15625 0.5625q0.734375 0 1.171875 -0.5625q0.4375 -0.578125 0.4375 -1.609375q0 -0.9375 -0.453125 -1.5q-0.4375 -0.578125 -1.15625 -0.578125q-0.71875 0 -1.15625 0.5625q-0.4375 0.5625 -0.4375 1.625zm7.6242676 2.0625q0.515625 0 0.890625 -0.3125q0.390625 -0.3125 0.4375 -0.78125l0.90625 0q-0.015625 0.484375 -0.328125 0.921875q-0.3125 0.4375 -0.828125 0.703125q-0.5 0.265625 -1.078125 0.265625q-1.140625 0 -1.828125 -0.765625q-0.671875 -0.78125 -0.671875 -2.109375l0 -0.15625q0 -0.828125 0.296875 -1.46875q0.296875 -0.640625 0.859375 -0.984375q0.578125 -0.359375 1.34375 -0.359375q0.9375 0 1.5625 0.578125q0.640625 0.5625 0.671875 1.46875l-0.90625 0q-0.046875 -0.546875 -0.421875 -0.890625q-0.359375 -0.359375 -0.90625 -0.359375q-0.734375 0 -1.140625 0.53125q-0.40625 0.515625 -0.40625 1.515625l0 0.1875q0 0.96875 0.40625 1.5q0.40625 0.515625 1.140625 0.515625zm4.281006 -4.265625q0.640625 -0.78125 1.671875 -0.78125q1.78125 0 1.796875 2.015625l0 3.71875l-0.96875 0l0 -3.71875q0 -0.609375 -0.28125 -0.90625q-0.265625 -0.296875 -0.84375 -0.296875q-0.46875 0 -0.828125 0.25q-0.34375 0.25 -0.546875 0.65625l0 4.015625l-0.953125 0l0 -8.0l0.953125 0l0 3.046875zm8.460434 -0.671875l0.03125 0.703125q0.640625 -0.8125 1.6875 -0.8125q1.78125 0 1.796875 2.015625l0 3.71875l-0.96875 0l0 -3.71875q0 -0.609375 -0.28125 -0.90625q-0.265625 -0.296875 -0.84375 -0.296875q-0.46875 0 -0.828125 0.25q-0.34375 0.25 -0.546875 0.65625l0 4.015625l-0.953125 0l0 -5.625l0.90625 0z" fill-rule="nonzero"/><path fill="#000000" fill-opacity="0.0" d="m52.102364 186.29866l120.44094 0l0 27.968506l-120.44094 0z" fill-rule="evenodd"/><path fill="#000000" d="m66.25861 202.03867l-3.28125 0l0 2.6875l3.8125 0l0 0.8125l-4.8125 0l0 -7.578125l4.765625 0l0 0.828125l-3.765625 0l0 2.4375l3.28125 0l0 0.8125zm6.3847046 0.75q0 1.28125 -0.59375 2.078125q-0.578125 0.78125 -1.59375 0.78125q-1.015625 0 -1.609375 -0.65625l0 2.71875l-0.953125 0l0 -7.796875l0.875 0l0.046875 0.625q0.59375 -0.734375 1.625 -0.734375q1.015625 0 1.609375 0.765625q0.59375 0.765625 0.59375 2.125l0 0.09375zm-0.96875 -0.109375q0 -0.953125 -0.40625 -1.5q-0.40625 -0.5625 -1.109375 -0.5625q-0.875 0 -1.3125 0.78125l0 2.6875q0.4375 0.765625 1.328125 0.765625q0.6875 0 1.09375 -0.546875q0.40625 -0.546875 0.40625 -1.625zm1.9316559 0q0 -0.828125 0.328125 -1.484375q0.328125 -0.671875 0.90625 -1.03125q0.578125 -0.359375 1.328125 -0.359375q1.140625 0 1.84375 0.796875q0.71875 0.796875 0.71875 2.125l0 0.0625q0 0.8125 -0.3125 1.46875q-0.3125 0.65625 -0.90625 1.03125q-0.578125 0.359375 -1.34375 0.359375q-1.140625 0 -1.859375 -0.796875q-0.703125 -0.796875 -0.703125 -2.109375l0 -0.0625zm0.96875 0.109375q0 0.9375 0.4375 1.5q0.4375 0.5625 1.15625 0.5625q0.734375 0 1.171875 -0.5625q0.4375 -0.578125 0.4375 -1.609375q0 -0.9375 -0.453125 -1.5q-0.4375 -0.578125 -1.15625 -0.578125q-0.71875 0 -1.15625 0.5625q-0.4375 0.5625 -0.4375 1.625zm7.6242676 2.0625q0.515625 0 0.890625 -0.3125q0.390625 -0.3125 0.4375 -0.78125l0.90625 0q-0.015625 0.484375 -0.328125 0.921875q-0.3125 0.4375 -0.828125 0.703125q-0.5 0.265625 -1.078125 0.265625q-1.140625 0 -1.828125 -0.765625q-0.671875 -0.78125 -0.671875 -2.109375l0 -0.15625q0 -0.828125 0.296875 -1.46875q0.296875 -0.640625 0.859375 -0.984375q0.578125 -0.359375 1.34375 -0.359375q0.9375 0 1.5625 0.578125q0.640625 0.5625 0.671875 1.46875l-0.90625 0q-0.046875 -0.546875 -0.421875 -0.890625q-0.359375 -0.359375 -0.90625 -0.359375q-0.734375 0 -1.140625 0.53125q-0.40625 0.515625 -0.40625 1.515625l0 0.1875q0 0.96875 0.40625 1.5q0.40625 0.515625 1.140625 0.515625zm4.281006 -4.265625q0.640625 -0.78125 1.671875 -0.78125q1.78125 0 1.796875 2.015625l0 3.71875l-0.96875 0l0 -3.71875q0 -0.609375 -0.28125 -0.90625q-0.265625 -0.296875 -0.84375 -0.296875q-0.46875 0 -0.828125 0.25q-0.34375 0.25 -0.546875 0.65625l0 4.015625l-0.953125 0l0 -8.0l0.953125 0l0 3.046875zm8.460434 -0.671875l0.03125 0.703125q0.640625 -0.8125 1.6875 -0.8125q1.78125 0 1.796875 2.015625l0 3.71875l-0.96875 0l0 -3.71875q0 -0.609375 -0.28125 -0.90625q-0.265625 -0.296875 -0.84375 -0.296875q-0.46875 0 -0.828125 0.25q-0.34375 0.25 -0.546875 0.65625l0 4.015625l-0.953125 0l0 -5.625l0.90625 0z" fill-rule="nonzero"/><path fill="#000000" fill-opacity="0.0" d="m52.102364 253.44357l120.44094 0l0 27.968506l-120.44094 0z" fill-rule="evenodd"/><path fill="#000000" d="m66.25861 269.18356l-3.28125 0l0 2.6875l3.8125 0l0 0.8125l-4.8125 0l0 -7.578125l4.765625 0l0 0.828125l-3.765625 0l0 2.4375l3.28125 0l0 0.8125zm6.3847046 0.75q0 1.28125 -0.59375 2.078125q-0.578125 0.78125 -1.59375 0.78125q-1.015625 0 -1.609375 -0.65625l0 2.71875l-0.953125 0l0 -7.796875l0.875 0l0.046875 0.625q0.59375 -0.734375 1.625 -0.734375q1.015625 0 1.609375 0.765625q0.59375 0.765625 0.59375 2.125l0 0.09375zm-0.96875 -0.109375q0 -0.953125 -0.40625 -1.5q-0.40625 -0.5625 -1.109375 -0.5625q-0.875 0 -1.3125 0.78125l0 2.6875q0.4375 0.765625 1.328125 0.765625q0.6875 0 1.09375 -0.546875q0.40625 -0.546875 0.40625 -1.625zm1.9316559 0q0 -0.828125 0.328125 -1.484375q0.328125 -0.671875 0.90625 -1.03125q0.578125 -0.359375 1.328125 -0.359375q1.140625 0 1.84375 0.796875q0.71875 0.796875 0.71875 2.125l0 0.0625q0 0.8125 -0.3125 1.46875q-0.3125 0.65625 -0.90625 1.03125q-0.578125 0.359375 -1.34375 0.359375q-1.140625 0 -1.859375 -0.796875q-0.703125 -0.796875 -0.703125 -2.109375l0 -0.0625zm0.96875 0.109375q0 0.9375 0.4375 1.5q0.4375 0.5625 1.15625 0.5625q0.734375 0 1.171875 -0.5625q0.4375 -0.578125 0.4375 -1.609375q0 -0.9375 -0.453125 -1.5q-0.4375 -0.578125 -1.15625 -0.578125q-0.71875 0 -1.15625 0.5625q-0.4375 0.5625 -0.4375 1.625zm7.6242676 2.0625q0.515625 0 0.890625 -0.3125q0.390625 -0.3125 0.4375 -0.78125l0.90625 0q-0.015625 0.484375 -0.328125 0.921875q-0.3125 0.4375 -0.828125 0.703125q-0.5 0.265625 -1.078125 0.265625q-1.140625 0 -1.828125 -0.765625q-0.671875 -0.78125 -0.671875 -2.109375l0 -0.15625q0 -0.828125 0.296875 -1.46875q0.296875 -0.640625 0.859375 -0.984375q0.578125 -0.359375 1.34375 -0.359375q0.9375 0 1.5625 0.578125q0.640625 0.5625 0.671875 1.46875l-0.90625 0q-0.046875 -0.546875 -0.421875 -0.890625q-0.359375 -0.359375 -0.90625 -0.359375q-0.734375 0 -1.140625 0.53125q-0.40625 0.515625 -0.40625 1.515625l0 0.1875q0 0.96875 0.40625 1.5q0.40625 0.515625 1.140625 0.515625zm4.281006 -4.265625q0.640625 -0.78125 1.671875 -0.78125q1.78125 0 1.796875 2.015625l0 3.71875l-0.96875 0l0 -3.71875q0 -0.609375 -0.28125 -0.90625q-0.265625 -0.296875 -0.84375 -0.296875q-0.46875 0 -0.828125 0.25q-0.34375 0.25 -0.546875 0.65625l0 4.015625l-0.953125 0l0 -8.0l0.953125 0l0 3.046875zm8.460434 -0.671875l0.03125 0.703125q0.640625 -0.8125 1.6875 -0.8125q1.78125 0 1.796875 2.015625l0 3.71875l-0.96875 0l0 -3.71875q0 -0.609375 -0.28125 -0.90625q-0.265625 -0.296875 -0.84375 -0.296875q-0.46875 0 -0.828125 0.25q-0.34375 0.25 -0.546875 0.65625l0 4.015625l-0.953125 0l0 -5.625l0.90625 0z" fill-rule="nonzero"/><path fill="#ffffff" d="m73.58935 62.51181l137.66928 0l0 28.157478l-137.66928 0z" fill-rule="evenodd"/><path stroke="#000000" stroke-width="1.0" stroke-linejoin="round" stroke-linecap="butt" stroke-dasharray="1.0,3.0" d="m73.58935 62.51181l137.66928 0l0 28.157478l-137.66928 0z" fill-rule="evenodd"/><path fill="#000000" d="m87.7456 78.25181l-3.28125 0l0 2.6875l3.8125 0l0 0.8125l-4.8125 0l0 -7.578125l4.765625 0l0 0.828125l-3.765625 0l0 2.4375l3.28125 0l0 0.8125zm6.3847046 0.75q0 1.28125 -0.59375 2.078125q-0.578125 0.78125 -1.59375 0.78125q-1.015625 0 -1.609375 -0.65625l0 2.71875l-0.953125 0l0 -7.796875l0.875 0l0.046875 0.625q0.59375 -0.734375 1.625 -0.734375q1.015625 0 1.609375 0.765625q0.59375 0.765625 0.59375 2.125l0 0.09375zm-0.96875 -0.109375q0 -0.953125 -0.40625 -1.5q-0.40625 -0.5625 -1.109375 -0.5625q-0.875 0 -1.3125 0.78125l0 2.6875q0.4375 0.765625 1.328125 0.765625q0.6875 0 1.09375 -0.546875q0.40625 -0.546875 0.40625 -1.625zm1.9316559 0q0 -0.828125 0.328125 -1.484375q0.328125 -0.671875 0.90625 -1.03125q0.578125 -0.359375 1.328125 -0.359375q1.140625 0 1.84375 0.796875q0.71875 0.796875 0.71875 2.125l0 0.0625q0 0.8125 -0.3125 1.46875q-0.3125 0.65625 -0.90625 1.03125q-0.578125 0.359375 -1.34375 0.359375q-1.140625 0 -1.859375 -0.796875q-0.703125 -0.796875 -0.703125 -2.109375l0 -0.0625zm0.96875 0.109375q0 0.9375 0.4375 1.5q0.4375 0.5625 1.15625 0.5625q0.734375 0 1.171875 -0.5625q0.4375 -0.578125 0.4375 -1.609375q0 -0.9375 -0.453125 -1.5q-0.4375 -0.578125 -1.15625 -0.578125q-0.71875 0 -1.15625 0.5625q-0.4375 0.5625 -0.4375 1.625zm7.6242676 2.0625q0.515625 0 0.890625 -0.3125q0.390625 -0.3125 0.4375 -0.78125l0.90625 0q-0.015625 0.484375 -0.328125 0.921875q-0.3125 0.4375 -0.828125 0.703125q-0.5 0.265625 -1.078125 0.265625q-1.140625 0 -1.828125 -0.765625q-0.671875 -0.78125 -0.671875 -2.109375l0 -0.15625q0 -0.828125 0.296875 -1.46875q0.296875 -0.640625 0.859375 -0.984375q0.578125 -0.359375 1.34375 -0.359375q0.9375 0 1.5625 0.578125q0.640625 0.5625 0.671875 1.46875l-0.90625 0q-0.046875 -0.546875 -0.421875 -0.890625q-0.359375 -0.359375 -0.90625 -0.359375q-0.734375 0 -1.140625 0.53125q-0.40625 0.515625 -0.40625 1.515625l0 0.1875q0 0.96875 0.40625 1.5q0.40625 0.515625 1.140625 0.515625zm4.281006 -4.265625q0.640625 -0.78125 1.671875 -0.78125q1.78125 0 1.796875 2.015625l0 3.71875l-0.96875 0l0 -3.71875q0 -0.609375 -0.28125 -0.90625q-0.265625 -0.296875 -0.84375 -0.296875q-0.46875 0 -0.828125 0.25q-0.34375 0.25 -0.546875 0.65625l0 4.015625l-0.953125 0l0 -8.0l0.953125 0l0 3.046875zm8.460434 -0.671875l0.03125 0.703125q0.640625 -0.8125 1.6875 -0.8125q1.78125 0 1.796875 2.015625l0 3.71875l-0.96875 0l0 -3.71875q0 -0.609375 -0.28125 -0.90625q-0.265625 -0.296875 -0.84375 -0.296875q-0.46875 0 -0.828125 0.25q-0.34375 0.25 -0.546875 0.65625l0 4.015625l-0.953125 0l0 -5.625l0.90625 0z" fill-rule="nonzero"/><path fill="#000000" fill-opacity="0.0" d="m86.50394 0l111.842514 0l0 32.503937l-111.842514 0z" fill-rule="evenodd"/><path stroke="#595959" stroke-width="2.0" stroke-linejoin="round" stroke-linecap="butt" stroke-dasharray="2.0,6.0" d="m86.50394 0l111.842514 0l0 32.503937l-111.842514 0z" fill-rule="evenodd"/><path fill="#000000" d="m110.73191 18.3625q0 1.609375 -0.734375 2.59375q-0.734375 0.96875 -2.0 0.96875q-1.28125 0 -2.015625 -0.8125l0 3.390625l-1.203125 0l0 -9.75l1.109375 0l0.046875 0.78125q0.75 -0.90625 2.046875 -0.90625q1.265625 0 2.0 0.953125q0.75 0.953125 0.75 2.671875l0 0.109375zm-1.203125 -0.140625q0 -1.1875 -0.515625 -1.875q-0.5 -0.703125 -1.390625 -0.703125q-1.09375 0 -1.640625 0.96875l0 3.375q0.546875 0.953125 1.65625 0.953125q0.875 0 1.375 -0.671875q0.515625 -0.6875 0.515625 -2.046875zm4.0400543 3.578125l-1.203125 0l0 -7.046875l1.203125 0l0 7.046875zm-1.296875 -8.90625q0 -0.296875 0.171875 -0.5q0.1875 -0.203125 0.53125 -0.203125q0.359375 0 0.53125 0.203125q0.1875 0.203125 0.1875 0.5q0 0.296875 -0.1875 0.5q-0.171875 0.1875 -0.53125 0.1875q-0.34375 0 -0.53125 -0.1875q-0.171875 -0.203125 -0.171875 -0.5zm6.046921 8.046875q0.640625 0 1.125 -0.390625q0.484375 -0.390625 0.53125 -0.96875l1.140625 0q-0.03125 0.609375 -0.421875 1.15625q-0.375 0.546875 -1.015625 0.875q-0.640625 0.3125 -1.359375 0.3125q-1.4375 0 -2.296875 -0.953125q-0.84375 -0.96875 -0.84375 -2.625l0 -0.203125q0 -1.03125 0.375 -1.828125q0.390625 -0.796875 1.09375 -1.234375q0.703125 -0.453125 1.671875 -0.453125q1.171875 0 1.953125 0.71875q0.796875 0.703125 0.84375 1.828125l-1.140625 0q-0.046875 -0.671875 -0.515625 -1.109375q-0.46875 -0.453125 -1.140625 -0.453125q-0.921875 0 -1.4375 0.671875q-0.5 0.65625 -0.5 1.90625l0 0.21875q0 1.21875 0.5 1.875q0.515625 0.65625 1.4375 0.65625zm6.1170654 -2.40625l-0.75 0.796875l0 2.46875l-1.203125 0l0 -10.0l1.203125 0l0 6.046875l0.640625 -0.765625l2.1875 -2.328125l1.46875 0l-2.734375 2.953125l3.0468674 4.09375l-1.4062424 0l-2.453125 -3.265625zm6.098915 3.265625l-1.203125 0l0 -10.0l1.203125 0l0 10.0zm4.843796 0.125q-1.421875 0 -2.328125 -0.9375q-0.890625 -0.9375 -0.890625 -2.515625l0 -0.21875q0 -1.046875 0.390625 -1.859375q0.40625 -0.828125 1.125 -1.296875q0.71875 -0.46875 1.5625 -0.46875q1.375 0 2.125 0.90625q0.765625 0.90625 0.765625 2.59375l0 0.5l-4.765625 0q0.015625 1.03125 0.59375 1.671875q0.59375 0.640625 1.484375 0.640625q0.640625 0 1.078125 -0.25q0.453125 -0.265625 0.78125 -0.6875l0.734375 0.5625q-0.875 1.359375 -2.65625 1.359375zm-0.140625 -6.3125q-0.734375 0 -1.234375 0.53125q-0.484375 0.53125 -0.609375 1.484375l3.53125 0l0 -0.078125q-0.046875 -0.921875 -0.5 -1.421875q-0.4375 -0.515625 -1.1875 -0.515625zm11.74855 6.1875l-1.25 0l-4.765625 -7.296875l0 7.296875l-1.265625 0l0 -9.46875l1.265625 0l4.78125 7.328125l0 -7.328125l1.234375 0l0 9.46875zm6.3921204 0q-0.109375 -0.203125 -0.171875 -0.734375q-0.84375 0.859375 -2.015625 0.859375q-1.03125 0 -1.703125 -0.578125q-0.671875 -0.59375 -0.671875 -1.5q0 -1.09375 0.828125 -1.703125q0.84375 -0.609375 2.359375 -0.609375l1.171875 0l0 -0.5625q0 -0.625 -0.375 -1.0q-0.375 -0.375 -1.109375 -0.375q-0.640625 0 -1.078125 0.328125q-0.4375 0.328125 -0.4375 0.78125l-1.203125 0q0 -0.515625 0.359375 -1.0q0.375 -0.5 1.015625 -0.78125q0.65625 -0.296875 1.421875 -0.296875q1.21875 0 1.90625 0.609375q0.6875 0.609375 0.71875 1.671875l0 3.25q0 0.96875 0.234375 1.53125l0 0.109375l-1.25 0zm-2.0 -0.921875q0.5625 0 1.0625 -0.28125q0.515625 -0.296875 0.734375 -0.765625l0 -1.453125l-0.9375 0q-2.21875 0 -2.21875 1.296875q0 0.5625 0.375 0.890625q0.390625 0.3125 0.984375 0.3125zm6.031021 -6.125l0.03125 0.78125q0.765625 -0.90625 2.09375 -0.90625q1.46875 0 2.0 1.125q0.359375 -0.5 0.921875 -0.8125q0.5625 -0.3125 1.328125 -0.3125q2.3125 0 2.359375 2.453125l0 4.71875l-1.203125 0l0 -4.640625q0 -0.765625 -0.34375 -1.140625q-0.34375 -0.375 -1.171875 -0.375q-0.65625 0 -1.109375 0.40625q-0.4375 0.40625 -0.515625 1.078125l0 4.671875l-1.203125 0l0 -4.609375q0 -1.546875 -1.5 -1.546875q-1.1875 0 -1.625 1.015625l0 5.140625l-1.203125 0l0 -7.046875l1.140625 0zm13.462891 7.171875q-1.421875 0 -2.328125 -0.9375q-0.890625 -0.9375 -0.890625 -2.515625l0 -0.21875q0 -1.046875 0.390625 -1.859375q0.40625 -0.828125 1.125 -1.296875q0.71875 -0.46875 1.5625 -0.46875q1.375 0 2.125 0.90625q0.765625 0.90625 0.765625 2.59375l0 0.5l-4.765625 0q0.015625 1.03125 0.59375 1.671875q0.59375 0.640625 1.484375 0.640625q0.640625 0 1.078125 -0.25q0.453125 -0.265625 0.78125 -0.6875l0.734375 0.5625q-0.875 1.359375 -2.65625 1.359375zm-0.140625 -6.3125q-0.734375 0 -1.234375 0.53125q-0.484375 0.53125 -0.609375 1.484375l3.53125 0l0 -0.078125q-0.046875 -0.921875 -0.5 -1.421875q-0.4375 -0.515625 -1.1875 -0.515625zm8.389175 4.3125q0 -0.484375 -0.375 -0.75q-0.359375 -0.265625 -1.28125 -0.453125q-0.90625 -0.203125 -1.453125 -0.46875q-0.53125 -0.28125 -0.796875 -0.65625q-0.25 -0.390625 -0.25 -0.90625q0 -0.859375 0.734375 -1.453125q0.734375 -0.609375 1.875 -0.609375q1.1875 0 1.9375 0.625q0.75 0.609375 0.75 1.578125l-1.21875 0q0 -0.5 -0.421875 -0.859375q-0.421875 -0.359375 -1.046875 -0.359375q-0.65625 0 -1.03125 0.296875q-0.375 0.28125 -0.375 0.75q0 0.421875 0.34375 0.65625q0.34375 0.21875 1.25 0.421875q0.90625 0.203125 1.453125 0.484375q0.5625 0.265625 0.828125 0.671875q0.28125 0.390625 0.28125 0.953125q0 0.9375 -0.765625 1.515625q-0.75 0.5625 -1.953125 0.5625q-0.84375 0 -1.5 -0.296875q-0.640625 -0.296875 -1.015625 -0.828125q-0.359375 -0.546875 -0.359375 -1.171875l1.203125 0q0.03125 0.609375 0.484375 0.96875q0.453125 0.34375 1.1875 0.34375q0.6875 0 1.09375 -0.265625q0.421875 -0.28125 0.421875 -0.75z" fill-rule="nonzero"/><path fill="#000000" fill-opacity="0.0" d="m260.97113 273.2047l111.84253 0l0 32.503937l-111.84253 0z" fill-rule="evenodd"/><path stroke="#595959" stroke-width="2.0" stroke-linejoin="round" stroke-linecap="butt" stroke-dasharray="2.0,6.0" d="m260.97113 273.2047l111.84253 0l0 32.503937l-111.84253 0z" fill-rule="evenodd"/><path fill="#000000" d="m279.6654 293.12973q0 -0.484375 -0.375 -0.75q-0.359375 -0.265625 -1.28125 -0.453125q-0.90625 -0.203125 -1.453125 -0.46875q-0.53125 -0.28125 -0.796875 -0.65625q-0.25 -0.390625 -0.25 -0.90625q0 -0.859375 0.734375 -1.453125q0.734375 -0.609375 1.875 -0.609375q1.1875 0 1.9375 0.625q0.75 0.609375 0.75 1.578125l-1.21875 0q0 -0.5 -0.421875 -0.859375q-0.421875 -0.359375 -1.046875 -0.359375q-0.65625 0 -1.03125 0.296875q-0.375 0.28125 -0.375 0.75q0 0.421875 0.34375 0.65625q0.34375 0.21875 1.25 0.421875q0.90625 0.203125 1.453125 0.484375q0.5625 0.265625 0.828125 0.671875q0.28125 0.390625 0.28125 0.953125q0 0.9375 -0.765625 1.515625q-0.75 0.5625 -1.953125 0.5625q-0.84375 0 -1.5 -0.296875q-0.640625 -0.296875 -1.015625 -0.828125q-0.359375 -0.546875 -0.359375 -1.171875l1.203125 0q0.03125 0.609375 0.484375 0.96875q0.453125 0.34375 1.1875 0.34375q0.6875 0 1.09375 -0.265625q0.421875 -0.28125 0.421875 -0.75zm3.9660645 -4.3125q0.8125 -0.984375 2.09375 -0.984375q2.234375 0 2.25 2.515625l0 4.65625l-1.203125 0l0 -4.65625q-0.015625 -0.765625 -0.359375 -1.125q-0.328125 -0.375 -1.0625 -0.375q-0.578125 0 -1.03125 0.3125q-0.4375 0.3125 -0.6875 0.828125l0 5.015625l-1.203125 0l0 -10.0l1.203125 0l0 3.8125zm10.497131 5.484375q-0.703125 0.828125 -2.0625 0.828125q-1.140625 0 -1.734375 -0.640625q-0.578125 -0.65625 -0.578125 -1.9375l0 -4.59375l1.203125 0l0 4.546875q0 1.609375 1.296875 1.609375q1.375 0 1.828125 -1.03125l0 -5.125l1.21875 0l0 7.046875l-1.15625 0l-0.015625 -0.703125zm3.5817566 0.703125l0 -6.109375l-1.109375 0l0 -0.9375l1.109375 0l0 -0.71875q0 -1.125 0.609375 -1.734375q0.609375 -0.625 1.703125 -0.625q0.421875 0 0.828125 0.109375l-0.0625 0.96875q-0.296875 -0.0625 -0.640625 -0.0625q-0.59375 0 -0.921875 0.34375q-0.3125 0.34375 -0.3125 0.984375l0 0.734375l2.609375 0l0 -0.765625q0 -1.125 0.625 -1.71875q0.625 -0.59375 1.78125 -0.59375q0.65625 0 2.609375 0.390625l0 9.734375l-1.203125 0l0 -8.96875q-0.8125 -0.140625 -1.3125 -0.140625q-1.296875 0 -1.296875 1.375l0 0.6875l1.5 0l0 0.9375l-1.5 0l0 6.109375l-1.203125 0l0 -6.109375l-2.609375 0l0 6.109375l-1.203125 0zm13.703888 0.125q-1.421875 0 -2.328125 -0.9375q-0.890625 -0.9375 -0.890625 -2.515625l0 -0.21875q0 -1.046875 0.390625 -1.859375q0.40625 -0.828125 1.125 -1.296875q0.71875 -0.46875 1.5625 -0.46875q1.375 0 2.125 0.90625q0.765625 0.90625 0.765625 2.59375l0 0.5l-4.765625 0q0.015625 1.03125 0.59375 1.671875q0.59375 0.640625 1.484375 0.640625q0.640625 0 1.078125 -0.25q0.453125 -0.265625 0.78125 -0.6875l0.734375 0.5625q-0.875 1.359375 -2.65625 1.359375zm-0.140625 -6.3125q-0.734375 0 -1.234375 0.53125q-0.484375 0.53125 -0.609375 1.484375l3.53125 0l0 -0.078125q-0.046875 -0.921875 -0.5 -1.421875q-0.4375 -0.515625 -1.1875 -0.515625zm3.9985657 2.609375q0 -1.625 0.765625 -2.609375q0.765625 -0.984375 2.0 -0.984375q1.25 0 1.96875 0.84375l0 -3.671875l1.203125 0l0 10.0l-1.109375 0l-0.0625 -0.75q-0.71875 0.875 -2.0 0.875q-1.234375 0 -2.0 -1.0q-0.765625 -1.0 -0.765625 -2.609375l0 -0.09375zm1.203125 0.140625q0 1.1875 0.484375 1.875q0.5 0.671875 1.375 0.671875q1.140625 0 1.671875 -1.03125l0 -3.234375q-0.546875 -1.0 -1.65625 -1.0q-0.890625 0 -1.390625 0.6875q-0.484375 0.6875 -0.484375 2.03125zm12.141571 -0.9375l-4.1093445 0l0 3.359375l4.7812195 0l0 1.015625l-6.0312195 0l0 -9.46875l5.9530945 0l0 1.015625l-4.7030945 0l0 3.046875l4.1093445 0l0 1.03125zm7.981415 0.9375q0 1.609375 -0.734375 2.59375q-0.734375 0.96875 -2.0 0.96875q-1.28125 0 -2.015625 -0.8125l0 3.390625l-1.203125 0l0 -9.75l1.109375 0l0.046875 0.78125q0.75 -0.90625 2.046875 -0.90625q1.265625 0 2.0 0.953125q0.75 0.953125 0.75 2.671875l0 0.109375zm-1.203125 -0.140625q0 -1.1875 -0.515625 -1.875q-0.5 -0.703125 -1.390625 -0.703125q-1.09375 0 -1.640625 0.96875l0 3.375q0.546875 0.953125 1.65625 0.953125q0.875 0 1.375 -0.671875q0.515625 -0.6875 0.515625 -2.046875zm2.4150696 0q0 -1.046875 0.40625 -1.875q0.40625 -0.828125 1.125 -1.265625q0.734375 -0.453125 1.65625 -0.453125q1.4375 0 2.328125 1.0q0.890625 0.984375 0.890625 2.640625l0 0.09375q0 1.015625 -0.390625 1.84375q-0.390625 0.8125 -1.125 1.265625q-0.734375 0.453125 -1.6875 0.453125q-1.421875 0 -2.3125 -0.984375q-0.890625 -1.0 -0.890625 -2.640625l0 -0.078125zm1.203125 0.140625q0 1.171875 0.546875 1.875q0.546875 0.703125 1.453125 0.703125q0.921875 0 1.453125 -0.71875q0.546875 -0.71875 0.546875 -2.0q0 -1.171875 -0.546875 -1.890625q-0.546875 -0.71875 -1.46875 -0.71875q-0.890625 0 -1.4375 0.71875q-0.546875 0.703125 -0.546875 2.03125zm9.538696 2.578125q0.640625 0 1.125 -0.390625q0.484375 -0.390625 0.53125 -0.96875l1.140625 0q-0.03125 0.609375 -0.421875 1.15625q-0.375 0.546875 -1.015625 0.875q-0.640625 0.3125 -1.359375 0.3125q-1.4375 0 -2.296875 -0.953125q-0.84375 -0.96875 -0.84375 -2.625l0 -0.203125q0 -1.03125 0.375 -1.828125q0.390625 -0.796875 1.09375 -1.234375q0.703125 -0.453125 1.671875 -0.453125q1.171875 0 1.953125 0.71875q0.796875 0.703125 0.84375 1.828125l-1.140625 0q-0.046875 -0.671875 -0.515625 -1.109375q-0.46875 -0.453125 -1.140625 -0.453125q-0.921875 0 -1.4375 0.671875q-0.5 0.65625 -0.5 1.90625l0 0.21875q0 1.21875 0.5 1.875q0.515625 0.65625 1.4375 0.65625zm5.3514404 -5.328125q0.8125 -0.984375 2.09375 -0.984375q2.234375 0 2.25 2.515625l0 4.65625l-1.203125 0l0 -4.65625q-0.015625 -0.765625 -0.359375 -1.125q-0.328125 -0.375 -1.0625 -0.375q-0.578125 0 -1.03125 0.3125q-0.4375 0.3125 -0.6875 0.828125l0 5.015625l-1.203125 0l0 -10.0l1.203125 0l0 3.8125z" fill-rule="nonzero"/></g></svg>