<svg version="1.1" viewBox="0.0 0.0 403.5721784776903 374.11548556430444" fill="none" stroke="none" stroke-linecap="square" stroke-miterlimit="10" xmlns:xlink="http://www.w3.org/1999/xlink" xmlns="http://www.w3.org/2000/svg"><clipPath id="p.0"><path d="m0 0l403.57217 0l0 374.11548l-403.57217 0l0 -374.11548z" clip-rule="nonzero"/></clipPath><g clip-path="url(#p.0)"><path fill="#000000" fill-opacity="0.0" d="m0 0l403.57217 0l0 374.11548l-403.57217 0z" fill-rule="evenodd"/><g filter="url(#shadowFilter-p.1)"><use xlink:href="#p.1" transform="matrix(1.0 0.0 0.0 1.0 0.0 2.0)"/></g><defs><filter id="shadowFilter-p.1" filterUnits="userSpaceOnUse"><feGaussianBlur in="SourceAlpha" stdDeviation="2.0" result="blur"/><feComponentTransfer in="blur" color-interpolation-filters="sRGB"><feFuncR type="linear" slope="0" intercept="0.0"/><feFuncG type="linear" slope="0" intercept="0.0"/><feFuncB type="linear" slope="0" intercept="0.0"/><feFuncA type="linear" slope="0.5" intercept="0"/></feComponentTransfer></filter></defs><g id="p.1"><path fill="#eeeeee" d="m94.28245 6.480993l120.45544 0l0 42.432083c-60.227722 0 -60.227722 16.1674 -120.45544 6.9813766z" fill-rule="evenodd"/><path fill="#000000" d="m106.84495 24.000994l-1.515625 0l0 -0.921875q-0.390625 0.546875 -0.90625 0.8125q-0.515625 0.25 -1.046875 0.25q-1.078125 0 -1.84375 -0.859375q-0.75 -0.875 -0.75 -2.421875q0 -1.578125 0.734375 -2.390625q0.75 -0.828125 1.890625 -0.828125q1.03125 0 1.796875 0.859375l0 -3.093751l1.640625 0l0 8.593751zm-4.390625 -3.25q0 1.0 0.28125 1.4375q0.390625 0.65625 1.109375 0.65625q0.5625 0 0.953125 -0.484375q0.40625 -0.484375 0.40625 -1.453125q0 -1.0625 -0.390625 -1.53125q-0.375 -0.484375 -0.984375 -0.484375q-0.578125 0 -0.984375 0.46875q-0.390625 0.46875 -0.390625 1.390625zm6.017578 -3.8125l0 -1.531251l1.65625 0l0 1.531251l-1.65625 0zm0 7.0625l0 -6.21875l1.65625 0l0 6.21875l-1.65625 0zm8.755859 -4.390625l-1.609375 0.296875q-0.09375 -0.484375 -0.390625 -0.71875q-0.28125 -0.25 -0.734375 -0.25q-0.625 0 -1.0 0.421875q-0.359375 0.421875 -0.359375 1.421875q0 1.109375 0.375 1.5625q0.375 0.453125 1.0 0.453125q0.46875 0 0.765625 -0.265625q0.296875 -0.265625 0.421875 -0.921875l1.625 0.28125q-0.25 1.109375 -0.96875 1.6875q-0.71875 0.5625 -1.921875 0.5625q-1.359375 0 -2.171875 -0.859375q-0.8125 -0.859375 -0.8125 -2.390625q0 -1.53125 0.8125 -2.390625q0.8125 -0.859375 2.203125 -0.859375q1.140625 0 1.8125 0.484375q0.671875 0.484375 0.953125 1.484375zm4.111328 -1.828125l0 1.3125l-1.125 0l0 2.5q0 0.765625 0.03125 0.890625q0.03125 0.125 0.140625 0.21875q0.125 0.078125 0.28125 0.078125q0.234375 0 0.65625 -0.171875l0.140625 1.28125q-0.5625 0.25 -1.296875 0.25q-0.4375 0 -0.796875 -0.140625q-0.359375 -0.15625 -0.53125 -0.390625q-0.15625 -0.25 -0.234375 -0.640625q-0.046875 -0.296875 -0.046875 -1.171875l0 -2.703125l-0.75 0l0 -1.3125l0.75 0l0 -1.234375l1.65625 -0.96875095l0 2.203126l1.125 0zm1.1367188 -0.84375l0 -1.531251l1.65625 0l0 1.531251l-1.65625 0zm0 7.0625l0 -6.21875l1.65625 0l0 6.21875l-1.65625 0zm2.9589844 -3.203125q0 -0.8125 0.40625 -1.578125q0.40625 -0.78125 1.140625 -1.171875q0.734375 -0.40625 1.6562576 -0.40625q1.40625 0 2.3125 0.921875q0.90625 0.90625 0.90625 2.3125q0 1.40625 -0.921875 2.34375q-0.90625 0.921875 -2.28125 0.921875q-0.8593826 0 -1.6406326 -0.390625q-0.765625 -0.390625 -1.171875 -1.125q-0.40625 -0.75 -0.40625 -1.828125zm1.6875 0.09375q0 0.921875 0.4375 1.421875q0.4375 0.484375 1.0781326 0.484375q0.65625 0 1.078125 -0.484375q0.4375 -0.5 0.4375 -1.4375q0 -0.90625 -0.4375 -1.390625q-0.421875 -0.5 -1.078125 -0.5q-0.6406326 0 -1.0781326 0.5q-0.4375 0.484375 -0.4375 1.40625zm11.673836 3.109375l-1.640625 0l0 -3.171875q0 -1.015625 -0.109375 -1.3125q-0.09375 -0.296875 -0.34375 -0.453125q-0.234375 -0.171875 -0.5625 -0.171875q-0.4375 0 -0.78125 0.234375q-0.328125 0.234375 -0.453125 0.625q-0.125 0.390625 -0.125 1.4375l0 2.8125l-1.65625 0l0 -6.21875l1.53125 0l0 0.90625q0.8125 -1.046875 2.0625 -1.046875q0.53125 0 0.984375 0.203125q0.453125 0.1875 0.6875 0.5q0.234375 0.296875 0.3125 0.6875q0.09375 0.375 0.09375 1.09375l0 3.875zm2.9082031 -4.328125l-1.5 -0.265625q0.25 -0.90625 0.859375 -1.328125q0.625 -0.4375 1.84375 -0.4375q1.09375 0 1.625 0.265625q0.546875 0.25 0.765625 0.65625q0.21875 0.390625 0.21875 1.46875l-0.015625 1.921875q0 0.828125 0.078125 1.21875q0.078125 0.375 0.296875 0.828125l-1.625 0q-0.0625 -0.171875 -0.15625 -0.484375q-0.046875 -0.15625 -0.0625 -0.203125q-0.421875 0.421875 -0.90625 0.625q-0.46875 0.203125 -1.015625 0.203125q-0.96875 0 -1.53125 -0.515625q-0.546875 -0.53125 -0.546875 -1.328125q0 -0.53125 0.25 -0.9375q0.265625 -0.40625 0.71875 -0.625q0.453125 -0.234375 1.3125 -0.390625q1.140625 -0.21875 1.59375 -0.40625l0 -0.15625q0 -0.484375 -0.234375 -0.6875q-0.234375 -0.203125 -0.890625 -0.203125q-0.4375 0 -0.6875 0.171875q-0.234375 0.171875 -0.390625 0.609375zm2.203125 1.34375q-0.3125 0.09375 -1.0 0.25q-0.6875 0.140625 -0.90625 0.28125q-0.3125 0.234375 -0.3125 0.578125q0 0.34375 0.25 0.609375q0.265625 0.25 0.65625 0.25q0.453125 0 0.859375 -0.296875q0.296875 -0.21875 0.390625 -0.546875q0.0625 -0.203125 0.0625 -0.796875l0 -0.328125zm4.814453 2.984375l-1.640625 0l0 -6.21875l1.53125 0l0 0.875q0.390625 -0.625 0.703125 -0.8125q0.3125 -0.203125 0.703125 -0.203125q0.5625 0 1.09375 0.3125l-0.515625 1.421875q-0.421875 -0.265625 -0.765625 -0.265625q-0.359375 0 -0.59375 0.203125q-0.234375 0.1875 -0.375 0.6875q-0.140625 0.484375 -0.140625 2.078125l0 1.921875zm2.3105469 -6.21875l1.75 0l1.5 4.40625l1.453125 -4.40625l1.703125 0l-2.203125 5.984375l-0.390625 1.078125q-0.21875 0.546875 -0.421875 0.828125q-0.1875 0.296875 -0.453125 0.46875q-0.25 0.1875 -0.625 0.28125q-0.359375 0.109375 -0.828125 0.109375q-0.484375 0 -0.9375 -0.109375l-0.140625 -1.28125q0.390625 0.078125 0.6875 0.078125q0.578125 0 0.84375 -0.34375q0.28125 -0.328125 0.4375 -0.859375l-2.375 -6.234375zm6.564453 6.21875l0 -1.640625l1.65625 0l0 1.640625l-1.65625 0zm8.755859 -4.390625l-1.609375 0.296875q-0.09375 -0.484375 -0.390625 -0.71875q-0.28125 -0.25 -0.734375 -0.25q-0.625 0 -1.0 0.421875q-0.359375 0.421875 -0.359375 1.421875q0 1.109375 0.375 1.5625q0.375 0.453125 1.0 0.453125q0.46875 0 0.765625 -0.265625q0.296875 -0.265625 0.421875 -0.921875l1.625 0.28125q-0.25 1.109375 -0.96875 1.6875q-0.71875 0.5625 -1.921875 0.5625q-1.359375 0 -2.171875 -0.859375q-0.8125 -0.859375 -0.8125 -2.390625q0 -1.53125 0.8125 -2.390625q0.8125 -0.859375 2.203125 -0.859375q1.140625 0 1.8125 0.484375q0.671875 0.484375 0.953125 1.484375zm0.6738281 2.609375l1.65625 -0.25q0.109375 0.484375 0.421875 0.734375q0.328125 0.25 0.90625 0.25q0.640625 0 0.953125 -0.234375q0.21875 -0.171875 0.21875 -0.4375q0 -0.1875 -0.109375 -0.3125q-0.125 -0.125 -0.546875 -0.21875q-2.0 -0.4375 -2.53125 -0.796875q-0.734375 -0.515625 -0.734375 -1.40625q0 -0.8125 0.625 -1.359375q0.640625 -0.546875 1.984375 -0.546875q1.28125 0 1.90625 0.421875q0.625 0.40625 0.859375 1.21875l-1.5625 0.28125q-0.09375 -0.359375 -0.375 -0.546875q-0.28125 -0.203125 -0.796875 -0.203125q-0.640625 0 -0.921875 0.1875q-0.1875 0.125 -0.1875 0.328125q0 0.1875 0.15625 0.3125q0.21875 0.15625 1.53125 0.453125q1.328125 0.296875 1.84375 0.734375q0.515625 0.4375 0.515625 1.21875q0 0.859375 -0.71875 1.484375q-0.703125 0.609375 -2.109375 0.609375q-1.265625 0 -2.015625 -0.515625q-0.734375 -0.515625 -0.96875 -1.40625zm8.970703 1.78125l-2.515625 -6.21875l1.734375 0l1.171875 3.171875l0.34375 1.0625q0.125 -0.40625 0.15625 -0.53125q0.09375 -0.265625 0.1875 -0.53125l1.171875 -3.171875l1.703125 0l-2.46875 6.21875l-1.484375 0z" fill-rule="nonzero"/><path fill="#000000" d="m100.95432 35.704117l0 -1.640625l3.234375 0l0 1.640625l-3.234375 0zm4.1992188 2.296875l0 -8.593748l2.78125 0q1.578125 0 2.0625 0.125q0.734375 0.203125 1.234375 0.859375q0.5 0.640625 0.5 1.6562481q0 0.796875 -0.296875 1.34375q-0.28125 0.53125 -0.71875 0.84375q-0.4375 0.296875 -0.90625 0.40625q-0.609375 0.125 -1.796875 0.125l-1.125 0l0 3.234375l-1.734375 0zm1.734375 -7.140623l0 2.437498l0.953125 0q1.015625 0 1.359375 -0.125q0.359375 -0.140625 0.546875 -0.421875q0.203125 -0.296875 0.203125 -0.671875q0 -0.4687481 -0.28125 -0.7656231q-0.28125 -0.3125 -0.703125 -0.390625q-0.296875 -0.0625 -1.234375 -0.0625l-0.84375 0zm6.2226562 7.140623l0 -8.593748l1.734375 0l0 8.593748l-1.734375 0zm8.880859 -3.15625l1.671875 0.53125q-0.375 1.40625 -1.28125 2.09375q-0.90625 0.671875 -2.28125 0.671875q-1.71875 0 -2.828125 -1.15625q-1.09375 -1.171875 -1.09375 -3.203125q0 -2.140623 1.109375 -3.328123q1.109375 -1.1875 2.921875 -1.1875q1.578125 0 2.5625 0.921875q0.578125 0.5625 0.875 1.59375l-1.71875 0.4062481q-0.15625 -0.6718731 -0.640625 -1.0468731q-0.484375 -0.390625 -1.171875 -0.390625q-0.953125 0 -1.546875 0.6875q-0.59375 0.6718731 -0.59375 2.218748q0 1.625 0.578125 2.3125q0.59375 0.6875 1.53125 0.6875q0.6875 0 1.1875 -0.4375q0.5 -0.4375 0.71875 -1.375zm3.1816406 3.15625l0 -8.593748l1.734375 0l0 3.812498l3.5156326 -3.812498l2.328125 0l-3.234375 3.343748l3.40625 5.25l-2.234375 0l-2.375 -4.03125l-1.4062576 1.4375l0 2.59375l-1.734375 0zm8.697273 0l0 -8.515623l1.734375 0l0 7.062498l4.3125 0l0 1.453125l-6.046875 0zm7.283203 0l0 -8.593748l6.375 0l0 1.453125l-4.640625 0l0 1.9062481l4.3125 0l0 1.453125l-4.3125 0l0 2.328125l4.796875 0l0 1.453125l-6.53125 0zm15.337891 -3.15625l0 -1.453125l3.734375 0l0 3.421875q-0.546875 0.53125 -1.578125 0.9375q-1.03125 0.390625 -2.09375 0.390625q-1.34375 0 -2.359375 -0.5625q-1.0 -0.5625 -1.5 -1.609375q-0.5 -1.0625 -0.5 -2.296875q0 -1.34375 0.5625 -2.374998q0.5625 -1.046875 1.640625 -1.609375q0.828125 -0.421875 2.0625 -0.421875q1.59375 0 2.484375 0.671875q0.90625 0.671875 1.171875 1.84375l-1.71875 0.3281231q-0.1875 -0.6249981 -0.6875 -0.9843731q-0.5 -0.375 -1.25 -0.375q-1.140625 0 -1.8125 0.71875q-0.671875 0.7187481 -0.671875 2.140623q0 1.53125 0.671875 2.296875q0.6875 0.75 1.796875 0.75q0.546875 0 1.09375 -0.203125q0.546875 -0.21875 0.9375 -0.515625l0 -1.09375l-1.984375 0zm4.8964844 0.359375l1.6875 -0.15625q0.15625 0.84375 0.609375 1.25q0.46875 0.390625 1.265625 0.390625q0.828125 0 1.25 -0.34375q0.4375 -0.359375 0.4375 -0.84375q0 -0.296875 -0.1875 -0.515625q-0.171875 -0.21875 -0.625 -0.375q-0.296875 -0.109375 -1.375 -0.375q-1.40625 -0.34375 -1.96875 -0.84375q-0.78125 -0.71875 -0.78125 -1.7343731q0 -0.65625 0.359375 -1.21875q0.375 -0.578125 1.078125 -0.875q0.703125 -0.296875 1.6875 -0.296875q1.625 0 2.4375 0.71875q0.8125 0.703125 0.859375 1.875l-1.734375 0.078125q-0.109375 -0.65625 -0.484375 -0.9375q-0.359375 -0.296875 -1.09375 -0.296875q-0.75 0 -1.1875 0.3125q-0.265625 0.1875 -0.265625 0.53125q0 0.296875 0.25 0.5156231q0.328125 0.28125 1.59375 0.578125q1.265625 0.296875 1.875 0.625q0.609375 0.3125 0.953125 0.875q0.34375 0.546875 0.34375 1.359375q0 0.734375 -0.421875 1.390625q-0.40625 0.640625 -1.15625 0.953125q-0.75 0.3125 -1.859375 0.3125q-1.640625 0 -2.515625 -0.75q-0.859375 -0.765625 -1.03125 -2.203125z" fill-rule="nonzero"/></g><path fill="#eeeeee" d="m280.515 302.0939c0 4.2726135 22.470367 7.7362366 50.188965 7.7362366c27.718597 0 50.188965 -3.463623 50.188965 -7.7362366l0 46.417328c0 4.2726135 -22.470367 7.7362366 -50.188965 7.7362366c-27.718597 0 -50.188965 -3.463623 -50.188965 -7.7362366z" fill-rule="evenodd"/><path fill="#f4f4f4" d="m280.515 302.0939c0 -4.272583 22.470367 -7.736206 50.188965 -7.736206c27.718597 0 50.188965 3.463623 50.188965 7.736206l0 0c0 4.2726135 -22.470367 7.7362366 -50.188965 7.7362366c-27.718597 0 -50.188965 -3.463623 -50.188965 -7.7362366z" fill-rule="evenodd"/><path fill="#000000" fill-opacity="0.0" d="m380.89294 302.0939l0 0c0 4.2726135 -22.470367 7.7362366 -50.188965 7.7362366c-27.718597 0 -50.188965 -3.463623 -50.188965 -7.7362366c0 -4.272583 22.470367 -7.736206 50.188965 -7.736206c27.718597 0 50.188965 3.463623 50.188965 7.736206l0 46.417328c0 4.2726135 -22.470367 7.7362366 -50.188965 7.7362366c-27.718597 0 -50.188965 -3.463623 -50.188965 -7.7362366l0 -46.417328" fill-rule="evenodd"/><path stroke="#595959" stroke-width="1.0" stroke-linejoin="round" stroke-linecap="butt" d="m380.89294 302.0939l0 0c0 4.2726135 -22.470367 7.7362366 -50.188965 7.7362366c-27.718597 0 -50.188965 -3.463623 -50.188965 -7.7362366c0 -4.272583 22.470367 -7.736206 50.188965 -7.736206c27.718597 0 50.188965 3.463623 50.188965 7.736206l0 46.417328c0 4.2726135 -22.470367 7.7362366 -50.188965 7.7362366c-27.718597 0 -50.188965 -3.463623 -50.188965 -7.7362366l0 -46.417328" fill-rule="evenodd"/><path fill="#000000" d="m294.39 323.53442l0 -1.453125l3.734375 0l0 3.421875q-0.546875 0.53125 -1.578125 0.9375q-1.03125 0.390625 -2.09375 0.390625q-1.34375 0 -2.359375 -0.5625q-1.0 -0.5625 -1.5 -1.609375q-0.5 -1.0625 -0.5 -2.296875q0 -1.34375 0.5625 -2.375q0.5625 -1.046875 1.640625 -1.609375q0.828125 -0.421875 2.0625 -0.421875q1.59375 0 2.484375 0.671875q0.90625 0.671875 1.171875 1.84375l-1.71875 0.328125q-0.1875 -0.625 -0.6875 -0.984375q-0.5 -0.375 -1.25 -0.375q-1.140625 0 -1.8125 0.71875q-0.671875 0.71875 -0.671875 2.140625q0 1.53125 0.671875 2.296875q0.6875 0.75 1.796875 0.75q0.546875 0 1.09375 -0.203125q0.546875 -0.21875 0.9375 -0.515625l0 -1.09375l-1.984375 0zm10.833984 0l1.671875 0.53125q-0.375 1.40625 -1.28125 2.09375q-0.90625 0.671875 -2.28125 0.671875q-1.71875 0 -2.828125 -1.15625q-1.09375 -1.171875 -1.09375 -3.203125q0 -2.140625 1.109375 -3.328125q1.109375 -1.1875 2.921875 -1.1875q1.578125 0 2.5625 0.921875q0.578125 0.5625 0.875 1.59375l-1.71875 0.40625q-0.15625 -0.671875 -0.640625 -1.046875q-0.484375 -0.390625 -1.171875 -0.390625q-0.953125 0 -1.546875 0.6875q-0.59375 0.671875 -0.59375 2.21875q0 1.625 0.578125 2.3125q0.59375 0.6875 1.53125 0.6875q0.6875 0 1.1875 -0.4375q0.5 -0.4375 0.71875 -1.375zm2.7285156 0.359375l1.6875 -0.15625q0.15625 0.84375 0.609375 1.25q0.46875 0.390625 1.265625 0.390625q0.828125 0 1.25 -0.34375q0.4375 -0.359375 0.4375 -0.84375q0 -0.296875 -0.1875 -0.515625q-0.171875 -0.21875 -0.625 -0.375q-0.296875 -0.109375 -1.375 -0.375q-1.40625 -0.34375 -1.96875 -0.84375q-0.78125 -0.71875 -0.78125 -1.734375q0 -0.65625 0.359375 -1.21875q0.375 -0.578125 1.078125 -0.875q0.703125 -0.296875 1.6875 -0.296875q1.625 0 2.4375 0.71875q0.8125 0.703125 0.859375 1.875l-1.734375 0.078125q-0.109375 -0.65625 -0.484375 -0.9375q-0.359375 -0.296875 -1.09375 -0.296875q-0.75 0 -1.1875 0.3125q-0.265625 0.1875 -0.265625 0.53125q0 0.296875 0.25 0.515625q0.328125 0.28125 1.59375 0.578125q1.265625 0.296875 1.875 0.625q0.609375 0.3125 0.953125 0.875q0.34375 0.546875 0.34375 1.359375q0 0.734375 -0.421875 1.390625q-0.40625 0.640625 -1.15625 0.953125q-0.75 0.3125 -1.859375 0.3125q-1.640625 0 -2.515625 -0.75q-0.859375 -0.765625 -1.03125 -2.203125z" fill-rule="nonzero"/><path fill="#000000" d="m292.3275 340.69067l0 -7.140625l-2.546875 0l0 -1.453125l6.8125 0l0 1.453125l-2.53125 0l0 7.140625l-1.734375 0zm5.408203 0l0 -8.59375l5.890625 0l0 1.453125l-4.15625 0l0 2.03125l3.578125 0l0 1.453125l-3.578125 0l0 3.65625l-1.734375 0zm8.876953 0l-1.640625 0l0 -6.21875l1.53125 0l0 0.875q0.390625 -0.625 0.703125 -0.8125q0.3125 -0.203125 0.703125 -0.203125q0.5625 0 1.09375 0.3125l-0.515625 1.421875q-0.421875 -0.265625 -0.765625 -0.265625q-0.359375 0 -0.59375 0.203125q-0.234375 0.1875 -0.375 0.6875q-0.140625 0.484375 -0.140625 2.078125l0 1.921875zm6.701172 -1.984375l1.640625 0.28125q-0.3125 0.90625 -1.0 1.375q-0.6875 0.46875 -1.703125 0.46875q-1.625 0 -2.40625 -1.0625q-0.625 -0.84375 -0.625 -2.140625q0 -1.546875 0.8125 -2.421875q0.8125 -0.875 2.046875 -0.875q1.390625 0 2.1875 0.921875q0.8125 0.90625 0.765625 2.796875l-4.125 0q0.03125 0.734375 0.40625 1.140625q0.375 0.40625 0.953125 0.40625q0.375 0 0.640625 -0.203125q0.265625 -0.21875 0.40625 -0.6875zm0.09375 -1.65625q-0.015625 -0.71875 -0.375 -1.09375q-0.34375 -0.375 -0.859375 -0.375q-0.53125 0 -0.890625 0.390625q-0.34375 0.40625 -0.34375 1.078125l2.46875 0zm8.392578 -0.75l-1.609375 0.296875q-0.09375 -0.484375 -0.390625 -0.71875q-0.28125 -0.25 -0.734375 -0.25q-0.625 0 -1.0 0.421875q-0.359375 0.421875 -0.359375 1.421875q0 1.109375 0.375 1.5625q0.375 0.453125 1.0 0.453125q0.46875 0 0.765625 -0.265625q0.296875 -0.265625 0.421875 -0.921875l1.625 0.28125q-0.25 1.109375 -0.96875 1.6875q-0.71875 0.5625 -1.921875 0.5625q-1.359375 0 -2.171875 -0.859375q-0.8125 -0.859375 -0.8125 -2.390625q0 -1.53125 0.8125 -2.390625q0.8125 -0.859375 2.203125 -0.859375q1.140625 0 1.8125 0.484375q0.671875 0.484375 0.953125 1.484375zm0.8769531 1.1875q0 -0.8125 0.40625 -1.578125q0.40625 -0.78125 1.140625 -1.171875q0.734375 -0.40625 1.65625 -0.40625q1.40625 0 2.3125 0.921875q0.90625 0.90625 0.90625 2.3125q0 1.40625 -0.921875 2.34375q-0.90625 0.921875 -2.28125 0.921875q-0.859375 0 -1.640625 -0.390625q-0.765625 -0.390625 -1.171875 -1.125q-0.40625 -0.75 -0.40625 -1.828125zm1.6875 0.09375q0 0.921875 0.4375 1.421875q0.4375 0.484375 1.078125 0.484375q0.65625 0 1.078125 -0.484375q0.4375 -0.5 0.4375 -1.4375q0 -0.90625 -0.4375 -1.390625q-0.421875 -0.5 -1.078125 -0.5q-0.640625 0 -1.078125 0.5q-0.4375 0.484375 -0.4375 1.40625zm7.595703 3.109375l-1.640625 0l0 -6.21875l1.53125 0l0 0.875q0.390625 -0.625 0.703125 -0.8125q0.3125 -0.203125 0.703125 -0.203125q0.5625 0 1.09375 0.3125l-0.515625 1.421875q-0.421875 -0.265625 -0.765625 -0.265625q-0.359375 0 -0.59375 0.203125q-0.234375 0.1875 -0.375 0.6875q-0.140625 0.484375 -0.140625 2.078125l0 1.921875zm8.794922 0l-1.515625 0l0 -0.921875q-0.390625 0.546875 -0.90625 0.8125q-0.515625 0.25 -1.046875 0.25q-1.078125 0 -1.84375 -0.859375q-0.75 -0.875 -0.75 -2.421875q0 -1.578125 0.734375 -2.390625q0.75 -0.828125 1.890625 -0.828125q1.03125 0 1.796875 0.859375l0 -3.09375l1.640625 0l0 8.59375zm-4.390625 -3.25q0 1.0 0.28125 1.4375q0.390625 0.65625 1.109375 0.65625q0.5625 0 0.953125 -0.484375q0.40625 -0.484375 0.40625 -1.453125q0 -1.0625 -0.390625 -1.53125q-0.375 -0.484375 -0.984375 -0.484375q-0.578125 0 -0.984375 0.46875q-0.390625 0.46875 -0.390625 1.390625z" fill-rule="nonzero"/><path fill="#eeeeee" d="m56.2953 164.9962l186.98163 0l0 52.91339l-186.98163 0z" fill-rule="evenodd"/><path fill="#000000" fill-opacity="0.0" d="m79.668 164.9962l0 52.91339m140.23622 -52.91339l0 52.91339" fill-rule="evenodd"/><path fill="#000000" fill-opacity="0.0" d="m56.2953 164.9962l186.98163 0l0 52.91339l-186.98163 0z" fill-rule="evenodd"/><path stroke="#595959" stroke-width="1.0" stroke-linejoin="round" stroke-linecap="butt" d="m79.668 164.9962l0 52.91339m140.23622 -52.91339l0 52.91339" fill-rule="evenodd"/><path stroke="#595959" stroke-width="1.0" stroke-linejoin="round" stroke-linecap="butt" d="m56.2953 164.9962l186.98163 0l0 52.91339l-186.98163 0z" fill-rule="evenodd"/><path fill="#000000" d="m112.55181 185.41164l-3.0 0l0 2.03125l3.515625 0l0 1.25l-5.078125 0l0 -7.578125l5.078125 0l0 1.265625l-3.515625 0l0 1.8125l3.0 0l0 1.21875zm3.4785156 -4.296875l1.9375 5.5l1.9375 -5.5l2.046875 0l0 7.578125l-1.5625 0l0 -2.078125l0.15625 -3.5625l-2.046875 5.640625l-1.0625 0l-2.046875 -5.640625l0.15625 3.5625l0 2.078125l-1.5625 0l0 -7.578125l2.046875 0zm8.959625 7.578125l-1.5625 0l0 -7.578125l1.5625 0l0 7.578125zm6.9865494 -6.3125l-2.3125 0l0 6.3125l-1.5625 0l0 -6.3125l-2.2968826 0l0 -1.265625l6.1718826 0l0 1.265625zm4.793045 3.640625l0 2.671875l-1.5625 0l0 -7.578125l2.953125 0q0.859375 0 1.5 0.3125q0.65625 0.3125 1.0 0.890625q0.359375 0.578125 0.359375 1.3125q0 1.109375 -0.765625 1.75q-0.765625 0.640625 -2.109375 0.640625l-1.375 0zm0 -1.265625l1.390625 0q0.625 0 0.953125 -0.28125q0.328125 -0.296875 0.328125 -0.84375q0 -0.546875 -0.328125 -0.890625q-0.328125 -0.34375 -0.90625 -0.359375l-1.4375 0l0 2.375zm6.9828644 3.9375l-1.5625 0l0 -7.578125l1.5625 0l0 7.578125zm7.3875885 -2.53125q-0.09375 1.234375 -0.90625 1.9375q-0.8125 0.703125 -2.140625 0.703125q-1.453125 0 -2.296875 -0.984375q-0.828125 -0.984375 -0.828125 -2.6875l0 -0.46875q0 -1.09375 0.375 -1.921875q0.390625 -0.84375 1.109375 -1.28125q0.71875 -0.453125 1.65625 -0.453125q1.3125 0 2.109375 0.703125q0.8125 0.703125 0.9375 1.984375l-1.5625 0q-0.0625 -0.734375 -0.421875 -1.0625q-0.34375 -0.34375 -1.0625 -0.34375q-0.78125 0 -1.171875 0.5625q-0.375 0.5625 -0.390625 1.734375l0 0.578125q0 1.21875 0.359375 1.796875q0.375 0.5625 1.1875 0.5625q0.71875 0 1.078125 -0.328125q0.359375 -0.328125 0.40625 -1.03125l1.5625 0zm3.394226 -0.5l-0.8125 0.859375l0 2.171875l-1.5625 0l0 -7.578125l1.5625 0l0 3.4375l0.6875 -0.9375l1.9375 -2.5l1.921875 0l-2.703125 3.375l2.78125 4.203125l-1.859375 0l-1.953125 -3.03125zm5.951721 1.78125l3.3125 0l0 1.25l-4.875 0l0 -7.578125l1.5625 0l0 6.328125zm8.770401 -2.03125l-3.0 0l0 2.03125l3.515625 0l0 1.25l-5.078125 0l0 -7.578125l5.078125 0l0 1.265625l-3.515625 0l0 1.8125l3.0 0l0 1.21875zm9.819672 -4.296875l0 4.984375q0 1.25 -0.78125 1.984375q-0.765625 0.71875 -2.125 0.71875q-1.3125 0 -2.09375 -0.703125q-0.78125 -0.703125 -0.796875 -1.9375l0 -5.046875l1.5625 0l0 5.0q0 0.75 0.34375 1.09375q0.359375 0.328125 0.984375 0.328125q1.328125 0 1.34375 -1.375l0 -5.046875l1.5625 0zm4.092102 4.8125l-1.25 0l0 2.765625l-1.5625 0l0 -7.578125l2.8125 0q1.34375 0 2.078125 0.609375q0.734375 0.59375 0.734375 1.6875q0 0.765625 -0.34375 1.296875q-0.328125 0.515625 -1.015625 0.8125l1.640625 3.09375l0 0.078125l-1.671875 0l-1.421875 -2.765625zm-1.25 -1.265625l1.265625 0q0.578125 0 0.90625 -0.296875q0.328125 -0.3125 0.328125 -0.828125q0 -0.546875 -0.3125 -0.84375q-0.296875 -0.3125 -0.9375 -0.3125l-1.25 0l0 2.28125zm6.800644 2.78125l3.3125 0l0 1.25l-4.875 0l0 -7.578125l1.5625 0l0 6.328125z" fill-rule="nonzero"/><path fill="#000000" d="m125.6203 198.61476q0 -1.171875 0.3125 -2.25q0.328125 -1.09375 0.953125 -1.96875q0.625 -0.890625 1.28125 -1.25l0.203125 0.625q-0.765625 0.59375 -1.25 1.796875q-0.484375 1.1875 -0.53125 2.671875l0 0.4375q0 2.015625 0.734375 3.484375q0.4375 0.890625 1.046875 1.390625l-0.203125 0.59375q-0.6875 -0.390625 -1.3125 -1.296875q-1.234375 -1.765625 -1.234375 -4.234375zm9.423523 2.078125q-0.375 0.5625 -1.078125 0.84375q-0.6875 0.265625 -1.59375 0.265625q-0.9375 0 -1.65625 -0.4375q-0.703125 -0.4375 -1.109375 -1.234375q-0.390625 -0.8125 -0.390625 -1.859375l0 -0.65625q0 -1.71875 0.796875 -2.65625q0.796875 -0.953125 2.234375 -0.953125q1.1875 0 1.90625 0.609375q0.734375 0.609375 0.890625 1.71875l-1.0 0q-0.28125 -1.5 -1.78125 -1.5q-1.015625 0 -1.53125 0.703125q-0.515625 0.703125 -0.515625 2.046875l0 0.625q0 1.265625 0.578125 2.015625q0.578125 0.75 1.578125 0.75q0.5625 0 0.984375 -0.125q0.421875 -0.125 0.703125 -0.421875l0 -1.6875l-1.765625 0l0 -0.8125l2.75 0l0 2.765625zm7.2429047 -1.40625q-0.140625 1.203125 -0.890625 1.859375q-0.75 0.65625 -1.984375 0.65625q-1.34375 0 -2.15625 -0.96875q-0.796875 -0.96875 -0.796875 -2.578125l0 -0.71875q0 -1.0625 0.375 -1.859375q0.375 -0.8125 1.0625 -1.234375q0.6875 -0.4375 1.609375 -0.4375q1.203125 0 1.921875 0.6875q0.734375 0.671875 0.859375 1.859375l-1.0 0q-0.140625 -0.90625 -0.578125 -1.3125q-0.421875 -0.40625 -1.203125 -0.40625q-0.96875 0 -1.515625 0.71875q-0.53125 0.703125 -0.53125 2.0l0 0.734375q0 1.234375 0.515625 1.96875q0.515625 0.71875 1.4375 0.71875q0.828125 0 1.265625 -0.375q0.453125 -0.375 0.609375 -1.3125l1.0 0zm3.5921783 -0.96875q-1.28125 -0.375 -1.875 -0.90625q-0.578125 -0.546875 -0.578125 -1.328125q0 -0.90625 0.71875 -1.484375q0.71875 -0.59375 1.859375 -0.59375q0.78125 0 1.390625 0.3125q0.609375 0.296875 0.9375 0.828125q0.34375 0.53125 0.34375 1.15625l-1.0 0q0 -0.6875 -0.4375 -1.078125q-0.4375 -0.390625 -1.234375 -0.390625q-0.734375 0 -1.15625 0.328125q-0.40625 0.328125 -0.40625 0.90625q0 0.453125 0.390625 0.78125q0.390625 0.3125 1.328125 0.578125q0.953125 0.265625 1.484375 0.59375q0.53125 0.3125 0.78125 0.75q0.265625 0.421875 0.265625 1.0q0 0.921875 -0.71875 1.484375q-0.71875 0.546875 -1.921875 0.546875q-0.78125 0 -1.453125 -0.296875q-0.671875 -0.3125 -1.046875 -0.828125q-0.359375 -0.515625 -0.359375 -1.1875l1.0 0q0 0.6875 0.5 1.09375q0.515625 0.390625 1.359375 0.390625q0.796875 0 1.21875 -0.3125q0.421875 -0.328125 0.421875 -0.875q0 -0.5625 -0.390625 -0.859375q-0.390625 -0.3125 -1.421875 -0.609375zm12.069366 -4.203125l0 5.15625q-0.015625 1.0625 -0.6875 1.75q-0.65625 0.6875 -1.8125 0.765625l-0.265625 0.015625q-1.234375 0 -1.984375 -0.671875q-0.734375 -0.671875 -0.734375 -1.859375l0 -5.15625l0.984375 0l0 5.125q0 0.828125 0.453125 1.28125q0.453125 0.453125 1.28125 0.453125q0.859375 0 1.296875 -0.453125q0.453125 -0.453125 0.453125 -1.265625l0 -5.140625l1.015625 0zm4.347412 4.515625l-1.78125 0l0 3.0625l-1.0 0l0 -7.578125l2.5 0q1.28125 0 1.96875 0.59375q0.703125 0.578125 0.703125 1.6875q0 0.703125 -0.390625 1.234375q-0.375 0.53125 -1.0625 0.78125l1.78125 3.21875l0 0.0625l-1.078125 0l-1.640625 -3.0625zm-1.78125 -0.8125l1.53125 0q0.75 0 1.1875 -0.390625q0.4375 -0.390625 0.4375 -1.03125q0 -0.703125 -0.421875 -1.078125q-0.40625 -0.375 -1.203125 -0.375l-1.53125 0l0 2.875zm6.5769196 3.0625l3.578125 0l0 0.8125l-4.59375 0l0 -7.578125l1.015625 0l0 6.765625zm6.7964783 -2.203125q0 1.15625 -0.3125 2.21875q-0.296875 1.0625 -0.921875 1.953125q-0.625 0.90625 -1.3125 1.296875l-0.203125 -0.59375q0.796875 -0.609375 1.28125 -1.90625q0.484375 -1.296875 0.5 -2.875l0 -0.15625q0 -1.09375 -0.234375 -2.03125q-0.21875 -0.953125 -0.640625 -1.6875q-0.40625 -0.75 -0.90625 -1.171875l0.203125 -0.578125q0.6875 0.375 1.296875 1.265625q0.625 0.890625 0.9375 1.96875q0.3125 1.0625 0.3125 2.296875z" fill-rule="nonzero"/><path fill="#eeeeee" d="m56.29661 95.11431l186.98163 0l0 52.913383l-186.98163 0z" fill-rule="evenodd"/><path fill="#000000" fill-opacity="0.0" d="m79.66931 95.11431l0 52.913383m140.23622 -52.913383l0 52.913383" fill-rule="evenodd"/><path fill="#000000" fill-opacity="0.0" d="m56.29661 95.11431l186.98163 0l0 52.913383l-186.98163 0z" fill-rule="evenodd"/><path stroke="#595959" stroke-width="1.0" stroke-linejoin="round" stroke-linecap="butt" d="m79.66931 95.11431l0 52.913383m140.23622 -52.913383l0 52.913383" fill-rule="evenodd"/><path stroke="#595959" stroke-width="1.0" stroke-linejoin="round" stroke-linecap="butt" d="m56.29661 95.11431l186.98163 0l0 52.913383l-186.98163 0z" fill-rule="evenodd"/><path fill="#000000" d="m119.25832 116.04538l-1.25 0l0 2.765625l-1.5625 0l0 -7.578125l2.8125 0q1.34375 0 2.078125 0.609375q0.734375 0.59375 0.734375 1.6875q0 0.765625 -0.34375 1.296875q-0.328125 0.515625 -1.015625 0.8125l1.640625 3.09375l0 0.078125l-1.671875 0l-1.421875 -2.765625zm-1.25 -1.265625l1.265625 0q0.578125 0 0.90625 -0.296875q0.328125 -0.3125 0.328125 -0.828125q0 -0.546875 -0.3125 -0.84375q-0.296875 -0.3125 -0.9375 -0.3125l-1.25 0l0 2.28125zm9.800644 0.75l-3.0 0l0 2.03125l3.5156326 0l0 1.25l-5.0781326 0l0 -7.578125l5.0781326 0l0 1.265625l-3.5156326 0l0 1.8125l3.0 0l0 1.21875zm5.7128983 1.71875l-2.734375 0l-0.515625 1.5625l-1.671875 0l2.828125 -7.578125l1.4375 0l2.84375 7.578125l-1.65625 0l-0.53125 -1.5625zm-2.3125 -1.265625l1.890625 0l-0.953125 -2.828125l-0.9375 2.828125zm5.2013245 2.828125l0 -7.578125l2.328125 0q1.0 0 1.78125 0.453125q0.796875 0.453125 1.234375 1.28125q0.453125 0.828125 0.453125 1.890625l0 0.34375q0 1.046875 -0.4375 1.875q-0.4375 0.828125 -1.234375 1.28125q-0.78125 0.453125 -1.78125 0.453125l-2.34375 0zm1.5625 -6.3125l0 5.0625l0.75 0q0.921875 0 1.40625 -0.59375q0.484375 -0.609375 0.5 -1.71875l0 -0.40625q0 -1.15625 -0.484375 -1.75q-0.484375 -0.59375 -1.40625 -0.59375l-0.765625 0zm13.407303 0l-2.3125 0l0 6.3125l-1.5625 0l0 -6.3125l-2.296875 0l0 -1.265625l6.171875 0l0 1.265625zm6.623764 -1.265625l0 4.984375q0 1.25 -0.78125 1.984375q-0.765625 0.71875 -2.125 0.71875q-1.3125 0 -2.09375 -0.703125q-0.78125 -0.703125 -0.796875 -1.9375l0 -5.046875l1.5625 0l0 5.0q0 0.75 0.34375 1.09375q0.359375 0.328125 0.984375 0.328125q1.328125 0 1.34375 -1.375l0 -5.046875l1.5625 0zm2.842102 4.90625l0 2.671875l-1.5625 0l0 -7.578125l2.953125 0q0.859375 0 1.5 0.3125q0.65625 0.3125 1.0 0.890625q0.359375 0.578125 0.359375 1.3125q0 1.109375 -0.765625 1.75q-0.765625 0.640625 -2.109375 0.640625l-1.375 0zm0 -1.265625l1.390625 0q0.625 0 0.953125 -0.28125q0.328125 -0.296875 0.328125 -0.84375q0 -0.546875 -0.328125 -0.890625q-0.328125 -0.34375 -0.90625 -0.359375l-1.4375 0l0 2.375zm6.8734894 2.6875l3.3125 0l0 1.25l-4.875 0l0 -7.578125l1.5625 0l0 6.328125zm8.770401 -2.03125l-3.0 0l0 2.03125l3.515625 0l0 1.25l-5.078125 0l0 -7.578125l5.078125 0l0 1.265625l-3.515625 0l0 1.8125l3.0 0l0 1.21875zm5.3691406 1.296875q0 -0.453125 -0.3125 -0.6875q-0.3125 -0.234375 -1.125 -0.484375q-0.8125 -0.265625 -1.28125 -0.53125q-1.296875 -0.6875 -1.296875 -1.875q0 -0.609375 0.34375 -1.09375q0.34375 -0.484375 0.984375 -0.75q0.65625 -0.28125 1.46875 -0.28125q0.8125 0 1.4375 0.296875q0.640625 0.296875 0.984375 0.84375q0.359375 0.53125 0.359375 1.203125l-1.5625 0q0 -0.515625 -0.328125 -0.796875q-0.328125 -0.296875 -0.921875 -0.296875q-0.578125 0 -0.890625 0.25q-0.3125 0.234375 -0.3125 0.625q0 0.375 0.359375 0.625q0.375 0.25 1.109375 0.46875q1.328125 0.40625 1.9375 1.0q0.609375 0.59375 0.609375 1.46875q0 0.984375 -0.75 1.546875q-0.734375 0.5625 -2.0 0.5625q-0.875 0 -1.59375 -0.3125q-0.71875 -0.328125 -1.09375 -0.890625q-0.375 -0.5625 -0.375 -1.296875l1.5625 0q0 1.265625 1.5 1.265625q0.5625 0 0.875 -0.21875q0.3125 -0.234375 0.3125 -0.640625z" fill-rule="nonzero"/><path fill="#000000" d="m116.358406 130.9985l3.578125 0l0 0.8125l-4.59375 0l0 -7.578125l1.015625 0l0 6.765625zm5.6246033 0.8125l-0.96875 0l0 -5.625l0.96875 0l0 5.625zm-1.046875 -7.125q0 -0.234375 0.140625 -0.390625q0.140625 -0.171875 0.421875 -0.171875q0.28125 0 0.421875 0.171875q0.15625 0.15625 0.15625 0.390625q0 0.234375 -0.15625 0.390625q-0.140625 0.15625 -0.421875 0.15625q-0.28125 0 -0.421875 -0.15625q-0.140625 -0.15625 -0.140625 -0.390625zm5.851639 5.625q0 -0.390625 -0.296875 -0.59375q-0.28125 -0.21875 -1.015625 -0.375q-0.734375 -0.15625 -1.171875 -0.375q-0.421875 -0.21875 -0.625 -0.515625q-0.203125 -0.3125 -0.203125 -0.71875q0 -0.703125 0.578125 -1.171875q0.59375 -0.484375 1.5 -0.484375q0.953125 0 1.546875 0.5q0.609375 0.484375 0.609375 1.265625l-0.96875 0q0 -0.40625 -0.34375 -0.6875q-0.328125 -0.28125 -0.84375 -0.28125q-0.515625 0 -0.8125 0.234375q-0.296875 0.21875 -0.296875 0.59375q0 0.34375 0.265625 0.53125q0.28125 0.171875 1.0 0.328125q0.71875 0.15625 1.15625 0.390625q0.453125 0.21875 0.671875 0.53125q0.21875 0.3125 0.21875 0.765625q0 0.75 -0.609375 1.21875q-0.59375 0.453125 -1.5625 0.453125q-0.671875 0 -1.203125 -0.234375q-0.515625 -0.25 -0.8125 -0.671875q-0.28125 -0.4375 -0.28125 -0.9375l0.953125 0q0.03125 0.484375 0.390625 0.765625q0.359375 0.28125 0.953125 0.28125q0.546875 0 0.875 -0.21875q0.328125 -0.21875 0.328125 -0.59375zm3.5258865 -5.5l0 1.375l1.046875 0l0 0.734375l-1.046875 0l0 3.5q0 0.328125 0.140625 0.5q0.140625 0.171875 0.484375 0.171875q0.15625 0 0.453125 -0.0625l0 0.78125q-0.375 0.109375 -0.734375 0.109375q-0.640625 0 -0.96875 -0.390625q-0.328125 -0.390625 -0.328125 -1.109375l0 -3.5l-1.03125 0l0 -0.734375l1.03125 0l0 -1.375l0.953125 0zm2.8247223 3.65625l3.25 1.3125l0 1.015625l-4.25 -1.96875l0 -0.765625l4.25 -1.96875l0 1.03125l-3.25 1.34375zm10.51033 2.34375q-0.375 0.5625 -1.078125 0.84375q-0.6875 0.265625 -1.59375 0.265625q-0.9375 0 -1.65625 -0.4375q-0.703125 -0.4375 -1.109375 -1.234375q-0.390625 -0.8125 -0.390625 -1.859375l0 -0.65625q0 -1.71875 0.796875 -2.65625q0.796875 -0.953125 2.234375 -0.953125q1.1875 0 1.90625 0.609375q0.734375 0.609375 0.890625 1.71875l-1.0 0q-0.28125 -1.5 -1.78125 -1.5q-1.015625 0 -1.53125 0.703125q-0.515625 0.703125 -0.515625 2.046875l0 0.625q0 1.265625 0.578125 2.015625q0.578125 0.75 1.578125 0.75q0.5625 0 0.984375 -0.125q0.421875 -0.125 0.703125 -0.421875l0 -1.6875l-1.765625 0l0 -0.8125l2.75 0l0 2.765625zm7.2429047 -1.40625q-0.140625 1.203125 -0.890625 1.859375q-0.75 0.65625 -1.984375 0.65625q-1.34375 0 -2.15625 -0.96875q-0.796875 -0.96875 -0.796875 -2.578125l0 -0.71875q0 -1.0625 0.375 -1.859375q0.375 -0.8125 1.0625 -1.234375q0.6875 -0.4375 1.609375 -0.4375q1.203125 0 1.921875 0.6875q0.734375 0.671875 0.859375 1.859375l-1.0 0q-0.140625 -0.90625 -0.578125 -1.3125q-0.421875 -0.40625 -1.203125 -0.40625q-0.96875 0 -1.515625 0.71875q-0.53125 0.703125 -0.53125 2.0l0 0.734375q0 1.234375 0.515625 1.96875q0.515625 0.71875 1.4375 0.71875q0.828125 0 1.265625 -0.375q0.453125 -0.375 0.609375 -1.3125l1.0 0zm3.5921783 -0.96875q-1.28125 -0.375 -1.875 -0.90625q-0.578125 -0.546875 -0.578125 -1.328125q0 -0.90625 0.71875 -1.484375q0.71875 -0.59375 1.859375 -0.59375q0.78125 0 1.390625 0.3125q0.609375 0.296875 0.9375 0.828125q0.34375 0.53125 0.34375 1.15625l-1.0 0q0 -0.6875 -0.4375 -1.078125q-0.4375 -0.390625 -1.234375 -0.390625q-0.734375 0 -1.15625 0.328125q-0.40625 0.328125 -0.40625 0.90625q0 0.453125 0.390625 0.78125q0.390625 0.3125 1.328125 0.578125q0.953125 0.265625 1.484375 0.59375q0.53125 0.3125 0.78125 0.75q0.265625 0.421875 0.265625 1.0q0 0.921875 -0.71875 1.484375q-0.71875 0.546875 -1.921875 0.546875q-0.78125 0 -1.453125 -0.296875q-0.671875 -0.3125 -1.046875 -0.828125q-0.359375 -0.515625 -0.359375 -1.1875l1.0 0q0 0.6875 0.5 1.09375q0.515625 0.390625 1.359375 0.390625q0.796875 0 1.21875 -0.3125q0.421875 -0.328125 0.421875 -0.875q0 -0.5625 -0.390625 -0.859375q-0.390625 -0.3125 -1.421875 -0.609375zm12.069366 -4.203125l0 5.15625q-0.015625 1.0625 -0.6875 1.75q-0.65625 0.6875 -1.8125 0.765625l-0.265625 0.015625q-1.234375 0 -1.984375 -0.671875q-0.734375 -0.671875 -0.734375 -1.859375l0 -5.15625l0.984375 0l0 5.125q0 0.828125 0.453125 1.28125q0.453125 0.453125 1.28125 0.453125q0.859375 0 1.296875 -0.453125q0.453125 -0.453125 0.453125 -1.265625l0 -5.140625l1.015625 0zm4.347412 4.515625l-1.78125 0l0 3.0625l-1.0 0l0 -7.578125l2.5 0q1.28125 0 1.96875 0.59375q0.703125 0.578125 0.703125 1.6875q0 0.703125 -0.390625 1.234375q-0.375 0.53125 -1.0625 0.78125l1.78125 3.21875l0 0.0625l-1.078125 0l-1.640625 -3.0625zm-1.78125 -0.8125l1.53125 0q0.75 0 1.1875 -0.390625q0.4375 -0.390625 0.4375 -1.03125q0 -0.703125 -0.421875 -1.078125q-0.40625 -0.375 -1.203125 -0.375l-1.53125 0l0 2.875zm6.5769196 3.0625l3.578125 0l0 0.8125l-4.59375 0l0 -7.578125l1.015625 0l0 6.765625zm7.9839783 -2.5625l-3.4375 -1.359375l0 -0.984375l4.4375 1.96875l0 0.765625l-4.4375 1.96875l0 -1.0l3.4375 -1.359375z" fill-rule="nonzero"/><path fill="#000000" fill-opacity="0.0" d="m56.29659 147.94624l0 -52.220467l23.937008 0l0 52.220467z" fill-rule="evenodd"/><path fill="#000000" d="m64.42696 130.85323l5.5 -1.9375l-5.5 -1.9375l0 -2.046875l7.578125 0l0 1.5625l-2.078125 0l-3.5625 -0.15625l5.640625 2.046875l0 1.0625l-5.640625 2.046875l3.5625 -0.15625l2.078125 0l0 1.5625l-7.578125 0l0 -2.046875zm6.015625 -11.66275l0 2.734375l1.5625 0.515625l0 1.671875l-7.578125 -2.828125l0 -1.4375l7.578125 -2.84375l0 1.65625l-1.5625 0.53125zm-1.265625 2.3125l0 -1.890625l-2.828125 0.953125l2.828125 0.9375zm0.15625 -6.7638245l2.671875 0l0 1.5625l-7.578125 0l0 -2.953125q0 -0.859375 0.3125 -1.5q0.3125 -0.65625 0.890625 -1.0q0.578125 -0.359375 1.3125 -0.359375q1.109375 0 1.75 0.765625q0.640625 0.765625 0.640625 2.109375l0 1.375zm-1.265625 0l0 -1.390625q0 -0.625 -0.28125 -0.953125q-0.296875 -0.328125 -0.84375 -0.328125q-0.546875 0 -0.890625 0.328125q-0.34375 0.328125 -0.359375 0.90625l0 1.4375l2.375 0z" fill-rule="nonzero"/><path fill="#000000" fill-opacity="0.0" d="m56.295277 217.56305l0 -52.220474l23.937008 0l0 52.220474z" fill-rule="evenodd"/><path fill="#000000" d="m64.42565 200.47003l5.5 -1.9375l-5.5 -1.9375l0 -2.046875l7.578125 0l0 1.5625l-2.078125 0l-3.5625 -0.15625l5.640625 2.046875l0 1.0625l-5.640625 2.046875l3.5625 -0.15625l2.078125 0l0 1.5625l-7.578125 0l0 -2.046875zm6.015625 -11.66275l0 2.734375l1.5625 0.515625l0 1.671875l-7.578125 -2.828125l0 -1.4375l7.578125 -2.84375l0 1.65625l-1.5625 0.53125zm-1.265625 2.3125l0 -1.890625l-2.828125 0.953125l2.828125 0.9375zm0.15625 -6.7638245l2.671875 0l0 1.5625l-7.578125 0l0 -2.953125q0 -0.859375 0.3125 -1.5q0.3125 -0.65625 0.890625 -1.0q0.578125 -0.359375 1.3125 -0.359375q1.109375 0 1.75 0.765625q0.640625 0.765625 0.640625 2.109375l0 1.375zm-1.265625 0l0 -1.390625q0 -0.625 -0.28125 -0.953125q-0.296875 -0.328125 -0.84375 -0.328125q-0.546875 0 -0.890625 0.328125q-0.34375 0.328125 -0.359375 0.90625l0 1.4375l2.375 0z" fill-rule="nonzero"/><path fill="#eeeeee" d="m56.2953 232.1458l186.98163 0l0 52.913406l-186.98163 0z" fill-rule="evenodd"/><path fill="#000000" fill-opacity="0.0" d="m79.668 232.1458l0 52.913406m140.23622 -52.913406l0 52.913406" fill-rule="evenodd"/><path fill="#000000" fill-opacity="0.0" d="m56.2953 232.1458l186.98163 0l0 52.913406l-186.98163 0z" fill-rule="evenodd"/><path stroke="#595959" stroke-width="1.0" stroke-linejoin="round" stroke-linecap="butt" d="m79.668 232.1458l0 52.913406m140.23622 -52.913406l0 52.913406" fill-rule="evenodd"/><path stroke="#595959" stroke-width="1.0" stroke-linejoin="round" stroke-linecap="butt" d="m56.2953 232.1458l186.98163 0l0 52.913406l-186.98163 0z" fill-rule="evenodd"/><path fill="#000000" d="m125.03767 253.07687l-1.25 0l0 2.765625l-1.5625 0l0 -7.578125l2.8125 0q1.34375 0 2.078125 0.609375q0.734375 0.59375 0.734375 1.6875q0 0.765625 -0.34375 1.296875q-0.328125 0.515625 -1.015625 0.8125l1.6406326 3.09375l0 0.078125l-1.6718826 0l-1.421875 -2.765625zm-1.25 -1.265625l1.265625 0q0.578125 0 0.90625 -0.296875q0.328125 -0.3125 0.328125 -0.828125q0 -0.546875 -0.3125 -0.84375q-0.296875 -0.3125 -0.9375 -0.3125l-1.25 0l0 2.28125zm7.7381516 4.140625q-1.234375 0 -2.015625 -0.765625q-0.78125 -0.765625 -0.78125 -2.015625l0 -0.15625q0 -0.84375 0.328125 -1.515625q0.328125 -0.671875 0.921875 -1.03125q0.609375 -0.359375 1.375 -0.359375q1.15625 0 1.8125 0.734375q0.671875 0.71875 0.671875 2.0625l0 0.609375l-3.578125 0q0.0625 0.546875 0.421875 0.890625q0.375 0.328125 0.9375 0.328125q0.875 0 1.359375 -0.625l0.734375 0.828125q-0.328125 0.46875 -0.90625 0.75q-0.578125 0.265625 -1.28125 0.265625zm-0.171875 -4.625q-0.453125 0 -0.734375 0.3125q-0.265625 0.296875 -0.34375 0.859375l2.078125 0l0 -0.125q0 -0.5 -0.265625 -0.765625q-0.265625 -0.28125 -0.734375 -0.28125zm6.6037445 4.515625q-0.109375 -0.203125 -0.15625 -0.5q-0.546875 0.609375 -1.421875 0.609375q-0.828125 0 -1.375 -0.484375q-0.53125 -0.484375 -0.53125 -1.203125q0 -0.90625 0.65625 -1.375q0.671875 -0.484375 1.921875 -0.484375l0.6875 0l0 -0.328125q0 -0.390625 -0.203125 -0.625q-0.203125 -0.234375 -0.625 -0.234375q-0.375 0 -0.59375 0.1875q-0.21875 0.1875 -0.21875 0.5l-1.5 0q0 -0.484375 0.296875 -0.90625q0.296875 -0.421875 0.84375 -0.65625q0.5625 -0.234375 1.25 -0.234375q1.03125 0 1.640625 0.53125q0.625 0.515625 0.625 1.46875l0 2.4375q0 0.796875 0.21875 1.203125l0 0.09375l-1.515625 0zm-1.25 -1.046875q0.328125 0 0.609375 -0.140625q0.28125 -0.15625 0.421875 -0.40625l0 -0.96875l-0.5625 0q-1.125 0 -1.203125 0.78125l0 0.09375q0 0.28125 0.1875 0.46875q0.203125 0.171875 0.546875 0.171875zm3.4631653 -1.8125q0 -1.3125 0.59375 -2.09375q0.59375 -0.78125 1.609375 -0.78125q0.828125 0 1.359375 0.609375l0 -2.875l1.515625 0l0 8.0l-1.359375 0l-0.078125 -0.59375q-0.5625 0.703125 -1.4375 0.703125q-1.0 0 -1.609375 -0.78125q-0.59375 -0.796875 -0.59375 -2.1875zm1.5 0.109375q0 0.796875 0.28125 1.21875q0.28125 0.421875 0.796875 0.421875q0.703125 0 0.984375 -0.59375l0 -2.21875q-0.28125 -0.59375 -0.96875 -0.59375q-1.09375 0 -1.09375 1.765625zm9.048828 0.078125l0 2.671875l-1.5625 0l0 -7.578125l2.953125 0q0.859375 0 1.5 0.3125q0.65625 0.3125 1.0 0.890625q0.359375 0.578125 0.359375 1.3125q0 1.109375 -0.765625 1.75q-0.765625 0.640625 -2.109375 0.640625l-1.375 0zm0 -1.265625l1.390625 0q0.625 0 0.953125 -0.28125q0.328125 -0.296875 0.328125 -0.84375q0 -0.546875 -0.328125 -0.890625q-0.328125 -0.34375 -0.90625 -0.359375l-1.4375 0l0 2.375zm6.8109894 3.9375l-1.515625 0l0 -5.625l1.515625 0l0 5.625zm-1.609375 -7.09375q0 -0.328125 0.21875 -0.546875q0.234375 -0.21875 0.625 -0.21875q0.390625 0 0.609375 0.21875q0.234375 0.21875 0.234375 0.546875q0 0.34375 -0.234375 0.5625q-0.21875 0.21875 -0.609375 0.21875q-0.375 0 -0.609375 -0.21875q-0.234375 -0.21875 -0.234375 -0.5625zm5.184738 5.984375q0.40625 0 0.671875 -0.21875q0.265625 -0.234375 0.265625 -0.625l1.421875 0q-0.015625 0.578125 -0.328125 1.0625q-0.296875 0.46875 -0.828125 0.734375q-0.53125 0.265625 -1.1875 0.265625q-1.203125 0 -1.90625 -0.765625q-0.6875 -0.78125 -0.6875 -2.125l0 -0.09375q0 -1.3125 0.6875 -2.078125q0.703125 -0.78125 1.90625 -0.78125q1.046875 0 1.6875 0.609375q0.640625 0.59375 0.65625 1.59375l-1.421875 0q0 -0.4375 -0.265625 -0.703125q-0.265625 -0.28125 -0.6875 -0.28125q-0.515625 0 -0.796875 0.390625q-0.265625 0.375 -0.265625 1.234375l0 0.15625q0 0.859375 0.265625 1.25q0.265625 0.375 0.8125 0.375zm5.260193 -1.15625l-0.546875 0.546875l0 1.71875l-1.5 0l0 -8.0l1.5 0l0 4.4375l0.296875 -0.375l1.4375 -1.6875l1.8125 0l-2.046875 2.34375l2.21875 3.28125l-1.734375 0l-1.4375 -2.265625zm5.2392273 2.265625l-1.515625 0l0 -8.0l1.515625 0l0 8.0zm3.8253632 0.109375q-1.234375 0 -2.015625 -0.765625q-0.78125 -0.765625 -0.78125 -2.015625l0 -0.15625q0 -0.84375 0.328125 -1.515625q0.328125 -0.671875 0.921875 -1.03125q0.609375 -0.359375 1.375 -0.359375q1.15625 0 1.8125 0.734375q0.671875 0.71875 0.671875 2.0625l0 0.609375l-3.578125 0q0.0625 0.546875 0.421875 0.890625q0.375 0.328125 0.9375 0.328125q0.875 0 1.359375 -0.625l0.734375 0.828125q-0.328125 0.46875 -0.90625 0.75q-0.578125 0.265625 -1.28125 0.265625zm-0.171875 -4.625q-0.453125 0 -0.734375 0.3125q-0.265625 0.296875 -0.34375 0.859375l2.078125 0l0 -0.125q0 -0.5 -0.265625 -0.765625q-0.265625 -0.28125 -0.734375 -0.28125z" fill-rule="nonzero"/><path fill="#000000" d="m136.25835 265.76437q0 -1.171875 0.3125 -2.25q0.328125 -1.09375 0.953125 -1.96875q0.625 -0.890625 1.28125 -1.25l0.203125 0.625q-0.765625 0.59375 -1.25 1.796875q-0.484375 1.1875 -0.53125 2.671875l0 0.4375q0 2.015625 0.734375 3.484375q0.4375 0.890625 1.046875 1.390625l-0.203125 0.59375q-0.6875 -0.390625 -1.3125 -1.296875q-1.234375 -1.765625 -1.234375 -4.234375zm3.454773 0.21875q0 -1.296875 0.609375 -2.078125q0.609375 -0.796875 1.609375 -0.796875q0.984375 0 1.5625 0.671875l0 -2.9375l0.96875 0l0 8.0l-0.890625 0l-0.046875 -0.609375q-0.578125 0.71875 -1.609375 0.71875q-0.96875 0 -1.59375 -0.796875q-0.609375 -0.8125 -0.609375 -2.09375l0 -0.078125zm0.953125 0.109375q0 0.953125 0.390625 1.5q0.40625 0.53125 1.09375 0.53125q0.921875 0 1.34375 -0.8125l0 -2.59375q-0.4375 -0.796875 -1.328125 -0.796875q-0.703125 0 -1.109375 0.546875q-0.390625 0.546875 -0.390625 1.625zm8.75975 2.75q-0.078125 -0.171875 -0.140625 -0.59375q-0.671875 0.703125 -1.59375 0.703125q-0.828125 0 -1.375 -0.46875q-0.53125 -0.484375 -0.53125 -1.203125q0 -0.875 0.671875 -1.359375q0.671875 -0.484375 1.875 -0.484375l0.9375 0l0 -0.453125q0 -0.5 -0.296875 -0.796875q-0.296875 -0.296875 -0.890625 -0.296875q-0.515625 0 -0.859375 0.265625q-0.34375 0.25 -0.34375 0.625l-0.96875 0q0 -0.421875 0.296875 -0.8125q0.296875 -0.40625 0.8125 -0.625q0.515625 -0.234375 1.125 -0.234375q0.96875 0 1.515625 0.484375q0.5625 0.484375 0.578125 1.34375l0 2.59375q0 0.765625 0.203125 1.234375l0 0.078125l-1.015625 0zm-1.59375 -0.734375q0.453125 0 0.859375 -0.234375q0.40625 -0.234375 0.578125 -0.609375l0 -1.15625l-0.75 0q-1.765625 0 -1.765625 1.03125q0 0.453125 0.296875 0.71875q0.3125 0.25 0.78125 0.25zm5.218292 -6.265625l0 1.375l1.046875 0l0 0.734375l-1.046875 0l0 3.5q0 0.328125 0.140625 0.5q0.140625 0.171875 0.484375 0.171875q0.15625 0 0.453125 -0.0625l0 0.78125q-0.375 0.109375 -0.734375 0.109375q-0.640625 0 -0.96875 -0.390625q-0.328125 -0.390625 -0.328125 -1.109375l0 -3.5l-1.03125 0l0 -0.734375l1.03125 0l0 -1.375l0.953125 0zm5.6528473 7.0q-0.078125 -0.171875 -0.140625 -0.59375q-0.671875 0.703125 -1.59375 0.703125q-0.828125 0 -1.375 -0.46875q-0.53125 -0.484375 -0.53125 -1.203125q0 -0.875 0.671875 -1.359375q0.671875 -0.484375 1.875 -0.484375l0.9375 0l0 -0.453125q0 -0.5 -0.296875 -0.796875q-0.296875 -0.296875 -0.890625 -0.296875q-0.515625 0 -0.859375 0.265625q-0.34375 0.25 -0.34375 0.625l-0.96875 0q0 -0.421875 0.296875 -0.8125q0.296875 -0.40625 0.8125 -0.625q0.515625 -0.234375 1.125 -0.234375q0.96875 0 1.515625 0.484375q0.5625 0.484375 0.578125 1.34375l0 2.59375q0 0.765625 0.203125 1.234375l0 0.078125l-1.015625 0zm-1.59375 -0.734375q0.453125 0 0.859375 -0.234375q0.40625 -0.234375 0.578125 -0.609375l0 -1.15625l-0.75 0q-1.765625 0 -1.765625 1.03125q0 0.453125 0.296875 0.71875q0.3125 0.25 0.78125 0.25zm6.140167 -2.28125q0 1.15625 -0.3125 2.21875q-0.296875 1.0625 -0.921875 1.953125q-0.625 0.90625 -1.3125 1.296875l-0.203125 -0.59375q0.796875 -0.609375 1.28125 -1.90625q0.484375 -1.296875 0.5 -2.875l0 -0.15625q0 -1.09375 -0.234375 -2.03125q-0.21875 -0.953125 -0.640625 -1.6875q-0.40625 -0.75 -0.90625 -1.171875l0.203125 -0.578125q0.6875 0.375 1.296875 1.265625q0.625 0.890625 0.9375 1.96875q0.3125 1.0625 0.3125 2.296875z" fill-rule="nonzero"/><path fill="#000000" fill-opacity="0.0" d="m56.295277 284.71265l0 -52.220474l23.937008 0l0 52.220474z" fill-rule="evenodd"/><path fill="#000000" d="m64.42565 267.61963l5.5 -1.9375l-5.5 -1.9375l0 -2.046875l7.578125 0l0 1.5625l-2.078125 0l-3.5625 -0.15625l5.640625 2.046875l0 1.0625l-5.640625 2.046875l3.5625 -0.15625l2.078125 0l0 1.5625l-7.578125 0l0 -2.046875zm6.015625 -11.66275l0 2.734375l1.5625 0.515625l0 1.671875l-7.578125 -2.828125l0 -1.4375l7.578125 -2.84375l0 1.65625l-1.5625 0.53125zm-1.265625 2.3125l0 -1.890625l-2.828125 0.953125l2.828125 0.9375zm0.15625 -6.7638245l2.671875 0l0 1.5625l-7.578125 0l0 -2.953125q0 -0.859375 0.3125 -1.5q0.3125 -0.65625 0.890625 -1.0q0.578125 -0.359375 1.3125 -0.359375q1.109375 0 1.75 0.765625q0.640625 0.765625 0.640625 2.109375l0 1.375zm-1.265625 0l0 -1.390625q0 -0.625 -0.28125 -0.953125q-0.296875 -0.328125 -0.84375 -0.328125q-0.546875 0 -0.890625 0.328125q-0.34375 0.328125 -0.359375 0.90625l0 1.4375l2.375 0z" fill-rule="nonzero"/><path fill="#eeeeee" d="m56.2953 299.2954l186.98163 0l0 52.91339l-186.98163 0z" fill-rule="evenodd"/><path fill="#000000" fill-opacity="0.0" d="m79.668 299.2954l0 52.91339m140.23622 -52.91339l0 52.91339" fill-rule="evenodd"/><path fill="#000000" fill-opacity="0.0" d="m56.2953 299.2954l186.98163 0l0 52.91339l-186.98163 0z" fill-rule="evenodd"/><path stroke="#595959" stroke-width="1.0" stroke-linejoin="round" stroke-linecap="butt" d="m79.668 299.2954l0 52.91339m140.23622 -52.91339l0 52.91339" fill-rule="evenodd"/><path stroke="#595959" stroke-width="1.0" stroke-linejoin="round" stroke-linecap="butt" d="m56.2953 299.2954l186.98163 0l0 52.91339l-186.98163 0z" fill-rule="evenodd"/><path fill="#000000" d="m112.60808 320.46085q-0.09375 1.234375 -0.90625 1.9375q-0.8125 0.703125 -2.140625 0.703125q-1.453125 0 -2.296875 -0.984375q-0.828125 -0.984375 -0.828125 -2.6875l0 -0.46875q0 -1.09375 0.375 -1.921875q0.390625 -0.84375 1.109375 -1.28125q0.71875 -0.453125 1.65625 -0.453125q1.3125 0 2.109375 0.703125q0.8125 0.703125 0.9375 1.984375l-1.5625 0q-0.0625 -0.734375 -0.421875 -1.0625q-0.34375 -0.34375 -1.0625 -0.34375q-0.78125 0 -1.171875 0.5625q-0.375 0.5625 -0.390625 1.734375l0 0.578125q0 1.21875 0.359375 1.796875q0.375 0.5625 1.1875 0.5625q0.71875 0 1.078125 -0.328125q0.359375 -0.328125 0.40625 -1.03125l1.5625 0zm3.831726 -0.234375l-1.25 0l0 2.765625l-1.5625 0l0 -7.578125l2.8125 0q1.34375 0 2.078125 0.609375q0.734375 0.59375 0.734375 1.6875q0 0.765625 -0.34375 1.296875q-0.328125 0.515625 -1.015625 0.8125l1.640625 3.09375l0 0.078125l-1.671875 0l-1.421875 -2.765625zm-1.25 -1.265625l1.265625 0q0.578125 0 0.90625 -0.296875q0.328125 -0.3125 0.328125 -0.828125q0 -0.546875 -0.3125 -0.84375q-0.296875 -0.3125 -0.9375 -0.3125l-1.25 0l0 2.28125zm9.800644 0.75l-3.0 0l0 2.03125l3.515625 0l0 1.25l-5.078125 0l0 -7.578125l5.078125 0l0 1.265625l-3.515625 0l0 1.8125l3.0 0l0 1.21875zm5.7128906 1.71875l-2.734375 0l-0.515625 1.5625l-1.671875 0l2.828125 -7.578125l1.4375 0l2.84375 7.578125l-1.65625 0l-0.53125 -1.5625zm-2.3125 -1.265625l1.890625 0l-0.953125 -2.828125l-0.9375 2.828125zm10.279449 -3.484375l-2.3125 0l0 6.3125l-1.5625 0l0 -6.3125l-2.296875 0l0 -1.265625l6.171875 0l0 1.265625zm5.451889 3.03125l-3.0 0l0 2.03125l3.515625 0l0 1.25l-5.078125 0l0 -7.578125l5.078125 0l0 1.265625l-3.515625 0l0 1.8125l3.0 0l0 1.21875zm9.475922 -3.03125l-2.3125 0l0 6.3125l-1.5625 0l0 -6.3125l-2.296875 0l0 -1.265625l6.171875 0l0 1.265625zm5.451889 3.21875l-3.0 0l0 3.09375l-1.5625 0l0 -7.578125l4.9375 0l0 1.265625l-3.375 0l0 1.953125l3.0 0l0 1.265625zm4.088043 0.328125l-1.25 0l0 2.765625l-1.5625 0l0 -7.578125l2.8125 0q1.34375 0 2.078125 0.609375q0.734375 0.59375 0.734375 1.6875q0 0.765625 -0.34375 1.296875q-0.328125 0.515625 -1.015625 0.8125l1.640625 3.09375l0 0.078125l-1.671875 0l-1.421875 -2.765625zm-1.25 -1.265625l1.265625 0q0.578125 0 0.90625 -0.296875q0.328125 -0.3125 0.328125 -0.828125q0 -0.546875 -0.3125 -0.84375q-0.296875 -0.3125 -0.9375 -0.3125l-1.25 0l0 2.28125zm7.738144 4.140625q-1.234375 0 -2.015625 -0.765625q-0.78125 -0.765625 -0.78125 -2.015625l0 -0.15625q0 -0.84375 0.328125 -1.515625q0.328125 -0.671875 0.921875 -1.03125q0.609375 -0.359375 1.375 -0.359375q1.15625 0 1.8125 0.734375q0.671875 0.71875 0.671875 2.0625l0 0.609375l-3.578125 0q0.0625 0.546875 0.421875 0.890625q0.375 0.328125 0.9375 0.328125q0.875 0 1.359375 -0.625l0.734375 0.828125q-0.328125 0.46875 -0.90625 0.75q-0.578125 0.265625 -1.28125 0.265625zm-0.171875 -4.625q-0.453125 0 -0.734375 0.3125q-0.265625 0.296875 -0.34375 0.859375l2.078125 0l0 -0.125q0 -0.5 -0.265625 -0.765625q-0.265625 -0.28125 -0.734375 -0.28125zm5.6818695 3.40625q0.40625 0 0.671875 -0.21875q0.265625 -0.234375 0.265625 -0.625l1.421875 0q-0.015625 0.578125 -0.328125 1.0625q-0.296875 0.46875 -0.828125 0.734375q-0.53125 0.265625 -1.1875 0.265625q-1.203125 0 -1.90625 -0.765625q-0.6875 -0.78125 -0.6875 -2.125l0 -0.09375q0 -1.3125 0.6875 -2.078125q0.703125 -0.78125 1.90625 -0.78125q1.046875 0 1.6875 0.609375q0.640625 0.59375 0.65625 1.59375l-1.421875 0q0 -0.4375 -0.265625 -0.703125q-0.265625 -0.28125 -0.6875 -0.28125q-0.515625 0 -0.796875 0.390625q-0.265625 0.375 -0.265625 1.234375l0 0.15625q0 0.859375 0.265625 1.25q0.265625 0.375 0.8125 0.375zm2.9789429 -1.75q0 -0.84375 0.3125 -1.5q0.328125 -0.65625 0.9375 -1.015625q0.609375 -0.359375 1.40625 -0.359375q1.140625 0 1.859375 0.703125q0.71875 0.6875 0.8125 1.890625l0 0.390625q0 1.28125 -0.71875 2.078125q-0.71875 0.78125 -1.9375 0.78125q-1.21875 0 -1.953125 -0.78125q-0.71875 -0.78125 -0.71875 -2.125l0 -0.0625zm1.5 0.109375q0 0.796875 0.296875 1.21875q0.3125 0.421875 0.875 0.421875q0.546875 0 0.84375 -0.421875q0.3125 -0.421875 0.3125 -1.328125q0 -0.796875 -0.3125 -1.21875q-0.296875 -0.4375 -0.859375 -0.4375q-0.546875 0 -0.859375 0.4375q-0.296875 0.421875 -0.296875 1.328125zm7.915985 -1.46875q-0.296875 -0.046875 -0.53125 -0.046875q-0.859375 0 -1.125 0.578125l0 3.6875l-1.5 0l0 -5.625l1.421875 0l0.046875 0.671875q0.453125 -0.78125 1.25 -0.78125q0.25 0 0.46875 0.0625l-0.03125 1.453125zm0.3972473 1.359375q0 -1.3125 0.59375 -2.09375q0.59375 -0.78125 1.609375 -0.78125q0.828125 0 1.359375 0.609375l0 -2.875l1.515625 0l0 8.0l-1.359375 0l-0.078125 -0.59375q-0.5625 0.703125 -1.4375 0.703125q-1.0 0 -1.609375 -0.78125q-0.59375 -0.796875 -0.59375 -2.1875zm1.5 0.109375q0 0.796875 0.28125 1.21875q0.28125 0.421875 0.796875 0.421875q0.703125 0 0.984375 -0.59375l0 -2.21875q-0.28125 -0.59375 -0.96875 -0.59375q-1.09375 0 -1.09375 1.765625z" fill-rule="nonzero"/><path fill="#000000" d="m146.80013 332.91397q0 -1.171875 0.3125 -2.25q0.328125 -1.09375 0.953125 -1.96875q0.625 -0.890625 1.28125 -1.25l0.203125 0.625q-0.765625 0.59375 -1.25 1.796875q-0.484375 1.1875 -0.53125 2.671875l0 0.4375q0 2.015625 0.734375 3.484375q0.4375 0.890625 1.046875 1.390625l-0.203125 0.59375q-0.6875 -0.390625 -1.3125 -1.296875q-1.234375 -1.765625 -1.234375 -4.234375zm5.907898 0.0625q0 1.15625 -0.3125 2.21875q-0.296875 1.0625 -0.921875 1.953125q-0.625 0.90625 -1.3125 1.296875l-0.203125 -0.59375q0.796875 -0.609375 1.28125 -1.90625q0.484375 -1.296875 0.5 -2.875l0 -0.15625q0 -1.09375 -0.234375 -2.03125q-0.21875 -0.953125 -0.640625 -1.6875q-0.40625 -0.75 -0.90625 -1.171875l0.203125 -0.578125q0.6875 0.375 1.296875 1.265625q0.625 0.890625 0.9375 1.96875q0.3125 1.0625 0.3125 2.296875z" fill-rule="nonzero"/><path fill="#000000" fill-opacity="0.0" d="m56.295277 351.86224l0 -52.22046l23.937008 0l0 52.22046z" fill-rule="evenodd"/><path fill="#000000" d="m64.42565 334.76923l5.5 -1.9375l-5.5 -1.9375l0 -2.046875l7.578125 0l0 1.5625l-2.078125 0l-3.5625 -0.15625l5.640625 2.046875l0 1.0625l-5.640625 2.046875l3.5625 -0.15625l2.078125 0l0 1.5625l-7.578125 0l0 -2.046875zm6.015625 -11.66275l0 2.734375l1.5625 0.515625l0 1.671875l-7.578125 -2.828125l0 -1.4375l7.578125 -2.84375l0 1.65625l-1.5625 0.53125zm-1.265625 2.3125l0 -1.890625l-2.828125 0.953125l2.828125 0.9375zm0.15625 -6.7638245l2.671875 0l0 1.5625l-7.578125 0l0 -2.953125q0 -0.859375 0.3125 -1.5q0.3125 -0.65625 0.890625 -1.0q0.578125 -0.359375 1.3125 -0.359375q1.109375 0 1.75 0.765625q0.640625 0.765625 0.640625 2.109375l0 1.375zm-1.265625 0l0 -1.390625q0 -0.625 -0.28125 -0.953125q-0.296875 -0.328125 -0.84375 -0.328125q-0.546875 0 -0.890625 0.328125q-0.34375 0.328125 -0.359375 0.90625l0 1.4375l2.375 0z" fill-rule="nonzero"/><path fill="#000000" fill-opacity="0.0" d="m243.27693 325.7521l18.619003 0l0 -0.4409485l18.609344 0" fill-rule="evenodd"/><path stroke="#595959" stroke-width="1.0" stroke-linejoin="round" stroke-linecap="butt" d="m243.27692 325.7521l18.619019 0l0 -0.4409485l15.182251 0" fill-rule="evenodd"/><path fill="#595959" stroke="#595959" stroke-width="1.0" stroke-linecap="butt" d="m277.0782 325.31116l-1.1245728 1.1246033l3.0897522 -1.1246033l-3.0897522 -1.1245728z" fill-rule="evenodd"/><path fill="#000000" fill-opacity="0.0" d="m243.27693 191.4529l25.00084 0l0 33.748047l-236.9826 0l0 33.401566l24.989626 0" fill-rule="evenodd"/><path stroke="#595959" stroke-width="1.0" stroke-linejoin="round" stroke-linecap="butt" d="m243.27692 191.4529l25.000854 0l0 33.74803l-236.9826 0l0 33.40158l21.562538 0" fill-rule="evenodd"/><path fill="#595959" stroke="#595959" stroke-width="1.0" stroke-linecap="butt" d="m52.85771 258.6025l-1.1245842 1.1245728l3.0897675 -1.1245728l-3.0897675 -1.1245728z" fill-rule="evenodd"/><path fill="#000000" fill-opacity="0.0" d="m243.27693 258.6025l25.00084 0l0 33.748047l-236.9826 0l0 33.40155l24.989626 0" fill-rule="evenodd"/><path stroke="#595959" stroke-width="1.0" stroke-linejoin="round" stroke-linecap="butt" d="m243.27692 258.6025l25.000854 0l0 33.748016l-236.9826 0l0 33.40158l21.562538 0" fill-rule="evenodd"/><path fill="#595959" stroke="#595959" stroke-width="1.0" stroke-linecap="butt" d="m52.85771 325.7521l-1.1245842 1.1246033l3.0897675 -1.1246033l-3.0897675 -1.1245728z" fill-rule="evenodd"/><path fill="#000000" fill-opacity="0.0" d="m243.27693 122.00801l25.00084 0l0 33.748047l-236.9826 0l0 33.401566l24.989626 0" fill-rule="evenodd"/><path stroke="#595959" stroke-width="1.0" stroke-linejoin="round" stroke-linecap="butt" d="m243.27692 122.00801l25.000854 0l0 33.748047l-236.9826 0l0 33.401566l21.562538 0" fill-rule="evenodd"/><path fill="#595959" stroke="#595959" stroke-width="1.0" stroke-linecap="butt" d="m52.85771 189.15762l-1.1245842 1.124588l3.0897675 -1.124588l-3.0897675 -1.124588z" fill-rule="evenodd"/><path fill="#000000" fill-opacity="0.0" d="m214.73788 32.93674l24.99971 0l0 44.28509l-208.44028 0l0 44.628296l24.983866 0" fill-rule="evenodd"/><path stroke="#595959" stroke-width="1.0" stroke-linejoin="round" stroke-linecap="butt" d="m214.73788 32.93674l24.99971 0l0 44.28509l-208.44028 0l0 44.628296l21.556776 0" fill-rule="evenodd"/><path fill="#595959" stroke="#595959" stroke-width="1.0" stroke-linecap="butt" d="m52.854103 121.85013l-1.1245842 1.1245804l3.0897675 -1.1245804l-3.0897675 -1.124588z" fill-rule="evenodd"/></g></svg>