<svg version="1.1" viewBox="0.0 0.0 557.4803149606299 171.75853018372703" fill="none" stroke="none" stroke-linecap="square" stroke-miterlimit="10" xmlns:xlink="http://www.w3.org/1999/xlink" xmlns="http://www.w3.org/2000/svg"><clipPath id="p.0"><path d="m0 0l557.4803 0l0 171.75853l-557.4803 0l0 -171.75853z" clip-rule="nonzero"/></clipPath><g clip-path="url(#p.0)"><path fill="#000000" fill-opacity="0.0" d="m0 0l557.4803 0l0 171.75853l-557.4803 0z" fill-rule="evenodd"/><path fill="#000000" fill-opacity="0.0" d="m6.454068 60.939632l546.6142 0l0 103.590546l-546.6142 0z" fill-rule="evenodd"/><path stroke="#595959" stroke-width="1.0" stroke-linejoin="round" stroke-linecap="butt" stroke-dasharray="1.0,3.0" d="m6.454068 60.939632l546.6142 0l0 103.590546l-546.6142 0z" fill-rule="evenodd"/><path fill="#eeeeee" d="m179.50658 100.4437l186.98164 0l0 52.913383l-186.98164 0z" fill-rule="evenodd"/><path fill="#000000" fill-opacity="0.0" d="m202.87929 100.4437l0 52.913383m140.23622 -52.913383l0 52.913383" fill-rule="evenodd"/><path fill="#000000" fill-opacity="0.0" d="m179.50658 100.4437l186.98164 0l0 52.913383l-186.98164 0z" fill-rule="evenodd"/><path stroke="#595959" stroke-width="1.0" stroke-linejoin="round" stroke-linecap="butt" d="m202.87929 100.4437l0 52.913383m140.23622 -52.913383l0 52.913383" fill-rule="evenodd"/><path stroke="#595959" stroke-width="1.0" stroke-linejoin="round" stroke-linecap="butt" d="m179.50658 100.4437l186.98164 0l0 52.913383l-186.98164 0z" fill-rule="evenodd"/><path fill="#000000" d="m234.60144 121.609146q-0.09375 1.234375 -0.90625 1.9375q-0.8125 0.703125 -2.140625 0.703125q-1.453125 0 -2.296875 -0.984375q-0.828125 -0.984375 -0.828125 -2.6875l0 -0.46875q0 -1.09375 0.375 -1.921875q0.390625 -0.84375 1.109375 -1.28125q0.71875 -0.453125 1.65625 -0.453125q1.3125 0 2.109375 0.703125q0.8125 0.703125 0.9375 1.984375l-1.5625 0q-0.0625 -0.734375 -0.421875 -1.0625q-0.34375 -0.34375 -1.0625 -0.34375q-0.78125 0 -1.171875 0.5625q-0.375 0.5625 -0.390625 1.734375l0 0.578125q0 1.21875 0.359375 1.796875q0.375 0.5625 1.1875 0.5625q0.71875 0 1.078125 -0.328125q0.359375 -0.328125 0.40625 -1.03125l1.5625 0zm7.253601 -1.078125q0 1.109375 -0.40625 1.953125q-0.390625 0.84375 -1.125 1.3125q-0.734375 0.453125 -1.6875 0.453125q-0.953125 0 -1.6875 -0.453125q-0.734375 -0.453125 -1.140625 -1.296875q-0.40625 -0.84375 -0.40625 -1.9375l0 -0.375q0 -1.109375 0.390625 -1.953125q0.40625 -0.859375 1.140625 -1.3125q0.734375 -0.46875 1.6875 -0.46875q0.953125 0 1.6875 0.46875q0.734375 0.453125 1.140625 1.3125q0.40625 0.84375 0.40625 1.953125l0 0.34375zm-1.59375 -0.34375q0 -1.203125 -0.421875 -1.8125q-0.421875 -0.625 -1.21875 -0.625q-0.78125 0 -1.21875 0.609375q-0.421875 0.609375 -0.421875 1.796875l0 0.375q0 1.15625 0.421875 1.796875q0.421875 0.640625 1.234375 0.640625q0.78125 0 1.203125 -0.609375q0.421875 -0.625 0.421875 -1.8125l0 -0.359375zm11.370422 3.0q-0.421875 0.5 -1.203125 0.78125q-0.765625 0.28125 -1.703125 0.28125q-0.984375 0 -1.71875 -0.421875q-0.734375 -0.4375 -1.140625 -1.25q-0.40625 -0.828125 -0.421875 -1.921875l0 -0.515625q0 -1.140625 0.375 -1.96875q0.390625 -0.828125 1.109375 -1.265625q0.71875 -0.453125 1.6875 -0.453125q1.359375 0 2.109375 0.65625q0.765625 0.640625 0.90625 1.859375l-1.515625 0q-0.109375 -0.640625 -0.46875 -0.9375q-0.359375 -0.3125 -0.984375 -0.3125q-0.796875 0 -1.21875 0.609375q-0.40625 0.59375 -0.40625 1.765625l0 0.484375q0 1.1875 0.453125 1.796875q0.453125 0.609375 1.328125 0.609375q0.875 0 1.25 -0.375l0 -1.296875l-1.421875 0l0 -1.15625l2.984375 0l0 3.03125zm4.0710297 -1.8125l-1.25 0l0 2.765625l-1.5625 0l0 -7.578125l2.8125 0q1.3437347 0 2.0781097 0.609375q0.734375 0.59375 0.734375 1.6875q0 0.765625 -0.34375 1.296875q-0.328125 0.515625 -1.015625 0.8125l1.640625 3.09375l0 0.078125l-1.671875 0l-1.4218597 -2.765625zm-1.25 -1.265625l1.265625 0q0.57810974 0 0.90623474 -0.296875q0.328125 -0.3125 0.328125 -0.828125q0 -0.546875 -0.3125 -0.84375q-0.296875 -0.3125 -0.93748474 -0.3125l-1.25 0l0 2.28125zm11.472519 0.421875q0 1.109375 -0.40625 1.953125q-0.390625 0.84375 -1.125 1.3125q-0.734375 0.453125 -1.6875 0.453125q-0.953125 0 -1.6875 -0.453125q-0.734375 -0.453125 -1.140625 -1.296875q-0.40625 -0.84375 -0.40625 -1.9375l0 -0.375q0 -1.109375 0.390625 -1.953125q0.40625 -0.859375 1.140625 -1.3125q0.734375 -0.46875 1.6875 -0.46875q0.953125 0 1.6875 0.46875q0.734375 0.453125 1.140625 1.3125q0.40625 0.84375 0.40625 1.953125l0 0.34375zm-1.59375 -0.34375q0 -1.203125 -0.421875 -1.8125q-0.421875 -0.625 -1.21875 -0.625q-0.78125 0 -1.21875 0.609375q-0.421875 0.609375 -0.421875 1.796875l0 0.375q0 1.15625 0.421875 1.796875q0.421875 0.640625 1.234375 0.640625q0.78125 0 1.203125 -0.609375q0.421875 -0.625 0.421875 -1.8125l0 -0.359375zm8.451141 -3.625l0 4.984375q0 1.25 -0.78125 1.984375q-0.765625 0.71875 -2.125 0.71875q-1.3125 0 -2.09375 -0.703125q-0.78125 -0.703125 -0.796875 -1.9375l0 -5.046875l1.5625 0l0 5.0q0 0.75 0.34375 1.09375q0.359375 0.328125 0.984375 0.328125q1.328125 0 1.34375 -1.375l0 -5.046875l1.5625 0zm2.842102 4.90625l0 2.671875l-1.5625 0l0 -7.578125l2.953125 0q0.859375 0 1.5 0.3125q0.65625 0.3125 1.0 0.890625q0.359375 0.578125 0.359375 1.3125q0 1.109375 -0.765625 1.75q-0.765625 0.640625 -2.109375 0.640625l-1.375 0zm0 -1.265625l1.390625 0q0.625 0 0.953125 -0.28125q0.328125 -0.296875 0.328125 -0.84375q0 -0.546875 -0.328125 -0.890625q-0.328125 -0.34375 -0.90625 -0.359375l-1.4375 0l0 2.375zm7.96463 3.9375l0 -7.578125l2.65625 0q1.375 0 2.09375 0.53125q0.71875 0.53125 0.71875 1.546875q0 0.5625 -0.296875 0.984375q-0.28125 0.421875 -0.796875 0.625q0.59375 0.140625 0.921875 0.59375q0.34375 0.4375 0.34375 1.0625q0 1.09375 -0.703125 1.65625q-0.703125 0.5625 -1.984375 0.578125l-2.953125 0zm1.5625 -3.296875l0 2.046875l1.34375 0q0.546875 0 0.859375 -0.265625q0.3125 -0.265625 0.3125 -0.734375q0 -1.03125 -1.078125 -1.046875l-1.4375 0zm0 -1.109375l1.15625 0q1.1875 -0.015625 1.1875 -0.9375q0 -0.515625 -0.3125 -0.734375q-0.296875 -0.234375 -0.9375 -0.234375l-1.09375 0l0 1.90625zm7.5610657 0.25l1.578125 -3.421875l1.71875 0l-2.5 4.828125l0 2.75l-1.578125 0l0 -2.75l-2.484375 -4.828125l1.703125 0l1.5625 3.421875zm9.006592 1.125l-0.8125 0.859375l0 2.171875l-1.5625 0l0 -7.578125l1.5625 0l0 3.4375l0.6875 -0.9375l1.9375 -2.5l1.921875 0l-2.703125 3.375l2.78125 4.203125l-1.859375 0l-1.953125 -3.03125zm8.951721 -0.25l-3.0 0l0 2.03125l3.515625 0l0 1.25l-5.078125 0l0 -7.578125l5.078125 0l0 1.265625l-3.515625 0l0 1.8125l3.0 0l0 1.21875zm4.0410156 -0.875l1.578125 -3.421875l1.71875 0l-2.5 4.828125l0 2.75l-1.578125 0l0 -2.75l-2.484375 -4.828125l1.703125 0l1.5625 3.421875z" fill-rule="nonzero"/><path fill="#000000" d="m214.56564 133.62477l-0.921875 0.953125l0 2.5625l-1.0 0l0 -7.578125l1.0 0l0 3.75l3.375 -3.75l1.203125 0l-2.984375 3.34375l3.21875 4.234375l-1.203125 0l-2.6875 -3.515625zm7.274719 2.1875l2.15625 -6.25l1.09375 0l-2.8125 7.578125l-0.875 0l-2.8125 -7.578125l1.09375 0l2.15625 6.25zm4.764206 -2.015625l3.25 1.3125l0 1.015625l-4.25 -1.96875l0 -0.765625l4.25 -1.96875l0 1.03125l-3.25 1.34375zm9.19783 -0.15625l-3.28125 0l0 2.6875l3.8125 0l0 0.8125l-4.8125 0l0 -7.578125l4.765625 0l0 0.828125l-3.765625 0l0 2.4375l3.28125 0l0 0.8125zm6.3847046 0.75q0 1.28125 -0.59375 2.078125q-0.578125 0.78125 -1.59375 0.78125q-1.015625 0 -1.609375 -0.65625l0 2.71875l-0.953125 0l0 -7.796875l0.875 0l0.046875 0.625q0.59375 -0.734375 1.625 -0.734375q1.015625 0 1.609375 0.765625q0.59375 0.765625 0.59375 2.125l0 0.09375zm-0.96875 -0.109375q0 -0.953125 -0.40625 -1.5q-0.40625 -0.5625 -1.109375 -0.5625q-0.875 0 -1.3125 0.78125l0 2.6875q0.4375 0.765625 1.328125 0.765625q0.6875 0 1.09375 -0.546875q0.40625 -0.546875 0.40625 -1.625zm1.9316559 0q0 -0.828125 0.328125 -1.484375q0.328125 -0.671875 0.90625 -1.03125q0.578125 -0.359375 1.328125 -0.359375q1.140625 0 1.84375 0.796875q0.71875 0.796875 0.71875 2.125l0 0.0625q0 0.8125 -0.3125 1.46875q-0.3125 0.65625 -0.90625 1.03125q-0.578125 0.359375 -1.34375 0.359375q-1.140625 0 -1.859375 -0.796875q-0.703125 -0.796875 -0.703125 -2.109375l0 -0.0625zm0.96875 0.109375q0 0.9375 0.4375 1.5q0.4375 0.5625 1.15625 0.5625q0.734375 0 1.171875 -0.5625q0.4375 -0.578125 0.4375 -1.609375q0 -0.9375 -0.453125 -1.5q-0.4375 -0.578125 -1.15625 -0.578125q-0.71875 0 -1.15625 0.5625q-0.4375 0.5625 -0.4375 1.625zm7.6242676 2.0625q0.515625 0 0.890625 -0.3125q0.390625 -0.3125 0.4375 -0.78125l0.90625 0q-0.015625 0.484375 -0.328125 0.921875q-0.3125 0.4375 -0.828125 0.703125q-0.5 0.265625 -1.078125 0.265625q-1.140625 0 -1.828125 -0.765625q-0.671875 -0.78125 -0.671875 -2.109375l0 -0.15625q0 -0.828125 0.296875 -1.46875q0.296875 -0.640625 0.859375 -0.984375q0.578125 -0.359375 1.34375 -0.359375q0.9375 0 1.5625 0.578125q0.640625 0.5625 0.671875 1.46875l-0.90625 0q-0.046875 -0.546875 -0.421875 -0.890625q-0.359375 -0.359375 -0.90625 -0.359375q-0.734375 0 -1.140625 0.53125q-0.40625 0.515625 -0.40625 1.515625l0 0.1875q0 0.96875 0.40625 1.5q0.40625 0.515625 1.140625 0.515625zm4.2809906 -4.265625q0.640625 -0.78125 1.671875 -0.78125q1.78125 0 1.796875 2.015625l0 3.71875l-0.96875 0l0 -3.71875q0 -0.609375 -0.28125 -0.90625q-0.265625 -0.296875 -0.84375 -0.296875q-0.46875 0 -0.828125 0.25q-0.34375 0.25 -0.546875 0.65625l0 4.015625l-0.95310974 0l0 -8.0l0.95310974 0l0 3.046875zm4.8848877 6.46875l-0.546875 -0.375q0.484375 -0.6875 0.5 -1.40625l0 -0.875l0.953125 0l0 0.75q0 0.53125 -0.265625 1.046875q-0.25 0.53125 -0.640625 0.859375zm5.901642 -4.484375l0 2.96875l-1.0 0l0 -7.578125l2.796875 0q1.25 0 1.953125 0.640625q0.703125 0.625 0.703125 1.671875q0 1.109375 -0.6875 1.703125q-0.6875 0.59375 -1.984375 0.59375l-1.78125 0zm0 -0.8125l1.796875 0q0.796875 0 1.21875 -0.375q0.4375 -0.375 0.4375 -1.09375q0 -0.671875 -0.4375 -1.078125q-0.421875 -0.40625 -1.15625 -0.421875l-1.859375 0l0 2.96875zm6.80072 3.78125l-1.0 0l0 -7.578125l1.0 0l0 7.578125zm7.3981934 -2.40625q-0.140625 1.203125 -0.890625 1.859375q-0.75 0.65625 -1.984375 0.65625q-1.34375 0 -2.15625 -0.96875q-0.796875 -0.96875 -0.796875 -2.578125l0 -0.71875q0 -1.0625 0.375 -1.859375q0.375 -0.8125 1.0625 -1.234375q0.6875 -0.4375 1.609375 -0.4375q1.203125 0 1.921875 0.6875q0.734375 0.671875 0.859375 1.859375l-1.0 0q-0.140625 -0.90625 -0.578125 -1.3125q-0.421875 -0.40625 -1.203125 -0.40625q-0.96875 0 -1.515625 0.71875q-0.53125 0.703125 -0.53125 2.0l0 0.734375q0 1.234375 0.515625 1.96875q0.515625 0.71875 1.4375 0.71875q0.828125 0 1.265625 -0.375q0.453125 -0.375 0.609375 -1.3125l1.0 0zm3.2796936 -1.109375l-0.921875 0.953125l0 2.5625l-1.0 0l0 -7.578125l1.0 0l0 3.75l3.375 -3.75l1.203125 0l-2.984375 3.34375l3.21875 4.234375l-1.203125 0l-2.6875 -3.515625zm5.774719 2.703125l3.578125 0l0 0.8125l-4.59375 0l0 -7.578125l1.015625 0l0 6.765625zm8.999603 -2.6875l-3.28125 0l0 2.6875l3.8125 0l0 0.8125l-4.8125 0l0 -7.578125l4.765625 0l0 0.828125l-3.765625 0l0 2.4375l3.28125 0l0 0.8125zm4.4133606 3.5l0 -7.578125l2.140625 0q0.984375 0 1.75 0.4375q0.765625 0.4375 1.171875 1.25q0.421875 0.796875 0.421875 1.84375l0 0.484375q0 1.078125 -0.421875 1.890625q-0.40625 0.796875 -1.171875 1.234375q-0.765625 0.421875 -1.796875 0.4375l-2.09375 0zm1.0 -6.75l0 5.9375l1.046875 0q1.15625 0 1.796875 -0.71875q0.65625 -0.71875 0.65625 -2.046875l0 -0.4375q0 -1.296875 -0.609375 -2.015625q-0.609375 -0.71875 -1.71875 -0.71875l-1.171875 0zm10.066101 4.765625l-3.171875 0l-0.71875 1.984375l-1.03125 0l2.890625 -7.578125l0.875 0l2.90625 7.578125l-1.03125 0l-0.71875 -1.984375zm-2.875 -0.8125l2.578125 0l-1.296875 -3.546875l-1.28125 3.546875zm10.201538 -3.953125l-2.4375 0l0 6.75l-0.984375 0l0 -6.75l-2.4375 0l0 -0.828125l5.859375 0l0 0.828125zm4.9000244 4.765625l-3.171875 0l-0.71875 1.984375l-1.03125 0l2.890625 -7.578125l0.875 0l2.90625 7.578125l-1.03125 0l-0.71875 -1.984375zm-2.875 -0.8125l2.578125 0l-1.296875 -3.546875l-1.28125 3.546875zm8.904663 -0.578125l-3.4375 -1.359375l0 -0.984375l4.4375 1.96875l0 0.765625l-4.4375 1.96875l0 -1.0l3.4375 -1.359375z" fill-rule="nonzero"/><path fill="#000000" fill-opacity="0.0" d="m179.49606 153.01054l0 -52.220467l23.937012 0l0 52.220467z" fill-rule="evenodd"/><path fill="#000000" d="m192.67331 145.0922q1.234375 0.09375 1.9375 0.90625q0.703125 0.8125 0.703125 2.140625q0 1.453125 -0.984375 2.296875q-0.984375 0.828125 -2.6875 0.828125l-0.46875 0q-1.09375 0 -1.921875 -0.375q-0.84375 -0.390625 -1.28125 -1.109375q-0.453125 -0.71875 -0.453125 -1.65625q0 -1.3125 0.703125 -2.109375q0.703125 -0.8125 1.984375 -0.9375l0 1.5625q-0.734375 0.0625 -1.0625 0.421875q-0.34375 0.34375 -0.34375 1.0625q0 0.78125 0.5625 1.171875q0.5625 0.375 1.734375 0.390625l0.578125 0q1.21875 0 1.796875 -0.359375q0.5625 -0.375 0.5625 -1.1875q0 -0.71875 -0.328125 -1.078125q-0.328125 -0.359375 -1.03125 -0.40625l0 -1.5625zm-1.078125 -7.253601q1.109375 0 1.953125 0.40625q0.84375 0.390625 1.3125 1.125q0.453125 0.734375 0.453125 1.6875q0 0.953125 -0.453125 1.6875q-0.453125 0.734375 -1.296875 1.140625q-0.84375 0.40625 -1.9375 0.40625l-0.375 0q-1.109375 0 -1.953125 -0.390625q-0.859375 -0.40625 -1.3125 -1.140625q-0.46875 -0.734375 -0.46875 -1.6875q0 -0.953125 0.46875 -1.6875q0.453125 -0.734375 1.3125 -1.140625q0.84375 -0.40625 1.953125 -0.40625l0.34375 0zm-0.34375 1.59375q-1.203125 0 -1.8125 0.421875q-0.625 0.421875 -0.625 1.21875q0 0.78125 0.609375 1.21875q0.609375 0.421875 1.796875 0.421875l0.375 0q1.15625 0 1.796875 -0.421875q0.640625 -0.421875 0.640625 -1.234375q0 -0.78125 -0.609375 -1.203125q-0.625 -0.421875 -1.8125 -0.421875l-0.359375 0zm3.0 -8.716766q0.5 0.421875 0.78125 1.203125q0.28125 0.765625 0.28125 1.703125q0 0.984375 -0.421875 1.71875q-0.4375 0.734375 -1.25 1.140625q-0.828125 0.40625 -1.921875 0.421875l-0.515625 0q-1.140625 0 -1.96875 -0.375q-0.828125 -0.390625 -1.265625 -1.109375q-0.453125 -0.71875 -0.453125 -1.6875q0 -1.359375 0.65625 -2.109375q0.640625 -0.765625 1.859375 -0.90625l0 1.515625q-0.640625 0.109375 -0.9375 0.46875q-0.3125 0.359375 -0.3125 0.984375q0 0.796875 0.609375 1.21875q0.59375 0.40625 1.765625 0.40625l0.484375 0q1.1875 0 1.796875 -0.453125q0.609375 -0.453125 0.609375 -1.328125q0 -0.875 -0.375 -1.25l-1.296875 0l0 1.421875l-1.15625 0l0 -2.984375l3.03125 0zm-1.8125 -4.071022l0 1.25l2.765625 0l0 1.5624924l-7.578125 0l0 -2.8124924q0 -1.34375 0.609375 -2.078125q0.59375 -0.734375 1.6875 -0.734375q0.765625 0 1.296875 0.34375q0.515625 0.328125 0.8125 1.015625l3.09375 -1.640625l0.078125 0l0 1.671875l-2.765625 1.421875zm-1.265625 1.25l0 -1.265625q0 -0.578125 -0.296875 -0.90625q-0.3125 -0.328125 -0.828125 -0.328125q-0.546875 0 -0.84375 0.3125q-0.3125 0.296875 -0.3125 0.9375l0 1.25l2.28125 0zm0.421875 -11.472519q1.109375 0 1.953125 0.40625q0.84375 0.390625 1.3125 1.125q0.453125 0.734375 0.453125 1.6875q0 0.953125 -0.453125 1.6875q-0.453125 0.734375 -1.296875 1.140625q-0.84375 0.40625 -1.9375 0.40625l-0.375 0q-1.109375 0 -1.953125 -0.390625q-0.859375 -0.40625 -1.3125 -1.140625q-0.46875 -0.734375 -0.46875 -1.6875q0 -0.953125 0.46875 -1.6875q0.453125 -0.734375 1.3125 -1.140625q0.84375 -0.40625 1.953125 -0.40625l0.34375 0zm-0.34375 1.59375q-1.203125 0 -1.8125 0.421875q-0.625 0.421875 -0.625 1.21875q0 0.78125 0.609375 1.21875q0.609375 0.421875 1.796875 0.421875l0.375 0q1.15625 0 1.796875 -0.421875q0.640625 -0.421875 0.640625 -1.234375q0 -0.78125 -0.609375 -1.203125q-0.625 -0.421875 -1.8125 -0.421875l-0.359375 0zm-3.625 -8.451141l4.984375 0q1.25 0 1.984375 0.78125q0.71875 0.765625 0.71875 2.125q0 1.3125 -0.703125 2.09375q-0.703125 0.78125 -1.9375 0.796875l-5.046875 0l0 -1.5625l5.0 0q0.75 0 1.09375 -0.34375q0.328125 -0.359375 0.328125 -0.984375q0 -1.328125 -1.375 -1.34375l-5.046875 0l0 -1.5625zm4.90625 -2.842102l2.671875 0l0 1.5625l-7.578125 0l0 -2.953125q0 -0.859375 0.3125 -1.5q0.3125 -0.65625 0.890625 -1.0q0.578125 -0.359375 1.3125 -0.359375q1.109375 0 1.75 0.765625q0.640625 0.765625 0.640625 2.109375l0 1.375zm-1.265625 0l0 -1.390625q0 -0.625 -0.28125 -0.953125q-0.296875 -0.328125 -0.84375 -0.328125q-0.546875 0 -0.890625 0.328125q-0.34375 0.328125 -0.359375 0.90625l0 1.4375l2.375 0z" fill-rule="nonzero"/><path fill="#000000" fill-opacity="0.0" d="m121.71391 25.393702l28.891281 0l0 101.51181l28.903992 0" fill-rule="evenodd"/><path stroke="#595959" stroke-width="1.0" stroke-linejoin="round" stroke-linecap="butt" d="m121.71391 25.393702l28.891281 0l0 101.51181l25.476913 0" fill-rule="evenodd"/><path fill="#595959" stroke="#595959" stroke-width="1.0" stroke-linecap="butt" d="m176.08209 126.90551l-1.1245728 1.1245804l3.0897675 -1.1245804l-3.0897675 -1.1245804z" fill-rule="evenodd"/><path fill="#000000" fill-opacity="0.0" d="m366.48822 126.9004l19.61139 0l0 0.06299591l19.601196 0" fill-rule="evenodd"/><path stroke="#595959" stroke-width="1.0" stroke-linejoin="round" stroke-linecap="butt" d="m366.48822 126.9004l19.61139 0l0 0.06298828l16.174133 0" fill-rule="evenodd"/><path fill="#595959" stroke="#595959" stroke-width="1.0" stroke-linecap="butt" d="m402.27374 126.96339l-1.1245728 1.1245804l3.0897522 -1.1245804l-3.0897522 -1.1245804z" fill-rule="evenodd"/><path fill="#ffffff" d="m219.774 41.645668l146.70866 0l0 28.157478l-146.70866 0z" fill-rule="evenodd"/><path stroke="#000000" stroke-width="1.0" stroke-linejoin="round" stroke-linecap="butt" stroke-dasharray="1.0,3.0" d="m219.774 41.645668l146.70866 0l0 28.157478l-146.70866 0z" fill-rule="evenodd"/><path fill="#000000" d="m233.93025 57.38567l-3.28125 0l0 2.6875l3.8125 0l0 0.8125l-4.8125 0l0 -7.578125l4.765625 0l0 0.828125l-3.765625 0l0 2.4375l3.28125 0l0 0.8125zm6.3847046 0.75q0 1.28125 -0.59375 2.078125q-0.578125 0.78125 -1.59375 0.78125q-1.015625 0 -1.609375 -0.65625l0 2.71875l-0.953125 0l0 -7.796875l0.875 0l0.046875 0.625q0.59375 -0.734375 1.625 -0.734375q1.015625 0 1.609375 0.765625q0.59375 0.765625 0.59375 2.125l0 0.09375zm-0.96875 -0.109375q0 -0.953125 -0.40625 -1.5q-0.40625 -0.5625 -1.109375 -0.5625q-0.875 0 -1.3125 0.78125l0 2.6875q0.4375 0.765625 1.328125 0.765625q0.6875 0 1.09375 -0.546875q0.40625 -0.546875 0.40625 -1.625zm1.9316559 0q0 -0.828125 0.328125 -1.484375q0.328125 -0.671875 0.90625 -1.03125q0.578125 -0.359375 1.328125 -0.359375q1.140625 0 1.84375 0.796875q0.71875 0.796875 0.71875 2.125l0 0.0625q0 0.8125 -0.3125 1.46875q-0.3125 0.65625 -0.90625 1.03125q-0.578125 0.359375 -1.34375 0.359375q-1.140625 0 -1.859375 -0.796875q-0.703125 -0.796875 -0.703125 -2.109375l0 -0.0625zm0.96875 0.109375q0 0.9375 0.4375 1.5q0.4375 0.5625 1.15625 0.5625q0.734375 0 1.171875 -0.5625q0.4375 -0.578125 0.4375 -1.609375q0 -0.9375 -0.453125 -1.5q-0.4375 -0.578125 -1.15625 -0.578125q-0.71875 0 -1.15625 0.5625q-0.4375 0.5625 -0.4375 1.625zm7.6242676 2.0625q0.515625 0 0.890625 -0.3125q0.390625 -0.3125 0.4375 -0.78125l0.90625 0q-0.015625 0.484375 -0.328125 0.921875q-0.3125 0.4375 -0.828125 0.703125q-0.5 0.265625 -1.078125 0.265625q-1.140625 0 -1.828125 -0.765625q-0.671875 -0.78125 -0.671875 -2.109375l0 -0.15625q0 -0.828125 0.296875 -1.46875q0.296875 -0.640625 0.859375 -0.984375q0.578125 -0.359375 1.34375 -0.359375q0.9375 0 1.5625 0.578125q0.640625 0.5625 0.671875 1.46875l-0.90625 0q-0.046875 -0.546875 -0.421875 -0.890625q-0.359375 -0.359375 -0.90625 -0.359375q-0.734375 0 -1.140625 0.53125q-0.40625 0.515625 -0.40625 1.515625l0 0.1875q0 0.96875 0.40625 1.5q0.40625 0.515625 1.140625 0.515625zm4.281006 -4.265625q0.640625 -0.78125 1.671875 -0.78125q1.78125 0 1.796875 2.015625l0 3.71875l-0.96875 0l0 -3.71875q0 -0.609375 -0.28125 -0.90625q-0.265625 -0.296875 -0.84375 -0.296875q-0.46875 0 -0.828125 0.25q-0.34375 0.25 -0.546875 0.65625l0 4.015625l-0.953125 0l0 -8.0l0.953125 0l0 3.046875zm8.460419 -0.671875l0.03125 0.703125q0.640625 -0.8125 1.6875 -0.8125q1.78125 0 1.796875 2.015625l0 3.71875l-0.96875 0l0 -3.71875q0 -0.609375 -0.28125 -0.90625q-0.265625 -0.296875 -0.84375 -0.296875q-0.46875 0 -0.828125 0.25q-0.34375 0.25 -0.546875 0.65625l0 4.015625l-0.953125 0l0 -5.625l0.90625 0z" fill-rule="nonzero"/><path fill="#000000" fill-opacity="0.0" d="m9.871391 110.6168l111.84252 0l0 32.50393l-111.84252 0z" fill-rule="evenodd"/><path stroke="#595959" stroke-width="2.0" stroke-linejoin="round" stroke-linecap="butt" stroke-dasharray="2.0,6.0" d="m9.871391 110.6168l111.84252 0l0 32.50393l-111.84252 0z" fill-rule="evenodd"/><path fill="#000000" d="m28.565655 130.5418q0 -0.484375 -0.375 -0.75q-0.359375 -0.265625 -1.28125 -0.453125q-0.90625 -0.203125 -1.453125 -0.46875q-0.53125 -0.28125 -0.796875 -0.65625q-0.25 -0.390625 -0.25 -0.90625q0 -0.859375 0.734375 -1.453125q0.734375 -0.609375 1.875 -0.609375q1.1875 0 1.9375 0.625q0.75 0.609375 0.75 1.578125l-1.21875 0q0 -0.5 -0.421875 -0.859375q-0.421875 -0.359375 -1.046875 -0.359375q-0.65625 0 -1.03125 0.296875q-0.375 0.28125 -0.375 0.75q0 0.421875 0.34375 0.65625q0.34375 0.21875 1.25 0.421875q0.90625 0.203125 1.453125 0.484375q0.5625 0.265625 0.828125 0.671875q0.28125 0.390625 0.28125 0.953125q0 0.9375 -0.765625 1.515625q-0.75 0.5625 -1.953125 0.5625q-0.84375 0 -1.5 -0.296875q-0.640625 -0.296875 -1.015625 -0.828125q-0.359375 -0.546875 -0.359375 -1.171875l1.203125 0q0.03125 0.609375 0.484375 0.96875q0.453125 0.34375 1.1875 0.34375q0.6875 0 1.09375 -0.265625q0.421875 -0.28125 0.421875 -0.75zm3.9660645 -4.3125q0.8125 -0.984375 2.09375 -0.984375q2.234375 0 2.25 2.515625l0 4.65625l-1.203125 0l0 -4.65625q-0.015625 -0.765625 -0.359375 -1.125q-0.328125 -0.375 -1.0625 -0.375q-0.578125 0 -1.03125 0.3125q-0.4375 0.3125 -0.6875 0.828125l0 5.015625l-1.203125 0l0 -10.0l1.203125 0l0 3.8125zm10.497131 5.484375q-0.703125 0.828125 -2.0625 0.828125q-1.140625 0 -1.734375 -0.640625q-0.578125 -0.65625 -0.578125 -1.9375l0 -4.59375l1.203125 0l0 4.546875q0 1.609375 1.296875 1.609375q1.375 0 1.828125 -1.03125l0 -5.125l1.21875 0l0 7.046875l-1.15625 0l-0.015625 -0.703125zm3.5817719 0.703125l0 -6.109375l-1.109375 0l0 -0.9375l1.109375 0l0 -0.71875q0 -1.125 0.609375 -1.734375q0.609375 -0.625 1.703125 -0.625q0.421875 0 0.828125 0.109375l-0.0625 0.96875q-0.296875 -0.0625 -0.640625 -0.0625q-0.59375 0 -0.921875 0.34375q-0.3125 0.34375 -0.3125 0.984375l0 0.734375l2.609375 0l0 -0.765625q0 -1.125 0.625 -1.71875q0.625 -0.59375 1.78125 -0.59375q0.65625 0 2.609375 0.390625l0 9.734375l-1.203125 0l0 -8.96875q-0.8125 -0.140625 -1.3125 -0.140625q-1.296875 0 -1.296875 1.375l0 0.6875l1.5 0l0 0.9375l-1.5 0l0 6.109375l-1.203125 0l0 -6.109375l-2.609375 0l0 6.109375l-1.203125 0zm13.703888 0.125q-1.421875 0 -2.328125 -0.9375q-0.890625 -0.9375 -0.890625 -2.515625l0 -0.21875q0 -1.046875 0.390625 -1.859375q0.40625 -0.828125 1.125 -1.296875q0.71875 -0.46875 1.5625 -0.46875q1.375 0 2.125 0.90625q0.765625 0.90625 0.765625 2.59375l0 0.5l-4.765625 0q0.015625 1.03125 0.59375 1.671875q0.59375 0.640625 1.484375 0.640625q0.640625 0 1.078125 -0.25q0.453125 -0.265625 0.78125 -0.6875l0.734375 0.5625q-0.875 1.359375 -2.65625 1.359375zm-0.140625 -6.3125q-0.734375 0 -1.234375 0.53125q-0.484375 0.53125 -0.609375 1.484375l3.53125 0l0 -0.078125q-0.046875 -0.921875 -0.5 -1.421875q-0.4375 -0.515625 -1.1875 -0.515625zm3.9985466 2.609375q0 -1.625 0.765625 -2.609375q0.765625 -0.984375 2.0 -0.984375q1.25 0 1.96875 0.84375l0 -3.671875l1.203125 0l0 10.0l-1.109375 0l-0.0625 -0.75q-0.71875 0.875 -2.0 0.875q-1.234375 0 -2.0 -1.0q-0.765625 -1.0 -0.765625 -2.609375l0 -0.09375zm1.203125 0.140625q0 1.1875 0.484375 1.875q0.5 0.671875 1.375 0.671875q1.140625 0 1.671875 -1.03125l0 -3.234375q-0.546875 -1.0 -1.65625 -1.0q-0.890625 0 -1.390625 0.6875q-0.484375 0.6875 -0.484375 2.03125zm12.141602 -0.9375l-4.109375 0l0 3.359375l4.78125 0l0 1.015625l-6.03125 0l0 -9.46875l5.953125 0l0 1.015625l-4.703125 0l0 3.046875l4.109375 0l0 1.03125zm7.981415 0.9375q0 1.609375 -0.734375 2.59375q-0.734375 0.96875 -2.0 0.96875q-1.28125 0 -2.015625 -0.8125l0 3.390625l-1.203125 0l0 -9.75l1.109375 0l0.046875 0.78125q0.75 -0.90625 2.046875 -0.90625q1.265625 0 2.0 0.953125q0.75 0.953125 0.75 2.671875l0 0.109375zm-1.203125 -0.140625q0 -1.1875 -0.515625 -1.875q-0.5 -0.703125 -1.390625 -0.703125q-1.09375 0 -1.640625 0.96875l0 3.375q0.546875 0.953125 1.65625 0.953125q0.875 0 1.375 -0.671875q0.515625 -0.6875 0.515625 -2.046875zm2.4150543 0q0 -1.046875 0.40625 -1.875q0.40625 -0.828125 1.125 -1.265625q0.734375 -0.453125 1.65625 -0.453125q1.4375 0 2.328125 1.0q0.890625 0.984375 0.890625 2.640625l0 0.09375q0 1.015625 -0.390625 1.84375q-0.390625 0.8125 -1.125 1.265625q-0.734375 0.453125 -1.6875 0.453125q-1.421875 0 -2.3125 -0.984375q-0.890625 -1.0 -0.890625 -2.640625l0 -0.078125zm1.203125 0.140625q0 1.171875 0.546875 1.875q0.546875 0.703125 1.453125 0.703125q0.921875 0 1.453125 -0.71875q0.546875 -0.71875 0.546875 -2.0q0 -1.171875 -0.546875 -1.890625q-0.546875 -0.71875 -1.46875 -0.71875q-0.890625 0 -1.4375 0.71875q-0.546875 0.703125 -0.546875 2.03125zm9.538696 2.578125q0.640625 0 1.125 -0.390625q0.484375 -0.390625 0.53125 -0.96875l1.140625 0q-0.03125 0.609375 -0.421875 1.15625q-0.375 0.546875 -1.015625 0.875q-0.640625 0.3125 -1.359375 0.3125q-1.4375 0 -2.296875 -0.953125q-0.84375 -0.96875 -0.84375 -2.625l0 -0.203125q0 -1.03125 0.375 -1.828125q0.390625 -0.796875 1.09375 -1.234375q0.703125 -0.453125 1.671875 -0.453125q1.171875 0 1.953125 0.71875q0.796875 0.703125 0.84375 1.828125l-1.140625 0q-0.046875 -0.671875 -0.515625 -1.109375q-0.46875 -0.453125 -1.140625 -0.453125q-0.921875 0 -1.4375 0.671875q-0.5 0.65625 -0.5 1.90625l0 0.21875q0 1.21875 0.5 1.875q0.515625 0.65625 1.4375 0.65625zm5.3514404 -5.328125q0.8125 -0.984375 2.09375 -0.984375q2.234375 0 2.25 2.515625l0 4.65625l-1.203125 0l0 -4.65625q-0.015625 -0.765625 -0.359375 -1.125q-0.328125 -0.375 -1.0625 -0.375q-0.578125 0 -1.03125 0.3125q-0.4375 0.3125 -0.6875 0.828125l0 5.015625l-1.203125 0l0 -10.0l1.203125 0l0 3.8125z" fill-rule="nonzero"/><path fill="#000000" fill-opacity="0.0" d="m9.871391 9.141732l111.84252 0l0 32.503937l-111.84252 0z" fill-rule="evenodd"/><path stroke="#595959" stroke-width="2.0" stroke-linejoin="round" stroke-linecap="butt" stroke-dasharray="2.0,6.0" d="m9.871391 9.141732l111.84252 0l0 32.503937l-111.84252 0z" fill-rule="evenodd"/><path fill="#000000" d="m37.070354 27.504232q0 1.609375 -0.734375 2.59375q-0.734375 0.96875 -2.0 0.96875q-1.28125 0 -2.015625 -0.8125l0 3.390623l-1.203125 0l0 -9.749998l1.109375 0l0.046875 0.78125q0.75 -0.90625 2.046875 -0.90625q1.265625 0 2.0 0.953125q0.75 0.953125 0.75 2.671875l0 0.109375zm-1.203125 -0.140625q0 -1.1875 -0.515625 -1.875q-0.5 -0.703125 -1.390625 -0.703125q-1.09375 0 -1.640625 0.96875l0 3.375q0.546875 0.953125 1.65625 0.953125q0.875 0 1.375 -0.671875q0.515625 -0.6875 0.515625 -2.046875zm4.0400543 3.578125l-1.203125 0l0 -7.046875l1.203125 0l0 7.046875zm-1.296875 -8.90625q0 -0.296875 0.171875 -0.5q0.1875 -0.203125 0.53125 -0.203125q0.359375 0 0.53125 0.203125q0.1875 0.203125 0.1875 0.5q0 0.296875 -0.1875 0.5q-0.171875 0.1875 -0.53125 0.1875q-0.34375 0 -0.53125 -0.1875q-0.171875 -0.203125 -0.171875 -0.5zm6.046921 8.046875q0.640625 0 1.125 -0.390625q0.484375 -0.390625 0.53125 -0.96875l1.140625 0q-0.03125 0.609375 -0.421875 1.15625q-0.375 0.546875 -1.015625 0.875q-0.640625 0.3125 -1.359375 0.3125q-1.4375 0 -2.296875 -0.953125q-0.84375 -0.96875 -0.84375 -2.625l0 -0.203125q0 -1.03125 0.375 -1.828125q0.390625 -0.796875 1.09375 -1.234375q0.703125 -0.453125 1.671875 -0.453125q1.171875 0 1.953125 0.71875q0.796875 0.703125 0.84375 1.828125l-1.140625 0q-0.046875 -0.671875 -0.515625 -1.109375q-0.46875 -0.453125 -1.140625 -0.453125q-0.921875 0 -1.4375 0.671875q-0.5 0.65625 -0.5 1.90625l0 0.21875q0 1.21875 0.5 1.875q0.515625 0.65625 1.4375 0.65625zm6.1170654 -2.40625l-0.75 0.796875l0 2.46875l-1.203125 0l0 -10.0l1.203125 0l0 6.046875l0.640625 -0.765625l2.1875 -2.328125l1.46875 0l-2.734375 2.953125l3.046875 4.09375l-1.40625 0l-2.453125 -3.265625zm6.0989227 3.265625l-1.203125 0l0 -10.0l1.203125 0l0 10.0zm4.843796 0.125q-1.421875 0 -2.328125 -0.9375q-0.890625 -0.9375 -0.890625 -2.515625l0 -0.21875q0 -1.046875 0.390625 -1.859375q0.40625 -0.828125 1.125 -1.296875q0.71875 -0.46875 1.5625 -0.46875q1.375 0 2.125 0.90625q0.7656212 0.90625 0.7656212 2.59375l0 0.5l-4.765621 0q0.015625 1.03125 0.59375 1.671875q0.59375 0.640625 1.484375 0.640625q0.640625 0 1.078125 -0.25q0.453125 -0.265625 0.78125 -0.6875l0.7343712 0.5625q-0.8749962 1.359375 -2.6562462 1.359375zm-0.140625 -6.3125q-0.734375 0 -1.234375 0.53125q-0.484375 0.53125 -0.609375 1.484375l3.53125 0l0 -0.078125q-0.046875 -0.921875 -0.5 -1.421875q-0.4375 -0.515625 -1.1875 -0.515625zm8.389172 4.3125q0 -0.484375 -0.375 -0.75q-0.359375 -0.265625 -1.28125 -0.453125q-0.90625 -0.203125 -1.453125 -0.46875q-0.53125 -0.28125 -0.796875 -0.65625q-0.25 -0.390625 -0.25 -0.90625q0 -0.859375 0.734375 -1.453125q0.734375 -0.609375 1.875 -0.609375q1.1875 0 1.9375 0.625q0.75 0.609375 0.75 1.578125l-1.21875 0q0 -0.5 -0.421875 -0.859375q-0.421875 -0.359375 -1.046875 -0.359375q-0.65625 0 -1.03125 0.296875q-0.375 0.28125 -0.375 0.75q0 0.421875 0.34375 0.65625q0.34375 0.21875 1.25 0.421875q0.90625 0.203125 1.453125 0.484375q0.5625 0.265625 0.828125 0.671875q0.28125 0.390625 0.28125 0.953125q0 0.9375 -0.765625 1.515625q-0.75 0.5625 -1.953125 0.5625q-0.84375 0 -1.5 -0.296875q-0.640625 -0.296875 -1.015625 -0.828125q-0.359375 -0.546875 -0.359375 -1.171875l1.203125 0q0.03125 0.609375 0.484375 0.96875q0.453125 0.34375 1.1875 0.34375q0.6875 0 1.09375 -0.265625q0.421875 -0.28125 0.421875 -0.75zm9.497314 -6.578125l-3.046875 0l0 8.453125l-1.234375 0l0 -8.453125l-3.046875 0l0 -1.015625l7.328125 0l0 1.015625zm4.136215 2.484375q-0.265625 -0.03125 -0.59375 -0.03125q-1.1875 0 -1.609375 1.0l0 5.0l-1.203125 0l0 -7.046875l1.171875 0l0.03125 0.8125q0.578125 -0.9375 1.671875 -0.9375q0.34375 0 0.53125 0.09375l0 1.109375zm5.202667 5.96875q-0.109375 -0.203125 -0.171875 -0.734375q-0.84375 0.859375 -2.015625 0.859375q-1.03125 0 -1.703125 -0.578125q-0.671875 -0.59375 -0.671875 -1.5q0 -1.09375 0.828125 -1.703125q0.84375 -0.609375 2.359375 -0.609375l1.171875 0l0 -0.5625q0 -0.625 -0.375 -1.0q-0.375 -0.375 -1.109375 -0.375q-0.640625 0 -1.078125 0.328125q-0.4375 0.328125 -0.4375 0.78125l-1.203125 0q0 -0.515625 0.359375 -1.0q0.375 -0.5 1.015625 -0.78125q0.65625 -0.296875 1.421875 -0.296875q1.21875 0 1.90625 0.609375q0.6875 0.609375 0.71875 1.671875l0 3.25q0 0.96875 0.234375 1.53125l0 0.109375l-1.25 0zm-2.0 -0.921875q0.5625 0 1.0625 -0.28125q0.515625 -0.296875 0.734375 -0.765625l0 -1.453125l-0.9375 0q-2.21875 0 -2.21875 1.296875q0 0.5625 0.375 0.890625q0.390625 0.3125 0.984375 0.3125zm6.202896 0.921875l-1.203125 0l0 -7.046875l1.203125 0l0 7.046875zm-1.296875 -8.90625q0 -0.296875 0.171875 -0.5q0.1875 -0.203125 0.53125 -0.203125q0.359375 0 0.53125 0.203125q0.1875 0.203125 0.1875 0.5q0 0.296875 -0.1875 0.5q-0.171875 0.1875 -0.53125 0.1875q-0.34375 0 -0.53125 -0.1875q-0.171875 -0.203125 -0.171875 -0.5zm4.359421 1.859375l0.046875 0.890625q0.796875 -1.015625 2.109375 -1.015625q2.234375 0 2.25 2.515625l0 4.65625l-1.203125 0l0 -4.65625q-0.015625 -0.765625 -0.359375 -1.125q-0.328125 -0.375 -1.0625 -0.375q-0.578125 0 -1.03125 0.3125q-0.4375 0.3125 -0.6875 0.828125l0 5.015625l-1.203125 0l0 -7.046875l1.140625 0z" fill-rule="nonzero"/><path fill="#000000" fill-opacity="0.0" d="m121.70079 126.83732l28.897629 0l0 0.06299591l28.897644 0" fill-rule="evenodd"/><path stroke="#595959" stroke-width="1.0" stroke-linejoin="round" stroke-linecap="butt" d="m121.70079 126.83732l28.897629 0l0 0.06299591l25.470566 0" fill-rule="evenodd"/><path fill="#595959" stroke="#595959" stroke-width="1.0" stroke-linecap="butt" d="m176.06897 126.900314l-1.1245728 1.124588l3.0897675 -1.124588l-3.0897675 -1.1245804z" fill-rule="evenodd"/><path fill="#000000" fill-opacity="0.0" d="m405.71127 110.6168l134.86618 0l0 32.50393l-134.86618 0z" fill-rule="evenodd"/><path stroke="#595959" stroke-width="2.0" stroke-linejoin="round" stroke-linecap="butt" stroke-dasharray="2.0,6.0" d="m405.71127 110.6168l134.86618 0l0 32.50393l-134.86618 0z" fill-rule="evenodd"/><path fill="#000000" d="m422.12067 130.5418q0 -0.484375 -0.375 -0.75q-0.359375 -0.265625 -1.28125 -0.453125q-0.90625 -0.203125 -1.453125 -0.46875q-0.53125 -0.28125 -0.796875 -0.65625q-0.25 -0.390625 -0.25 -0.90625q0 -0.859375 0.734375 -1.453125q0.734375 -0.609375 1.875 -0.609375q1.1875 0 1.9375 0.625q0.75 0.609375 0.75 1.578125l-1.21875 0q0 -0.5 -0.421875 -0.859375q-0.421875 -0.359375 -1.046875 -0.359375q-0.65625 0 -1.03125 0.296875q-0.375 0.28125 -0.375 0.75q0 0.421875 0.34375 0.65625q0.34375 0.21875 1.25 0.421875q0.90625 0.203125 1.453125 0.484375q0.5625 0.265625 0.828125 0.671875q0.28125 0.390625 0.28125 0.953125q0 0.9375 -0.765625 1.515625q-0.75 0.5625 -1.953125 0.5625q-0.84375 0 -1.5 -0.296875q-0.640625 -0.296875 -1.015625 -0.828125q-0.359375 -0.546875 -0.359375 -1.171875l1.203125 0q0.03125 0.609375 0.484375 0.96875q0.453125 0.34375 1.1875 0.34375q0.6875 0 1.09375 -0.265625q0.421875 -0.28125 0.421875 -0.75zm3.9660645 -4.3125q0.8125 -0.984375 2.09375 -0.984375q2.234375 0 2.25 2.515625l0 4.65625l-1.203125 0l0 -4.65625q-0.015625 -0.765625 -0.359375 -1.125q-0.328125 -0.375 -1.0625 -0.375q-0.578125 0 -1.03125 0.3125q-0.4375 0.3125 -0.6875 0.828125l0 5.015625l-1.203125 0l0 -10.0l1.203125 0l0 3.8125zm10.497131 5.484375q-0.703125 0.828125 -2.0625 0.828125q-1.140625 0 -1.734375 -0.640625q-0.578125 -0.65625 -0.578125 -1.9375l0 -4.59375l1.203125 0l0 4.546875q0 1.609375 1.296875 1.609375q1.375 0 1.828125 -1.03125l0 -5.125l1.21875 0l0 7.046875l-1.15625 0l-0.015625 -0.703125zm3.5817566 0.703125l0 -6.109375l-1.109375 0l0 -0.9375l1.109375 0l0 -0.71875q0 -1.125 0.609375 -1.734375q0.609375 -0.625 1.703125 -0.625q0.421875 0 0.828125 0.109375l-0.0625 0.96875q-0.296875 -0.0625 -0.640625 -0.0625q-0.59375 0 -0.921875 0.34375q-0.3125 0.34375 -0.3125 0.984375l0 0.734375l2.609375 0l0 -0.765625q0 -1.125 0.625 -1.71875q0.625 -0.59375 1.78125 -0.59375q0.65625 0 2.609375 0.390625l0 9.734375l-1.203125 0l0 -8.96875q-0.8125 -0.140625 -1.3125 -0.140625q-1.296875 0 -1.296875 1.375l0 0.6875l1.5 0l0 0.9375l-1.5 0l0 6.109375l-1.203125 0l0 -6.109375l-2.609375 0l0 6.109375l-1.203125 0zm13.703888 0.125q-1.421875 0 -2.328125 -0.9375q-0.890625 -0.9375 -0.890625 -2.515625l0 -0.21875q0 -1.046875 0.390625 -1.859375q0.40625 -0.828125 1.125 -1.296875q0.71875 -0.46875 1.5625 -0.46875q1.375 0 2.125 0.90625q0.765625 0.90625 0.765625 2.59375l0 0.5l-4.765625 0q0.015625 1.03125 0.59375 1.671875q0.59375 0.640625 1.484375 0.640625q0.640625 0 1.078125 -0.25q0.453125 -0.265625 0.78125 -0.6875l0.734375 0.5625q-0.875 1.359375 -2.65625 1.359375zm-0.140625 -6.3125q-0.734375 0 -1.234375 0.53125q-0.484375 0.53125 -0.609375 1.484375l3.53125 0l0 -0.078125q-0.046875 -0.921875 -0.5 -1.421875q-0.4375 -0.515625 -1.1875 -0.515625zm3.9985657 2.609375q0 -1.625 0.765625 -2.609375q0.765625 -0.984375 2.0 -0.984375q1.25 0 1.96875 0.84375l0 -3.671875l1.203125 0l0 10.0l-1.109375 0l-0.0625 -0.75q-0.71875 0.875 -2.0 0.875q-1.234375 0 -2.0 -1.0q-0.765625 -1.0 -0.765625 -2.609375l0 -0.09375zm1.203125 0.140625q0 1.1875 0.484375 1.875q0.5 0.671875 1.375 0.671875q1.140625 0 1.671875 -1.03125l0 -3.234375q-0.546875 -1.0 -1.65625 -1.0q-0.890625 0 -1.390625 0.6875q-0.484375 0.6875 -0.484375 2.03125zm12.141602 -0.9375l-4.109375 0l0 3.359375l4.78125 0l0 1.015625l-6.03125 0l0 -9.46875l5.953125 0l0 1.015625l-4.703125 0l0 3.046875l4.109375 0l0 1.03125zm7.981415 0.9375q0 1.609375 -0.734375 2.59375q-0.734375 0.96875 -2.0 0.96875q-1.28125 0 -2.015625 -0.8125l0 3.390625l-1.203125 0l0 -9.75l1.109375 0l0.046875 0.78125q0.75 -0.90625 2.046875 -0.90625q1.265625 0 2.0 0.953125q0.75 0.953125 0.75 2.671875l0 0.109375zm-1.203125 -0.140625q0 -1.1875 -0.515625 -1.875q-0.5 -0.703125 -1.390625 -0.703125q-1.09375 0 -1.640625 0.96875l0 3.375q0.546875 0.953125 1.65625 0.953125q0.875 0 1.375 -0.671875q0.515625 -0.6875 0.515625 -2.046875zm2.415039 0q0 -1.046875 0.40625 -1.875q0.40625 -0.828125 1.125 -1.265625q0.734375 -0.453125 1.65625 -0.453125q1.4375 0 2.328125 1.0q0.890625 0.984375 0.890625 2.640625l0 0.09375q0 1.015625 -0.390625 1.84375q-0.390625 0.8125 -1.125 1.265625q-0.734375 0.453125 -1.6875 0.453125q-1.421875 0 -2.3125 -0.984375q-0.890625 -1.0 -0.890625 -2.640625l0 -0.078125zm1.203125 0.140625q0 1.171875 0.546875 1.875q0.546875 0.703125 1.453125 0.703125q0.921875 0 1.453125 -0.71875q0.546875 -0.71875 0.546875 -2.0q0 -1.171875 -0.546875 -1.890625q-0.546875 -0.71875 -1.46875 -0.71875q-0.890625 0 -1.4375 0.71875q-0.546875 0.703125 -0.546875 2.03125zm9.538696 2.578125q0.640625 0 1.125 -0.390625q0.484375 -0.390625 0.53125 -0.96875l1.140625 0q-0.03125 0.609375 -0.421875 1.15625q-0.375 0.546875 -1.015625 0.875q-0.640625 0.3125 -1.359375 0.3125q-1.4375 0 -2.296875 -0.953125q-0.84375 -0.96875 -0.84375 -2.625l0 -0.203125q0 -1.03125 0.375 -1.828125q0.390625 -0.796875 1.09375 -1.234375q0.703125 -0.453125 1.671875 -0.453125q1.171875 0 1.953125 0.71875q0.796875 0.703125 0.84375 1.828125l-1.140625 0q-0.046875 -0.671875 -0.515625 -1.109375q-0.46875 -0.453125 -1.140625 -0.453125q-0.921875 0 -1.4375 0.671875q-0.5 0.65625 -0.5 1.90625l0 0.21875q0 1.21875 0.5 1.875q0.515625 0.65625 1.4375 0.65625zm5.3514404 -5.328125q0.8125 -0.984375 2.09375 -0.984375q2.234375 0 2.25 2.515625l0 4.65625l-1.203125 0l0 -4.65625q-0.015625 -0.765625 -0.359375 -1.125q-0.328125 -0.375 -1.0625 -0.375q-0.578125 0 -1.03125 0.3125q-0.4375 0.3125 -0.6875 0.828125l0 5.015625l-1.203125 0l0 -10.0l1.203125 0l0 3.8125zm6.3252563 6.1875l0 -9.46875l2.6875 0q1.234375 0 2.171875 0.546875q0.953125 0.546875 1.46875 1.5625q0.53125 1.0 0.53125 2.296875l0 0.609375q0 1.34375 -0.515625 2.359375q-0.515625 1.0 -1.484375 1.546875q-0.953125 0.53125 -2.234375 0.546875l-2.625 0zm1.25 -8.453125l0 7.4375l1.3125 0q1.453125 0 2.25 -0.890625q0.8125 -0.90625 0.8125 -2.578125l0 -0.546875q0 -1.609375 -0.765625 -2.5q-0.75 -0.90625 -2.140625 -0.921875l-1.46875 0zm11.661987 8.453125q-0.109375 -0.203125 -0.171875 -0.734375q-0.84375 0.859375 -2.015625 0.859375q-1.03125 0 -1.7031555 -0.578125q-0.671875 -0.59375 -0.671875 -1.5q0 -1.09375 0.828125 -1.703125q0.8437805 -0.609375 2.3594055 -0.609375l1.171875 0l0 -0.5625q0 -0.625 -0.375 -1.0q-0.375 -0.375 -1.109375 -0.375q-0.640625 0 -1.078125 0.328125q-0.4375 0.328125 -0.4375 0.78125l-1.2031555 0q0 -0.515625 0.359375 -1.0q0.375 -0.5 1.0156555 -0.78125q0.65625 -0.296875 1.421875 -0.296875q1.21875 0 1.90625 0.609375q0.6875 0.609375 0.71875 1.671875l0 3.25q0 0.96875 0.234375 1.53125l0 0.109375l-1.25 0zm-2.0 -0.921875q0.5625 0 1.0625 -0.28125q0.515625 -0.296875 0.734375 -0.765625l0 -1.453125l-0.9375 0q-2.21875 0 -2.21875 1.296875q0 0.5625 0.375 0.890625q0.390625 0.3125 0.984375 0.3125zm6.531006 -7.828125l0 1.703125l1.3125 0l0 0.9375l-1.3125 0l0 4.359375q0 0.421875 0.171875 0.640625q0.171875 0.21875 0.59375 0.21875q0.21875 0 0.578125 -0.078125l0 0.96875q-0.46875 0.125 -0.921875 0.125q-0.8125 0 -1.21875 -0.484375q-0.40625 -0.484375 -0.40625 -1.390625l0 -4.359375l-1.28125 0l0 -0.9375l1.28125 0l0 -1.703125l1.203125 0zm7.07251 8.75q-0.109375 -0.203125 -0.171875 -0.734375q-0.84375 0.859375 -2.015625 0.859375q-1.03125 0 -1.703125 -0.578125q-0.671875 -0.59375 -0.671875 -1.5q0 -1.09375 0.828125 -1.703125q0.84375 -0.609375 2.359375 -0.609375l1.171875 0l0 -0.5625q0 -0.625 -0.375 -1.0q-0.375 -0.375 -1.109375 -0.375q-0.640625 0 -1.078125 0.328125q-0.4375 0.328125 -0.4375 0.78125l-1.203125 0q0 -0.515625 0.359375 -1.0q0.375 -0.5 1.015625 -0.78125q0.65625 -0.296875 1.421875 -0.296875q1.21875 0 1.90625 0.609375q0.6875 0.609375 0.71875 1.671875l0 3.25q0 0.96875 0.234375 1.53125l0 0.109375l-1.25 0zm-2.0 -0.921875q0.5625 0 1.0625 -0.28125q0.515625 -0.296875 0.734375 -0.765625l0 -1.453125l-0.9375 0q-2.21875 0 -2.21875 1.296875q0 0.5625 0.375 0.890625q0.390625 0.3125 0.984375 0.3125z" fill-rule="nonzero"/></g></svg>