<svg version="1.1" viewBox="0.0 0.0 633.7769028871392 142.7769028871391" fill="none" stroke="none" stroke-linecap="square" stroke-miterlimit="10" xmlns:xlink="http://www.w3.org/1999/xlink" xmlns="http://www.w3.org/2000/svg"><clipPath id="p.0"><path d="m0 0l633.7769 0l0 142.7769l-633.7769 0l0 -142.7769z" clip-rule="nonzero"/></clipPath><g clip-path="url(#p.0)"><path fill="#000000" fill-opacity="0.0" d="m0 0l633.7769 0l0 142.7769l-633.7769 0z" fill-rule="evenodd"/><g filter="url(#shadowFilter-p.1)"><use xlink:href="#p.1" transform="matrix(1.0 0.0 0.0 1.0 0.0 2.0)"/></g><defs><filter id="shadowFilter-p.1" filterUnits="userSpaceOnUse"><feGaussianBlur in="SourceAlpha" stdDeviation="2.0" result="blur"/><feComponentTransfer in="blur" color-interpolation-filters="sRGB"><feFuncR type="linear" slope="0" intercept="0.0"/><feFuncG type="linear" slope="0" intercept="0.0"/><feFuncB type="linear" slope="0" intercept="0.0"/><feFuncA type="linear" slope="0.5" intercept="0"/></feComponentTransfer></filter></defs><g id="p.1"><path fill="#eeeeee" d="m4.687962 29.291433l120.45543 0l0 42.432076c-60.227715 0 -60.227715 16.167404 -120.45543 6.9813843z" fill-rule="evenodd"/><path fill="#000000" d="m17.250462 46.811436l-1.515625 0l0 -0.921875q-0.390625 0.546875 -0.90625 0.8125q-0.515625 0.25 -1.046875 0.25q-1.078125 0 -1.84375 -0.859375q-0.75 -0.875 -0.75 -2.421875q0 -1.578125 0.734375 -2.390625q0.75 -0.828125 1.890625 -0.828125q1.03125 0 1.796875 0.859375l0 -3.09375l1.640625 0l0 8.59375zm-4.390625 -3.25q0 1.0 0.28125 1.4375q0.390625 0.65625 1.109375 0.65625q0.5625 0 0.953125 -0.484375q0.40625 -0.484375 0.40625 -1.453125q0 -1.0625 -0.390625 -1.53125q-0.375 -0.484375 -0.984375 -0.484375q-0.578125 0 -0.984375 0.46875q-0.390625 0.46875 -0.390625 1.390625zm6.017578 -3.8125l0 -1.53125l1.65625 0l0 1.53125l-1.65625 0zm0 7.0625l0 -6.21875l1.65625 0l0 6.21875l-1.65625 0zm8.755859 -4.390625l-1.609375 0.296875q-0.09375 -0.484375 -0.390625 -0.71875q-0.28125 -0.25 -0.734375 -0.25q-0.625 0 -1.0 0.421875q-0.359375 0.421875 -0.359375 1.421875q0 1.109375 0.375 1.5625q0.375 0.453125 1.0 0.453125q0.46875 0 0.765625 -0.265625q0.296875 -0.265625 0.421875 -0.921875l1.625 0.28125q-0.25 1.109375 -0.96875 1.6875q-0.71875 0.5625 -1.921875 0.5625q-1.359375 0 -2.171875 -0.859375q-0.8125 -0.859375 -0.8125 -2.390625q0 -1.53125 0.8125 -2.390625q0.8125 -0.859375 2.203125 -0.859375q1.140625 0 1.8125 0.484375q0.671875 0.484375 0.953125 1.484375zm4.111328 -1.828125l0 1.3125l-1.125 0l0 2.5q0 0.765625 0.03125 0.890625q0.03125 0.125 0.140625 0.21875q0.125 0.078125 0.28125 0.078125q0.234375 0 0.65625 -0.171875l0.140625 1.28125q-0.5625 0.25 -1.296875 0.25q-0.4375 0 -0.796875 -0.140625q-0.359375 -0.15625 -0.53125 -0.390625q-0.15625 -0.25 -0.234375 -0.640625q-0.046875 -0.296875 -0.046875 -1.171875l0 -2.703125l-0.75 0l0 -1.3125l0.75 0l0 -1.234375l1.65625 -0.96875l0 2.203125l1.125 0zm1.1367188 -0.84375l0 -1.53125l1.65625 0l0 1.53125l-1.65625 0zm0 7.0625l0 -6.21875l1.65625 0l0 6.21875l-1.65625 0zm2.9589844 -3.203125q0 -0.8125 0.40625 -1.578125q0.40625 -0.78125 1.140625 -1.171875q0.734375 -0.40625 1.65625 -0.40625q1.40625 0 2.3125 0.921875q0.90625 0.90625 0.90625 2.3125q0 1.40625 -0.921875 2.34375q-0.90625 0.921875 -2.28125 0.921875q-0.859375 0 -1.640625 -0.390625q-0.765625 -0.390625 -1.171875 -1.125q-0.40625 -0.75 -0.40625 -1.828125zm1.6875 0.09375q0 0.921875 0.4375 1.421875q0.4375 0.484375 1.078125 0.484375q0.65625 0 1.078125 -0.484375q0.4375 -0.5 0.4375 -1.4375q0 -0.90625 -0.4375 -1.390625q-0.421875 -0.5 -1.078125 -0.5q-0.640625 0 -1.078125 0.5q-0.4375 0.484375 -0.4375 1.40625zm11.673828 3.109375l-1.640625 0l0 -3.171875q0 -1.015625 -0.109375 -1.3125q-0.09375 -0.296875 -0.34375 -0.453125q-0.234375 -0.171875 -0.5625 -0.171875q-0.4375 0 -0.78125 0.234375q-0.328125 0.234375 -0.453125 0.625q-0.125 0.390625 -0.125 1.4375l0 2.8125l-1.65625 0l0 -6.21875l1.53125 0l0 0.90625q0.8125 -1.046875 2.0625 -1.046875q0.53125 0 0.984375 0.203125q0.453125 0.1875 0.6875 0.5q0.234375 0.296875 0.3125 0.6875q0.09375 0.375 0.09375 1.09375l0 3.875zm2.9082031 -4.328125l-1.5 -0.265625q0.25 -0.90625 0.859375 -1.328125q0.625 -0.4375 1.84375 -0.4375q1.09375 0 1.625 0.265625q0.546875 0.25 0.765625 0.65625q0.21875 0.390625 0.21875 1.46875l-0.015625 1.921875q0 0.828125 0.078125 1.21875q0.078125 0.375 0.296875 0.828125l-1.625 0q-0.0625 -0.171875 -0.15625 -0.484375q-0.046875 -0.15625 -0.0625 -0.203125q-0.421875 0.421875 -0.90625 0.625q-0.46875 0.203125 -1.015625 0.203125q-0.96875 0 -1.53125 -0.515625q-0.546875 -0.53125 -0.546875 -1.328125q0 -0.53125 0.25 -0.9375q0.265625 -0.40625 0.71875 -0.625q0.453125 -0.234375 1.3125 -0.390625q1.140625 -0.21875 1.59375 -0.40625l0 -0.15625q0 -0.484375 -0.234375 -0.6875q-0.234375 -0.203125 -0.890625 -0.203125q-0.4375 0 -0.6875 0.171875q-0.234375 0.171875 -0.390625 0.609375zm2.203125 1.34375q-0.3125 0.09375 -1.0 0.25q-0.6875 0.140625 -0.90625 0.28125q-0.3125 0.234375 -0.3125 0.578125q0 0.34375 0.25 0.609375q0.265625 0.25 0.65625 0.25q0.453125 0 0.859375 -0.296875q0.296875 -0.21875 0.390625 -0.546875q0.0625 -0.203125 0.0625 -0.796875l0 -0.328125zm4.814453 2.984375l-1.640625 0l0 -6.21875l1.53125 0l0 0.875q0.390625 -0.625 0.703125 -0.8125q0.3125 -0.203125 0.703125 -0.203125q0.5625 0 1.09375 0.3125l-0.515625 1.421875q-0.421875 -0.265625 -0.765625 -0.265625q-0.359375 0 -0.59375 0.203125q-0.234375 0.1875 -0.375 0.6875q-0.140625 0.484375 -0.140625 2.078125l0 1.921875zm2.3105469 -6.21875l1.75 0l1.5000038 4.40625l1.453125 -4.40625l1.703125 0l-2.203125 5.984375l-0.390625 1.078125q-0.21875 0.546875 -0.421875 0.828125q-0.1875 0.296875 -0.453125 0.46875q-0.25 0.1875 -0.6250038 0.28125q-0.359375 0.109375 -0.828125 0.109375q-0.484375 0 -0.9375 -0.109375l-0.140625 -1.28125q0.390625 0.078125 0.6875 0.078125q0.578125 0 0.84375 -0.34375q0.28125 -0.328125 0.4375 -0.859375l-2.375 -6.234375zm6.564457 6.21875l0 -1.640625l1.65625 0l0 1.640625l-1.65625 0zm8.755859 -4.390625l-1.609375 0.296875q-0.09375 -0.484375 -0.390625 -0.71875q-0.28125 -0.25 -0.734375 -0.25q-0.625 0 -1.0 0.421875q-0.359375 0.421875 -0.359375 1.421875q0 1.109375 0.375 1.5625q0.375 0.453125 1.0 0.453125q0.46875 0 0.765625 -0.265625q0.296875 -0.265625 0.421875 -0.921875l1.625 0.28125q-0.25 1.109375 -0.96875 1.6875q-0.71875 0.5625 -1.921875 0.5625q-1.359375 0 -2.171875 -0.859375q-0.8125 -0.859375 -0.8125 -2.390625q0 -1.53125 0.8125 -2.390625q0.8125 -0.859375 2.203125 -0.859375q1.140625 0 1.8125 0.484375q0.671875 0.484375 0.953125 1.484375zm0.6738281 2.609375l1.65625 -0.25q0.109375 0.484375 0.421875 0.734375q0.328125 0.25 0.90625 0.25q0.640625 0 0.953125 -0.234375q0.21875 -0.171875 0.21875 -0.4375q0 -0.1875 -0.109375 -0.3125q-0.125 -0.125 -0.546875 -0.21875q-2.0 -0.4375 -2.53125 -0.796875q-0.734375 -0.515625 -0.734375 -1.40625q0 -0.8125 0.625 -1.359375q0.640625 -0.546875 1.984375 -0.546875q1.28125 0 1.90625 0.421875q0.625 0.40625 0.859375 1.21875l-1.5625 0.28125q-0.09375 -0.359375 -0.375 -0.546875q-0.28125 -0.203125 -0.796875 -0.203125q-0.640625 0 -0.921875 0.1875q-0.1875 0.125 -0.1875 0.328125q0 0.1875 0.15625 0.3125q0.21875 0.15625 1.53125 0.453125q1.328125 0.296875 1.84375 0.734375q0.515625 0.4375 0.515625 1.21875q0 0.859375 -0.71875 1.484375q-0.703125 0.609375 -2.109375 0.609375q-1.265625 0 -2.015625 -0.515625q-0.734375 -0.515625 -0.96875 -1.40625zm8.970703 1.78125l-2.515625 -6.21875l1.734375 0l1.171875 3.171875l0.34375 1.0625q0.125 -0.40625 0.15625 -0.53125q0.09375 -0.265625 0.1875 -0.53125l1.171875 -3.171875l1.703125 0l-2.46875 6.21875l-1.484375 0z" fill-rule="nonzero"/><path fill="#000000" d="m11.359837 58.51456l0 -1.640625l3.234375 0l0 1.640625l-3.234375 0zm7.486328 2.296875l0 -8.59375l1.734375 0l0 8.59375l-1.734375 0zm3.3808594 -8.59375l3.15625 0q1.078125 0 1.640625 0.171875q0.75 0.21875 1.28125 0.796875q0.546875 0.5625 0.828125 1.390625q0.28125 0.8125 0.28125 2.015625q0 1.0625 -0.25 1.828125q-0.328125 0.9375 -0.921875 1.515625q-0.453125 0.453125 -1.21875 0.6875q-0.578125 0.1875 -1.546875 0.1875l-3.25 0l0 -8.59375zm1.734375 1.453125l0 5.6875l1.28125 0q0.734375 0 1.0625 -0.078125q0.421875 -0.109375 0.6875 -0.359375q0.28125 -0.25 0.453125 -0.828125q0.1875 -0.578125 0.1875 -1.578125q0 -0.984375 -0.1875 -1.515625q-0.171875 -0.546875 -0.484375 -0.84375q-0.3125 -0.296875 -0.796875 -0.40625q-0.375 -0.078125 -1.4375 -0.078125l-0.765625 0z" fill-rule="nonzero"/><path fill="#000000" d="m11.359837 72.51456l0 -1.640625l3.234375 0l0 1.640625l-3.234375 0zm4.1992188 2.296875l0 -8.59375l2.78125 0q1.578125 0 2.0625 0.125q0.734375 0.203125 1.234375 0.859375q0.5 0.640625 0.5 1.65625q0 0.796875 -0.296875 1.34375q-0.28125 0.53125 -0.71875 0.84375q-0.4375 0.296875 -0.90625 0.40625q-0.609375 0.125 -1.796875 0.125l-1.125 0l0 3.234375l-1.734375 0zm1.734375 -7.140625l0 2.4375l0.953125 0q1.015625 0 1.359375 -0.125q0.359375 -0.140625 0.546875 -0.421875q0.203125 -0.296875 0.203125 -0.671875q0 -0.46875 -0.28125 -0.765625q-0.28125 -0.3125 -0.703125 -0.390625q-0.296875 -0.0625 -1.234375 -0.0625l-0.84375 0zm6.2226562 7.140625l0 -8.59375l1.734375 0l0 8.59375l-1.734375 0zm8.880859 -3.15625l1.671875 0.53125q-0.375 1.40625 -1.28125 2.09375q-0.90625 0.671875 -2.28125 0.671875q-1.71875 0 -2.828125 -1.15625q-1.09375 -1.171875 -1.09375 -3.203125q0 -2.140625 1.109375 -3.328125q1.109375 -1.1875 2.921875 -1.1875q1.578125 0 2.5625 0.921875q0.578125 0.5625 0.875 1.59375l-1.71875 0.40625q-0.15625 -0.671875 -0.640625 -1.046875q-0.484375 -0.390625 -1.171875 -0.390625q-0.953125 0 -1.546875 0.6875q-0.59375 0.671875 -0.59375 2.21875q0 1.625 0.578125 2.3125q0.59375 0.6875 1.53125 0.6875q0.6875 0 1.1875 -0.4375q0.5 -0.4375 0.71875 -1.375zm3.1816406 3.15625l0 -8.59375l1.734375 0l0 3.8125l3.515625 -3.8125l2.328125 0l-3.234375 3.34375l3.40625 5.25l-2.234375 0l-2.375 -4.03125l-1.40625 1.4375l0 2.59375l-1.734375 0zm8.697266 0l0 -8.515625l1.734375 0l0 7.0625l4.3125 0l0 1.453125l-6.046875 0zm7.283203 0l0 -8.59375l6.375 0l0 1.453125l-4.640625 0l0 1.90625l4.3125 0l0 1.453125l-4.3125 0l0 2.328125l4.796875 0l0 1.453125l-6.53125 0zm15.337894 -3.15625l0 -1.453125l3.734375 0l0 3.421875q-0.546875 0.53125 -1.578125 0.9375q-1.03125 0.390625 -2.09375 0.390625q-1.34375 0 -2.359375 -0.5625q-1.0000038 -0.5625 -1.5000038 -1.609375q-0.5 -1.0625 -0.5 -2.296875q0 -1.34375 0.5625 -2.375q0.5625 -1.046875 1.6406288 -1.609375q0.828125 -0.421875 2.0625 -0.421875q1.59375 0 2.484375 0.671875q0.90625 0.671875 1.171875 1.84375l-1.71875 0.328125q-0.1875 -0.625 -0.6875 -0.984375q-0.5 -0.375 -1.25 -0.375q-1.140625 0 -1.8125 0.71875q-0.671875 0.71875 -0.671875 2.140625q0 1.53125 0.671875 2.296875q0.6875 0.75 1.796875 0.75q0.546875 0 1.09375 -0.203125q0.546875 -0.21875 0.9375 -0.515625l0 -1.09375l-1.984375 0zm4.8964844 0.359375l1.6875 -0.15625q0.15625 0.84375 0.609375 1.25q0.46875 0.390625 1.265625 0.390625q0.828125 0 1.25 -0.34375q0.4375 -0.359375 0.4375 -0.84375q0 -0.296875 -0.1875 -0.515625q-0.171875 -0.21875 -0.625 -0.375q-0.296875 -0.109375 -1.375 -0.375q-1.40625 -0.34375 -1.96875 -0.84375q-0.78125 -0.71875 -0.78125 -1.734375q0 -0.65625 0.359375 -1.21875q0.375 -0.578125 1.078125 -0.875q0.703125 -0.296875 1.6875 -0.296875q1.625 0 2.4375 0.71875q0.8125 0.703125 0.859375 1.875l-1.734375 0.078125q-0.109375 -0.65625 -0.484375 -0.9375q-0.359375 -0.296875 -1.09375 -0.296875q-0.75 0 -1.1875 0.3125q-0.265625 0.1875 -0.265625 0.53125q0 0.296875 0.25 0.515625q0.328125 0.28125 1.59375 0.578125q1.265625 0.296875 1.875 0.625q0.609375 0.3125 0.953125 0.875q0.34375 0.546875 0.34375 1.359375q0 0.734375 -0.421875 1.390625q-0.40625 0.640625 -1.15625 0.953125q-0.75 0.3125 -1.859375 0.3125q-1.640625 0 -2.515625 -0.75q-0.859375 -0.765625 -1.03125 -2.203125z" fill-rule="nonzero"/></g><path fill="#eeeeee" d="m154.27037 29.262604l186.98161 0l0 52.913383l-186.98161 0z" fill-rule="evenodd"/><path fill="#000000" fill-opacity="0.0" d="m177.64307 29.262604l0 52.913383m140.2362 -52.913383l0 52.913383" fill-rule="evenodd"/><path fill="#000000" fill-opacity="0.0" d="m154.27037 29.262604l186.98161 0l0 52.913383l-186.98161 0z" fill-rule="evenodd"/><path stroke="#595959" stroke-width="1.0" stroke-linejoin="round" stroke-linecap="butt" d="m177.64307 29.262604l0 52.913383m140.2362 -52.913383l0 52.913383" fill-rule="evenodd"/><path stroke="#595959" stroke-width="1.0" stroke-linejoin="round" stroke-linecap="butt" d="m154.27037 29.262604l186.98161 0l0 52.913383l-186.98161 0z" fill-rule="evenodd"/><path fill="#000000" d="m217.23209 50.193672l-1.25 0l0 2.765625l-1.5625 0l0 -7.578125l2.8125 0q1.34375 0 2.078125 0.609375q0.734375 0.59375 0.734375 1.6875q0 0.765625 -0.34375 1.296875q-0.328125 0.515625 -1.015625 0.8125l1.640625 3.09375l0 0.078125l-1.671875 0l-1.421875 -2.765625zm-1.25 -1.265625l1.265625 0q0.578125 0 0.90625 -0.296875q0.328125 -0.3125 0.328125 -0.828125q0 -0.546875 -0.3125 -0.84375q-0.296875 -0.3125 -0.9375 -0.3125l-1.25 0l0 2.28125zm9.800644 0.75l-3.0 0l0 2.03125l3.515625 0l0 1.25l-5.078125 0l0 -7.578125l5.078125 0l0 1.265625l-3.515625 0l0 1.8125l3.0 0l0 1.21875zm5.7128906 1.71875l-2.734375 0l-0.515625 1.5625l-1.671875 0l2.828125 -7.578125l1.4375 0l2.84375 7.578125l-1.65625 0l-0.53125 -1.5625zm-2.3125 -1.265625l1.890625 0l-0.953125 -2.828125l-0.9375 2.828125zm5.2013245 2.828125l0 -7.578125l2.328125 0q1.0 0 1.78125 0.453125q0.796875 0.453125 1.234375 1.28125q0.453125 0.828125 0.453125 1.890625l0 0.34375q0 1.046875 -0.4375 1.875q-0.4375 0.828125 -1.234375 1.28125q-0.78125 0.453125 -1.78125 0.453125l-2.34375 0zm1.5625 -6.3125l0 5.0625l0.75 0q0.921875 0 1.40625 -0.59375q0.484375 -0.609375 0.5 -1.71875l0 -0.40625q0 -1.15625 -0.484375 -1.75q-0.484375 -0.59375 -1.40625 -0.59375l-0.765625 0zm13.407303 0l-2.3125 0l0 6.3125l-1.5625 0l0 -6.3125l-2.296875 0l0 -1.265625l6.171875 0l0 1.265625zm6.623764 -1.265625l0 4.984375q0 1.25 -0.78125 1.984375q-0.765625 0.71875 -2.125 0.71875q-1.3125 0 -2.09375 -0.703125q-0.78125 -0.703125 -0.796875 -1.9375l0 -5.046875l1.5625 0l0 5.0q0 0.75 0.34375 1.09375q0.359375 0.328125 0.984375 0.328125q1.328125 0 1.34375 -1.375l0 -5.046875l1.5625 0zm2.8420868 4.90625l0 2.671875l-1.5625 0l0 -7.578125l2.953125 0q0.859375 0 1.5 0.3125q0.65625 0.3125 1.0 0.890625q0.359375 0.578125 0.359375 1.3125q0 1.109375 -0.765625 1.75q-0.765625 0.640625 -2.109375 0.640625l-1.375 0zm0 -1.265625l1.390625 0q0.625 0 0.953125 -0.28125q0.328125 -0.296875 0.328125 -0.84375q0 -0.546875 -0.328125 -0.890625q-0.328125 -0.34375 -0.90625 -0.359375l-1.4375 0l0 2.375zm6.8735046 2.6875l3.3125 0l0 1.25l-4.875 0l0 -7.578125l1.5625 0l0 6.328125zm8.770386 -2.03125l-3.0 0l0 2.03125l3.515625 0l0 1.25l-5.078125 0l0 -7.578125l5.078125 0l0 1.265625l-3.515625 0l0 1.8125l3.0 0l0 1.21875zm5.3691406 1.296875q0 -0.453125 -0.3125 -0.6875q-0.3125 -0.234375 -1.125 -0.484375q-0.8125 -0.265625 -1.28125 -0.53125q-1.296875 -0.6875 -1.296875 -1.875q0 -0.609375 0.34375 -1.09375q0.34375 -0.484375 0.984375 -0.75q0.65625 -0.28125 1.46875 -0.28125q0.8125 0 1.4375 0.296875q0.640625 0.296875 0.984375 0.84375q0.359375 0.53125 0.359375 1.203125l-1.5625 0q0 -0.515625 -0.328125 -0.796875q-0.328125 -0.296875 -0.921875 -0.296875q-0.578125 0 -0.890625 0.25q-0.3125 0.234375 -0.3125 0.625q0 0.375 0.359375 0.625q0.375 0.25 1.109375 0.46875q1.328125 0.40625 1.9375 1.0q0.609375 0.59375 0.609375 1.46875q0 0.984375 -0.75 1.546875q-0.734375 0.5625 -2.0 0.5625q-0.875 0 -1.59375 -0.3125q-0.71875 -0.328125 -1.09375 -0.890625q-0.375 -0.5625 -0.375 -1.296875l1.5625 0q0 1.265625 1.5 1.265625q0.5625 0 0.875 -0.21875q0.3125 -0.234375 0.3125 -0.640625z" fill-rule="nonzero"/><path fill="#000000" d="m212.85039 62.443672l-0.921875 0.953125l0 2.5625l-1.0 0l0 -7.578125l1.0 0l0 3.75l3.375 -3.75l1.203125 0l-2.984375 3.34375l3.21875 4.234375l-1.203125 0l-2.6875 -3.515625zm7.274719 2.1875l2.15625 -6.25l1.09375 0l-2.8125 7.578125l-0.875 0l-2.8125 -7.578125l1.09375 0l2.15625 6.25zm4.764206 -2.015625l3.25 1.3125l0 1.015625l-4.25 -1.96875l0 -0.765625l4.25 -1.96875l0 1.03125l-3.25 1.34375zm5.994705 3.34375l-1.0 0l0 -7.578125l1.0 0l0 7.578125zm1.8200836 0l0 -7.578125l2.140625 0q0.984375 0 1.75 0.4375q0.765625 0.4375 1.171875 1.25q0.421875 0.796875 0.421875 1.84375l0 0.484375q0 1.078125 -0.421875 1.890625q-0.40625 0.796875 -1.171875 1.234375q-0.765625 0.421875 -1.796875 0.4375l-2.09375 0zm1.0 -6.75l0 5.9375l1.046875 0q1.15625 0 1.796875 -0.71875q0.65625 -0.71875 0.65625 -2.046875l0 -0.4375q0 -1.296875 -0.609375 -2.015625q-0.609375 -0.71875 -1.71875 -0.71875l-1.171875 0zm5.284836 8.265625l-0.546875 -0.375q0.484375 -0.6875 0.5 -1.40625l0 -0.875l0.953125 0l0 0.75q0 0.53125 -0.265625 1.046875q-0.25 0.53125 -0.640625 0.859375zm7.8573303 -2.515625q-0.375 0.5625 -1.078125 0.84375q-0.6875 0.265625 -1.59375 0.265625q-0.9375 0 -1.65625 -0.4375q-0.703125 -0.4375 -1.109375 -1.234375q-0.390625 -0.8125 -0.390625 -1.859375l0 -0.65625q0 -1.71875 0.796875 -2.65625q0.796875 -0.953125 2.234375 -0.953125q1.1875 0 1.90625 0.609375q0.734375 0.609375 0.890625 1.71875l-1.0 0q-0.28125 -1.5 -1.78125 -1.5q-1.015625 0 -1.53125 0.703125q-0.515625 0.703125 -0.515625 2.046875l0 0.625q0 1.265625 0.578125 2.015625q0.578125 0.75 1.578125 0.75q0.5625 0 0.984375 -0.125q0.421875 -0.125 0.703125 -0.421875l0 -1.6875l-1.765625 0l0 -0.8125l2.75 0l0 2.765625zm7.2429047 -1.40625q-0.140625 1.203125 -0.890625 1.859375q-0.75 0.65625 -1.984375 0.65625q-1.34375 0 -2.15625 -0.96875q-0.796875 -0.96875 -0.796875 -2.578125l0 -0.71875q0 -1.0625 0.375 -1.859375q0.375 -0.8125 1.0625 -1.234375q0.6875 -0.4375 1.609375 -0.4375q1.203125 0 1.921875 0.6875q0.734375 0.671875 0.859375 1.859375l-1.0 0q-0.140625 -0.90625 -0.578125 -1.3125q-0.421875 -0.40625 -1.203125 -0.40625q-0.96875 0 -1.515625 0.71875q-0.53125 0.703125 -0.53125 2.0l0 0.734375q0 1.234375 0.515625 1.96875q0.515625 0.71875 1.4375 0.71875q0.828125 0 1.265625 -0.375q0.453125 -0.375 0.609375 -1.3125l1.0 0zm3.592163 -0.96875q-1.28125 -0.375 -1.8749847 -0.90625q-0.578125 -0.546875 -0.578125 -1.328125q0 -0.90625 0.71875 -1.484375q0.71873474 -0.59375 1.8593597 -0.59375q0.78125 0 1.390625 0.3125q0.609375 0.296875 0.9375 0.828125q0.34375 0.53125 0.34375 1.15625l-1.0 0q0 -0.6875 -0.4375 -1.078125q-0.4375 -0.390625 -1.234375 -0.390625q-0.734375 0 -1.15625 0.328125q-0.40625 0.328125 -0.40625 0.90625q0 0.453125 0.390625 0.78125q0.390625 0.3125 1.328125 0.578125q0.953125 0.265625 1.484375 0.59375q0.53125 0.3125 0.78125 0.75q0.265625 0.421875 0.265625 1.0q0 0.921875 -0.71875 1.484375q-0.71875 0.546875 -1.921875 0.546875q-0.78125 0 -1.453125 -0.296875q-0.67185974 -0.3125 -1.0468597 -0.828125q-0.359375 -0.515625 -0.359375 -1.1875l1.0 0q0 0.6875 0.49998474 1.09375q0.515625 0.390625 1.359375 0.390625q0.796875 0 1.21875 -0.3125q0.421875 -0.328125 0.421875 -0.875q0 -0.5625 -0.390625 -0.859375q-0.390625 -0.3125 -1.421875 -0.609375zm12.069366 -4.203125l0 5.15625q-0.015625 1.0625 -0.6875 1.75q-0.65625 0.6875 -1.8125 0.765625l-0.265625 0.015625q-1.234375 0 -1.984375 -0.671875q-0.734375 -0.671875 -0.734375 -1.859375l0 -5.15625l0.984375 0l0 5.125q0 0.828125 0.453125 1.28125q0.453125 0.453125 1.28125 0.453125q0.859375 0 1.296875 -0.453125q0.453125 -0.453125 0.453125 -1.265625l0 -5.140625l1.015625 0zm4.347412 4.515625l-1.78125 0l0 3.0625l-1.0 0l0 -7.578125l2.5 0q1.28125 0 1.96875 0.59375q0.703125 0.578125 0.703125 1.6875q0 0.703125 -0.390625 1.234375q-0.375 0.53125 -1.0625 0.78125l1.78125 3.21875l0 0.0625l-1.078125 0l-1.640625 -3.0625zm-1.78125 -0.8125l1.53125 0q0.75 0 1.1875 -0.390625q0.4375 -0.390625 0.4375 -1.03125q0 -0.703125 -0.421875 -1.078125q-0.40625 -0.375 -1.203125 -0.375l-1.53125 0l0 2.875zm6.639435 3.875l-1.0 0l0 -7.578125l1.0 0l0 7.578125zm5.0856934 -3.375l-3.4375 -1.359375l0 -0.984375l4.4375 1.96875l0 0.765625l-4.4375 1.96875l0 -1.0l3.4375 -1.359375z" fill-rule="nonzero"/><path fill="#000000" fill-opacity="0.0" d="m154.27034 82.36226l0 -52.220474l23.937012 0l0 52.220474z" fill-rule="evenodd"/><path fill="#000000" d="m162.40073 65.26924l5.5 -1.9375038l-5.5 -1.9375l0 -2.046875l7.578125 0l0 1.5625l-2.078125 0l-3.5625 -0.15625l5.640625 2.046875l0 1.0625l-5.640625 2.0468788l3.5625 -0.15625l2.078125 0l0 1.5625l-7.578125 0l0 -2.046875zm6.015625 -11.662754l0 2.734375l1.5625 0.515625l0 1.671875l-7.578125 -2.828125l0 -1.4375l7.578125 -2.84375l0 1.65625l-1.5625 0.53125zm-1.265625 2.3125l0 -1.890625l-2.828125 0.953125l2.828125 0.9375zm0.15625 -6.7638245l2.671875 0l0 1.5625l-7.578125 0l0 -2.953125q0 -0.859375 0.3125 -1.5q0.3125 -0.65625 0.890625 -1.0q0.578125 -0.359375 1.3125 -0.359375q1.109375 0 1.75 0.765625q0.640625 0.765625 0.640625 2.109375l0 1.375zm-1.265625 0l0 -1.390625q0 -0.625 -0.28125 -0.953125q-0.296875 -0.328125 -0.84375 -0.328125q-0.546875 0 -0.890625 0.328125q-0.34375 0.328125 -0.359375 0.90625l0 1.4375l2.375 0z" fill-rule="nonzero"/><path fill="#000000" fill-opacity="0.0" d="m341.25198 55.719296l33.548004 0l0 0.09449005l33.538605 0" fill-rule="evenodd"/><path stroke="#595959" stroke-width="1.0" stroke-linejoin="round" stroke-linecap="butt" d="m341.25198 55.7193l33.548004 0l0 0.09448624l30.111542 0" fill-rule="evenodd"/><path fill="#595959" stroke="#595959" stroke-width="1.0" stroke-linecap="butt" d="m404.91153 55.813786l-1.1245728 1.1245842l3.0897522 -1.1245842l-3.0897522 -1.1245842z" fill-rule="evenodd"/><path fill="#eeeeee" d="m408.34778 29.354467l186.98163 0l0 52.913383l-186.98163 0z" fill-rule="evenodd"/><path fill="#000000" fill-opacity="0.0" d="m431.7205 29.354467l0 52.913383m140.23624 -52.913383l0 52.913383" fill-rule="evenodd"/><path fill="#000000" fill-opacity="0.0" d="m408.34778 29.354467l186.98163 0l0 52.913383l-186.98163 0z" fill-rule="evenodd"/><path stroke="#595959" stroke-width="1.0" stroke-linejoin="round" stroke-linecap="butt" d="m431.7205 29.354467l0 52.913383m140.23624 -52.913383l0 52.913383" fill-rule="evenodd"/><path stroke="#595959" stroke-width="1.0" stroke-linejoin="round" stroke-linecap="butt" d="m408.34778 29.354467l186.98163 0l0 52.913383l-186.98163 0z" fill-rule="evenodd"/><path fill="#000000" d="m472.8105 50.285534l-1.25 0l0 2.765625l-1.5625 0l0 -7.578125l2.8125 0q1.34375 0 2.078125 0.609375q0.734375 0.59375 0.734375 1.6875q0 0.765625 -0.34375 1.296875q-0.328125 0.515625 -1.015625 0.8125l1.640625 3.09375l0 0.078125l-1.671875 0l-1.421875 -2.765625zm-1.25 -1.265625l1.265625 0q0.578125 0 0.90625 -0.296875q0.328125 -0.3125 0.328125 -0.828125q0 -0.546875 -0.3125 -0.84375q-0.296875 -0.3125 -0.9375 -0.3125l-1.25 0l0 2.28125zm9.800659 0.75l-3.0 0l0 2.03125l3.515625 0l0 1.25l-5.078125 0l0 -7.578125l5.078125 0l0 1.265625l-3.515625 0l0 1.8125l3.0 0l0 1.21875zm5.7128906 1.71875l-2.734375 0l-0.515625 1.5625l-1.671875 0l2.828125 -7.578125l1.4375 0l2.84375 7.578125l-1.65625 0l-0.53125 -1.5625zm-2.3125 -1.265625l1.890625 0l-0.953125 -2.828125l-0.9375 2.828125zm5.2013245 2.828125l0 -7.578125l2.328125 0q1.0 0 1.78125 0.453125q0.796875 0.453125 1.234375 1.28125q0.453125 0.828125 0.453125 1.890625l0 0.34375q0 1.046875 -0.4375 1.875q-0.4375 0.828125 -1.234375 1.28125q-0.78125 0.453125 -1.78125 0.453125l-2.34375 0zm1.5625 -6.3125l0 5.0625l0.75 0q0.921875 0 1.40625 -0.59375q0.484375 -0.609375 0.5 -1.71875l0 -0.40625q0 -1.15625 -0.484375 -1.75q-0.484375 -0.59375 -1.40625 -0.59375l-0.765625 0zm9.579163 3.640625l0 2.671875l-1.5625 0l0 -7.578125l2.953125 0q0.859375 0 1.5 0.3125q0.65625 0.3125 1.0 0.890625q0.359375 0.578125 0.359375 1.3125q0 1.109375 -0.765625 1.75q-0.765625 0.640625 -2.109375 0.640625l-1.375 0zm0 -1.265625l1.390625 0q0.625 0 0.953125 -0.28125q0.328125 -0.296875 0.328125 -0.84375q0 -0.546875 -0.328125 -0.890625q-0.328125 -0.34375 -0.90625 -0.359375l-1.4375 0l0 2.375zm6.9828796 3.9375l-1.5625 0l0 -7.578125l1.5625 0l0 7.578125zm7.3875732 -2.53125q-0.09375 1.234375 -0.90625 1.9375q-0.8125 0.703125 -2.140625 0.703125q-1.453125 0 -2.296875 -0.984375q-0.828125 -0.984375 -0.828125 -2.6875l0 -0.46875q0 -1.09375 0.375 -1.921875q0.390625 -0.84375 1.109375 -1.28125q0.71875 -0.453125 1.65625 -0.453125q1.3125 0 2.109375 0.703125q0.8125 0.703125 0.9375 1.984375l-1.5625 0q-0.0625 -0.734375 -0.421875 -1.0625q-0.34375 -0.34375 -1.0625 -0.34375q-0.78125 0 -1.171875 0.5625q-0.375 0.5625 -0.390625 1.734375l0 0.578125q0 1.21875 0.359375 1.796875q0.375 0.5625 1.1875 0.5625q0.71875 0 1.078125 -0.328125q0.359375 -0.328125 0.40625 -1.03125l1.5625 0zm3.394226 -0.5l-0.8125 0.859375l0 2.171875l-1.5625 0l0 -7.578125l1.5625 0l0 3.4375l0.6875 -0.9375l1.9375 -2.5l1.921875 0l-2.703125 3.375l2.78125 4.203125l-1.859375 0l-1.953125 -3.03125zm5.951721 1.78125l3.3125 0l0 1.25l-4.875 0l0 -7.578125l1.5625 0l0 6.328125zm8.770386 -2.03125l-3.0 0l0 2.03125l3.515625 0l0 1.25l-5.078125 0l0 -7.578125l5.078125 0l0 1.265625l-3.515625 0l0 1.8125l3.0 0l0 1.21875z" fill-rule="nonzero"/><path fill="#000000" d="m454.82825 62.535534l-0.921875 0.953125l0 2.5625038l-1.0 0l0 -7.578129l1.0 0l0 3.75l3.375 -3.75l1.203125 0l-2.984375 3.34375l3.21875 4.234379l-1.203125 0l-2.6875 -3.5156288zm7.274719 2.1875038l2.15625 -6.250004l1.09375 0l-2.8125 7.578129l-0.875 0l-2.8125 -7.578129l1.09375 0l2.15625 6.250004zm4.7641907 -2.0156288l3.25 1.3125038l0 1.015625l-4.25 -1.9687538l0 -0.765625l4.25 -1.96875l0 1.03125l-3.25 1.34375zm5.9947205 3.3437538l-1.0 0l0 -7.578129l1.0 0l0 7.578129zm1.8200684 0l0 -7.578129l2.140625 0q0.984375 0 1.75 0.4375q0.765625 0.4375 1.171875 1.25q0.421875 0.796875 0.421875 1.84375l0 0.484375q0 1.078125 -0.421875 1.8906288q-0.40625 0.796875 -1.171875 1.234375q-0.765625 0.421875 -1.796875 0.4375l-2.09375 0zm1.0 -6.750004l0 5.937504l1.046875 0q1.15625 0 1.796875 -0.71875q0.65625 -0.7187538 0.65625 -2.0468788l0 -0.4375q0 -1.296875 -0.609375 -2.015625q-0.609375 -0.71875 -1.71875 -0.71875l-1.171875 0zm5.284851 8.265629l-0.546875 -0.375q0.484375 -0.6875 0.5 -1.40625l0 -0.875l0.953125 0l0 0.75q0 0.53125 -0.265625 1.046875q-0.25 0.53125 -0.640625 0.859375zm3.2635803 -4.484379l0 2.9687538l-1.0 0l0 -7.578129l2.796875 0q1.25 0 1.953125 0.640625q0.703125 0.625 0.703125 1.671875q0 1.109375 -0.6875 1.703125q-0.6875 0.59375 -1.984375 0.59375l-1.78125 0zm0 -0.8125l1.796875 0q0.796875 0 1.21875 -0.375q0.4375 -0.375 0.4375 -1.09375q0 -0.671875 -0.4375 -1.078125q-0.421875 -0.40625 -1.15625 -0.421875l-1.859375 0l0 2.96875zm6.80072 3.7812538l-1.0 0l0 -7.578129l1.0 0l0 7.578129zm7.3981934 -2.4062538q-0.140625 1.2031288 -0.890625 1.8593788q-0.75 0.65625 -1.984375 0.65625q-1.34375 0 -2.15625 -0.96875q-0.796875 -0.96875 -0.796875 -2.5781288l0 -0.71875q0 -1.0625 0.375 -1.859375q0.375 -0.8125 1.0625 -1.234375q0.6875 -0.4375 1.609375 -0.4375q1.203125 0 1.921875 0.6875q0.734375 0.671875 0.859375 1.859375l-1.0 0q-0.140625 -0.90625 -0.578125 -1.3125q-0.421875 -0.40625 -1.203125 -0.40625q-0.96875 0 -1.515625 0.71875q-0.53125 0.703125 -0.53125 2.0l0 0.734375q0 1.234375 0.515625 1.9687538q0.515625 0.71875 1.4375 0.71875q0.828125 0 1.265625 -0.375q0.453125 -0.375 0.609375 -1.3125038l1.0 0zm3.2796936 -1.109375l-0.921875 0.953125l0 2.5625038l-1.0 0l0 -7.578129l1.0 0l0 3.75l3.375 -3.75l1.203125 0l-2.984375 3.34375l3.21875 4.234379l-1.203125 0l-2.6875 -3.5156288zm5.774719 2.7031288l3.578125 0l0 0.8125l-4.59375 0l0 -7.578129l1.015625 0l0 6.765629zm8.999573 -2.6875038l-3.28125 0l0 2.6875038l3.8125 0l0 0.8125l-4.8125 0l0 -7.578129l4.765625 0l0 0.828125l-3.765625 0l0 2.4375l3.28125 0l0 0.8125zm4.413391 3.5000038l0 -7.578129l2.140625 0q0.984375 0 1.75 0.4375q0.765625 0.4375 1.171875 1.25q0.421875 0.796875 0.421875 1.84375l0 0.484375q0 1.078125 -0.421875 1.8906288q-0.40625 0.796875 -1.171875 1.234375q-0.765625 0.421875 -1.796875 0.4375l-2.09375 0zm1.0 -6.750004l0 5.937504l1.046875 0q1.15625 0 1.796875 -0.71875q0.65625 -0.7187538 0.65625 -2.0468788l0 -0.4375q0 -1.296875 -0.609375 -2.015625q-0.609375 -0.71875 -1.71875 -0.71875l-1.171875 0zm10.066101 4.765629l-3.171875 0l-0.71875 1.984375l-1.03125 0l2.890625 -7.578129l0.875 0l2.90625 7.578129l-1.03125 0l-0.71875 -1.984375zm-2.875 -0.8125038l2.578125 0l-1.296875 -3.546875l-1.28125 3.546875zm10.201538 -3.953125l-2.4375 0l0 6.750004l-0.984375 0l0 -6.750004l-2.4375 0l0 -0.828125l5.859375 0l0 0.828125zm4.9000244 4.765629l-3.171875 0l-0.71875 1.984375l-1.03125 0l2.890625 -7.578129l0.875 0l2.90625 7.578129l-1.03125 0l-0.71875 -1.984375zm-2.875 -0.8125038l2.578125 0l-1.296875 -3.546875l-1.28125 3.546875zm8.904663 -0.578125l-3.4375 -1.359375l0 -0.984375l4.4375 1.96875l0 0.765625l-4.4375 1.9687538l0 -1.0l3.4375 -1.3593788z" fill-rule="nonzero"/><path fill="#000000" fill-opacity="0.0" d="m408.34778 81.92131l0 -52.220474l23.937012 0l0 52.220474z" fill-rule="evenodd"/><path fill="#000000" d="m416.47815 64.82829l5.5 -1.9375l-5.5 -1.9375l0 -2.046875l7.578125 0l0 1.5625l-2.078125 0l-3.5625 -0.15625l5.640625 2.046875l0 1.0625l-5.640625 2.046875l3.5625 -0.15625l2.078125 0l0 1.5625l-7.578125 0l0 -2.046875zm6.015625 -11.66275l0 2.734375l1.5625 0.515625l0 1.671875l-7.578125 -2.828125l0 -1.4375l7.578125 -2.84375l0 1.65625l-1.5625 0.53125zm-1.265625 2.3125l0 -1.890625l-2.828125 0.953125l2.828125 0.9375zm0.15625 -6.7638245l2.671875 0l0 1.5625l-7.578125 0l0 -2.953125q0 -0.859375 0.3125 -1.5q0.3125 -0.65625 0.890625 -1.0q0.578125 -0.359375 1.3125 -0.359375q1.109375 0 1.75 0.765625q0.640625 0.765625 0.640625 2.109375l0 1.375zm-1.265625 0l0 -1.390625q0 -0.625 -0.28125 -0.953125q-0.296875 -0.328125 -0.84375 -0.328125q-0.546875 0 -0.890625 0.328125q-0.34375 0.328125 -0.359375 0.90625l0 1.4375l2.375 0z" fill-rule="nonzero"/><path fill="#000000" fill-opacity="0.0" d="m125.143394 55.74718l14.563438 0l0 0.50393677l14.570419 0" fill-rule="evenodd"/><path stroke="#595959" stroke-width="1.0" stroke-linejoin="round" stroke-linecap="butt" d="m125.143394 55.74718l14.563438 0l0 0.50393677l11.143341 0" fill-rule="evenodd"/><path fill="#595959" stroke="#595959" stroke-width="1.0" stroke-linecap="butt" d="m150.85016 56.251118l-1.1245728 1.1245842l3.0897675 -1.1245842l-3.0897675 -1.1245842z" fill-rule="evenodd"/><path fill="#000000" fill-opacity="0.0" d="m411.77954 1.3805774l120.44092 0l0 27.968504l-120.44092 0z" fill-rule="evenodd"/><path fill="#000000" d="m427.6233 20.620577l-1.5625 0l0 -3.25l-3.046875 0l0 3.25l-1.5625 0l0 -7.578125l1.5625 0l0 3.078125l3.046875 0l0 -3.078125l1.5625 0l0 7.578125zm3.0290833 0l-1.5625 0l0 -7.578125l1.5625 0l0 7.578125zm7.4344788 -0.953125q-0.421875 0.5 -1.203125 0.78125q-0.765625 0.28125 -1.703125 0.28125q-0.984375 0 -1.71875 -0.421875q-0.734375 -0.4375 -1.140625 -1.25q-0.40625 -0.828125 -0.421875 -1.921875l0 -0.515625q0 -1.140625 0.375 -1.96875q0.390625 -0.828125 1.109375 -1.265625q0.71875 -0.453125 1.6875 -0.453125q1.359375 0 2.109375 0.65625q0.765625 0.640625 0.90625 1.859375l-1.515625 0q-0.109375 -0.640625 -0.46875 -0.9375q-0.359375 -0.3125 -0.984375 -0.3125q-0.796875 0 -1.21875 0.609375q-0.40625 0.59375 -0.40625 1.765625l0 0.484375q0 1.1875 0.453125 1.796875q0.453125 0.609375 1.328125 0.609375q0.875 0 1.25 -0.375l0 -1.296875l-1.421875 0l0 -1.15625l2.984375 0l0 3.03125zm7.4303894 0.953125l-1.5625 0l0 -3.25l-3.046875 0l0 3.25l-1.5625 0l0 -7.578125l1.5625 0l0 3.078125l3.046875 0l0 -3.078125l1.5625 0l0 7.578125zm4.010895 0l0 -7.578125l2.328125 0q1.0 0 1.78125 0.453125q0.796875 0.453125 1.234375 1.28125q0.453125 0.828125 0.453125 1.890625l0 0.34375q0 1.046875 -0.4375 1.875q-0.4375 0.828125 -1.234375 1.28125q-0.78125 0.453125 -1.78125 0.453125l-2.34375 0zm1.5625 -6.3125l0 5.0625l0.75 0q0.921875 0 1.40625 -0.59375q0.484375 -0.609375 0.5 -1.71875l0 -0.40625q0 -1.15625 -0.484375 -1.75q-0.484375 -0.59375 -1.40625 -0.59375l-0.765625 0zm9.925507 3.03125l-3.0 0l0 2.03125l3.515625 0l0 1.25l-5.078125 0l0 -7.578125l5.078125 0l0 1.265625l-3.515625 0l0 1.8125l3.0 0l0 1.21875zm3.4785156 -4.296875l1.9375 5.5l1.9375 -5.5l2.046875 0l0 7.578125l-1.5625 0l0 -2.078125l0.15625 -3.5625l-2.046875 5.640625l-1.0625 0l-2.046875 -5.640625l0.15625 3.5625l0 2.078125l-1.5625 0l0 -7.578125l2.046875 0zm11.66275 6.015625l-2.734375 0l-0.515625 1.5625l-1.671875 0l2.828125 -7.578125l1.4375 0l2.84375 7.578125l-1.65625 0l-0.53125 -1.5625zm-2.3125 -1.265625l1.890625 0l-0.953125 -2.828125l-0.9375 2.828125zm11.373199 2.828125l-1.5625 0l-3.046875 -4.984375l0 4.984375l-1.5625 0l0 -7.578125l1.5625 0l3.046875 5.0l0 -5.0l1.5625 0l0 7.578125zm1.3520203 0l0 -7.578125l2.328125 0q1.0 0 1.78125 0.453125q0.796875 0.453125 1.234375 1.28125q0.453125 0.828125 0.453125 1.890625l0 0.34375q0 1.046875 -0.4375 1.875q-0.4375 0.828125 -1.234375 1.28125q-0.78125 0.453125 -1.78125 0.453125l-2.34375 0zm1.5625 -6.3125l0 5.0625l0.75 0q0.921875 0 1.40625 -0.59375q0.484375 -0.609375 0.5 -1.71875l0 -0.40625q0 -1.15625 -0.484375 -1.75q-0.484375 -0.59375 -1.40625 -0.59375l-0.765625 0z" fill-rule="nonzero"/><path fill="#000000" fill-opacity="0.0" d="m299.937 99.944885l111.84253 0l0 32.503937l-111.84253 0z" fill-rule="evenodd"/><path stroke="#595959" stroke-width="2.0" stroke-linejoin="round" stroke-linecap="butt" stroke-dasharray="2.0,6.0" d="m299.937 99.944885l111.84253 0l0 32.503937l-111.84253 0z" fill-rule="evenodd"/><path fill="#000000" d="m324.16498 118.30738q0 1.609375 -0.734375 2.59375q-0.734375 0.96875 -2.0 0.96875q-1.28125 0 -2.015625 -0.8125l0 3.390625l-1.203125 0l0 -9.75l1.109375 0l0.046875 0.78125q0.75 -0.90625 2.046875 -0.90625q1.265625 0 2.0 0.953125q0.75 0.953125 0.75 2.671875l0 0.109375zm-1.203125 -0.140625q0 -1.1875 -0.515625 -1.875q-0.5 -0.703125 -1.390625 -0.703125q-1.09375 0 -1.640625 0.96875l0 3.375q0.546875 0.953125 1.65625 0.953125q0.875 0 1.375 -0.671875q0.515625 -0.6875 0.515625 -2.046875zm4.040039 3.578125l-1.203125 0l0 -7.046875l1.203125 0l0 7.046875zm-1.296875 -8.90625q0 -0.296875 0.171875 -0.5q0.1875 -0.203125 0.53125 -0.203125q0.359375 0 0.53125 0.203125q0.1875 0.203125 0.1875 0.5q0 0.296875 -0.1875 0.5q-0.171875 0.1875 -0.53125 0.1875q-0.34375 0 -0.53125 -0.1875q-0.171875 -0.203125 -0.171875 -0.5zm6.046936 8.046875q0.640625 0 1.125 -0.390625q0.484375 -0.390625 0.53125 -0.96875l1.140625 0q-0.03125 0.609375 -0.421875 1.15625q-0.375 0.546875 -1.015625 0.875q-0.640625 0.3125 -1.359375 0.3125q-1.4375 0 -2.296875 -0.953125q-0.84375 -0.96875 -0.84375 -2.625l0 -0.203125q0 -1.03125 0.375 -1.828125q0.390625 -0.796875 1.09375 -1.234375q0.703125 -0.453125 1.671875 -0.453125q1.171875 0 1.953125 0.71875q0.796875 0.703125 0.84375 1.828125l-1.140625 0q-0.046875 -0.671875 -0.515625 -1.109375q-0.46875 -0.453125 -1.140625 -0.453125q-0.921875 0 -1.4375 0.671875q-0.5 0.65625 -0.5 1.90625l0 0.21875q0 1.21875 0.5 1.875q0.515625 0.65625 1.4375 0.65625zm6.1170654 -2.40625l-0.75 0.796875l0 2.46875l-1.203125 0l0 -10.0l1.203125 0l0 6.046875l0.640625 -0.765625l2.1875 -2.328125l1.46875 0l-2.734375 2.953125l3.046875 4.09375l-1.40625 0l-2.453125 -3.265625zm6.0989075 3.265625l-1.203125 0l0 -10.0l1.203125 0l0 10.0zm4.843811 0.125q-1.421875 0 -2.328125 -0.9375q-0.890625 -0.9375 -0.890625 -2.515625l0 -0.21875q0 -1.046875 0.390625 -1.859375q0.40625 -0.828125 1.125 -1.296875q0.71875 -0.46875 1.5625 -0.46875q1.375 0 2.125 0.90625q0.765625 0.90625 0.765625 2.59375l0 0.5l-4.765625 0q0.015625 1.03125 0.59375 1.671875q0.59375 0.640625 1.484375 0.640625q0.640625 0 1.078125 -0.25q0.453125 -0.265625 0.78125 -0.6875l0.734375 0.5625q-0.875 1.359375 -2.65625 1.359375zm-0.140625 -6.3125q-0.734375 0 -1.234375 0.53125q-0.484375 0.53125 -0.609375 1.484375l3.53125 0l0 -0.078125q-0.046875 -0.921875 -0.5 -1.421875q-0.4375 -0.515625 -1.1875 -0.515625zm11.748535 6.1875l-1.25 0l-4.765625 -7.296875l0 7.296875l-1.265625 0l0 -9.46875l1.265625 0l4.78125 7.328125l0 -7.328125l1.234375 0l0 9.46875zm6.3921204 0q-0.109375 -0.203125 -0.171875 -0.734375q-0.84375 0.859375 -2.015625 0.859375q-1.03125 0 -1.703125 -0.578125q-0.671875 -0.59375 -0.671875 -1.5q0 -1.09375 0.828125 -1.703125q0.84375 -0.609375 2.359375 -0.609375l1.171875 0l0 -0.5625q0 -0.625 -0.375 -1.0q-0.375 -0.375 -1.109375 -0.375q-0.640625 0 -1.078125 0.328125q-0.4375 0.328125 -0.4375 0.78125l-1.203125 0q0 -0.515625 0.359375 -1.0q0.375 -0.5 1.015625 -0.78125q0.65625 -0.296875 1.421875 -0.296875q1.21875 0 1.90625 0.609375q0.6875 0.609375 0.71875 1.671875l0 3.25q0 0.96875 0.234375 1.53125l0 0.109375l-1.25 0zm-2.0 -0.921875q0.5625 0 1.0625 -0.28125q0.515625 -0.296875 0.734375 -0.765625l0 -1.453125l-0.9375 0q-2.21875 0 -2.21875 1.296875q0 0.5625 0.375 0.890625q0.390625 0.3125 0.984375 0.3125zm6.0310364 -6.125l0.03125 0.78125q0.765625 -0.90625 2.09375 -0.90625q1.46875 0 2.0 1.125q0.359375 -0.5 0.921875 -0.8125q0.5625 -0.3125 1.328125 -0.3125q2.3125 0 2.359375 2.453125l0 4.71875l-1.203125 0l0 -4.640625q0 -0.765625 -0.34375 -1.140625q-0.34375 -0.375 -1.171875 -0.375q-0.65625 0 -1.109375 0.40625q-0.4375 0.40625 -0.515625 1.078125l0 4.671875l-1.203125 0l0 -4.609375q0 -1.546875 -1.5 -1.546875q-1.1875 0 -1.625 1.015625l0 5.140625l-1.203125 0l0 -7.046875l1.140625 0zm13.462891 7.171875q-1.421875 0 -2.328125 -0.9375q-0.890625 -0.9375 -0.890625 -2.515625l0 -0.21875q0 -1.046875 0.390625 -1.859375q0.40625 -0.828125 1.125 -1.296875q0.71875 -0.46875 1.5625 -0.46875q1.375 0 2.125 0.90625q0.765625 0.90625 0.765625 2.59375l0 0.5l-4.765625 0q0.015625 1.03125 0.59375 1.671875q0.59375 0.640625 1.484375 0.640625q0.640625 0 1.078125 -0.25q0.453125 -0.265625 0.78125 -0.6875l0.734375 0.5625q-0.875 1.359375 -2.65625 1.359375zm-0.140625 -6.3125q-0.734375 0 -1.234375 0.53125q-0.484375 0.53125 -0.609375 1.484375l3.53125 0l0 -0.078125q-0.046875 -0.921875 -0.5 -1.421875q-0.4375 -0.515625 -1.1875 -0.515625zm8.38916 4.3125q0 -0.484375 -0.375 -0.75q-0.359375 -0.265625 -1.28125 -0.453125q-0.90625 -0.203125 -1.453125 -0.46875q-0.53125 -0.28125 -0.796875 -0.65625q-0.25 -0.390625 -0.25 -0.90625q0 -0.859375 0.734375 -1.453125q0.734375 -0.609375 1.875 -0.609375q1.1875 0 1.9375 0.625q0.75 0.609375 0.75 1.578125l-1.21875 0q0 -0.5 -0.421875 -0.859375q-0.421875 -0.359375 -1.046875 -0.359375q-0.65625 0 -1.03125 0.296875q-0.375 0.28125 -0.375 0.75q0 0.421875 0.34375 0.65625q0.34375 0.21875 1.25 0.421875q0.90625 0.203125 1.453125 0.484375q0.5625 0.265625 0.828125 0.671875q0.28125 0.390625 0.28125 0.953125q0 0.9375 -0.765625 1.515625q-0.75 0.5625 -1.953125 0.5625q-0.84375 0 -1.5 -0.296875q-0.640625 -0.296875 -1.015625 -0.828125q-0.359375 -0.546875 -0.359375 -1.171875l1.203125 0q0.03125 0.609375 0.484375 0.96875q0.453125 0.34375 1.1875 0.34375q0.6875 0 1.09375 -0.265625q0.421875 -0.28125 0.421875 -0.75z" fill-rule="nonzero"/><path fill="#000000" fill-opacity="0.0" d="m508.5538 99.944885l111.8425 0l0 32.503937l-111.8425 0z" fill-rule="evenodd"/><path stroke="#595959" stroke-width="2.0" stroke-linejoin="round" stroke-linecap="butt" stroke-dasharray="2.0,6.0" d="m508.5538 99.944885l111.8425 0l0 32.503937l-111.8425 0z" fill-rule="evenodd"/><path fill="#000000" d="m535.75275 118.30738q0 1.609375 -0.734375 2.59375q-0.734375 0.96875 -2.0 0.96875q-1.28125 0 -2.015625 -0.8125l0 3.390625l-1.203125 0l0 -9.75l1.109375 0l0.046875 0.78125q0.75 -0.90625 2.046875 -0.90625q1.265625 0 2.0 0.953125q0.75 0.953125 0.75 2.671875l0 0.109375zm-1.203125 -0.140625q0 -1.1875 -0.515625 -1.875q-0.5 -0.703125 -1.390625 -0.703125q-1.09375 0 -1.640625 0.96875l0 3.375q0.546875 0.953125 1.65625 0.953125q0.875 0 1.375 -0.671875q0.515625 -0.6875 0.515625 -2.046875zm4.0401 3.578125l-1.203125 0l0 -7.046875l1.203125 0l0 7.046875zm-1.296875 -8.90625q0 -0.296875 0.171875 -0.5q0.1875 -0.203125 0.53125 -0.203125q0.359375 0 0.53125 0.203125q0.1875 0.203125 0.1875 0.5q0 0.296875 -0.1875 0.5q-0.171875 0.1875 -0.53125 0.1875q-0.34375 0 -0.53125 -0.1875q-0.171875 -0.203125 -0.171875 -0.5zm6.046875 8.046875q0.640625 0 1.125 -0.390625q0.484375 -0.390625 0.53125 -0.96875l1.140625 0q-0.03125 0.609375 -0.421875 1.15625q-0.375 0.546875 -1.015625 0.875q-0.640625 0.3125 -1.359375 0.3125q-1.4375 0 -2.296875 -0.953125q-0.84375 -0.96875 -0.84375 -2.625l0 -0.203125q0 -1.03125 0.375 -1.828125q0.390625 -0.796875 1.09375 -1.234375q0.703125 -0.453125 1.671875 -0.453125q1.171875 0 1.953125 0.71875q0.796875 0.703125 0.84375 1.828125l-1.140625 0q-0.046875 -0.671875 -0.515625 -1.109375q-0.46875 -0.453125 -1.140625 -0.453125q-0.921875 0 -1.4375 0.671875q-0.5 0.65625 -0.5 1.90625l0 0.21875q0 1.21875 0.5 1.875q0.515625 0.65625 1.4375 0.65625zm6.1170654 -2.40625l-0.75 0.796875l0 2.46875l-1.203125 0l0 -10.0l1.203125 0l0 6.046875l0.640625 -0.765625l2.1875 -2.328125l1.46875 0l-2.734375 2.953125l3.046875 4.09375l-1.40625 0l-2.453125 -3.265625zm6.098938 3.265625l-1.203125 0l0 -10.0l1.203125 0l0 10.0zm4.843811 0.125q-1.421875 0 -2.328125 -0.9375q-0.890625 -0.9375 -0.890625 -2.515625l0 -0.21875q0 -1.046875 0.390625 -1.859375q0.40625 -0.828125 1.125 -1.296875q0.71875 -0.46875 1.5625 -0.46875q1.375 0 2.125 0.90625q0.765625 0.90625 0.765625 2.59375l0 0.5l-4.765625 0q0.015625 1.03125 0.59375 1.671875q0.59375 0.640625 1.484375 0.640625q0.640625 0 1.078125 -0.25q0.453125 -0.265625 0.78125 -0.6875l0.734375 0.5625q-0.875 1.359375 -2.65625 1.359375zm-0.140625 -6.3125q-0.734375 0 -1.234375 0.53125q-0.484375 0.53125 -0.609375 1.484375l3.53125 0l0 -0.078125q-0.046875 -0.921875 -0.5 -1.421875q-0.4375 -0.515625 -1.1875 -0.515625zm8.38916 4.3125q0 -0.484375 -0.375 -0.75q-0.359375 -0.265625 -1.28125 -0.453125q-0.90625 -0.203125 -1.453125 -0.46875q-0.53125 -0.28125 -0.796875 -0.65625q-0.25 -0.390625 -0.25 -0.90625q0 -0.859375 0.734375 -1.453125q0.734375 -0.609375 1.875 -0.609375q1.1875 0 1.9375 0.625q0.75 0.609375 0.75 1.578125l-1.21875 0q0 -0.5 -0.421875 -0.859375q-0.421875 -0.359375 -1.046875 -0.359375q-0.65625 0 -1.03125 0.296875q-0.375 0.28125 -0.375 0.75q0 0.421875 0.34375 0.65625q0.34375 0.21875 1.25 0.421875q0.90625 0.203125 1.453125 0.484375q0.5625 0.265625 0.828125 0.671875q0.28125 0.390625 0.28125 0.953125q0 0.9375 -0.765625 1.515625q-0.75 0.5625 -1.953125 0.5625q-0.84375 0 -1.5 -0.296875q-0.640625 -0.296875 -1.015625 -0.828125q-0.359375 -0.546875 -0.359375 -1.171875l1.203125 0q0.03125 0.609375 0.484375 0.96875q0.453125 0.34375 1.1875 0.34375q0.6875 0 1.09375 -0.265625q0.421875 -0.28125 0.421875 -0.75zm9.497314 -6.578125l-3.046875 0l0 8.453125l-1.234375 0l0 -8.453125l-3.046875 0l0 -1.015625l7.328125 0l0 1.015625zm4.1362305 2.484375q-0.265625 -0.03125 -0.59375 -0.03125q-1.1875 0 -1.609375 1.0l0 5.0l-1.203125 0l0 -7.046875l1.171875 0l0.03125 0.8125q0.578125 -0.9375 1.671875 -0.9375q0.34375 0 0.53125 0.09375l0 1.109375zm5.2026367 5.96875q-0.109375 -0.203125 -0.171875 -0.734375q-0.84375 0.859375 -2.015625 0.859375q-1.03125 0 -1.703125 -0.578125q-0.671875 -0.59375 -0.671875 -1.5q0 -1.09375 0.828125 -1.703125q0.84375 -0.609375 2.359375 -0.609375l1.171875 0l0 -0.5625q0 -0.625 -0.375 -1.0q-0.375 -0.375 -1.109375 -0.375q-0.640625 0 -1.078125 0.328125q-0.4375 0.328125 -0.4375 0.78125l-1.203125 0q0 -0.515625 0.359375 -1.0q0.375 -0.5 1.015625 -0.78125q0.65625 -0.296875 1.421875 -0.296875q1.21875 0 1.90625 0.609375q0.6875 0.609375 0.71875 1.671875l0 3.25q0 0.96875 0.234375 1.53125l0 0.109375l-1.25 0zm-2.0 -0.921875q0.5625 0 1.0625 -0.28125q0.515625 -0.296875 0.734375 -0.765625l0 -1.453125l-0.9375 0q-2.21875 0 -2.21875 1.296875q0 0.5625 0.375 0.890625q0.390625 0.3125 0.984375 0.3125zm6.202942 0.921875l-1.203125 0l0 -7.046875l1.203125 0l0 7.046875zm-1.296875 -8.90625q0 -0.296875 0.171875 -0.5q0.1875 -0.203125 0.53125 -0.203125q0.359375 0 0.53125 0.203125q0.1875 0.203125 0.1875 0.5q0 0.296875 -0.1875 0.5q-0.171875 0.1875 -0.53125 0.1875q-0.34375 0 -0.53125 -0.1875q-0.171875 -0.203125 -0.171875 -0.5zm4.359375 1.859375l0.046875 0.890625q0.796875 -1.015625 2.109375 -1.015625q2.234375 0 2.25 2.515625l0 4.65625l-1.203125 0l0 -4.65625q-0.015625 -0.765625 -0.359375 -1.125q-0.328125 -0.375 -1.0625 -0.375q-0.578125 0 -1.03125 0.3125q-0.4375 0.3125 -0.6875 0.828125l0 5.015625l-1.203125 0l0 -7.046875l1.140625 0z" fill-rule="nonzero"/><path fill="#000000" fill-opacity="0.0" d="m341.25198 55.719296l14.614166 0l0 44.22047" fill-rule="evenodd"/><path stroke="#595959" stroke-width="1.0" stroke-linejoin="round" stroke-linecap="butt" d="m341.25198 55.7193l14.614197 0l0 40.79338" fill-rule="evenodd"/><path fill="#595959" stroke="#595959" stroke-width="1.0" stroke-linecap="butt" d="m355.86618 96.51268l-1.1245728 -1.124588l1.1245728 3.089775l1.1245728 -3.089775z" fill-rule="evenodd"/><path fill="#000000" fill-opacity="0.0" d="m595.3124 55.719296l14.614136 0l0 44.22047" fill-rule="evenodd"/><path stroke="#595959" stroke-width="1.0" stroke-linejoin="round" stroke-linecap="butt" d="m595.3124 55.7193l14.614197 0l0 40.79338" fill-rule="evenodd"/><path fill="#595959" stroke="#595959" stroke-width="1.0" stroke-linecap="butt" d="m609.9266 96.51268l-1.1246338 -1.124588l1.1246338 3.089775l1.1245728 -3.089775z" fill-rule="evenodd"/></g></svg>