<svg version="1.1" viewBox="0.0 0.0 622.1154855643044 419.5223097112861" fill="none" stroke="none" stroke-linecap="square" stroke-miterlimit="10" xmlns:xlink="http://www.w3.org/1999/xlink" xmlns="http://www.w3.org/2000/svg"><clipPath id="p.0"><path d="m0 0l622.1155 0l0 419.5223l-622.1155 0l0 -419.5223z" clip-rule="nonzero"/></clipPath><g clip-path="url(#p.0)"><path fill="#000000" fill-opacity="0.0" d="m0 0l622.1155 0l0 419.5223l-622.1155 0z" fill-rule="evenodd"/><path fill="#000000" fill-opacity="0.0" d="m6.0734906 6.0453944l0 0c0 -0.7310095 0.59260035 -1.3236098 1.3236098 -1.3236098l589.6992 0c0.35107422 0 0.68774414 0.1394515 0.9359741 0.38767624c0.24822998 0.24822521 0.38763428 0.58489037 0.38763428 0.9359336l0 37.10081c0 0.73101044 -0.59259033 1.3236122 -1.3236084 1.3236122l-589.6992 0c-0.7310095 0 -1.3236098 -0.5926018 -1.3236098 -1.3236122z" fill-rule="evenodd"/><path stroke="#ff9900" stroke-width="2.0" stroke-linejoin="round" stroke-linecap="butt" stroke-dasharray="2.0,6.0" d="m6.0734906 6.0453944l0 0c0 -0.7310095 0.59260035 -1.3236098 1.3236098 -1.3236098l589.6992 0c0.35107422 0 0.68774414 0.1394515 0.9359741 0.38767624c0.24822998 0.24822521 0.38763428 0.58489037 0.38763428 0.9359336l0 37.10081c0 0.73101044 -0.59259033 1.3236122 -1.3236084 1.3236122l-589.6992 0c-0.7310095 0 -1.3236098 -0.5926018 -1.3236098 -1.3236122z" fill-rule="evenodd"/><path fill="#000000" d="m267.9303 29.469458l0 -9.75l-3.34375 0l0 -1.703125l8.78125 0l0 1.703125l-3.3125 0l0 9.75l-2.125 0zm6.625 0l0 -11.484375l4.234375 0q0.875 0 1.5 0.078125q0.640625 0.078125 1.21875 0.296875q0.578125 0.203125 0.921875 0.5625q0.359375 0.34375 0.5625 0.90625q0.21875 0.5625 0.21875 1.34375q0 2.28125 -2.078125 3.0q0.421875 0.46875 1.046875 1.765625l1.703125 3.53125l-2.3125 0l-1.328125 -3.0q-0.765625 -1.609375 -0.9375 -1.90625q-0.140625 0 -0.890625 0l-1.765625 -0.015625l0 4.921875l-2.09375 0zm4.421875 -6.4375q1.21875 0 1.75 -0.4375q0.53125 -0.4375 0.53125 -1.390625q0 -0.84375 -0.546875 -1.234375q-0.53125 -0.40625 -1.640625 -0.40625l-2.421875 0l0 3.453125q0.109375 0 1.15625 0.015625q1.046875 0 1.171875 0zm5.25 6.4375l4.21875 -11.453125l2.3125 0l4.140625 11.453125l-2.171875 0l-1.125 -3.234375l-4.015625 0l-1.140625 3.234375l-2.21875 0zm3.890625 -4.8125l2.9375 0q-1.40625 -4.515625 -1.4375 -4.65625l-1.5 4.65625zm8.0546875 4.8125l0 -11.453125l2.109375 0l0 11.453125l-2.109375 0zm4.640625 0l0 -11.453125l2.25 0q0.609375 0.953125 2.46875 3.84375q1.875 2.890625 2.28125 3.515625q0.125 0.1875 0.40625 0.609375q0.28125 0.421875 0.40625 0.609375q-0.0625 -2.6875 -0.0625 -2.78125l0 -5.796875l1.9375 0l0 11.453125l-2.28125 0l-5.171875 -8.046875l-0.375 -0.625q0.0625 2.0625 0.0625 2.90625l0 5.765625l-1.921875 0zm12.203125 0l0 -11.453125l2.109375 0l0 11.453125l-2.109375 0zm4.640625 0l0 -11.453125l2.25 0q0.609375 0.953125 2.46875 3.84375q1.875 2.890625 2.28125 3.515625q0.125 0.1875 0.40625 0.609375q0.28125 0.421875 0.40625 0.609375q-0.0625 -2.6875 -0.0625 -2.78125l0 -5.796875l1.9375 0l0 11.453125l-2.28125 0l-5.171875 -8.046875l-0.375 -0.625q0.0625 2.0625 0.0625 2.90625l0 5.765625l-1.921875 0zm17.25 0.171875q-2.609375 0 -4.09375 -1.578125q-1.46875 -1.59375 -1.46875 -4.328125q0 -1.75 0.6875 -3.0625q0.6875 -1.328125 2.015625 -2.0625q1.34375 -0.75 3.171875 -0.75q2.078125 0 3.578125 0.890625l-0.6875 1.578125q-1.421875 -0.765625 -2.859375 -0.765625q-1.734375 0 -2.734375 1.125q-0.984375 1.125 -0.984375 3.0625q0 1.921875 0.875 3.046875q0.890625 1.109375 2.59375 1.109375q1.09375 0 1.984375 -0.34375l0 -2.65625l-2.390625 0l0.015625 -1.65625l4.375 0l0 5.515625q-1.0625 0.4375 -2.015625 0.65625q-0.953125 0.21875 -2.0625 0.21875z" fill-rule="nonzero"/><path fill="#fff2cc" d="m348.32285 249.78372l0 0c0 -5.8223267 4.7199097 -10.542252 10.542236 -10.542252l229.02573 0c2.7960205 0 5.477478 1.1107025 7.454529 3.0877533c1.9770508 1.9770508 3.0877075 4.6585236 3.0877075 7.4544983l0 152.67929c0 5.822296 -4.7199097 10.542236 -10.542236 10.542236l-229.02573 0c-5.8223267 0 -10.542236 -4.71994 -10.542236 -10.542236z" fill-rule="evenodd"/><path stroke="#ff9900" stroke-width="2.0" stroke-linejoin="round" stroke-linecap="butt" stroke-dasharray="2.0,6.0" d="m348.32285 249.78372l0 0c0 -5.8223267 4.7199097 -10.542252 10.542236 -10.542252l229.02573 0c2.7960205 0 5.477478 1.1107025 7.454529 3.0877533c1.9770508 1.9770508 3.0877075 4.6585236 3.0877075 7.4544983l0 152.67929c0 5.822296 -4.7199097 10.542236 -10.542236 10.542236l-229.02573 0c-5.8223267 0 -10.542236 -4.71994 -10.542236 -10.542236z" fill-rule="evenodd"/><path fill="#000000" d="m437.35843 397.27753l0 -11.453125l2.5 0l3.46875 8.265625l3.484375 -8.265625l2.46875 0l0 11.453125l-1.953125 0l0 -5.65625l0.0625 -3.25l-0.296875 0.859375l-2.921875 7.265625l-1.8125 0l-2.875 -7.296875l-0.28125 -0.859375l0.0625 3.3125l0 5.625l-1.90625 0zm14.3828125 0l0 -11.453125l2.125 0l0 9.765625l4.78125 0l-0.0625 1.6875l-6.84375 0zm8.3671875 0l0 -11.453125l6.9375 0l-0.078125 1.6875l-4.734375 0l0 2.953125l4.5 0l0 1.671875l-4.5 0l0 3.453125l4.90625 0l-0.078125 1.6875l-6.953125 0zm8.8125 0l0 -8.59375l1.640625 0l0.234375 1.09375q1.3125 -1.296875 2.90625 -1.296875q1.5 0 2.25 0.859375q0.75 0.859375 0.75 2.5l0 5.4375l-2.0625 0l0 -5.1875q0 -1.03125 -0.328125 -1.546875q-0.328125 -0.515625 -1.1875 -0.515625q-0.65625 0 -1.21875 0.34375q-0.546875 0.328125 -0.796875 0.84375q-0.140625 0.609375 -0.140625 1.875l0 4.1875l-2.046875 0zm11.515625 3.84375l-0.125 -1.65625l1.046875 0q1.796875 0 2.515625 -0.484375q0.71875 -0.46875 0.71875 -1.765625q0 -0.515625 -0.046875 -1.125q-0.203125 0.28125 -0.390625 0.46875q-0.171875 0.171875 -0.453125 0.359375q-0.28125 0.171875 -0.671875 0.265625q-0.375 0.09375 -0.875 0.09375q-1.703125 0 -2.796875 -1.21875q-1.09375 -1.234375 -1.09375 -3.171875q0 -1.03125 0.296875 -1.875q0.3125 -0.859375 0.828125 -1.40625q0.53125 -0.546875 1.203125 -0.828125q0.6875 -0.296875 1.46875 -0.296875q1.71875 0 2.5625 1.25l0.140625 -1.046875l1.828125 0l0 7.984375q0 0.640625 -0.0625 1.15625q-0.0625 0.515625 -0.21875 0.984375q-0.15625 0.46875 -0.40625 0.8125q-0.25 0.359375 -0.640625 0.640625q-0.375 0.296875 -0.90625 0.484375q-0.515625 0.1875 -1.203125 0.28125q-0.6875 0.09375 -1.546875 0.09375l-1.171875 0zm2.046875 -5.28125q2.125 0 2.140625 -2.828125l0 -0.296875q-0.015625 -1.28125 -0.53125 -1.96875q-0.515625 -0.703125 -1.5 -0.703125q-1.125 0 -1.703125 0.765625q-0.578125 0.765625 -0.578125 2.078125q0 1.25 0.578125 2.109375q0.578125 0.84375 1.59375 0.84375zm6.1796875 1.4375l0 -8.59375l2.046875 0l0 8.59375l-2.046875 0zm0 -9.84375l0 -1.75l2.046875 0l0 1.75l-2.046875 0zm4.1796875 9.84375l0 -8.59375l1.640625 0l0.234375 1.09375q1.3125 -1.296875 2.90625 -1.296875q1.5 0 2.25 0.859375q0.75 0.859375 0.75 2.5l0 5.4375l-2.0625 0l0 -5.1875q0 -1.03125 -0.328125 -1.546875q-0.328125 -0.515625 -1.1875 -0.515625q-0.65625 0 -1.21875 0.34375q-0.546875 0.328125 -0.796875 0.84375q-0.140625 0.609375 -0.140625 1.875l0 4.1875l-2.046875 0zm13.765625 0.171875q-2.078125 0 -3.234375 -1.1875q-1.140625 -1.203125 -1.140625 -3.3125q0 -2.046875 1.078125 -3.25q1.09375 -1.21875 2.96875 -1.21875q1.765625 0 2.75 1.109375q0.984375 1.109375 0.984375 2.9375q0 0.140625 -0.015625 0.4375q0 0.296875 0 0.4375l-5.703125 0q0.03125 1.203125 0.65625 1.859375q0.625 0.65625 1.734375 0.65625q1.40625 0 2.703125 -0.734375l0.28125 1.453125q-1.28125 0.8125 -3.0625 0.8125zm-2.28125 -5.34375l3.75 0q0 -1.046875 -0.484375 -1.609375q-0.46875 -0.5625 -1.3125 -0.5625q-0.78125 0 -1.328125 0.546875q-0.546875 0.546875 -0.625 1.625z" fill-rule="nonzero"/><path fill="#c9daf8" d="m8.590551 253.34935l0 0c0 -7.791565 6.3163137 -14.10788 14.107882 -14.10788l302.83936 0c3.7416382 0 7.3300476 1.4863586 9.9758 4.1320953c2.6457214 2.645752 4.13208 6.234146 4.13208 9.975784l0 145.54802c0 7.791565 -6.3163147 14.10788 -14.10788 14.10788l-302.83936 0c-7.791568 0 -14.107882 -6.3163147 -14.107882 -14.10788z" fill-rule="evenodd"/><path stroke="#ff9900" stroke-width="2.0" stroke-linejoin="round" stroke-linecap="butt" stroke-dasharray="2.0,6.0" d="m8.590551 253.34935l0 0c0 -7.791565 6.3163137 -14.10788 14.107882 -14.10788l302.83936 0c3.7416382 0 7.3300476 1.4863586 9.9758 4.1320953c2.6457214 2.645752 4.13208 6.234146 4.13208 9.975784l0 145.54802c0 7.791565 -6.3163147 14.10788 -14.10788 14.10788l-302.83936 0c-7.791568 0 -14.107882 -6.3163147 -14.107882 -14.10788z" fill-rule="evenodd"/><path fill="#000000" d="m78.64937 396.2332l4.21875 -11.453125l2.3125 0l4.140625 11.453125l-2.171875 0l-1.125 -3.234375l-4.015625 0l-1.140625 3.234375l-2.21875 0zm3.890625 -4.8125l2.9375 0q-1.40625 -4.515625 -1.4375 -4.65625l-1.5 4.65625zm7.8046875 8.390625l0 -12.171875l1.75 0l0.21875 1.203125q0.421875 -0.671875 1.125 -1.046875q0.703125 -0.375 1.5625 -0.375q1.046875 0 1.84375 0.59375q0.8125 0.578125 1.21875 1.59375q0.421875 1.015625 0.421875 2.28125q0 2.0 -0.96875 3.265625q-0.96875 1.25 -2.609375 1.25q-0.8125 0 -1.484375 -0.328125q-0.65625 -0.328125 -1.09375 -0.890625q0.0625 1.140625 0.0625 1.28125l0 3.234375l-2.046875 0.109375zm4.125 -4.984375q0.90625 0 1.4375 -0.765625q0.53125 -0.765625 0.53125 -2.1875q0 -1.4375 -0.53125 -2.15625q-0.53125 -0.734375 -1.484375 -0.734375q-2.03125 0 -2.046875 2.765625q0 1.59375 0.515625 2.34375q0.53125 0.734375 1.578125 0.734375zm7.921875 1.578125q-1.203125 0 -1.9375 -0.65625q-0.734375 -0.671875 -0.734375 -1.921875q0 -1.328125 0.875 -1.96875q0.875 -0.65625 2.640625 -0.828125q0.234375 -0.03125 0.515625 -0.0625q0.28125 -0.03125 0.625 -0.0625q0.359375 -0.03125 0.5625 -0.046875l0 -0.453125q0 -0.78125 -0.359375 -1.140625q-0.359375 -0.359375 -1.09375 -0.359375q-1.046875 0 -2.578125 0.59375q-0.015625 -0.03125 -0.265625 -0.71875q-0.25 -0.6875 -0.25 -0.703125q1.515625 -0.640625 3.28125 -0.640625q1.734375 0 2.515625 0.75q0.796875 0.75 0.796875 2.4375l0 5.609375l-1.515625 0q-0.015625 -0.03125 -0.1875 -0.515625q-0.15625 -0.5 -0.15625 -0.53125q-0.640625 0.625 -1.25 0.921875q-0.609375 0.296875 -1.484375 0.296875zm0.546875 -1.46875q0.71875 0 1.234375 -0.328125q0.53125 -0.34375 0.765625 -0.828125l0 -1.65625q-0.03125 0 -0.421875 0.03125q-0.375 0.03125 -0.40625 0.03125q-1.25 0.109375 -1.828125 0.46875q-0.578125 0.359375 -0.578125 1.15625q0 0.546875 0.3125 0.84375q0.328125 0.28125 0.921875 0.28125zm9.859375 1.46875q-1.96875 0 -3.0625 -1.171875q-1.09375 -1.1875 -1.09375 -3.359375q0 -2.109375 1.140625 -3.265625q1.15625 -1.171875 3.046875 -1.171875q1.5 0 2.546875 0.640625l-0.484375 1.46875q-1.0625 -0.5625 -1.984375 -0.5625q-1.03125 0 -1.640625 0.75q-0.59375 0.734375 -0.59375 2.15625q0 1.4375 0.59375 2.1875q0.59375 0.75 1.671875 0.75q1.125 0 2.15625 -0.65625l0.203125 1.546875q-0.546875 0.359375 -1.125 0.515625q-0.578125 0.171875 -1.375 0.171875zm4.125 -0.171875l0 -11.75l2.046875 -0.140625l0 2.484375q0 0.171875 -0.03125 1.0q-0.015625 0.8125 -0.015625 0.828125q1.015625 -1.21875 2.75 -1.21875q1.4375 0 2.21875 0.828125q0.796875 0.8125 0.796875 2.53125l0 5.4375l-2.046875 0l0 -5.21875q0 -1.046875 -0.34375 -1.53125q-0.328125 -0.5 -1.125 -0.5q-0.6875 0 -1.21875 0.34375q-0.53125 0.34375 -0.796875 0.890625q-0.1875 0.71875 -0.1875 1.875l0 4.140625l-2.046875 0zm13.7578125 0.171875q-2.078125 0 -3.234375 -1.1875q-1.140625 -1.203125 -1.140625 -3.3125q0 -2.046875 1.078125 -3.25q1.09375 -1.21875 2.96875 -1.21875q1.765625 0 2.75 1.109375q0.984375 1.109375 0.984375 2.9375q0 0.140625 -0.015625 0.4375q0 0.296875 0 0.4375l-5.703125 0q0.03125 1.203125 0.65625 1.859375q0.625 0.65625 1.734375 0.65625q1.40625 0 2.703125 -0.734375l0.28125 1.453125q-1.28125 0.8125 -3.0625 0.8125zm-2.28125 -5.34375l3.75 0q0 -1.046875 -0.484375 -1.609375q-0.46875 -0.5625 -1.3125 -0.5625q-0.78125 0 -1.328125 0.546875q-0.546875 0.546875 -0.625 1.625zm11.765625 5.171875l0 -11.453125l3.578125 0q2.265625 0 3.375 0.671875q1.125 0.65625 1.125 2.203125q0 0.25 -0.03125 0.5q-0.03125 0.234375 -0.140625 0.546875q-0.109375 0.3125 -0.296875 0.5625q-0.171875 0.25 -0.5 0.484375q-0.3125 0.234375 -0.734375 0.375q1.0625 0.25 1.625 0.984375q0.5625 0.734375 0.5625 1.796875q0 1.625 -1.15625 2.484375q-1.140625 0.84375 -3.15625 0.84375l-4.25 0zm2.125 -1.53125l1.828125 0q2.4375 0 2.4375 -1.90625q0 -0.96875 -0.609375 -1.390625q-0.609375 -0.421875 -1.875 -0.421875l-1.78125 0l0 3.71875zm0 -5.1875l1.8125 0q2.09375 0 2.09375 -1.609375q0 -0.890625 -0.609375 -1.21875q-0.59375 -0.34375 -1.921875 -0.34375l-1.375 0l0 3.171875zm12.0703125 6.890625q-2.078125 0 -3.234375 -1.1875q-1.140625 -1.203125 -1.140625 -3.3125q0 -2.046875 1.078125 -3.25q1.09375 -1.21875 2.96875 -1.21875q1.765625 0 2.75 1.109375q0.984375 1.109375 0.984375 2.9375q0 0.140625 -0.015625 0.4375q0 0.296875 0 0.4375l-5.703125 0q0.03125 1.203125 0.65625 1.859375q0.625 0.65625 1.734375 0.65625q1.40625 0 2.703125 -0.734375l0.28125 1.453125q-1.28125 0.8125 -3.0625 0.8125zm-2.28125 -5.34375l3.75 0q0 -1.046875 -0.484375 -1.609375q-0.46875 -0.5625 -1.3125 -0.5625q-0.78125 0 -1.328125 0.546875q-0.546875 0.546875 -0.625 1.625zm9.5859375 5.34375q-1.203125 0 -1.9375 -0.65625q-0.734375 -0.671875 -0.734375 -1.921875q0 -1.328125 0.875 -1.96875q0.875 -0.65625 2.640625 -0.828125q0.234375 -0.03125 0.515625 -0.0625q0.28125 -0.03125 0.625 -0.0625q0.359375 -0.03125 0.5625 -0.046875l0 -0.453125q0 -0.78125 -0.359375 -1.140625q-0.359375 -0.359375 -1.09375 -0.359375q-1.046875 0 -2.578125 0.59375q-0.015625 -0.03125 -0.265625 -0.71875q-0.25 -0.6875 -0.25 -0.703125q1.515625 -0.640625 3.28125 -0.640625q1.734375 0 2.515625 0.75q0.796875 0.75 0.796875 2.4375l0 5.609375l-1.515625 0q-0.015625 -0.03125 -0.1875 -0.515625q-0.15625 -0.5 -0.15625 -0.53125q-0.640625 0.625 -1.25 0.921875q-0.609375 0.296875 -1.484375 0.296875zm0.546875 -1.46875q0.71875 0 1.234375 -0.328125q0.53125 -0.34375 0.765625 -0.828125l0 -1.65625q-0.03125 0 -0.421875 0.03125q-0.375 0.03125 -0.40625 0.03125q-1.25 0.109375 -1.828125 0.46875q-0.578125 0.359375 -0.578125 1.15625q0 0.546875 0.3125 0.84375q0.328125 0.28125 0.921875 0.28125zm6.109375 1.296875l0 -8.59375l1.65625 0l0.234375 1.09375q0.15625 -0.1875 0.296875 -0.34375q0.140625 -0.15625 0.390625 -0.34375q0.265625 -0.1875 0.546875 -0.3125q0.28125 -0.125 0.703125 -0.203125q0.421875 -0.09375 0.890625 -0.09375q1.03125 0 1.640625 0.421875q0.609375 0.40625 0.859375 0.953125q0.46875 -0.65625 1.203125 -1.015625q0.734375 -0.359375 1.625 -0.359375q1.484375 0 2.171875 0.84375q0.6875 0.828125 0.6875 2.46875l0 5.484375l-2.046875 0l0 -4.875q0 -1.265625 -0.28125 -1.8125q-0.28125 -0.5625 -1.0625 -0.5625q-1.1875 0 -1.71875 1.078125q-0.21875 0.46875 -0.296875 1.140625l0 5.03125l-2.046875 0l0 -4.96875q0 -1.15625 -0.3125 -1.71875q-0.296875 -0.5625 -1.09375 -0.5625q-0.640625 0 -1.109375 0.328125q-0.46875 0.328125 -0.71875 0.859375q-0.171875 0.796875 -0.171875 1.890625l0 4.171875l-2.046875 0zm21.953125 -1.140625l0 -3.1875l-3.1875 0l0 -1.5l3.203125 0l0 -3.1875l1.546875 0l0 3.1875l3.171875 0l0 1.5l-3.1875 0l0 3.1875l-1.546875 0zm12.9609375 -0.5625l1.515625 0q1.96875 0 2.984375 -1.015625q1.03125 -1.03125 1.03125 -3.0q0 -2.109375 -1.0625 -3.0625q-1.046875 -0.96875 -3.171875 -0.96875l-1.296875 0l0 8.046875zm-2.109375 1.703125l0 -11.453125l3.3125 0q1.5 0 2.6875 0.34375q1.1875 0.34375 2.03125 1.046875q0.859375 0.6875 1.3125 1.78125q0.46875 1.078125 0.46875 2.515625q0 2.765625 -1.671875 4.265625q-1.671875 1.5 -4.640625 1.5l-3.5 0zm13.890625 0.171875q-1.203125 0 -1.9375 -0.65625q-0.734375 -0.671875 -0.734375 -1.921875q0 -1.328125 0.875 -1.96875q0.875 -0.65625 2.640625 -0.828125q0.234375 -0.03125 0.515625 -0.0625q0.28125 -0.03125 0.625 -0.0625q0.359375 -0.03125 0.5625 -0.046875l0 -0.453125q0 -0.78125 -0.359375 -1.140625q-0.359375 -0.359375 -1.09375 -0.359375q-1.046875 0 -2.578125 0.59375q-0.015625 -0.03125 -0.265625 -0.71875q-0.25 -0.6875 -0.25 -0.703125q1.515625 -0.640625 3.28125 -0.640625q1.734375 0 2.515625 0.75q0.796875 0.75 0.796875 2.4375l0 5.609375l-1.515625 0q-0.015625 -0.03125 -0.1875 -0.515625q-0.15625 -0.5 -0.15625 -0.53125q-0.640625 0.625 -1.25 0.921875q-0.609375 0.296875 -1.484375 0.296875zm0.546875 -1.46875q0.71875 0 1.234375 -0.328125q0.53125 -0.34375 0.765625 -0.828125l0 -1.65625q-0.03125 0 -0.421875 0.03125q-0.375 0.03125 -0.40625 0.03125q-1.25 0.109375 -1.828125 0.46875q-0.578125 0.359375 -0.578125 1.15625q0 0.546875 0.3125 0.84375q0.328125 0.28125 0.921875 0.28125zm9.53125 1.421875q-0.875 0 -1.453125 -0.203125q-0.578125 -0.21875 -0.90625 -0.65625q-0.328125 -0.453125 -0.46875 -1.0625q-0.140625 -0.609375 -0.140625 -1.5l0 -4.046875l-1.40625 0l0.078125 -1.109375l1.46875 -0.140625l0.65625 -2.328125l1.25 0l0 2.328125l2.140625 0l0 1.25l-2.140625 0l0 4.09375q0 0.96875 0.28125 1.390625q0.28125 0.40625 1.046875 0.40625q0.4375 0 0.953125 -0.078125l0.046875 1.46875q-0.015625 0 -0.1875 0.046875q-0.171875 0.03125 -0.34375 0.0625q-0.15625 0.03125 -0.40625 0.046875q-0.25 0.03125 -0.46875 0.03125zm5.109375 0.046875q-1.203125 0 -1.9375 -0.65625q-0.734375 -0.671875 -0.734375 -1.921875q0 -1.328125 0.875 -1.96875q0.875 -0.65625 2.640625 -0.828125q0.234375 -0.03125 0.515625 -0.0625q0.28125 -0.03125 0.625 -0.0625q0.359375 -0.03125 0.5625 -0.046875l0 -0.453125q0 -0.78125 -0.359375 -1.140625q-0.359375 -0.359375 -1.09375 -0.359375q-1.046875 0 -2.578125 0.59375q-0.015625 -0.03125 -0.265625 -0.71875q-0.25 -0.6875 -0.25 -0.703125q1.515625 -0.640625 3.28125 -0.640625q1.734375 0 2.515625 0.75q0.796875 0.75 0.796875 2.4375l0 5.609375l-1.515625 0q-0.015625 -0.03125 -0.1875 -0.515625q-0.15625 -0.5 -0.15625 -0.53125q-0.640625 0.625 -1.25 0.921875q-0.609375 0.296875 -1.484375 0.296875zm0.546875 -1.46875q0.71875 0 1.234375 -0.328125q0.53125 -0.34375 0.765625 -0.828125l0 -1.65625q-0.03125 0 -0.421875 0.03125q-0.375 0.03125 -0.40625 0.03125q-1.25 0.109375 -1.828125 0.46875q-0.578125 0.359375 -0.578125 1.15625q0 0.546875 0.3125 0.84375q0.328125 0.28125 0.921875 0.28125zm14.703125 1.40625q-0.515625 0 -0.921875 -0.09375q-0.40625 -0.09375 -0.703125 -0.25q-0.28125 -0.15625 -0.484375 -0.40625q-0.203125 -0.265625 -0.34375 -0.546875q-0.125 -0.28125 -0.203125 -0.6875q-0.0625 -0.421875 -0.09375 -0.8125q-0.015625 -0.40625 -0.015625 -0.9375l0 -6.828125q-0.078125 0 -0.453125 -0.03125q-0.375 -0.046875 -0.703125 -0.0625q-0.328125 -0.015625 -0.640625 -0.015625q-0.96875 0 -1.3125 0.328125q-0.328125 0.3125 -0.34375 1.125l0 0.53125l1.859375 0l0 1.21875l-1.859375 0l0 7.359375l-1.984375 0l0 -7.359375l-1.359375 0l0 -1.21875l1.359375 0l0 -0.359375q0.015625 -1.625 0.78125 -2.359375q0.78125 -0.734375 2.546875 -0.734375q0.828125 0 2.4375 0.171875q1.609375 0.171875 1.65625 0.171875l0 8.375q0 0.390625 0.015625 0.640625q0.015625 0.234375 0.0625 0.484375q0.046875 0.234375 0.125 0.359375q0.078125 0.125 0.21875 0.234375q0.15625 0.09375 0.375 0.140625q0.21875 0.03125 0.515625 0.03125q0.09375 0 0.5 -0.03125l0.109375 1.4375q-0.015625 0 -0.234375 0.03125q-0.203125 0.046875 -0.421875 0.0625q-0.21875 0.03125 -0.484375 0.03125zm6.0390625 -1.5q1.046875 0 1.5625 -0.75q0.53125 -0.765625 0.53125 -2.1875q0 -1.421875 -0.53125 -2.171875q-0.515625 -0.75 -1.578125 -0.75q-1.03125 0 -1.5625 0.75q-0.53125 0.75 -0.53125 2.1875q0 1.40625 0.53125 2.171875q0.53125 0.75 1.578125 0.75zm-0.046875 1.5625q-1.90625 0 -3.0 -1.234375q-1.09375 -1.25 -1.09375 -3.265625q0 -2.078125 1.09375 -3.265625q1.09375 -1.203125 3.078125 -1.203125q1.921875 0 3.015625 1.21875q1.09375 1.21875 1.09375 3.25q0 2.0625 -1.109375 3.28125q-1.09375 1.21875 -3.078125 1.21875zm7.4296722 -0.171875l-2.59375 -8.59375l2.078125 0l1.65625 6.296875q0.046875 -0.171875 0.875 -3.0625q0.84375 -2.890625 0.953125 -3.234375l2.109375 0q0.09375 0.328125 0.890625 3.203125q0.796875 2.859375 0.859375 3.078125l1.703125 -6.28125l2.046875 0l-2.6875 8.59375l-2.03125 0q-0.109375 -0.34375 -0.953125 -3.40625q-0.84375 -3.0625 -0.921875 -3.296875q-0.15625 0.5625 -1.0 3.4375q-0.828125 2.859375 -0.96875 3.265625l-2.015625 0z" fill-rule="nonzero"/><path fill="#ffe599" d="m186.1818 273.94208l0 0c0 -6.5840454 5.337433 -11.921509 11.921494 -11.921509l112.56645 0c3.1617737 0 6.1940613 1.256012 8.429779 3.4917297c2.2357178 2.2357178 3.4917297 5.2680054 3.4917297 8.429779l0 47.68457c0 6.5840454 -5.337433 11.921509 -11.921509 11.921509l-112.56645 0c-6.5840607 0 -11.921494 -5.3374634 -11.921494 -11.921509z" fill-rule="evenodd"/><path stroke="#ff9900" stroke-width="2.0" stroke-linejoin="round" stroke-linecap="butt" d="m186.1818 273.94208l0 0c0 -6.5840454 5.337433 -11.921509 11.921494 -11.921509l112.56645 0c3.1617737 0 6.1940613 1.256012 8.429779 3.4917297c2.2357178 2.2357178 3.4917297 5.2680054 3.4917297 8.429779l0 47.68457c0 6.5840454 -5.337433 11.921509 -11.921509 11.921509l-112.56645 0c-6.5840607 0 -11.921494 -5.3374634 -11.921494 -11.921509z" fill-rule="evenodd"/><path fill="#000000" d="m229.30449 283.8006l2.28125 0q2.421875 0 3.6875 -1.234375q1.28125 -1.234375 1.28125 -3.6875q0 -1.34375 -0.359375 -2.3125q-0.359375 -0.984375 -1.046875 -1.578125q-0.6875 -0.59375 -1.625 -0.859375q-0.9375 -0.28125 -2.15625 -0.28125l-2.0625 0l0 9.953125zm-1.0 0.84375l0 -11.625l3.15625 0q1.421875 0 2.53125 0.34375q1.125 0.328125 1.953125 1.015625q0.828125 0.6875 1.265625 1.828125q0.453125 1.125 0.453125 2.625q0 2.859375 -1.578125 4.34375q-1.5625 1.46875 -4.390625 1.46875l-3.390625 0zm13.71875 0.1875q-1.203125 0 -1.9375 -0.609375q-0.71875 -0.609375 -0.71875 -1.75q0 -0.671875 0.28125 -1.15625q0.296875 -0.5 0.84375 -0.8125q0.546875 -0.3125 1.25 -0.484375q0.71875 -0.171875 1.65625 -0.234375q1.0 -0.0625 1.484375 -0.109375l0 -0.953125q0 -0.984375 -0.453125 -1.46875q-0.453125 -0.5 -1.4375 -0.5q-1.359375 0 -2.546875 0.640625q-0.03125 -0.078125 -0.140625 -0.328125q-0.109375 -0.265625 -0.15625 -0.40625q0.484375 -0.3125 1.265625 -0.515625q0.78125 -0.21875 1.53125 -0.21875q1.53125 0 2.203125 0.65625q0.671875 0.65625 0.671875 2.34375l0 5.71875l-0.75 0q-0.046875 -0.1875 -0.125 -0.71875q-0.0625 -0.53125 -0.0625 -0.546875q-1.015625 1.453125 -2.859375 1.453125zm0.03125 -0.78125q1.0 0 1.78125 -0.578125q0.78125 -0.59375 1.015625 -1.640625l0 -1.46875q-1.125 0.09375 -1.125 0.09375q-1.90625 0.171875 -2.65625 0.625q-0.734375 0.453125 -0.734375 1.40625q0 0.78125 0.46875 1.171875q0.46875 0.390625 1.25 0.390625zm8.5078125 0.78125q-1.078125 0 -1.578125 -0.484375q-0.5 -0.5 -0.5 -1.609375l0 -5.953125l-1.203125 0l0.0625 -0.578125l1.15625 -0.109375l0.265625 -1.96875l0.671875 -0.046875l0 2.0l2.5 0l0 0.703125l-2.5 0l0 5.75q0 0.90625 0.296875 1.21875q0.296875 0.3125 1.046875 0.3125q0.484375 0 1.203125 -0.1875l0.046875 0.75q-0.953125 0.203125 -1.46875 0.203125zm5.15625 0q-1.203125 0 -1.9375 -0.609375q-0.71875 -0.609375 -0.71875 -1.75q0 -0.671875 0.28125 -1.15625q0.296875 -0.5 0.84375 -0.8125q0.546875 -0.3125 1.25 -0.484375q0.71873474 -0.171875 1.6562347 -0.234375q1.0 -0.0625 1.484375 -0.109375l0 -0.953125q0 -0.984375 -0.453125 -1.46875q-0.453125 -0.5 -1.4375 -0.5q-1.3593597 0 -2.5468597 0.640625q-0.03125 -0.078125 -0.140625 -0.328125q-0.109375 -0.265625 -0.15625 -0.40625q0.484375 -0.3125 1.265625 -0.515625q0.78125 -0.21875 1.5312347 -0.21875q1.53125 0 2.203125 0.65625q0.671875 0.65625 0.671875 2.34375l0 5.71875l-0.75 0q-0.046875 -0.1875 -0.125 -0.71875q-0.0625 -0.53125 -0.0625 -0.546875q-1.015625 1.453125 -2.8593597 1.453125zm0.03125 -0.78125q0.99998474 0 1.7812347 -0.578125q0.78125 -0.59375 1.015625 -1.640625l0 -1.46875q-1.125 0.09375 -1.125 0.09375q-1.9062347 0.171875 -2.6562347 0.625q-0.734375 0.453125 -0.734375 1.40625q0 0.78125 0.46875 1.171875q0.46875 0.390625 1.25 0.390625zm8.601547 0.796875q-0.828125 0 -1.5625 -0.203125q-0.71875 -0.21875 -1.140625 -0.5l0.140625 -0.8125q1.28125 0.671875 2.46875 0.671875q2.109375 0 2.1875 -1.5625q0 -0.65625 -0.421875 -1.03125q-0.421875 -0.375 -1.703125 -0.78125q-0.671875 -0.234375 -0.75 -0.265625q-2.0 -0.609375 -2.015625 -2.15625q0 -0.90625 0.78125 -1.59375q0.796875 -0.6875 2.140625 -0.6875q1.359375 0 2.546875 0.53125l-0.328125 0.71875q-1.203125 -0.453125 -2.234375 -0.453125q-0.90625 0 -1.421875 0.40625q-0.515625 0.40625 -0.515625 1.09375q0 0.578125 0.328125 0.890625q0.34375 0.296875 1.359375 0.578125q0.109375 0.03125 0.390625 0.140625q0.296875 0.109375 0.328125 0.125q1.359375 0.40625 1.890625 0.984375q0.53125 0.5625 0.53125 1.53125q-0.015625 1.125 -0.84375 1.75q-0.8125 0.625 -2.15625 0.625zm8.34375 -0.015625q-1.78125 0 -2.828125 -1.1875q-1.03125 -1.1875 -1.03125 -3.21875q0 -1.96875 1.015625 -3.21875q1.015625 -1.25 2.640625 -1.28125q1.5 0 2.40625 1.078125q0.921875 1.078125 0.921875 2.890625q0 0.0625 0 0.28125q0 0.21875 0 0.296875l-5.96875 0q0.015625 1.65625 0.796875 2.625q0.78125 0.953125 2.0625 0.953125q0.84375 0 1.453125 -0.1875q0.625 -0.203125 1.296875 -0.5625l0.15625 0.734375q-1.296875 0.796875 -2.921875 0.796875zm-2.796875 -5.140625l4.875 0q0 -1.421875 -0.625 -2.1875q-0.609375 -0.765625 -1.6875 -0.765625q-1.09375 0 -1.765625 0.8125q-0.671875 0.8125 -0.796875 2.140625zm10.2734375 5.140625q-1.078125 0 -1.578125 -0.484375q-0.5 -0.5 -0.5 -1.609375l0 -5.953125l-1.203125 0l0.0625 -0.578125l1.15625 -0.109375l0.265625 -1.96875l0.671875 -0.046875l0 2.0l2.5 0l0 0.703125l-2.5 0l0 5.75q0 0.90625 0.296875 1.21875q0.296875 0.3125 1.046875 0.3125q0.484375 0 1.203125 -0.1875l0.046875 0.75q-0.953125 0.203125 -1.46875 0.203125z" fill-rule="nonzero"/><path fill="#000000" d="m227.88261 303.84747q-0.828125 0 -1.5625 -0.203125q-0.71875 -0.21875 -1.140625 -0.5l0.140625 -0.8125q1.28125 0.671875 2.46875 0.671875q2.109375 0 2.1875 -1.5625q0 -0.65625 -0.421875 -1.03125q-0.421875 -0.375 -1.703125 -0.78125q-0.671875 -0.234375 -0.75 -0.265625q-2.0 -0.609375 -2.015625 -2.15625q0 -0.90625 0.78125 -1.59375q0.796875 -0.6875 2.140625 -0.6875q1.359375 0 2.546875 0.53125l-0.328125 0.71875q-1.203125 -0.453125 -2.234375 -0.453125q-0.90625 0 -1.421875 0.40625q-0.515625 0.40625 -0.515625 1.09375q0 0.578125 0.328125 0.890625q0.34375 0.296875 1.359375 0.578125q0.109375 0.03125 0.390625 0.140625q0.296875 0.109375 0.328125 0.125q1.359375 0.40625 1.890625 0.984375q0.53125 0.5625 0.53125 1.53125q-0.015625 1.125 -0.84375 1.75q-0.8125 0.625 -2.15625 0.625zm4.875 -0.203125l0 -11.890625l0.96875 -0.078125l0 4.078125q0 0.171875 0 0.234375q0 0.0625 -0.015625 0.078125q0 0 0 0.078125q0 0.078125 -0.015625 0.234375q1.046875 -1.453125 3.0 -1.453125q2.796875 0 2.796875 3.359375l0 5.359375l-0.96875 0l0 -5.171875q0 -1.4375 -0.453125 -2.078125q-0.4375 -0.65625 -1.5625 -0.65625q-1.109375 0 -1.859375 0.59375q-0.734375 0.59375 -0.90625 1.515625q-0.015625 0.3125 -0.015625 0.9375l0 4.859375l-0.96875 0zm12.1640625 0.21875q-0.671875 0 -1.25 -0.15625q-0.578125 -0.15625 -1.078125 -0.484375q-0.484375 -0.328125 -0.765625 -0.921875q-0.28125 -0.59375 -0.28125 -1.390625l0 -5.828125l0.96875 0l0 5.84375q0 0.609375 0.1875 1.03125q0.1875 0.421875 0.53125 0.640625q0.359375 0.21875 0.75 0.3125q0.40625 0.078125 0.9375 0.078125q0.515625 0 0.90625 -0.09375q0.40625 -0.09375 0.75 -0.3125q0.34375 -0.21875 0.53125 -0.625q0.1875 -0.421875 0.1875 -1.03125l0 -5.84375l0.96875 0l0 5.828125q0 0.65625 -0.1875 1.171875q-0.1875 0.515625 -0.5 0.84375q-0.3125 0.328125 -0.765625 0.546875q-0.4375 0.21875 -0.90625 0.296875q-0.453125 0.09375 -0.984375 0.09375zm10.15625 -0.21875l0 -7.859375l-3.203125 0l0 7.859375l-0.96875 0l0 -7.859375l-1.40625 0l0.0625 -0.59375l1.34375 -0.109375l0 -0.328125q0 -1.6875 0.59375 -2.453125q0.59375 -0.765625 1.8125 -0.765625q0.34375 0 1.1875 0.125l-0.0625 0.640625q-0.75 -0.09375 -1.015625 -0.09375q-0.890625 0 -1.21875 0.578125q-0.328125 0.578125 -0.328125 2.015625l0 0.28125l3.203125 0l0 -0.328125q0 -1.6875 0.578125 -2.453125q0.59373474 -0.765625 1.8124847 -0.765625q0.359375 0 1.203125 0.125l-0.078125 0.640625q-0.75 -0.09375 -1.015625 -0.09375q-0.890625 0 -1.21875 0.578125q-0.3125 0.578125 -0.3125 2.015625l0 0.28125l2.078125 0l0 0.703125l-2.078125 0l0 7.859375l-0.96873474 0zm6.6015472 0.1875q-1.078125 0 -1.578125 -0.484375q-0.5 -0.5 -0.5 -1.609375l0 -9.984375l0.953125 -0.078125l0 10.015625q0 0.78125 0.28125 1.078125q0.28125 0.296875 0.859375 0.296875q0.46875 0 1.171875 -0.1875l0.046875 0.75q-0.765625 0.203125 -1.234375 0.203125zm2.4765625 -0.1875l0 -8.5625l0.984375 0l0 8.5625l-0.984375 0zm0 -10.3125l0 -1.3125l0.96875 0l0 1.3125l-0.96875 0zm3.3828125 10.3125l0 -8.5625l0.84375 0l0.125 1.3125q0.46875 -0.6875 1.234375 -1.078125q0.78125 -0.390625 1.6875 -0.390625q1.46875 0 2.15625 0.8125q0.703125 0.8125 0.703125 2.59375l0 5.3125l-0.96875 0l0 -5.75q-0.046875 -1.140625 -0.5 -1.640625q-0.4375 -0.5 -1.453125 -0.5q-1.15625 0 -1.90625 0.59375q-0.734375 0.578125 -0.921875 1.5q-0.03125 0.375 -0.03125 0.765625l0 5.03125l-0.96875 0zm10.3125 3.984375l-0.109375 -0.875l1.8125 0q0.59375 0 1.046875 -0.109375q0.46875 -0.09375 0.78125 -0.265625q0.328125 -0.171875 0.546875 -0.46875q0.21875 -0.296875 0.34375 -0.59375q0.125 -0.296875 0.1875 -0.78125q0.078125 -0.46875 0.09375 -0.875q0.015625 -0.390625 0.015625 -0.984375q0 0.078125 -0.015625 -0.046875q-0.046875 -0.53125 -0.046875 -0.53125q-0.484375 0.734375 -1.15625 1.140625q-0.671875 0.40625 -1.640625 0.40625q-0.765625 0 -1.40625 -0.265625q-0.625 -0.28125 -1.03125 -0.71875q-0.390625 -0.4375 -0.671875 -1.0q-0.265625 -0.5625 -0.390625 -1.125q-0.109375 -0.5625 -0.109375 -1.109375q0 -0.6875 0.109375 -1.296875q0.109375 -0.625 0.390625 -1.21875q0.28125 -0.59375 0.703125 -1.03125q0.421875 -0.4375 1.078125 -0.6875q0.671875 -0.265625 1.515625 -0.265625q0.8125 0 1.4375 0.328125q0.640625 0.3125 1.171875 1.03125l0.09375 -1.203125l0.859375 0l0 7.9375q0 0.515625 -0.015625 0.828125q0 0.328125 -0.09375 0.859375q-0.078125 0.546875 -0.21875 0.890625q-0.140625 0.359375 -0.4375 0.78125q-0.296875 0.421875 -0.71875 0.65625q-0.421875 0.25 -1.078125 0.421875q-0.640625 0.171875 -1.46875 0.171875l-1.578125 0zm1.984375 -4.78125q0.5625 0 1.015625 -0.171875q0.46875 -0.1875 0.765625 -0.484375q0.3125 -0.3125 0.515625 -0.71875q0.203125 -0.40625 0.28125 -0.828125q0.09375 -0.4375 0.09375 -0.90625l0 -0.890625q0 -0.609375 -0.15625 -1.140625q-0.140625 -0.546875 -0.453125 -1.0q-0.296875 -0.453125 -0.84375 -0.71875q-0.53125 -0.265625 -1.25 -0.265625q-0.578125 0 -1.046875 0.21875q-0.453125 0.21875 -0.75 0.59375q-0.296875 0.359375 -0.5 0.859375q-0.203125 0.484375 -0.296875 1.0q-0.078125 0.515625 -0.078125 1.046875q0 0.484375 0.078125 0.9375q0.078125 0.4375 0.265625 0.90625q0.1875 0.453125 0.484375 0.796875q0.296875 0.34375 0.78125 0.5625q0.484375 0.203125 1.09375 0.203125z" fill-rule="nonzero"/><path fill="#000000" d="m223.89043 326.45685l0 -12.375l0.859375 0l0.09375 1.21875q0.59375 -0.6875 1.21875 -1.03125q0.625 -0.34375 1.453125 -0.34375q1.828125 0 2.734375 1.21875q0.90625 1.203125 0.90625 3.3125q0 1.921875 -0.96875 3.15625q-0.953125 1.21875 -2.59375 1.21875q-0.84375 0 -1.59375 -0.390625q-0.75 -0.40625 -1.1875 -1.0625q0.046875 0.96875 0.046875 1.90625l0 3.109375l-0.96875 0.0625zm3.640625 -4.421875q0.671875 0 1.1875 -0.3125q0.515625 -0.328125 0.8125 -0.859375q0.3125 -0.53125 0.453125 -1.15625q0.15625 -0.640625 0.15625 -1.3125q0 -0.6875 -0.15625 -1.3125q-0.140625 -0.625 -0.4375 -1.15625q-0.296875 -0.546875 -0.828125 -0.859375q-0.515625 -0.328125 -1.1875 -0.328125q-0.734375 0 -1.265625 0.265625q-0.515625 0.265625 -0.828125 0.75q-0.3125 0.484375 -0.453125 1.109375q-0.140625 0.609375 -0.140625 1.375q0 0.890625 0.125 1.5625q0.140625 0.65625 0.4375 1.1875q0.3125 0.515625 0.84375 0.78125q0.53125 0.265625 1.28125 0.265625zm5.6328125 0.609375l0 -8.5625l0.984375 0l0 8.5625l-0.984375 0zm0 -10.3125l0 -1.3125l0.96875 0l0 1.3125l-0.96875 0zm3.3828125 14.125l0 -12.375l0.859375 0l0.09375 1.21875q0.59375 -0.6875 1.21875 -1.03125q0.625 -0.34375 1.453125 -0.34375q1.828125 0 2.734375 1.21875q0.90625 1.203125 0.90625 3.3125q0 1.921875 -0.96875 3.15625q-0.953125 1.21875 -2.59375 1.21875q-0.84375 0 -1.59375 -0.390625q-0.75 -0.40625 -1.1875 -1.0625q0.046875 0.96875 0.046875 1.90625l0 3.109375l-0.96875 0.0625zm3.640625 -4.421875q0.671875 0 1.1875 -0.3125q0.515625 -0.328125 0.8125 -0.859375q0.3125 -0.53125 0.453125 -1.15625q0.15625 -0.640625 0.15625 -1.3125q0 -0.6875 -0.15625 -1.3125q-0.140625 -0.625 -0.4375 -1.15625q-0.296875 -0.546875 -0.828125 -0.859375q-0.515625 -0.328125 -1.1875 -0.328125q-0.734375 0 -1.265625 0.265625q-0.515625 0.265625 -0.828125 0.75q-0.3125 0.484375 -0.453125 1.109375q-0.140625 0.609375 -0.140625 1.375q0 0.890625 0.125 1.5625q0.140625 0.65625 0.4375 1.1875q0.3125 0.515625 0.84375 0.78125q0.53125 0.265625 1.28125 0.265625zm9.0078125 0.796875q-1.78125 0 -2.828125 -1.1875q-1.03125 -1.1875 -1.03125 -3.21875q0 -1.96875 1.015625 -3.21875q1.015625 -1.25 2.640625 -1.28125q1.5 0 2.40625 1.078125q0.921875 1.078125 0.921875 2.890625q0 0.0625 0 0.28125q0 0.21875 0 0.296875l-5.96875 0q0.015625 1.65625 0.796875 2.625q0.78125 0.953125 2.0625 0.953125q0.84375 0 1.453125 -0.1875q0.625 -0.203125 1.296875 -0.5625l0.15625 0.734375q-1.296875 0.796875 -2.921875 0.796875zm-2.796875 -5.140625l4.875 0q0 -1.421875 -0.625 -2.1875q-0.609375 -0.765625 -1.6875 -0.765625q-1.09375 0 -1.765625 0.8125q-0.671875 0.8125 -0.796875 2.140625zm10.023422 5.140625q-1.0781097 0 -1.5781097 -0.484375q-0.5 -0.5 -0.5 -1.609375l0 -9.984375l0.953125 -0.078125l0 10.015625q0 0.78125 0.28125 1.078125q0.28125 0.296875 0.85935974 0.296875q0.46875 0 1.171875 -0.1875l0.046875 0.75q-0.765625 0.203125 -1.234375 0.203125zm2.4765625 -0.1875l0 -8.5625l0.984375 0l0 8.5625l-0.984375 0zm0 -10.3125l0 -1.3125l0.96875 0l0 1.3125l-0.96875 0zm3.3828125 10.3125l0 -8.5625l0.84375 0l0.125 1.3125q0.46875 -0.6875 1.234375 -1.078125q0.78125 -0.390625 1.6875 -0.390625q1.46875 0 2.15625 0.8125q0.703125 0.8125 0.703125 2.59375l0 5.3125l-0.96875 0l0 -5.75q-0.046875 -1.140625 -0.5 -1.640625q-0.4375 -0.5 -1.453125 -0.5q-1.15625 0 -1.90625 0.59375q-0.734375 0.578125 -0.921875 1.5q-0.03125 0.375 -0.03125 0.765625l0 5.03125l-0.96875 0zm12.46875 0.1875q-1.78125 0 -2.828125 -1.1875q-1.03125 -1.1875 -1.03125 -3.21875q0 -1.96875 1.015625 -3.21875q1.015625 -1.25 2.640625 -1.28125q1.5 0 2.40625 1.078125q0.921875 1.078125 0.921875 2.890625q0 0.0625 0 0.28125q0 0.21875 0 0.296875l-5.96875 0q0.015625 1.65625 0.796875 2.625q0.78125 0.953125 2.0625 0.953125q0.84375 0 1.453125 -0.1875q0.625 -0.203125 1.296875 -0.5625l0.15625 0.734375q-1.296875 0.796875 -2.921875 0.796875zm-2.796875 -5.140625l4.875 0q0 -1.421875 -0.625 -2.1875q-0.609375 -0.765625 -1.6875 -0.765625q-1.09375 0 -1.765625 0.8125q-0.671875 0.8125 -0.796875 2.140625zm10.3671875 5.15625q-0.828125 0 -1.5625 -0.203125q-0.71875 -0.21875 -1.140625 -0.5l0.140625 -0.8125q1.28125 0.671875 2.46875 0.671875q2.109375 0 2.1875 -1.5625q0 -0.65625 -0.421875 -1.03125q-0.421875 -0.375 -1.703125 -0.78125q-0.671875 -0.234375 -0.75 -0.265625q-2.0 -0.609375 -2.015625 -2.15625q0 -0.90625 0.78125 -1.59375q0.796875 -0.6875 2.140625 -0.6875q1.359375 0 2.546875 0.53125l-0.328125 0.71875q-1.203125 -0.453125 -2.234375 -0.453125q-0.90625 0 -1.421875 0.40625q-0.515625 0.40625 -0.515625 1.09375q0 0.578125 0.328125 0.890625q0.34375 0.296875 1.359375 0.578125q0.109375 0.03125 0.390625 0.140625q0.296875 0.109375 0.328125 0.125q1.359375 0.40625 1.890625 0.984375q0.53125 0.5625 0.53125 1.53125q-0.015625 1.125 -0.84375 1.75q-0.8125 0.625 -2.15625 0.625z" fill-rule="nonzero"/><path fill="#d9ead3" d="m175.95013 72.584595l0 0c0 -6.9009933 5.5943604 -12.4953575 12.495346 -12.4953575l397.4975 0c3.3139648 0 6.4921875 1.3164711 8.83551 3.6598053c2.3433228 2.3433342 3.65979 5.5215797 3.65979 8.835552l0 148.77307c0 6.9009857 -5.5943604 12.495346 -12.4953 12.495346l-397.4975 0c-6.9009857 0 -12.495346 -5.5943604 -12.495346 -12.495346z" fill-rule="evenodd"/><path stroke="#ff9900" stroke-width="2.0" stroke-linejoin="round" stroke-linecap="butt" stroke-dasharray="2.0,6.0" d="m175.95013 72.584595l0 0c0 -6.9009933 5.5943604 -12.4953575 12.495346 -12.4953575l397.4975 0c3.3139648 0 6.4921875 1.3164711 8.83551 3.6598053c2.3433228 2.3433342 3.65979 5.5215797 3.65979 8.835552l0 148.77307c0 6.9009857 -5.5943604 12.495346 -12.4953 12.495346l-397.4975 0c-6.9009857 0 -12.495346 -5.5943604 -12.495346 -12.495346z" fill-rule="evenodd"/><path fill="#000000" d="m378.08487 88.280876q-2.609375 0 -4.09375 -1.578125q-1.46875 -1.59375 -1.46875 -4.328125q0 -1.75 0.6875 -3.0625q0.6875 -1.328125 2.015625 -2.0625q1.34375 -0.75 3.171875 -0.75q2.078125 0 3.578125 0.890625l-0.6875 1.578125q-1.421875 -0.765625 -2.859375 -0.765625q-1.734375 0 -2.734375 1.125q-0.984375 1.125 -0.984375 3.0625q0 1.921875 0.875 3.046875q0.890625 1.109375 2.59375 1.109375q1.09375 0 1.984375 -0.34375l0 -2.65625l-2.390625 0l0.015625 -1.65625l4.375 0l0 5.515625q-1.0625 0.4375 -2.015625 0.65625q-0.953125 0.21875 -2.0625 0.21875zm11.34375 0q-2.515625 0 -3.984375 -1.578125q-1.46875 -1.59375 -1.46875 -4.375q0 -2.640625 1.53125 -4.234375q1.546875 -1.59375 4.03125 -1.59375q2.0 0 3.390625 0.921875l-0.65625 1.609375q-1.34375 -0.828125 -2.6875 -0.828125q-1.578125 0 -2.5 1.140625q-0.921875 1.140625 -0.921875 3.046875q0 1.984375 0.890625 3.078125q0.890625 1.078125 2.53125 1.078125q1.4375 0 2.84375 -0.71875l0.28125 1.65625q-1.3125 0.796875 -3.28125 0.796875zm8.3828125 -0.015625q-2.078125 0 -3.71875 -0.953125l0.515625 -1.6875q0.734375 0.40625 1.59375 0.65625q0.875 0.25 1.6875 0.25q1.015625 0 1.53125 -0.421875q0.515625 -0.4375 0.515625 -1.25q0 -1.078125 -1.4375 -1.5q-0.109375 -0.03125 -0.578125 -0.15625q-0.46875 -0.140625 -0.875 -0.265625q-0.40625 -0.140625 -0.59375 -0.203125q-2.296875 -0.8125 -2.296875 -3.03125q0 -1.5625 1.09375 -2.40625q1.109375 -0.84375 2.9375 -0.84375q2.078125 0 3.578125 0.859375l-0.640625 1.546875q-1.53125 -0.6875 -2.84375 -0.6875q-0.953125 0 -1.4375 0.328125q-0.46875 0.328125 -0.5 1.109375q0 0.953125 0.9375 1.234375q0.1875 0.078125 0.921875 0.3125q0.734375 0.234375 0.953125 0.296875q1.578125 0.515625 2.25 1.28125q0.671875 0.765625 0.671875 2.140625q0 1.625 -1.15625 2.515625q-1.15625 0.875 -3.109375 0.875z" fill-rule="nonzero"/><path fill="#cfe2f3" d="m375.90027 146.03543l0 0c0 4.9379425 18.190643 8.9409485 40.629913 8.9409485c22.4393 0 40.629913 -4.003006 40.629913 -8.9409485l0 53.645676c0 4.9379425 -18.190613 8.940933 -40.629913 8.940933c-22.43927 0 -40.629913 -4.0029907 -40.629913 -8.940933z" fill-rule="evenodd"/><path fill="#e2edf7" d="m375.90027 146.03543l0 0c0 -4.9379425 18.190643 -8.9409485 40.629913 -8.9409485c22.4393 0 40.629913 4.003006 40.629913 8.9409485l0 0c0 4.9379425 -18.190613 8.9409485 -40.629913 8.9409485c-22.43927 0 -40.629913 -4.003006 -40.629913 -8.9409485z" fill-rule="evenodd"/><path fill="#000000" fill-opacity="0.0" d="m457.1601 146.03543l0 0c0 4.9379425 -18.190613 8.9409485 -40.629913 8.9409485c-22.43927 0 -40.629913 -4.003006 -40.629913 -8.9409485l0 0c0 -4.9379425 18.190643 -8.9409485 40.629913 -8.9409485c22.4393 0 40.629913 4.003006 40.629913 8.9409485l0 53.645676c0 4.9379425 -18.190613 8.940933 -40.629913 8.940933c-22.43927 0 -40.629913 -4.0029907 -40.629913 -8.940933l0 -53.645676" fill-rule="evenodd"/><path stroke="#000000" stroke-width="1.0" stroke-linejoin="round" stroke-linecap="butt" d="m457.1601 146.03543l0 0c0 4.9379425 -18.190613 8.9409485 -40.629913 8.9409485c-22.43927 0 -40.629913 -4.003006 -40.629913 -8.9409485l0 0c0 -4.9379425 18.190643 -8.9409485 40.629913 -8.9409485c22.4393 0 40.629913 4.003006 40.629913 8.9409485l0 53.645676c0 4.9379425 -18.190613 8.940933 -40.629913 8.940933c-22.43927 0 -40.629913 -4.0029907 -40.629913 -8.940933l0 -53.645676" fill-rule="evenodd"/><path fill="#000000" d="m390.35944 182.12874l0 -8.421875l-3.140625 0l0 -1.125l7.5625 0l0 1.125l-3.15625 0l0 8.421875l-1.265625 0zm5.7819824 0l0 -9.546875l6.4375 0l0 1.125l-5.171875 0l0 2.96875l4.46875 0l0 1.125l-4.46875 0l0 4.328125l-1.265625 0zm8.094482 0l0 -9.546875l4.234375 0q1.265625 0 1.921875 0.265625q0.671875 0.25 1.0625 0.90625q0.40625 0.65625 0.40625 1.4375q0 1.015625 -0.65625 1.71875q-0.65625 0.6875 -2.03125 0.875q0.5 0.25 0.765625 0.484375q0.546875 0.5 1.046875 1.265625l1.65625 2.59375l-1.578125 0l-1.265625 -1.984375q-0.5625 -0.859375 -0.921875 -1.3125q-0.34375 -0.453125 -0.640625 -0.640625q-0.28125 -0.1875 -0.5625 -0.25q-0.21875 -0.046875 -0.703125 -0.046875l-1.46875 0l0 4.234375l-1.265625 0zm1.265625 -5.328125l2.71875 0q0.859375 0 1.34375 -0.171875q0.484375 -0.1875 0.734375 -0.578125q0.265625 -0.390625 0.265625 -0.859375q0 -0.671875 -0.5 -1.109375q-0.484375 -0.4375 -1.546875 -0.4375l-3.015625 0l0 3.15625zm12.922028 3.109375l1.203125 0.140625q-0.28125 1.0625 -1.0625 1.65625q-0.765625 0.578125 -1.96875 0.578125q-1.515625 0 -2.40625 -0.9375q-0.890625 -0.9375 -0.890625 -2.609375q0 -1.75 0.890625 -2.703125q0.90625 -0.96875 2.34375 -0.96875q1.390625 0 2.265625 0.9375q0.875 0.9375 0.875 2.65625q0 0.109375 0 0.3125l-5.15625 0q0.0625 1.140625 0.640625 1.75q0.578125 0.59375 1.4375 0.59375q0.65625 0 1.109375 -0.328125q0.453125 -0.34375 0.71875 -1.078125zm-3.84375 -1.90625l3.859375 0q-0.078125 -0.859375 -0.4375 -1.296875q-0.5625 -0.6875 -1.453125 -0.6875q-0.8125 0 -1.359375 0.546875q-0.546875 0.53125 -0.609375 1.4375zm11.037476 1.59375l1.15625 0.15625q-0.1875 1.1875 -0.96875 1.859375q-0.78125 0.671875 -1.921875 0.671875q-1.40625 0 -2.28125 -0.921875q-0.859375 -0.9375 -0.859375 -2.65625q0 -1.125 0.375 -1.96875q0.375 -0.84375 1.125 -1.25q0.765625 -0.421875 1.65625 -0.421875q1.125 0 1.84375 0.578125q0.71875 0.5625 0.921875 1.609375l-1.140625 0.171875q-0.171875 -0.703125 -0.59375 -1.046875q-0.40625 -0.359375 -0.984375 -0.359375q-0.890625 0 -1.453125 0.640625q-0.546875 0.640625 -0.546875 2.0q0 1.40625 0.53125 2.03125q0.546875 0.625 1.40625 0.625q0.6875 0 1.140625 -0.421875q0.46875 -0.421875 0.59375 -1.296875zm1.7109375 -0.921875q0 -1.921875 1.078125 -2.84375q0.890625 -0.765625 2.171875 -0.765625q1.421875 0 2.328125 0.9375q0.90625 0.921875 0.90625 2.578125q0 1.328125 -0.40625 2.09375q-0.390625 0.765625 -1.15625 1.1875q-0.765625 0.421875 -1.671875 0.421875q-1.453125 0 -2.359375 -0.921875q-0.890625 -0.9375 -0.890625 -2.6875zm1.203125 0q0 1.328125 0.578125 1.984375q0.59375 0.65625 1.46875 0.65625q0.875 0 1.453125 -0.65625q0.578125 -0.671875 0.578125 -2.03125q0 -1.28125 -0.59375 -1.9375q-0.578125 -0.65625 -1.4375 -0.65625q-0.875 0 -1.46875 0.65625q-0.578125 0.65625 -0.578125 1.984375zm6.6312256 3.453125l0 -6.90625l1.0625 0l0 1.046875q0.40625 -0.734375 0.734375 -0.96875q0.34375 -0.234375 0.765625 -0.234375q0.59375 0 1.203125 0.375l-0.40625 1.078125q-0.4375 -0.25 -0.859375 -0.25q-0.390625 0 -0.703125 0.234375q-0.296875 0.234375 -0.421875 0.640625q-0.203125 0.625 -0.203125 1.359375l0 3.625l-1.171875 0zm8.938385 0l0 -0.875q-0.65625 1.03125 -1.9375 1.03125q-0.8125 0 -1.515625 -0.453125q-0.6875 -0.453125 -1.078125 -1.265625q-0.375 -0.828125 -0.375 -1.890625q0 -1.03125 0.34375 -1.875q0.34375 -0.84375 1.03125 -1.28125q0.703125 -0.453125 1.546875 -0.453125q0.625 0 1.109375 0.265625q0.5 0.25 0.796875 0.671875l0 -3.421875l1.171875 0l0 9.546875l-1.09375 0zm-3.703125 -3.453125q0 1.328125 0.5625 1.984375q0.5625 0.65625 1.328125 0.65625q0.765625 0 1.296875 -0.625q0.53125 -0.625 0.53125 -1.90625q0 -1.421875 -0.546875 -2.078125q-0.546875 -0.671875 -1.34375 -0.671875q-0.78125 0 -1.3125 0.640625q-0.515625 0.625 -0.515625 2.0z" fill-rule="nonzero"/><path fill="#cfe2f3" d="m496.61154 154.03543l0 0c0 4.9379425 20.136627 8.9409485 44.97641 8.9409485c24.839722 0 44.97638 -4.003006 44.97638 -8.9409485l0 53.645676c0 4.9379425 -20.136658 8.940933 -44.97638 8.940933c-24.839783 0 -44.97641 -4.0029907 -44.97641 -8.940933z" fill-rule="evenodd"/><path fill="#e2edf7" d="m496.61154 154.03543l0 0c0 -4.9379425 20.136627 -8.9409485 44.97641 -8.9409485c24.839722 0 44.97638 4.003006 44.97638 8.9409485l0 0c0 4.9379425 -20.136658 8.9409485 -44.97638 8.9409485c-24.839783 0 -44.97641 -4.003006 -44.97641 -8.9409485z" fill-rule="evenodd"/><path fill="#000000" fill-opacity="0.0" d="m586.56433 154.03543l0 0c0 4.9379425 -20.136658 8.9409485 -44.97638 8.9409485c-24.839783 0 -44.97641 -4.003006 -44.97641 -8.9409485l0 0c0 -4.9379425 20.136627 -8.9409485 44.97641 -8.9409485c24.839722 0 44.97638 4.003006 44.97638 8.9409485l0 53.645676c0 4.9379425 -20.136658 8.940933 -44.97638 8.940933c-24.839783 0 -44.97641 -4.0029907 -44.97641 -8.940933l0 -53.645676" fill-rule="evenodd"/><path stroke="#000000" stroke-width="1.0" stroke-linejoin="round" stroke-linecap="butt" d="m586.56433 154.03543l0 0c0 4.9379425 -20.136658 8.9409485 -44.97638 8.9409485c-24.839783 0 -44.97641 -4.003006 -44.97641 -8.9409485l0 0c0 -4.9379425 20.136627 -8.9409485 44.97641 -8.9409485c24.839722 0 44.97638 4.003006 44.97638 8.9409485l0 53.645676c0 4.9379425 -20.136658 8.940933 -44.97638 8.940933c-24.839783 0 -44.97641 -4.0029907 -44.97641 -8.940933l0 -53.645676" fill-rule="evenodd"/><path fill="#000000" d="m519.23505 182.12874l0 -9.546875l1.90625 0l2.25 6.765625q0.3125 0.9375 0.46875 1.40625q0.15625 -0.515625 0.5 -1.53125l2.28125 -6.640625l1.703125 0l0 9.546875l-1.21875 0l0 -7.984375l-2.765625 7.984375l-1.140625 0l-2.765625 -8.125l0 8.125l-1.21875 0zm10.555542 -3.453125q0 -1.921875 1.078125 -2.84375q0.890625 -0.765625 2.171875 -0.765625q1.421875 0 2.328125 0.9375q0.90625 0.921875 0.90625 2.578125q0 1.328125 -0.40625 2.09375q-0.390625 0.765625 -1.15625 1.1875q-0.765625 0.421875 -1.671875 0.421875q-1.453125 0 -2.359375 -0.921875q-0.890625 -0.9375 -0.890625 -2.6875zm1.203125 0q0 1.328125 0.578125 1.984375q0.59375 0.65625 1.46875 0.65625q0.875 0 1.453125 -0.65625q0.578125 -0.671875 0.578125 -2.03125q0 -1.28125 -0.59375 -1.9375q-0.578125 -0.65625 -1.4375 -0.65625q-0.875 0 -1.46875 0.65625q-0.578125 0.65625 -0.578125 1.984375zm11.131226 3.453125l0 -0.875q-0.65625 1.03125 -1.9375 1.03125q-0.8125 0 -1.515625 -0.453125q-0.6875 -0.453125 -1.078125 -1.265625q-0.375 -0.828125 -0.375 -1.890625q0 -1.03125 0.34375 -1.875q0.34375 -0.84375 1.03125 -1.28125q0.703125 -0.453125 1.546875 -0.453125q0.625 0 1.109375 0.265625q0.5 0.25 0.796875 0.671875l0 -3.421875l1.171875 0l0 9.546875l-1.09375 0zm-3.703125 -3.453125q0 1.328125 0.5625 1.984375q0.5625 0.65625 1.328125 0.65625q0.765625 0 1.296875 -0.625q0.53125 -0.625 0.53125 -1.90625q0 -1.421875 -0.546875 -2.078125q-0.546875 -0.671875 -1.34375 -0.671875q-0.78125 0 -1.3125 0.640625q-0.515625 0.625 -0.515625 2.0zm11.365601 1.234375l1.203125 0.140625q-0.28125 1.0625 -1.0625 1.65625q-0.765625 0.578125 -1.96875 0.578125q-1.515625 0 -2.40625 -0.9375q-0.890625 -0.9375 -0.890625 -2.609375q0 -1.75 0.890625 -2.703125q0.90625 -0.96875 2.34375 -0.96875q1.390625 0 2.265625 0.9375q0.875 0.9375 0.875 2.65625q0 0.109375 0 0.3125l-5.15625 0q0.0625 1.140625 0.640625 1.75q0.578125 0.59375 1.4375 0.59375q0.65625 0 1.109375 -0.328125q0.453125 -0.34375 0.71875 -1.078125zm-3.84375 -1.90625l3.859375 0q-0.078125 -0.859375 -0.4375 -1.296875q-0.5625 -0.6875 -1.453125 -0.6875q-0.8125 0 -1.359375 0.546875q-0.546875 0.53125 -0.609375 1.4375zm6.5062256 4.125l0 -9.546875l1.171875 0l0 9.546875l-1.171875 0zm2.9611206 0l0 -9.546875l1.171875 0l0 9.546875l-1.171875 0zm2.5391846 -3.453125q0 -1.921875 1.078125 -2.84375q0.890625 -0.765625 2.171875 -0.765625q1.421875 0 2.328125 0.9375q0.90625 0.921875 0.90625 2.578125q0 1.328125 -0.40625 2.09375q-0.390625 0.765625 -1.15625 1.1875q-0.765625 0.421875 -1.671875 0.421875q-1.453125 0 -2.359375 -0.921875q-0.890625 -0.9375 -0.890625 -2.6875zm1.203125 0q0 1.328125 0.578125 1.984375q0.59375 0.65625 1.46875 0.65625q0.875 0 1.453125 -0.65625q0.578125 -0.671875 0.578125 -2.03125q0 -1.28125 -0.59375 -1.9375q-0.578125 -0.65625 -1.4375 -0.65625q-0.875 0 -1.46875 0.65625q-0.578125 0.65625 -0.578125 1.984375z" fill-rule="nonzero"/><path fill="#000000" d="m513.18854 198.12874l0 -8.421875l-3.1406555 0l0 -1.125l7.5625305 0l0 1.125l-3.15625 0l0 8.421875l-1.265625 0zm8.819702 -2.21875l1.203125 0.140625q-0.28125 1.0625 -1.0625 1.65625q-0.765625 0.578125 -1.96875 0.578125q-1.515625 0 -2.40625 -0.9375q-0.890625 -0.9375 -0.890625 -2.609375q0 -1.75 0.890625 -2.703125q0.90625 -0.96875 2.34375 -0.96875q1.390625 0 2.265625 0.9375q0.875 0.9375 0.875 2.65625q0 0.109375 0 0.3125l-5.15625 0q0.0625 1.140625 0.640625 1.75q0.578125 0.59375 1.4375 0.59375q0.65625 0 1.109375 -0.328125q0.453125 -0.34375 0.71875 -1.078125zm-3.84375 -1.90625l3.859375 0q-0.078125 -0.859375 -0.4375 -1.296875q-0.5625 -0.6875 -1.453125 -0.6875q-0.8125 0 -1.359375 0.546875q-0.546875 0.53125 -0.609375 1.4375zm6.5218506 4.125l0 -6.90625l1.0625 0l0 0.984375q0.75 -1.140625 2.1875 -1.140625q0.625 0 1.15625 0.21875q0.53125 0.21875 0.78125 0.59375q0.265625 0.359375 0.375 0.859375q0.0625 0.328125 0.0625 1.140625l0 4.25l-1.171875 0l0 -4.203125q0 -0.71875 -0.140625 -1.0625q-0.140625 -0.359375 -0.484375 -0.5625q-0.34375 -0.21875 -0.8125 -0.21875q-0.75 0 -1.296875 0.46875q-0.546875 0.46875 -0.546875 1.796875l0 3.78125l-1.171875 0zm6.9437256 -2.0625l1.15625 -0.1875q0.109375 0.703125 0.546875 1.078125q0.453125 0.359375 1.25 0.359375q0.8125 0 1.203125 -0.328125q0.390625 -0.328125 0.390625 -0.765625q0 -0.390625 -0.359375 -0.625q-0.234375 -0.15625 -1.1875 -0.390625q-1.296875 -0.328125 -1.796875 -0.5625q-0.484375 -0.25 -0.75 -0.65625q-0.25 -0.421875 -0.25 -0.9375q0 -0.453125 0.203125 -0.84375q0.21875 -0.40625 0.578125 -0.671875q0.28125 -0.1875 0.75 -0.328125q0.46875 -0.140625 1.015625 -0.140625q0.8125 0 1.421875 0.234375q0.609375 0.234375 0.90625 0.640625q0.296875 0.390625 0.40625 1.0625l-1.140625 0.15625q-0.078125 -0.53125 -0.453125 -0.828125q-0.375 -0.3125 -1.0625 -0.3125q-0.8125 0 -1.15625 0.265625q-0.34375 0.265625 -0.34375 0.625q0 0.234375 0.140625 0.421875q0.15625 0.1875 0.453125 0.3125q0.171875 0.0625 1.03125 0.296875q1.25 0.328125 1.734375 0.546875q0.5 0.203125 0.78125 0.609375q0.28125 0.40625 0.28125 1.0q0 0.59375 -0.34375 1.109375q-0.34375 0.515625 -1.0 0.796875q-0.640625 0.28125 -1.453125 0.28125q-1.34375 0 -2.046875 -0.5625q-0.703125 -0.5625 -0.90625 -1.65625zm6.6953125 -1.390625q0 -1.921875 1.078125 -2.84375q0.890625 -0.765625 2.171875 -0.765625q1.421875 0 2.328125 0.9375q0.90625 0.921875 0.90625 2.578125q0 1.328125 -0.40625 2.09375q-0.390625 0.765625 -1.15625 1.1875q-0.765625 0.421875 -1.671875 0.421875q-1.453125 0 -2.359375 -0.921875q-0.890625 -0.9375 -0.890625 -2.6875zm1.203125 0q0 1.328125 0.578125 1.984375q0.59375 0.65625 1.46875 0.65625q0.875 0 1.453125 -0.65625q0.578125 -0.671875 0.578125 -2.03125q0 -1.28125 -0.59375 -1.9375q-0.578125 -0.65625 -1.4375 -0.65625q-0.875 0 -1.46875 0.65625q-0.578125 0.65625 -0.578125 1.984375zm6.6312256 3.453125l0 -6.90625l1.0625 0l0 1.046875q0.40625 -0.734375 0.734375 -0.96875q0.34375 -0.234375 0.765625 -0.234375q0.59375 0 1.203125 0.375l-0.40625 1.078125q-0.4375 -0.25 -0.859375 -0.25q-0.390625 0 -0.703125 0.234375q-0.296875 0.234375 -0.421875 0.640625q-0.203125 0.625 -0.203125 1.359375l0 3.625l-1.171875 0zm4.7352905 0l0 -6.0l-1.03125 0l0 -0.90625l1.03125 0l0 -0.734375q0 -0.703125 0.125 -1.046875q0.171875 -0.453125 0.59375 -0.734375q0.421875 -0.28125 1.203125 -0.28125q0.484375 0 1.09375 0.109375l-0.1875 1.03125q-0.359375 -0.0625 -0.6875 -0.0625q-0.53125 0 -0.75 0.234375q-0.21875 0.21875 -0.21875 0.84375l0 0.640625l1.34375 0l0 0.90625l-1.34375 0l0 6.0l-1.171875 0zm3.406067 0l0 -9.546875l1.171875 0l0 9.546875l-1.171875 0zm2.5392456 -3.453125q0 -1.921875 1.078125 -2.84375q0.890625 -0.765625 2.171875 -0.765625q1.421875 0 2.328125 0.9375q0.90625 0.921875 0.90625 2.578125q0 1.328125 -0.40625 2.09375q-0.390625 0.765625 -1.15625 1.1875q-0.765625 0.421875 -1.671875 0.421875q-1.453125 0 -2.359375 -0.921875q-0.890625 -0.9375 -0.890625 -2.6875zm1.203125 0q0 1.328125 0.578125 1.984375q0.59375 0.65625 1.46875 0.65625q0.875 0 1.453125 -0.65625q0.578125 -0.671875 0.578125 -2.03125q0 -1.28125 -0.59375 -1.9375q-0.578125 -0.65625 -1.4375 -0.65625q-0.875 0 -1.46875 0.65625q-0.578125 0.65625 -0.578125 1.984375zm7.9281006 3.453125l-2.125 -6.90625l1.21875 0l1.09375 3.984375l0.421875 1.484375q0.015625 -0.109375 0.359375 -1.421875l1.09375 -4.046875l1.203125 0l1.03125 4.0l0.34375 1.328125l0.40625 -1.34375l1.171875 -3.984375l1.140625 0l-2.15625 6.90625l-1.21875 0l-1.09375 -4.140625l-0.265625 -1.171875l-1.40625 5.3125l-1.21875 0z" fill-rule="nonzero"/><path fill="#000000" fill-opacity="0.0" d="m254.38652 333.54816l0 24.999054l75.04082 0l0 -246.45284l87.10092 0l0 25.012817" fill-rule="evenodd"/><path stroke="#000000" stroke-width="1.0" stroke-linejoin="round" stroke-linecap="butt" d="m254.38652 333.54816l0 24.999054l75.04082 0l0 -246.45284l87.10092 0l0 19.012833" fill-rule="evenodd"/><path fill="#000000" stroke="#000000" stroke-width="1.0" stroke-linecap="butt" d="m414.87653 131.10721l1.6517334 4.538086l1.6517334 -4.538086z" fill-rule="evenodd"/><path fill="#ffe599" d="m363.94226 269.8874l0 0c0 -6.584076 5.337433 -11.921509 11.921509 -11.921509l81.47983 0c3.1617737 0 6.1940613 1.256012 8.429779 3.4917297c2.2357178 2.2357178 3.4917297 5.267975 3.4917297 8.429779l0 47.68454c0 6.584076 -5.3374634 11.921509 -11.921509 11.921509l-81.47983 0c-6.584076 0 -11.921509 -5.337433 -11.921509 -11.921509z" fill-rule="evenodd"/><path stroke="#ff9900" stroke-width="2.0" stroke-linejoin="round" stroke-linecap="butt" d="m363.94226 269.8874l0 0c0 -6.584076 5.337433 -11.921509 11.921509 -11.921509l81.47983 0c3.1617737 0 6.1940613 1.256012 8.429779 3.4917297c2.2357178 2.2357178 3.4917297 5.267975 3.4917297 8.429779l0 47.68454c0 6.584076 -5.3374634 11.921509 -11.921509 11.921509l-81.47983 0c-6.584076 0 -11.921509 -5.337433 -11.921509 -11.921509z" fill-rule="evenodd"/><path fill="#000000" d="m381.29507 290.08966l0 -10.765625l-3.65625 0l0 -0.859375l8.328125 0l0 0.859375l-3.65625 0l0 10.765625l-1.015625 0zm8.71875 0.1875q-1.78125 0 -2.828125 -1.1875q-1.03125 -1.1875 -1.03125 -3.21875q0 -1.96875 1.015625 -3.21875q1.015625 -1.25 2.640625 -1.28125q1.5 0 2.40625 1.078125q0.921875 1.078125 0.921875 2.890625q0 0.0625 0 0.28125q0 0.21875 0 0.296875l-5.96875 0q0.015625 1.65625 0.796875 2.625q0.78125 0.953125 2.0625 0.953125q0.84375 0 1.453125 -0.1875q0.625 -0.203125 1.296875 -0.5625l0.15625 0.734375q-1.296875 0.796875 -2.921875 0.796875zm-2.796875 -5.140625l4.875 0q0 -1.421875 -0.625 -2.1875q-0.609375 -0.765625 -1.6875 -0.765625q-1.09375 0 -1.765625 0.8125q-0.671875 0.8125 -0.796875 2.140625zm7.8671875 4.953125l0 -8.5625l0.84375 0l0.125 1.3125q0.46875 -0.6875 1.234375 -1.078125q0.78125 -0.390625 1.6875 -0.390625q1.46875 0 2.15625 0.8125q0.703125 0.8125 0.703125 2.59375l0 5.3125l-0.96875 0l0 -5.75q-0.046875 -1.140625 -0.5 -1.640625q-0.4375 -0.5 -1.453125 -0.5q-1.15625 0 -1.90625 0.59375q-0.734375 0.578125 -0.921875 1.5q-0.03125 0.375 -0.03125 0.765625l0 5.03125l-0.96875 0zm11.5 0.203125q-0.828125 0 -1.5625 -0.203125q-0.71875 -0.21875 -1.140625 -0.5l0.140625 -0.8125q1.28125 0.671875 2.46875 0.671875q2.109375 0 2.1875 -1.5625q0 -0.65625 -0.421875 -1.03125q-0.421875 -0.375 -1.703125 -0.78125q-0.671875 -0.234375 -0.75 -0.265625q-2.0 -0.609375 -2.015625 -2.15625q0 -0.90625 0.78125 -1.59375q0.796875 -0.6875 2.140625 -0.6875q1.359375 0 2.546875 0.53125l-0.328125 0.71875q-1.203125 -0.453125 -2.234375 -0.453125q-0.90625 0 -1.421875 0.40625q-0.515625 0.40625 -0.515625 1.09375q0 0.578125 0.328125 0.890625q0.34375 0.296875 1.359375 0.578125q0.109375 0.03125 0.390625 0.140625q0.296875 0.109375 0.328125 0.125q1.359375 0.40625 1.890625 0.984375q0.53125 0.5625 0.53125 1.53125q-0.015625 1.125 -0.84375 1.75q-0.8125 0.625 -2.15625 0.625zm8.421875 -0.796875q0.9375 0 1.578125 -0.484375q0.640625 -0.5 0.9375 -1.3125q0.296875 -0.8125 0.296875 -1.875q0 -1.65625 -0.703125 -2.65625q-0.703125 -1.015625 -2.140625 -1.015625q-0.9375 0 -1.609375 0.515625q-0.65625 0.5 -0.96875 1.3125q-0.296875 0.8125 -0.296875 1.875q0 1.59375 0.75 2.625q0.75 1.015625 2.15625 1.015625zm-0.078125 0.78125q-1.15625 0 -2.046875 -0.578125q-0.890625 -0.59375 -1.359375 -1.59375q-0.453125 -1.015625 -0.453125 -2.28125q0 -0.953125 0.265625 -1.765625q0.265625 -0.8125 0.765625 -1.40625q0.5 -0.609375 1.234375 -0.9375q0.75 -0.34375 1.65625 -0.34375q1.203125 0 2.078125 0.59375q0.890625 0.578125 1.328125 1.578125q0.453125 1.0 0.453125 2.265625q0 1.28125 -0.453125 2.28125q-0.453125 1.0 -1.359375 1.59375q-0.890625 0.59375 -2.109375 0.59375zm5.84375 -0.1875q-0.015625 -7.546875 -0.015625 -8.5625l0.796875 0l0.0625 1.6875q0.453125 -0.765625 1.15625 -1.25q0.71875 -0.484375 1.5 -0.484375q0.3125 0 0.6875 0.046875l-0.078125 0.8125q-0.28125 -0.046875 -0.59375 -0.046875q-1.078125 0 -1.828125 0.859375q-0.734375 0.84375 -0.734375 2.015625l0 4.921875l-0.953125 0zm12.4609375 0.09375q-0.375 0 -0.65625 -0.03125q-0.28125 -0.03125 -0.5 -0.15625q-0.203125 -0.140625 -0.34375 -0.234375q-0.140625 -0.109375 -0.234375 -0.40625q-0.09375 -0.296875 -0.15625 -0.5q-0.046875 -0.21875 -0.078125 -0.734375q-0.015625 -0.515625 -0.015625 -0.859375q0 -0.34375 0 -1.09375l0 -7.03125q-2.09375 -0.140625 -2.046875 -0.015625q-0.828125 0 -1.1875 0.484375q-0.359375 0.484375 -0.40625 1.765625l0 0.0625l-0.015625 0.078125l2.0 0l0 0.71875l-2.0 0l0 7.859375l-1.0 0l0 -7.859375l-1.21875 0l0 -0.71875l1.21875 0l0 -0.15625q0.03125 -0.90625 0.234375 -1.5q0.203125 -0.609375 0.578125 -0.90625q0.375 -0.3125 0.8125 -0.421875q0.4375 -0.109375 1.0625 -0.109375q-0.3125 0 -0.3125 -0.046875q0 -0.109375 3.28125 0.109375l0 7.953125q0 0.0625 0 0.15625q0 0.65625 0 0.9375q0.015625 0.28125 0.046875 0.6875q0.03125 0.390625 0.09375 0.546875q0.078125 0.140625 0.203125 0.328125q0.140625 0.171875 0.34375 0.21875q0.203125 0.046875 0.515625 0.046875q0.234375 0 0.59375 -0.03125l0.09375 0.75q-0.15625 0.03125 -0.90625 0.109375zm5.7578125 -0.6875q0.9375 0 1.578125 -0.484375q0.640625 -0.5 0.9375 -1.3125q0.296875 -0.8125 0.296875 -1.875q0 -1.65625 -0.703125 -2.65625q-0.703125 -1.015625 -2.140625 -1.015625q-0.9375 0 -1.609375 0.515625q-0.65625 0.5 -0.96875 1.3125q-0.296875 0.8125 -0.296875 1.875q0 1.59375 0.75 2.625q0.75 1.015625 2.15625 1.015625zm-0.078125 0.78125q-1.15625 0 -2.046875 -0.578125q-0.890625 -0.59375 -1.359375 -1.59375q-0.453125 -1.015625 -0.453125 -2.28125q0 -0.953125 0.265625 -1.765625q0.265625 -0.8125 0.765625 -1.40625q0.5 -0.609375 1.234375 -0.9375q0.75 -0.34375 1.65625 -0.34375q1.203125 0 2.078125 0.59375q0.890625 0.578125 1.328125 1.578125q0.453125 1.0 0.453125 2.265625q0 1.28125 -0.453125 2.28125q-0.453125 1.0 -1.359375 1.59375q-0.890625 0.59375 -2.109375 0.59375zm7.1171875 -0.1875l-2.390625 -8.5625l1.015625 0l1.984375 7.640625q2.125 -6.859375 2.375 -7.640625l1.1875 0q2.34375 7.625 2.359375 7.625l1.890625 -7.625l1.015625 0l-2.359375 8.5625l-1.125 0q-0.015625 0.015625 -1.09375 -3.59375q-1.078125 -3.625 -1.25 -4.25q-0.09375 0.421875 -0.71875 2.375q-0.609375 1.953125 -1.1875 3.71875q-0.5625 1.765625 -0.578125 1.75l-1.125 0z" fill-rule="nonzero"/><path fill="#000000" d="m393.51382 309.27716q-1.078125 0 -1.578125 -0.484375q-0.5 -0.5 -0.5 -1.609375l0 -5.953125l-1.203125 0l0.0625 -0.578125l1.15625 -0.109375l0.265625 -1.96875l0.671875 -0.046875l0 2.0l2.5 0l0 0.703125l-2.5 0l0 5.75q0 0.90625 0.296875 1.21875q0.296875 0.3125 1.046875 0.3125q0.484375 0 1.203125 -0.1875l0.046875 0.75q-0.953125 0.203125 -1.46875 0.203125zm2.890625 -0.1875q-0.015625 -7.546875 -0.015625 -8.5625l0.796875 0l0.0625 1.6875q0.453125 -0.765625 1.15625 -1.25q0.71875 -0.484375 1.5 -0.484375q0.3125 0 0.6875 0.046875l-0.078125 0.8125q-0.28125 -0.046875 -0.59375 -0.046875q-1.078125 0 -1.828125 0.859375q-0.734375 0.84375 -0.734375 2.015625l0 4.921875l-0.953125 0zm7.7578125 0.1875q-1.203125 0 -1.9375 -0.609375q-0.71875 -0.609375 -0.71875 -1.75q0 -0.671875 0.28125 -1.15625q0.296875 -0.5 0.84375 -0.8125q0.546875 -0.3125 1.25 -0.484375q0.71875 -0.171875 1.65625 -0.234375q1.0 -0.0625 1.484375 -0.109375l0 -0.953125q0 -0.984375 -0.453125 -1.46875q-0.453125 -0.5 -1.4375 -0.5q-1.359375 0 -2.546875 0.640625q-0.03125 -0.078125 -0.140625 -0.328125q-0.109375 -0.265625 -0.15625 -0.40625q0.484375 -0.3125 1.265625 -0.515625q0.78125 -0.21875 1.53125 -0.21875q1.53125 0 2.203125 0.65625q0.671875 0.65625 0.671875 2.34375l0 5.71875l-0.75 0q-0.046875 -0.1875 -0.125 -0.71875q-0.0625 -0.53125 -0.0625 -0.546875q-1.015625 1.453125 -2.859375 1.453125zm0.03125 -0.78125q1.0 0 1.78125 -0.578125q0.78125 -0.59375 1.015625 -1.640625l0 -1.46875q-1.125 0.09375 -1.125 0.09375q-1.90625 0.171875 -2.65625 0.625q-0.734375 0.453125 -0.734375 1.40625q0 0.78125 0.46875 1.171875q0.46875 0.390625 1.25 0.390625zm6.1953125 0.59375l0 -8.5625l0.984375 0l0 8.5625l-0.984375 0zm0 -10.3125l0 -1.3125l0.96875 0l0 1.3125l-0.96875 0zm3.3828125 10.3125l0 -8.5625l0.84375 0l0.125 1.3125q0.46875 -0.6875 1.234375 -1.078125q0.78125 -0.390625 1.6875 -0.390625q1.46875 0 2.15625 0.8125q0.703125 0.8125 0.703125 2.59375l0 5.3125l-0.96875 0l0 -5.75q-0.046875 -1.140625 -0.5 -1.640625q-0.4375 -0.5 -1.453125 -0.5q-1.15625 0 -1.90625 0.59375q-0.734375 0.578125 -0.921875 1.5q-0.03125 0.375 -0.03125 0.765625l0 5.03125l-0.96875 0zm9.09375 0l0 -8.5625l0.984375 0l0 8.5625l-0.984375 0zm0 -10.3125l0 -1.3125l0.96875 0l0 1.3125l-0.96875 0zm3.3828125 10.3125l0 -8.5625l0.84375 0l0.125 1.3125q0.46875 -0.6875 1.234375 -1.078125q0.78125 -0.390625 1.6875 -0.390625q1.46875 0 2.15625 0.8125q0.703125 0.8125 0.703125 2.59375l0 5.3125l-0.96875 0l0 -5.75q-0.046875 -1.140625 -0.5 -1.640625q-0.4375 -0.5 -1.453125 -0.5q-1.15625 0 -1.90625 0.59375q-0.734375 0.578125 -0.921875 1.5q-0.03125 0.375 -0.03125 0.765625l0 5.03125l-0.96875 0zm10.3125 3.984375l-0.109375 -0.875l1.8125 0q0.59375 0 1.046875 -0.109375q0.46875 -0.09375 0.78125 -0.265625q0.328125 -0.171875 0.546875 -0.46875q0.21875 -0.296875 0.34375 -0.59375q0.125 -0.296875 0.1875 -0.78125q0.078125 -0.46875 0.09375 -0.875q0.015625 -0.390625 0.015625 -0.984375q0 0.078125 -0.015625 -0.046875q-0.046875 -0.53125 -0.046875 -0.53125q-0.484375 0.734375 -1.15625 1.140625q-0.671875 0.40625 -1.640625 0.40625q-0.765625 0 -1.40625 -0.265625q-0.625 -0.28125 -1.03125 -0.71875q-0.390625 -0.4375 -0.671875 -1.0q-0.265625 -0.5625 -0.390625 -1.125q-0.109375 -0.5625 -0.109375 -1.109375q0 -0.6875 0.109375 -1.296875q0.109375 -0.625 0.390625 -1.21875q0.28125 -0.59375 0.703125 -1.03125q0.421875 -0.4375 1.078125 -0.6875q0.671875 -0.265625 1.515625 -0.265625q0.8125 0 1.4375 0.328125q0.640625 0.3125 1.171875 1.03125l0.09375 -1.203125l0.859375 0l0 7.9375q0 0.515625 -0.015625 0.828125q0 0.328125 -0.09375 0.859375q-0.078125 0.546875 -0.21875 0.890625q-0.140625 0.359375 -0.4375 0.78125q-0.296875 0.421875 -0.71875 0.65625q-0.421875 0.25 -1.078125 0.421875q-0.640625 0.171875 -1.46875 0.171875l-1.578125 0zm1.984375 -4.78125q0.5625 0 1.015625 -0.171875q0.46875 -0.1875 0.765625 -0.484375q0.3125 -0.3125 0.515625 -0.71875q0.203125 -0.40625 0.28125 -0.828125q0.09375 -0.4375 0.09375 -0.90625l0 -0.890625q0 -0.609375 -0.15625 -1.140625q-0.140625 -0.546875 -0.453125 -1.0q-0.296875 -0.453125 -0.84375 -0.71875q-0.53125 -0.265625 -1.25 -0.265625q-0.578125 0 -1.046875 0.21875q-0.453125 0.21875 -0.75 0.59375q-0.296875 0.359375 -0.5 0.859375q-0.203125 0.484375 -0.296875 1.0q-0.078125 0.515625 -0.078125 1.046875q0 0.484375 0.078125 0.9375q0.078125 0.4375 0.265625 0.90625q0.1875 0.453125 0.484375 0.796875q0.296875 0.34375 0.78125 0.5625q0.484375 0.203125 1.09375 0.203125z" fill-rule="nonzero"/><path fill="#000000" fill-opacity="0.0" d="m416.53018 208.62204l0 24.671738l0.06298828 0l0 24.682602" fill-rule="evenodd"/><path stroke="#000000" stroke-width="1.0" stroke-linejoin="round" stroke-linecap="butt" d="m416.53018 208.62204l0 24.671738l0.06298828 0l0 18.682602" fill-rule="evenodd"/><path fill="#000000" stroke="#000000" stroke-width="1.0" stroke-linecap="butt" d="m414.94144 251.97638l1.6517334 4.538086l1.6517334 -4.538086z" fill-rule="evenodd"/><path fill="#000000" fill-opacity="0.0" d="m416.60367 329.49344l0 25.000397l66.33496 0l0 -234.39917l58.64145 0l0 24.989319" fill-rule="evenodd"/><path stroke="#000000" stroke-width="1.0" stroke-linejoin="round" stroke-linecap="butt" d="m416.60367 329.49344l0 25.000366l66.33499 0l0 -234.39914l58.64142 0l0 18.989319" fill-rule="evenodd"/><path fill="#000000" stroke="#000000" stroke-width="1.0" stroke-linecap="butt" d="m539.92834 139.08398l1.6517334 4.538101l1.6517334 -4.538101z" fill-rule="evenodd"/><path fill="#cfe2f3" d="m213.54568 146.92804l0 0c0 4.9379425 18.190643 8.9409485 40.62993 8.9409485c22.439285 0 40.62993 -4.003006 40.62993 -8.9409485l0 53.64566c0 4.937958 -18.190643 8.9409485 -40.62993 8.9409485c-22.439285 0 -40.62993 -4.0029907 -40.62993 -8.9409485z" fill-rule="evenodd"/><path fill="#e2edf7" d="m213.54568 146.92804l0 0c0 -4.937958 18.190643 -8.9409485 40.62993 -8.9409485c22.439285 0 40.62993 4.0029907 40.62993 8.9409485l0 0c0 4.9379425 -18.190643 8.9409485 -40.62993 8.9409485c-22.439285 0 -40.62993 -4.003006 -40.62993 -8.9409485z" fill-rule="evenodd"/><path fill="#000000" fill-opacity="0.0" d="m294.80554 146.92804l0 0c0 4.9379425 -18.190643 8.9409485 -40.62993 8.9409485c-22.439285 0 -40.62993 -4.003006 -40.62993 -8.9409485l0 0c0 -4.937958 18.190643 -8.9409485 40.62993 -8.9409485c22.439285 0 40.62993 4.0029907 40.62993 8.9409485l0 53.64566c0 4.937958 -18.190643 8.9409485 -40.62993 8.9409485c-22.439285 0 -40.62993 -4.0029907 -40.62993 -8.9409485l0 -53.64566" fill-rule="evenodd"/><path stroke="#000000" stroke-width="1.0" stroke-linejoin="round" stroke-linecap="butt" d="m294.80554 146.92804l0 0c0 4.9379425 -18.190643 8.9409485 -40.62993 8.9409485c-22.439285 0 -40.62993 -4.003006 -40.62993 -8.9409485l0 0c0 -4.937958 18.190643 -8.9409485 40.62993 -8.9409485c22.439285 0 40.62993 4.0029907 40.62993 8.9409485l0 53.64566c0 4.937958 -18.190643 8.9409485 -40.62993 8.9409485c-22.439285 0 -40.62993 -4.0029907 -40.62993 -8.9409485l0 -53.64566" fill-rule="evenodd"/><path fill="#000000" d="m237.43059 183.02135l0 -9.546875l3.59375 0q0.953125 0 1.453125 0.09375q0.703125 0.125 1.171875 0.453125q0.484375 0.328125 0.765625 0.921875q0.296875 0.59375 0.296875 1.296875q0 1.21875 -0.78125 2.0625q-0.765625 0.84375 -2.796875 0.84375l-2.4375 0l0 3.875l-1.265625 0zm1.265625 -5.0l2.453125 0q1.234375 0 1.75 -0.453125q0.515625 -0.46875 0.515625 -1.28125q0 -0.609375 -0.3125 -1.03125q-0.296875 -0.421875 -0.796875 -0.5625q-0.3125 -0.09375 -1.171875 -0.09375l-2.4375 0l0 3.421875zm7.4835052 -3.1875l0 -1.359375l1.171875 0l0 1.359375l-1.171875 0zm0 8.1875l0 -6.90625l1.171875 0l0 6.90625l-1.171875 0zm7.46109 -2.53125l1.15625 0.15625q-0.1875 1.1875 -0.96875 1.859375q-0.78125 0.671875 -1.921875 0.671875q-1.40625 0 -2.28125 -0.921875q-0.859375 -0.9375 -0.859375 -2.65625q0 -1.125 0.375 -1.96875q0.375 -0.84375 1.125 -1.25q0.765625 -0.421875 1.65625 -0.421875q1.125 0 1.84375 0.578125q0.71875 0.5625 0.921875 1.609375l-1.140625 0.171875q-0.171875 -0.703125 -0.59375 -1.046875q-0.40625 -0.359375 -0.984375 -0.359375q-0.890625 0 -1.453125 0.640625q-0.546875 0.640625 -0.546875 2.0q0 1.40625 0.53125 2.03125q0.546875 0.625 1.40625 0.625q0.6875 0 1.140625 -0.421875q0.46875 -0.421875 0.59375 -1.296875zm2.1640625 2.53125l0 -9.546875l1.171875 0l0 5.453125l2.765625 -2.8125l1.515625 0l-2.640625 2.5625l2.90625 4.34375l-1.4375 0l-2.28125 -3.53125l-0.828125 0.796875l0 2.734375l-1.171875 0zm6.6328125 0l0 -9.546875l1.171875 0l0 9.546875l-1.171875 0zm7.71109 -2.21875l1.203125 0.140625q-0.28125 1.0625 -1.0625 1.65625q-0.765625 0.578125 -1.96875 0.578125q-1.515625 0 -2.40625 -0.9375q-0.890625 -0.9375 -0.890625 -2.609375q0 -1.75 0.890625 -2.703125q0.90625 -0.96875 2.34375 -0.96875q1.390625 0 2.265625 0.9375q0.875 0.9375 0.875 2.65625q0 0.109375 0 0.3125l-5.15625 0q0.0625 1.140625 0.640625 1.75q0.578125 0.59375 1.4375 0.59375q0.65625 0 1.109375 -0.328125q0.453125 -0.34375 0.71875 -1.078125zm-3.84375 -1.90625l3.859375 0q-0.078125 -0.859375 -0.4375 -1.296875q-0.5625 -0.6875 -1.453125 -0.6875q-0.8125 0 -1.359375 0.546875q-0.546875 0.53125 -0.609375 1.4375z" fill-rule="nonzero"/><path fill="#000000" fill-opacity="0.0" d="m254.17561 209.51465l0 26.253021l0.22047424 0l0 26.250916" fill-rule="evenodd"/><path stroke="#000000" stroke-width="1.0" stroke-linejoin="round" stroke-linecap="butt" d="m254.17561 209.51463l0 26.253036l0.22045898 0l0 20.250916" fill-rule="evenodd"/><path fill="#000000" stroke="#000000" stroke-width="1.0" stroke-linecap="butt" d="m252.74435 256.0186l1.6517181 4.538086l1.6517487 -4.538086z" fill-rule="evenodd"/><path fill="#d9d2e9" d="m11.013293 73.42664l0 0c0 -6.8456497 5.5494986 -12.395145 12.39515 -12.395145l129.6664 0c3.287384 0 6.44014 1.305912 8.764694 3.6304512c2.3245392 2.3245468 3.6304474 5.477295 3.6304474 8.764694l0 148.97348c0 6.845642 -5.5494995 12.395142 -12.395142 12.395142l-129.6664 0c-6.8456516 0 -12.39515 -5.5494995 -12.39515 -12.395142z" fill-rule="evenodd"/><path stroke="#ff9900" stroke-width="2.0" stroke-linejoin="round" stroke-linecap="butt" stroke-dasharray="2.0,6.0" d="m11.013293 73.42664l0 0c0 -6.8456497 5.5494986 -12.395145 12.39515 -12.395145l129.6664 0c3.287384 0 6.44014 1.305912 8.764694 3.6304512c2.3245392 2.3245468 3.6304474 5.477295 3.6304474 8.764694l0 148.97348c0 6.845642 -5.5494995 12.395142 -12.395142 12.395142l-129.6664 0c-6.8456516 0 -12.39515 -5.5494995 -12.39515 -12.395142z" fill-rule="evenodd"/><path fill="#000000" d="m54.315857 89.02191l0 -11.453125l3.578125 0q2.265625 0 3.375 0.671875q1.125 0.65625 1.125 2.203125q0 0.25 -0.03125 0.5q-0.03125 0.234375 -0.140625 0.546875q-0.109375 0.3125 -0.296875 0.5625q-0.171875 0.25 -0.5 0.484375q-0.3125 0.234375 -0.734375 0.375q1.0625 0.25 1.625 0.984375q0.5625 0.734375 0.5625 1.796875q0 1.625 -1.15625 2.484375q-1.140625 0.84375 -3.15625 0.84375l-4.25 0zm2.125 -1.53125l1.828125 0q2.4375 0 2.4375 -1.90625q0 -0.96875 -0.609375 -1.390625q-0.609375 -0.421875 -1.875 -0.421875l-1.78125 0l0 3.71875zm0 -5.1875l1.8125 0q2.09375 0 2.09375 -1.609375q0 -0.890625 -0.609375 -1.21875q-0.59375 -0.34375 -1.921875 -0.34375l-1.375 0l0 3.171875zm8.1484375 6.71875l0 -8.59375l2.046875 0l0 8.59375l-2.046875 0zm0 -9.84375l0 -1.75l2.046875 0l0 1.75l-2.046875 0zm5.8984375 13.6875l-0.125 -1.65625l1.046875 0q1.796875 0 2.515625 -0.484375q0.71875 -0.46875 0.71875 -1.765625q0 -0.515625 -0.046875 -1.125q-0.203125 0.28125 -0.390625 0.46875q-0.171875 0.171875 -0.453125 0.359375q-0.28125 0.171875 -0.671875 0.265625q-0.375 0.09375 -0.875 0.09375q-1.703125 0 -2.796875 -1.21875q-1.09375 -1.234375 -1.09375 -3.171875q0 -1.03125 0.296875 -1.875q0.3125 -0.859375 0.828125 -1.40625q0.53125 -0.546875 1.203125 -0.828125q0.6875 -0.296875 1.46875 -0.296875q1.71875 0 2.5625 1.25l0.140625 -1.046875l1.828125 0l0 7.984375q0 0.640625 -0.0625 1.15625q-0.0625 0.515625 -0.21875 0.984375q-0.15625 0.46875 -0.40625 0.8125q-0.25 0.359375 -0.640625 0.640625q-0.375 0.296875 -0.90625 0.484375q-0.515625 0.1875 -1.203125 0.28125q-0.6875 0.09375 -1.546875 0.09375l-1.171875 0zm2.046875 -5.28125q2.125 0 2.140625 -2.828125l0 -0.296875q-0.015625 -1.28125 -0.53125 -1.96875q-0.515625 -0.703125 -1.5 -0.703125q-1.125 0 -1.703125 0.765625q-0.578125 0.765625 -0.578125 2.078125q0 1.25 0.578125 2.109375q0.578125 0.84375 1.59375 0.84375zm14.8671875 5.171875q-0.640625 -0.46875 -1.46875 -1.546875q-0.8125 -1.078125 -1.328125 -2.046875q-0.40625 0.03125 -0.625 0.03125q-2.59375 0 -4.09375 -1.5625q-1.484375 -1.578125 -1.484375 -4.34375q0 -2.765625 1.5 -4.3125q1.5 -1.5625 4.078125 -1.5625q2.59375 0 4.078125 1.5625q1.5 1.546875 1.5 4.328125q0 1.96875 -0.796875 3.359375q-0.78125 1.375 -2.234375 2.015625q1.203125 1.953125 2.234375 2.90625l-1.359375 1.171875zm-5.9375 -6.375q0.859375 1.078125 2.515625 1.078125q1.671875 0 2.515625 -1.078125q0.84375 -1.09375 0.84375 -3.0625q0 -2.0 -0.84375 -3.09375q-0.84375 -1.109375 -2.5 -1.109375q-1.671875 0 -2.53125 1.109375q-0.84375 1.09375 -0.84375 3.09375q0 1.96875 0.84375 3.0625zm16.09375 1.96875q-1.015625 0.84375 -2.6875 0.84375q-1.671875 0 -2.703125 -0.84375q-1.015625 -0.84375 -1.015625 -2.453125l0 -5.46875l2.0625 0l0 5.390625q0 0.953125 0.390625 1.390625q0.40625 0.421875 1.28125 0.421875q0.859375 0 1.25 -0.421875q0.40625 -0.421875 0.40625 -1.390625l0 -5.390625l2.046875 0l0 5.46875q0 1.609375 -1.03125 2.453125zm6.8671875 0.84375q-2.078125 0 -3.234375 -1.1875q-1.140625 -1.203125 -1.140625 -3.3125q0 -2.046875 1.078125 -3.25q1.09375 -1.21875 2.96875 -1.21875q1.765625 0 2.75 1.109375q0.984375 1.109375 0.984375 2.9375q0 0.140625 -0.015625 0.4375q0 0.296875 0 0.4375l-5.703125 0q0.03125 1.203125 0.65625 1.859375q0.625 0.65625 1.734375 0.65625q1.40625 0 2.703125 -0.734375l0.28125 1.453125q-1.28125 0.8125 -3.0625 0.8125zm-2.28125 -5.34375l3.75 0q0 -1.046875 -0.484375 -1.609375q-0.46875 -0.5625 -1.3125 -0.5625q-0.78125 0 -1.328125 0.546875q-0.546875 0.546875 -0.625 1.625zm7.3515625 5.171875l0 -8.59375l1.71875 0l0.265625 1.3125q0.84375 -1.34375 2.453125 -1.34375q0.328125 0 0.546875 0.03125l-0.03125 1.703125q-0.3125 -0.046875 -0.65625 -0.046875q-1.125 0 -1.6875 0.609375q-0.5625 0.59375 -0.5625 1.671875l0 4.65625l-2.046875 0zm6.6875 3.625q-0.5 0 -1.0625 -0.0625l-0.109375 -1.59375q0.359375 0.046875 0.921875 0.046875q0.703125 0 1.125 -0.28125q0.4375 -0.28125 0.71875 -1.0q0.03125 -0.078125 0.3125 -0.890625l-3.453125 -8.4375l2.1875 0l2.265625 6.234375q0.25 -0.9375 1.109375 -3.453125q0.875 -2.53125 0.96875 -2.78125l2.1875 0q-3.578125 9.453125 -3.609375 9.53125q-0.546875 1.4375 -1.390625 2.0625q-0.84375 0.625 -2.171875 0.625z" fill-rule="nonzero"/><path fill="#cfe2f3" d="m46.16922 140.95691l0 0c0 4.9379425 18.190636 8.9409485 40.62992 8.9409485c22.439285 0 40.62992 -4.003006 40.62992 -8.9409485l0 53.64566c0 4.937958 -18.190636 8.9409485 -40.62992 8.9409485c-22.439285 0 -40.62992 -4.0029907 -40.62992 -8.9409485z" fill-rule="evenodd"/><path fill="#e2edf7" d="m46.16922 140.95691l0 0c0 -4.9379425 18.190636 -8.9409485 40.62992 -8.9409485c22.439285 0 40.62992 4.003006 40.62992 8.9409485l0 0c0 4.9379425 -18.190636 8.9409485 -40.62992 8.9409485c-22.439285 0 -40.62992 -4.003006 -40.62992 -8.9409485z" fill-rule="evenodd"/><path fill="#000000" fill-opacity="0.0" d="m127.42906 140.95691l0 0c0 4.9379425 -18.190636 8.9409485 -40.62992 8.9409485c-22.439285 0 -40.62992 -4.003006 -40.62992 -8.9409485l0 0c0 -4.9379425 18.190636 -8.9409485 40.62992 -8.9409485c22.439285 0 40.62992 4.003006 40.62992 8.9409485l0 53.64566c0 4.937958 -18.190636 8.9409485 -40.62992 8.9409485c-22.439285 0 -40.62992 -4.0029907 -40.62992 -8.9409485l0 -53.64566" fill-rule="evenodd"/><path stroke="#000000" stroke-width="1.0" stroke-linejoin="round" stroke-linecap="butt" d="m127.42906 140.95691l0 0c0 4.9379425 -18.190636 8.9409485 -40.62992 8.9409485c-22.439285 0 -40.62992 -4.003006 -40.62992 -8.9409485l0 0c0 -4.9379425 18.190636 -8.9409485 40.62992 -8.9409485c22.439285 0 40.62992 4.003006 40.62992 8.9409485l0 53.64566c0 4.937958 -18.190636 8.9409485 -40.62992 8.9409485c-22.439285 0 -40.62992 -4.0029907 -40.62992 -8.9409485l0 -53.64566" fill-rule="evenodd"/><path fill="#000000" d="m64.86408 177.05022l0 -9.546875l3.28125 0q1.109375 0 1.703125 0.140625q0.8125 0.1875 1.390625 0.6875q0.765625 0.640625 1.140625 1.640625q0.375 0.984375 0.375 2.25q0 1.09375 -0.265625 1.9375q-0.25 0.828125 -0.65625 1.390625q-0.390625 0.546875 -0.859375 0.859375q-0.46875 0.3125 -1.140625 0.484375q-0.65625 0.15625 -1.53125 0.15625l-3.4375 0zm1.265625 -1.125l2.03125 0q0.9375 0 1.46875 -0.171875q0.546875 -0.1875 0.875 -0.5q0.4375 -0.453125 0.6875 -1.203125q0.25 -0.765625 0.25 -1.84375q0 -1.5 -0.5 -2.296875q-0.484375 -0.8125 -1.1875 -1.078125q-0.5 -0.203125 -1.625 -0.203125l-2.0 0l0 7.296875zm12.718903 0.265625q-0.65625 0.5625 -1.265625 0.796875q-0.59375 0.21875 -1.28125 0.21875q-1.140625 0 -1.75 -0.546875q-0.609375 -0.5625 -0.609375 -1.4375q0 -0.5 0.21875 -0.921875q0.234375 -0.421875 0.609375 -0.671875q0.375 -0.25 0.84375 -0.390625q0.34375 -0.078125 1.046875 -0.171875q1.421875 -0.171875 2.09375 -0.40625q0 -0.234375 0 -0.296875q0 -0.71875 -0.328125 -1.015625q-0.453125 -0.390625 -1.34375 -0.390625q-0.8125 0 -1.21875 0.296875q-0.390625 0.28125 -0.578125 1.015625l-1.140625 -0.15625q0.15625 -0.734375 0.515625 -1.1875q0.359375 -0.453125 1.03125 -0.6875q0.671875 -0.25 1.5625 -0.25q0.890625 0 1.4375 0.203125q0.5625 0.203125 0.8125 0.53125q0.265625 0.3125 0.375 0.796875q0.046875 0.296875 0.046875 1.078125l0 1.5625q0 1.625 0.078125 2.0625q0.078125 0.4375 0.296875 0.828125l-1.21875 0q-0.1875 -0.359375 -0.234375 -0.859375zm-0.09375 -2.609375q-0.640625 0.265625 -1.921875 0.4375q-0.71875 0.109375 -1.015625 0.25q-0.296875 0.125 -0.46875 0.375q-0.15625 0.25 -0.15625 0.546875q0 0.46875 0.34375 0.78125q0.359375 0.3125 1.046875 0.3125q0.671875 0 1.203125 -0.296875q0.53125 -0.296875 0.78125 -0.8125q0.1875 -0.390625 0.1875 -1.171875l0 -0.421875zm5.5531006 2.421875l0.171875 1.03125q-0.5 0.109375 -0.890625 0.109375q-0.640625 0 -1.0 -0.203125q-0.34375 -0.203125 -0.484375 -0.53125q-0.140625 -0.328125 -0.140625 -1.390625l0 -3.96875l-0.859375 0l0 -0.90625l0.859375 0l0 -1.71875l1.171875 -0.703125l0 2.421875l1.171875 0l0 0.90625l-1.171875 0l0 4.046875q0 0.5 0.046875 0.640625q0.0625 0.140625 0.203125 0.234375q0.140625 0.078125 0.40625 0.078125q0.203125 0 0.515625 -0.046875zm5.6561127 0.1875q-0.65625 0.5625 -1.265625 0.796875q-0.59375 0.21875 -1.28125 0.21875q-1.140625 0 -1.75 -0.546875q-0.609375 -0.5625 -0.609375 -1.4375q0 -0.5 0.21875 -0.921875q0.234375 -0.421875 0.609375 -0.671875q0.375 -0.25 0.84375 -0.390625q0.34375 -0.078125 1.046875 -0.171875q1.421875 -0.171875 2.09375 -0.40625q0 -0.234375 0 -0.296875q0 -0.71875 -0.328125 -1.015625q-0.453125 -0.390625 -1.34375 -0.390625q-0.8125 0 -1.21875 0.296875q-0.390625 0.28125 -0.578125 1.015625l-1.140625 -0.15625q0.15625 -0.734375 0.515625 -1.1875q0.359375 -0.453125 1.03125 -0.6875q0.671875 -0.25 1.5625 -0.25q0.890625 0 1.4375 0.203125q0.5625 0.203125 0.8125 0.53125q0.265625 0.3125 0.375 0.796875q0.046875 0.296875 0.046875 1.078125l0 1.5625q0 1.625 0.078125 2.0625q0.078125 0.4375 0.296875 0.828125l-1.21875 0q-0.1875 -0.359375 -0.234375 -0.859375zm-0.09375 -2.609375q-0.640625 0.265625 -1.921875 0.4375q-0.71875 0.109375 -1.015625 0.25q-0.296875 0.125 -0.46875 0.375q-0.15625 0.25 -0.15625 0.546875q0 0.46875 0.34375 0.78125q0.359375 0.3125 1.046875 0.3125q0.671875 0 1.203125 -0.296875q0.53125 -0.296875 0.78125 -0.8125q0.1875 -0.390625 0.1875 -1.171875l0 -0.421875zm2.5218506 1.40625l1.15625 -0.1875q0.109375 0.703125 0.546875 1.078125q0.453125 0.359375 1.25 0.359375q0.8125 0 1.203125 -0.328125q0.390625 -0.328125 0.390625 -0.765625q0 -0.390625 -0.359375 -0.625q-0.234375 -0.15625 -1.1875 -0.390625q-1.296875 -0.328125 -1.796875 -0.5625q-0.484375 -0.25 -0.75 -0.65625q-0.25 -0.421875 -0.25 -0.9375q0 -0.453125 0.203125 -0.84375q0.21875 -0.40625 0.578125 -0.671875q0.28125 -0.1875 0.75 -0.328125q0.46875 -0.140625 1.015625 -0.140625q0.8125 0 1.421875 0.234375q0.609375 0.234375 0.90625 0.640625q0.296875 0.390625 0.40625 1.0625l-1.140625 0.15625q-0.078125 -0.53125 -0.453125 -0.828125q-0.375 -0.3125 -1.0625 -0.3125q-0.8125 0 -1.15625 0.265625q-0.34375 0.265625 -0.34375 0.625q0 0.234375 0.140625 0.421875q0.15625 0.1875 0.453125 0.3125q0.171875 0.0625 1.03125 0.296875q1.25 0.328125 1.734375 0.546875q0.5 0.203125 0.78125 0.609375q0.28125 0.40625 0.28125 1.0q0 0.59375 -0.34375 1.109375q-0.34375 0.515625 -1.0 0.796875q-0.640625 0.28125 -1.453125 0.28125q-1.34375 0 -2.046875 -0.5625q-0.703125 -0.5625 -0.90625 -1.65625zm11.8671875 -0.15625l1.203125 0.140625q-0.28125 1.0625 -1.0625 1.65625q-0.765625 0.578125 -1.96875 0.578125q-1.515625 0 -2.40625 -0.9375q-0.890625 -0.9375 -0.890625 -2.609375q0 -1.75 0.890625 -2.703125q0.90625 -0.96875 2.34375 -0.96875q1.390625 0 2.265625 0.9375q0.875 0.9375 0.875 2.65625q0 0.109375 0 0.3125l-5.15625 0q0.0625 1.140625 0.640625 1.75q0.578125 0.59375 1.4375 0.59375q0.65625 0 1.109375 -0.328125q0.453125 -0.34375 0.71875 -1.078125zm-3.84375 -1.90625l3.859375 0q-0.078125 -0.859375 -0.4375 -1.296875q-0.5625 -0.6875 -1.453125 -0.6875q-0.8125 0 -1.359375 0.546875q-0.546875 0.53125 -0.609375 1.4375zm9.084351 3.078125l0.171875 1.03125q-0.5 0.109375 -0.890625 0.109375q-0.640625 0 -1.0 -0.203125q-0.34375 -0.203125 -0.484375 -0.53125q-0.140625 -0.328125 -0.140625 -1.390625l0 -3.96875l-0.859375 0l0 -0.90625l0.859375 0l0 -1.71875l1.171875 -0.703125l0 2.421875l1.171875 0l0 0.90625l-1.171875 0l0 4.046875q0 0.5 0.046875 0.640625q0.0625 0.140625 0.203125 0.234375q0.140625 0.078125 0.40625 0.078125q0.203125 0 0.515625 -0.046875z" fill-rule="nonzero"/><path fill="#ffe599" d="m18.994085 273.94208l0 0c0 -6.5840454 5.3374367 -11.921509 11.921497 -11.921509l112.56646 0c3.1617737 0 6.194046 1.256012 8.429764 3.4917297c2.2357178 2.2357178 3.4917297 5.2680054 3.4917297 8.429779l0 47.68457c0 6.5840454 -5.337433 11.921509 -11.921494 11.921509l-112.56646 0c-6.5840607 0 -11.921497 -5.3374634 -11.921497 -11.921509z" fill-rule="evenodd"/><path stroke="#ff9900" stroke-width="2.0" stroke-linejoin="round" stroke-linecap="butt" d="m18.994085 273.94208l0 0c0 -6.5840454 5.3374367 -11.921509 11.921497 -11.921509l112.56646 0c3.1617737 0 6.194046 1.256012 8.429764 3.4917297c2.2357178 2.2357178 3.4917297 5.2680054 3.4917297 8.429779l0 47.68457c0 6.5840454 -5.337433 11.921509 -11.921494 11.921509l-112.56646 0c-6.5840607 0 -11.921497 -5.3374634 -11.921497 -11.921509z" fill-rule="evenodd"/><path fill="#000000" d="m64.47615 284.64435l0 -11.625l3.5625 0q0.75 0 1.359375 0.15625q0.625 0.15625 1.109375 0.5q0.5 0.328125 0.765625 0.90625q0.28125 0.578125 0.28125 1.34375q0 0.4375 -0.046875 0.796875q-0.03125 0.359375 -0.15625 0.734375q-0.109375 0.375 -0.3125 0.65625q-0.203125 0.28125 -0.53125 0.546875q-0.3125 0.25 -0.765625 0.421875q-0.4375 0.15625 -1.0625 0.25q-0.609375 0.09375 -1.375 0.09375q-0.828125 0 -1.8125 -0.109375l0 5.328125l-1.015625 0zm2.921875 -6.09375q0.90625 0 1.53125 -0.171875q0.640625 -0.1875 0.953125 -0.40625q0.3125 -0.234375 0.46875 -0.640625q0.171875 -0.421875 0.1875 -0.671875q0.03125 -0.25 0.03125 -0.703125q0 -0.03125 0 -0.046875q0 -1.015625 -0.703125 -1.515625q-0.6875 -0.5 -1.796875 -0.5l-2.578125 0l0 4.5625q0.6875 0.09375 1.90625 0.09375zm6.0234375 6.09375l0 -8.5625l0.984375 0l0 8.5625l-0.984375 0zm0 -10.3125l0 -1.3125l0.96875 0l0 1.3125l-0.96875 0zm6.9453125 10.5q-1.234375 0 -2.15625 -0.609375q-0.90625 -0.609375 -1.359375 -1.59375q-0.4375 -0.984375 -0.4375 -2.1875q0 -0.921875 0.265625 -1.734375q0.265625 -0.8125 0.75 -1.4375q0.484375 -0.625 1.25 -0.984375q0.78125 -0.359375 1.71875 -0.359375q0.625 0 1.234375 0.171875q0.609375 0.15625 0.90625 0.375l-0.296875 0.734375q-0.8125 -0.453125 -1.90625 -0.453125q-1.34375 0 -2.125 1.015625q-0.78125 1.0 -0.78125 2.671875q0 1.609375 0.78125 2.59375q0.78125 0.984375 2.125 0.984375q0.9375 0 2.015625 -0.46875l0.140625 0.703125q-0.359375 0.265625 -0.953125 0.421875q-0.578125 0.15625 -1.171875 0.15625zm3.9921875 -0.1875l0 -11.890625l0.953125 -0.078125l0 6.78125l0 0.75q0.078125 -0.09375 0.5 -0.5625q0.4375 -0.46875 0.484375 -0.53125l2.96875 -3.03125l1.296875 0l-3.578125 3.578125l3.828125 4.984375l-1.21875 0l-3.28125 -4.4375l-1.0 0.921875l0 3.515625l-0.953125 0zm9.84375 0.1875q-1.078125 0 -1.578125 -0.484375q-0.5 -0.5 -0.5 -1.609375l0 -9.984375l0.953125 -0.078125l0 10.015625q0 0.78125 0.28125 1.078125q0.28125 0.296875 0.859375 0.296875q0.46875 0 1.171875 -0.1875l0.046875 0.75q-0.765625 0.203125 -1.234375 0.203125zm5.8515625 0q-1.78125 0 -2.828125 -1.1875q-1.03125 -1.1875 -1.03125 -3.21875q0 -1.96875 1.015625 -3.21875q1.015625 -1.25 2.640625 -1.28125q1.5 0 2.40625 1.078125q0.921875 1.078125 0.921875 2.890625q0 0.0625 0 0.28125q0 0.21875 0 0.296875l-5.96875 0q0.015625 1.65625 0.796875 2.625q0.78125 0.953125 2.0625 0.953125q0.84375 0 1.453125 -0.1875q0.625 -0.203125 1.296875 -0.5625l0.15625 0.734375q-1.296875 0.796875 -2.921875 0.796875zm-2.796875 -5.140625l4.875 0q0 -1.421875 -0.625 -2.1875q-0.609375 -0.765625 -1.6875 -0.765625q-1.09375 0 -1.765625 0.8125q-0.671875 0.8125 -0.796875 2.140625zm10.3671875 5.15625q-0.828125 0 -1.5625 -0.203125q-0.71875 -0.21875 -1.140625 -0.5l0.140625 -0.8125q1.28125 0.671875 2.46875 0.671875q2.109375 0 2.1875 -1.5625q0 -0.65625 -0.421875 -1.03125q-0.421875 -0.375 -1.703125 -0.78125q-0.671875 -0.234375 -0.75 -0.265625q-2.0 -0.609375 -2.015625 -2.15625q0 -0.90625 0.78125 -1.59375q0.796875 -0.6875 2.140625 -0.6875q1.359375 0 2.546875 0.53125l-0.328125 0.71875q-1.203125 -0.453125 -2.234375 -0.453125q-0.90625 0 -1.421875 0.40625q-0.515625 0.40625 -0.515625 1.09375q0 0.578125 0.328125 0.890625q0.34375 0.296875 1.359375 0.578125q0.109375 0.03125 0.390625 0.140625q0.296875 0.109375 0.328125 0.125q1.359375 0.40625 1.890625 0.984375q0.53125 0.5625 0.53125 1.53125q-0.015625 1.125 -0.84375 1.75q-0.8125 0.625 -2.15625 0.625z" fill-rule="nonzero"/><path fill="#000000" d="m51.565994 307.62872l-0.109375 -0.875l1.8125 0q0.59375 0 1.046875 -0.109375q0.46875 -0.09375 0.78125 -0.265625q0.328125 -0.171875 0.546875 -0.46875q0.21875 -0.296875 0.34375 -0.59375q0.125 -0.296875 0.1875 -0.78125q0.078125 -0.46875 0.09375 -0.875q0.015625 -0.390625 0.015625 -0.984375q0 0.078125 -0.015625 -0.046875q-0.046875 -0.53125 -0.046875 -0.53125q-0.484375 0.734375 -1.15625 1.140625q-0.671875 0.40625 -1.640625 0.40625q-0.765625 0 -1.40625 -0.265625q-0.625 -0.28125 -1.03125 -0.71875q-0.390625 -0.4375 -0.671875 -1.0q-0.265625 -0.5625 -0.390625 -1.125q-0.109375 -0.5625 -0.109375 -1.109375q0 -0.6875 0.109375 -1.296875q0.109375 -0.625 0.390625 -1.21875q0.28125 -0.59375 0.703125 -1.03125q0.421875 -0.4375 1.078125 -0.6875q0.671875 -0.265625 1.515625 -0.265625q0.8125 0 1.4375 0.328125q0.640625 0.3125 1.171875 1.03125l0.09375 -1.203125l0.859375 0l0 7.9375q0 0.515625 -0.015625 0.828125q0 0.328125 -0.09375 0.859375q-0.078125 0.546875 -0.21875 0.890625q-0.140625 0.359375 -0.4375 0.78125q-0.296875 0.421875 -0.71875 0.65625q-0.421875 0.25 -1.078125 0.421875q-0.640625 0.171875 -1.46875 0.171875l-1.578125 0zm1.984375 -4.78125q0.5625 0 1.015625 -0.171875q0.46875 -0.1875 0.765625 -0.484375q0.3125 -0.3125 0.515625 -0.71875q0.203125 -0.40625 0.28125 -0.828125q0.09375 -0.4375 0.09375 -0.90625l0 -0.890625q0 -0.609375 -0.15625 -1.140625q-0.140625 -0.546875 -0.453125 -1.0q-0.296875 -0.453125 -0.84375 -0.71875q-0.53125 -0.265625 -1.25 -0.265625q-0.578125 0 -1.046875 0.21875q-0.453125 0.21875 -0.75 0.59375q-0.296875 0.359375 -0.5 0.859375q-0.203125 0.484375 -0.296875 1.0q-0.078125 0.515625 -0.078125 1.046875q0 0.484375 0.078125 0.9375q0.078125 0.4375 0.265625 0.90625q0.1875 0.453125 0.484375 0.796875q0.296875 0.34375 0.78125 0.5625q0.484375 0.203125 1.09375 0.203125zm9.3359375 0.984375q-1.78125 0 -2.828125 -1.1875q-1.03125 -1.1875 -1.03125 -3.21875q0 -1.96875 1.015625 -3.21875q1.015625 -1.25 2.640625 -1.28125q1.5 0 2.40625 1.078125q0.921875 1.078125 0.921875 2.890625q0 0.0625 0 0.28125q0 0.21875 0 0.296875l-5.96875 0q0.015625 1.65625 0.796875 2.625q0.78125 0.953125 2.0625 0.953125q0.84375 0 1.453125 -0.1875q0.625 -0.203125 1.296875 -0.5625l0.15625 0.734375q-1.296875 0.796875 -2.921875 0.796875zm-2.796875 -5.140625l4.875 0q0 -1.421875 -0.625 -2.1875q-0.609375 -0.765625 -1.6875 -0.765625q-1.09375 0 -1.765625 0.8125q-0.671875 0.8125 -0.796875 2.140625zm7.8671875 4.953125l0 -8.5625l0.84375 0l0.125 1.3125q0.46875 -0.6875 1.234375 -1.078125q0.78125 -0.390625 1.6875 -0.390625q1.46875 0 2.15625 0.8125q0.703125 0.8125 0.703125 2.59375l0 5.3125l-0.96875 0l0 -5.75q-0.046875 -1.140625 -0.5 -1.640625q-0.4375 -0.5 -1.453125 -0.5q-1.15625 0 -1.90625 0.59375q-0.734375 0.578125 -0.921875 1.5q-0.03125 0.375 -0.03125 0.765625l0 5.03125l-0.96875 0zm12.46875 0.1875q-1.78125 0 -2.828125 -1.1875q-1.03125 -1.1875 -1.03125 -3.21875q0 -1.96875 1.015625 -3.21875q1.015625 -1.25 2.640625 -1.28125q1.5 0 2.40625 1.078125q0.921875 1.078125 0.921875 2.890625q0 0.0625 0 0.28125q0 0.21875 0 0.296875l-5.96875 0q0.015625 1.65625 0.796875 2.625q0.78125 0.953125 2.0625 0.953125q0.84375 0 1.453125 -0.1875q0.625 -0.203125 1.296875 -0.5625l0.15625 0.734375q-1.296875 0.796875 -2.921875 0.796875zm-2.796875 -5.140625l4.875 0q0 -1.421875 -0.625 -2.1875q-0.609375 -0.765625 -1.6875 -0.765625q-1.09375 0 -1.765625 0.8125q-0.671875 0.8125 -0.796875 2.140625zm7.8828125 4.953125q-0.015625 -7.546875 -0.015625 -8.5625l0.796875 0l0.0625 1.6875q0.453125 -0.765625 1.15625 -1.25q0.71875 -0.484375 1.5 -0.484375q0.3125 0 0.6875 0.046875l-0.078125 0.8125q-0.28125 -0.046875 -0.59375 -0.046875q-1.078125 0 -1.828125 0.859375q-0.734375 0.84375 -0.734375 2.015625l0 4.921875l-0.953125 0zm7.7578125 0.1875q-1.203125 0 -1.9375 -0.609375q-0.71875 -0.609375 -0.71875 -1.75q0 -0.671875 0.28125 -1.15625q0.296875 -0.5 0.84375 -0.8125q0.546875 -0.3125 1.25 -0.484375q0.71875 -0.171875 1.65625 -0.234375q1.0 -0.0625 1.484375 -0.109375l0 -0.953125q0 -0.984375 -0.453125 -1.46875q-0.453125 -0.5 -1.4375 -0.5q-1.359375 0 -2.546875 0.640625q-0.03125 -0.078125 -0.140625 -0.328125q-0.109375 -0.265625 -0.15625 -0.40625q0.484375 -0.3125 1.265625 -0.515625q0.78125 -0.21875 1.53125 -0.21875q1.53125 0 2.203125 0.65625q0.671875 0.65625 0.671875 2.34375l0 5.71875l-0.75 0q-0.046875 -0.1875 -0.125 -0.71875q-0.0625 -0.53125 -0.0625 -0.546875q-1.015625 1.453125 -2.859375 1.453125zm0.03125 -0.78125q1.0 0 1.78125 -0.578125q0.78125 -0.59375 1.015625 -1.640625l0 -1.46875q-1.125 0.09375 -1.125 0.09375q-1.90625 0.171875 -2.65625 0.625q-0.734375 0.453125 -0.734375 1.40625q0 0.78125 0.46875 1.171875q0.46875 0.390625 1.25 0.390625zm8.5078125 0.78125q-1.078125 0 -1.578125 -0.484375q-0.5 -0.5 -0.5 -1.609375l0 -5.953125l-1.203125 0l0.0625 -0.578125l1.15625 -0.109375l0.265625 -1.96875l0.671875 -0.046875l0 2.0l2.5 0l0 0.703125l-2.5 0l0 5.75q0 0.90625 0.296875 1.21875q0.296875 0.3125 1.046875 0.3125q0.484375 0 1.203125 -0.1875l0.046875 0.75q-0.953125 0.203125 -1.46875 0.203125zm2.96875 -0.1875l0 -8.5625l0.984375 0l0 8.5625l-0.984375 0zm0 -10.3125l0 -1.3125l0.96875 0l0 1.3125l-0.96875 0zm6.9296875 9.71875q0.9375 0 1.578125 -0.484375q0.640625 -0.5 0.9375 -1.3125q0.296875 -0.8125 0.296875 -1.875q0 -1.65625 -0.703125 -2.65625q-0.703125 -1.015625 -2.140625 -1.015625q-0.9375 0 -1.609375 0.515625q-0.65625 0.5 -0.96875 1.3125q-0.296875 0.8125 -0.296875 1.875q0 1.59375 0.75 2.625q0.75 1.015625 2.15625 1.015625zm-0.078125 0.78125q-1.15625 0 -2.046875 -0.578125q-0.890625 -0.59375 -1.359375 -1.59375q-0.453125 -1.015625 -0.453125 -2.28125q0 -0.953125 0.265625 -1.765625q0.265625 -0.8125 0.765625 -1.40625q0.5 -0.609375 1.234375 -0.9375q0.75 -0.34375 1.65625 -0.34375q1.203125 0 2.078125 0.59375q0.890625 0.578125 1.328125 1.578125q0.453125 1.0 0.453125 2.265625q0 1.28125 -0.453125 2.28125q-0.453125 1.0 -1.359375 1.59375q-0.890625 0.59375 -2.109375 0.59375zm5.828125 -0.1875l0 -8.5625l0.84375 0l0.125 1.3125q0.46875 -0.6875 1.234375 -1.078125q0.78125 -0.390625 1.6875 -0.390625q1.46875 0 2.15625 0.8125q0.703125 0.8125 0.703125 2.59375l0 5.3125l-0.96875 0l0 -5.75q-0.046875 -1.140625 -0.5 -1.640625q-0.4375 -0.5 -1.453125 -0.5q-1.15625 0 -1.90625 0.59375q-0.734375 0.578125 -0.921875 1.5q-0.03125 0.375 -0.03125 0.765625l0 5.03125l-0.96875 0z" fill-rule="nonzero"/><path fill="#000000" d="m56.702713 326.45685l0 -12.375l0.859375 0l0.09375 1.21875q0.59375 -0.6875 1.21875 -1.03125q0.625 -0.34375 1.453125 -0.34375q1.828125 0 2.734375 1.21875q0.90625 1.203125 0.90625 3.3125q0 1.921875 -0.96875 3.15625q-0.953125 1.21875 -2.59375 1.21875q-0.84375 0 -1.59375 -0.390625q-0.75 -0.40625 -1.1875 -1.0625q0.046875 0.96875 0.046875 1.90625l0 3.109375l-0.96875 0.0625zm3.640625 -4.421875q0.671875 0 1.1875 -0.3125q0.515625 -0.328125 0.8125 -0.859375q0.3125 -0.53125 0.453125 -1.15625q0.15625 -0.640625 0.15625 -1.3125q0 -0.6875 -0.15625 -1.3125q-0.140625 -0.625 -0.4375 -1.15625q-0.296875 -0.546875 -0.828125 -0.859375q-0.515625 -0.328125 -1.1875 -0.328125q-0.734375 0 -1.265625 0.265625q-0.515625 0.265625 -0.828125 0.75q-0.3125 0.484375 -0.453125 1.109375q-0.140625 0.609375 -0.140625 1.375q0 0.890625 0.125 1.5625q0.140625 0.65625 0.4375 1.1875q0.3125 0.515625 0.84375 0.78125q0.53125 0.265625 1.28125 0.265625zm5.6328125 0.609375l0 -8.5625l0.984375 0l0 8.5625l-0.984375 0zm0 -10.3125l0 -1.3125l0.96875 0l0 1.3125l-0.96875 0zm3.3828125 14.125l0 -12.375l0.859375 0l0.09375 1.21875q0.59375 -0.6875 1.21875 -1.03125q0.625 -0.34375 1.453125 -0.34375q1.828125 0 2.734375 1.21875q0.90625 1.203125 0.90625 3.3125q0 1.921875 -0.96875 3.15625q-0.953125 1.21875 -2.59375 1.21875q-0.84375 0 -1.59375 -0.390625q-0.75 -0.40625 -1.1875 -1.0625q0.046875 0.96875 0.046875 1.90625l0 3.109375l-0.96875 0.0625zm3.640625 -4.421875q0.671875 0 1.1875 -0.3125q0.515625 -0.328125 0.8125 -0.859375q0.3125 -0.53125 0.453125 -1.15625q0.15625 -0.640625 0.15625 -1.3125q0 -0.6875 -0.15625 -1.3125q-0.140625 -0.625 -0.4375 -1.15625q-0.296875 -0.546875 -0.828125 -0.859375q-0.515625 -0.328125 -1.1875 -0.328125q-0.734375 0 -1.265625 0.265625q-0.515625 0.265625 -0.828125 0.75q-0.3125 0.484375 -0.453125 1.109375q-0.140625 0.609375 -0.140625 1.375q0 0.890625 0.125 1.5625q0.140625 0.65625 0.4375 1.1875q0.3125 0.515625 0.84375 0.78125q0.53125 0.265625 1.28125 0.265625zm9.0078125 0.796875q-1.78125 0 -2.828125 -1.1875q-1.03125 -1.1875 -1.03125 -3.21875q0 -1.96875 1.015625 -3.21875q1.015625 -1.25 2.640625 -1.28125q1.5 0 2.40625 1.078125q0.921875 1.078125 0.921875 2.890625q0 0.0625 0 0.28125q0 0.21875 0 0.296875l-5.96875 0q0.015625 1.65625 0.796875 2.625q0.78125 0.953125 2.0625 0.953125q0.84375 0 1.453125 -0.1875q0.625 -0.203125 1.296875 -0.5625l0.15625 0.734375q-1.296875 0.796875 -2.921875 0.796875zm-2.796875 -5.140625l4.875 0q0 -1.421875 -0.625 -2.1875q-0.609375 -0.765625 -1.6875 -0.765625q-1.09375 0 -1.765625 0.8125q-0.671875 0.8125 -0.796875 2.140625zm10.0234375 5.140625q-1.078125 0 -1.578125 -0.484375q-0.5 -0.5 -0.5 -1.609375l0 -9.984375l0.953125 -0.078125l0 10.015625q0 0.78125 0.28125 1.078125q0.28125 0.296875 0.859375 0.296875q0.46875 0 1.171875 -0.1875l0.046875 0.75q-0.765625 0.203125 -1.234375 0.203125zm2.4765625 -0.1875l0 -8.5625l0.984375 0l0 8.5625l-0.984375 0zm0 -10.3125l0 -1.3125l0.96875 0l0 1.3125l-0.96875 0zm3.3828125 10.3125l0 -8.5625l0.84375 0l0.125 1.3125q0.46875 -0.6875 1.234375 -1.078125q0.78125 -0.390625 1.6875 -0.390625q1.46875 0 2.15625 0.8125q0.703125 0.8125 0.703125 2.59375l0 5.3125l-0.96875 0l0 -5.75q-0.046875 -1.140625 -0.5 -1.640625q-0.4375 -0.5 -1.453125 -0.5q-1.15625 0 -1.90625 0.59375q-0.734375 0.578125 -0.921875 1.5q-0.03125 0.375 -0.03125 0.765625l0 5.03125l-0.96875 0zm12.46875 0.1875q-1.78125 0 -2.828125 -1.1875q-1.03125 -1.1875 -1.03125 -3.21875q0 -1.96875 1.015625 -3.21875q1.015625 -1.25 2.640625 -1.28125q1.5 0 2.40625 1.078125q0.921875 1.078125 0.921875 2.890625q0 0.0625 0 0.28125q0 0.21875 0 0.296875l-5.96875 0q0.015625 1.65625 0.796875 2.625q0.78125 0.953125 2.0625 0.953125q0.84375 0 1.453125 -0.1875q0.625 -0.203125 1.296875 -0.5625l0.15625 0.734375q-1.296875 0.796875 -2.921875 0.796875zm-2.796875 -5.140625l4.875 0q0 -1.421875 -0.625 -2.1875q-0.609375 -0.765625 -1.6875 -0.765625q-1.09375 0 -1.765625 0.8125q-0.671875 0.8125 -0.796875 2.140625zm10.3671875 5.15625q-0.828125 0 -1.5625 -0.203125q-0.71875 -0.21875 -1.140625 -0.5l0.140625 -0.8125q1.28125 0.671875 2.46875 0.671875q2.109375 0 2.1875 -1.5625q0 -0.65625 -0.421875 -1.03125q-0.421875 -0.375 -1.703125 -0.78125q-0.671875 -0.234375 -0.75 -0.265625q-2.0 -0.609375 -2.015625 -2.15625q0 -0.90625 0.78125 -1.59375q0.796875 -0.6875 2.140625 -0.6875q1.359375 0 2.546875 0.53125l-0.328125 0.71875q-1.203125 -0.453125 -2.234375 -0.453125q-0.90625 0 -1.421875 0.40625q-0.515625 0.40625 -0.515625 1.09375q0 0.578125 0.328125 0.890625q0.34375 0.296875 1.359375 0.578125q0.109375 0.03125 0.390625 0.140625q0.296875 0.109375 0.328125 0.125q1.359375 0.40625 1.890625 0.984375q0.53125 0.5625 0.53125 1.53125q-0.015625 1.125 -0.84375 1.75q-0.8125 0.625 -2.15625 0.625z" fill-rule="nonzero"/><path fill="#000000" fill-opacity="0.0" d="m87.19881 333.54816l0 25.000244l92.714035 0l0 -245.56154l74.27809 0l0 25.002228" fill-rule="evenodd"/><path stroke="#000000" stroke-width="1.0" stroke-linejoin="round" stroke-linecap="butt" d="m87.19881 333.54816l0 25.000244l92.71402 0l0 -245.56152l74.27812 0l0 19.00222" fill-rule="evenodd"/><path fill="#000000" stroke="#000000" stroke-width="1.0" stroke-linecap="butt" d="m252.53922 131.98909l1.6517334 4.538101l1.6517334 -4.538101z" fill-rule="evenodd"/><path fill="#000000" fill-opacity="0.0" d="m86.79914 203.54352l0 29.23825l0.40944672 0l0 29.249939" fill-rule="evenodd"/><path stroke="#000000" stroke-width="1.0" stroke-linejoin="round" stroke-linecap="butt" d="m86.79914 203.54352l0 29.23825l0.40944672 0l0 23.249939" fill-rule="evenodd"/><path fill="#000000" stroke="#000000" stroke-width="1.0" stroke-linecap="butt" d="m85.556854 256.0317l1.6517334 4.538086l1.6517334 -4.538086z" fill-rule="evenodd"/></g></svg>